M48
;DRILL file {KiCad 4.0.4-stable} date 11/25/16 20:15:34
;FORMAT={-:-/ absolute / inch / decimal}
FMAT,2
INCH,TZ
T1C0.028
T2C0.031
T3C0.035
T4C0.039
T5C0.039
T6C0.040
T7C0.060
%
G90
G05
M72
T1
X4.226Y-5.0394
X4.626Y-5.0394
X4.7343Y-5.0394
X5.1343Y-5.0394
X5.315Y-4.5668
X5.715Y-4.5668
X5.8858Y-4.5629
X6.2858Y-4.5629
X6.378Y-3.5827
X6.778Y-3.5827
T2
X3.5984Y-3.2638
X3.6319Y-3.4547
X3.6417Y-3.563
X3.8858Y-3.2638
X3.9862Y-3.563
X4.0354Y-4.1043
X4.065Y-3.4547
X4.1024Y-4.0354
X4.2913Y-4.6358
X4.2913Y-4.9358
X4.3913Y-4.6358
X4.3913Y-4.9358
X4.4134Y-2.9921
X4.4134Y-3.0709
X4.4913Y-4.6358
X4.4913Y-4.9358
X4.5669Y-4.1102
X4.5768Y-4.4778
X4.6417Y-4.0354
X4.7244Y-4.4783
X4.7441Y-4.6358
X4.7441Y-4.9358
X4.8031Y-3.7047
X4.8053Y-4.0906
X4.8441Y-4.6358
X4.8441Y-4.9358
X4.9441Y-4.6358
X4.9441Y-4.9358
X5.6339Y-3.8228
X5.6339Y-3.9016
X5.7579Y-4.0643
X5.8465Y-3.8898
X5.8504Y-3.748
X5.9094Y-4.065
X5.9291Y-3.748
X5.9291Y-3.8898
X5.9724Y-2.9803
X5.9724Y-3.0591
X6.0433Y-4.0906
X6.0449Y-3.7417
X6.2008Y-3.7894
X6.2008Y-4.1339
T3
X4.6339Y-2.9291
X4.6339Y-3.126
X5.2677Y-3.8583
X5.4646Y-3.8583
X5.7598Y-2.9252
X5.7598Y-3.122
T4
X5.2461Y-4.7603
X5.2461Y-5.2303
X5.3331Y-4.4504
X5.4331Y-4.3504
X5.4861Y-4.6803
X5.5331Y-4.4504
X5.7161Y-4.7603
X5.7161Y-5.2303
X5.8563Y-4.7603
X5.8563Y-5.2303
X5.9744Y-4.4504
X6.0039Y-3.4547
X6.0744Y-4.3504
X6.0963Y-4.6803
X6.1039Y-3.5547
X6.1744Y-4.4504
X6.2039Y-3.4547
X6.3263Y-4.7603
X6.3263Y-5.2303
T5
X4.1634Y-4.1929
X4.1634Y-4.4929
X4.2669Y-5.3051
X4.3012Y-4.1929
X4.3012Y-4.4929
X4.3012Y-5.1575
X4.3417Y-3.5827
X4.3425Y-3.752
X4.3425Y-3.9272
X4.5669Y-5.3051
X4.6012Y-5.1575
X4.6417Y-3.5827
X4.6425Y-3.752
X4.6425Y-3.9272
X4.7394Y-5.3051
X4.8228Y-5.1575
X4.872Y-4.1685
X4.872Y-4.4685
X5.0394Y-5.3051
X5.0492Y-4.3406
X5.0492Y-4.4406
X5.1228Y-5.1575
X5.2067Y-4.0406
X5.2067Y-4.3406
X5.6594Y-4.1587
X5.6594Y-4.4587
X5.7039Y-3.2717
X5.7677Y-4.2224
X5.8071Y-4.3406
X5.8071Y-4.4406
X6.0039Y-3.2717
X6.0677Y-4.2224
X6.1567Y-3.685
X6.2559Y-3.0512
X6.2559Y-3.1512
X6.4567Y-3.685
T6
X3.7799Y-3.7652
X3.7799Y-3.8652
X3.7799Y-3.9652
X3.7799Y-4.0652
X3.7799Y-4.1652
X3.7799Y-4.2652
X3.7799Y-4.3652
X3.7799Y-4.4652
X3.7799Y-4.5652
X3.7799Y-4.6652
X3.7799Y-4.7652
X3.7799Y-4.8652
X3.7799Y-4.9652
X3.7799Y-5.0652
X3.7799Y-5.1652
X3.7799Y-5.2652
X3.7799Y-5.3652
X3.7799Y-5.4652
X3.7799Y-5.5652
X3.7799Y-5.6652
X3.8799Y-3.7652
X3.8799Y-3.8652
X3.8799Y-3.9652
X3.8799Y-4.0652
X3.8799Y-4.1652
X3.8799Y-4.2652
X3.8799Y-4.3652
X3.8799Y-4.4652
X3.8799Y-4.5652
X3.8799Y-4.6652
X3.8799Y-4.7652
X3.8799Y-4.8652
X3.8799Y-4.9652
X3.8799Y-5.0652
X3.8799Y-5.1652
X3.8799Y-5.2652
X3.8799Y-5.3652
X3.8799Y-5.4652
X3.8799Y-5.5652
X3.8799Y-5.6652
X6.5799Y-3.7652
X6.5799Y-3.8652
X6.5799Y-3.9652
X6.5799Y-4.0652
X6.5799Y-4.1652
X6.5799Y-4.2652
X6.5799Y-4.3652
X6.5799Y-4.4652
X6.5799Y-4.5652
X6.5799Y-4.6652
X6.5799Y-4.7652
X6.5799Y-4.8652
X6.5799Y-4.9652
X6.5799Y-5.0652
X6.5799Y-5.1652
X6.5799Y-5.2652
X6.5799Y-5.3652
X6.5799Y-5.4652
X6.5799Y-5.5652
X6.5799Y-5.6652
X6.6799Y-3.7652
X6.6799Y-3.8652
X6.6799Y-3.9652
X6.6799Y-4.0652
X6.6799Y-4.1652
X6.6799Y-4.2652
X6.6799Y-4.3652
X6.6799Y-4.4652
X6.6799Y-4.5652
X6.6799Y-4.6652
X6.6799Y-4.7652
X6.6799Y-4.8652
X6.6799Y-4.9652
X6.6799Y-5.0652
X6.6799Y-5.1652
X6.6799Y-5.2652
X6.6799Y-5.3652
X6.6799Y-5.4652
X6.6799Y-5.5652
X6.6799Y-5.6652
T7
X3.7272Y-5.9154
X3.9272Y-5.9154
X4.1272Y-5.9154
X6.1402Y-5.9154
X6.3402Y-5.9154
X6.5831Y-5.9154
X6.7831Y-5.9154
T0
M30
