G04 #@! TF.FileFunction,Legend,Bot*
%FSLAX46Y46*%
G04 Gerber Fmt 4.6, Leading zero omitted, Abs format (unit mm)*
G04 Created by KiCad (PCBNEW 4.0.6-e0-6349~53~ubuntu16.04.1) date Sat Aug 19 19:33:35 2017*
%MOMM*%
%LPD*%
G01*
G04 APERTURE LIST*
%ADD10C,0.100000*%
%ADD11C,0.150000*%
%ADD12C,0.120000*%
G04 APERTURE END LIST*
D10*
D11*
X115125000Y-33750000D02*
G75*
G03X115125000Y-33750000I-1250000J0D01*
G01*
X100125000Y-33750000D02*
G75*
G03X100125000Y-33750000I-1250000J0D01*
G01*
X93125000Y-33750000D02*
G75*
G03X93125000Y-33750000I-1250000J0D01*
G01*
X78125000Y-33750000D02*
G75*
G03X78125000Y-33750000I-1250000J0D01*
G01*
X56125000Y-33750000D02*
G75*
G03X56125000Y-33750000I-1250000J0D01*
G01*
X71125000Y-33750000D02*
G75*
G03X71125000Y-33750000I-1250000J0D01*
G01*
X124500000Y-162750000D02*
G75*
G03X127250000Y-160000000I0J2750000D01*
G01*
X44250000Y-162750000D02*
X124500000Y-162750000D01*
X127250000Y-28500000D02*
X127250000Y-160000000D01*
X127250000Y-28500000D02*
G75*
G03X124500000Y-25750000I-2750000J0D01*
G01*
X44000000Y-25750000D02*
X124500000Y-25750000D01*
X44000000Y-25750000D02*
G75*
G03X41500000Y-28250000I0J-2500000D01*
G01*
X41500000Y-160000000D02*
X41500000Y-28250000D01*
X41500000Y-160000000D02*
G75*
G03X44250000Y-162750000I2750000J0D01*
G01*
D12*
X58961000Y-33996000D02*
X58961000Y-32996000D01*
X60661000Y-32996000D02*
X60661000Y-33996000D01*
X65741000Y-32996000D02*
X65741000Y-33996000D01*
X64041000Y-33996000D02*
X64041000Y-32996000D01*
X81446000Y-56678200D02*
X81446000Y-55678200D01*
X83146000Y-55678200D02*
X83146000Y-56678200D01*
X51188000Y-69556000D02*
X51188000Y-68556000D01*
X52888000Y-68556000D02*
X52888000Y-69556000D01*
X57222000Y-75160000D02*
X57222000Y-76160000D01*
X55522000Y-76160000D02*
X55522000Y-75160000D01*
X60270000Y-75160000D02*
X60270000Y-76160000D01*
X58570000Y-76160000D02*
X58570000Y-75160000D01*
X64826000Y-68556000D02*
X64826000Y-69556000D01*
X63126000Y-69556000D02*
X63126000Y-68556000D01*
X77890000Y-69556000D02*
X77890000Y-68556000D01*
X79590000Y-68556000D02*
X79590000Y-69556000D01*
X83908000Y-75160000D02*
X83908000Y-76160000D01*
X82208000Y-76160000D02*
X82208000Y-75160000D01*
X86956000Y-75160000D02*
X86956000Y-76160000D01*
X85256000Y-76160000D02*
X85256000Y-75160000D01*
X91274000Y-68556000D02*
X91274000Y-69556000D01*
X89574000Y-69556000D02*
X89574000Y-68556000D01*
X103814000Y-69556000D02*
X103814000Y-68556000D01*
X105514000Y-68556000D02*
X105514000Y-69556000D01*
X109832000Y-75160000D02*
X109832000Y-76160000D01*
X108132000Y-76160000D02*
X108132000Y-75160000D01*
X112880000Y-75160000D02*
X112880000Y-76160000D01*
X111180000Y-76160000D02*
X111180000Y-75160000D01*
X117198000Y-68556000D02*
X117198000Y-69556000D01*
X115498000Y-69556000D02*
X115498000Y-68556000D01*
X86622000Y-85256000D02*
X87622000Y-85256000D01*
X87622000Y-86956000D02*
X86622000Y-86956000D01*
X53221000Y-156725000D02*
X54221000Y-156725000D01*
X54221000Y-158425000D02*
X53221000Y-158425000D01*
X56634000Y-143058000D02*
X55634000Y-143058000D01*
X55634000Y-141358000D02*
X56634000Y-141358000D01*
X62730000Y-158298000D02*
X61730000Y-158298000D01*
X61730000Y-156598000D02*
X62730000Y-156598000D01*
X68826000Y-143058000D02*
X67826000Y-143058000D01*
X67826000Y-141358000D02*
X68826000Y-141358000D01*
X73144000Y-158298000D02*
X72144000Y-158298000D01*
X72144000Y-156598000D02*
X73144000Y-156598000D01*
X83558000Y-158298000D02*
X82558000Y-158298000D01*
X82558000Y-156598000D02*
X83558000Y-156598000D01*
X87368000Y-143058000D02*
X86368000Y-143058000D01*
X86368000Y-141358000D02*
X87368000Y-141358000D01*
X94226000Y-158298000D02*
X93226000Y-158298000D01*
X93226000Y-156598000D02*
X94226000Y-156598000D01*
X99306000Y-143058000D02*
X98306000Y-143058000D01*
X98306000Y-141358000D02*
X99306000Y-141358000D01*
X104386000Y-158298000D02*
X103386000Y-158298000D01*
X103386000Y-156598000D02*
X104386000Y-156598000D01*
X111498000Y-143058000D02*
X110498000Y-143058000D01*
X110498000Y-141358000D02*
X111498000Y-141358000D01*
X114800000Y-158298000D02*
X113800000Y-158298000D01*
X113800000Y-156598000D02*
X114800000Y-156598000D01*
X92920000Y-45552000D02*
X94120000Y-45552000D01*
X94120000Y-43792000D02*
X92920000Y-43792000D01*
X49920000Y-39500000D02*
X49920000Y-40700000D01*
X51680000Y-40700000D02*
X51680000Y-39500000D01*
X113525000Y-45552000D02*
X114725000Y-45552000D01*
X114725000Y-43792000D02*
X113525000Y-43792000D01*
X113826400Y-149990000D02*
X113826400Y-151190000D01*
X115586400Y-151190000D02*
X115586400Y-149990000D01*
X108848000Y-134750000D02*
X108848000Y-135950000D01*
X110608000Y-135950000D02*
X110608000Y-134750000D01*
X103310800Y-149990000D02*
X103310800Y-151190000D01*
X105070800Y-151190000D02*
X105070800Y-149990000D01*
X96656000Y-134750000D02*
X96656000Y-135950000D01*
X98416000Y-135950000D02*
X98416000Y-134750000D01*
X113656000Y-151190000D02*
X113656000Y-149990000D01*
X111896000Y-149990000D02*
X111896000Y-151190000D01*
X106308000Y-146180000D02*
X106308000Y-147380000D01*
X108068000Y-147380000D02*
X108068000Y-146180000D01*
X103140400Y-151190000D02*
X103140400Y-149990000D01*
X101380400Y-149990000D02*
X101380400Y-151190000D01*
X93646000Y-145164000D02*
X93646000Y-146364000D01*
X95406000Y-146364000D02*
X95406000Y-145164000D01*
X91118800Y-149990000D02*
X91118800Y-151190000D01*
X92878800Y-151190000D02*
X92878800Y-149990000D01*
X84718000Y-134750000D02*
X84718000Y-135950000D01*
X86478000Y-135950000D02*
X86478000Y-134750000D01*
X80755600Y-149990000D02*
X80755600Y-151190000D01*
X82515600Y-151190000D02*
X82515600Y-149990000D01*
X72424400Y-149990000D02*
X72424400Y-151190000D01*
X74184400Y-151190000D02*
X74184400Y-149990000D01*
X94834600Y-151190000D02*
X94834600Y-149990000D01*
X93074600Y-149990000D02*
X93074600Y-151190000D01*
X81162000Y-145164000D02*
X81162000Y-146364000D01*
X82922000Y-146364000D02*
X82922000Y-145164000D01*
X84446000Y-151190000D02*
X84446000Y-149990000D01*
X82686000Y-149990000D02*
X82686000Y-151190000D01*
X72254000Y-151190000D02*
X72254000Y-149990000D01*
X70494000Y-149990000D02*
X70494000Y-151190000D01*
X66430000Y-134750000D02*
X66430000Y-135950000D01*
X68190000Y-135950000D02*
X68190000Y-134750000D01*
X59826000Y-149990000D02*
X59826000Y-151190000D01*
X61586000Y-151190000D02*
X61586000Y-149990000D01*
X54984000Y-134750000D02*
X54984000Y-135950000D01*
X56744000Y-135950000D02*
X56744000Y-134750000D01*
X52954800Y-149990000D02*
X52954800Y-151190000D01*
X54714800Y-151190000D02*
X54714800Y-149990000D01*
X63585200Y-146180000D02*
X63585200Y-147380000D01*
X65345200Y-147380000D02*
X65345200Y-146180000D01*
X63414800Y-151190000D02*
X63414800Y-149990000D01*
X61654800Y-149990000D02*
X61654800Y-151190000D01*
X51190000Y-144656000D02*
X51190000Y-145856000D01*
X52950000Y-145856000D02*
X52950000Y-144656000D01*
X56696000Y-151190000D02*
X56696000Y-149990000D01*
X54936000Y-149990000D02*
X54936000Y-151190000D01*
X102524000Y-102448000D02*
X103724000Y-102448000D01*
X103724000Y-100688000D02*
X102524000Y-100688000D01*
X94904000Y-102448000D02*
X96104000Y-102448000D01*
X96104000Y-100688000D02*
X94904000Y-100688000D01*
X112446000Y-80604000D02*
X113646000Y-80604000D01*
X113646000Y-78844000D02*
X112446000Y-78844000D01*
X113646000Y-63604000D02*
X112446000Y-63604000D01*
X112446000Y-65364000D02*
X113646000Y-65364000D01*
X102524000Y-97368000D02*
X103724000Y-97368000D01*
X103724000Y-95608000D02*
X102524000Y-95608000D01*
X108566000Y-78844000D02*
X107366000Y-78844000D01*
X107366000Y-80604000D02*
X108566000Y-80604000D01*
X94904000Y-97368000D02*
X96104000Y-97368000D01*
X96104000Y-95608000D02*
X94904000Y-95608000D01*
X108566000Y-63604000D02*
X107366000Y-63604000D01*
X107366000Y-65364000D02*
X108566000Y-65364000D01*
X117736000Y-81848000D02*
X117736000Y-80648000D01*
X115976000Y-80648000D02*
X115976000Y-81848000D01*
X105036000Y-81848000D02*
X105036000Y-80648000D01*
X103276000Y-80648000D02*
X103276000Y-81848000D01*
X102524000Y-92288000D02*
X103724000Y-92288000D01*
X103724000Y-90528000D02*
X102524000Y-90528000D01*
X94904000Y-92288000D02*
X96104000Y-92288000D01*
X96104000Y-90528000D02*
X94904000Y-90528000D01*
X86522000Y-80604000D02*
X87722000Y-80604000D01*
X87722000Y-78844000D02*
X86522000Y-78844000D01*
X87468000Y-63604000D02*
X86268000Y-63604000D01*
X86268000Y-65364000D02*
X87468000Y-65364000D01*
X66132000Y-100688000D02*
X64932000Y-100688000D01*
X64932000Y-102448000D02*
X66132000Y-102448000D01*
X82642000Y-78844000D02*
X81442000Y-78844000D01*
X81442000Y-80604000D02*
X82642000Y-80604000D01*
X73752000Y-100688000D02*
X72552000Y-100688000D01*
X72552000Y-102448000D02*
X73752000Y-102448000D01*
X82388000Y-63604000D02*
X81188000Y-63604000D01*
X81188000Y-65364000D02*
X82388000Y-65364000D01*
X91812000Y-81848000D02*
X91812000Y-80648000D01*
X90052000Y-80648000D02*
X90052000Y-81848000D01*
X79112000Y-81848000D02*
X79112000Y-80648000D01*
X77352000Y-80648000D02*
X77352000Y-81848000D01*
X66132000Y-90528000D02*
X64932000Y-90528000D01*
X64932000Y-92288000D02*
X66132000Y-92288000D01*
X73752000Y-90528000D02*
X72552000Y-90528000D01*
X72552000Y-92288000D02*
X73752000Y-92288000D01*
X59820000Y-80604000D02*
X61020000Y-80604000D01*
X61020000Y-78844000D02*
X59820000Y-78844000D01*
X60956000Y-63604000D02*
X59756000Y-63604000D01*
X59756000Y-65364000D02*
X60956000Y-65364000D01*
X66132000Y-95608000D02*
X64932000Y-95608000D01*
X64932000Y-97368000D02*
X66132000Y-97368000D01*
X55940000Y-78844000D02*
X54740000Y-78844000D01*
X54740000Y-80604000D02*
X55940000Y-80604000D01*
X73752000Y-95608000D02*
X72552000Y-95608000D01*
X72552000Y-97368000D02*
X73752000Y-97368000D01*
X55876000Y-63604000D02*
X54676000Y-63604000D01*
X54676000Y-65364000D02*
X55876000Y-65364000D01*
X64856000Y-81848000D02*
X64856000Y-80648000D01*
X63096000Y-80648000D02*
X63096000Y-81848000D01*
X52664000Y-81848000D02*
X52664000Y-80648000D01*
X50904000Y-80648000D02*
X50904000Y-81848000D01*
X104375000Y-43792000D02*
X103175000Y-43792000D01*
X103175000Y-45552000D02*
X104375000Y-45552000D01*
X83714000Y-43792000D02*
X82514000Y-43792000D01*
X82514000Y-45552000D02*
X83714000Y-45552000D01*
X72780000Y-50152000D02*
X72780000Y-51352000D01*
X74540000Y-51352000D02*
X74540000Y-50152000D01*
X68190000Y-51352000D02*
X68190000Y-50152000D01*
X66430000Y-50152000D02*
X66430000Y-51352000D01*
X98206000Y-45552000D02*
X99406000Y-45552000D01*
X99406000Y-43792000D02*
X98206000Y-43792000D01*
X108425333Y-45552000D02*
X109625333Y-45552000D01*
X109625333Y-43792000D02*
X108425333Y-43792000D01*
X77378000Y-45552000D02*
X78578000Y-45552000D01*
X78578000Y-43792000D02*
X77378000Y-43792000D01*
X51550000Y-45552000D02*
X52750000Y-45552000D01*
X52750000Y-43792000D02*
X51550000Y-43792000D01*
X87800000Y-45552000D02*
X89000000Y-45552000D01*
X89000000Y-43792000D02*
X87800000Y-43792000D01*
X59020000Y-43842000D02*
X57820000Y-43842000D01*
X57820000Y-45602000D02*
X59020000Y-45602000D01*
D11*
X58418143Y-33329334D02*
X58465762Y-33281715D01*
X58513381Y-33138858D01*
X58513381Y-33043620D01*
X58465762Y-32900762D01*
X58370524Y-32805524D01*
X58275286Y-32757905D01*
X58084810Y-32710286D01*
X57941952Y-32710286D01*
X57751476Y-32757905D01*
X57656238Y-32805524D01*
X57561000Y-32900762D01*
X57513381Y-33043620D01*
X57513381Y-33138858D01*
X57561000Y-33281715D01*
X57608619Y-33329334D01*
X58513381Y-34281715D02*
X58513381Y-33710286D01*
X58513381Y-33996000D02*
X57513381Y-33996000D01*
X57656238Y-33900762D01*
X57751476Y-33805524D01*
X57799095Y-33710286D01*
X66998143Y-33329334D02*
X67045762Y-33281715D01*
X67093381Y-33138858D01*
X67093381Y-33043620D01*
X67045762Y-32900762D01*
X66950524Y-32805524D01*
X66855286Y-32757905D01*
X66664810Y-32710286D01*
X66521952Y-32710286D01*
X66331476Y-32757905D01*
X66236238Y-32805524D01*
X66141000Y-32900762D01*
X66093381Y-33043620D01*
X66093381Y-33138858D01*
X66141000Y-33281715D01*
X66188619Y-33329334D01*
X66188619Y-33710286D02*
X66141000Y-33757905D01*
X66093381Y-33853143D01*
X66093381Y-34091239D01*
X66141000Y-34186477D01*
X66188619Y-34234096D01*
X66283857Y-34281715D01*
X66379095Y-34281715D01*
X66521952Y-34234096D01*
X67093381Y-33662667D01*
X67093381Y-34281715D01*
X82637143Y-59567534D02*
X82684762Y-59519915D01*
X82732381Y-59377058D01*
X82732381Y-59281820D01*
X82684762Y-59138962D01*
X82589524Y-59043724D01*
X82494286Y-58996105D01*
X82303810Y-58948486D01*
X82160952Y-58948486D01*
X81970476Y-58996105D01*
X81875238Y-59043724D01*
X81780000Y-59138962D01*
X81732381Y-59281820D01*
X81732381Y-59377058D01*
X81780000Y-59519915D01*
X81827619Y-59567534D01*
X81732381Y-59900867D02*
X81732381Y-60519915D01*
X82113333Y-60186581D01*
X82113333Y-60329439D01*
X82160952Y-60424677D01*
X82208571Y-60472296D01*
X82303810Y-60519915D01*
X82541905Y-60519915D01*
X82637143Y-60472296D01*
X82684762Y-60424677D01*
X82732381Y-60329439D01*
X82732381Y-60043724D01*
X82684762Y-59948486D01*
X82637143Y-59900867D01*
X50645143Y-68889334D02*
X50692762Y-68841715D01*
X50740381Y-68698858D01*
X50740381Y-68603620D01*
X50692762Y-68460762D01*
X50597524Y-68365524D01*
X50502286Y-68317905D01*
X50311810Y-68270286D01*
X50168952Y-68270286D01*
X49978476Y-68317905D01*
X49883238Y-68365524D01*
X49788000Y-68460762D01*
X49740381Y-68603620D01*
X49740381Y-68698858D01*
X49788000Y-68841715D01*
X49835619Y-68889334D01*
X50073714Y-69746477D02*
X50740381Y-69746477D01*
X49692762Y-69508381D02*
X50407048Y-69270286D01*
X50407048Y-69889334D01*
X56729143Y-72191334D02*
X56776762Y-72143715D01*
X56824381Y-72000858D01*
X56824381Y-71905620D01*
X56776762Y-71762762D01*
X56681524Y-71667524D01*
X56586286Y-71619905D01*
X56395810Y-71572286D01*
X56252952Y-71572286D01*
X56062476Y-71619905D01*
X55967238Y-71667524D01*
X55872000Y-71762762D01*
X55824381Y-71905620D01*
X55824381Y-72000858D01*
X55872000Y-72143715D01*
X55919619Y-72191334D01*
X55824381Y-73096096D02*
X55824381Y-72619905D01*
X56300571Y-72572286D01*
X56252952Y-72619905D01*
X56205333Y-72715143D01*
X56205333Y-72953239D01*
X56252952Y-73048477D01*
X56300571Y-73096096D01*
X56395810Y-73143715D01*
X56633905Y-73143715D01*
X56729143Y-73096096D01*
X56776762Y-73048477D01*
X56824381Y-72953239D01*
X56824381Y-72715143D01*
X56776762Y-72619905D01*
X56729143Y-72572286D01*
X59777143Y-72191334D02*
X59824762Y-72143715D01*
X59872381Y-72000858D01*
X59872381Y-71905620D01*
X59824762Y-71762762D01*
X59729524Y-71667524D01*
X59634286Y-71619905D01*
X59443810Y-71572286D01*
X59300952Y-71572286D01*
X59110476Y-71619905D01*
X59015238Y-71667524D01*
X58920000Y-71762762D01*
X58872381Y-71905620D01*
X58872381Y-72000858D01*
X58920000Y-72143715D01*
X58967619Y-72191334D01*
X58872381Y-73048477D02*
X58872381Y-72858000D01*
X58920000Y-72762762D01*
X58967619Y-72715143D01*
X59110476Y-72619905D01*
X59300952Y-72572286D01*
X59681905Y-72572286D01*
X59777143Y-72619905D01*
X59824762Y-72667524D01*
X59872381Y-72762762D01*
X59872381Y-72953239D01*
X59824762Y-73048477D01*
X59777143Y-73096096D01*
X59681905Y-73143715D01*
X59443810Y-73143715D01*
X59348571Y-73096096D01*
X59300952Y-73048477D01*
X59253333Y-72953239D01*
X59253333Y-72762762D01*
X59300952Y-72667524D01*
X59348571Y-72619905D01*
X59443810Y-72572286D01*
X66083143Y-68889334D02*
X66130762Y-68841715D01*
X66178381Y-68698858D01*
X66178381Y-68603620D01*
X66130762Y-68460762D01*
X66035524Y-68365524D01*
X65940286Y-68317905D01*
X65749810Y-68270286D01*
X65606952Y-68270286D01*
X65416476Y-68317905D01*
X65321238Y-68365524D01*
X65226000Y-68460762D01*
X65178381Y-68603620D01*
X65178381Y-68698858D01*
X65226000Y-68841715D01*
X65273619Y-68889334D01*
X65178381Y-69222667D02*
X65178381Y-69889334D01*
X66178381Y-69460762D01*
X77347143Y-68889334D02*
X77394762Y-68841715D01*
X77442381Y-68698858D01*
X77442381Y-68603620D01*
X77394762Y-68460762D01*
X77299524Y-68365524D01*
X77204286Y-68317905D01*
X77013810Y-68270286D01*
X76870952Y-68270286D01*
X76680476Y-68317905D01*
X76585238Y-68365524D01*
X76490000Y-68460762D01*
X76442381Y-68603620D01*
X76442381Y-68698858D01*
X76490000Y-68841715D01*
X76537619Y-68889334D01*
X76870952Y-69460762D02*
X76823333Y-69365524D01*
X76775714Y-69317905D01*
X76680476Y-69270286D01*
X76632857Y-69270286D01*
X76537619Y-69317905D01*
X76490000Y-69365524D01*
X76442381Y-69460762D01*
X76442381Y-69651239D01*
X76490000Y-69746477D01*
X76537619Y-69794096D01*
X76632857Y-69841715D01*
X76680476Y-69841715D01*
X76775714Y-69794096D01*
X76823333Y-69746477D01*
X76870952Y-69651239D01*
X76870952Y-69460762D01*
X76918571Y-69365524D01*
X76966190Y-69317905D01*
X77061429Y-69270286D01*
X77251905Y-69270286D01*
X77347143Y-69317905D01*
X77394762Y-69365524D01*
X77442381Y-69460762D01*
X77442381Y-69651239D01*
X77394762Y-69746477D01*
X77347143Y-69794096D01*
X77251905Y-69841715D01*
X77061429Y-69841715D01*
X76966190Y-69794096D01*
X76918571Y-69746477D01*
X76870952Y-69651239D01*
X83415143Y-72191334D02*
X83462762Y-72143715D01*
X83510381Y-72000858D01*
X83510381Y-71905620D01*
X83462762Y-71762762D01*
X83367524Y-71667524D01*
X83272286Y-71619905D01*
X83081810Y-71572286D01*
X82938952Y-71572286D01*
X82748476Y-71619905D01*
X82653238Y-71667524D01*
X82558000Y-71762762D01*
X82510381Y-71905620D01*
X82510381Y-72000858D01*
X82558000Y-72143715D01*
X82605619Y-72191334D01*
X83510381Y-72667524D02*
X83510381Y-72858000D01*
X83462762Y-72953239D01*
X83415143Y-73000858D01*
X83272286Y-73096096D01*
X83081810Y-73143715D01*
X82700857Y-73143715D01*
X82605619Y-73096096D01*
X82558000Y-73048477D01*
X82510381Y-72953239D01*
X82510381Y-72762762D01*
X82558000Y-72667524D01*
X82605619Y-72619905D01*
X82700857Y-72572286D01*
X82938952Y-72572286D01*
X83034190Y-72619905D01*
X83081810Y-72667524D01*
X83129429Y-72762762D01*
X83129429Y-72953239D01*
X83081810Y-73048477D01*
X83034190Y-73096096D01*
X82938952Y-73143715D01*
X86463143Y-71207143D02*
X86510762Y-71159524D01*
X86558381Y-71016667D01*
X86558381Y-70921429D01*
X86510762Y-70778571D01*
X86415524Y-70683333D01*
X86320286Y-70635714D01*
X86129810Y-70588095D01*
X85986952Y-70588095D01*
X85796476Y-70635714D01*
X85701238Y-70683333D01*
X85606000Y-70778571D01*
X85558381Y-70921429D01*
X85558381Y-71016667D01*
X85606000Y-71159524D01*
X85653619Y-71207143D01*
X86558381Y-72159524D02*
X86558381Y-71588095D01*
X86558381Y-71873809D02*
X85558381Y-71873809D01*
X85701238Y-71778571D01*
X85796476Y-71683333D01*
X85844095Y-71588095D01*
X85558381Y-72778571D02*
X85558381Y-72873810D01*
X85606000Y-72969048D01*
X85653619Y-73016667D01*
X85748857Y-73064286D01*
X85939333Y-73111905D01*
X86177429Y-73111905D01*
X86367905Y-73064286D01*
X86463143Y-73016667D01*
X86510762Y-72969048D01*
X86558381Y-72873810D01*
X86558381Y-72778571D01*
X86510762Y-72683333D01*
X86463143Y-72635714D01*
X86367905Y-72588095D01*
X86177429Y-72540476D01*
X85939333Y-72540476D01*
X85748857Y-72588095D01*
X85653619Y-72635714D01*
X85606000Y-72683333D01*
X85558381Y-72778571D01*
X92531143Y-68413143D02*
X92578762Y-68365524D01*
X92626381Y-68222667D01*
X92626381Y-68127429D01*
X92578762Y-67984571D01*
X92483524Y-67889333D01*
X92388286Y-67841714D01*
X92197810Y-67794095D01*
X92054952Y-67794095D01*
X91864476Y-67841714D01*
X91769238Y-67889333D01*
X91674000Y-67984571D01*
X91626381Y-68127429D01*
X91626381Y-68222667D01*
X91674000Y-68365524D01*
X91721619Y-68413143D01*
X92626381Y-69365524D02*
X92626381Y-68794095D01*
X92626381Y-69079809D02*
X91626381Y-69079809D01*
X91769238Y-68984571D01*
X91864476Y-68889333D01*
X91912095Y-68794095D01*
X92626381Y-70317905D02*
X92626381Y-69746476D01*
X92626381Y-70032190D02*
X91626381Y-70032190D01*
X91769238Y-69936952D01*
X91864476Y-69841714D01*
X91912095Y-69746476D01*
X103271143Y-68413143D02*
X103318762Y-68365524D01*
X103366381Y-68222667D01*
X103366381Y-68127429D01*
X103318762Y-67984571D01*
X103223524Y-67889333D01*
X103128286Y-67841714D01*
X102937810Y-67794095D01*
X102794952Y-67794095D01*
X102604476Y-67841714D01*
X102509238Y-67889333D01*
X102414000Y-67984571D01*
X102366381Y-68127429D01*
X102366381Y-68222667D01*
X102414000Y-68365524D01*
X102461619Y-68413143D01*
X103366381Y-69365524D02*
X103366381Y-68794095D01*
X103366381Y-69079809D02*
X102366381Y-69079809D01*
X102509238Y-68984571D01*
X102604476Y-68889333D01*
X102652095Y-68794095D01*
X102461619Y-69746476D02*
X102414000Y-69794095D01*
X102366381Y-69889333D01*
X102366381Y-70127429D01*
X102414000Y-70222667D01*
X102461619Y-70270286D01*
X102556857Y-70317905D01*
X102652095Y-70317905D01*
X102794952Y-70270286D01*
X103366381Y-69698857D01*
X103366381Y-70317905D01*
X109339143Y-71207143D02*
X109386762Y-71159524D01*
X109434381Y-71016667D01*
X109434381Y-70921429D01*
X109386762Y-70778571D01*
X109291524Y-70683333D01*
X109196286Y-70635714D01*
X109005810Y-70588095D01*
X108862952Y-70588095D01*
X108672476Y-70635714D01*
X108577238Y-70683333D01*
X108482000Y-70778571D01*
X108434381Y-70921429D01*
X108434381Y-71016667D01*
X108482000Y-71159524D01*
X108529619Y-71207143D01*
X109434381Y-72159524D02*
X109434381Y-71588095D01*
X109434381Y-71873809D02*
X108434381Y-71873809D01*
X108577238Y-71778571D01*
X108672476Y-71683333D01*
X108720095Y-71588095D01*
X108434381Y-72492857D02*
X108434381Y-73111905D01*
X108815333Y-72778571D01*
X108815333Y-72921429D01*
X108862952Y-73016667D01*
X108910571Y-73064286D01*
X109005810Y-73111905D01*
X109243905Y-73111905D01*
X109339143Y-73064286D01*
X109386762Y-73016667D01*
X109434381Y-72921429D01*
X109434381Y-72635714D01*
X109386762Y-72540476D01*
X109339143Y-72492857D01*
X112387143Y-71207143D02*
X112434762Y-71159524D01*
X112482381Y-71016667D01*
X112482381Y-70921429D01*
X112434762Y-70778571D01*
X112339524Y-70683333D01*
X112244286Y-70635714D01*
X112053810Y-70588095D01*
X111910952Y-70588095D01*
X111720476Y-70635714D01*
X111625238Y-70683333D01*
X111530000Y-70778571D01*
X111482381Y-70921429D01*
X111482381Y-71016667D01*
X111530000Y-71159524D01*
X111577619Y-71207143D01*
X112482381Y-72159524D02*
X112482381Y-71588095D01*
X112482381Y-71873809D02*
X111482381Y-71873809D01*
X111625238Y-71778571D01*
X111720476Y-71683333D01*
X111768095Y-71588095D01*
X111815714Y-73016667D02*
X112482381Y-73016667D01*
X111434762Y-72778571D02*
X112149048Y-72540476D01*
X112149048Y-73159524D01*
X118455143Y-68413143D02*
X118502762Y-68365524D01*
X118550381Y-68222667D01*
X118550381Y-68127429D01*
X118502762Y-67984571D01*
X118407524Y-67889333D01*
X118312286Y-67841714D01*
X118121810Y-67794095D01*
X117978952Y-67794095D01*
X117788476Y-67841714D01*
X117693238Y-67889333D01*
X117598000Y-67984571D01*
X117550381Y-68127429D01*
X117550381Y-68222667D01*
X117598000Y-68365524D01*
X117645619Y-68413143D01*
X118550381Y-69365524D02*
X118550381Y-68794095D01*
X118550381Y-69079809D02*
X117550381Y-69079809D01*
X117693238Y-68984571D01*
X117788476Y-68889333D01*
X117836095Y-68794095D01*
X117550381Y-70270286D02*
X117550381Y-69794095D01*
X118026571Y-69746476D01*
X117978952Y-69794095D01*
X117931333Y-69889333D01*
X117931333Y-70127429D01*
X117978952Y-70222667D01*
X118026571Y-70270286D01*
X118121810Y-70317905D01*
X118359905Y-70317905D01*
X118455143Y-70270286D01*
X118502762Y-70222667D01*
X118550381Y-70127429D01*
X118550381Y-69889333D01*
X118502762Y-69794095D01*
X118455143Y-69746476D01*
X83954857Y-86463143D02*
X84002476Y-86510762D01*
X84145333Y-86558381D01*
X84240571Y-86558381D01*
X84383429Y-86510762D01*
X84478667Y-86415524D01*
X84526286Y-86320286D01*
X84573905Y-86129810D01*
X84573905Y-85986952D01*
X84526286Y-85796476D01*
X84478667Y-85701238D01*
X84383429Y-85606000D01*
X84240571Y-85558381D01*
X84145333Y-85558381D01*
X84002476Y-85606000D01*
X83954857Y-85653619D01*
X83002476Y-86558381D02*
X83573905Y-86558381D01*
X83288191Y-86558381D02*
X83288191Y-85558381D01*
X83383429Y-85701238D01*
X83478667Y-85796476D01*
X83573905Y-85844095D01*
X82145333Y-85558381D02*
X82335810Y-85558381D01*
X82431048Y-85606000D01*
X82478667Y-85653619D01*
X82573905Y-85796476D01*
X82621524Y-85986952D01*
X82621524Y-86367905D01*
X82573905Y-86463143D01*
X82526286Y-86510762D01*
X82431048Y-86558381D01*
X82240571Y-86558381D01*
X82145333Y-86510762D01*
X82097714Y-86463143D01*
X82050095Y-86367905D01*
X82050095Y-86129810D01*
X82097714Y-86034571D01*
X82145333Y-85986952D01*
X82240571Y-85939333D01*
X82431048Y-85939333D01*
X82526286Y-85986952D01*
X82573905Y-86034571D01*
X82621524Y-86129810D01*
X53601857Y-159615143D02*
X53649476Y-159662762D01*
X53792333Y-159710381D01*
X53887571Y-159710381D01*
X54030429Y-159662762D01*
X54125667Y-159567524D01*
X54173286Y-159472286D01*
X54220905Y-159281810D01*
X54220905Y-159138952D01*
X54173286Y-158948476D01*
X54125667Y-158853238D01*
X54030429Y-158758000D01*
X53887571Y-158710381D01*
X53792333Y-158710381D01*
X53649476Y-158758000D01*
X53601857Y-158805619D01*
X52649476Y-159710381D02*
X53220905Y-159710381D01*
X52935191Y-159710381D02*
X52935191Y-158710381D01*
X53030429Y-158853238D01*
X53125667Y-158948476D01*
X53220905Y-158996095D01*
X52316143Y-158710381D02*
X51649476Y-158710381D01*
X52078048Y-159710381D01*
X60586857Y-142565143D02*
X60634476Y-142612762D01*
X60777333Y-142660381D01*
X60872571Y-142660381D01*
X61015429Y-142612762D01*
X61110667Y-142517524D01*
X61158286Y-142422286D01*
X61205905Y-142231810D01*
X61205905Y-142088952D01*
X61158286Y-141898476D01*
X61110667Y-141803238D01*
X61015429Y-141708000D01*
X60872571Y-141660381D01*
X60777333Y-141660381D01*
X60634476Y-141708000D01*
X60586857Y-141755619D01*
X59634476Y-142660381D02*
X60205905Y-142660381D01*
X59920191Y-142660381D02*
X59920191Y-141660381D01*
X60015429Y-141803238D01*
X60110667Y-141898476D01*
X60205905Y-141946095D01*
X59063048Y-142088952D02*
X59158286Y-142041333D01*
X59205905Y-141993714D01*
X59253524Y-141898476D01*
X59253524Y-141850857D01*
X59205905Y-141755619D01*
X59158286Y-141708000D01*
X59063048Y-141660381D01*
X58872571Y-141660381D01*
X58777333Y-141708000D01*
X58729714Y-141755619D01*
X58682095Y-141850857D01*
X58682095Y-141898476D01*
X58729714Y-141993714D01*
X58777333Y-142041333D01*
X58872571Y-142088952D01*
X59063048Y-142088952D01*
X59158286Y-142136571D01*
X59205905Y-142184190D01*
X59253524Y-142279429D01*
X59253524Y-142469905D01*
X59205905Y-142565143D01*
X59158286Y-142612762D01*
X59063048Y-142660381D01*
X58872571Y-142660381D01*
X58777333Y-142612762D01*
X58729714Y-142565143D01*
X58682095Y-142469905D01*
X58682095Y-142279429D01*
X58729714Y-142184190D01*
X58777333Y-142136571D01*
X58872571Y-142088952D01*
X66682857Y-157805143D02*
X66730476Y-157852762D01*
X66873333Y-157900381D01*
X66968571Y-157900381D01*
X67111429Y-157852762D01*
X67206667Y-157757524D01*
X67254286Y-157662286D01*
X67301905Y-157471810D01*
X67301905Y-157328952D01*
X67254286Y-157138476D01*
X67206667Y-157043238D01*
X67111429Y-156948000D01*
X66968571Y-156900381D01*
X66873333Y-156900381D01*
X66730476Y-156948000D01*
X66682857Y-156995619D01*
X65730476Y-157900381D02*
X66301905Y-157900381D01*
X66016191Y-157900381D02*
X66016191Y-156900381D01*
X66111429Y-157043238D01*
X66206667Y-157138476D01*
X66301905Y-157186095D01*
X65254286Y-157900381D02*
X65063810Y-157900381D01*
X64968571Y-157852762D01*
X64920952Y-157805143D01*
X64825714Y-157662286D01*
X64778095Y-157471810D01*
X64778095Y-157090857D01*
X64825714Y-156995619D01*
X64873333Y-156948000D01*
X64968571Y-156900381D01*
X65159048Y-156900381D01*
X65254286Y-156948000D01*
X65301905Y-156995619D01*
X65349524Y-157090857D01*
X65349524Y-157328952D01*
X65301905Y-157424190D01*
X65254286Y-157471810D01*
X65159048Y-157519429D01*
X64968571Y-157519429D01*
X64873333Y-157471810D01*
X64825714Y-157424190D01*
X64778095Y-157328952D01*
X72778857Y-142565143D02*
X72826476Y-142612762D01*
X72969333Y-142660381D01*
X73064571Y-142660381D01*
X73207429Y-142612762D01*
X73302667Y-142517524D01*
X73350286Y-142422286D01*
X73397905Y-142231810D01*
X73397905Y-142088952D01*
X73350286Y-141898476D01*
X73302667Y-141803238D01*
X73207429Y-141708000D01*
X73064571Y-141660381D01*
X72969333Y-141660381D01*
X72826476Y-141708000D01*
X72778857Y-141755619D01*
X72397905Y-141755619D02*
X72350286Y-141708000D01*
X72255048Y-141660381D01*
X72016952Y-141660381D01*
X71921714Y-141708000D01*
X71874095Y-141755619D01*
X71826476Y-141850857D01*
X71826476Y-141946095D01*
X71874095Y-142088952D01*
X72445524Y-142660381D01*
X71826476Y-142660381D01*
X71207429Y-141660381D02*
X71112190Y-141660381D01*
X71016952Y-141708000D01*
X70969333Y-141755619D01*
X70921714Y-141850857D01*
X70874095Y-142041333D01*
X70874095Y-142279429D01*
X70921714Y-142469905D01*
X70969333Y-142565143D01*
X71016952Y-142612762D01*
X71112190Y-142660381D01*
X71207429Y-142660381D01*
X71302667Y-142612762D01*
X71350286Y-142565143D01*
X71397905Y-142469905D01*
X71445524Y-142279429D01*
X71445524Y-142041333D01*
X71397905Y-141850857D01*
X71350286Y-141755619D01*
X71302667Y-141708000D01*
X71207429Y-141660381D01*
X77096857Y-157805143D02*
X77144476Y-157852762D01*
X77287333Y-157900381D01*
X77382571Y-157900381D01*
X77525429Y-157852762D01*
X77620667Y-157757524D01*
X77668286Y-157662286D01*
X77715905Y-157471810D01*
X77715905Y-157328952D01*
X77668286Y-157138476D01*
X77620667Y-157043238D01*
X77525429Y-156948000D01*
X77382571Y-156900381D01*
X77287333Y-156900381D01*
X77144476Y-156948000D01*
X77096857Y-156995619D01*
X76715905Y-156995619D02*
X76668286Y-156948000D01*
X76573048Y-156900381D01*
X76334952Y-156900381D01*
X76239714Y-156948000D01*
X76192095Y-156995619D01*
X76144476Y-157090857D01*
X76144476Y-157186095D01*
X76192095Y-157328952D01*
X76763524Y-157900381D01*
X76144476Y-157900381D01*
X75192095Y-157900381D02*
X75763524Y-157900381D01*
X75477810Y-157900381D02*
X75477810Y-156900381D01*
X75573048Y-157043238D01*
X75668286Y-157138476D01*
X75763524Y-157186095D01*
X87510857Y-157805143D02*
X87558476Y-157852762D01*
X87701333Y-157900381D01*
X87796571Y-157900381D01*
X87939429Y-157852762D01*
X88034667Y-157757524D01*
X88082286Y-157662286D01*
X88129905Y-157471810D01*
X88129905Y-157328952D01*
X88082286Y-157138476D01*
X88034667Y-157043238D01*
X87939429Y-156948000D01*
X87796571Y-156900381D01*
X87701333Y-156900381D01*
X87558476Y-156948000D01*
X87510857Y-156995619D01*
X87129905Y-156995619D02*
X87082286Y-156948000D01*
X86987048Y-156900381D01*
X86748952Y-156900381D01*
X86653714Y-156948000D01*
X86606095Y-156995619D01*
X86558476Y-157090857D01*
X86558476Y-157186095D01*
X86606095Y-157328952D01*
X87177524Y-157900381D01*
X86558476Y-157900381D01*
X86177524Y-156995619D02*
X86129905Y-156948000D01*
X86034667Y-156900381D01*
X85796571Y-156900381D01*
X85701333Y-156948000D01*
X85653714Y-156995619D01*
X85606095Y-157090857D01*
X85606095Y-157186095D01*
X85653714Y-157328952D01*
X86225143Y-157900381D01*
X85606095Y-157900381D01*
X91320857Y-142565143D02*
X91368476Y-142612762D01*
X91511333Y-142660381D01*
X91606571Y-142660381D01*
X91749429Y-142612762D01*
X91844667Y-142517524D01*
X91892286Y-142422286D01*
X91939905Y-142231810D01*
X91939905Y-142088952D01*
X91892286Y-141898476D01*
X91844667Y-141803238D01*
X91749429Y-141708000D01*
X91606571Y-141660381D01*
X91511333Y-141660381D01*
X91368476Y-141708000D01*
X91320857Y-141755619D01*
X90939905Y-141755619D02*
X90892286Y-141708000D01*
X90797048Y-141660381D01*
X90558952Y-141660381D01*
X90463714Y-141708000D01*
X90416095Y-141755619D01*
X90368476Y-141850857D01*
X90368476Y-141946095D01*
X90416095Y-142088952D01*
X90987524Y-142660381D01*
X90368476Y-142660381D01*
X90035143Y-141660381D02*
X89416095Y-141660381D01*
X89749429Y-142041333D01*
X89606571Y-142041333D01*
X89511333Y-142088952D01*
X89463714Y-142136571D01*
X89416095Y-142231810D01*
X89416095Y-142469905D01*
X89463714Y-142565143D01*
X89511333Y-142612762D01*
X89606571Y-142660381D01*
X89892286Y-142660381D01*
X89987524Y-142612762D01*
X90035143Y-142565143D01*
X98178857Y-157805143D02*
X98226476Y-157852762D01*
X98369333Y-157900381D01*
X98464571Y-157900381D01*
X98607429Y-157852762D01*
X98702667Y-157757524D01*
X98750286Y-157662286D01*
X98797905Y-157471810D01*
X98797905Y-157328952D01*
X98750286Y-157138476D01*
X98702667Y-157043238D01*
X98607429Y-156948000D01*
X98464571Y-156900381D01*
X98369333Y-156900381D01*
X98226476Y-156948000D01*
X98178857Y-156995619D01*
X97797905Y-156995619D02*
X97750286Y-156948000D01*
X97655048Y-156900381D01*
X97416952Y-156900381D01*
X97321714Y-156948000D01*
X97274095Y-156995619D01*
X97226476Y-157090857D01*
X97226476Y-157186095D01*
X97274095Y-157328952D01*
X97845524Y-157900381D01*
X97226476Y-157900381D01*
X96369333Y-157233714D02*
X96369333Y-157900381D01*
X96607429Y-156852762D02*
X96845524Y-157567048D01*
X96226476Y-157567048D01*
X103258857Y-142565143D02*
X103306476Y-142612762D01*
X103449333Y-142660381D01*
X103544571Y-142660381D01*
X103687429Y-142612762D01*
X103782667Y-142517524D01*
X103830286Y-142422286D01*
X103877905Y-142231810D01*
X103877905Y-142088952D01*
X103830286Y-141898476D01*
X103782667Y-141803238D01*
X103687429Y-141708000D01*
X103544571Y-141660381D01*
X103449333Y-141660381D01*
X103306476Y-141708000D01*
X103258857Y-141755619D01*
X102877905Y-141755619D02*
X102830286Y-141708000D01*
X102735048Y-141660381D01*
X102496952Y-141660381D01*
X102401714Y-141708000D01*
X102354095Y-141755619D01*
X102306476Y-141850857D01*
X102306476Y-141946095D01*
X102354095Y-142088952D01*
X102925524Y-142660381D01*
X102306476Y-142660381D01*
X101401714Y-141660381D02*
X101877905Y-141660381D01*
X101925524Y-142136571D01*
X101877905Y-142088952D01*
X101782667Y-142041333D01*
X101544571Y-142041333D01*
X101449333Y-142088952D01*
X101401714Y-142136571D01*
X101354095Y-142231810D01*
X101354095Y-142469905D01*
X101401714Y-142565143D01*
X101449333Y-142612762D01*
X101544571Y-142660381D01*
X101782667Y-142660381D01*
X101877905Y-142612762D01*
X101925524Y-142565143D01*
X108338857Y-157805143D02*
X108386476Y-157852762D01*
X108529333Y-157900381D01*
X108624571Y-157900381D01*
X108767429Y-157852762D01*
X108862667Y-157757524D01*
X108910286Y-157662286D01*
X108957905Y-157471810D01*
X108957905Y-157328952D01*
X108910286Y-157138476D01*
X108862667Y-157043238D01*
X108767429Y-156948000D01*
X108624571Y-156900381D01*
X108529333Y-156900381D01*
X108386476Y-156948000D01*
X108338857Y-156995619D01*
X107957905Y-156995619D02*
X107910286Y-156948000D01*
X107815048Y-156900381D01*
X107576952Y-156900381D01*
X107481714Y-156948000D01*
X107434095Y-156995619D01*
X107386476Y-157090857D01*
X107386476Y-157186095D01*
X107434095Y-157328952D01*
X108005524Y-157900381D01*
X107386476Y-157900381D01*
X106529333Y-156900381D02*
X106719810Y-156900381D01*
X106815048Y-156948000D01*
X106862667Y-156995619D01*
X106957905Y-157138476D01*
X107005524Y-157328952D01*
X107005524Y-157709905D01*
X106957905Y-157805143D01*
X106910286Y-157852762D01*
X106815048Y-157900381D01*
X106624571Y-157900381D01*
X106529333Y-157852762D01*
X106481714Y-157805143D01*
X106434095Y-157709905D01*
X106434095Y-157471810D01*
X106481714Y-157376571D01*
X106529333Y-157328952D01*
X106624571Y-157281333D01*
X106815048Y-157281333D01*
X106910286Y-157328952D01*
X106957905Y-157376571D01*
X107005524Y-157471810D01*
X115450857Y-142565143D02*
X115498476Y-142612762D01*
X115641333Y-142660381D01*
X115736571Y-142660381D01*
X115879429Y-142612762D01*
X115974667Y-142517524D01*
X116022286Y-142422286D01*
X116069905Y-142231810D01*
X116069905Y-142088952D01*
X116022286Y-141898476D01*
X115974667Y-141803238D01*
X115879429Y-141708000D01*
X115736571Y-141660381D01*
X115641333Y-141660381D01*
X115498476Y-141708000D01*
X115450857Y-141755619D01*
X115069905Y-141755619D02*
X115022286Y-141708000D01*
X114927048Y-141660381D01*
X114688952Y-141660381D01*
X114593714Y-141708000D01*
X114546095Y-141755619D01*
X114498476Y-141850857D01*
X114498476Y-141946095D01*
X114546095Y-142088952D01*
X115117524Y-142660381D01*
X114498476Y-142660381D01*
X114165143Y-141660381D02*
X113498476Y-141660381D01*
X113927048Y-142660381D01*
X115958857Y-159488143D02*
X116006476Y-159535762D01*
X116149333Y-159583381D01*
X116244571Y-159583381D01*
X116387429Y-159535762D01*
X116482667Y-159440524D01*
X116530286Y-159345286D01*
X116577905Y-159154810D01*
X116577905Y-159011952D01*
X116530286Y-158821476D01*
X116482667Y-158726238D01*
X116387429Y-158631000D01*
X116244571Y-158583381D01*
X116149333Y-158583381D01*
X116006476Y-158631000D01*
X115958857Y-158678619D01*
X115577905Y-158678619D02*
X115530286Y-158631000D01*
X115435048Y-158583381D01*
X115196952Y-158583381D01*
X115101714Y-158631000D01*
X115054095Y-158678619D01*
X115006476Y-158773857D01*
X115006476Y-158869095D01*
X115054095Y-159011952D01*
X115625524Y-159583381D01*
X115006476Y-159583381D01*
X114435048Y-159011952D02*
X114530286Y-158964333D01*
X114577905Y-158916714D01*
X114625524Y-158821476D01*
X114625524Y-158773857D01*
X114577905Y-158678619D01*
X114530286Y-158631000D01*
X114435048Y-158583381D01*
X114244571Y-158583381D01*
X114149333Y-158631000D01*
X114101714Y-158678619D01*
X114054095Y-158773857D01*
X114054095Y-158821476D01*
X114101714Y-158916714D01*
X114149333Y-158964333D01*
X114244571Y-159011952D01*
X114435048Y-159011952D01*
X114530286Y-159059571D01*
X114577905Y-159107190D01*
X114625524Y-159202429D01*
X114625524Y-159392905D01*
X114577905Y-159488143D01*
X114530286Y-159535762D01*
X114435048Y-159583381D01*
X114244571Y-159583381D01*
X114149333Y-159535762D01*
X114101714Y-159488143D01*
X114054095Y-159392905D01*
X114054095Y-159202429D01*
X114101714Y-159107190D01*
X114149333Y-159059571D01*
X114244571Y-159011952D01*
X111529762Y-153733666D02*
X111577381Y-153876523D01*
X111577381Y-154114619D01*
X111529762Y-154209857D01*
X111482143Y-154257476D01*
X111386905Y-154305095D01*
X111291667Y-154305095D01*
X111196429Y-154257476D01*
X111148810Y-154209857D01*
X111101190Y-154114619D01*
X111053571Y-153924142D01*
X111005952Y-153828904D01*
X110958333Y-153781285D01*
X110863095Y-153733666D01*
X110767857Y-153733666D01*
X110672619Y-153781285D01*
X110625000Y-153828904D01*
X110577381Y-153924142D01*
X110577381Y-154162238D01*
X110625000Y-154305095D01*
X110577381Y-154638428D02*
X111577381Y-154876523D01*
X110863095Y-155067000D01*
X111577381Y-155257476D01*
X110577381Y-155495571D01*
X111577381Y-156400333D02*
X111577381Y-155828904D01*
X111577381Y-156114618D02*
X110577381Y-156114618D01*
X110720238Y-156019380D01*
X110815476Y-155924142D01*
X110863095Y-155828904D01*
X110672619Y-156781285D02*
X110625000Y-156828904D01*
X110577381Y-156924142D01*
X110577381Y-157162238D01*
X110625000Y-157257476D01*
X110672619Y-157305095D01*
X110767857Y-157352714D01*
X110863095Y-157352714D01*
X111005952Y-157305095D01*
X111577381Y-156733666D01*
X111577381Y-157352714D01*
X107973762Y-138525476D02*
X108021381Y-138668333D01*
X108021381Y-138906429D01*
X107973762Y-139001667D01*
X107926143Y-139049286D01*
X107830905Y-139096905D01*
X107735667Y-139096905D01*
X107640429Y-139049286D01*
X107592810Y-139001667D01*
X107545190Y-138906429D01*
X107497571Y-138715952D01*
X107449952Y-138620714D01*
X107402333Y-138573095D01*
X107307095Y-138525476D01*
X107211857Y-138525476D01*
X107116619Y-138573095D01*
X107069000Y-138620714D01*
X107021381Y-138715952D01*
X107021381Y-138954048D01*
X107069000Y-139096905D01*
X107021381Y-139430238D02*
X108021381Y-139668333D01*
X107307095Y-139858810D01*
X108021381Y-140049286D01*
X107021381Y-140287381D01*
X108021381Y-141192143D02*
X108021381Y-140620714D01*
X108021381Y-140906428D02*
X107021381Y-140906428D01*
X107164238Y-140811190D01*
X107259476Y-140715952D01*
X107307095Y-140620714D01*
X108021381Y-142144524D02*
X108021381Y-141573095D01*
X108021381Y-141858809D02*
X107021381Y-141858809D01*
X107164238Y-141763571D01*
X107259476Y-141668333D01*
X107307095Y-141573095D01*
X100988762Y-153733666D02*
X101036381Y-153876523D01*
X101036381Y-154114619D01*
X100988762Y-154209857D01*
X100941143Y-154257476D01*
X100845905Y-154305095D01*
X100750667Y-154305095D01*
X100655429Y-154257476D01*
X100607810Y-154209857D01*
X100560190Y-154114619D01*
X100512571Y-153924142D01*
X100464952Y-153828904D01*
X100417333Y-153781285D01*
X100322095Y-153733666D01*
X100226857Y-153733666D01*
X100131619Y-153781285D01*
X100084000Y-153828904D01*
X100036381Y-153924142D01*
X100036381Y-154162238D01*
X100084000Y-154305095D01*
X100036381Y-154638428D02*
X101036381Y-154876523D01*
X100322095Y-155067000D01*
X101036381Y-155257476D01*
X100036381Y-155495571D01*
X101036381Y-156400333D02*
X101036381Y-155828904D01*
X101036381Y-156114618D02*
X100036381Y-156114618D01*
X100179238Y-156019380D01*
X100274476Y-155924142D01*
X100322095Y-155828904D01*
X100036381Y-157019380D02*
X100036381Y-157114619D01*
X100084000Y-157209857D01*
X100131619Y-157257476D01*
X100226857Y-157305095D01*
X100417333Y-157352714D01*
X100655429Y-157352714D01*
X100845905Y-157305095D01*
X100941143Y-157257476D01*
X100988762Y-157209857D01*
X101036381Y-157114619D01*
X101036381Y-157019380D01*
X100988762Y-156924142D01*
X100941143Y-156876523D01*
X100845905Y-156828904D01*
X100655429Y-156781285D01*
X100417333Y-156781285D01*
X100226857Y-156828904D01*
X100131619Y-156876523D01*
X100084000Y-156924142D01*
X100036381Y-157019380D01*
X95781762Y-138493667D02*
X95829381Y-138636524D01*
X95829381Y-138874620D01*
X95781762Y-138969858D01*
X95734143Y-139017477D01*
X95638905Y-139065096D01*
X95543667Y-139065096D01*
X95448429Y-139017477D01*
X95400810Y-138969858D01*
X95353190Y-138874620D01*
X95305571Y-138684143D01*
X95257952Y-138588905D01*
X95210333Y-138541286D01*
X95115095Y-138493667D01*
X95019857Y-138493667D01*
X94924619Y-138541286D01*
X94877000Y-138588905D01*
X94829381Y-138684143D01*
X94829381Y-138922239D01*
X94877000Y-139065096D01*
X94829381Y-139398429D02*
X95829381Y-139636524D01*
X95115095Y-139827001D01*
X95829381Y-140017477D01*
X94829381Y-140255572D01*
X95829381Y-140684143D02*
X95829381Y-140874619D01*
X95781762Y-140969858D01*
X95734143Y-141017477D01*
X95591286Y-141112715D01*
X95400810Y-141160334D01*
X95019857Y-141160334D01*
X94924619Y-141112715D01*
X94877000Y-141065096D01*
X94829381Y-140969858D01*
X94829381Y-140779381D01*
X94877000Y-140684143D01*
X94924619Y-140636524D01*
X95019857Y-140588905D01*
X95257952Y-140588905D01*
X95353190Y-140636524D01*
X95400810Y-140684143D01*
X95448429Y-140779381D01*
X95448429Y-140969858D01*
X95400810Y-141065096D01*
X95353190Y-141112715D01*
X95257952Y-141160334D01*
X90955762Y-153733667D02*
X91003381Y-153876524D01*
X91003381Y-154114620D01*
X90955762Y-154209858D01*
X90908143Y-154257477D01*
X90812905Y-154305096D01*
X90717667Y-154305096D01*
X90622429Y-154257477D01*
X90574810Y-154209858D01*
X90527190Y-154114620D01*
X90479571Y-153924143D01*
X90431952Y-153828905D01*
X90384333Y-153781286D01*
X90289095Y-153733667D01*
X90193857Y-153733667D01*
X90098619Y-153781286D01*
X90051000Y-153828905D01*
X90003381Y-153924143D01*
X90003381Y-154162239D01*
X90051000Y-154305096D01*
X90003381Y-154638429D02*
X91003381Y-154876524D01*
X90289095Y-155067001D01*
X91003381Y-155257477D01*
X90003381Y-155495572D01*
X90431952Y-156019381D02*
X90384333Y-155924143D01*
X90336714Y-155876524D01*
X90241476Y-155828905D01*
X90193857Y-155828905D01*
X90098619Y-155876524D01*
X90051000Y-155924143D01*
X90003381Y-156019381D01*
X90003381Y-156209858D01*
X90051000Y-156305096D01*
X90098619Y-156352715D01*
X90193857Y-156400334D01*
X90241476Y-156400334D01*
X90336714Y-156352715D01*
X90384333Y-156305096D01*
X90431952Y-156209858D01*
X90431952Y-156019381D01*
X90479571Y-155924143D01*
X90527190Y-155876524D01*
X90622429Y-155828905D01*
X90812905Y-155828905D01*
X90908143Y-155876524D01*
X90955762Y-155924143D01*
X91003381Y-156019381D01*
X91003381Y-156209858D01*
X90955762Y-156305096D01*
X90908143Y-156352715D01*
X90812905Y-156400334D01*
X90622429Y-156400334D01*
X90527190Y-156352715D01*
X90479571Y-156305096D01*
X90431952Y-156209858D01*
X83843762Y-138493667D02*
X83891381Y-138636524D01*
X83891381Y-138874620D01*
X83843762Y-138969858D01*
X83796143Y-139017477D01*
X83700905Y-139065096D01*
X83605667Y-139065096D01*
X83510429Y-139017477D01*
X83462810Y-138969858D01*
X83415190Y-138874620D01*
X83367571Y-138684143D01*
X83319952Y-138588905D01*
X83272333Y-138541286D01*
X83177095Y-138493667D01*
X83081857Y-138493667D01*
X82986619Y-138541286D01*
X82939000Y-138588905D01*
X82891381Y-138684143D01*
X82891381Y-138922239D01*
X82939000Y-139065096D01*
X82891381Y-139398429D02*
X83891381Y-139636524D01*
X83177095Y-139827001D01*
X83891381Y-140017477D01*
X82891381Y-140255572D01*
X82891381Y-140541286D02*
X82891381Y-141207953D01*
X83891381Y-140779381D01*
X80287762Y-153733667D02*
X80335381Y-153876524D01*
X80335381Y-154114620D01*
X80287762Y-154209858D01*
X80240143Y-154257477D01*
X80144905Y-154305096D01*
X80049667Y-154305096D01*
X79954429Y-154257477D01*
X79906810Y-154209858D01*
X79859190Y-154114620D01*
X79811571Y-153924143D01*
X79763952Y-153828905D01*
X79716333Y-153781286D01*
X79621095Y-153733667D01*
X79525857Y-153733667D01*
X79430619Y-153781286D01*
X79383000Y-153828905D01*
X79335381Y-153924143D01*
X79335381Y-154162239D01*
X79383000Y-154305096D01*
X79335381Y-154638429D02*
X80335381Y-154876524D01*
X79621095Y-155067001D01*
X80335381Y-155257477D01*
X79335381Y-155495572D01*
X79335381Y-156305096D02*
X79335381Y-156114619D01*
X79383000Y-156019381D01*
X79430619Y-155971762D01*
X79573476Y-155876524D01*
X79763952Y-155828905D01*
X80144905Y-155828905D01*
X80240143Y-155876524D01*
X80287762Y-155924143D01*
X80335381Y-156019381D01*
X80335381Y-156209858D01*
X80287762Y-156305096D01*
X80240143Y-156352715D01*
X80144905Y-156400334D01*
X79906810Y-156400334D01*
X79811571Y-156352715D01*
X79763952Y-156305096D01*
X79716333Y-156209858D01*
X79716333Y-156019381D01*
X79763952Y-155924143D01*
X79811571Y-155876524D01*
X79906810Y-155828905D01*
X69873762Y-153733667D02*
X69921381Y-153876524D01*
X69921381Y-154114620D01*
X69873762Y-154209858D01*
X69826143Y-154257477D01*
X69730905Y-154305096D01*
X69635667Y-154305096D01*
X69540429Y-154257477D01*
X69492810Y-154209858D01*
X69445190Y-154114620D01*
X69397571Y-153924143D01*
X69349952Y-153828905D01*
X69302333Y-153781286D01*
X69207095Y-153733667D01*
X69111857Y-153733667D01*
X69016619Y-153781286D01*
X68969000Y-153828905D01*
X68921381Y-153924143D01*
X68921381Y-154162239D01*
X68969000Y-154305096D01*
X68921381Y-154638429D02*
X69921381Y-154876524D01*
X69207095Y-155067001D01*
X69921381Y-155257477D01*
X68921381Y-155495572D01*
X68921381Y-156352715D02*
X68921381Y-155876524D01*
X69397571Y-155828905D01*
X69349952Y-155876524D01*
X69302333Y-155971762D01*
X69302333Y-156209858D01*
X69349952Y-156305096D01*
X69397571Y-156352715D01*
X69492810Y-156400334D01*
X69730905Y-156400334D01*
X69826143Y-156352715D01*
X69873762Y-156305096D01*
X69921381Y-156209858D01*
X69921381Y-155971762D01*
X69873762Y-155876524D01*
X69826143Y-155828905D01*
X65555762Y-138493667D02*
X65603381Y-138636524D01*
X65603381Y-138874620D01*
X65555762Y-138969858D01*
X65508143Y-139017477D01*
X65412905Y-139065096D01*
X65317667Y-139065096D01*
X65222429Y-139017477D01*
X65174810Y-138969858D01*
X65127190Y-138874620D01*
X65079571Y-138684143D01*
X65031952Y-138588905D01*
X64984333Y-138541286D01*
X64889095Y-138493667D01*
X64793857Y-138493667D01*
X64698619Y-138541286D01*
X64651000Y-138588905D01*
X64603381Y-138684143D01*
X64603381Y-138922239D01*
X64651000Y-139065096D01*
X64603381Y-139398429D02*
X65603381Y-139636524D01*
X64889095Y-139827001D01*
X65603381Y-140017477D01*
X64603381Y-140255572D01*
X64936714Y-141065096D02*
X65603381Y-141065096D01*
X64555762Y-140827000D02*
X65270048Y-140588905D01*
X65270048Y-141207953D01*
X59205762Y-153733667D02*
X59253381Y-153876524D01*
X59253381Y-154114620D01*
X59205762Y-154209858D01*
X59158143Y-154257477D01*
X59062905Y-154305096D01*
X58967667Y-154305096D01*
X58872429Y-154257477D01*
X58824810Y-154209858D01*
X58777190Y-154114620D01*
X58729571Y-153924143D01*
X58681952Y-153828905D01*
X58634333Y-153781286D01*
X58539095Y-153733667D01*
X58443857Y-153733667D01*
X58348619Y-153781286D01*
X58301000Y-153828905D01*
X58253381Y-153924143D01*
X58253381Y-154162239D01*
X58301000Y-154305096D01*
X58253381Y-154638429D02*
X59253381Y-154876524D01*
X58539095Y-155067001D01*
X59253381Y-155257477D01*
X58253381Y-155495572D01*
X58253381Y-155781286D02*
X58253381Y-156400334D01*
X58634333Y-156067000D01*
X58634333Y-156209858D01*
X58681952Y-156305096D01*
X58729571Y-156352715D01*
X58824810Y-156400334D01*
X59062905Y-156400334D01*
X59158143Y-156352715D01*
X59205762Y-156305096D01*
X59253381Y-156209858D01*
X59253381Y-155924143D01*
X59205762Y-155828905D01*
X59158143Y-155781286D01*
X53236762Y-138493667D02*
X53284381Y-138636524D01*
X53284381Y-138874620D01*
X53236762Y-138969858D01*
X53189143Y-139017477D01*
X53093905Y-139065096D01*
X52998667Y-139065096D01*
X52903429Y-139017477D01*
X52855810Y-138969858D01*
X52808190Y-138874620D01*
X52760571Y-138684143D01*
X52712952Y-138588905D01*
X52665333Y-138541286D01*
X52570095Y-138493667D01*
X52474857Y-138493667D01*
X52379619Y-138541286D01*
X52332000Y-138588905D01*
X52284381Y-138684143D01*
X52284381Y-138922239D01*
X52332000Y-139065096D01*
X52284381Y-139398429D02*
X53284381Y-139636524D01*
X52570095Y-139827001D01*
X53284381Y-140017477D01*
X52284381Y-140255572D01*
X52379619Y-140588905D02*
X52332000Y-140636524D01*
X52284381Y-140731762D01*
X52284381Y-140969858D01*
X52332000Y-141065096D01*
X52379619Y-141112715D01*
X52474857Y-141160334D01*
X52570095Y-141160334D01*
X52712952Y-141112715D01*
X53284381Y-140541286D01*
X53284381Y-141160334D01*
X50823762Y-156146667D02*
X50871381Y-156289524D01*
X50871381Y-156527620D01*
X50823762Y-156622858D01*
X50776143Y-156670477D01*
X50680905Y-156718096D01*
X50585667Y-156718096D01*
X50490429Y-156670477D01*
X50442810Y-156622858D01*
X50395190Y-156527620D01*
X50347571Y-156337143D01*
X50299952Y-156241905D01*
X50252333Y-156194286D01*
X50157095Y-156146667D01*
X50061857Y-156146667D01*
X49966619Y-156194286D01*
X49919000Y-156241905D01*
X49871381Y-156337143D01*
X49871381Y-156575239D01*
X49919000Y-156718096D01*
X49871381Y-157051429D02*
X50871381Y-157289524D01*
X50157095Y-157480001D01*
X50871381Y-157670477D01*
X49871381Y-157908572D01*
X50871381Y-158813334D02*
X50871381Y-158241905D01*
X50871381Y-158527619D02*
X49871381Y-158527619D01*
X50014238Y-158432381D01*
X50109476Y-158337143D01*
X50157095Y-158241905D01*
X93638666Y-46902381D02*
X93972000Y-46426190D01*
X94210095Y-46902381D02*
X94210095Y-45902381D01*
X93829142Y-45902381D01*
X93733904Y-45950000D01*
X93686285Y-45997619D01*
X93638666Y-46092857D01*
X93638666Y-46235714D01*
X93686285Y-46330952D01*
X93733904Y-46378571D01*
X93829142Y-46426190D01*
X94210095Y-46426190D01*
X93257714Y-45997619D02*
X93210095Y-45950000D01*
X93114857Y-45902381D01*
X92876761Y-45902381D01*
X92781523Y-45950000D01*
X92733904Y-45997619D01*
X92686285Y-46092857D01*
X92686285Y-46188095D01*
X92733904Y-46330952D01*
X93305333Y-46902381D01*
X92686285Y-46902381D01*
X49728381Y-39933334D02*
X49252190Y-39600000D01*
X49728381Y-39361905D02*
X48728381Y-39361905D01*
X48728381Y-39742858D01*
X48776000Y-39838096D01*
X48823619Y-39885715D01*
X48918857Y-39933334D01*
X49061714Y-39933334D01*
X49156952Y-39885715D01*
X49204571Y-39838096D01*
X49252190Y-39742858D01*
X49252190Y-39361905D01*
X48728381Y-40266667D02*
X48728381Y-40885715D01*
X49109333Y-40552381D01*
X49109333Y-40695239D01*
X49156952Y-40790477D01*
X49204571Y-40838096D01*
X49299810Y-40885715D01*
X49537905Y-40885715D01*
X49633143Y-40838096D01*
X49680762Y-40790477D01*
X49728381Y-40695239D01*
X49728381Y-40409524D01*
X49680762Y-40314286D01*
X49633143Y-40266667D01*
X114466666Y-46902381D02*
X114800000Y-46426190D01*
X115038095Y-46902381D02*
X115038095Y-45902381D01*
X114657142Y-45902381D01*
X114561904Y-45950000D01*
X114514285Y-45997619D01*
X114466666Y-46092857D01*
X114466666Y-46235714D01*
X114514285Y-46330952D01*
X114561904Y-46378571D01*
X114657142Y-46426190D01*
X115038095Y-46426190D01*
X113609523Y-45902381D02*
X113800000Y-45902381D01*
X113895238Y-45950000D01*
X113942857Y-45997619D01*
X114038095Y-46140476D01*
X114085714Y-46330952D01*
X114085714Y-46711905D01*
X114038095Y-46807143D01*
X113990476Y-46854762D01*
X113895238Y-46902381D01*
X113704761Y-46902381D01*
X113609523Y-46854762D01*
X113561904Y-46807143D01*
X113514285Y-46711905D01*
X113514285Y-46473810D01*
X113561904Y-46378571D01*
X113609523Y-46330952D01*
X113704761Y-46283333D01*
X113895238Y-46283333D01*
X113990476Y-46330952D01*
X114038095Y-46378571D01*
X114085714Y-46473810D01*
X116858781Y-149947143D02*
X116382590Y-149613809D01*
X116858781Y-149375714D02*
X115858781Y-149375714D01*
X115858781Y-149756667D01*
X115906400Y-149851905D01*
X115954019Y-149899524D01*
X116049257Y-149947143D01*
X116192114Y-149947143D01*
X116287352Y-149899524D01*
X116334971Y-149851905D01*
X116382590Y-149756667D01*
X116382590Y-149375714D01*
X115858781Y-150804286D02*
X115858781Y-150613809D01*
X115906400Y-150518571D01*
X115954019Y-150470952D01*
X116096876Y-150375714D01*
X116287352Y-150328095D01*
X116668305Y-150328095D01*
X116763543Y-150375714D01*
X116811162Y-150423333D01*
X116858781Y-150518571D01*
X116858781Y-150709048D01*
X116811162Y-150804286D01*
X116763543Y-150851905D01*
X116668305Y-150899524D01*
X116430210Y-150899524D01*
X116334971Y-150851905D01*
X116287352Y-150804286D01*
X116239733Y-150709048D01*
X116239733Y-150518571D01*
X116287352Y-150423333D01*
X116334971Y-150375714D01*
X116430210Y-150328095D01*
X116858781Y-151851905D02*
X116858781Y-151280476D01*
X116858781Y-151566190D02*
X115858781Y-151566190D01*
X116001638Y-151470952D01*
X116096876Y-151375714D01*
X116144495Y-151280476D01*
X111880381Y-134707143D02*
X111404190Y-134373809D01*
X111880381Y-134135714D02*
X110880381Y-134135714D01*
X110880381Y-134516667D01*
X110928000Y-134611905D01*
X110975619Y-134659524D01*
X111070857Y-134707143D01*
X111213714Y-134707143D01*
X111308952Y-134659524D01*
X111356571Y-134611905D01*
X111404190Y-134516667D01*
X111404190Y-134135714D01*
X110880381Y-135564286D02*
X110880381Y-135373809D01*
X110928000Y-135278571D01*
X110975619Y-135230952D01*
X111118476Y-135135714D01*
X111308952Y-135088095D01*
X111689905Y-135088095D01*
X111785143Y-135135714D01*
X111832762Y-135183333D01*
X111880381Y-135278571D01*
X111880381Y-135469048D01*
X111832762Y-135564286D01*
X111785143Y-135611905D01*
X111689905Y-135659524D01*
X111451810Y-135659524D01*
X111356571Y-135611905D01*
X111308952Y-135564286D01*
X111261333Y-135469048D01*
X111261333Y-135278571D01*
X111308952Y-135183333D01*
X111356571Y-135135714D01*
X111451810Y-135088095D01*
X110880381Y-136278571D02*
X110880381Y-136373810D01*
X110928000Y-136469048D01*
X110975619Y-136516667D01*
X111070857Y-136564286D01*
X111261333Y-136611905D01*
X111499429Y-136611905D01*
X111689905Y-136564286D01*
X111785143Y-136516667D01*
X111832762Y-136469048D01*
X111880381Y-136373810D01*
X111880381Y-136278571D01*
X111832762Y-136183333D01*
X111785143Y-136135714D01*
X111689905Y-136088095D01*
X111499429Y-136040476D01*
X111261333Y-136040476D01*
X111070857Y-136088095D01*
X110975619Y-136135714D01*
X110928000Y-136183333D01*
X110880381Y-136278571D01*
X106343181Y-149947143D02*
X105866990Y-149613809D01*
X106343181Y-149375714D02*
X105343181Y-149375714D01*
X105343181Y-149756667D01*
X105390800Y-149851905D01*
X105438419Y-149899524D01*
X105533657Y-149947143D01*
X105676514Y-149947143D01*
X105771752Y-149899524D01*
X105819371Y-149851905D01*
X105866990Y-149756667D01*
X105866990Y-149375714D01*
X105343181Y-150851905D02*
X105343181Y-150375714D01*
X105819371Y-150328095D01*
X105771752Y-150375714D01*
X105724133Y-150470952D01*
X105724133Y-150709048D01*
X105771752Y-150804286D01*
X105819371Y-150851905D01*
X105914610Y-150899524D01*
X106152705Y-150899524D01*
X106247943Y-150851905D01*
X106295562Y-150804286D01*
X106343181Y-150709048D01*
X106343181Y-150470952D01*
X106295562Y-150375714D01*
X106247943Y-150328095D01*
X106343181Y-151375714D02*
X106343181Y-151566190D01*
X106295562Y-151661429D01*
X106247943Y-151709048D01*
X106105086Y-151804286D01*
X105914610Y-151851905D01*
X105533657Y-151851905D01*
X105438419Y-151804286D01*
X105390800Y-151756667D01*
X105343181Y-151661429D01*
X105343181Y-151470952D01*
X105390800Y-151375714D01*
X105438419Y-151328095D01*
X105533657Y-151280476D01*
X105771752Y-151280476D01*
X105866990Y-151328095D01*
X105914610Y-151375714D01*
X105962229Y-151470952D01*
X105962229Y-151661429D01*
X105914610Y-151756667D01*
X105866990Y-151804286D01*
X105771752Y-151851905D01*
X99688381Y-134707143D02*
X99212190Y-134373809D01*
X99688381Y-134135714D02*
X98688381Y-134135714D01*
X98688381Y-134516667D01*
X98736000Y-134611905D01*
X98783619Y-134659524D01*
X98878857Y-134707143D01*
X99021714Y-134707143D01*
X99116952Y-134659524D01*
X99164571Y-134611905D01*
X99212190Y-134516667D01*
X99212190Y-134135714D01*
X98688381Y-135611905D02*
X98688381Y-135135714D01*
X99164571Y-135088095D01*
X99116952Y-135135714D01*
X99069333Y-135230952D01*
X99069333Y-135469048D01*
X99116952Y-135564286D01*
X99164571Y-135611905D01*
X99259810Y-135659524D01*
X99497905Y-135659524D01*
X99593143Y-135611905D01*
X99640762Y-135564286D01*
X99688381Y-135469048D01*
X99688381Y-135230952D01*
X99640762Y-135135714D01*
X99593143Y-135088095D01*
X99116952Y-136230952D02*
X99069333Y-136135714D01*
X99021714Y-136088095D01*
X98926476Y-136040476D01*
X98878857Y-136040476D01*
X98783619Y-136088095D01*
X98736000Y-136135714D01*
X98688381Y-136230952D01*
X98688381Y-136421429D01*
X98736000Y-136516667D01*
X98783619Y-136564286D01*
X98878857Y-136611905D01*
X98926476Y-136611905D01*
X99021714Y-136564286D01*
X99069333Y-136516667D01*
X99116952Y-136421429D01*
X99116952Y-136230952D01*
X99164571Y-136135714D01*
X99212190Y-136088095D01*
X99307429Y-136040476D01*
X99497905Y-136040476D01*
X99593143Y-136088095D01*
X99640762Y-136135714D01*
X99688381Y-136230952D01*
X99688381Y-136421429D01*
X99640762Y-136516667D01*
X99593143Y-136564286D01*
X99497905Y-136611905D01*
X99307429Y-136611905D01*
X99212190Y-136564286D01*
X99164571Y-136516667D01*
X99116952Y-136421429D01*
X111528381Y-149947143D02*
X111052190Y-149613809D01*
X111528381Y-149375714D02*
X110528381Y-149375714D01*
X110528381Y-149756667D01*
X110576000Y-149851905D01*
X110623619Y-149899524D01*
X110718857Y-149947143D01*
X110861714Y-149947143D01*
X110956952Y-149899524D01*
X111004571Y-149851905D01*
X111052190Y-149756667D01*
X111052190Y-149375714D01*
X110528381Y-150851905D02*
X110528381Y-150375714D01*
X111004571Y-150328095D01*
X110956952Y-150375714D01*
X110909333Y-150470952D01*
X110909333Y-150709048D01*
X110956952Y-150804286D01*
X111004571Y-150851905D01*
X111099810Y-150899524D01*
X111337905Y-150899524D01*
X111433143Y-150851905D01*
X111480762Y-150804286D01*
X111528381Y-150709048D01*
X111528381Y-150470952D01*
X111480762Y-150375714D01*
X111433143Y-150328095D01*
X110528381Y-151232857D02*
X110528381Y-151899524D01*
X111528381Y-151470952D01*
X106116381Y-146042143D02*
X105640190Y-145708809D01*
X106116381Y-145470714D02*
X105116381Y-145470714D01*
X105116381Y-145851667D01*
X105164000Y-145946905D01*
X105211619Y-145994524D01*
X105306857Y-146042143D01*
X105449714Y-146042143D01*
X105544952Y-145994524D01*
X105592571Y-145946905D01*
X105640190Y-145851667D01*
X105640190Y-145470714D01*
X105116381Y-146946905D02*
X105116381Y-146470714D01*
X105592571Y-146423095D01*
X105544952Y-146470714D01*
X105497333Y-146565952D01*
X105497333Y-146804048D01*
X105544952Y-146899286D01*
X105592571Y-146946905D01*
X105687810Y-146994524D01*
X105925905Y-146994524D01*
X106021143Y-146946905D01*
X106068762Y-146899286D01*
X106116381Y-146804048D01*
X106116381Y-146565952D01*
X106068762Y-146470714D01*
X106021143Y-146423095D01*
X105116381Y-147851667D02*
X105116381Y-147661190D01*
X105164000Y-147565952D01*
X105211619Y-147518333D01*
X105354476Y-147423095D01*
X105544952Y-147375476D01*
X105925905Y-147375476D01*
X106021143Y-147423095D01*
X106068762Y-147470714D01*
X106116381Y-147565952D01*
X106116381Y-147756429D01*
X106068762Y-147851667D01*
X106021143Y-147899286D01*
X105925905Y-147946905D01*
X105687810Y-147946905D01*
X105592571Y-147899286D01*
X105544952Y-147851667D01*
X105497333Y-147756429D01*
X105497333Y-147565952D01*
X105544952Y-147470714D01*
X105592571Y-147423095D01*
X105687810Y-147375476D01*
X101012781Y-149947143D02*
X100536590Y-149613809D01*
X101012781Y-149375714D02*
X100012781Y-149375714D01*
X100012781Y-149756667D01*
X100060400Y-149851905D01*
X100108019Y-149899524D01*
X100203257Y-149947143D01*
X100346114Y-149947143D01*
X100441352Y-149899524D01*
X100488971Y-149851905D01*
X100536590Y-149756667D01*
X100536590Y-149375714D01*
X100012781Y-150851905D02*
X100012781Y-150375714D01*
X100488971Y-150328095D01*
X100441352Y-150375714D01*
X100393733Y-150470952D01*
X100393733Y-150709048D01*
X100441352Y-150804286D01*
X100488971Y-150851905D01*
X100584210Y-150899524D01*
X100822305Y-150899524D01*
X100917543Y-150851905D01*
X100965162Y-150804286D01*
X101012781Y-150709048D01*
X101012781Y-150470952D01*
X100965162Y-150375714D01*
X100917543Y-150328095D01*
X100012781Y-151804286D02*
X100012781Y-151328095D01*
X100488971Y-151280476D01*
X100441352Y-151328095D01*
X100393733Y-151423333D01*
X100393733Y-151661429D01*
X100441352Y-151756667D01*
X100488971Y-151804286D01*
X100584210Y-151851905D01*
X100822305Y-151851905D01*
X100917543Y-151804286D01*
X100965162Y-151756667D01*
X101012781Y-151661429D01*
X101012781Y-151423333D01*
X100965162Y-151328095D01*
X100917543Y-151280476D01*
X93416381Y-145153143D02*
X92940190Y-144819809D01*
X93416381Y-144581714D02*
X92416381Y-144581714D01*
X92416381Y-144962667D01*
X92464000Y-145057905D01*
X92511619Y-145105524D01*
X92606857Y-145153143D01*
X92749714Y-145153143D01*
X92844952Y-145105524D01*
X92892571Y-145057905D01*
X92940190Y-144962667D01*
X92940190Y-144581714D01*
X92416381Y-146057905D02*
X92416381Y-145581714D01*
X92892571Y-145534095D01*
X92844952Y-145581714D01*
X92797333Y-145676952D01*
X92797333Y-145915048D01*
X92844952Y-146010286D01*
X92892571Y-146057905D01*
X92987810Y-146105524D01*
X93225905Y-146105524D01*
X93321143Y-146057905D01*
X93368762Y-146010286D01*
X93416381Y-145915048D01*
X93416381Y-145676952D01*
X93368762Y-145581714D01*
X93321143Y-145534095D01*
X92749714Y-146962667D02*
X93416381Y-146962667D01*
X92368762Y-146724571D02*
X93083048Y-146486476D01*
X93083048Y-147105524D01*
X90876381Y-149947143D02*
X90400190Y-149613809D01*
X90876381Y-149375714D02*
X89876381Y-149375714D01*
X89876381Y-149756667D01*
X89924000Y-149851905D01*
X89971619Y-149899524D01*
X90066857Y-149947143D01*
X90209714Y-149947143D01*
X90304952Y-149899524D01*
X90352571Y-149851905D01*
X90400190Y-149756667D01*
X90400190Y-149375714D01*
X89876381Y-150851905D02*
X89876381Y-150375714D01*
X90352571Y-150328095D01*
X90304952Y-150375714D01*
X90257333Y-150470952D01*
X90257333Y-150709048D01*
X90304952Y-150804286D01*
X90352571Y-150851905D01*
X90447810Y-150899524D01*
X90685905Y-150899524D01*
X90781143Y-150851905D01*
X90828762Y-150804286D01*
X90876381Y-150709048D01*
X90876381Y-150470952D01*
X90828762Y-150375714D01*
X90781143Y-150328095D01*
X89876381Y-151232857D02*
X89876381Y-151851905D01*
X90257333Y-151518571D01*
X90257333Y-151661429D01*
X90304952Y-151756667D01*
X90352571Y-151804286D01*
X90447810Y-151851905D01*
X90685905Y-151851905D01*
X90781143Y-151804286D01*
X90828762Y-151756667D01*
X90876381Y-151661429D01*
X90876381Y-151375714D01*
X90828762Y-151280476D01*
X90781143Y-151232857D01*
X87750381Y-134707143D02*
X87274190Y-134373809D01*
X87750381Y-134135714D02*
X86750381Y-134135714D01*
X86750381Y-134516667D01*
X86798000Y-134611905D01*
X86845619Y-134659524D01*
X86940857Y-134707143D01*
X87083714Y-134707143D01*
X87178952Y-134659524D01*
X87226571Y-134611905D01*
X87274190Y-134516667D01*
X87274190Y-134135714D01*
X86750381Y-135611905D02*
X86750381Y-135135714D01*
X87226571Y-135088095D01*
X87178952Y-135135714D01*
X87131333Y-135230952D01*
X87131333Y-135469048D01*
X87178952Y-135564286D01*
X87226571Y-135611905D01*
X87321810Y-135659524D01*
X87559905Y-135659524D01*
X87655143Y-135611905D01*
X87702762Y-135564286D01*
X87750381Y-135469048D01*
X87750381Y-135230952D01*
X87702762Y-135135714D01*
X87655143Y-135088095D01*
X86845619Y-136040476D02*
X86798000Y-136088095D01*
X86750381Y-136183333D01*
X86750381Y-136421429D01*
X86798000Y-136516667D01*
X86845619Y-136564286D01*
X86940857Y-136611905D01*
X87036095Y-136611905D01*
X87178952Y-136564286D01*
X87750381Y-135992857D01*
X87750381Y-136611905D01*
X80462381Y-149947143D02*
X79986190Y-149613809D01*
X80462381Y-149375714D02*
X79462381Y-149375714D01*
X79462381Y-149756667D01*
X79510000Y-149851905D01*
X79557619Y-149899524D01*
X79652857Y-149947143D01*
X79795714Y-149947143D01*
X79890952Y-149899524D01*
X79938571Y-149851905D01*
X79986190Y-149756667D01*
X79986190Y-149375714D01*
X79462381Y-150851905D02*
X79462381Y-150375714D01*
X79938571Y-150328095D01*
X79890952Y-150375714D01*
X79843333Y-150470952D01*
X79843333Y-150709048D01*
X79890952Y-150804286D01*
X79938571Y-150851905D01*
X80033810Y-150899524D01*
X80271905Y-150899524D01*
X80367143Y-150851905D01*
X80414762Y-150804286D01*
X80462381Y-150709048D01*
X80462381Y-150470952D01*
X80414762Y-150375714D01*
X80367143Y-150328095D01*
X80462381Y-151851905D02*
X80462381Y-151280476D01*
X80462381Y-151566190D02*
X79462381Y-151566190D01*
X79605238Y-151470952D01*
X79700476Y-151375714D01*
X79748095Y-151280476D01*
X75456781Y-149947143D02*
X74980590Y-149613809D01*
X75456781Y-149375714D02*
X74456781Y-149375714D01*
X74456781Y-149756667D01*
X74504400Y-149851905D01*
X74552019Y-149899524D01*
X74647257Y-149947143D01*
X74790114Y-149947143D01*
X74885352Y-149899524D01*
X74932971Y-149851905D01*
X74980590Y-149756667D01*
X74980590Y-149375714D01*
X74456781Y-150851905D02*
X74456781Y-150375714D01*
X74932971Y-150328095D01*
X74885352Y-150375714D01*
X74837733Y-150470952D01*
X74837733Y-150709048D01*
X74885352Y-150804286D01*
X74932971Y-150851905D01*
X75028210Y-150899524D01*
X75266305Y-150899524D01*
X75361543Y-150851905D01*
X75409162Y-150804286D01*
X75456781Y-150709048D01*
X75456781Y-150470952D01*
X75409162Y-150375714D01*
X75361543Y-150328095D01*
X74456781Y-151518571D02*
X74456781Y-151613810D01*
X74504400Y-151709048D01*
X74552019Y-151756667D01*
X74647257Y-151804286D01*
X74837733Y-151851905D01*
X75075829Y-151851905D01*
X75266305Y-151804286D01*
X75361543Y-151756667D01*
X75409162Y-151709048D01*
X75456781Y-151613810D01*
X75456781Y-151518571D01*
X75409162Y-151423333D01*
X75361543Y-151375714D01*
X75266305Y-151328095D01*
X75075829Y-151280476D01*
X74837733Y-151280476D01*
X74647257Y-151328095D01*
X74552019Y-151375714D01*
X74504400Y-151423333D01*
X74456781Y-151518571D01*
X96210381Y-149947143D02*
X95734190Y-149613809D01*
X96210381Y-149375714D02*
X95210381Y-149375714D01*
X95210381Y-149756667D01*
X95258000Y-149851905D01*
X95305619Y-149899524D01*
X95400857Y-149947143D01*
X95543714Y-149947143D01*
X95638952Y-149899524D01*
X95686571Y-149851905D01*
X95734190Y-149756667D01*
X95734190Y-149375714D01*
X95543714Y-150804286D02*
X96210381Y-150804286D01*
X95162762Y-150566190D02*
X95877048Y-150328095D01*
X95877048Y-150947143D01*
X96210381Y-151375714D02*
X96210381Y-151566190D01*
X96162762Y-151661429D01*
X96115143Y-151709048D01*
X95972286Y-151804286D01*
X95781810Y-151851905D01*
X95400857Y-151851905D01*
X95305619Y-151804286D01*
X95258000Y-151756667D01*
X95210381Y-151661429D01*
X95210381Y-151470952D01*
X95258000Y-151375714D01*
X95305619Y-151328095D01*
X95400857Y-151280476D01*
X95638952Y-151280476D01*
X95734190Y-151328095D01*
X95781810Y-151375714D01*
X95829429Y-151470952D01*
X95829429Y-151661429D01*
X95781810Y-151756667D01*
X95734190Y-151804286D01*
X95638952Y-151851905D01*
X80970381Y-145153143D02*
X80494190Y-144819809D01*
X80970381Y-144581714D02*
X79970381Y-144581714D01*
X79970381Y-144962667D01*
X80018000Y-145057905D01*
X80065619Y-145105524D01*
X80160857Y-145153143D01*
X80303714Y-145153143D01*
X80398952Y-145105524D01*
X80446571Y-145057905D01*
X80494190Y-144962667D01*
X80494190Y-144581714D01*
X80303714Y-146010286D02*
X80970381Y-146010286D01*
X79922762Y-145772190D02*
X80637048Y-145534095D01*
X80637048Y-146153143D01*
X80398952Y-146676952D02*
X80351333Y-146581714D01*
X80303714Y-146534095D01*
X80208476Y-146486476D01*
X80160857Y-146486476D01*
X80065619Y-146534095D01*
X80018000Y-146581714D01*
X79970381Y-146676952D01*
X79970381Y-146867429D01*
X80018000Y-146962667D01*
X80065619Y-147010286D01*
X80160857Y-147057905D01*
X80208476Y-147057905D01*
X80303714Y-147010286D01*
X80351333Y-146962667D01*
X80398952Y-146867429D01*
X80398952Y-146676952D01*
X80446571Y-146581714D01*
X80494190Y-146534095D01*
X80589429Y-146486476D01*
X80779905Y-146486476D01*
X80875143Y-146534095D01*
X80922762Y-146581714D01*
X80970381Y-146676952D01*
X80970381Y-146867429D01*
X80922762Y-146962667D01*
X80875143Y-147010286D01*
X80779905Y-147057905D01*
X80589429Y-147057905D01*
X80494190Y-147010286D01*
X80446571Y-146962667D01*
X80398952Y-146867429D01*
X85796381Y-149947143D02*
X85320190Y-149613809D01*
X85796381Y-149375714D02*
X84796381Y-149375714D01*
X84796381Y-149756667D01*
X84844000Y-149851905D01*
X84891619Y-149899524D01*
X84986857Y-149947143D01*
X85129714Y-149947143D01*
X85224952Y-149899524D01*
X85272571Y-149851905D01*
X85320190Y-149756667D01*
X85320190Y-149375714D01*
X85129714Y-150804286D02*
X85796381Y-150804286D01*
X84748762Y-150566190D02*
X85463048Y-150328095D01*
X85463048Y-150947143D01*
X84796381Y-151232857D02*
X84796381Y-151899524D01*
X85796381Y-151470952D01*
X70126381Y-149947143D02*
X69650190Y-149613809D01*
X70126381Y-149375714D02*
X69126381Y-149375714D01*
X69126381Y-149756667D01*
X69174000Y-149851905D01*
X69221619Y-149899524D01*
X69316857Y-149947143D01*
X69459714Y-149947143D01*
X69554952Y-149899524D01*
X69602571Y-149851905D01*
X69650190Y-149756667D01*
X69650190Y-149375714D01*
X69459714Y-150804286D02*
X70126381Y-150804286D01*
X69078762Y-150566190D02*
X69793048Y-150328095D01*
X69793048Y-150947143D01*
X69126381Y-151756667D02*
X69126381Y-151566190D01*
X69174000Y-151470952D01*
X69221619Y-151423333D01*
X69364476Y-151328095D01*
X69554952Y-151280476D01*
X69935905Y-151280476D01*
X70031143Y-151328095D01*
X70078762Y-151375714D01*
X70126381Y-151470952D01*
X70126381Y-151661429D01*
X70078762Y-151756667D01*
X70031143Y-151804286D01*
X69935905Y-151851905D01*
X69697810Y-151851905D01*
X69602571Y-151804286D01*
X69554952Y-151756667D01*
X69507333Y-151661429D01*
X69507333Y-151470952D01*
X69554952Y-151375714D01*
X69602571Y-151328095D01*
X69697810Y-151280476D01*
X69462381Y-134707143D02*
X68986190Y-134373809D01*
X69462381Y-134135714D02*
X68462381Y-134135714D01*
X68462381Y-134516667D01*
X68510000Y-134611905D01*
X68557619Y-134659524D01*
X68652857Y-134707143D01*
X68795714Y-134707143D01*
X68890952Y-134659524D01*
X68938571Y-134611905D01*
X68986190Y-134516667D01*
X68986190Y-134135714D01*
X68795714Y-135564286D02*
X69462381Y-135564286D01*
X68414762Y-135326190D02*
X69129048Y-135088095D01*
X69129048Y-135707143D01*
X68462381Y-136564286D02*
X68462381Y-136088095D01*
X68938571Y-136040476D01*
X68890952Y-136088095D01*
X68843333Y-136183333D01*
X68843333Y-136421429D01*
X68890952Y-136516667D01*
X68938571Y-136564286D01*
X69033810Y-136611905D01*
X69271905Y-136611905D01*
X69367143Y-136564286D01*
X69414762Y-136516667D01*
X69462381Y-136421429D01*
X69462381Y-136183333D01*
X69414762Y-136088095D01*
X69367143Y-136040476D01*
X64714381Y-149947143D02*
X64238190Y-149613809D01*
X64714381Y-149375714D02*
X63714381Y-149375714D01*
X63714381Y-149756667D01*
X63762000Y-149851905D01*
X63809619Y-149899524D01*
X63904857Y-149947143D01*
X64047714Y-149947143D01*
X64142952Y-149899524D01*
X64190571Y-149851905D01*
X64238190Y-149756667D01*
X64238190Y-149375714D01*
X64047714Y-150804286D02*
X64714381Y-150804286D01*
X63666762Y-150566190D02*
X64381048Y-150328095D01*
X64381048Y-150947143D01*
X64047714Y-151756667D02*
X64714381Y-151756667D01*
X63666762Y-151518571D02*
X64381048Y-151280476D01*
X64381048Y-151899524D01*
X58016381Y-134707143D02*
X57540190Y-134373809D01*
X58016381Y-134135714D02*
X57016381Y-134135714D01*
X57016381Y-134516667D01*
X57064000Y-134611905D01*
X57111619Y-134659524D01*
X57206857Y-134707143D01*
X57349714Y-134707143D01*
X57444952Y-134659524D01*
X57492571Y-134611905D01*
X57540190Y-134516667D01*
X57540190Y-134135714D01*
X57349714Y-135564286D02*
X58016381Y-135564286D01*
X56968762Y-135326190D02*
X57683048Y-135088095D01*
X57683048Y-135707143D01*
X57016381Y-135992857D02*
X57016381Y-136611905D01*
X57397333Y-136278571D01*
X57397333Y-136421429D01*
X57444952Y-136516667D01*
X57492571Y-136564286D01*
X57587810Y-136611905D01*
X57825905Y-136611905D01*
X57921143Y-136564286D01*
X57968762Y-136516667D01*
X58016381Y-136421429D01*
X58016381Y-136135714D01*
X57968762Y-136040476D01*
X57921143Y-135992857D01*
X57856381Y-149947143D02*
X57380190Y-149613809D01*
X57856381Y-149375714D02*
X56856381Y-149375714D01*
X56856381Y-149756667D01*
X56904000Y-149851905D01*
X56951619Y-149899524D01*
X57046857Y-149947143D01*
X57189714Y-149947143D01*
X57284952Y-149899524D01*
X57332571Y-149851905D01*
X57380190Y-149756667D01*
X57380190Y-149375714D01*
X57189714Y-150804286D02*
X57856381Y-150804286D01*
X56808762Y-150566190D02*
X57523048Y-150328095D01*
X57523048Y-150947143D01*
X56951619Y-151280476D02*
X56904000Y-151328095D01*
X56856381Y-151423333D01*
X56856381Y-151661429D01*
X56904000Y-151756667D01*
X56951619Y-151804286D01*
X57046857Y-151851905D01*
X57142095Y-151851905D01*
X57284952Y-151804286D01*
X57856381Y-151232857D01*
X57856381Y-151851905D01*
X63317381Y-146042143D02*
X62841190Y-145708809D01*
X63317381Y-145470714D02*
X62317381Y-145470714D01*
X62317381Y-145851667D01*
X62365000Y-145946905D01*
X62412619Y-145994524D01*
X62507857Y-146042143D01*
X62650714Y-146042143D01*
X62745952Y-145994524D01*
X62793571Y-145946905D01*
X62841190Y-145851667D01*
X62841190Y-145470714D01*
X62650714Y-146899286D02*
X63317381Y-146899286D01*
X62269762Y-146661190D02*
X62984048Y-146423095D01*
X62984048Y-147042143D01*
X63317381Y-147946905D02*
X63317381Y-147375476D01*
X63317381Y-147661190D02*
X62317381Y-147661190D01*
X62460238Y-147565952D01*
X62555476Y-147470714D01*
X62603095Y-147375476D01*
X59634381Y-149947143D02*
X59158190Y-149613809D01*
X59634381Y-149375714D02*
X58634381Y-149375714D01*
X58634381Y-149756667D01*
X58682000Y-149851905D01*
X58729619Y-149899524D01*
X58824857Y-149947143D01*
X58967714Y-149947143D01*
X59062952Y-149899524D01*
X59110571Y-149851905D01*
X59158190Y-149756667D01*
X59158190Y-149375714D01*
X58967714Y-150804286D02*
X59634381Y-150804286D01*
X58586762Y-150566190D02*
X59301048Y-150328095D01*
X59301048Y-150947143D01*
X58634381Y-151518571D02*
X58634381Y-151613810D01*
X58682000Y-151709048D01*
X58729619Y-151756667D01*
X58824857Y-151804286D01*
X59015333Y-151851905D01*
X59253429Y-151851905D01*
X59443905Y-151804286D01*
X59539143Y-151756667D01*
X59586762Y-151709048D01*
X59634381Y-151613810D01*
X59634381Y-151518571D01*
X59586762Y-151423333D01*
X59539143Y-151375714D01*
X59443905Y-151328095D01*
X59253429Y-151280476D01*
X59015333Y-151280476D01*
X58824857Y-151328095D01*
X58729619Y-151375714D01*
X58682000Y-151423333D01*
X58634381Y-151518571D01*
X50998381Y-144645143D02*
X50522190Y-144311809D01*
X50998381Y-144073714D02*
X49998381Y-144073714D01*
X49998381Y-144454667D01*
X50046000Y-144549905D01*
X50093619Y-144597524D01*
X50188857Y-144645143D01*
X50331714Y-144645143D01*
X50426952Y-144597524D01*
X50474571Y-144549905D01*
X50522190Y-144454667D01*
X50522190Y-144073714D01*
X49998381Y-144978476D02*
X49998381Y-145597524D01*
X50379333Y-145264190D01*
X50379333Y-145407048D01*
X50426952Y-145502286D01*
X50474571Y-145549905D01*
X50569810Y-145597524D01*
X50807905Y-145597524D01*
X50903143Y-145549905D01*
X50950762Y-145502286D01*
X50998381Y-145407048D01*
X50998381Y-145121333D01*
X50950762Y-145026095D01*
X50903143Y-144978476D01*
X50998381Y-146073714D02*
X50998381Y-146264190D01*
X50950762Y-146359429D01*
X50903143Y-146407048D01*
X50760286Y-146502286D01*
X50569810Y-146549905D01*
X50188857Y-146549905D01*
X50093619Y-146502286D01*
X50046000Y-146454667D01*
X49998381Y-146359429D01*
X49998381Y-146168952D01*
X50046000Y-146073714D01*
X50093619Y-146026095D01*
X50188857Y-145978476D01*
X50426952Y-145978476D01*
X50522190Y-146026095D01*
X50569810Y-146073714D01*
X50617429Y-146168952D01*
X50617429Y-146359429D01*
X50569810Y-146454667D01*
X50522190Y-146502286D01*
X50426952Y-146549905D01*
X52712381Y-149947143D02*
X52236190Y-149613809D01*
X52712381Y-149375714D02*
X51712381Y-149375714D01*
X51712381Y-149756667D01*
X51760000Y-149851905D01*
X51807619Y-149899524D01*
X51902857Y-149947143D01*
X52045714Y-149947143D01*
X52140952Y-149899524D01*
X52188571Y-149851905D01*
X52236190Y-149756667D01*
X52236190Y-149375714D01*
X51712381Y-150280476D02*
X51712381Y-150899524D01*
X52093333Y-150566190D01*
X52093333Y-150709048D01*
X52140952Y-150804286D01*
X52188571Y-150851905D01*
X52283810Y-150899524D01*
X52521905Y-150899524D01*
X52617143Y-150851905D01*
X52664762Y-150804286D01*
X52712381Y-150709048D01*
X52712381Y-150423333D01*
X52664762Y-150328095D01*
X52617143Y-150280476D01*
X52140952Y-151470952D02*
X52093333Y-151375714D01*
X52045714Y-151328095D01*
X51950476Y-151280476D01*
X51902857Y-151280476D01*
X51807619Y-151328095D01*
X51760000Y-151375714D01*
X51712381Y-151470952D01*
X51712381Y-151661429D01*
X51760000Y-151756667D01*
X51807619Y-151804286D01*
X51902857Y-151851905D01*
X51950476Y-151851905D01*
X52045714Y-151804286D01*
X52093333Y-151756667D01*
X52140952Y-151661429D01*
X52140952Y-151470952D01*
X52188571Y-151375714D01*
X52236190Y-151328095D01*
X52331429Y-151280476D01*
X52521905Y-151280476D01*
X52617143Y-151328095D01*
X52664762Y-151375714D01*
X52712381Y-151470952D01*
X52712381Y-151661429D01*
X52664762Y-151756667D01*
X52617143Y-151804286D01*
X52521905Y-151851905D01*
X52331429Y-151851905D01*
X52236190Y-151804286D01*
X52188571Y-151756667D01*
X52140952Y-151661429D01*
X103766857Y-103798381D02*
X104100191Y-103322190D01*
X104338286Y-103798381D02*
X104338286Y-102798381D01*
X103957333Y-102798381D01*
X103862095Y-102846000D01*
X103814476Y-102893619D01*
X103766857Y-102988857D01*
X103766857Y-103131714D01*
X103814476Y-103226952D01*
X103862095Y-103274571D01*
X103957333Y-103322190D01*
X104338286Y-103322190D01*
X103433524Y-102798381D02*
X102814476Y-102798381D01*
X103147810Y-103179333D01*
X103004952Y-103179333D01*
X102909714Y-103226952D01*
X102862095Y-103274571D01*
X102814476Y-103369810D01*
X102814476Y-103607905D01*
X102862095Y-103703143D01*
X102909714Y-103750762D01*
X103004952Y-103798381D01*
X103290667Y-103798381D01*
X103385905Y-103750762D01*
X103433524Y-103703143D01*
X102481143Y-102798381D02*
X101814476Y-102798381D01*
X102243048Y-103798381D01*
X96146857Y-103798381D02*
X96480191Y-103322190D01*
X96718286Y-103798381D02*
X96718286Y-102798381D01*
X96337333Y-102798381D01*
X96242095Y-102846000D01*
X96194476Y-102893619D01*
X96146857Y-102988857D01*
X96146857Y-103131714D01*
X96194476Y-103226952D01*
X96242095Y-103274571D01*
X96337333Y-103322190D01*
X96718286Y-103322190D01*
X95813524Y-102798381D02*
X95194476Y-102798381D01*
X95527810Y-103179333D01*
X95384952Y-103179333D01*
X95289714Y-103226952D01*
X95242095Y-103274571D01*
X95194476Y-103369810D01*
X95194476Y-103607905D01*
X95242095Y-103703143D01*
X95289714Y-103750762D01*
X95384952Y-103798381D01*
X95670667Y-103798381D01*
X95765905Y-103750762D01*
X95813524Y-103703143D01*
X94337333Y-102798381D02*
X94527810Y-102798381D01*
X94623048Y-102846000D01*
X94670667Y-102893619D01*
X94765905Y-103036476D01*
X94813524Y-103226952D01*
X94813524Y-103607905D01*
X94765905Y-103703143D01*
X94718286Y-103750762D01*
X94623048Y-103798381D01*
X94432571Y-103798381D01*
X94337333Y-103750762D01*
X94289714Y-103703143D01*
X94242095Y-103607905D01*
X94242095Y-103369810D01*
X94289714Y-103274571D01*
X94337333Y-103226952D01*
X94432571Y-103179333D01*
X94623048Y-103179333D01*
X94718286Y-103226952D01*
X94765905Y-103274571D01*
X94813524Y-103369810D01*
X115212857Y-78398381D02*
X115546191Y-77922190D01*
X115784286Y-78398381D02*
X115784286Y-77398381D01*
X115403333Y-77398381D01*
X115308095Y-77446000D01*
X115260476Y-77493619D01*
X115212857Y-77588857D01*
X115212857Y-77731714D01*
X115260476Y-77826952D01*
X115308095Y-77874571D01*
X115403333Y-77922190D01*
X115784286Y-77922190D01*
X114879524Y-77398381D02*
X114260476Y-77398381D01*
X114593810Y-77779333D01*
X114450952Y-77779333D01*
X114355714Y-77826952D01*
X114308095Y-77874571D01*
X114260476Y-77969810D01*
X114260476Y-78207905D01*
X114308095Y-78303143D01*
X114355714Y-78350762D01*
X114450952Y-78398381D01*
X114736667Y-78398381D01*
X114831905Y-78350762D01*
X114879524Y-78303143D01*
X113355714Y-77398381D02*
X113831905Y-77398381D01*
X113879524Y-77874571D01*
X113831905Y-77826952D01*
X113736667Y-77779333D01*
X113498571Y-77779333D01*
X113403333Y-77826952D01*
X113355714Y-77874571D01*
X113308095Y-77969810D01*
X113308095Y-78207905D01*
X113355714Y-78303143D01*
X113403333Y-78350762D01*
X113498571Y-78398381D01*
X113736667Y-78398381D01*
X113831905Y-78350762D01*
X113879524Y-78303143D01*
X113688857Y-63412381D02*
X114022191Y-62936190D01*
X114260286Y-63412381D02*
X114260286Y-62412381D01*
X113879333Y-62412381D01*
X113784095Y-62460000D01*
X113736476Y-62507619D01*
X113688857Y-62602857D01*
X113688857Y-62745714D01*
X113736476Y-62840952D01*
X113784095Y-62888571D01*
X113879333Y-62936190D01*
X114260286Y-62936190D01*
X113355524Y-62412381D02*
X112736476Y-62412381D01*
X113069810Y-62793333D01*
X112926952Y-62793333D01*
X112831714Y-62840952D01*
X112784095Y-62888571D01*
X112736476Y-62983810D01*
X112736476Y-63221905D01*
X112784095Y-63317143D01*
X112831714Y-63364762D01*
X112926952Y-63412381D01*
X113212667Y-63412381D01*
X113307905Y-63364762D01*
X113355524Y-63317143D01*
X111879333Y-62745714D02*
X111879333Y-63412381D01*
X112117429Y-62364762D02*
X112355524Y-63079048D01*
X111736476Y-63079048D01*
X103766857Y-98718381D02*
X104100191Y-98242190D01*
X104338286Y-98718381D02*
X104338286Y-97718381D01*
X103957333Y-97718381D01*
X103862095Y-97766000D01*
X103814476Y-97813619D01*
X103766857Y-97908857D01*
X103766857Y-98051714D01*
X103814476Y-98146952D01*
X103862095Y-98194571D01*
X103957333Y-98242190D01*
X104338286Y-98242190D01*
X103433524Y-97718381D02*
X102814476Y-97718381D01*
X103147810Y-98099333D01*
X103004952Y-98099333D01*
X102909714Y-98146952D01*
X102862095Y-98194571D01*
X102814476Y-98289810D01*
X102814476Y-98527905D01*
X102862095Y-98623143D01*
X102909714Y-98670762D01*
X103004952Y-98718381D01*
X103290667Y-98718381D01*
X103385905Y-98670762D01*
X103433524Y-98623143D01*
X102481143Y-97718381D02*
X101862095Y-97718381D01*
X102195429Y-98099333D01*
X102052571Y-98099333D01*
X101957333Y-98146952D01*
X101909714Y-98194571D01*
X101862095Y-98289810D01*
X101862095Y-98527905D01*
X101909714Y-98623143D01*
X101957333Y-98670762D01*
X102052571Y-98718381D01*
X102338286Y-98718381D01*
X102433524Y-98670762D01*
X102481143Y-98623143D01*
X107084857Y-78398381D02*
X107418191Y-77922190D01*
X107656286Y-78398381D02*
X107656286Y-77398381D01*
X107275333Y-77398381D01*
X107180095Y-77446000D01*
X107132476Y-77493619D01*
X107084857Y-77588857D01*
X107084857Y-77731714D01*
X107132476Y-77826952D01*
X107180095Y-77874571D01*
X107275333Y-77922190D01*
X107656286Y-77922190D01*
X106751524Y-77398381D02*
X106132476Y-77398381D01*
X106465810Y-77779333D01*
X106322952Y-77779333D01*
X106227714Y-77826952D01*
X106180095Y-77874571D01*
X106132476Y-77969810D01*
X106132476Y-78207905D01*
X106180095Y-78303143D01*
X106227714Y-78350762D01*
X106322952Y-78398381D01*
X106608667Y-78398381D01*
X106703905Y-78350762D01*
X106751524Y-78303143D01*
X105751524Y-77493619D02*
X105703905Y-77446000D01*
X105608667Y-77398381D01*
X105370571Y-77398381D01*
X105275333Y-77446000D01*
X105227714Y-77493619D01*
X105180095Y-77588857D01*
X105180095Y-77684095D01*
X105227714Y-77826952D01*
X105799143Y-78398381D01*
X105180095Y-78398381D01*
X96146857Y-98718381D02*
X96480191Y-98242190D01*
X96718286Y-98718381D02*
X96718286Y-97718381D01*
X96337333Y-97718381D01*
X96242095Y-97766000D01*
X96194476Y-97813619D01*
X96146857Y-97908857D01*
X96146857Y-98051714D01*
X96194476Y-98146952D01*
X96242095Y-98194571D01*
X96337333Y-98242190D01*
X96718286Y-98242190D01*
X95813524Y-97718381D02*
X95194476Y-97718381D01*
X95527810Y-98099333D01*
X95384952Y-98099333D01*
X95289714Y-98146952D01*
X95242095Y-98194571D01*
X95194476Y-98289810D01*
X95194476Y-98527905D01*
X95242095Y-98623143D01*
X95289714Y-98670762D01*
X95384952Y-98718381D01*
X95670667Y-98718381D01*
X95765905Y-98670762D01*
X95813524Y-98623143D01*
X94242095Y-98718381D02*
X94813524Y-98718381D01*
X94527810Y-98718381D02*
X94527810Y-97718381D01*
X94623048Y-97861238D01*
X94718286Y-97956476D01*
X94813524Y-98004095D01*
X108608857Y-63412381D02*
X108942191Y-62936190D01*
X109180286Y-63412381D02*
X109180286Y-62412381D01*
X108799333Y-62412381D01*
X108704095Y-62460000D01*
X108656476Y-62507619D01*
X108608857Y-62602857D01*
X108608857Y-62745714D01*
X108656476Y-62840952D01*
X108704095Y-62888571D01*
X108799333Y-62936190D01*
X109180286Y-62936190D01*
X108275524Y-62412381D02*
X107656476Y-62412381D01*
X107989810Y-62793333D01*
X107846952Y-62793333D01*
X107751714Y-62840952D01*
X107704095Y-62888571D01*
X107656476Y-62983810D01*
X107656476Y-63221905D01*
X107704095Y-63317143D01*
X107751714Y-63364762D01*
X107846952Y-63412381D01*
X108132667Y-63412381D01*
X108227905Y-63364762D01*
X108275524Y-63317143D01*
X107037429Y-62412381D02*
X106942190Y-62412381D01*
X106846952Y-62460000D01*
X106799333Y-62507619D01*
X106751714Y-62602857D01*
X106704095Y-62793333D01*
X106704095Y-63031429D01*
X106751714Y-63221905D01*
X106799333Y-63317143D01*
X106846952Y-63364762D01*
X106942190Y-63412381D01*
X107037429Y-63412381D01*
X107132667Y-63364762D01*
X107180286Y-63317143D01*
X107227905Y-63221905D01*
X107275524Y-63031429D01*
X107275524Y-62793333D01*
X107227905Y-62602857D01*
X107180286Y-62507619D01*
X107132667Y-62460000D01*
X107037429Y-62412381D01*
X119086381Y-80605143D02*
X118610190Y-80271809D01*
X119086381Y-80033714D02*
X118086381Y-80033714D01*
X118086381Y-80414667D01*
X118134000Y-80509905D01*
X118181619Y-80557524D01*
X118276857Y-80605143D01*
X118419714Y-80605143D01*
X118514952Y-80557524D01*
X118562571Y-80509905D01*
X118610190Y-80414667D01*
X118610190Y-80033714D01*
X118181619Y-80986095D02*
X118134000Y-81033714D01*
X118086381Y-81128952D01*
X118086381Y-81367048D01*
X118134000Y-81462286D01*
X118181619Y-81509905D01*
X118276857Y-81557524D01*
X118372095Y-81557524D01*
X118514952Y-81509905D01*
X119086381Y-80938476D01*
X119086381Y-81557524D01*
X119086381Y-82033714D02*
X119086381Y-82224190D01*
X119038762Y-82319429D01*
X118991143Y-82367048D01*
X118848286Y-82462286D01*
X118657810Y-82509905D01*
X118276857Y-82509905D01*
X118181619Y-82462286D01*
X118134000Y-82414667D01*
X118086381Y-82319429D01*
X118086381Y-82128952D01*
X118134000Y-82033714D01*
X118181619Y-81986095D01*
X118276857Y-81938476D01*
X118514952Y-81938476D01*
X118610190Y-81986095D01*
X118657810Y-82033714D01*
X118705429Y-82128952D01*
X118705429Y-82319429D01*
X118657810Y-82414667D01*
X118610190Y-82462286D01*
X118514952Y-82509905D01*
X102908381Y-80605143D02*
X102432190Y-80271809D01*
X102908381Y-80033714D02*
X101908381Y-80033714D01*
X101908381Y-80414667D01*
X101956000Y-80509905D01*
X102003619Y-80557524D01*
X102098857Y-80605143D01*
X102241714Y-80605143D01*
X102336952Y-80557524D01*
X102384571Y-80509905D01*
X102432190Y-80414667D01*
X102432190Y-80033714D01*
X102003619Y-80986095D02*
X101956000Y-81033714D01*
X101908381Y-81128952D01*
X101908381Y-81367048D01*
X101956000Y-81462286D01*
X102003619Y-81509905D01*
X102098857Y-81557524D01*
X102194095Y-81557524D01*
X102336952Y-81509905D01*
X102908381Y-80938476D01*
X102908381Y-81557524D01*
X102336952Y-82128952D02*
X102289333Y-82033714D01*
X102241714Y-81986095D01*
X102146476Y-81938476D01*
X102098857Y-81938476D01*
X102003619Y-81986095D01*
X101956000Y-82033714D01*
X101908381Y-82128952D01*
X101908381Y-82319429D01*
X101956000Y-82414667D01*
X102003619Y-82462286D01*
X102098857Y-82509905D01*
X102146476Y-82509905D01*
X102241714Y-82462286D01*
X102289333Y-82414667D01*
X102336952Y-82319429D01*
X102336952Y-82128952D01*
X102384571Y-82033714D01*
X102432190Y-81986095D01*
X102527429Y-81938476D01*
X102717905Y-81938476D01*
X102813143Y-81986095D01*
X102860762Y-82033714D01*
X102908381Y-82128952D01*
X102908381Y-82319429D01*
X102860762Y-82414667D01*
X102813143Y-82462286D01*
X102717905Y-82509905D01*
X102527429Y-82509905D01*
X102432190Y-82462286D01*
X102384571Y-82414667D01*
X102336952Y-82319429D01*
X103766857Y-93638381D02*
X104100191Y-93162190D01*
X104338286Y-93638381D02*
X104338286Y-92638381D01*
X103957333Y-92638381D01*
X103862095Y-92686000D01*
X103814476Y-92733619D01*
X103766857Y-92828857D01*
X103766857Y-92971714D01*
X103814476Y-93066952D01*
X103862095Y-93114571D01*
X103957333Y-93162190D01*
X104338286Y-93162190D01*
X103385905Y-92733619D02*
X103338286Y-92686000D01*
X103243048Y-92638381D01*
X103004952Y-92638381D01*
X102909714Y-92686000D01*
X102862095Y-92733619D01*
X102814476Y-92828857D01*
X102814476Y-92924095D01*
X102862095Y-93066952D01*
X103433524Y-93638381D01*
X102814476Y-93638381D01*
X102481143Y-92638381D02*
X101814476Y-92638381D01*
X102243048Y-93638381D01*
X96146857Y-93638381D02*
X96480191Y-93162190D01*
X96718286Y-93638381D02*
X96718286Y-92638381D01*
X96337333Y-92638381D01*
X96242095Y-92686000D01*
X96194476Y-92733619D01*
X96146857Y-92828857D01*
X96146857Y-92971714D01*
X96194476Y-93066952D01*
X96242095Y-93114571D01*
X96337333Y-93162190D01*
X96718286Y-93162190D01*
X95765905Y-92733619D02*
X95718286Y-92686000D01*
X95623048Y-92638381D01*
X95384952Y-92638381D01*
X95289714Y-92686000D01*
X95242095Y-92733619D01*
X95194476Y-92828857D01*
X95194476Y-92924095D01*
X95242095Y-93066952D01*
X95813524Y-93638381D01*
X95194476Y-93638381D01*
X94337333Y-92638381D02*
X94527810Y-92638381D01*
X94623048Y-92686000D01*
X94670667Y-92733619D01*
X94765905Y-92876476D01*
X94813524Y-93066952D01*
X94813524Y-93447905D01*
X94765905Y-93543143D01*
X94718286Y-93590762D01*
X94623048Y-93638381D01*
X94432571Y-93638381D01*
X94337333Y-93590762D01*
X94289714Y-93543143D01*
X94242095Y-93447905D01*
X94242095Y-93209810D01*
X94289714Y-93114571D01*
X94337333Y-93066952D01*
X94432571Y-93019333D01*
X94623048Y-93019333D01*
X94718286Y-93066952D01*
X94765905Y-93114571D01*
X94813524Y-93209810D01*
X89034857Y-78398381D02*
X89368191Y-77922190D01*
X89606286Y-78398381D02*
X89606286Y-77398381D01*
X89225333Y-77398381D01*
X89130095Y-77446000D01*
X89082476Y-77493619D01*
X89034857Y-77588857D01*
X89034857Y-77731714D01*
X89082476Y-77826952D01*
X89130095Y-77874571D01*
X89225333Y-77922190D01*
X89606286Y-77922190D01*
X88653905Y-77493619D02*
X88606286Y-77446000D01*
X88511048Y-77398381D01*
X88272952Y-77398381D01*
X88177714Y-77446000D01*
X88130095Y-77493619D01*
X88082476Y-77588857D01*
X88082476Y-77684095D01*
X88130095Y-77826952D01*
X88701524Y-78398381D01*
X88082476Y-78398381D01*
X87177714Y-77398381D02*
X87653905Y-77398381D01*
X87701524Y-77874571D01*
X87653905Y-77826952D01*
X87558667Y-77779333D01*
X87320571Y-77779333D01*
X87225333Y-77826952D01*
X87177714Y-77874571D01*
X87130095Y-77969810D01*
X87130095Y-78207905D01*
X87177714Y-78303143D01*
X87225333Y-78350762D01*
X87320571Y-78398381D01*
X87558667Y-78398381D01*
X87653905Y-78350762D01*
X87701524Y-78303143D01*
X87510857Y-63412381D02*
X87844191Y-62936190D01*
X88082286Y-63412381D02*
X88082286Y-62412381D01*
X87701333Y-62412381D01*
X87606095Y-62460000D01*
X87558476Y-62507619D01*
X87510857Y-62602857D01*
X87510857Y-62745714D01*
X87558476Y-62840952D01*
X87606095Y-62888571D01*
X87701333Y-62936190D01*
X88082286Y-62936190D01*
X87129905Y-62507619D02*
X87082286Y-62460000D01*
X86987048Y-62412381D01*
X86748952Y-62412381D01*
X86653714Y-62460000D01*
X86606095Y-62507619D01*
X86558476Y-62602857D01*
X86558476Y-62698095D01*
X86606095Y-62840952D01*
X87177524Y-63412381D01*
X86558476Y-63412381D01*
X85701333Y-62745714D02*
X85701333Y-63412381D01*
X85939429Y-62364762D02*
X86177524Y-63079048D01*
X85558476Y-63079048D01*
X66174857Y-103720381D02*
X66508191Y-103244190D01*
X66746286Y-103720381D02*
X66746286Y-102720381D01*
X66365333Y-102720381D01*
X66270095Y-102768000D01*
X66222476Y-102815619D01*
X66174857Y-102910857D01*
X66174857Y-103053714D01*
X66222476Y-103148952D01*
X66270095Y-103196571D01*
X66365333Y-103244190D01*
X66746286Y-103244190D01*
X65793905Y-102815619D02*
X65746286Y-102768000D01*
X65651048Y-102720381D01*
X65412952Y-102720381D01*
X65317714Y-102768000D01*
X65270095Y-102815619D01*
X65222476Y-102910857D01*
X65222476Y-103006095D01*
X65270095Y-103148952D01*
X65841524Y-103720381D01*
X65222476Y-103720381D01*
X64889143Y-102720381D02*
X64270095Y-102720381D01*
X64603429Y-103101333D01*
X64460571Y-103101333D01*
X64365333Y-103148952D01*
X64317714Y-103196571D01*
X64270095Y-103291810D01*
X64270095Y-103529905D01*
X64317714Y-103625143D01*
X64365333Y-103672762D01*
X64460571Y-103720381D01*
X64746286Y-103720381D01*
X64841524Y-103672762D01*
X64889143Y-103625143D01*
X81414857Y-78398381D02*
X81748191Y-77922190D01*
X81986286Y-78398381D02*
X81986286Y-77398381D01*
X81605333Y-77398381D01*
X81510095Y-77446000D01*
X81462476Y-77493619D01*
X81414857Y-77588857D01*
X81414857Y-77731714D01*
X81462476Y-77826952D01*
X81510095Y-77874571D01*
X81605333Y-77922190D01*
X81986286Y-77922190D01*
X81033905Y-77493619D02*
X80986286Y-77446000D01*
X80891048Y-77398381D01*
X80652952Y-77398381D01*
X80557714Y-77446000D01*
X80510095Y-77493619D01*
X80462476Y-77588857D01*
X80462476Y-77684095D01*
X80510095Y-77826952D01*
X81081524Y-78398381D01*
X80462476Y-78398381D01*
X80081524Y-77493619D02*
X80033905Y-77446000D01*
X79938667Y-77398381D01*
X79700571Y-77398381D01*
X79605333Y-77446000D01*
X79557714Y-77493619D01*
X79510095Y-77588857D01*
X79510095Y-77684095D01*
X79557714Y-77826952D01*
X80129143Y-78398381D01*
X79510095Y-78398381D01*
X73794857Y-103720381D02*
X74128191Y-103244190D01*
X74366286Y-103720381D02*
X74366286Y-102720381D01*
X73985333Y-102720381D01*
X73890095Y-102768000D01*
X73842476Y-102815619D01*
X73794857Y-102910857D01*
X73794857Y-103053714D01*
X73842476Y-103148952D01*
X73890095Y-103196571D01*
X73985333Y-103244190D01*
X74366286Y-103244190D01*
X73413905Y-102815619D02*
X73366286Y-102768000D01*
X73271048Y-102720381D01*
X73032952Y-102720381D01*
X72937714Y-102768000D01*
X72890095Y-102815619D01*
X72842476Y-102910857D01*
X72842476Y-103006095D01*
X72890095Y-103148952D01*
X73461524Y-103720381D01*
X72842476Y-103720381D01*
X71890095Y-103720381D02*
X72461524Y-103720381D01*
X72175810Y-103720381D02*
X72175810Y-102720381D01*
X72271048Y-102863238D01*
X72366286Y-102958476D01*
X72461524Y-103006095D01*
X82430857Y-63412381D02*
X82764191Y-62936190D01*
X83002286Y-63412381D02*
X83002286Y-62412381D01*
X82621333Y-62412381D01*
X82526095Y-62460000D01*
X82478476Y-62507619D01*
X82430857Y-62602857D01*
X82430857Y-62745714D01*
X82478476Y-62840952D01*
X82526095Y-62888571D01*
X82621333Y-62936190D01*
X83002286Y-62936190D01*
X82049905Y-62507619D02*
X82002286Y-62460000D01*
X81907048Y-62412381D01*
X81668952Y-62412381D01*
X81573714Y-62460000D01*
X81526095Y-62507619D01*
X81478476Y-62602857D01*
X81478476Y-62698095D01*
X81526095Y-62840952D01*
X82097524Y-63412381D01*
X81478476Y-63412381D01*
X80859429Y-62412381D02*
X80764190Y-62412381D01*
X80668952Y-62460000D01*
X80621333Y-62507619D01*
X80573714Y-62602857D01*
X80526095Y-62793333D01*
X80526095Y-63031429D01*
X80573714Y-63221905D01*
X80621333Y-63317143D01*
X80668952Y-63364762D01*
X80764190Y-63412381D01*
X80859429Y-63412381D01*
X80954667Y-63364762D01*
X81002286Y-63317143D01*
X81049905Y-63221905D01*
X81097524Y-63031429D01*
X81097524Y-62793333D01*
X81049905Y-62602857D01*
X81002286Y-62507619D01*
X80954667Y-62460000D01*
X80859429Y-62412381D01*
X93162381Y-80605143D02*
X92686190Y-80271809D01*
X93162381Y-80033714D02*
X92162381Y-80033714D01*
X92162381Y-80414667D01*
X92210000Y-80509905D01*
X92257619Y-80557524D01*
X92352857Y-80605143D01*
X92495714Y-80605143D01*
X92590952Y-80557524D01*
X92638571Y-80509905D01*
X92686190Y-80414667D01*
X92686190Y-80033714D01*
X93162381Y-81557524D02*
X93162381Y-80986095D01*
X93162381Y-81271809D02*
X92162381Y-81271809D01*
X92305238Y-81176571D01*
X92400476Y-81081333D01*
X92448095Y-80986095D01*
X93162381Y-82033714D02*
X93162381Y-82224190D01*
X93114762Y-82319429D01*
X93067143Y-82367048D01*
X92924286Y-82462286D01*
X92733810Y-82509905D01*
X92352857Y-82509905D01*
X92257619Y-82462286D01*
X92210000Y-82414667D01*
X92162381Y-82319429D01*
X92162381Y-82128952D01*
X92210000Y-82033714D01*
X92257619Y-81986095D01*
X92352857Y-81938476D01*
X92590952Y-81938476D01*
X92686190Y-81986095D01*
X92733810Y-82033714D01*
X92781429Y-82128952D01*
X92781429Y-82319429D01*
X92733810Y-82414667D01*
X92686190Y-82462286D01*
X92590952Y-82509905D01*
X76984381Y-80605143D02*
X76508190Y-80271809D01*
X76984381Y-80033714D02*
X75984381Y-80033714D01*
X75984381Y-80414667D01*
X76032000Y-80509905D01*
X76079619Y-80557524D01*
X76174857Y-80605143D01*
X76317714Y-80605143D01*
X76412952Y-80557524D01*
X76460571Y-80509905D01*
X76508190Y-80414667D01*
X76508190Y-80033714D01*
X76984381Y-81557524D02*
X76984381Y-80986095D01*
X76984381Y-81271809D02*
X75984381Y-81271809D01*
X76127238Y-81176571D01*
X76222476Y-81081333D01*
X76270095Y-80986095D01*
X76412952Y-82128952D02*
X76365333Y-82033714D01*
X76317714Y-81986095D01*
X76222476Y-81938476D01*
X76174857Y-81938476D01*
X76079619Y-81986095D01*
X76032000Y-82033714D01*
X75984381Y-82128952D01*
X75984381Y-82319429D01*
X76032000Y-82414667D01*
X76079619Y-82462286D01*
X76174857Y-82509905D01*
X76222476Y-82509905D01*
X76317714Y-82462286D01*
X76365333Y-82414667D01*
X76412952Y-82319429D01*
X76412952Y-82128952D01*
X76460571Y-82033714D01*
X76508190Y-81986095D01*
X76603429Y-81938476D01*
X76793905Y-81938476D01*
X76889143Y-81986095D01*
X76936762Y-82033714D01*
X76984381Y-82128952D01*
X76984381Y-82319429D01*
X76936762Y-82414667D01*
X76889143Y-82462286D01*
X76793905Y-82509905D01*
X76603429Y-82509905D01*
X76508190Y-82462286D01*
X76460571Y-82414667D01*
X76412952Y-82319429D01*
X66174857Y-93560381D02*
X66508191Y-93084190D01*
X66746286Y-93560381D02*
X66746286Y-92560381D01*
X66365333Y-92560381D01*
X66270095Y-92608000D01*
X66222476Y-92655619D01*
X66174857Y-92750857D01*
X66174857Y-92893714D01*
X66222476Y-92988952D01*
X66270095Y-93036571D01*
X66365333Y-93084190D01*
X66746286Y-93084190D01*
X65222476Y-93560381D02*
X65793905Y-93560381D01*
X65508191Y-93560381D02*
X65508191Y-92560381D01*
X65603429Y-92703238D01*
X65698667Y-92798476D01*
X65793905Y-92846095D01*
X64889143Y-92560381D02*
X64222476Y-92560381D01*
X64651048Y-93560381D01*
X73794857Y-93560381D02*
X74128191Y-93084190D01*
X74366286Y-93560381D02*
X74366286Y-92560381D01*
X73985333Y-92560381D01*
X73890095Y-92608000D01*
X73842476Y-92655619D01*
X73794857Y-92750857D01*
X73794857Y-92893714D01*
X73842476Y-92988952D01*
X73890095Y-93036571D01*
X73985333Y-93084190D01*
X74366286Y-93084190D01*
X72842476Y-93560381D02*
X73413905Y-93560381D01*
X73128191Y-93560381D02*
X73128191Y-92560381D01*
X73223429Y-92703238D01*
X73318667Y-92798476D01*
X73413905Y-92846095D01*
X71985333Y-92560381D02*
X72175810Y-92560381D01*
X72271048Y-92608000D01*
X72318667Y-92655619D01*
X72413905Y-92798476D01*
X72461524Y-92988952D01*
X72461524Y-93369905D01*
X72413905Y-93465143D01*
X72366286Y-93512762D01*
X72271048Y-93560381D01*
X72080571Y-93560381D01*
X71985333Y-93512762D01*
X71937714Y-93465143D01*
X71890095Y-93369905D01*
X71890095Y-93131810D01*
X71937714Y-93036571D01*
X71985333Y-92988952D01*
X72080571Y-92941333D01*
X72271048Y-92941333D01*
X72366286Y-92988952D01*
X72413905Y-93036571D01*
X72461524Y-93131810D01*
X62602857Y-78398381D02*
X62936191Y-77922190D01*
X63174286Y-78398381D02*
X63174286Y-77398381D01*
X62793333Y-77398381D01*
X62698095Y-77446000D01*
X62650476Y-77493619D01*
X62602857Y-77588857D01*
X62602857Y-77731714D01*
X62650476Y-77826952D01*
X62698095Y-77874571D01*
X62793333Y-77922190D01*
X63174286Y-77922190D01*
X61650476Y-78398381D02*
X62221905Y-78398381D01*
X61936191Y-78398381D02*
X61936191Y-77398381D01*
X62031429Y-77541238D01*
X62126667Y-77636476D01*
X62221905Y-77684095D01*
X60745714Y-77398381D02*
X61221905Y-77398381D01*
X61269524Y-77874571D01*
X61221905Y-77826952D01*
X61126667Y-77779333D01*
X60888571Y-77779333D01*
X60793333Y-77826952D01*
X60745714Y-77874571D01*
X60698095Y-77969810D01*
X60698095Y-78207905D01*
X60745714Y-78303143D01*
X60793333Y-78350762D01*
X60888571Y-78398381D01*
X61126667Y-78398381D01*
X61221905Y-78350762D01*
X61269524Y-78303143D01*
X61078857Y-63412381D02*
X61412191Y-62936190D01*
X61650286Y-63412381D02*
X61650286Y-62412381D01*
X61269333Y-62412381D01*
X61174095Y-62460000D01*
X61126476Y-62507619D01*
X61078857Y-62602857D01*
X61078857Y-62745714D01*
X61126476Y-62840952D01*
X61174095Y-62888571D01*
X61269333Y-62936190D01*
X61650286Y-62936190D01*
X60126476Y-63412381D02*
X60697905Y-63412381D01*
X60412191Y-63412381D02*
X60412191Y-62412381D01*
X60507429Y-62555238D01*
X60602667Y-62650476D01*
X60697905Y-62698095D01*
X59269333Y-62745714D02*
X59269333Y-63412381D01*
X59507429Y-62364762D02*
X59745524Y-63079048D01*
X59126476Y-63079048D01*
X66174857Y-98640381D02*
X66508191Y-98164190D01*
X66746286Y-98640381D02*
X66746286Y-97640381D01*
X66365333Y-97640381D01*
X66270095Y-97688000D01*
X66222476Y-97735619D01*
X66174857Y-97830857D01*
X66174857Y-97973714D01*
X66222476Y-98068952D01*
X66270095Y-98116571D01*
X66365333Y-98164190D01*
X66746286Y-98164190D01*
X65222476Y-98640381D02*
X65793905Y-98640381D01*
X65508191Y-98640381D02*
X65508191Y-97640381D01*
X65603429Y-97783238D01*
X65698667Y-97878476D01*
X65793905Y-97926095D01*
X64889143Y-97640381D02*
X64270095Y-97640381D01*
X64603429Y-98021333D01*
X64460571Y-98021333D01*
X64365333Y-98068952D01*
X64317714Y-98116571D01*
X64270095Y-98211810D01*
X64270095Y-98449905D01*
X64317714Y-98545143D01*
X64365333Y-98592762D01*
X64460571Y-98640381D01*
X64746286Y-98640381D01*
X64841524Y-98592762D01*
X64889143Y-98545143D01*
X54728857Y-78398381D02*
X55062191Y-77922190D01*
X55300286Y-78398381D02*
X55300286Y-77398381D01*
X54919333Y-77398381D01*
X54824095Y-77446000D01*
X54776476Y-77493619D01*
X54728857Y-77588857D01*
X54728857Y-77731714D01*
X54776476Y-77826952D01*
X54824095Y-77874571D01*
X54919333Y-77922190D01*
X55300286Y-77922190D01*
X53776476Y-78398381D02*
X54347905Y-78398381D01*
X54062191Y-78398381D02*
X54062191Y-77398381D01*
X54157429Y-77541238D01*
X54252667Y-77636476D01*
X54347905Y-77684095D01*
X53395524Y-77493619D02*
X53347905Y-77446000D01*
X53252667Y-77398381D01*
X53014571Y-77398381D01*
X52919333Y-77446000D01*
X52871714Y-77493619D01*
X52824095Y-77588857D01*
X52824095Y-77684095D01*
X52871714Y-77826952D01*
X53443143Y-78398381D01*
X52824095Y-78398381D01*
X73794857Y-98640381D02*
X74128191Y-98164190D01*
X74366286Y-98640381D02*
X74366286Y-97640381D01*
X73985333Y-97640381D01*
X73890095Y-97688000D01*
X73842476Y-97735619D01*
X73794857Y-97830857D01*
X73794857Y-97973714D01*
X73842476Y-98068952D01*
X73890095Y-98116571D01*
X73985333Y-98164190D01*
X74366286Y-98164190D01*
X72842476Y-98640381D02*
X73413905Y-98640381D01*
X73128191Y-98640381D02*
X73128191Y-97640381D01*
X73223429Y-97783238D01*
X73318667Y-97878476D01*
X73413905Y-97926095D01*
X71890095Y-98640381D02*
X72461524Y-98640381D01*
X72175810Y-98640381D02*
X72175810Y-97640381D01*
X72271048Y-97783238D01*
X72366286Y-97878476D01*
X72461524Y-97926095D01*
X55998857Y-63412381D02*
X56332191Y-62936190D01*
X56570286Y-63412381D02*
X56570286Y-62412381D01*
X56189333Y-62412381D01*
X56094095Y-62460000D01*
X56046476Y-62507619D01*
X55998857Y-62602857D01*
X55998857Y-62745714D01*
X56046476Y-62840952D01*
X56094095Y-62888571D01*
X56189333Y-62936190D01*
X56570286Y-62936190D01*
X55046476Y-63412381D02*
X55617905Y-63412381D01*
X55332191Y-63412381D02*
X55332191Y-62412381D01*
X55427429Y-62555238D01*
X55522667Y-62650476D01*
X55617905Y-62698095D01*
X54427429Y-62412381D02*
X54332190Y-62412381D01*
X54236952Y-62460000D01*
X54189333Y-62507619D01*
X54141714Y-62602857D01*
X54094095Y-62793333D01*
X54094095Y-63031429D01*
X54141714Y-63221905D01*
X54189333Y-63317143D01*
X54236952Y-63364762D01*
X54332190Y-63412381D01*
X54427429Y-63412381D01*
X54522667Y-63364762D01*
X54570286Y-63317143D01*
X54617905Y-63221905D01*
X54665524Y-63031429D01*
X54665524Y-62793333D01*
X54617905Y-62602857D01*
X54570286Y-62507619D01*
X54522667Y-62460000D01*
X54427429Y-62412381D01*
X66222381Y-81081334D02*
X65746190Y-80748000D01*
X66222381Y-80509905D02*
X65222381Y-80509905D01*
X65222381Y-80890858D01*
X65270000Y-80986096D01*
X65317619Y-81033715D01*
X65412857Y-81081334D01*
X65555714Y-81081334D01*
X65650952Y-81033715D01*
X65698571Y-80986096D01*
X65746190Y-80890858D01*
X65746190Y-80509905D01*
X66222381Y-81557524D02*
X66222381Y-81748000D01*
X66174762Y-81843239D01*
X66127143Y-81890858D01*
X65984286Y-81986096D01*
X65793810Y-82033715D01*
X65412857Y-82033715D01*
X65317619Y-81986096D01*
X65270000Y-81938477D01*
X65222381Y-81843239D01*
X65222381Y-81652762D01*
X65270000Y-81557524D01*
X65317619Y-81509905D01*
X65412857Y-81462286D01*
X65650952Y-81462286D01*
X65746190Y-81509905D01*
X65793810Y-81557524D01*
X65841429Y-81652762D01*
X65841429Y-81843239D01*
X65793810Y-81938477D01*
X65746190Y-81986096D01*
X65650952Y-82033715D01*
X50536381Y-81081334D02*
X50060190Y-80748000D01*
X50536381Y-80509905D02*
X49536381Y-80509905D01*
X49536381Y-80890858D01*
X49584000Y-80986096D01*
X49631619Y-81033715D01*
X49726857Y-81081334D01*
X49869714Y-81081334D01*
X49964952Y-81033715D01*
X50012571Y-80986096D01*
X50060190Y-80890858D01*
X50060190Y-80509905D01*
X49964952Y-81652762D02*
X49917333Y-81557524D01*
X49869714Y-81509905D01*
X49774476Y-81462286D01*
X49726857Y-81462286D01*
X49631619Y-81509905D01*
X49584000Y-81557524D01*
X49536381Y-81652762D01*
X49536381Y-81843239D01*
X49584000Y-81938477D01*
X49631619Y-81986096D01*
X49726857Y-82033715D01*
X49774476Y-82033715D01*
X49869714Y-81986096D01*
X49917333Y-81938477D01*
X49964952Y-81843239D01*
X49964952Y-81652762D01*
X50012571Y-81557524D01*
X50060190Y-81509905D01*
X50155429Y-81462286D01*
X50345905Y-81462286D01*
X50441143Y-81509905D01*
X50488762Y-81557524D01*
X50536381Y-81652762D01*
X50536381Y-81843239D01*
X50488762Y-81938477D01*
X50441143Y-81986096D01*
X50345905Y-82033715D01*
X50155429Y-82033715D01*
X50060190Y-81986096D01*
X50012571Y-81938477D01*
X49964952Y-81843239D01*
X104052666Y-46902381D02*
X104386000Y-46426190D01*
X104624095Y-46902381D02*
X104624095Y-45902381D01*
X104243142Y-45902381D01*
X104147904Y-45950000D01*
X104100285Y-45997619D01*
X104052666Y-46092857D01*
X104052666Y-46235714D01*
X104100285Y-46330952D01*
X104147904Y-46378571D01*
X104243142Y-46426190D01*
X104624095Y-46426190D01*
X103719333Y-45902381D02*
X103052666Y-45902381D01*
X103481238Y-46902381D01*
X83224666Y-46902381D02*
X83558000Y-46426190D01*
X83796095Y-46902381D02*
X83796095Y-45902381D01*
X83415142Y-45902381D01*
X83319904Y-45950000D01*
X83272285Y-45997619D01*
X83224666Y-46092857D01*
X83224666Y-46235714D01*
X83272285Y-46330952D01*
X83319904Y-46378571D01*
X83415142Y-46426190D01*
X83796095Y-46426190D01*
X82319904Y-45902381D02*
X82796095Y-45902381D01*
X82843714Y-46378571D01*
X82796095Y-46330952D01*
X82700857Y-46283333D01*
X82462761Y-46283333D01*
X82367523Y-46330952D01*
X82319904Y-46378571D01*
X82272285Y-46473810D01*
X82272285Y-46711905D01*
X82319904Y-46807143D01*
X82367523Y-46854762D01*
X82462761Y-46902381D01*
X82700857Y-46902381D01*
X82796095Y-46854762D01*
X82843714Y-46807143D01*
X75812381Y-50585334D02*
X75336190Y-50252000D01*
X75812381Y-50013905D02*
X74812381Y-50013905D01*
X74812381Y-50394858D01*
X74860000Y-50490096D01*
X74907619Y-50537715D01*
X75002857Y-50585334D01*
X75145714Y-50585334D01*
X75240952Y-50537715D01*
X75288571Y-50490096D01*
X75336190Y-50394858D01*
X75336190Y-50013905D01*
X75145714Y-51442477D02*
X75812381Y-51442477D01*
X74764762Y-51204381D02*
X75479048Y-50966286D01*
X75479048Y-51585334D01*
X66062381Y-50585334D02*
X65586190Y-50252000D01*
X66062381Y-50013905D02*
X65062381Y-50013905D01*
X65062381Y-50394858D01*
X65110000Y-50490096D01*
X65157619Y-50537715D01*
X65252857Y-50585334D01*
X65395714Y-50585334D01*
X65490952Y-50537715D01*
X65538571Y-50490096D01*
X65586190Y-50394858D01*
X65586190Y-50013905D01*
X66062381Y-51537715D02*
X66062381Y-50966286D01*
X66062381Y-51252000D02*
X65062381Y-51252000D01*
X65205238Y-51156762D01*
X65300476Y-51061524D01*
X65348095Y-50966286D01*
X99639333Y-46378571D02*
X99972667Y-46378571D01*
X99972667Y-46902381D02*
X99972667Y-45902381D01*
X99496476Y-45902381D01*
X98782190Y-46378571D02*
X98639333Y-46426190D01*
X98591714Y-46473810D01*
X98544095Y-46569048D01*
X98544095Y-46711905D01*
X98591714Y-46807143D01*
X98639333Y-46854762D01*
X98734571Y-46902381D01*
X99115524Y-46902381D01*
X99115524Y-45902381D01*
X98782190Y-45902381D01*
X98686952Y-45950000D01*
X98639333Y-45997619D01*
X98591714Y-46092857D01*
X98591714Y-46188095D01*
X98639333Y-46283333D01*
X98686952Y-46330952D01*
X98782190Y-46378571D01*
X99115524Y-46378571D01*
X97686952Y-45902381D02*
X97877429Y-45902381D01*
X97972667Y-45950000D01*
X98020286Y-45997619D01*
X98115524Y-46140476D01*
X98163143Y-46330952D01*
X98163143Y-46711905D01*
X98115524Y-46807143D01*
X98067905Y-46854762D01*
X97972667Y-46902381D01*
X97782190Y-46902381D01*
X97686952Y-46854762D01*
X97639333Y-46807143D01*
X97591714Y-46711905D01*
X97591714Y-46473810D01*
X97639333Y-46378571D01*
X97686952Y-46330952D01*
X97782190Y-46283333D01*
X97972667Y-46283333D01*
X98067905Y-46330952D01*
X98115524Y-46378571D01*
X98163143Y-46473810D01*
X109799333Y-46378571D02*
X110132667Y-46378571D01*
X110132667Y-46902381D02*
X110132667Y-45902381D01*
X109656476Y-45902381D01*
X108942190Y-46378571D02*
X108799333Y-46426190D01*
X108751714Y-46473810D01*
X108704095Y-46569048D01*
X108704095Y-46711905D01*
X108751714Y-46807143D01*
X108799333Y-46854762D01*
X108894571Y-46902381D01*
X109275524Y-46902381D01*
X109275524Y-45902381D01*
X108942190Y-45902381D01*
X108846952Y-45950000D01*
X108799333Y-45997619D01*
X108751714Y-46092857D01*
X108751714Y-46188095D01*
X108799333Y-46283333D01*
X108846952Y-46330952D01*
X108942190Y-46378571D01*
X109275524Y-46378571D01*
X107799333Y-45902381D02*
X108275524Y-45902381D01*
X108323143Y-46378571D01*
X108275524Y-46330952D01*
X108180286Y-46283333D01*
X107942190Y-46283333D01*
X107846952Y-46330952D01*
X107799333Y-46378571D01*
X107751714Y-46473810D01*
X107751714Y-46711905D01*
X107799333Y-46807143D01*
X107846952Y-46854762D01*
X107942190Y-46902381D01*
X108180286Y-46902381D01*
X108275524Y-46854762D01*
X108323143Y-46807143D01*
X78811333Y-46378571D02*
X79144667Y-46378571D01*
X79144667Y-46902381D02*
X79144667Y-45902381D01*
X78668476Y-45902381D01*
X77954190Y-46378571D02*
X77811333Y-46426190D01*
X77763714Y-46473810D01*
X77716095Y-46569048D01*
X77716095Y-46711905D01*
X77763714Y-46807143D01*
X77811333Y-46854762D01*
X77906571Y-46902381D01*
X78287524Y-46902381D01*
X78287524Y-45902381D01*
X77954190Y-45902381D01*
X77858952Y-45950000D01*
X77811333Y-45997619D01*
X77763714Y-46092857D01*
X77763714Y-46188095D01*
X77811333Y-46283333D01*
X77858952Y-46330952D01*
X77954190Y-46378571D01*
X78287524Y-46378571D01*
X76858952Y-46235714D02*
X76858952Y-46902381D01*
X77097048Y-45854762D02*
X77335143Y-46569048D01*
X76716095Y-46569048D01*
X53157333Y-46378571D02*
X53490667Y-46378571D01*
X53490667Y-46902381D02*
X53490667Y-45902381D01*
X53014476Y-45902381D01*
X52300190Y-46378571D02*
X52157333Y-46426190D01*
X52109714Y-46473810D01*
X52062095Y-46569048D01*
X52062095Y-46711905D01*
X52109714Y-46807143D01*
X52157333Y-46854762D01*
X52252571Y-46902381D01*
X52633524Y-46902381D01*
X52633524Y-45902381D01*
X52300190Y-45902381D01*
X52204952Y-45950000D01*
X52157333Y-45997619D01*
X52109714Y-46092857D01*
X52109714Y-46188095D01*
X52157333Y-46283333D01*
X52204952Y-46330952D01*
X52300190Y-46378571D01*
X52633524Y-46378571D01*
X51728762Y-45902381D02*
X51109714Y-45902381D01*
X51443048Y-46283333D01*
X51300190Y-46283333D01*
X51204952Y-46330952D01*
X51157333Y-46378571D01*
X51109714Y-46473810D01*
X51109714Y-46711905D01*
X51157333Y-46807143D01*
X51204952Y-46854762D01*
X51300190Y-46902381D01*
X51585905Y-46902381D01*
X51681143Y-46854762D01*
X51728762Y-46807143D01*
X89225333Y-46378571D02*
X89558667Y-46378571D01*
X89558667Y-46902381D02*
X89558667Y-45902381D01*
X89082476Y-45902381D01*
X88368190Y-46378571D02*
X88225333Y-46426190D01*
X88177714Y-46473810D01*
X88130095Y-46569048D01*
X88130095Y-46711905D01*
X88177714Y-46807143D01*
X88225333Y-46854762D01*
X88320571Y-46902381D01*
X88701524Y-46902381D01*
X88701524Y-45902381D01*
X88368190Y-45902381D01*
X88272952Y-45950000D01*
X88225333Y-45997619D01*
X88177714Y-46092857D01*
X88177714Y-46188095D01*
X88225333Y-46283333D01*
X88272952Y-46330952D01*
X88368190Y-46378571D01*
X88701524Y-46378571D01*
X87749143Y-45997619D02*
X87701524Y-45950000D01*
X87606286Y-45902381D01*
X87368190Y-45902381D01*
X87272952Y-45950000D01*
X87225333Y-45997619D01*
X87177714Y-46092857D01*
X87177714Y-46188095D01*
X87225333Y-46330952D01*
X87796762Y-46902381D01*
X87177714Y-46902381D01*
X59253333Y-46350571D02*
X59586667Y-46350571D01*
X59586667Y-46874381D02*
X59586667Y-45874381D01*
X59110476Y-45874381D01*
X58396190Y-46350571D02*
X58253333Y-46398190D01*
X58205714Y-46445810D01*
X58158095Y-46541048D01*
X58158095Y-46683905D01*
X58205714Y-46779143D01*
X58253333Y-46826762D01*
X58348571Y-46874381D01*
X58729524Y-46874381D01*
X58729524Y-45874381D01*
X58396190Y-45874381D01*
X58300952Y-45922000D01*
X58253333Y-45969619D01*
X58205714Y-46064857D01*
X58205714Y-46160095D01*
X58253333Y-46255333D01*
X58300952Y-46302952D01*
X58396190Y-46350571D01*
X58729524Y-46350571D01*
X57205714Y-46874381D02*
X57777143Y-46874381D01*
X57491429Y-46874381D02*
X57491429Y-45874381D01*
X57586667Y-46017238D01*
X57681905Y-46112476D01*
X57777143Y-46160095D01*
M02*
