M48
;DRILL file {KiCad 4.0.6-e0-6349~53~ubuntu16.04.1} date Sat Aug 19 19:16:53 2017
;FORMAT={-:-/ absolute / metric / decimal}
FMAT,2
METRIC,TZ
T1C0.700
T2C0.800
T3C1.000
T4C1.016
T5C1.100
T6C1.300
T7C1.400
T8C4.000
%
G90
G05
M71
T1
X45.466Y-78.2
X47.752Y-82.899
X49.911Y-64.484
X49.911Y-78.2
X57.658Y-149.193
X58.039Y-87.344
X58.039Y-92.043
X65.532Y-59.785
X65.786Y-64.484
X65.913Y-78.2
X68.58Y-147.542
X68.58Y-150.971
X69.342Y-91.408
X69.342Y-101.568
X69.393Y-96.488
X74.93Y-59.785
X76.327Y-78.2
X78.867Y-144.78
X79.654Y-55.391
X88.775Y-84.328
X91.694Y-46.958
X91.694Y-64.484
X92.837Y-78.2
X97.014Y-68.04
X98.552Y-85.725
X99.314Y-91.408
X99.314Y-93.948
X99.314Y-96.488
X99.314Y-99.028
X99.314Y-101.568
X99.822Y-147.415
X99.822Y-150.971
X101.854Y-78.2
X102.87Y-87.725
X103.614Y-64.484
X107.188Y-93.948
X107.188Y-99.028
X108.202Y-49.5
X108.202Y-57.243
X109.808Y-147.923
X109.855Y-150.844
X114.3Y-46.958
X118.618Y-78.2
T2
X51.562Y-49.53
X59.182Y-49.53
X62.88Y-49.46
X62.88Y-52.
X62.88Y-54.54
X62.88Y-57.08
X70.5Y-49.46
X70.5Y-52.
X70.5Y-54.54
X70.5Y-57.08
X80.772Y-88.868
X80.772Y-91.408
X80.772Y-93.948
X80.772Y-96.488
X80.772Y-99.028
X80.772Y-101.568
X80.772Y-104.108
X85.38Y-49.5
X85.38Y-57.12
X87.92Y-49.5
X87.92Y-57.12
X88.392Y-88.868
X88.392Y-91.408
X88.392Y-93.948
X88.392Y-96.488
X88.392Y-99.028
X88.392Y-101.568
X88.392Y-104.108
X90.46Y-49.5
X90.46Y-57.12
X93.Y-49.5
X93.Y-57.12
X95.54Y-49.5
X95.54Y-57.12
X98.08Y-49.5
X98.08Y-57.12
X100.62Y-49.5
X100.62Y-57.12
X103.16Y-49.5
X103.16Y-57.12
T3
X47.879Y-47.
X47.879Y-49.54
X47.879Y-52.08
X47.879Y-54.62
X47.879Y-57.16
X47.879Y-59.7
X55.5Y-68.
X55.5Y-82.5
X58.Y-82.5
X60.5Y-68.
X60.5Y-82.5
X82.069Y-68.
X82.069Y-82.5
X84.569Y-82.5
X87.069Y-68.
X87.069Y-82.5
X108.115Y-68.
X108.115Y-82.5
X110.615Y-82.5
X113.115Y-68.
X113.115Y-82.5
X121.539Y-47.
X121.539Y-49.54
X121.539Y-52.08
X121.539Y-54.62
X121.539Y-57.16
X121.539Y-59.7
T4
X47.879Y-88.995
X47.879Y-91.535
X47.879Y-94.075
X47.879Y-96.615
X47.879Y-99.155
X47.879Y-101.695
X47.879Y-104.235
X47.879Y-106.775
X47.879Y-109.315
X47.879Y-111.855
X47.879Y-114.395
X47.879Y-116.935
X47.879Y-119.475
X47.879Y-122.015
X47.879Y-124.555
X47.879Y-127.095
X47.879Y-129.635
X47.879Y-132.175
X47.879Y-134.715
X47.879Y-137.255
X50.419Y-88.995
X50.419Y-91.535
X50.419Y-94.075
X50.419Y-96.615
X50.419Y-99.155
X50.419Y-101.695
X50.419Y-104.235
X50.419Y-106.775
X50.419Y-109.315
X50.419Y-111.855
X50.419Y-114.395
X50.419Y-116.935
X50.419Y-119.475
X50.419Y-122.015
X50.419Y-124.555
X50.419Y-127.095
X50.419Y-129.635
X50.419Y-132.175
X50.419Y-134.715
X50.419Y-137.255
X119.126Y-88.995
X119.126Y-91.535
X119.126Y-94.075
X119.126Y-96.615
X119.126Y-99.155
X119.126Y-101.695
X119.126Y-104.235
X119.126Y-106.775
X119.126Y-109.315
X119.126Y-111.855
X119.126Y-114.395
X119.126Y-116.935
X119.126Y-119.475
X119.126Y-122.015
X119.126Y-124.555
X119.126Y-127.095
X119.126Y-129.635
X119.126Y-132.175
X119.126Y-134.715
X119.126Y-137.255
X121.666Y-88.995
X121.666Y-91.535
X121.666Y-94.075
X121.666Y-96.615
X121.666Y-99.155
X121.666Y-101.695
X121.666Y-104.235
X121.666Y-106.775
X121.666Y-109.315
X121.666Y-111.855
X121.666Y-114.395
X121.666Y-116.935
X121.666Y-119.475
X121.666Y-122.015
X121.666Y-124.555
X121.666Y-127.095
X121.666Y-129.635
X121.666Y-132.175
X121.666Y-134.715
X121.666Y-137.255
T5
X50.419Y-154.273
X50.419Y-160.773
X54.8Y-139.1
X54.8Y-145.6
X54.919Y-154.273
X54.919Y-160.773
X59.3Y-139.1
X59.3Y-145.6
X60.9Y-154.2
X60.9Y-160.7
X65.4Y-154.2
X65.4Y-160.7
X67.2Y-139.1
X67.2Y-145.6
X71.4Y-154.2
X71.4Y-160.7
X71.7Y-139.1
X71.7Y-145.6
X75.9Y-154.2
X75.9Y-160.7
X81.9Y-154.2
X81.9Y-160.7
X85.5Y-139.1
X85.5Y-145.6
X86.4Y-154.2
X86.4Y-160.7
X90.Y-139.1
X90.Y-145.6
X92.456Y-154.2
X92.456Y-160.7
X96.956Y-154.2
X96.956Y-160.7
X97.5Y-139.1
X97.5Y-145.6
X102.Y-139.1
X102.Y-145.6
X102.6Y-154.2
X102.6Y-160.7
X107.1Y-154.2
X107.1Y-160.7
X109.6Y-139.1
X109.6Y-145.6
X113.Y-154.2
X113.Y-160.7
X114.1Y-139.1
X114.1Y-145.6
X117.5Y-154.2
X117.5Y-160.7
T6
X54.875Y-38.75
X57.375Y-41.25
X59.875Y-28.75
X62.375Y-38.75
X64.875Y-28.75
X67.375Y-41.25
X69.875Y-38.75
X76.875Y-38.75
X79.375Y-41.25
X81.875Y-28.75
X84.375Y-38.75
X86.875Y-28.75
X89.375Y-41.25
X91.875Y-38.75
X98.875Y-38.75
X101.375Y-41.25
X103.875Y-28.75
X106.375Y-38.75
X108.875Y-28.75
X111.375Y-41.25
X113.875Y-38.75
T8
X45.974Y-30.32
X45.974Y-157.854
X122.301Y-30.32
X122.301Y-157.854
T7
X52.1Y-74.65G85X52.1Y-75.35
G05
X63.9Y-74.65G85X63.9Y-75.35
G05
X78.669Y-74.65G85X78.669Y-75.35
G05
X90.469Y-74.65G85X90.469Y-75.35
G05
X104.715Y-74.65G85X104.715Y-75.35
G05
X116.515Y-74.65G85X116.515Y-75.35
G05
T0
M30
