G04 #@! TF.FileFunction,Soldermask,Bot*
%FSLAX46Y46*%
G04 Gerber Fmt 4.6, Leading zero omitted, Abs format (unit mm)*
G04 Created by KiCad (PCBNEW 4.0.6-e0-6349~53~ubuntu16.04.1) date Sat Aug 19 19:33:35 2017*
%MOMM*%
%LPD*%
G01*
G04 APERTURE LIST*
%ADD10C,0.100000*%
%ADD11C,0.150000*%
%ADD12R,2.400000X1.924000*%
%ADD13O,2.400000X1.924000*%
%ADD14C,2.300000*%
%ADD15O,2.700000X3.400000*%
%ADD16C,2.050000*%
%ADD17R,1.650000X1.900000*%
%ADD18R,1.900000X1.650000*%
%ADD19R,2.800000X2.000000*%
%ADD20O,2.800000X2.000000*%
%ADD21R,2.000000X2.800000*%
%ADD22O,2.000000X2.800000*%
%ADD23C,2.400000*%
%ADD24R,2.100000X2.100000*%
%ADD25O,2.100000X2.100000*%
%ADD26R,2.000000X2.000000*%
%ADD27O,2.000000X2.000000*%
%ADD28R,1.900000X1.700000*%
%ADD29R,1.700000X1.900000*%
%ADD30C,7.400000*%
%ADD31C,4.000000*%
%ADD32C,1.670000*%
G04 APERTURE END LIST*
D10*
D11*
X115125000Y-33750000D02*
G75*
G03X115125000Y-33750000I-1250000J0D01*
G01*
X100125000Y-33750000D02*
G75*
G03X100125000Y-33750000I-1250000J0D01*
G01*
X93125000Y-33750000D02*
G75*
G03X93125000Y-33750000I-1250000J0D01*
G01*
X78125000Y-33750000D02*
G75*
G03X78125000Y-33750000I-1250000J0D01*
G01*
X56125000Y-33750000D02*
G75*
G03X56125000Y-33750000I-1250000J0D01*
G01*
X71125000Y-33750000D02*
G75*
G03X71125000Y-33750000I-1250000J0D01*
G01*
X124500000Y-162750000D02*
G75*
G03X127250000Y-160000000I0J2750000D01*
G01*
X44250000Y-162750000D02*
X124500000Y-162750000D01*
X127250000Y-28500000D02*
X127250000Y-160000000D01*
X127250000Y-28500000D02*
G75*
G03X124500000Y-25750000I-2750000J0D01*
G01*
X44000000Y-25750000D02*
X124500000Y-25750000D01*
X44000000Y-25750000D02*
G75*
G03X41500000Y-28250000I0J-2500000D01*
G01*
X41500000Y-160000000D02*
X41500000Y-28250000D01*
X41500000Y-160000000D02*
G75*
G03X44250000Y-162750000I2750000J0D01*
G01*
D12*
X119126000Y-88995000D03*
D13*
X121666000Y-88995000D03*
X119126000Y-101695000D03*
X121666000Y-91535000D03*
X119126000Y-104235000D03*
X121666000Y-94075000D03*
X119126000Y-106775000D03*
X121666000Y-96615000D03*
X119126000Y-109315000D03*
X121666000Y-99155000D03*
X119126000Y-111855000D03*
X121666000Y-101695000D03*
X119126000Y-114395000D03*
X121666000Y-104235000D03*
X119126000Y-116935000D03*
X121666000Y-106775000D03*
X119126000Y-119475000D03*
X121666000Y-109315000D03*
X119126000Y-122015000D03*
X121666000Y-111855000D03*
X119126000Y-124555000D03*
X121666000Y-114395000D03*
X119126000Y-127095000D03*
X121666000Y-116935000D03*
X121666000Y-119475000D03*
X119126000Y-129635000D03*
X121666000Y-122015000D03*
X121666000Y-127095000D03*
X121666000Y-129635000D03*
X121666000Y-132175000D03*
X121666000Y-134715000D03*
X119126000Y-132175000D03*
X119126000Y-134715000D03*
X119126000Y-91535000D03*
X119126000Y-94075000D03*
X119126000Y-96615000D03*
X119126000Y-99155000D03*
X119126000Y-137255000D03*
X121666000Y-137255000D03*
X121666000Y-124555000D03*
D14*
X54875000Y-38750000D03*
X57375000Y-41250000D03*
X62375000Y-38750000D03*
X67375000Y-41250000D03*
X69875000Y-38750000D03*
X64875000Y-28750000D03*
X59875000Y-28750000D03*
X76875000Y-38750000D03*
X79375000Y-41250000D03*
X84375000Y-38750000D03*
X89375000Y-41250000D03*
X91875000Y-38750000D03*
X86875000Y-28750000D03*
X81875000Y-28750000D03*
X98875000Y-38750000D03*
X101375000Y-41250000D03*
X106375000Y-38750000D03*
X111375000Y-41250000D03*
X113875000Y-38750000D03*
X108875000Y-28750000D03*
X103875000Y-28750000D03*
D15*
X52100000Y-75000000D03*
D16*
X55500000Y-82500000D03*
X60500000Y-82500000D03*
X58000000Y-82500000D03*
X55500000Y-68000000D03*
X60500000Y-68000000D03*
D15*
X63900000Y-75000000D03*
X78669500Y-75000000D03*
D16*
X82069500Y-82500000D03*
X87069500Y-82500000D03*
X84569500Y-82500000D03*
X82069500Y-68000000D03*
X87069500Y-68000000D03*
D15*
X90469500Y-75000000D03*
X104715000Y-75000000D03*
D16*
X108115000Y-82500000D03*
X113115000Y-82500000D03*
X110615000Y-82500000D03*
X108115000Y-68000000D03*
X113115000Y-68000000D03*
D15*
X116515000Y-75000000D03*
D17*
X59811000Y-32246000D03*
X59811000Y-34746000D03*
X64891000Y-34746000D03*
X64891000Y-32246000D03*
X82296000Y-54928200D03*
X82296000Y-57428200D03*
X52038000Y-67806000D03*
X52038000Y-70306000D03*
X56372000Y-76910000D03*
X56372000Y-74410000D03*
X59420000Y-76910000D03*
X59420000Y-74410000D03*
X63976000Y-70306000D03*
X63976000Y-67806000D03*
X78740000Y-67806000D03*
X78740000Y-70306000D03*
X83058000Y-76910000D03*
X83058000Y-74410000D03*
X86106000Y-76910000D03*
X86106000Y-74410000D03*
X90424000Y-70306000D03*
X90424000Y-67806000D03*
X104664000Y-67806000D03*
X104664000Y-70306000D03*
X108982000Y-76910000D03*
X108982000Y-74410000D03*
X112030000Y-76910000D03*
X112030000Y-74410000D03*
X116348000Y-70306000D03*
X116348000Y-67806000D03*
D18*
X88372000Y-86106000D03*
X85872000Y-86106000D03*
X54971000Y-157575000D03*
X52471000Y-157575000D03*
X54884000Y-142208000D03*
X57384000Y-142208000D03*
X60980000Y-157448000D03*
X63480000Y-157448000D03*
X67076000Y-142208000D03*
X69576000Y-142208000D03*
X71394000Y-157448000D03*
X73894000Y-157448000D03*
X81808000Y-157448000D03*
X84308000Y-157448000D03*
X85618000Y-142208000D03*
X88118000Y-142208000D03*
X92476000Y-157448000D03*
X94976000Y-157448000D03*
X97556000Y-142208000D03*
X100056000Y-142208000D03*
X102636000Y-157448000D03*
X105136000Y-157448000D03*
X109748000Y-142208000D03*
X112248000Y-142208000D03*
X113050000Y-157448000D03*
X115550000Y-157448000D03*
D19*
X80772000Y-88868000D03*
D20*
X88392000Y-104108000D03*
X80772000Y-91408000D03*
X88392000Y-101568000D03*
X80772000Y-93948000D03*
X88392000Y-99028000D03*
X80772000Y-96488000D03*
X88392000Y-96488000D03*
X80772000Y-99028000D03*
X88392000Y-93948000D03*
X80772000Y-101568000D03*
X88392000Y-91408000D03*
X80772000Y-104108000D03*
X88392000Y-88868000D03*
D21*
X85380000Y-57120000D03*
D22*
X103160000Y-49500000D03*
X87920000Y-57120000D03*
X100620000Y-49500000D03*
X90460000Y-57120000D03*
X98080000Y-49500000D03*
X93000000Y-57120000D03*
X95540000Y-49500000D03*
X95540000Y-57120000D03*
X93000000Y-49500000D03*
X98080000Y-57120000D03*
X90460000Y-49500000D03*
X100620000Y-57120000D03*
X87920000Y-49500000D03*
X103160000Y-57120000D03*
X85380000Y-49500000D03*
D19*
X62880000Y-49460000D03*
D20*
X70500000Y-57080000D03*
X62880000Y-52000000D03*
X70500000Y-54540000D03*
X62880000Y-54540000D03*
X70500000Y-52000000D03*
X62880000Y-57080000D03*
X70500000Y-49460000D03*
D23*
X117500000Y-160700000D03*
X113000000Y-160700000D03*
X117500000Y-154200000D03*
X113000000Y-154200000D03*
X114100000Y-145600000D03*
X109600000Y-145600000D03*
X114100000Y-139100000D03*
X109600000Y-139100000D03*
X107100000Y-160700000D03*
X102600000Y-160700000D03*
X107100000Y-154200000D03*
X102600000Y-154200000D03*
X102000000Y-145600000D03*
X97500000Y-145600000D03*
X102000000Y-139100000D03*
X97500000Y-139100000D03*
X96956000Y-160700000D03*
X92456000Y-160700000D03*
X96956000Y-154200000D03*
X92456000Y-154200000D03*
X90000000Y-145600000D03*
X85500000Y-145600000D03*
X90000000Y-139100000D03*
X85500000Y-139100000D03*
X86400000Y-160700000D03*
X81900000Y-160700000D03*
X86400000Y-154200000D03*
X81900000Y-154200000D03*
X75900000Y-160700000D03*
X71400000Y-160700000D03*
X75900000Y-154200000D03*
X71400000Y-154200000D03*
X71700000Y-145600000D03*
X67200000Y-145600000D03*
X71700000Y-139100000D03*
X67200000Y-139100000D03*
X65400000Y-160700000D03*
X60900000Y-160700000D03*
X65400000Y-154200000D03*
X60900000Y-154200000D03*
X59300000Y-145600000D03*
X54800000Y-145600000D03*
X59300000Y-139100000D03*
X54800000Y-139100000D03*
X50419000Y-154273000D03*
X54919000Y-154273000D03*
X50419000Y-160773000D03*
X54919000Y-160773000D03*
D24*
X121539000Y-47000000D03*
D25*
X121539000Y-49540000D03*
X121539000Y-52080000D03*
X121539000Y-54620000D03*
X121539000Y-57160000D03*
X121539000Y-59700000D03*
D24*
X47879000Y-47000000D03*
D25*
X47879000Y-49540000D03*
X47879000Y-52080000D03*
X47879000Y-54620000D03*
X47879000Y-57160000D03*
X47879000Y-59700000D03*
D26*
X51562000Y-49530000D03*
D27*
X59182000Y-49530000D03*
D28*
X94870000Y-44672000D03*
X92170000Y-44672000D03*
D29*
X50800000Y-41450000D03*
X50800000Y-38750000D03*
D28*
X115475000Y-44672000D03*
X112775000Y-44672000D03*
D29*
X114706400Y-151940000D03*
X114706400Y-149240000D03*
X109728000Y-136700000D03*
X109728000Y-134000000D03*
X104190800Y-151940000D03*
X104190800Y-149240000D03*
X97536000Y-136700000D03*
X97536000Y-134000000D03*
X112776000Y-149240000D03*
X112776000Y-151940000D03*
X107188000Y-148130000D03*
X107188000Y-145430000D03*
X102260400Y-149240000D03*
X102260400Y-151940000D03*
X94526000Y-147114000D03*
X94526000Y-144414000D03*
X91998800Y-151940000D03*
X91998800Y-149240000D03*
X85598000Y-136700000D03*
X85598000Y-134000000D03*
X81635600Y-151940000D03*
X81635600Y-149240000D03*
X73304400Y-151940000D03*
X73304400Y-149240000D03*
X93954600Y-149240000D03*
X93954600Y-151940000D03*
X82042000Y-147114000D03*
X82042000Y-144414000D03*
X83566000Y-149240000D03*
X83566000Y-151940000D03*
X71374000Y-149240000D03*
X71374000Y-151940000D03*
X67310000Y-136700000D03*
X67310000Y-134000000D03*
X60706000Y-151940000D03*
X60706000Y-149240000D03*
X55864000Y-136700000D03*
X55864000Y-134000000D03*
X53834800Y-151940000D03*
X53834800Y-149240000D03*
X64465200Y-148130000D03*
X64465200Y-145430000D03*
X62534800Y-149240000D03*
X62534800Y-151940000D03*
X52070000Y-146606000D03*
X52070000Y-143906000D03*
X55816000Y-149240000D03*
X55816000Y-151940000D03*
D28*
X104474000Y-101568000D03*
X101774000Y-101568000D03*
X96854000Y-101568000D03*
X94154000Y-101568000D03*
X114396000Y-79724000D03*
X111696000Y-79724000D03*
X111696000Y-64484000D03*
X114396000Y-64484000D03*
X104474000Y-96488000D03*
X101774000Y-96488000D03*
X106616000Y-79724000D03*
X109316000Y-79724000D03*
X96854000Y-96488000D03*
X94154000Y-96488000D03*
X106616000Y-64484000D03*
X109316000Y-64484000D03*
D29*
X116856000Y-79898000D03*
X116856000Y-82598000D03*
X104156000Y-79898000D03*
X104156000Y-82598000D03*
D28*
X104474000Y-91408000D03*
X101774000Y-91408000D03*
X96854000Y-91408000D03*
X94154000Y-91408000D03*
X88472000Y-79724000D03*
X85772000Y-79724000D03*
X85518000Y-64484000D03*
X88218000Y-64484000D03*
X64182000Y-101568000D03*
X66882000Y-101568000D03*
X80692000Y-79724000D03*
X83392000Y-79724000D03*
X71802000Y-101568000D03*
X74502000Y-101568000D03*
X80438000Y-64484000D03*
X83138000Y-64484000D03*
D29*
X90932000Y-79898000D03*
X90932000Y-82598000D03*
X78232000Y-79898000D03*
X78232000Y-82598000D03*
D28*
X64182000Y-91408000D03*
X66882000Y-91408000D03*
X71802000Y-91408000D03*
X74502000Y-91408000D03*
X61770000Y-79724000D03*
X59070000Y-79724000D03*
X59006000Y-64484000D03*
X61706000Y-64484000D03*
X64182000Y-96488000D03*
X66882000Y-96488000D03*
X53990000Y-79724000D03*
X56690000Y-79724000D03*
X71802000Y-96488000D03*
X74502000Y-96488000D03*
X53926000Y-64484000D03*
X56626000Y-64484000D03*
D29*
X63976000Y-79898000D03*
X63976000Y-82598000D03*
X51784000Y-79898000D03*
X51784000Y-82598000D03*
D28*
X102425000Y-44672000D03*
X105125000Y-44672000D03*
X81764000Y-44672000D03*
X84464000Y-44672000D03*
D29*
X73660000Y-52102000D03*
X73660000Y-49402000D03*
X67310000Y-49402000D03*
X67310000Y-52102000D03*
D28*
X100156000Y-44672000D03*
X97456000Y-44672000D03*
X110375333Y-44672000D03*
X107675333Y-44672000D03*
X79328000Y-44672000D03*
X76628000Y-44672000D03*
X53500000Y-44672000D03*
X50800000Y-44672000D03*
X89750000Y-44672000D03*
X87050000Y-44672000D03*
X57070000Y-44722000D03*
X59770000Y-44722000D03*
D30*
X45974000Y-30320200D03*
X122301000Y-30320200D03*
X45974000Y-157853600D03*
X122301000Y-157853600D03*
D31*
X122300000Y-38830000D03*
X122300000Y-145510000D03*
X45974000Y-145510000D03*
D12*
X47879000Y-88995000D03*
D13*
X50419000Y-88995000D03*
X47879000Y-101695000D03*
X50419000Y-91535000D03*
X47879000Y-104235000D03*
X50419000Y-94075000D03*
X47879000Y-106775000D03*
X50419000Y-96615000D03*
X47879000Y-109315000D03*
X50419000Y-99155000D03*
X47879000Y-111855000D03*
X50419000Y-101695000D03*
X47879000Y-114395000D03*
X50419000Y-104235000D03*
X47879000Y-116935000D03*
X50419000Y-106775000D03*
X47879000Y-119475000D03*
X50419000Y-109315000D03*
X47879000Y-122015000D03*
X50419000Y-111855000D03*
X47879000Y-124555000D03*
X50419000Y-114395000D03*
X47879000Y-127095000D03*
X50419000Y-116935000D03*
X50419000Y-119475000D03*
X47879000Y-129635000D03*
X50419000Y-122015000D03*
X50419000Y-127095000D03*
X50419000Y-129635000D03*
X50419000Y-132175000D03*
X50419000Y-134715000D03*
X47879000Y-132175000D03*
X47879000Y-134715000D03*
X47879000Y-91535000D03*
X47879000Y-94075000D03*
X47879000Y-96615000D03*
X47879000Y-99155000D03*
X47879000Y-137255000D03*
X50419000Y-137255000D03*
X50419000Y-124555000D03*
D32*
X88775000Y-84328000D03*
X74930000Y-59784998D03*
X65532000Y-59784994D03*
X101853998Y-78200000D03*
X45466000Y-78200000D03*
X118618000Y-78200000D03*
X92837000Y-78200000D03*
X76327000Y-78200000D03*
X49911002Y-78200000D03*
X65913000Y-78200000D03*
X78867002Y-144780000D03*
X103614010Y-64484000D03*
X57658000Y-149193000D03*
X79654400Y-55390800D03*
X49911002Y-64484000D03*
X114300000Y-46958000D03*
X91694000Y-46958000D03*
X109855000Y-150844000D03*
X109808000Y-147923000D03*
X99822000Y-150971000D03*
X99822000Y-147415000D03*
X68580000Y-150971000D03*
X68580000Y-147542000D03*
X58039000Y-92043000D03*
X58039000Y-87344000D03*
X107188000Y-93948000D03*
X99314000Y-93948000D03*
X107188000Y-99028000D03*
X99314000Y-99028000D03*
X47752000Y-82899000D03*
X102870006Y-87725000D03*
X108202000Y-57243000D03*
X108202000Y-49500000D03*
X97014010Y-68040000D03*
X69392800Y-96488000D03*
X65786000Y-64484000D03*
X69342000Y-91408000D03*
X69342000Y-101568000D03*
X91694000Y-64484000D03*
X99314000Y-91408000D03*
X99314000Y-96488000D03*
X98552000Y-85725000D03*
X99314000Y-101568000D03*
M02*
