G04 #@! TF.FileFunction,Copper,L2,Bot,Signal*
%FSLAX46Y46*%
G04 Gerber Fmt 4.6, Leading zero omitted, Abs format (unit mm)*
G04 Created by KiCad (PCBNEW 4.0.4-stable) date 12/03/16 12:25:19*
%MOMM*%
%LPD*%
G01*
G04 APERTURE LIST*
%ADD10C,0.100000*%
%ADD11R,2.000000X1.524000*%
%ADD12O,2.000000X1.524000*%
%ADD13C,2.500000*%
%ADD14C,1.699260*%
%ADD15R,1.699260X1.699260*%
%ADD16R,1.500000X1.500000*%
%ADD17C,1.500000*%
%ADD18R,2.000000X2.000000*%
%ADD19C,2.000000*%
%ADD20R,2.540000X2.540000*%
%ADD21C,2.540000*%
%ADD22C,1.998980*%
%ADD23O,1.600000X2.300000*%
%ADD24O,1.998980X2.999740*%
%ADD25O,2.999740X1.998980*%
%ADD26R,1.524000X1.016000*%
%ADD27R,1.016000X1.524000*%
%ADD28C,0.800000*%
%ADD29C,0.700000*%
%ADD30C,0.500000*%
%ADD31C,1.000000*%
G04 APERTURE END LIST*
D10*
D11*
X167130001Y-95635001D03*
D12*
X169670001Y-95635001D03*
X167130001Y-108335001D03*
X169670001Y-98175001D03*
X167130001Y-110875001D03*
X169670001Y-100715001D03*
X167130001Y-113415001D03*
X169670001Y-103255001D03*
X167130001Y-115955001D03*
X169670001Y-105795001D03*
X167130001Y-118495001D03*
X169670001Y-108335001D03*
X167130001Y-121035001D03*
X169670001Y-110875001D03*
X167130001Y-123575001D03*
X169670001Y-113415001D03*
X167130001Y-126115001D03*
X169670001Y-115955001D03*
X167130001Y-128655001D03*
X169670001Y-118495001D03*
X167130001Y-131195001D03*
X169670001Y-121035001D03*
X167130001Y-133735001D03*
X169670001Y-123575001D03*
X169670001Y-126115001D03*
X167130001Y-136275001D03*
X169670001Y-128655001D03*
X169670001Y-133735001D03*
X169670001Y-136275001D03*
X169670001Y-138815001D03*
X169670001Y-141355001D03*
X167130001Y-138815001D03*
X167130001Y-141355001D03*
X167130001Y-98175001D03*
X167130001Y-100715001D03*
X167130001Y-103255001D03*
X167130001Y-105795001D03*
X167130001Y-143895001D03*
X169670001Y-143895001D03*
X169670001Y-131195001D03*
D11*
X96010001Y-95635001D03*
D12*
X98550001Y-95635001D03*
X96010001Y-98175001D03*
X98550001Y-98175001D03*
X96010001Y-100715001D03*
X98550001Y-100715001D03*
X96010001Y-103255001D03*
X98550001Y-103255001D03*
X96010001Y-105795001D03*
X98550001Y-105795001D03*
X96010001Y-108335001D03*
X98550001Y-108335001D03*
X96010001Y-110875001D03*
X98550001Y-110875001D03*
X96010001Y-113415001D03*
X98550001Y-113415001D03*
X96010001Y-115955001D03*
X98550001Y-115955001D03*
X96010001Y-118495001D03*
X98550001Y-118495001D03*
X96010001Y-121035001D03*
X98550001Y-121035001D03*
X96010001Y-123575001D03*
X98550001Y-123575001D03*
X96010001Y-126115001D03*
X98550001Y-126115001D03*
X96010001Y-128655001D03*
X98550001Y-128655001D03*
X96010001Y-131195001D03*
X98550001Y-131195001D03*
X96010001Y-133735001D03*
X98550001Y-133735001D03*
X96010001Y-136275001D03*
X98550001Y-136275001D03*
X96010001Y-138815001D03*
X98550001Y-138815001D03*
X96010001Y-141355001D03*
X98550001Y-141355001D03*
X96010001Y-143895001D03*
X98550001Y-143895001D03*
D13*
X148750000Y-120912000D03*
X154846000Y-118880000D03*
X160688000Y-120912000D03*
X148750000Y-132850000D03*
X160688000Y-132850000D03*
X133250000Y-120912000D03*
X139346000Y-118880000D03*
X145188000Y-120912000D03*
X133250000Y-132850000D03*
X145188000Y-132850000D03*
D14*
X145160520Y-115997460D03*
D15*
X135000520Y-115997460D03*
D14*
X172160000Y-91000000D03*
D15*
X162000000Y-91000000D03*
D16*
X117700000Y-79400000D03*
D17*
X117700000Y-74400000D03*
D16*
X112100000Y-78000000D03*
D17*
X112100000Y-76000000D03*
D16*
X143100000Y-97100000D03*
D17*
X143100000Y-99100000D03*
D16*
X138800000Y-98000000D03*
D17*
X133800000Y-98000000D03*
D16*
X146300000Y-79300000D03*
D17*
X146300000Y-74300000D03*
D16*
X151700000Y-77700000D03*
D17*
X151700000Y-75700000D03*
D14*
X117500000Y-128000000D03*
D15*
X107340000Y-128000000D03*
D14*
X130410000Y-128000000D03*
D15*
X120250000Y-128000000D03*
D18*
X128250000Y-112790000D03*
D19*
X128250000Y-110250000D03*
D18*
X147500000Y-112790000D03*
D19*
X147500000Y-110250000D03*
D14*
X159660000Y-115897460D03*
D15*
X149500000Y-115897460D03*
D18*
X158900000Y-77500000D03*
D19*
X158900000Y-80040000D03*
D20*
X94670000Y-150250000D03*
D21*
X99750000Y-150250000D03*
X104830000Y-150250000D03*
D20*
X155960000Y-150250000D03*
D21*
X161040000Y-150250000D03*
D20*
X167210000Y-150250000D03*
D21*
X172290000Y-150250000D03*
D22*
X116000000Y-134750000D03*
X108380000Y-134750000D03*
X120380000Y-134750000D03*
X128000000Y-134750000D03*
X109250000Y-131000000D03*
X116870000Y-131000000D03*
X122500000Y-131000000D03*
X130120000Y-131000000D03*
X105750000Y-106500000D03*
X105750000Y-114120000D03*
X111250000Y-106500000D03*
X111250000Y-114120000D03*
X164000000Y-93600000D03*
X156380000Y-93600000D03*
X132250000Y-110250000D03*
X132250000Y-102630000D03*
X154120000Y-107250000D03*
X146500000Y-107250000D03*
X123750000Y-113500000D03*
X123750000Y-105880000D03*
X143750000Y-113250000D03*
X143750000Y-105630000D03*
X110300000Y-99750000D03*
X117920000Y-99750000D03*
X110300000Y-95300000D03*
X117920000Y-95300000D03*
X110280000Y-91000000D03*
X117900000Y-91000000D03*
X152500000Y-83100000D03*
X144880000Y-83100000D03*
D23*
X109000000Y-125370000D03*
X111540000Y-125370000D03*
X114080000Y-125370000D03*
X114080000Y-117750000D03*
X111540000Y-117750000D03*
X109000000Y-117750000D03*
D24*
X155040000Y-90290000D03*
D25*
X157580000Y-87750000D03*
X152500000Y-87750000D03*
D23*
X120500000Y-125370000D03*
X123040000Y-125370000D03*
X125580000Y-125370000D03*
X125580000Y-117750000D03*
X123040000Y-117750000D03*
X120500000Y-117750000D03*
D26*
X141100000Y-90725000D03*
X141100000Y-89455000D03*
X141100000Y-88185000D03*
X141100000Y-86915000D03*
X141100000Y-85645000D03*
X141100000Y-83105000D03*
X141100000Y-84375000D03*
X141100000Y-80565000D03*
X141100000Y-81835000D03*
X141100000Y-79295000D03*
X141100000Y-78025000D03*
X141100000Y-76755000D03*
X141100000Y-75485000D03*
X141100000Y-74215000D03*
X123320000Y-90725000D03*
X123320000Y-89455000D03*
X123320000Y-88185000D03*
X123320000Y-86915000D03*
X123320000Y-85645000D03*
X123320000Y-84375000D03*
X123320000Y-83105000D03*
X123320000Y-81835000D03*
X123320000Y-80565000D03*
X123320000Y-79295000D03*
X123320000Y-78025000D03*
X123320000Y-76755000D03*
X123320000Y-75485000D03*
X123320000Y-74215000D03*
D27*
X137290000Y-93900000D03*
X136020000Y-93900000D03*
X134750000Y-93900000D03*
X133480000Y-93900000D03*
X132210000Y-93900000D03*
X130940000Y-93900000D03*
X129670000Y-93900000D03*
X128400000Y-93900000D03*
X127130000Y-93900000D03*
D24*
X138000000Y-110500000D03*
D25*
X135460000Y-113040000D03*
X140540000Y-113040000D03*
D24*
X154290000Y-110500000D03*
D25*
X151750000Y-113040000D03*
X156830000Y-113040000D03*
D17*
X153500000Y-103900000D03*
X153539990Y-95039990D03*
X91400000Y-82900000D03*
X98700000Y-82900000D03*
X122054808Y-103900000D03*
X122000000Y-94100000D03*
X116250000Y-113735000D03*
X120000000Y-113750000D03*
X150100000Y-103250000D03*
X146250000Y-103233592D03*
X157500000Y-105000000D03*
X157500000Y-96250000D03*
X116500000Y-104400000D03*
X102500000Y-104400000D03*
X101250000Y-90500000D03*
X92500000Y-90500000D03*
X117900000Y-102500000D03*
X104200000Y-102500000D03*
X103250000Y-87750000D03*
X92250000Y-87750000D03*
X148600000Y-95200000D03*
X148500000Y-98800000D03*
X150600000Y-95200000D03*
X150600000Y-98800000D03*
D28*
X110300000Y-99750000D02*
X110300000Y-105550000D01*
X110300000Y-105550000D02*
X111250000Y-106500000D01*
X105750000Y-106500000D02*
X111250000Y-106500000D01*
X96010001Y-85500000D02*
X108500000Y-85500000D01*
X108500000Y-85500000D02*
X110280000Y-87280000D01*
X110280000Y-87280000D02*
X110280000Y-91000000D01*
X139500000Y-94802000D02*
X139500000Y-96900000D01*
X139500000Y-96900000D02*
X139700000Y-97100000D01*
X137290000Y-93900000D02*
X138598000Y-93900000D01*
X138598000Y-93900000D02*
X139500000Y-94802000D01*
X147800000Y-79400000D02*
X146400000Y-79400000D01*
X146400000Y-79400000D02*
X146300000Y-79300000D01*
X110300000Y-95300000D02*
X110300000Y-99750000D01*
X110280000Y-91000000D02*
X110280000Y-95280000D01*
X110280000Y-95280000D02*
X110300000Y-95300000D01*
X96010001Y-95635001D02*
X96010001Y-86129998D01*
X96010001Y-86129998D02*
X96025000Y-86114999D01*
X96010001Y-86100000D02*
X96010001Y-85500000D01*
X96010001Y-85500000D02*
X96010001Y-80239999D01*
X167130001Y-95635001D02*
X167130001Y-90380001D01*
X167130001Y-90380001D02*
X166250000Y-89500000D01*
X166250000Y-89500000D02*
X166200000Y-89500000D01*
X160900509Y-96599491D02*
X159500000Y-98000000D01*
X166200000Y-89500000D02*
X165700000Y-89000000D01*
X165700000Y-89000000D02*
X160600000Y-89000000D01*
X160600000Y-89000000D02*
X160050369Y-89549631D01*
X153622752Y-97100000D02*
X153400000Y-97100000D01*
X160050369Y-89549631D02*
X160050369Y-93229631D01*
X160050369Y-93229631D02*
X160821247Y-94000509D01*
X160821247Y-94000509D02*
X160900509Y-94000509D01*
X160900509Y-94000509D02*
X160900509Y-96599491D01*
X159500000Y-98000000D02*
X154522752Y-98000000D01*
X154522752Y-98000000D02*
X153622752Y-97100000D01*
X153400000Y-97100000D02*
X152100000Y-97100000D01*
X150250000Y-97100000D02*
X152100000Y-97100000D01*
X147100000Y-86500000D02*
X147100000Y-88294351D01*
X147800000Y-79400000D02*
X148600000Y-80200000D01*
X148600000Y-80200000D02*
X148600000Y-85000000D01*
X151935001Y-93129352D02*
X151935001Y-93135001D01*
X148600000Y-85000000D02*
X147100000Y-86500000D01*
X147100000Y-88294351D02*
X151935001Y-93129352D01*
X151935001Y-93135001D02*
X152100000Y-93300000D01*
X152100000Y-93300000D02*
X152100000Y-97100000D01*
X96025000Y-86114999D02*
X96010001Y-86100000D01*
X141100000Y-78025000D02*
X129925000Y-78025000D01*
X129925000Y-78025000D02*
X128655000Y-76755000D01*
X128655000Y-76755000D02*
X123320000Y-76755000D01*
D29*
X121500000Y-76750000D02*
X121505000Y-76755000D01*
X121505000Y-76755000D02*
X123320000Y-76755000D01*
X141100000Y-78025000D02*
X142975000Y-78025000D01*
X142975000Y-78025000D02*
X143000000Y-78000000D01*
D28*
X143100000Y-97100000D02*
X150250000Y-97100000D01*
X96010001Y-80239999D02*
X98250000Y-78000000D01*
X98250000Y-78000000D02*
X112100000Y-78000000D01*
X151700000Y-77700000D02*
X147900000Y-77700000D01*
X147900000Y-77700000D02*
X146300000Y-79300000D01*
X144300000Y-79300000D02*
X143000000Y-78000000D01*
X146300000Y-79300000D02*
X144300000Y-79300000D01*
X143100000Y-97100000D02*
X139700000Y-97100000D01*
X139700000Y-97100000D02*
X138800000Y-98000000D01*
X112100000Y-78000000D02*
X116300000Y-78000000D01*
X116300000Y-78000000D02*
X117700000Y-79400000D01*
X117800000Y-79500000D02*
X117700000Y-79400000D01*
X118850000Y-76750000D02*
X121500000Y-76750000D01*
X117700000Y-79400000D02*
X117700000Y-77900000D01*
X117700000Y-77900000D02*
X118850000Y-76750000D01*
X133800000Y-98000000D02*
X134549999Y-97250001D01*
X134549999Y-97250001D02*
X135499999Y-97250001D01*
X135499999Y-97250001D02*
X136000000Y-96750000D01*
X136000000Y-95800000D02*
X136000000Y-96750000D01*
X136020000Y-95730000D02*
X136020000Y-95780000D01*
X136020000Y-95780000D02*
X136000000Y-95800000D01*
X169670001Y-133735001D02*
X171985001Y-133735001D01*
X171985001Y-133735001D02*
X173250000Y-135000000D01*
X173250000Y-135000000D02*
X173250000Y-139575002D01*
X173250000Y-139575002D02*
X171470001Y-141355001D01*
X171470001Y-141355001D02*
X169670001Y-141355001D01*
X162000000Y-83250000D02*
X162000000Y-78800000D01*
X163500000Y-84750000D02*
X162000000Y-83250000D01*
X168000000Y-84750000D02*
X163500000Y-84750000D01*
X169749980Y-84749980D02*
X168000020Y-84749980D01*
X168000020Y-84749980D02*
X168000000Y-84750000D01*
X122000000Y-94100000D02*
X121000000Y-93100000D01*
X121000000Y-93100000D02*
X116350000Y-93100000D01*
X116350000Y-93100000D02*
X114000000Y-90750000D01*
X114000000Y-90750000D02*
X114000000Y-84500000D01*
X114000000Y-84500000D02*
X112400000Y-82900000D01*
X112400000Y-82900000D02*
X98700000Y-82900000D01*
X150400000Y-85400000D02*
X150400000Y-82536752D01*
X150400000Y-82536752D02*
X155436752Y-77500000D01*
X155436752Y-77500000D02*
X157100000Y-77500000D01*
X157100000Y-77500000D02*
X158900000Y-77500000D01*
X141100000Y-76755000D02*
X142362000Y-76755000D01*
X96010001Y-143895001D02*
X94210001Y-143895001D01*
X89250000Y-91878666D02*
X89250000Y-82800000D01*
X94210001Y-143895001D02*
X89500000Y-139185000D01*
X89500000Y-139185000D02*
X89500000Y-92128666D01*
X89500000Y-92128666D02*
X89250000Y-91878666D01*
X153539990Y-95039990D02*
X153539990Y-92339990D01*
X153500000Y-92300000D02*
X153400000Y-92300000D01*
X153539990Y-92339990D02*
X153500000Y-92300000D01*
X153400000Y-92300000D02*
X149900120Y-88800120D01*
X149900120Y-88800120D02*
X149900120Y-85899880D01*
X149900120Y-85899880D02*
X150400000Y-85400000D01*
X158900000Y-77500000D02*
X160700000Y-77500000D01*
X174109631Y-115855371D02*
X171470001Y-118495001D01*
X160700000Y-77500000D02*
X162000000Y-78800000D01*
X174109631Y-89109631D02*
X174109631Y-115855371D01*
X169749980Y-84749980D02*
X174109631Y-89109631D01*
X171470001Y-118495001D02*
X169670001Y-118495001D01*
X169670001Y-131195001D02*
X169670001Y-133735001D01*
X169670001Y-128655001D02*
X169670001Y-131195001D01*
X169670001Y-126115001D02*
X169670001Y-128655001D01*
X169670001Y-123575001D02*
X169670001Y-126115001D01*
X169670001Y-121035001D02*
X169670001Y-123575001D01*
X169670001Y-118495001D02*
X169670001Y-121035001D01*
X123320000Y-78025000D02*
X124400002Y-78025000D01*
X124400002Y-78025000D02*
X125500000Y-79124998D01*
X125500000Y-79124998D02*
X125500000Y-87533000D01*
X125500000Y-90200000D02*
X124975000Y-90725000D01*
X124975000Y-90725000D02*
X123320000Y-90725000D01*
X125500000Y-87533000D02*
X125500000Y-90200000D01*
X123320000Y-86915000D02*
X124882000Y-86915000D01*
X124882000Y-86915000D02*
X125500000Y-87533000D01*
X123320000Y-92033000D02*
X123320000Y-90725000D01*
X153300000Y-105150509D02*
X151400509Y-105150509D01*
X155127757Y-105150509D02*
X153300000Y-105150509D01*
X153300000Y-105150509D02*
X153300000Y-103900000D01*
X90800000Y-82800000D02*
X90900000Y-82900000D01*
X90900000Y-82900000D02*
X91400000Y-82900000D01*
X89250000Y-82800000D02*
X89250000Y-78500000D01*
X89250000Y-82800000D02*
X90800000Y-82800000D01*
X122800000Y-94900000D02*
X122000000Y-94100000D01*
X122000000Y-94100000D02*
X122634999Y-93465001D01*
X122634999Y-93465001D02*
X122634999Y-92718001D01*
X122634999Y-92718001D02*
X123320000Y-92033000D01*
X120000000Y-106004836D02*
X122054808Y-104085018D01*
X122054808Y-103950028D02*
X122054808Y-104085018D01*
X126800000Y-94900000D02*
X122800000Y-94900000D01*
X127130000Y-93900000D02*
X127130000Y-94570000D01*
X127130000Y-94570000D02*
X126800000Y-94900000D01*
X123320000Y-74215000D02*
X120400000Y-74215000D01*
X120400000Y-74215000D02*
X117885000Y-74215000D01*
X121673000Y-75400000D02*
X121585000Y-75400000D01*
X121585000Y-75400000D02*
X120400000Y-74215000D01*
X123320000Y-75485000D02*
X121758000Y-75485000D01*
X121758000Y-75485000D02*
X121673000Y-75400000D01*
D29*
X136020000Y-93900000D02*
X136020000Y-95730000D01*
X136020000Y-95730000D02*
X136000000Y-95750000D01*
D28*
X146300000Y-74300000D02*
X143600000Y-74300000D01*
X143600000Y-74300000D02*
X142923001Y-74300000D01*
X142362000Y-76755000D02*
X143600000Y-75517000D01*
X143600000Y-75517000D02*
X143600000Y-74300000D01*
D30*
X142362000Y-76755000D02*
X142517000Y-76600000D01*
D29*
X142923001Y-74300000D02*
X142838001Y-74215000D01*
X142838001Y-74215000D02*
X141100000Y-74215000D01*
D28*
X156830000Y-113040000D02*
X156830000Y-106852752D01*
X156830000Y-106852752D02*
X155127757Y-105150509D01*
X151400509Y-105150509D02*
X149500000Y-103250000D01*
X144098582Y-100098582D02*
X147500000Y-100098582D01*
X149500000Y-103250000D02*
X149500000Y-101939167D01*
X149500000Y-101939167D02*
X147659415Y-100098582D01*
X147659415Y-100098582D02*
X147500000Y-100098582D01*
X135775504Y-103000000D02*
X137000000Y-103000000D01*
X137000000Y-103000000D02*
X143750000Y-103000000D01*
X140540000Y-113040000D02*
X140540000Y-109570479D01*
X140540000Y-109570479D02*
X137000000Y-106030479D01*
X137000000Y-106030479D02*
X137000000Y-103000000D01*
X135000000Y-102987248D02*
X135762752Y-102987248D01*
X135762752Y-102987248D02*
X135775504Y-103000000D01*
X124799972Y-103950028D02*
X125579435Y-104729491D01*
X125579435Y-104729491D02*
X133257757Y-104729491D01*
X133257757Y-104729491D02*
X135000000Y-102987248D01*
X120000000Y-113750000D02*
X120000000Y-106004836D01*
X122054808Y-103950028D02*
X124799972Y-103950028D01*
X123827019Y-115500000D02*
X121750000Y-115500000D01*
X121750000Y-115500000D02*
X120000000Y-113750000D01*
X125580000Y-117750000D02*
X125580000Y-117252981D01*
X125580000Y-117252981D02*
X123827019Y-115500000D01*
X114080000Y-117750000D02*
X114080000Y-115905000D01*
X114080000Y-115905000D02*
X116250000Y-113735000D01*
X96010001Y-98175001D02*
X94210001Y-98175001D01*
X94210001Y-98175001D02*
X93909991Y-97874991D01*
X93909991Y-97874991D02*
X93909991Y-93090009D01*
X94500000Y-78500000D02*
X97000000Y-76000000D01*
X93909991Y-93090009D02*
X94500000Y-92500000D01*
X94500000Y-92500000D02*
X94500000Y-78500000D01*
X91750000Y-76000000D02*
X97000000Y-76000000D01*
X97000000Y-76000000D02*
X106500000Y-76000000D01*
X89250000Y-78500000D02*
X91750000Y-76000000D01*
X146000000Y-103000000D02*
X146016408Y-103000000D01*
X146016408Y-103000000D02*
X146250000Y-103233592D01*
X143750000Y-103000000D02*
X146000000Y-103000000D01*
X144098582Y-100098582D02*
X143100000Y-99100000D01*
X169670001Y-143895001D02*
X169670001Y-141355001D01*
X151700000Y-75700000D02*
X157100000Y-75700000D01*
X157100000Y-75700000D02*
X158900000Y-77500000D01*
X146300000Y-74300000D02*
X150300000Y-74300000D01*
X150300000Y-74300000D02*
X151700000Y-75700000D01*
X136199999Y-98699999D02*
X136199999Y-98780001D01*
X136199999Y-98780001D02*
X137219999Y-99800001D01*
X137219999Y-99800001D02*
X142399999Y-99800001D01*
X142399999Y-99800001D02*
X142450001Y-99749999D01*
X142450001Y-99749999D02*
X143100000Y-99100000D01*
X133800000Y-98000000D02*
X134499999Y-98699999D01*
X134499999Y-98699999D02*
X136199999Y-98699999D01*
X112100000Y-76000000D02*
X106500000Y-76000000D01*
X112100000Y-76000000D02*
X116100000Y-76000000D01*
X116100000Y-76000000D02*
X117700000Y-74400000D01*
X117885000Y-74215000D02*
X117700000Y-74400000D01*
X96010001Y-126115001D02*
X95678722Y-126115001D01*
X95678722Y-126115001D02*
X93909991Y-124346270D01*
X93909991Y-124346270D02*
X93909991Y-118795011D01*
X93909991Y-118795011D02*
X94210001Y-118495001D01*
X94210001Y-118495001D02*
X96010001Y-118495001D01*
X96010001Y-108335001D02*
X96010001Y-108260001D01*
X96010001Y-108260001D02*
X95407011Y-107657011D01*
X95407011Y-107657011D02*
X95000732Y-107657011D01*
X95000732Y-107657011D02*
X93909991Y-106566270D01*
X93909991Y-106566270D02*
X93909991Y-103555011D01*
X93909991Y-103555011D02*
X94210001Y-103255001D01*
X94210001Y-103255001D02*
X96010001Y-103255001D01*
X96010001Y-115955001D02*
X95678722Y-115955001D01*
X95678722Y-115955001D02*
X93909991Y-114186270D01*
X93909991Y-114186270D02*
X93909991Y-111175011D01*
X93909991Y-111175011D02*
X94210001Y-110875001D01*
X94210001Y-110875001D02*
X96010001Y-110875001D01*
X96010001Y-126115001D02*
X96010001Y-128655001D01*
X96010001Y-115955001D02*
X96010001Y-118495001D01*
X96010001Y-108335001D02*
X96010001Y-110875001D01*
X96010001Y-103255001D02*
X96010001Y-100715001D01*
X96010001Y-98175001D02*
X96010001Y-100715001D01*
X96010001Y-141355001D02*
X96010001Y-143895001D01*
X99750000Y-150250000D02*
X102900000Y-147100000D01*
X118000000Y-133642752D02*
X118000000Y-131620010D01*
X118000000Y-131620010D02*
X117490010Y-131620010D01*
X102900000Y-147100000D02*
X102900000Y-143047671D01*
X102900000Y-143047671D02*
X108047671Y-137900000D01*
X108047671Y-137900000D02*
X116479990Y-137900000D01*
X116479990Y-137900000D02*
X118099491Y-136280499D01*
X118099491Y-136280499D02*
X118099491Y-133742243D01*
X118099491Y-133742243D02*
X118000000Y-133642752D01*
X117490010Y-131620010D02*
X116870000Y-131000000D01*
X117250000Y-126367022D02*
X117500000Y-126617022D01*
X117500000Y-126617022D02*
X117500000Y-128000000D01*
X116870000Y-131000000D02*
X116870000Y-128630000D01*
X116870000Y-128630000D02*
X117500000Y-128000000D01*
X117250000Y-126367022D02*
X117250000Y-123500000D01*
X123040000Y-123420000D02*
X123040000Y-125370000D01*
X117250000Y-123500000D02*
X118500000Y-122250000D01*
X118500000Y-122250000D02*
X121870000Y-122250000D01*
X121870000Y-122250000D02*
X123040000Y-123420000D01*
X123040000Y-125370000D02*
X123120000Y-125370000D01*
X123120000Y-125370000D02*
X123679990Y-125929990D01*
X123679990Y-125929990D02*
X123679990Y-126507009D01*
X123679990Y-126507009D02*
X125422981Y-128250000D01*
X125422981Y-128250000D02*
X126000000Y-128250000D01*
X116870000Y-131000000D02*
X115870511Y-130000511D01*
X115870511Y-130000511D02*
X114220511Y-130000511D01*
X114220511Y-130000511D02*
X111540000Y-127320000D01*
X111540000Y-127320000D02*
X111540000Y-125370000D01*
X130620000Y-131000000D02*
X128750000Y-131000000D01*
X128750000Y-131000000D02*
X126000000Y-128250000D01*
X130620000Y-131000000D02*
X130620000Y-128380000D01*
X130620000Y-128380000D02*
X130750000Y-128250000D01*
X116000000Y-134750000D02*
X112250000Y-131000000D01*
X112250000Y-131000000D02*
X109250000Y-131000000D01*
X107753640Y-128232220D02*
X107753640Y-126616360D01*
X107753640Y-126616360D02*
X109000000Y-125370000D01*
X109250000Y-131000000D02*
X109250000Y-129728580D01*
X109250000Y-129728580D02*
X107753640Y-128232220D01*
X123500000Y-133750000D02*
X123500000Y-132000000D01*
X123500000Y-132000000D02*
X122500000Y-131000000D01*
X122500000Y-134750000D02*
X123500000Y-133750000D01*
X120380000Y-134750000D02*
X122500000Y-134750000D01*
X120500000Y-125370000D02*
X120500000Y-128160000D01*
X120500000Y-128160000D02*
X120590000Y-128250000D01*
X123000000Y-131000000D02*
X120500000Y-131000000D01*
X120500000Y-131000000D02*
X120250000Y-130750000D01*
X120250000Y-130750000D02*
X120250000Y-128590000D01*
X120250000Y-128590000D02*
X120590000Y-128250000D01*
X169670001Y-103255001D02*
X167130001Y-103255001D01*
X172160000Y-91500000D02*
X172160000Y-102565002D01*
X172160000Y-102565002D02*
X171470001Y-103255001D01*
X171470001Y-103255001D02*
X169670001Y-103255001D01*
X168409990Y-86249990D02*
X172160000Y-90000000D01*
X172160000Y-90000000D02*
X172160000Y-91500000D01*
X159549511Y-86249990D02*
X168409990Y-86249990D01*
X153000380Y-87750000D02*
X155099880Y-85650500D01*
X155099880Y-85650500D02*
X158950021Y-85650500D01*
X158950021Y-85650500D02*
X159549511Y-86249990D01*
X169670001Y-115955001D02*
X169670001Y-113415001D01*
X169670001Y-110875001D02*
X169670001Y-113415001D01*
X169670001Y-108335001D02*
X169670001Y-110875001D01*
X169670001Y-105795001D02*
X169670001Y-108335001D01*
X169670001Y-103255001D02*
X169670001Y-105795001D01*
X153000380Y-87750000D02*
X152500000Y-87750000D01*
X164000000Y-93600000D02*
X164000000Y-95013492D01*
X164000000Y-95013492D02*
X165029991Y-96043483D01*
X165029991Y-96043483D02*
X165029991Y-110574991D01*
X165029991Y-110574991D02*
X165330001Y-110875001D01*
X165330001Y-110875001D02*
X167130001Y-110875001D01*
X164000000Y-93600000D02*
X164000000Y-93000000D01*
X164000000Y-93000000D02*
X162000000Y-91000000D01*
X128250000Y-112790000D02*
X133010000Y-112790000D01*
X133160130Y-113040000D02*
X135460000Y-113040000D01*
X133010000Y-112790000D02*
X133010000Y-112889870D01*
X133010000Y-112889870D02*
X133160130Y-113040000D01*
X135000520Y-115997460D02*
X135000520Y-113499480D01*
X135000520Y-113499480D02*
X135460000Y-113040000D01*
X133904000Y-120912000D02*
X133904000Y-117093980D01*
X133904000Y-117093980D02*
X135000520Y-115997460D01*
X123750000Y-107750000D02*
X126250000Y-110250000D01*
X126250000Y-110250000D02*
X128250000Y-110250000D01*
X123750000Y-105880000D02*
X123750000Y-107750000D01*
X149500000Y-115897460D02*
X149500000Y-114790000D01*
X149500000Y-114790000D02*
X147500000Y-112790000D01*
X151750000Y-113040000D02*
X147750000Y-113040000D01*
X147750000Y-113040000D02*
X147500000Y-112790000D01*
X148750000Y-120912000D02*
X148750000Y-116647460D01*
X148750000Y-116647460D02*
X149500000Y-115897460D01*
X144250001Y-109250001D02*
X143750000Y-108750000D01*
X143750000Y-108750000D02*
X143750000Y-105630000D01*
X147500000Y-110250000D02*
X146500001Y-109250001D01*
X146500001Y-109250001D02*
X144250001Y-109250001D01*
X132050000Y-124250000D02*
X128250000Y-120450000D01*
X128250000Y-120450000D02*
X128250000Y-116586508D01*
X134044002Y-124250000D02*
X132050000Y-124250000D01*
X160688000Y-120912000D02*
X160688000Y-116925460D01*
X160688000Y-116925460D02*
X159660000Y-115897460D01*
X152352540Y-115897460D02*
X159660000Y-115897460D01*
X152352540Y-115897460D02*
X151750000Y-116500000D01*
X151750000Y-116500000D02*
X151750000Y-122544002D01*
X151750000Y-122544002D02*
X150294002Y-124000000D01*
X150294002Y-124000000D02*
X145900000Y-124000000D01*
X145900000Y-124000000D02*
X145188000Y-123288000D01*
X145188000Y-123288000D02*
X145188000Y-120912000D01*
X145188000Y-120912000D02*
X145188000Y-116024940D01*
X145188000Y-116024940D02*
X145160520Y-115997460D01*
X157500000Y-96250000D02*
X158408668Y-96250000D01*
X158408668Y-96250000D02*
X158700000Y-95958668D01*
X158700000Y-95958668D02*
X158700000Y-94000596D01*
X158700000Y-94000596D02*
X158550359Y-93850955D01*
X158550359Y-93850955D02*
X158550359Y-90519849D01*
X158550359Y-90519849D02*
X157580000Y-89549490D01*
X157580000Y-89549490D02*
X157580000Y-87750000D01*
X158330010Y-111070489D02*
X158330010Y-105830010D01*
X158330010Y-105830010D02*
X157500000Y-105000000D01*
X159660000Y-115897460D02*
X160509629Y-115047831D01*
X160509629Y-115047831D02*
X160509629Y-113250108D01*
X160509629Y-113250108D02*
X158330010Y-111070489D01*
X143750000Y-113250000D02*
X143750000Y-114586940D01*
X143750000Y-114586940D02*
X145160520Y-115997460D01*
X123750000Y-113500000D02*
X125163492Y-113500000D01*
X125163492Y-113500000D02*
X128250000Y-116586508D01*
X134044002Y-124250000D02*
X136250000Y-122044002D01*
X136250000Y-118250000D02*
X138502540Y-115997460D01*
X136250000Y-122044002D02*
X136250000Y-118250000D01*
X138502540Y-115997460D02*
X145160520Y-115997460D01*
X167250000Y-87750000D02*
X169670001Y-90170001D01*
X169670001Y-90170001D02*
X169670001Y-95635001D01*
X157580000Y-87750000D02*
X167250000Y-87750000D01*
X152500000Y-83100000D02*
X155840000Y-83100000D01*
X155840000Y-83100000D02*
X158900000Y-80040000D01*
X108380000Y-134750000D02*
X106750010Y-136379990D01*
X106750010Y-136379990D02*
X106750010Y-137076326D01*
X106750010Y-137076326D02*
X101200000Y-142626336D01*
X95600000Y-147250000D02*
X100000000Y-147250000D01*
X101200000Y-142626336D02*
X101200000Y-146050000D01*
X101200000Y-146050000D02*
X100000000Y-147250000D01*
X94670000Y-150250000D02*
X94670000Y-148180000D01*
X94670000Y-148180000D02*
X95600000Y-147250000D01*
X104830000Y-150250000D02*
X104830000Y-143239005D01*
X104830000Y-143239005D02*
X108668996Y-139400009D01*
X108668996Y-139400009D02*
X117806499Y-139400009D01*
X117806499Y-139400009D02*
X118836508Y-138370000D01*
X118836508Y-138370000D02*
X124380000Y-138370000D01*
X124380000Y-138370000D02*
X128000000Y-134750000D01*
D31*
X133200000Y-134667766D02*
X133250000Y-134617766D01*
X133250000Y-134617766D02*
X133250000Y-132850000D01*
X154200000Y-146220000D02*
X155960000Y-147980000D01*
X133200000Y-134667766D02*
X133200000Y-137600000D01*
X133200000Y-137600000D02*
X134800000Y-139200000D01*
X134800000Y-139200000D02*
X153500000Y-139200000D01*
X153500000Y-139200000D02*
X154200000Y-139900000D01*
X154200000Y-139900000D02*
X154200000Y-146220000D01*
X155960000Y-147980000D02*
X155960000Y-150250000D01*
X161040000Y-150250000D02*
X159770001Y-148980001D01*
X159770001Y-148980001D02*
X159770001Y-148470001D01*
X159770001Y-148470001D02*
X156200000Y-144900000D01*
X156200000Y-144900000D02*
X156200000Y-139500000D01*
X141500010Y-137300010D02*
X139346000Y-135146000D01*
X156200000Y-139500000D02*
X155900010Y-139200010D01*
X154004187Y-137300010D02*
X141500010Y-137300010D01*
X155900010Y-139200010D02*
X155900010Y-139195833D01*
X155900010Y-139195833D02*
X154004187Y-137300010D01*
X139346000Y-135146000D02*
X139346000Y-118880000D01*
X148750000Y-132850000D02*
X151200000Y-135300000D01*
X151200000Y-135300000D02*
X155200000Y-135300000D01*
X155200000Y-135300000D02*
X158400000Y-138500000D01*
X158400000Y-138500000D02*
X158400000Y-143710000D01*
X158400000Y-143710000D02*
X162690000Y-148000000D01*
X162690000Y-148000000D02*
X163500000Y-148000000D01*
X163500000Y-148000000D02*
X165400000Y-149900000D01*
X165400000Y-149900000D02*
X166860000Y-149900000D01*
X166860000Y-149900000D02*
X167210000Y-150250000D01*
X167210000Y-149710000D02*
X167210000Y-150250000D01*
X154846000Y-118880000D02*
X154846000Y-131346000D01*
X154846000Y-131346000D02*
X161300000Y-137800000D01*
X161300000Y-137800000D02*
X161300000Y-142600000D01*
X161300000Y-142600000D02*
X165800000Y-147100000D01*
X165800000Y-147100000D02*
X169140000Y-147100000D01*
X169140000Y-147100000D02*
X172290000Y-150250000D01*
D28*
X132250000Y-110250000D02*
X137750000Y-110250000D01*
X137750000Y-110250000D02*
X138000000Y-110500000D01*
X154290000Y-110500000D02*
X154290000Y-107420000D01*
X154290000Y-107420000D02*
X154120000Y-107250000D01*
X105750000Y-114120000D02*
X105750000Y-119750000D01*
X105750000Y-119750000D02*
X105000000Y-120500000D01*
X105000000Y-120500000D02*
X110740000Y-120500000D01*
X110740000Y-120500000D02*
X111540000Y-119700000D01*
X111540000Y-119700000D02*
X111540000Y-117750000D01*
X105000000Y-120500000D02*
X103650031Y-121849969D01*
X103650031Y-121849969D02*
X103650031Y-135096305D01*
X103650031Y-135096305D02*
X99931335Y-138815001D01*
X99931335Y-138815001D02*
X98550001Y-138815001D01*
X111250000Y-114120000D02*
X112249489Y-113120511D01*
X112249489Y-113120511D02*
X114129489Y-113120511D01*
X118250000Y-119500000D02*
X118000000Y-119750000D01*
X114129489Y-113120511D02*
X115750000Y-111500000D01*
X115750000Y-111500000D02*
X117500000Y-111500000D01*
X117500000Y-111500000D02*
X118250000Y-112250000D01*
X118250000Y-112250000D02*
X118250000Y-119500000D01*
X118000000Y-119750000D02*
X117250000Y-120500000D01*
X114750000Y-120500000D02*
X117250000Y-120500000D01*
X117250000Y-120500000D02*
X122240000Y-120500000D01*
X122240000Y-120500000D02*
X123040000Y-119700000D01*
X123040000Y-119700000D02*
X123040000Y-117750000D01*
X114750000Y-120500000D02*
X113039990Y-122210010D01*
X113039990Y-122210010D02*
X106039990Y-122210010D01*
X106039990Y-122210010D02*
X105250000Y-123000000D01*
X105250000Y-136455002D02*
X100350001Y-141355001D01*
X105250000Y-123000000D02*
X105250000Y-136455002D01*
X100350001Y-141355001D02*
X98550001Y-141355001D01*
X156380000Y-93600000D02*
X156380000Y-91630000D01*
X156380000Y-91630000D02*
X155040000Y-90290000D01*
X155380000Y-90630000D02*
X155040000Y-90290000D01*
X116500000Y-104400000D02*
X118700000Y-104400000D01*
X102500000Y-104400000D02*
X101250000Y-103150000D01*
D29*
X101250000Y-103150000D02*
X101250000Y-103000000D01*
X118700000Y-104400000D02*
X119300000Y-103800000D01*
D28*
X119300000Y-103800000D02*
X121099960Y-102000040D01*
X129030000Y-102630000D02*
X132250000Y-102630000D01*
X121099960Y-102000040D02*
X123999960Y-102000040D01*
X123999960Y-102000040D02*
X124000000Y-102000000D01*
X124000000Y-102000000D02*
X128400000Y-102000000D01*
X128400000Y-102000000D02*
X129030000Y-102630000D01*
X92409981Y-94340019D02*
X92500000Y-94250000D01*
X92500000Y-94250000D02*
X92500000Y-90500000D01*
X101250000Y-90500000D02*
X101250000Y-103000000D01*
D29*
X92459981Y-90500000D02*
X92174991Y-90500000D01*
D28*
X92750020Y-125307633D02*
X92409981Y-124967594D01*
X92409981Y-124967594D02*
X92409981Y-94340019D01*
X92750020Y-134815020D02*
X92750020Y-125307633D01*
X96010001Y-136275001D02*
X94210001Y-136275001D01*
X94210001Y-136275001D02*
X92750020Y-134815020D01*
D29*
X146500000Y-107250000D02*
X147950000Y-105800000D01*
X147950000Y-105800000D02*
X147935001Y-105785001D01*
X136619386Y-101250011D02*
X136069405Y-100700030D01*
X147935001Y-105785001D02*
X147935001Y-102424791D01*
X147935001Y-102424791D02*
X147058802Y-101548592D01*
X147058802Y-101548592D02*
X143298592Y-101548592D01*
X136069405Y-100700030D02*
X120299970Y-100700030D01*
X118500000Y-102500000D02*
X117900000Y-102500000D01*
X143298592Y-101548592D02*
X143000011Y-101250011D01*
X143000011Y-101250011D02*
X136619386Y-101250011D01*
X120299970Y-100700030D02*
X118500000Y-102500000D01*
D28*
X90700010Y-89299990D02*
X92250000Y-87750000D01*
X96010001Y-138815001D02*
X94210001Y-138815001D01*
X90700010Y-91142012D02*
X90700010Y-89299990D01*
X94210001Y-138815001D02*
X91000000Y-135605000D01*
X91000000Y-135605000D02*
X91000000Y-91442002D01*
X91000000Y-91442002D02*
X90700010Y-91142012D01*
X103250000Y-87750000D02*
X103250000Y-101550000D01*
X103250000Y-101550000D02*
X104200000Y-102500000D01*
X98550001Y-136275001D02*
X100350001Y-136275001D01*
X114750000Y-99750000D02*
X115750000Y-98750000D01*
X115750000Y-98750000D02*
X116920000Y-98750000D01*
X100350001Y-136275001D02*
X102150021Y-134474981D01*
X105262752Y-111500000D02*
X111250000Y-111500000D01*
X114750000Y-108000000D02*
X114750000Y-99750000D01*
X102150021Y-134474981D02*
X102150021Y-114612731D01*
X102150021Y-114612731D02*
X105262752Y-111500000D01*
X111250000Y-111500000D02*
X114750000Y-108000000D01*
X116920000Y-98750000D02*
X117920000Y-99750000D01*
X119599980Y-99400020D02*
X123700020Y-99400020D01*
X123700020Y-99400020D02*
X123850020Y-99250020D01*
X123850020Y-99250020D02*
X130749980Y-99250020D01*
X119150000Y-99750000D02*
X119200000Y-99700000D01*
X119200000Y-99700000D02*
X119300000Y-99700000D01*
X119300000Y-99700000D02*
X119599980Y-99400020D01*
X117920000Y-99750000D02*
X119150000Y-99750000D01*
X118070000Y-99900000D02*
X117920000Y-99750000D01*
D29*
X132200000Y-95372000D02*
X132200000Y-98500000D01*
X132200000Y-98500000D02*
X131449980Y-99250020D01*
X131449980Y-99250020D02*
X130749980Y-99250020D01*
X132210000Y-93900000D02*
X132210000Y-95362000D01*
X132210000Y-95362000D02*
X132200000Y-95372000D01*
D28*
X129670000Y-93900000D02*
X129670000Y-92338000D01*
X129670000Y-92338000D02*
X130908000Y-91100000D01*
X130908000Y-91100000D02*
X138300000Y-91100000D01*
X117920000Y-95300000D02*
X118919489Y-96299489D01*
X118919489Y-96299489D02*
X128732511Y-96299489D01*
X128732511Y-96299489D02*
X129500000Y-95532000D01*
X148600000Y-95200000D02*
X148600000Y-94139340D01*
X148600000Y-94139340D02*
X148460660Y-94000000D01*
X148460660Y-94000000D02*
X148460660Y-93960660D01*
X148460660Y-93960660D02*
X147000000Y-92500000D01*
X147000000Y-92500000D02*
X144000000Y-92500000D01*
X144000000Y-92500000D02*
X141600000Y-92500000D01*
X148500000Y-98800000D02*
X149134999Y-99434999D01*
X149134999Y-99434999D02*
X149134999Y-99734999D01*
X149134999Y-99734999D02*
X150776644Y-101376644D01*
X159830020Y-102830020D02*
X159830020Y-110449165D01*
X150776644Y-101376644D02*
X152500009Y-101376644D01*
X152500009Y-101376644D02*
X153373365Y-102250000D01*
X159830020Y-110449165D02*
X163342010Y-113961155D01*
X166798722Y-126115001D02*
X167130001Y-126115001D01*
X153373365Y-102250000D02*
X159250000Y-102250000D01*
X159250000Y-102250000D02*
X159830020Y-102830020D01*
X163342010Y-113961155D02*
X163342010Y-122658289D01*
X163342010Y-122658289D02*
X166798722Y-126115001D01*
D29*
X141000000Y-91900000D02*
X141600000Y-92500000D01*
X139800000Y-91900000D02*
X141000000Y-91900000D01*
X139000000Y-91100000D02*
X139800000Y-91900000D01*
X138300000Y-91100000D02*
X139000000Y-91100000D01*
X129670000Y-93900000D02*
X129670000Y-95362000D01*
X129670000Y-95362000D02*
X129500000Y-95532000D01*
D28*
X123320000Y-89455000D02*
X119445000Y-89455000D01*
X119445000Y-89455000D02*
X117900000Y-91000000D01*
X141100000Y-83105000D02*
X144875000Y-83105000D01*
X144875000Y-83105000D02*
X144880000Y-83100000D01*
D30*
X143150000Y-83100000D02*
X144880000Y-83100000D01*
D28*
X150600000Y-98800000D02*
X151234999Y-99434999D01*
X151234999Y-99434999D02*
X151934999Y-99434999D01*
X161121334Y-102021334D02*
X162000000Y-102900000D01*
X162000000Y-102900000D02*
X162000000Y-109800000D01*
X151934999Y-99434999D02*
X152250000Y-99750000D01*
X152250000Y-99750000D02*
X158871334Y-99750000D01*
X158871334Y-99750000D02*
X161121334Y-102000000D01*
X161121334Y-102000000D02*
X161121334Y-102021334D01*
X162000000Y-109800000D02*
X165000000Y-112800000D01*
X165000000Y-112800000D02*
X165000000Y-121776279D01*
X165000000Y-121776279D02*
X166798722Y-123575001D01*
X166798722Y-123575001D02*
X167130001Y-123575001D01*
X150600000Y-95200000D02*
X150600000Y-94139340D01*
X150600000Y-94139340D02*
X150115001Y-93654341D01*
X150115001Y-93654341D02*
X150115001Y-93615001D01*
X142855002Y-81250000D02*
X146850000Y-81250000D01*
X146850000Y-81250000D02*
X147200000Y-81600000D01*
X145600000Y-85800000D02*
X145600000Y-89100000D01*
X147200000Y-81600000D02*
X147200000Y-84200000D01*
X147200000Y-84200000D02*
X145600000Y-85800000D01*
X145600000Y-89100000D02*
X150115001Y-93615001D01*
D29*
X141100000Y-81835000D02*
X142270002Y-81835000D01*
X142270002Y-81835000D02*
X142855002Y-81250000D01*
D28*
X98550001Y-133735001D02*
X100350001Y-133735001D01*
X100350001Y-133735001D02*
X100650011Y-133434991D01*
X100650011Y-133434991D02*
X100650012Y-113991406D01*
X100650012Y-113991406D02*
X104641418Y-110000000D01*
X104641418Y-110000000D02*
X110500000Y-110000000D01*
X110500000Y-110000000D02*
X113250000Y-107250000D01*
X113250000Y-107250000D02*
X113250000Y-99250000D01*
X113250000Y-99250000D02*
X115000000Y-97500000D01*
D29*
X130940000Y-93900000D02*
X130940000Y-96931334D01*
X130940000Y-96931334D02*
X130810667Y-97060667D01*
D28*
X119298666Y-97500000D02*
X119548676Y-97750010D01*
X119548676Y-97750010D02*
X130121324Y-97750010D01*
X114812752Y-97687248D02*
X115000000Y-97500000D01*
X115000000Y-97500000D02*
X119298666Y-97500000D01*
X130121324Y-97750010D02*
X130810667Y-97060667D01*
X98881280Y-133735001D02*
X98550001Y-133735001D01*
D29*
G36*
X174375000Y-144650000D02*
X171533419Y-144650000D01*
X171601205Y-144542230D01*
X171689189Y-144227737D01*
X171456694Y-143945001D01*
X169720001Y-143945001D01*
X169720001Y-143965001D01*
X169620001Y-143965001D01*
X169620001Y-143945001D01*
X169600001Y-143945001D01*
X169600001Y-143845001D01*
X169620001Y-143845001D01*
X169620001Y-141405001D01*
X169720001Y-141405001D01*
X169720001Y-143845001D01*
X171456694Y-143845001D01*
X171689189Y-143562265D01*
X171601205Y-143247772D01*
X171224634Y-142649078D01*
X171190667Y-142625001D01*
X171224634Y-142600924D01*
X171601205Y-142002230D01*
X171689189Y-141687737D01*
X171456694Y-141405001D01*
X169720001Y-141405001D01*
X169620001Y-141405001D01*
X169600001Y-141405001D01*
X169600001Y-141305001D01*
X169620001Y-141305001D01*
X169620001Y-141285001D01*
X169720001Y-141285001D01*
X169720001Y-141305001D01*
X171456694Y-141305001D01*
X171689189Y-141022265D01*
X171601205Y-140707772D01*
X171224634Y-140109078D01*
X171217671Y-140104142D01*
X171229440Y-140096278D01*
X171622233Y-139508423D01*
X171760163Y-138815001D01*
X171622233Y-138121579D01*
X171236975Y-137545001D01*
X171622233Y-136968423D01*
X171760163Y-136275001D01*
X171622233Y-135581579D01*
X171229440Y-134993724D01*
X171217671Y-134985860D01*
X171224634Y-134980924D01*
X171601205Y-134382230D01*
X171689189Y-134067737D01*
X171456694Y-133785001D01*
X169720001Y-133785001D01*
X169720001Y-133805001D01*
X169620001Y-133805001D01*
X169620001Y-133785001D01*
X169600001Y-133785001D01*
X169600001Y-133685001D01*
X169620001Y-133685001D01*
X169620001Y-131245001D01*
X169720001Y-131245001D01*
X169720001Y-133685001D01*
X171456694Y-133685001D01*
X171689189Y-133402265D01*
X171601205Y-133087772D01*
X171224634Y-132489078D01*
X171190667Y-132465001D01*
X171224634Y-132440924D01*
X171601205Y-131842230D01*
X171689189Y-131527737D01*
X171456694Y-131245001D01*
X169720001Y-131245001D01*
X169620001Y-131245001D01*
X169600001Y-131245001D01*
X169600001Y-131145001D01*
X169620001Y-131145001D01*
X169620001Y-128705001D01*
X169720001Y-128705001D01*
X169720001Y-131145001D01*
X171456694Y-131145001D01*
X171689189Y-130862265D01*
X171601205Y-130547772D01*
X171224634Y-129949078D01*
X171190667Y-129925001D01*
X171224634Y-129900924D01*
X171601205Y-129302230D01*
X171689189Y-128987737D01*
X171456694Y-128705001D01*
X169720001Y-128705001D01*
X169620001Y-128705001D01*
X169600001Y-128705001D01*
X169600001Y-128605001D01*
X169620001Y-128605001D01*
X169620001Y-126165001D01*
X169720001Y-126165001D01*
X169720001Y-128605001D01*
X171456694Y-128605001D01*
X171689189Y-128322265D01*
X171601205Y-128007772D01*
X171224634Y-127409078D01*
X171190667Y-127385001D01*
X171224634Y-127360924D01*
X171601205Y-126762230D01*
X171689189Y-126447737D01*
X171456694Y-126165001D01*
X169720001Y-126165001D01*
X169620001Y-126165001D01*
X169600001Y-126165001D01*
X169600001Y-126065001D01*
X169620001Y-126065001D01*
X169620001Y-123625001D01*
X169720001Y-123625001D01*
X169720001Y-126065001D01*
X171456694Y-126065001D01*
X171689189Y-125782265D01*
X171601205Y-125467772D01*
X171224634Y-124869078D01*
X171190667Y-124845001D01*
X171224634Y-124820924D01*
X171601205Y-124222230D01*
X171689189Y-123907737D01*
X171456694Y-123625001D01*
X169720001Y-123625001D01*
X169620001Y-123625001D01*
X169600001Y-123625001D01*
X169600001Y-123525001D01*
X169620001Y-123525001D01*
X169620001Y-121085001D01*
X169720001Y-121085001D01*
X169720001Y-123525001D01*
X171456694Y-123525001D01*
X171689189Y-123242265D01*
X171601205Y-122927772D01*
X171224634Y-122329078D01*
X171190667Y-122305001D01*
X171224634Y-122280924D01*
X171601205Y-121682230D01*
X171689189Y-121367737D01*
X171456694Y-121085001D01*
X169720001Y-121085001D01*
X169620001Y-121085001D01*
X169600001Y-121085001D01*
X169600001Y-120985001D01*
X169620001Y-120985001D01*
X169620001Y-118545001D01*
X169720001Y-118545001D01*
X169720001Y-120985001D01*
X171456694Y-120985001D01*
X171689189Y-120702265D01*
X171601205Y-120387772D01*
X171224634Y-119789078D01*
X171190667Y-119765001D01*
X171224634Y-119740924D01*
X171601205Y-119142230D01*
X171689189Y-118827737D01*
X171456694Y-118545001D01*
X169720001Y-118545001D01*
X169620001Y-118545001D01*
X169600001Y-118545001D01*
X169600001Y-118445001D01*
X169620001Y-118445001D01*
X169620001Y-118425001D01*
X169720001Y-118425001D01*
X169720001Y-118445001D01*
X171456694Y-118445001D01*
X171689189Y-118162265D01*
X171601205Y-117847772D01*
X171224634Y-117249078D01*
X171217671Y-117244142D01*
X171229440Y-117236278D01*
X171622233Y-116648423D01*
X171760163Y-115955001D01*
X171622233Y-115261579D01*
X171236975Y-114685001D01*
X171622233Y-114108423D01*
X171760163Y-113415001D01*
X171622233Y-112721579D01*
X171236975Y-112145001D01*
X171622233Y-111568423D01*
X171760163Y-110875001D01*
X171622233Y-110181579D01*
X171236975Y-109605001D01*
X171622233Y-109028423D01*
X171760163Y-108335001D01*
X171622233Y-107641579D01*
X171236975Y-107065001D01*
X171622233Y-106488423D01*
X171760163Y-105795001D01*
X171622233Y-105101579D01*
X171357247Y-104705001D01*
X171470001Y-104705001D01*
X172024892Y-104594626D01*
X172495306Y-104280306D01*
X173185305Y-103590307D01*
X173499625Y-103119893D01*
X173610000Y-102565002D01*
X173610000Y-92236670D01*
X173769489Y-92077459D01*
X174059300Y-91379518D01*
X174059959Y-90623798D01*
X173771367Y-89925352D01*
X173551301Y-89704902D01*
X173499625Y-89445109D01*
X173185305Y-88974695D01*
X169435295Y-85224685D01*
X168964881Y-84910365D01*
X168535723Y-84825000D01*
X174375000Y-84825000D01*
X174375000Y-144650000D01*
X174375000Y-144650000D01*
G37*
X174375000Y-144650000D02*
X171533419Y-144650000D01*
X171601205Y-144542230D01*
X171689189Y-144227737D01*
X171456694Y-143945001D01*
X169720001Y-143945001D01*
X169720001Y-143965001D01*
X169620001Y-143965001D01*
X169620001Y-143945001D01*
X169600001Y-143945001D01*
X169600001Y-143845001D01*
X169620001Y-143845001D01*
X169620001Y-141405001D01*
X169720001Y-141405001D01*
X169720001Y-143845001D01*
X171456694Y-143845001D01*
X171689189Y-143562265D01*
X171601205Y-143247772D01*
X171224634Y-142649078D01*
X171190667Y-142625001D01*
X171224634Y-142600924D01*
X171601205Y-142002230D01*
X171689189Y-141687737D01*
X171456694Y-141405001D01*
X169720001Y-141405001D01*
X169620001Y-141405001D01*
X169600001Y-141405001D01*
X169600001Y-141305001D01*
X169620001Y-141305001D01*
X169620001Y-141285001D01*
X169720001Y-141285001D01*
X169720001Y-141305001D01*
X171456694Y-141305001D01*
X171689189Y-141022265D01*
X171601205Y-140707772D01*
X171224634Y-140109078D01*
X171217671Y-140104142D01*
X171229440Y-140096278D01*
X171622233Y-139508423D01*
X171760163Y-138815001D01*
X171622233Y-138121579D01*
X171236975Y-137545001D01*
X171622233Y-136968423D01*
X171760163Y-136275001D01*
X171622233Y-135581579D01*
X171229440Y-134993724D01*
X171217671Y-134985860D01*
X171224634Y-134980924D01*
X171601205Y-134382230D01*
X171689189Y-134067737D01*
X171456694Y-133785001D01*
X169720001Y-133785001D01*
X169720001Y-133805001D01*
X169620001Y-133805001D01*
X169620001Y-133785001D01*
X169600001Y-133785001D01*
X169600001Y-133685001D01*
X169620001Y-133685001D01*
X169620001Y-131245001D01*
X169720001Y-131245001D01*
X169720001Y-133685001D01*
X171456694Y-133685001D01*
X171689189Y-133402265D01*
X171601205Y-133087772D01*
X171224634Y-132489078D01*
X171190667Y-132465001D01*
X171224634Y-132440924D01*
X171601205Y-131842230D01*
X171689189Y-131527737D01*
X171456694Y-131245001D01*
X169720001Y-131245001D01*
X169620001Y-131245001D01*
X169600001Y-131245001D01*
X169600001Y-131145001D01*
X169620001Y-131145001D01*
X169620001Y-128705001D01*
X169720001Y-128705001D01*
X169720001Y-131145001D01*
X171456694Y-131145001D01*
X171689189Y-130862265D01*
X171601205Y-130547772D01*
X171224634Y-129949078D01*
X171190667Y-129925001D01*
X171224634Y-129900924D01*
X171601205Y-129302230D01*
X171689189Y-128987737D01*
X171456694Y-128705001D01*
X169720001Y-128705001D01*
X169620001Y-128705001D01*
X169600001Y-128705001D01*
X169600001Y-128605001D01*
X169620001Y-128605001D01*
X169620001Y-126165001D01*
X169720001Y-126165001D01*
X169720001Y-128605001D01*
X171456694Y-128605001D01*
X171689189Y-128322265D01*
X171601205Y-128007772D01*
X171224634Y-127409078D01*
X171190667Y-127385001D01*
X171224634Y-127360924D01*
X171601205Y-126762230D01*
X171689189Y-126447737D01*
X171456694Y-126165001D01*
X169720001Y-126165001D01*
X169620001Y-126165001D01*
X169600001Y-126165001D01*
X169600001Y-126065001D01*
X169620001Y-126065001D01*
X169620001Y-123625001D01*
X169720001Y-123625001D01*
X169720001Y-126065001D01*
X171456694Y-126065001D01*
X171689189Y-125782265D01*
X171601205Y-125467772D01*
X171224634Y-124869078D01*
X171190667Y-124845001D01*
X171224634Y-124820924D01*
X171601205Y-124222230D01*
X171689189Y-123907737D01*
X171456694Y-123625001D01*
X169720001Y-123625001D01*
X169620001Y-123625001D01*
X169600001Y-123625001D01*
X169600001Y-123525001D01*
X169620001Y-123525001D01*
X169620001Y-121085001D01*
X169720001Y-121085001D01*
X169720001Y-123525001D01*
X171456694Y-123525001D01*
X171689189Y-123242265D01*
X171601205Y-122927772D01*
X171224634Y-122329078D01*
X171190667Y-122305001D01*
X171224634Y-122280924D01*
X171601205Y-121682230D01*
X171689189Y-121367737D01*
X171456694Y-121085001D01*
X169720001Y-121085001D01*
X169620001Y-121085001D01*
X169600001Y-121085001D01*
X169600001Y-120985001D01*
X169620001Y-120985001D01*
X169620001Y-118545001D01*
X169720001Y-118545001D01*
X169720001Y-120985001D01*
X171456694Y-120985001D01*
X171689189Y-120702265D01*
X171601205Y-120387772D01*
X171224634Y-119789078D01*
X171190667Y-119765001D01*
X171224634Y-119740924D01*
X171601205Y-119142230D01*
X171689189Y-118827737D01*
X171456694Y-118545001D01*
X169720001Y-118545001D01*
X169620001Y-118545001D01*
X169600001Y-118545001D01*
X169600001Y-118445001D01*
X169620001Y-118445001D01*
X169620001Y-118425001D01*
X169720001Y-118425001D01*
X169720001Y-118445001D01*
X171456694Y-118445001D01*
X171689189Y-118162265D01*
X171601205Y-117847772D01*
X171224634Y-117249078D01*
X171217671Y-117244142D01*
X171229440Y-117236278D01*
X171622233Y-116648423D01*
X171760163Y-115955001D01*
X171622233Y-115261579D01*
X171236975Y-114685001D01*
X171622233Y-114108423D01*
X171760163Y-113415001D01*
X171622233Y-112721579D01*
X171236975Y-112145001D01*
X171622233Y-111568423D01*
X171760163Y-110875001D01*
X171622233Y-110181579D01*
X171236975Y-109605001D01*
X171622233Y-109028423D01*
X171760163Y-108335001D01*
X171622233Y-107641579D01*
X171236975Y-107065001D01*
X171622233Y-106488423D01*
X171760163Y-105795001D01*
X171622233Y-105101579D01*
X171357247Y-104705001D01*
X171470001Y-104705001D01*
X172024892Y-104594626D01*
X172495306Y-104280306D01*
X173185305Y-103590307D01*
X173499625Y-103119893D01*
X173610000Y-102565002D01*
X173610000Y-92236670D01*
X173769489Y-92077459D01*
X174059300Y-91379518D01*
X174059959Y-90623798D01*
X173771367Y-89925352D01*
X173551301Y-89704902D01*
X173499625Y-89445109D01*
X173185305Y-88974695D01*
X169435295Y-85224685D01*
X168964881Y-84910365D01*
X168535723Y-84825000D01*
X174375000Y-84825000D01*
X174375000Y-144650000D01*
G36*
X89660375Y-136159891D02*
X89974695Y-136630305D01*
X93184696Y-139840306D01*
X93655110Y-140154626D01*
X94210001Y-140265001D01*
X94357294Y-140265001D01*
X94078797Y-140707772D01*
X93990813Y-141022265D01*
X94223308Y-141305001D01*
X95960001Y-141305001D01*
X95960001Y-141285001D01*
X96060001Y-141285001D01*
X96060001Y-141305001D01*
X96080001Y-141305001D01*
X96080001Y-141405001D01*
X96060001Y-141405001D01*
X96060001Y-143845001D01*
X96080001Y-143845001D01*
X96080001Y-143945001D01*
X96060001Y-143945001D01*
X96060001Y-143965001D01*
X95960001Y-143965001D01*
X95960001Y-143945001D01*
X94223308Y-143945001D01*
X93990813Y-144227737D01*
X94078797Y-144542230D01*
X94146583Y-144650000D01*
X89625000Y-144650000D01*
X89625000Y-141687737D01*
X93990813Y-141687737D01*
X94078797Y-142002230D01*
X94455368Y-142600924D01*
X94489335Y-142625001D01*
X94455368Y-142649078D01*
X94078797Y-143247772D01*
X93990813Y-143562265D01*
X94223308Y-143845001D01*
X95960001Y-143845001D01*
X95960001Y-141405001D01*
X94223308Y-141405001D01*
X93990813Y-141687737D01*
X89625000Y-141687737D01*
X89625000Y-135982049D01*
X89660375Y-136159891D01*
X89660375Y-136159891D01*
G37*
X89660375Y-136159891D02*
X89974695Y-136630305D01*
X93184696Y-139840306D01*
X93655110Y-140154626D01*
X94210001Y-140265001D01*
X94357294Y-140265001D01*
X94078797Y-140707772D01*
X93990813Y-141022265D01*
X94223308Y-141305001D01*
X95960001Y-141305001D01*
X95960001Y-141285001D01*
X96060001Y-141285001D01*
X96060001Y-141305001D01*
X96080001Y-141305001D01*
X96080001Y-141405001D01*
X96060001Y-141405001D01*
X96060001Y-143845001D01*
X96080001Y-143845001D01*
X96080001Y-143945001D01*
X96060001Y-143945001D01*
X96060001Y-143965001D01*
X95960001Y-143965001D01*
X95960001Y-143945001D01*
X94223308Y-143945001D01*
X93990813Y-144227737D01*
X94078797Y-144542230D01*
X94146583Y-144650000D01*
X89625000Y-144650000D01*
X89625000Y-141687737D01*
X93990813Y-141687737D01*
X94078797Y-142002230D01*
X94455368Y-142600924D01*
X94489335Y-142625001D01*
X94455368Y-142649078D01*
X94078797Y-143247772D01*
X93990813Y-143562265D01*
X94223308Y-143845001D01*
X95960001Y-143845001D01*
X95960001Y-141405001D01*
X94223308Y-141405001D01*
X93990813Y-141687737D01*
X89625000Y-141687737D01*
X89625000Y-135982049D01*
X89660375Y-136159891D01*
G36*
X96060001Y-126065001D02*
X96080001Y-126065001D01*
X96080001Y-126165001D01*
X96060001Y-126165001D01*
X96060001Y-128605001D01*
X96080001Y-128605001D01*
X96080001Y-128705001D01*
X96060001Y-128705001D01*
X96060001Y-128725001D01*
X95960001Y-128725001D01*
X95960001Y-128705001D01*
X95940001Y-128705001D01*
X95940001Y-128605001D01*
X95960001Y-128605001D01*
X95960001Y-126165001D01*
X95940001Y-126165001D01*
X95940001Y-126065001D01*
X95960001Y-126065001D01*
X95960001Y-126045001D01*
X96060001Y-126045001D01*
X96060001Y-126065001D01*
X96060001Y-126065001D01*
G37*
X96060001Y-126065001D02*
X96080001Y-126065001D01*
X96080001Y-126165001D01*
X96060001Y-126165001D01*
X96060001Y-128605001D01*
X96080001Y-128605001D01*
X96080001Y-128705001D01*
X96060001Y-128705001D01*
X96060001Y-128725001D01*
X95960001Y-128725001D01*
X95960001Y-128705001D01*
X95940001Y-128705001D01*
X95940001Y-128605001D01*
X95960001Y-128605001D01*
X95960001Y-126165001D01*
X95940001Y-126165001D01*
X95940001Y-126065001D01*
X95960001Y-126065001D01*
X95960001Y-126045001D01*
X96060001Y-126045001D01*
X96060001Y-126065001D01*
G36*
X115904434Y-74020343D02*
X115895825Y-74736376D01*
X116161885Y-75401199D01*
X116186402Y-75437891D01*
X116553095Y-75476195D01*
X117629289Y-74400000D01*
X117615147Y-74385858D01*
X117685858Y-74315147D01*
X117700000Y-74329289D01*
X117714142Y-74315147D01*
X117784853Y-74385858D01*
X117770711Y-74400000D01*
X117784853Y-74414142D01*
X117714142Y-74484853D01*
X117700000Y-74470711D01*
X116623805Y-75546905D01*
X116662109Y-75913598D01*
X117320343Y-76195566D01*
X117353426Y-76195964D01*
X116875347Y-76674043D01*
X116854891Y-76660375D01*
X116300000Y-76550000D01*
X113822596Y-76550000D01*
X113895566Y-76379657D01*
X113904175Y-75663624D01*
X113638115Y-74998801D01*
X113613598Y-74962109D01*
X113246905Y-74923805D01*
X112170711Y-76000000D01*
X112184853Y-76014142D01*
X112114142Y-76084853D01*
X112100000Y-76070711D01*
X112085858Y-76084853D01*
X112015147Y-76014142D01*
X112029289Y-76000000D01*
X110953095Y-74923805D01*
X110586402Y-74962109D01*
X110304434Y-75620343D01*
X110295825Y-76336376D01*
X110381317Y-76550000D01*
X98250000Y-76550000D01*
X97695109Y-76660375D01*
X97224695Y-76974695D01*
X94984696Y-79214694D01*
X94670376Y-79685108D01*
X94560001Y-80239999D01*
X94560001Y-86100000D01*
X94562984Y-86114999D01*
X94560001Y-86129998D01*
X94560001Y-93914830D01*
X94263524Y-94105608D01*
X94023777Y-94456489D01*
X93939431Y-94873001D01*
X93939431Y-96397001D01*
X94012646Y-96786108D01*
X94242608Y-97143478D01*
X94297096Y-97180708D01*
X94078797Y-97527772D01*
X93990813Y-97842265D01*
X94223308Y-98125001D01*
X95960001Y-98125001D01*
X95960001Y-98105001D01*
X96060001Y-98105001D01*
X96060001Y-98125001D01*
X96080001Y-98125001D01*
X96080001Y-98225001D01*
X96060001Y-98225001D01*
X96060001Y-100665001D01*
X96080001Y-100665001D01*
X96080001Y-100765001D01*
X96060001Y-100765001D01*
X96060001Y-103205001D01*
X96080001Y-103205001D01*
X96080001Y-103305001D01*
X96060001Y-103305001D01*
X96060001Y-103325001D01*
X95960001Y-103325001D01*
X95960001Y-103305001D01*
X94223308Y-103305001D01*
X93990813Y-103587737D01*
X94078797Y-103902230D01*
X94455368Y-104500924D01*
X94462331Y-104505860D01*
X94450562Y-104513724D01*
X94057769Y-105101579D01*
X93919839Y-105795001D01*
X94057769Y-106488423D01*
X94450562Y-107076278D01*
X94462331Y-107084142D01*
X94455368Y-107089078D01*
X94078797Y-107687772D01*
X93990813Y-108002265D01*
X94223308Y-108285001D01*
X95960001Y-108285001D01*
X95960001Y-108265001D01*
X96060001Y-108265001D01*
X96060001Y-108285001D01*
X96080001Y-108285001D01*
X96080001Y-108385001D01*
X96060001Y-108385001D01*
X96060001Y-110825001D01*
X96080001Y-110825001D01*
X96080001Y-110925001D01*
X96060001Y-110925001D01*
X96060001Y-110945001D01*
X95960001Y-110945001D01*
X95960001Y-110925001D01*
X94223308Y-110925001D01*
X93990813Y-111207737D01*
X94078797Y-111522230D01*
X94455368Y-112120924D01*
X94462331Y-112125860D01*
X94450562Y-112133724D01*
X94057769Y-112721579D01*
X93919839Y-113415001D01*
X94057769Y-114108423D01*
X94450562Y-114696278D01*
X94462331Y-114704142D01*
X94455368Y-114709078D01*
X94078797Y-115307772D01*
X93990813Y-115622265D01*
X94223308Y-115905001D01*
X95960001Y-115905001D01*
X95960001Y-115885001D01*
X96060001Y-115885001D01*
X96060001Y-115905001D01*
X96080001Y-115905001D01*
X96080001Y-116005001D01*
X96060001Y-116005001D01*
X96060001Y-118445001D01*
X96080001Y-118445001D01*
X96080001Y-118545001D01*
X96060001Y-118545001D01*
X96060001Y-118565001D01*
X95960001Y-118565001D01*
X95960001Y-118545001D01*
X94223308Y-118545001D01*
X93990813Y-118827737D01*
X94078797Y-119142230D01*
X94455368Y-119740924D01*
X94462331Y-119745860D01*
X94450562Y-119753724D01*
X94057769Y-120341579D01*
X93919839Y-121035001D01*
X94057769Y-121728423D01*
X94443027Y-122305001D01*
X94057769Y-122881579D01*
X93919839Y-123575001D01*
X94057769Y-124268423D01*
X94450562Y-124856278D01*
X94462331Y-124864142D01*
X94455368Y-124869078D01*
X94195095Y-125282874D01*
X94089645Y-124752742D01*
X93859981Y-124409025D01*
X93859981Y-116287737D01*
X93990813Y-116287737D01*
X94078797Y-116602230D01*
X94455368Y-117200924D01*
X94489335Y-117225001D01*
X94455368Y-117249078D01*
X94078797Y-117847772D01*
X93990813Y-118162265D01*
X94223308Y-118445001D01*
X95960001Y-118445001D01*
X95960001Y-116005001D01*
X94223308Y-116005001D01*
X93990813Y-116287737D01*
X93859981Y-116287737D01*
X93859981Y-108667737D01*
X93990813Y-108667737D01*
X94078797Y-108982230D01*
X94455368Y-109580924D01*
X94489335Y-109605001D01*
X94455368Y-109629078D01*
X94078797Y-110227772D01*
X93990813Y-110542265D01*
X94223308Y-110825001D01*
X95960001Y-110825001D01*
X95960001Y-108385001D01*
X94223308Y-108385001D01*
X93990813Y-108667737D01*
X93859981Y-108667737D01*
X93859981Y-101047737D01*
X93990813Y-101047737D01*
X94078797Y-101362230D01*
X94455368Y-101960924D01*
X94489335Y-101985001D01*
X94455368Y-102009078D01*
X94078797Y-102607772D01*
X93990813Y-102922265D01*
X94223308Y-103205001D01*
X95960001Y-103205001D01*
X95960001Y-100765001D01*
X94223308Y-100765001D01*
X93990813Y-101047737D01*
X93859981Y-101047737D01*
X93859981Y-98507737D01*
X93990813Y-98507737D01*
X94078797Y-98822230D01*
X94455368Y-99420924D01*
X94489335Y-99445001D01*
X94455368Y-99469078D01*
X94078797Y-100067772D01*
X93990813Y-100382265D01*
X94223308Y-100665001D01*
X95960001Y-100665001D01*
X95960001Y-98225001D01*
X94223308Y-98225001D01*
X93990813Y-98507737D01*
X93859981Y-98507737D01*
X93859981Y-94702555D01*
X93950000Y-94250000D01*
X93950000Y-91595894D01*
X94025076Y-91520949D01*
X94299687Y-90859613D01*
X94300312Y-90143529D01*
X94026855Y-89481714D01*
X93545803Y-88999822D01*
X93775076Y-88770949D01*
X94049687Y-88109613D01*
X94050312Y-87393529D01*
X93776855Y-86731714D01*
X93270949Y-86224924D01*
X92609613Y-85950313D01*
X91893529Y-85949688D01*
X91231714Y-86223145D01*
X90724924Y-86729051D01*
X90450313Y-87390387D01*
X90450218Y-87499172D01*
X89674705Y-88274685D01*
X89625000Y-88349074D01*
X89625000Y-74853095D01*
X111023805Y-74853095D01*
X112100000Y-75929289D01*
X113176195Y-74853095D01*
X113137891Y-74486402D01*
X112479657Y-74204434D01*
X111763624Y-74195825D01*
X111098801Y-74461885D01*
X111062109Y-74486402D01*
X111023805Y-74853095D01*
X89625000Y-74853095D01*
X89625000Y-73925000D01*
X115945276Y-73925000D01*
X115904434Y-74020343D01*
X115904434Y-74020343D01*
G37*
X115904434Y-74020343D02*
X115895825Y-74736376D01*
X116161885Y-75401199D01*
X116186402Y-75437891D01*
X116553095Y-75476195D01*
X117629289Y-74400000D01*
X117615147Y-74385858D01*
X117685858Y-74315147D01*
X117700000Y-74329289D01*
X117714142Y-74315147D01*
X117784853Y-74385858D01*
X117770711Y-74400000D01*
X117784853Y-74414142D01*
X117714142Y-74484853D01*
X117700000Y-74470711D01*
X116623805Y-75546905D01*
X116662109Y-75913598D01*
X117320343Y-76195566D01*
X117353426Y-76195964D01*
X116875347Y-76674043D01*
X116854891Y-76660375D01*
X116300000Y-76550000D01*
X113822596Y-76550000D01*
X113895566Y-76379657D01*
X113904175Y-75663624D01*
X113638115Y-74998801D01*
X113613598Y-74962109D01*
X113246905Y-74923805D01*
X112170711Y-76000000D01*
X112184853Y-76014142D01*
X112114142Y-76084853D01*
X112100000Y-76070711D01*
X112085858Y-76084853D01*
X112015147Y-76014142D01*
X112029289Y-76000000D01*
X110953095Y-74923805D01*
X110586402Y-74962109D01*
X110304434Y-75620343D01*
X110295825Y-76336376D01*
X110381317Y-76550000D01*
X98250000Y-76550000D01*
X97695109Y-76660375D01*
X97224695Y-76974695D01*
X94984696Y-79214694D01*
X94670376Y-79685108D01*
X94560001Y-80239999D01*
X94560001Y-86100000D01*
X94562984Y-86114999D01*
X94560001Y-86129998D01*
X94560001Y-93914830D01*
X94263524Y-94105608D01*
X94023777Y-94456489D01*
X93939431Y-94873001D01*
X93939431Y-96397001D01*
X94012646Y-96786108D01*
X94242608Y-97143478D01*
X94297096Y-97180708D01*
X94078797Y-97527772D01*
X93990813Y-97842265D01*
X94223308Y-98125001D01*
X95960001Y-98125001D01*
X95960001Y-98105001D01*
X96060001Y-98105001D01*
X96060001Y-98125001D01*
X96080001Y-98125001D01*
X96080001Y-98225001D01*
X96060001Y-98225001D01*
X96060001Y-100665001D01*
X96080001Y-100665001D01*
X96080001Y-100765001D01*
X96060001Y-100765001D01*
X96060001Y-103205001D01*
X96080001Y-103205001D01*
X96080001Y-103305001D01*
X96060001Y-103305001D01*
X96060001Y-103325001D01*
X95960001Y-103325001D01*
X95960001Y-103305001D01*
X94223308Y-103305001D01*
X93990813Y-103587737D01*
X94078797Y-103902230D01*
X94455368Y-104500924D01*
X94462331Y-104505860D01*
X94450562Y-104513724D01*
X94057769Y-105101579D01*
X93919839Y-105795001D01*
X94057769Y-106488423D01*
X94450562Y-107076278D01*
X94462331Y-107084142D01*
X94455368Y-107089078D01*
X94078797Y-107687772D01*
X93990813Y-108002265D01*
X94223308Y-108285001D01*
X95960001Y-108285001D01*
X95960001Y-108265001D01*
X96060001Y-108265001D01*
X96060001Y-108285001D01*
X96080001Y-108285001D01*
X96080001Y-108385001D01*
X96060001Y-108385001D01*
X96060001Y-110825001D01*
X96080001Y-110825001D01*
X96080001Y-110925001D01*
X96060001Y-110925001D01*
X96060001Y-110945001D01*
X95960001Y-110945001D01*
X95960001Y-110925001D01*
X94223308Y-110925001D01*
X93990813Y-111207737D01*
X94078797Y-111522230D01*
X94455368Y-112120924D01*
X94462331Y-112125860D01*
X94450562Y-112133724D01*
X94057769Y-112721579D01*
X93919839Y-113415001D01*
X94057769Y-114108423D01*
X94450562Y-114696278D01*
X94462331Y-114704142D01*
X94455368Y-114709078D01*
X94078797Y-115307772D01*
X93990813Y-115622265D01*
X94223308Y-115905001D01*
X95960001Y-115905001D01*
X95960001Y-115885001D01*
X96060001Y-115885001D01*
X96060001Y-115905001D01*
X96080001Y-115905001D01*
X96080001Y-116005001D01*
X96060001Y-116005001D01*
X96060001Y-118445001D01*
X96080001Y-118445001D01*
X96080001Y-118545001D01*
X96060001Y-118545001D01*
X96060001Y-118565001D01*
X95960001Y-118565001D01*
X95960001Y-118545001D01*
X94223308Y-118545001D01*
X93990813Y-118827737D01*
X94078797Y-119142230D01*
X94455368Y-119740924D01*
X94462331Y-119745860D01*
X94450562Y-119753724D01*
X94057769Y-120341579D01*
X93919839Y-121035001D01*
X94057769Y-121728423D01*
X94443027Y-122305001D01*
X94057769Y-122881579D01*
X93919839Y-123575001D01*
X94057769Y-124268423D01*
X94450562Y-124856278D01*
X94462331Y-124864142D01*
X94455368Y-124869078D01*
X94195095Y-125282874D01*
X94089645Y-124752742D01*
X93859981Y-124409025D01*
X93859981Y-116287737D01*
X93990813Y-116287737D01*
X94078797Y-116602230D01*
X94455368Y-117200924D01*
X94489335Y-117225001D01*
X94455368Y-117249078D01*
X94078797Y-117847772D01*
X93990813Y-118162265D01*
X94223308Y-118445001D01*
X95960001Y-118445001D01*
X95960001Y-116005001D01*
X94223308Y-116005001D01*
X93990813Y-116287737D01*
X93859981Y-116287737D01*
X93859981Y-108667737D01*
X93990813Y-108667737D01*
X94078797Y-108982230D01*
X94455368Y-109580924D01*
X94489335Y-109605001D01*
X94455368Y-109629078D01*
X94078797Y-110227772D01*
X93990813Y-110542265D01*
X94223308Y-110825001D01*
X95960001Y-110825001D01*
X95960001Y-108385001D01*
X94223308Y-108385001D01*
X93990813Y-108667737D01*
X93859981Y-108667737D01*
X93859981Y-101047737D01*
X93990813Y-101047737D01*
X94078797Y-101362230D01*
X94455368Y-101960924D01*
X94489335Y-101985001D01*
X94455368Y-102009078D01*
X94078797Y-102607772D01*
X93990813Y-102922265D01*
X94223308Y-103205001D01*
X95960001Y-103205001D01*
X95960001Y-100765001D01*
X94223308Y-100765001D01*
X93990813Y-101047737D01*
X93859981Y-101047737D01*
X93859981Y-98507737D01*
X93990813Y-98507737D01*
X94078797Y-98822230D01*
X94455368Y-99420924D01*
X94489335Y-99445001D01*
X94455368Y-99469078D01*
X94078797Y-100067772D01*
X93990813Y-100382265D01*
X94223308Y-100665001D01*
X95960001Y-100665001D01*
X95960001Y-98225001D01*
X94223308Y-98225001D01*
X93990813Y-98507737D01*
X93859981Y-98507737D01*
X93859981Y-94702555D01*
X93950000Y-94250000D01*
X93950000Y-91595894D01*
X94025076Y-91520949D01*
X94299687Y-90859613D01*
X94300312Y-90143529D01*
X94026855Y-89481714D01*
X93545803Y-88999822D01*
X93775076Y-88770949D01*
X94049687Y-88109613D01*
X94050312Y-87393529D01*
X93776855Y-86731714D01*
X93270949Y-86224924D01*
X92609613Y-85950313D01*
X91893529Y-85949688D01*
X91231714Y-86223145D01*
X90724924Y-86729051D01*
X90450313Y-87390387D01*
X90450218Y-87499172D01*
X89674705Y-88274685D01*
X89625000Y-88349074D01*
X89625000Y-74853095D01*
X111023805Y-74853095D01*
X112100000Y-75929289D01*
X113176195Y-74853095D01*
X113137891Y-74486402D01*
X112479657Y-74204434D01*
X111763624Y-74195825D01*
X111098801Y-74461885D01*
X111062109Y-74486402D01*
X111023805Y-74853095D01*
X89625000Y-74853095D01*
X89625000Y-73925000D01*
X115945276Y-73925000D01*
X115904434Y-74020343D01*
G36*
X125630000Y-117700000D02*
X125650000Y-117700000D01*
X125650000Y-117800000D01*
X125630000Y-117800000D01*
X125630000Y-119686712D01*
X125918682Y-119918734D01*
X126241770Y-119828311D01*
X126800000Y-119476750D01*
X126800000Y-120450000D01*
X126910375Y-121004891D01*
X127224695Y-121475305D01*
X128399390Y-122650000D01*
X124235894Y-122650000D01*
X124065305Y-122394695D01*
X123223709Y-121553099D01*
X123265305Y-121525305D01*
X124065305Y-120725305D01*
X124379625Y-120254891D01*
X124490000Y-119700000D01*
X124490000Y-119558621D01*
X124918230Y-119828311D01*
X125241318Y-119918734D01*
X125530000Y-119686712D01*
X125530000Y-117800000D01*
X125510000Y-117800000D01*
X125510000Y-117700000D01*
X125530000Y-117700000D01*
X125530000Y-117680000D01*
X125630000Y-117680000D01*
X125630000Y-117700000D01*
X125630000Y-117700000D01*
G37*
X125630000Y-117700000D02*
X125650000Y-117700000D01*
X125650000Y-117800000D01*
X125630000Y-117800000D01*
X125630000Y-119686712D01*
X125918682Y-119918734D01*
X126241770Y-119828311D01*
X126800000Y-119476750D01*
X126800000Y-120450000D01*
X126910375Y-121004891D01*
X127224695Y-121475305D01*
X128399390Y-122650000D01*
X124235894Y-122650000D01*
X124065305Y-122394695D01*
X123223709Y-121553099D01*
X123265305Y-121525305D01*
X124065305Y-120725305D01*
X124379625Y-120254891D01*
X124490000Y-119700000D01*
X124490000Y-119558621D01*
X124918230Y-119828311D01*
X125241318Y-119918734D01*
X125530000Y-119686712D01*
X125530000Y-117800000D01*
X125510000Y-117800000D01*
X125510000Y-117700000D01*
X125530000Y-117700000D01*
X125530000Y-117680000D01*
X125630000Y-117680000D01*
X125630000Y-117700000D01*
G36*
X116800000Y-118899390D02*
X116649390Y-119050000D01*
X115631389Y-119050000D01*
X115770043Y-118854158D01*
X115930000Y-118150000D01*
X115930000Y-117800000D01*
X114130000Y-117800000D01*
X114130000Y-117820000D01*
X114030000Y-117820000D01*
X114030000Y-117800000D01*
X114010000Y-117800000D01*
X114010000Y-117700000D01*
X114030000Y-117700000D01*
X114030000Y-115813288D01*
X114130000Y-115813288D01*
X114130000Y-117700000D01*
X115930000Y-117700000D01*
X115930000Y-117350000D01*
X115770043Y-116645842D01*
X115352792Y-116056497D01*
X114741770Y-115671689D01*
X114418682Y-115581266D01*
X114130000Y-115813288D01*
X114030000Y-115813288D01*
X113741318Y-115581266D01*
X113418230Y-115671689D01*
X112834251Y-116039466D01*
X112471162Y-115796858D01*
X112986460Y-115282459D01*
X113282087Y-114570511D01*
X114129489Y-114570511D01*
X114684380Y-114460136D01*
X115154794Y-114145816D01*
X116350610Y-112950000D01*
X116800000Y-112950000D01*
X116800000Y-118899390D01*
X116800000Y-118899390D01*
G37*
X116800000Y-118899390D02*
X116649390Y-119050000D01*
X115631389Y-119050000D01*
X115770043Y-118854158D01*
X115930000Y-118150000D01*
X115930000Y-117800000D01*
X114130000Y-117800000D01*
X114130000Y-117820000D01*
X114030000Y-117820000D01*
X114030000Y-117800000D01*
X114010000Y-117800000D01*
X114010000Y-117700000D01*
X114030000Y-117700000D01*
X114030000Y-115813288D01*
X114130000Y-115813288D01*
X114130000Y-117700000D01*
X115930000Y-117700000D01*
X115930000Y-117350000D01*
X115770043Y-116645842D01*
X115352792Y-116056497D01*
X114741770Y-115671689D01*
X114418682Y-115581266D01*
X114130000Y-115813288D01*
X114030000Y-115813288D01*
X113741318Y-115581266D01*
X113418230Y-115671689D01*
X112834251Y-116039466D01*
X112471162Y-115796858D01*
X112986460Y-115282459D01*
X113282087Y-114570511D01*
X114129489Y-114570511D01*
X114684380Y-114460136D01*
X115154794Y-114145816D01*
X116350610Y-112950000D01*
X116800000Y-112950000D01*
X116800000Y-118899390D01*
G36*
X135629437Y-102239961D02*
X136083630Y-102543443D01*
X136619386Y-102650011D01*
X142475469Y-102650011D01*
X142574631Y-102716269D01*
X142762835Y-102842023D01*
X143298592Y-102948592D01*
X146478904Y-102948592D01*
X146535001Y-103004690D01*
X146535001Y-105200539D01*
X146094120Y-105200155D01*
X145799760Y-105321782D01*
X145799845Y-105224120D01*
X145488486Y-104470574D01*
X144912459Y-103893540D01*
X144159457Y-103580866D01*
X143344120Y-103580155D01*
X142590574Y-103891514D01*
X142013540Y-104467541D01*
X141700866Y-105220543D01*
X141700155Y-106035880D01*
X142011514Y-106789426D01*
X142300000Y-107078416D01*
X142300000Y-108750000D01*
X142410375Y-109304891D01*
X142724695Y-109775305D01*
X143224696Y-110275306D01*
X143695110Y-110589626D01*
X144250001Y-110700001D01*
X145467834Y-110700001D01*
X145658559Y-111161592D01*
X145513776Y-111373488D01*
X145429430Y-111790000D01*
X145429430Y-112031415D01*
X144912459Y-111513540D01*
X144159457Y-111200866D01*
X143344120Y-111200155D01*
X142590574Y-111511514D01*
X142496090Y-111605833D01*
X141870880Y-111165652D01*
X141090380Y-110990510D01*
X140590000Y-110990510D01*
X140590000Y-112990000D01*
X140610000Y-112990000D01*
X140610000Y-113090000D01*
X140590000Y-113090000D01*
X140590000Y-113110000D01*
X140490000Y-113110000D01*
X140490000Y-113090000D01*
X140470000Y-113090000D01*
X140470000Y-112990000D01*
X140490000Y-112990000D01*
X140490000Y-110990510D01*
X140049490Y-110990510D01*
X140049490Y-109949665D01*
X139893482Y-109165359D01*
X139449208Y-108500457D01*
X138784306Y-108056183D01*
X138000000Y-107900175D01*
X137215694Y-108056183D01*
X136550792Y-108500457D01*
X136350643Y-108800000D01*
X133698419Y-108800000D01*
X133412459Y-108513540D01*
X132659457Y-108200866D01*
X131844120Y-108200155D01*
X131090574Y-108511514D01*
X130513540Y-109087541D01*
X130250013Y-109722183D01*
X129988919Y-109090285D01*
X129412748Y-108513108D01*
X128659559Y-108200357D01*
X127844019Y-108199645D01*
X127090285Y-108511081D01*
X126825757Y-108775147D01*
X125289593Y-107238983D01*
X125486460Y-107042459D01*
X125799134Y-106289457D01*
X125799845Y-105474120D01*
X125488486Y-104720574D01*
X124912459Y-104143540D01*
X124159457Y-103830866D01*
X123344120Y-103830155D01*
X122590574Y-104141514D01*
X122013540Y-104717541D01*
X121700866Y-105470543D01*
X121700155Y-106285880D01*
X122011514Y-107039426D01*
X122300000Y-107328416D01*
X122300000Y-107750000D01*
X122410375Y-108304891D01*
X122724695Y-108775305D01*
X125224695Y-111275305D01*
X125695109Y-111589625D01*
X126199682Y-111689991D01*
X126179430Y-111790000D01*
X126179430Y-112468436D01*
X125718383Y-112160375D01*
X125207073Y-112058669D01*
X124912459Y-111763540D01*
X124159457Y-111450866D01*
X123344120Y-111450155D01*
X122590574Y-111761514D01*
X122013540Y-112337541D01*
X121700866Y-113090543D01*
X121700155Y-113905880D01*
X122011514Y-114659426D01*
X122587541Y-115236460D01*
X123340543Y-115549134D01*
X124155880Y-115549845D01*
X124868343Y-115255461D01*
X125204463Y-115591581D01*
X124918230Y-115671689D01*
X124334251Y-116039466D01*
X123747964Y-115647722D01*
X123040000Y-115506899D01*
X122332036Y-115647722D01*
X121770000Y-116023261D01*
X121207964Y-115647722D01*
X120500000Y-115506899D01*
X119792036Y-115647722D01*
X119700000Y-115709218D01*
X119700000Y-112250000D01*
X119589625Y-111695109D01*
X119275305Y-111224695D01*
X118525305Y-110474695D01*
X118054891Y-110160375D01*
X117500000Y-110050000D01*
X115750000Y-110050000D01*
X115195109Y-110160375D01*
X114903995Y-110354891D01*
X114724695Y-110474695D01*
X113528879Y-111670511D01*
X113130099Y-111670511D01*
X115775305Y-109025305D01*
X116089625Y-108554891D01*
X116200000Y-108000000D01*
X116200000Y-106199739D01*
X116856471Y-106200312D01*
X117518286Y-105926855D01*
X117595275Y-105850000D01*
X118700000Y-105850000D01*
X119254891Y-105739625D01*
X119725305Y-105425305D01*
X119867694Y-105212204D01*
X120112205Y-104967693D01*
X120325305Y-104825305D01*
X121700570Y-103450040D01*
X123999960Y-103450040D01*
X124000161Y-103450000D01*
X127799390Y-103450000D01*
X128004695Y-103655305D01*
X128475109Y-103969625D01*
X128567172Y-103987938D01*
X129030000Y-104080001D01*
X129030005Y-104080000D01*
X130801581Y-104080000D01*
X131087541Y-104366460D01*
X131840543Y-104679134D01*
X132655880Y-104679845D01*
X133409426Y-104368486D01*
X133986460Y-103792459D01*
X134299134Y-103039457D01*
X134299845Y-102224120D01*
X134248572Y-102100030D01*
X135489506Y-102100030D01*
X135629437Y-102239961D01*
X135629437Y-102239961D01*
G37*
X135629437Y-102239961D02*
X136083630Y-102543443D01*
X136619386Y-102650011D01*
X142475469Y-102650011D01*
X142574631Y-102716269D01*
X142762835Y-102842023D01*
X143298592Y-102948592D01*
X146478904Y-102948592D01*
X146535001Y-103004690D01*
X146535001Y-105200539D01*
X146094120Y-105200155D01*
X145799760Y-105321782D01*
X145799845Y-105224120D01*
X145488486Y-104470574D01*
X144912459Y-103893540D01*
X144159457Y-103580866D01*
X143344120Y-103580155D01*
X142590574Y-103891514D01*
X142013540Y-104467541D01*
X141700866Y-105220543D01*
X141700155Y-106035880D01*
X142011514Y-106789426D01*
X142300000Y-107078416D01*
X142300000Y-108750000D01*
X142410375Y-109304891D01*
X142724695Y-109775305D01*
X143224696Y-110275306D01*
X143695110Y-110589626D01*
X144250001Y-110700001D01*
X145467834Y-110700001D01*
X145658559Y-111161592D01*
X145513776Y-111373488D01*
X145429430Y-111790000D01*
X145429430Y-112031415D01*
X144912459Y-111513540D01*
X144159457Y-111200866D01*
X143344120Y-111200155D01*
X142590574Y-111511514D01*
X142496090Y-111605833D01*
X141870880Y-111165652D01*
X141090380Y-110990510D01*
X140590000Y-110990510D01*
X140590000Y-112990000D01*
X140610000Y-112990000D01*
X140610000Y-113090000D01*
X140590000Y-113090000D01*
X140590000Y-113110000D01*
X140490000Y-113110000D01*
X140490000Y-113090000D01*
X140470000Y-113090000D01*
X140470000Y-112990000D01*
X140490000Y-112990000D01*
X140490000Y-110990510D01*
X140049490Y-110990510D01*
X140049490Y-109949665D01*
X139893482Y-109165359D01*
X139449208Y-108500457D01*
X138784306Y-108056183D01*
X138000000Y-107900175D01*
X137215694Y-108056183D01*
X136550792Y-108500457D01*
X136350643Y-108800000D01*
X133698419Y-108800000D01*
X133412459Y-108513540D01*
X132659457Y-108200866D01*
X131844120Y-108200155D01*
X131090574Y-108511514D01*
X130513540Y-109087541D01*
X130250013Y-109722183D01*
X129988919Y-109090285D01*
X129412748Y-108513108D01*
X128659559Y-108200357D01*
X127844019Y-108199645D01*
X127090285Y-108511081D01*
X126825757Y-108775147D01*
X125289593Y-107238983D01*
X125486460Y-107042459D01*
X125799134Y-106289457D01*
X125799845Y-105474120D01*
X125488486Y-104720574D01*
X124912459Y-104143540D01*
X124159457Y-103830866D01*
X123344120Y-103830155D01*
X122590574Y-104141514D01*
X122013540Y-104717541D01*
X121700866Y-105470543D01*
X121700155Y-106285880D01*
X122011514Y-107039426D01*
X122300000Y-107328416D01*
X122300000Y-107750000D01*
X122410375Y-108304891D01*
X122724695Y-108775305D01*
X125224695Y-111275305D01*
X125695109Y-111589625D01*
X126199682Y-111689991D01*
X126179430Y-111790000D01*
X126179430Y-112468436D01*
X125718383Y-112160375D01*
X125207073Y-112058669D01*
X124912459Y-111763540D01*
X124159457Y-111450866D01*
X123344120Y-111450155D01*
X122590574Y-111761514D01*
X122013540Y-112337541D01*
X121700866Y-113090543D01*
X121700155Y-113905880D01*
X122011514Y-114659426D01*
X122587541Y-115236460D01*
X123340543Y-115549134D01*
X124155880Y-115549845D01*
X124868343Y-115255461D01*
X125204463Y-115591581D01*
X124918230Y-115671689D01*
X124334251Y-116039466D01*
X123747964Y-115647722D01*
X123040000Y-115506899D01*
X122332036Y-115647722D01*
X121770000Y-116023261D01*
X121207964Y-115647722D01*
X120500000Y-115506899D01*
X119792036Y-115647722D01*
X119700000Y-115709218D01*
X119700000Y-112250000D01*
X119589625Y-111695109D01*
X119275305Y-111224695D01*
X118525305Y-110474695D01*
X118054891Y-110160375D01*
X117500000Y-110050000D01*
X115750000Y-110050000D01*
X115195109Y-110160375D01*
X114903995Y-110354891D01*
X114724695Y-110474695D01*
X113528879Y-111670511D01*
X113130099Y-111670511D01*
X115775305Y-109025305D01*
X116089625Y-108554891D01*
X116200000Y-108000000D01*
X116200000Y-106199739D01*
X116856471Y-106200312D01*
X117518286Y-105926855D01*
X117595275Y-105850000D01*
X118700000Y-105850000D01*
X119254891Y-105739625D01*
X119725305Y-105425305D01*
X119867694Y-105212204D01*
X120112205Y-104967693D01*
X120325305Y-104825305D01*
X121700570Y-103450040D01*
X123999960Y-103450040D01*
X124000161Y-103450000D01*
X127799390Y-103450000D01*
X128004695Y-103655305D01*
X128475109Y-103969625D01*
X128567172Y-103987938D01*
X129030000Y-104080001D01*
X129030005Y-104080000D01*
X130801581Y-104080000D01*
X131087541Y-104366460D01*
X131840543Y-104679134D01*
X132655880Y-104679845D01*
X133409426Y-104368486D01*
X133986460Y-103792459D01*
X134299134Y-103039457D01*
X134299845Y-102224120D01*
X134248572Y-102100030D01*
X135489506Y-102100030D01*
X135629437Y-102239961D01*
G36*
X149751339Y-102401949D02*
X150221753Y-102716269D01*
X150313816Y-102734582D01*
X150776644Y-102826645D01*
X150776649Y-102826644D01*
X151899399Y-102826644D01*
X152348060Y-103275305D01*
X152818474Y-103589625D01*
X153373365Y-103700000D01*
X156254463Y-103700000D01*
X155974924Y-103979051D01*
X155700313Y-104640387D01*
X155699688Y-105356471D01*
X155973145Y-106018286D01*
X156479051Y-106525076D01*
X156880010Y-106691569D01*
X156880010Y-110990510D01*
X156880000Y-110990510D01*
X156880000Y-112990000D01*
X156900000Y-112990000D01*
X156900000Y-113090000D01*
X156880000Y-113090000D01*
X156880000Y-113110000D01*
X156780000Y-113110000D01*
X156780000Y-113090000D01*
X156760000Y-113090000D01*
X156760000Y-112990000D01*
X156780000Y-112990000D01*
X156780000Y-110990510D01*
X156339490Y-110990510D01*
X156339490Y-109949665D01*
X156183482Y-109165359D01*
X155750852Y-108517883D01*
X155856460Y-108412459D01*
X156169134Y-107659457D01*
X156169845Y-106844120D01*
X155858486Y-106090574D01*
X155282459Y-105513540D01*
X154529457Y-105200866D01*
X153714120Y-105200155D01*
X152960574Y-105511514D01*
X152383540Y-106087541D01*
X152070866Y-106840543D01*
X152070155Y-107655880D01*
X152381514Y-108409426D01*
X152693075Y-108721531D01*
X152396518Y-109165359D01*
X152240510Y-109949665D01*
X152240510Y-110990510D01*
X151199665Y-110990510D01*
X150415359Y-111146518D01*
X149751642Y-111590000D01*
X149532938Y-111590000D01*
X149497355Y-111400893D01*
X149342039Y-111159526D01*
X149549643Y-110659559D01*
X149550355Y-109844019D01*
X149238919Y-109090285D01*
X148662748Y-108513108D01*
X148263505Y-108347328D01*
X148549134Y-107659457D01*
X148549552Y-107180347D01*
X148939947Y-106789952D01*
X148939950Y-106789950D01*
X149243431Y-106335757D01*
X149261112Y-106246869D01*
X149350000Y-105800000D01*
X149335001Y-105724595D01*
X149335001Y-102424791D01*
X149319151Y-102345109D01*
X149228433Y-101889035D01*
X149208312Y-101858922D01*
X149751339Y-102401949D01*
X149751339Y-102401949D01*
G37*
X149751339Y-102401949D02*
X150221753Y-102716269D01*
X150313816Y-102734582D01*
X150776644Y-102826645D01*
X150776649Y-102826644D01*
X151899399Y-102826644D01*
X152348060Y-103275305D01*
X152818474Y-103589625D01*
X153373365Y-103700000D01*
X156254463Y-103700000D01*
X155974924Y-103979051D01*
X155700313Y-104640387D01*
X155699688Y-105356471D01*
X155973145Y-106018286D01*
X156479051Y-106525076D01*
X156880010Y-106691569D01*
X156880010Y-110990510D01*
X156880000Y-110990510D01*
X156880000Y-112990000D01*
X156900000Y-112990000D01*
X156900000Y-113090000D01*
X156880000Y-113090000D01*
X156880000Y-113110000D01*
X156780000Y-113110000D01*
X156780000Y-113090000D01*
X156760000Y-113090000D01*
X156760000Y-112990000D01*
X156780000Y-112990000D01*
X156780000Y-110990510D01*
X156339490Y-110990510D01*
X156339490Y-109949665D01*
X156183482Y-109165359D01*
X155750852Y-108517883D01*
X155856460Y-108412459D01*
X156169134Y-107659457D01*
X156169845Y-106844120D01*
X155858486Y-106090574D01*
X155282459Y-105513540D01*
X154529457Y-105200866D01*
X153714120Y-105200155D01*
X152960574Y-105511514D01*
X152383540Y-106087541D01*
X152070866Y-106840543D01*
X152070155Y-107655880D01*
X152381514Y-108409426D01*
X152693075Y-108721531D01*
X152396518Y-109165359D01*
X152240510Y-109949665D01*
X152240510Y-110990510D01*
X151199665Y-110990510D01*
X150415359Y-111146518D01*
X149751642Y-111590000D01*
X149532938Y-111590000D01*
X149497355Y-111400893D01*
X149342039Y-111159526D01*
X149549643Y-110659559D01*
X149550355Y-109844019D01*
X149238919Y-109090285D01*
X148662748Y-108513108D01*
X148263505Y-108347328D01*
X148549134Y-107659457D01*
X148549552Y-107180347D01*
X148939947Y-106789952D01*
X148939950Y-106789950D01*
X149243431Y-106335757D01*
X149261112Y-106246869D01*
X149350000Y-105800000D01*
X149335001Y-105724595D01*
X149335001Y-102424791D01*
X149319151Y-102345109D01*
X149228433Y-101889035D01*
X149208312Y-101858922D01*
X149751339Y-102401949D01*
G36*
X136070000Y-95446325D02*
X136070000Y-95449500D01*
X136332500Y-95712000D01*
X136680423Y-95712000D01*
X136782000Y-95732570D01*
X137798000Y-95732570D01*
X138050000Y-95685153D01*
X138050000Y-96179430D01*
X137660893Y-96252645D01*
X137303523Y-96482607D01*
X137063776Y-96833488D01*
X136979430Y-97250000D01*
X136979430Y-98750000D01*
X137052645Y-99139107D01*
X137282607Y-99496477D01*
X137633488Y-99736224D01*
X138050000Y-99820570D01*
X139550000Y-99820570D01*
X139939107Y-99747355D01*
X140296477Y-99517393D01*
X140536224Y-99166512D01*
X140620570Y-98750000D01*
X140620570Y-98550000D01*
X141377404Y-98550000D01*
X141304434Y-98720343D01*
X141295825Y-99436376D01*
X141461360Y-99850011D01*
X137199284Y-99850011D01*
X137059354Y-99710081D01*
X136801989Y-99538115D01*
X136605162Y-99406599D01*
X136069405Y-99300030D01*
X134860200Y-99300030D01*
X134876195Y-99146905D01*
X133800000Y-98070711D01*
X133785858Y-98084853D01*
X133715147Y-98014142D01*
X133729289Y-98000000D01*
X133870711Y-98000000D01*
X134946905Y-99076195D01*
X135313598Y-99037891D01*
X135595566Y-98379657D01*
X135604175Y-97663624D01*
X135338115Y-96998801D01*
X135313598Y-96962109D01*
X134946905Y-96923805D01*
X133870711Y-98000000D01*
X133729289Y-98000000D01*
X133715147Y-97985858D01*
X133785858Y-97915147D01*
X133800000Y-97929289D01*
X134876195Y-96853095D01*
X134837891Y-96486402D01*
X134179657Y-96204434D01*
X133600000Y-96197465D01*
X133600000Y-95732570D01*
X133988000Y-95732570D01*
X134119663Y-95707796D01*
X134242000Y-95732570D01*
X135258000Y-95732570D01*
X135367321Y-95712000D01*
X135707500Y-95712000D01*
X135964170Y-95455330D01*
X136004477Y-95429393D01*
X136017444Y-95410415D01*
X136070000Y-95446325D01*
X136070000Y-95446325D01*
G37*
X136070000Y-95446325D02*
X136070000Y-95449500D01*
X136332500Y-95712000D01*
X136680423Y-95712000D01*
X136782000Y-95732570D01*
X137798000Y-95732570D01*
X138050000Y-95685153D01*
X138050000Y-96179430D01*
X137660893Y-96252645D01*
X137303523Y-96482607D01*
X137063776Y-96833488D01*
X136979430Y-97250000D01*
X136979430Y-98750000D01*
X137052645Y-99139107D01*
X137282607Y-99496477D01*
X137633488Y-99736224D01*
X138050000Y-99820570D01*
X139550000Y-99820570D01*
X139939107Y-99747355D01*
X140296477Y-99517393D01*
X140536224Y-99166512D01*
X140620570Y-98750000D01*
X140620570Y-98550000D01*
X141377404Y-98550000D01*
X141304434Y-98720343D01*
X141295825Y-99436376D01*
X141461360Y-99850011D01*
X137199284Y-99850011D01*
X137059354Y-99710081D01*
X136801989Y-99538115D01*
X136605162Y-99406599D01*
X136069405Y-99300030D01*
X134860200Y-99300030D01*
X134876195Y-99146905D01*
X133800000Y-98070711D01*
X133785858Y-98084853D01*
X133715147Y-98014142D01*
X133729289Y-98000000D01*
X133870711Y-98000000D01*
X134946905Y-99076195D01*
X135313598Y-99037891D01*
X135595566Y-98379657D01*
X135604175Y-97663624D01*
X135338115Y-96998801D01*
X135313598Y-96962109D01*
X134946905Y-96923805D01*
X133870711Y-98000000D01*
X133729289Y-98000000D01*
X133715147Y-97985858D01*
X133785858Y-97915147D01*
X133800000Y-97929289D01*
X134876195Y-96853095D01*
X134837891Y-96486402D01*
X134179657Y-96204434D01*
X133600000Y-96197465D01*
X133600000Y-95732570D01*
X133988000Y-95732570D01*
X134119663Y-95707796D01*
X134242000Y-95732570D01*
X135258000Y-95732570D01*
X135367321Y-95712000D01*
X135707500Y-95712000D01*
X135964170Y-95455330D01*
X136004477Y-95429393D01*
X136017444Y-95410415D01*
X136070000Y-95446325D01*
G36*
X143184853Y-99085858D02*
X143170711Y-99100000D01*
X143184853Y-99114142D01*
X143114142Y-99184853D01*
X143100000Y-99170711D01*
X143085858Y-99184853D01*
X143015147Y-99114142D01*
X143029289Y-99100000D01*
X143015147Y-99085858D01*
X143085858Y-99015147D01*
X143100000Y-99029289D01*
X143114142Y-99015147D01*
X143184853Y-99085858D01*
X143184853Y-99085858D01*
G37*
X143184853Y-99085858D02*
X143170711Y-99100000D01*
X143184853Y-99114142D01*
X143114142Y-99184853D01*
X143100000Y-99170711D01*
X143085858Y-99184853D01*
X143015147Y-99114142D01*
X143029289Y-99100000D01*
X143015147Y-99085858D01*
X143085858Y-99015147D01*
X143100000Y-99029289D01*
X143114142Y-99015147D01*
X143184853Y-99085858D01*
G36*
X121508000Y-78337500D02*
X121508000Y-78685423D01*
X121487430Y-78787000D01*
X121487430Y-79803000D01*
X121512204Y-79934663D01*
X121487430Y-80057000D01*
X121487430Y-81073000D01*
X121512204Y-81204663D01*
X121487430Y-81327000D01*
X121487430Y-82343000D01*
X121512204Y-82474663D01*
X121487430Y-82597000D01*
X121487430Y-83613000D01*
X121512204Y-83744663D01*
X121487430Y-83867000D01*
X121487430Y-84883000D01*
X121512204Y-85014663D01*
X121487430Y-85137000D01*
X121487430Y-86153000D01*
X121508000Y-86262321D01*
X121508000Y-86602500D01*
X121764670Y-86859170D01*
X121790607Y-86899477D01*
X121809585Y-86912444D01*
X121773675Y-86965000D01*
X121770500Y-86965000D01*
X121508000Y-87227500D01*
X121508000Y-87575423D01*
X121487430Y-87677000D01*
X121487430Y-88005000D01*
X119445000Y-88005000D01*
X118890109Y-88115375D01*
X118419695Y-88429695D01*
X117898882Y-88950508D01*
X117494120Y-88950155D01*
X116740574Y-89261514D01*
X116163540Y-89837541D01*
X115850866Y-90590543D01*
X115850155Y-91405880D01*
X116161514Y-92159426D01*
X116737541Y-92736460D01*
X117490543Y-93049134D01*
X118305880Y-93049845D01*
X119059426Y-92738486D01*
X119636460Y-92162459D01*
X119949134Y-91409457D01*
X119949490Y-91001120D01*
X120045610Y-90905000D01*
X121640500Y-90905000D01*
X121508000Y-91037500D01*
X121508000Y-91441858D01*
X121667853Y-91827777D01*
X121963223Y-92123147D01*
X122349142Y-92283000D01*
X123007500Y-92283000D01*
X123270000Y-92020500D01*
X123270000Y-91033570D01*
X123370000Y-91033570D01*
X123370000Y-92020500D01*
X123632500Y-92283000D01*
X124290858Y-92283000D01*
X124402699Y-92236674D01*
X124400000Y-92250000D01*
X124400000Y-93750000D01*
X124423936Y-93877210D01*
X124499117Y-93994045D01*
X124613830Y-94072425D01*
X124750000Y-94100000D01*
X125684500Y-94100000D01*
X125572000Y-94212500D01*
X125572000Y-94849489D01*
X119951404Y-94849489D01*
X119658486Y-94140574D01*
X119082459Y-93563540D01*
X118329457Y-93250866D01*
X117514120Y-93250155D01*
X116760574Y-93561514D01*
X116183540Y-94137541D01*
X115870866Y-94890543D01*
X115870155Y-95705880D01*
X116012343Y-96050000D01*
X115000000Y-96050000D01*
X114445109Y-96160375D01*
X113974695Y-96474695D01*
X112224695Y-98224695D01*
X112003584Y-98555611D01*
X111750000Y-98301584D01*
X111750000Y-96748419D01*
X112036460Y-96462459D01*
X112349134Y-95709457D01*
X112349845Y-94894120D01*
X112038486Y-94140574D01*
X111730000Y-93831549D01*
X111730000Y-92448419D01*
X112016460Y-92162459D01*
X112329134Y-91409457D01*
X112329845Y-90594120D01*
X112018486Y-89840574D01*
X111730000Y-89551584D01*
X111730000Y-87280000D01*
X111619625Y-86725109D01*
X111305305Y-86254695D01*
X109525305Y-84474695D01*
X109054891Y-84160375D01*
X108500000Y-84050000D01*
X97460001Y-84050000D01*
X97460001Y-80840609D01*
X98850610Y-79450000D01*
X110552700Y-79450000D01*
X110582607Y-79496477D01*
X110933488Y-79736224D01*
X111350000Y-79820570D01*
X112850000Y-79820570D01*
X113239107Y-79747355D01*
X113596477Y-79517393D01*
X113642525Y-79450000D01*
X115699390Y-79450000D01*
X115879430Y-79630040D01*
X115879430Y-80150000D01*
X115952645Y-80539107D01*
X116182607Y-80896477D01*
X116533488Y-81136224D01*
X116950000Y-81220570D01*
X118450000Y-81220570D01*
X118839107Y-81147355D01*
X119196477Y-80917393D01*
X119436224Y-80566512D01*
X119520570Y-80150000D01*
X119520570Y-78650000D01*
X119447355Y-78260893D01*
X119424788Y-78225822D01*
X119450610Y-78200000D01*
X121500000Y-78200000D01*
X121681628Y-78163872D01*
X121508000Y-78337500D01*
X121508000Y-78337500D01*
G37*
X121508000Y-78337500D02*
X121508000Y-78685423D01*
X121487430Y-78787000D01*
X121487430Y-79803000D01*
X121512204Y-79934663D01*
X121487430Y-80057000D01*
X121487430Y-81073000D01*
X121512204Y-81204663D01*
X121487430Y-81327000D01*
X121487430Y-82343000D01*
X121512204Y-82474663D01*
X121487430Y-82597000D01*
X121487430Y-83613000D01*
X121512204Y-83744663D01*
X121487430Y-83867000D01*
X121487430Y-84883000D01*
X121512204Y-85014663D01*
X121487430Y-85137000D01*
X121487430Y-86153000D01*
X121508000Y-86262321D01*
X121508000Y-86602500D01*
X121764670Y-86859170D01*
X121790607Y-86899477D01*
X121809585Y-86912444D01*
X121773675Y-86965000D01*
X121770500Y-86965000D01*
X121508000Y-87227500D01*
X121508000Y-87575423D01*
X121487430Y-87677000D01*
X121487430Y-88005000D01*
X119445000Y-88005000D01*
X118890109Y-88115375D01*
X118419695Y-88429695D01*
X117898882Y-88950508D01*
X117494120Y-88950155D01*
X116740574Y-89261514D01*
X116163540Y-89837541D01*
X115850866Y-90590543D01*
X115850155Y-91405880D01*
X116161514Y-92159426D01*
X116737541Y-92736460D01*
X117490543Y-93049134D01*
X118305880Y-93049845D01*
X119059426Y-92738486D01*
X119636460Y-92162459D01*
X119949134Y-91409457D01*
X119949490Y-91001120D01*
X120045610Y-90905000D01*
X121640500Y-90905000D01*
X121508000Y-91037500D01*
X121508000Y-91441858D01*
X121667853Y-91827777D01*
X121963223Y-92123147D01*
X122349142Y-92283000D01*
X123007500Y-92283000D01*
X123270000Y-92020500D01*
X123270000Y-91033570D01*
X123370000Y-91033570D01*
X123370000Y-92020500D01*
X123632500Y-92283000D01*
X124290858Y-92283000D01*
X124402699Y-92236674D01*
X124400000Y-92250000D01*
X124400000Y-93750000D01*
X124423936Y-93877210D01*
X124499117Y-93994045D01*
X124613830Y-94072425D01*
X124750000Y-94100000D01*
X125684500Y-94100000D01*
X125572000Y-94212500D01*
X125572000Y-94849489D01*
X119951404Y-94849489D01*
X119658486Y-94140574D01*
X119082459Y-93563540D01*
X118329457Y-93250866D01*
X117514120Y-93250155D01*
X116760574Y-93561514D01*
X116183540Y-94137541D01*
X115870866Y-94890543D01*
X115870155Y-95705880D01*
X116012343Y-96050000D01*
X115000000Y-96050000D01*
X114445109Y-96160375D01*
X113974695Y-96474695D01*
X112224695Y-98224695D01*
X112003584Y-98555611D01*
X111750000Y-98301584D01*
X111750000Y-96748419D01*
X112036460Y-96462459D01*
X112349134Y-95709457D01*
X112349845Y-94894120D01*
X112038486Y-94140574D01*
X111730000Y-93831549D01*
X111730000Y-92448419D01*
X112016460Y-92162459D01*
X112329134Y-91409457D01*
X112329845Y-90594120D01*
X112018486Y-89840574D01*
X111730000Y-89551584D01*
X111730000Y-87280000D01*
X111619625Y-86725109D01*
X111305305Y-86254695D01*
X109525305Y-84474695D01*
X109054891Y-84160375D01*
X108500000Y-84050000D01*
X97460001Y-84050000D01*
X97460001Y-80840609D01*
X98850610Y-79450000D01*
X110552700Y-79450000D01*
X110582607Y-79496477D01*
X110933488Y-79736224D01*
X111350000Y-79820570D01*
X112850000Y-79820570D01*
X113239107Y-79747355D01*
X113596477Y-79517393D01*
X113642525Y-79450000D01*
X115699390Y-79450000D01*
X115879430Y-79630040D01*
X115879430Y-80150000D01*
X115952645Y-80539107D01*
X116182607Y-80896477D01*
X116533488Y-81136224D01*
X116950000Y-81220570D01*
X118450000Y-81220570D01*
X118839107Y-81147355D01*
X119196477Y-80917393D01*
X119436224Y-80566512D01*
X119520570Y-80150000D01*
X119520570Y-78650000D01*
X119447355Y-78260893D01*
X119424788Y-78225822D01*
X119450610Y-78200000D01*
X121500000Y-78200000D01*
X121681628Y-78163872D01*
X121508000Y-78337500D01*
G36*
X144495825Y-74636376D02*
X144761885Y-75301199D01*
X144786402Y-75337891D01*
X145153095Y-75376195D01*
X146229289Y-74300000D01*
X146215147Y-74285858D01*
X146285858Y-74215147D01*
X146300000Y-74229289D01*
X146314142Y-74215147D01*
X146384853Y-74285858D01*
X146370711Y-74300000D01*
X147446905Y-75376195D01*
X147813598Y-75337891D01*
X148095566Y-74679657D01*
X148104175Y-73963624D01*
X148088718Y-73925000D01*
X151290722Y-73925000D01*
X150698801Y-74161885D01*
X150662109Y-74186402D01*
X150623805Y-74553095D01*
X151700000Y-75629289D01*
X152776195Y-74553095D01*
X152737891Y-74186402D01*
X152127667Y-73925000D01*
X162675000Y-73925000D01*
X162675000Y-83700000D01*
X162760636Y-84130519D01*
X163004505Y-84495495D01*
X163369481Y-84739364D01*
X163674267Y-84799990D01*
X160150121Y-84799990D01*
X159975326Y-84625195D01*
X159504912Y-84310875D01*
X158950021Y-84200500D01*
X156752768Y-84200500D01*
X156865305Y-84125305D01*
X158900608Y-82090001D01*
X159305981Y-82090355D01*
X160059715Y-81778919D01*
X160636892Y-81202748D01*
X160949643Y-80449559D01*
X160950355Y-79634019D01*
X160745849Y-79139075D01*
X160790147Y-79094777D01*
X160950000Y-78708858D01*
X160950000Y-77812500D01*
X160687500Y-77550000D01*
X158950000Y-77550000D01*
X158950000Y-77570000D01*
X158850000Y-77570000D01*
X158850000Y-77550000D01*
X157112500Y-77550000D01*
X156850000Y-77812500D01*
X156850000Y-78708858D01*
X157009853Y-79094777D01*
X157054320Y-79139244D01*
X156850357Y-79630441D01*
X156850000Y-80039391D01*
X155239390Y-81650000D01*
X153948419Y-81650000D01*
X153662459Y-81363540D01*
X152909457Y-81050866D01*
X152094120Y-81050155D01*
X151340574Y-81361514D01*
X150763540Y-81937541D01*
X150450866Y-82690543D01*
X150450155Y-83505880D01*
X150761514Y-84259426D01*
X151337541Y-84836460D01*
X152090543Y-85149134D01*
X152905880Y-85149845D01*
X153659426Y-84838486D01*
X153948416Y-84550000D01*
X154187112Y-84550000D01*
X154074575Y-84625195D01*
X152999260Y-85700510D01*
X151949665Y-85700510D01*
X151165359Y-85856518D01*
X150500457Y-86300792D01*
X150056183Y-86965694D01*
X149900175Y-87750000D01*
X150056183Y-88534306D01*
X150500457Y-89199208D01*
X151165359Y-89643482D01*
X151949665Y-89799490D01*
X152990510Y-89799490D01*
X152990510Y-90840335D01*
X153146518Y-91624641D01*
X153590792Y-92289543D01*
X154255694Y-92733817D01*
X154500311Y-92782474D01*
X154330866Y-93190543D01*
X154330155Y-94005880D01*
X154641514Y-94759426D01*
X155217541Y-95336460D01*
X155825499Y-95588906D01*
X155700313Y-95890387D01*
X155699737Y-96550000D01*
X155123362Y-96550000D01*
X154648057Y-96074695D01*
X154177643Y-95760375D01*
X153622752Y-95650000D01*
X153550000Y-95650000D01*
X153550000Y-93300000D01*
X153439625Y-92745109D01*
X153125305Y-92274695D01*
X152971681Y-92121071D01*
X152960306Y-92104047D01*
X148550000Y-87693741D01*
X148550000Y-87100610D01*
X149625305Y-86025305D01*
X149939625Y-85554891D01*
X150050000Y-85000000D01*
X150050000Y-80200000D01*
X149939625Y-79645109D01*
X149625305Y-79174695D01*
X149600610Y-79150000D01*
X150152700Y-79150000D01*
X150182607Y-79196477D01*
X150533488Y-79436224D01*
X150950000Y-79520570D01*
X152450000Y-79520570D01*
X152839107Y-79447355D01*
X153196477Y-79217393D01*
X153436224Y-78866512D01*
X153520570Y-78450000D01*
X153520570Y-76950000D01*
X153447355Y-76560893D01*
X153352538Y-76413544D01*
X153404971Y-76291142D01*
X156850000Y-76291142D01*
X156850000Y-77187500D01*
X157112500Y-77450000D01*
X158850000Y-77450000D01*
X158850000Y-75712500D01*
X158950000Y-75712500D01*
X158950000Y-77450000D01*
X160687500Y-77450000D01*
X160950000Y-77187500D01*
X160950000Y-76291142D01*
X160790147Y-75905223D01*
X160494777Y-75609853D01*
X160108858Y-75450000D01*
X159212500Y-75450000D01*
X158950000Y-75712500D01*
X158850000Y-75712500D01*
X158587500Y-75450000D01*
X157691142Y-75450000D01*
X157305223Y-75609853D01*
X157009853Y-75905223D01*
X156850000Y-76291142D01*
X153404971Y-76291142D01*
X153495566Y-76079657D01*
X153504175Y-75363624D01*
X153238115Y-74698801D01*
X153213598Y-74662109D01*
X152846905Y-74623805D01*
X151770711Y-75700000D01*
X151784853Y-75714142D01*
X151714142Y-75784853D01*
X151700000Y-75770711D01*
X151685858Y-75784853D01*
X151615147Y-75714142D01*
X151629289Y-75700000D01*
X150553095Y-74623805D01*
X150186402Y-74662109D01*
X149904434Y-75320343D01*
X149895825Y-76036376D01*
X149981317Y-76250000D01*
X147900000Y-76250000D01*
X147345109Y-76360375D01*
X146874695Y-76674695D01*
X146069960Y-77479430D01*
X145550000Y-77479430D01*
X145160893Y-77552645D01*
X144821591Y-77770981D01*
X144025305Y-76974695D01*
X143554891Y-76660375D01*
X143000000Y-76550000D01*
X142755957Y-76598543D01*
X142912000Y-76442500D01*
X142912000Y-76094577D01*
X142932570Y-75993000D01*
X142932570Y-75446905D01*
X145223805Y-75446905D01*
X145262109Y-75813598D01*
X145920343Y-76095566D01*
X146636376Y-76104175D01*
X147301199Y-75838115D01*
X147337891Y-75813598D01*
X147376195Y-75446905D01*
X146300000Y-74370711D01*
X145223805Y-75446905D01*
X142932570Y-75446905D01*
X142932570Y-74977000D01*
X142912000Y-74867679D01*
X142912000Y-74527500D01*
X142655330Y-74270830D01*
X142629393Y-74230523D01*
X142533497Y-74165000D01*
X142649500Y-74165000D01*
X142889500Y-73925000D01*
X144504378Y-73925000D01*
X144495825Y-74636376D01*
X144495825Y-74636376D01*
G37*
X144495825Y-74636376D02*
X144761885Y-75301199D01*
X144786402Y-75337891D01*
X145153095Y-75376195D01*
X146229289Y-74300000D01*
X146215147Y-74285858D01*
X146285858Y-74215147D01*
X146300000Y-74229289D01*
X146314142Y-74215147D01*
X146384853Y-74285858D01*
X146370711Y-74300000D01*
X147446905Y-75376195D01*
X147813598Y-75337891D01*
X148095566Y-74679657D01*
X148104175Y-73963624D01*
X148088718Y-73925000D01*
X151290722Y-73925000D01*
X150698801Y-74161885D01*
X150662109Y-74186402D01*
X150623805Y-74553095D01*
X151700000Y-75629289D01*
X152776195Y-74553095D01*
X152737891Y-74186402D01*
X152127667Y-73925000D01*
X162675000Y-73925000D01*
X162675000Y-83700000D01*
X162760636Y-84130519D01*
X163004505Y-84495495D01*
X163369481Y-84739364D01*
X163674267Y-84799990D01*
X160150121Y-84799990D01*
X159975326Y-84625195D01*
X159504912Y-84310875D01*
X158950021Y-84200500D01*
X156752768Y-84200500D01*
X156865305Y-84125305D01*
X158900608Y-82090001D01*
X159305981Y-82090355D01*
X160059715Y-81778919D01*
X160636892Y-81202748D01*
X160949643Y-80449559D01*
X160950355Y-79634019D01*
X160745849Y-79139075D01*
X160790147Y-79094777D01*
X160950000Y-78708858D01*
X160950000Y-77812500D01*
X160687500Y-77550000D01*
X158950000Y-77550000D01*
X158950000Y-77570000D01*
X158850000Y-77570000D01*
X158850000Y-77550000D01*
X157112500Y-77550000D01*
X156850000Y-77812500D01*
X156850000Y-78708858D01*
X157009853Y-79094777D01*
X157054320Y-79139244D01*
X156850357Y-79630441D01*
X156850000Y-80039391D01*
X155239390Y-81650000D01*
X153948419Y-81650000D01*
X153662459Y-81363540D01*
X152909457Y-81050866D01*
X152094120Y-81050155D01*
X151340574Y-81361514D01*
X150763540Y-81937541D01*
X150450866Y-82690543D01*
X150450155Y-83505880D01*
X150761514Y-84259426D01*
X151337541Y-84836460D01*
X152090543Y-85149134D01*
X152905880Y-85149845D01*
X153659426Y-84838486D01*
X153948416Y-84550000D01*
X154187112Y-84550000D01*
X154074575Y-84625195D01*
X152999260Y-85700510D01*
X151949665Y-85700510D01*
X151165359Y-85856518D01*
X150500457Y-86300792D01*
X150056183Y-86965694D01*
X149900175Y-87750000D01*
X150056183Y-88534306D01*
X150500457Y-89199208D01*
X151165359Y-89643482D01*
X151949665Y-89799490D01*
X152990510Y-89799490D01*
X152990510Y-90840335D01*
X153146518Y-91624641D01*
X153590792Y-92289543D01*
X154255694Y-92733817D01*
X154500311Y-92782474D01*
X154330866Y-93190543D01*
X154330155Y-94005880D01*
X154641514Y-94759426D01*
X155217541Y-95336460D01*
X155825499Y-95588906D01*
X155700313Y-95890387D01*
X155699737Y-96550000D01*
X155123362Y-96550000D01*
X154648057Y-96074695D01*
X154177643Y-95760375D01*
X153622752Y-95650000D01*
X153550000Y-95650000D01*
X153550000Y-93300000D01*
X153439625Y-92745109D01*
X153125305Y-92274695D01*
X152971681Y-92121071D01*
X152960306Y-92104047D01*
X148550000Y-87693741D01*
X148550000Y-87100610D01*
X149625305Y-86025305D01*
X149939625Y-85554891D01*
X150050000Y-85000000D01*
X150050000Y-80200000D01*
X149939625Y-79645109D01*
X149625305Y-79174695D01*
X149600610Y-79150000D01*
X150152700Y-79150000D01*
X150182607Y-79196477D01*
X150533488Y-79436224D01*
X150950000Y-79520570D01*
X152450000Y-79520570D01*
X152839107Y-79447355D01*
X153196477Y-79217393D01*
X153436224Y-78866512D01*
X153520570Y-78450000D01*
X153520570Y-76950000D01*
X153447355Y-76560893D01*
X153352538Y-76413544D01*
X153404971Y-76291142D01*
X156850000Y-76291142D01*
X156850000Y-77187500D01*
X157112500Y-77450000D01*
X158850000Y-77450000D01*
X158850000Y-75712500D01*
X158950000Y-75712500D01*
X158950000Y-77450000D01*
X160687500Y-77450000D01*
X160950000Y-77187500D01*
X160950000Y-76291142D01*
X160790147Y-75905223D01*
X160494777Y-75609853D01*
X160108858Y-75450000D01*
X159212500Y-75450000D01*
X158950000Y-75712500D01*
X158850000Y-75712500D01*
X158587500Y-75450000D01*
X157691142Y-75450000D01*
X157305223Y-75609853D01*
X157009853Y-75905223D01*
X156850000Y-76291142D01*
X153404971Y-76291142D01*
X153495566Y-76079657D01*
X153504175Y-75363624D01*
X153238115Y-74698801D01*
X153213598Y-74662109D01*
X152846905Y-74623805D01*
X151770711Y-75700000D01*
X151784853Y-75714142D01*
X151714142Y-75784853D01*
X151700000Y-75770711D01*
X151685858Y-75784853D01*
X151615147Y-75714142D01*
X151629289Y-75700000D01*
X150553095Y-74623805D01*
X150186402Y-74662109D01*
X149904434Y-75320343D01*
X149895825Y-76036376D01*
X149981317Y-76250000D01*
X147900000Y-76250000D01*
X147345109Y-76360375D01*
X146874695Y-76674695D01*
X146069960Y-77479430D01*
X145550000Y-77479430D01*
X145160893Y-77552645D01*
X144821591Y-77770981D01*
X144025305Y-76974695D01*
X143554891Y-76660375D01*
X143000000Y-76550000D01*
X142755957Y-76598543D01*
X142912000Y-76442500D01*
X142912000Y-76094577D01*
X142932570Y-75993000D01*
X142932570Y-75446905D01*
X145223805Y-75446905D01*
X145262109Y-75813598D01*
X145920343Y-76095566D01*
X146636376Y-76104175D01*
X147301199Y-75838115D01*
X147337891Y-75813598D01*
X147376195Y-75446905D01*
X146300000Y-74370711D01*
X145223805Y-75446905D01*
X142932570Y-75446905D01*
X142932570Y-74977000D01*
X142912000Y-74867679D01*
X142912000Y-74527500D01*
X142655330Y-74270830D01*
X142629393Y-74230523D01*
X142533497Y-74165000D01*
X142649500Y-74165000D01*
X142889500Y-73925000D01*
X144504378Y-73925000D01*
X144495825Y-74636376D01*
G36*
X128899695Y-79050305D02*
X129370109Y-79364625D01*
X129925000Y-79475000D01*
X139267430Y-79475000D01*
X139267430Y-79803000D01*
X139292204Y-79934663D01*
X139267430Y-80057000D01*
X139267430Y-81073000D01*
X139292204Y-81204663D01*
X139267430Y-81327000D01*
X139267430Y-82343000D01*
X139292204Y-82474663D01*
X139267430Y-82597000D01*
X139267430Y-83613000D01*
X139292204Y-83744663D01*
X139267430Y-83867000D01*
X139267430Y-84883000D01*
X139292204Y-85014663D01*
X139267430Y-85137000D01*
X139267430Y-86153000D01*
X139292204Y-86284663D01*
X139267430Y-86407000D01*
X139267430Y-87423000D01*
X139292204Y-87554663D01*
X139267430Y-87677000D01*
X139267430Y-88693000D01*
X139292204Y-88824663D01*
X139267430Y-88947000D01*
X139267430Y-89753195D01*
X139000000Y-89700000D01*
X138551366Y-89700000D01*
X138300000Y-89650000D01*
X130908000Y-89650000D01*
X130353109Y-89760375D01*
X129882695Y-90074695D01*
X128644695Y-91312695D01*
X128330375Y-91783109D01*
X128273820Y-92067430D01*
X127892000Y-92067430D01*
X127782679Y-92088000D01*
X127442500Y-92088000D01*
X127185830Y-92344670D01*
X127145523Y-92370607D01*
X127080000Y-92466503D01*
X127080000Y-92350500D01*
X126817500Y-92088000D01*
X126553677Y-92088000D01*
X126500883Y-92005955D01*
X126386170Y-91927575D01*
X126250000Y-91900000D01*
X124899924Y-91900000D01*
X124972147Y-91827777D01*
X125132000Y-91441858D01*
X125132000Y-91037500D01*
X124869500Y-90775000D01*
X124759156Y-90775000D01*
X124828477Y-90730393D01*
X124866325Y-90675000D01*
X124869500Y-90675000D01*
X125132000Y-90412500D01*
X125132000Y-90064577D01*
X125152570Y-89963000D01*
X125152570Y-88947000D01*
X125127796Y-88815337D01*
X125152570Y-88693000D01*
X125152570Y-87677000D01*
X125132000Y-87567679D01*
X125132000Y-87227500D01*
X124875330Y-86970830D01*
X124849393Y-86930523D01*
X124830415Y-86917556D01*
X124866325Y-86865000D01*
X124869500Y-86865000D01*
X125132000Y-86602500D01*
X125132000Y-86254577D01*
X125152570Y-86153000D01*
X125152570Y-85137000D01*
X125127796Y-85005337D01*
X125152570Y-84883000D01*
X125152570Y-83867000D01*
X125127796Y-83735337D01*
X125152570Y-83613000D01*
X125152570Y-82597000D01*
X125127796Y-82465337D01*
X125152570Y-82343000D01*
X125152570Y-81327000D01*
X125127796Y-81195337D01*
X125152570Y-81073000D01*
X125152570Y-80057000D01*
X125127796Y-79925337D01*
X125152570Y-79803000D01*
X125152570Y-78787000D01*
X125132000Y-78677679D01*
X125132000Y-78337500D01*
X124999500Y-78205000D01*
X128054390Y-78205000D01*
X128899695Y-79050305D01*
X128899695Y-79050305D01*
G37*
X128899695Y-79050305D02*
X129370109Y-79364625D01*
X129925000Y-79475000D01*
X139267430Y-79475000D01*
X139267430Y-79803000D01*
X139292204Y-79934663D01*
X139267430Y-80057000D01*
X139267430Y-81073000D01*
X139292204Y-81204663D01*
X139267430Y-81327000D01*
X139267430Y-82343000D01*
X139292204Y-82474663D01*
X139267430Y-82597000D01*
X139267430Y-83613000D01*
X139292204Y-83744663D01*
X139267430Y-83867000D01*
X139267430Y-84883000D01*
X139292204Y-85014663D01*
X139267430Y-85137000D01*
X139267430Y-86153000D01*
X139292204Y-86284663D01*
X139267430Y-86407000D01*
X139267430Y-87423000D01*
X139292204Y-87554663D01*
X139267430Y-87677000D01*
X139267430Y-88693000D01*
X139292204Y-88824663D01*
X139267430Y-88947000D01*
X139267430Y-89753195D01*
X139000000Y-89700000D01*
X138551366Y-89700000D01*
X138300000Y-89650000D01*
X130908000Y-89650000D01*
X130353109Y-89760375D01*
X129882695Y-90074695D01*
X128644695Y-91312695D01*
X128330375Y-91783109D01*
X128273820Y-92067430D01*
X127892000Y-92067430D01*
X127782679Y-92088000D01*
X127442500Y-92088000D01*
X127185830Y-92344670D01*
X127145523Y-92370607D01*
X127080000Y-92466503D01*
X127080000Y-92350500D01*
X126817500Y-92088000D01*
X126553677Y-92088000D01*
X126500883Y-92005955D01*
X126386170Y-91927575D01*
X126250000Y-91900000D01*
X124899924Y-91900000D01*
X124972147Y-91827777D01*
X125132000Y-91441858D01*
X125132000Y-91037500D01*
X124869500Y-90775000D01*
X124759156Y-90775000D01*
X124828477Y-90730393D01*
X124866325Y-90675000D01*
X124869500Y-90675000D01*
X125132000Y-90412500D01*
X125132000Y-90064577D01*
X125152570Y-89963000D01*
X125152570Y-88947000D01*
X125127796Y-88815337D01*
X125152570Y-88693000D01*
X125152570Y-87677000D01*
X125132000Y-87567679D01*
X125132000Y-87227500D01*
X124875330Y-86970830D01*
X124849393Y-86930523D01*
X124830415Y-86917556D01*
X124866325Y-86865000D01*
X124869500Y-86865000D01*
X125132000Y-86602500D01*
X125132000Y-86254577D01*
X125152570Y-86153000D01*
X125152570Y-85137000D01*
X125127796Y-85005337D01*
X125152570Y-84883000D01*
X125152570Y-83867000D01*
X125127796Y-83735337D01*
X125152570Y-83613000D01*
X125152570Y-82597000D01*
X125127796Y-82465337D01*
X125152570Y-82343000D01*
X125152570Y-81327000D01*
X125127796Y-81195337D01*
X125152570Y-81073000D01*
X125152570Y-80057000D01*
X125127796Y-79925337D01*
X125152570Y-79803000D01*
X125152570Y-78787000D01*
X125132000Y-78677679D01*
X125132000Y-78337500D01*
X124999500Y-78205000D01*
X128054390Y-78205000D01*
X128899695Y-79050305D01*
G36*
X121770500Y-74165000D02*
X121885076Y-74165000D01*
X121785076Y-74265000D01*
X121770500Y-74265000D01*
X121508000Y-74527500D01*
X121508000Y-75172500D01*
X121669145Y-75333645D01*
X121500000Y-75300000D01*
X119272666Y-75300000D01*
X119495566Y-74779657D01*
X119504175Y-74063624D01*
X119448698Y-73925000D01*
X121530500Y-73925000D01*
X121770500Y-74165000D01*
X121770500Y-74165000D01*
G37*
X121770500Y-74165000D02*
X121885076Y-74165000D01*
X121785076Y-74265000D01*
X121770500Y-74265000D01*
X121508000Y-74527500D01*
X121508000Y-75172500D01*
X121669145Y-75333645D01*
X121500000Y-75300000D01*
X119272666Y-75300000D01*
X119495566Y-74779657D01*
X119504175Y-74063624D01*
X119448698Y-73925000D01*
X121530500Y-73925000D01*
X121770500Y-74165000D01*
G36*
X123370000Y-74165000D02*
X123390000Y-74165000D01*
X123390000Y-74169500D01*
X123370000Y-74189500D01*
X123370000Y-74285000D01*
X123270000Y-74285000D01*
X123270000Y-74189500D01*
X123245500Y-74165000D01*
X123270000Y-74165000D01*
X123270000Y-74145000D01*
X123370000Y-74145000D01*
X123370000Y-74165000D01*
X123370000Y-74165000D01*
G37*
X123370000Y-74165000D02*
X123390000Y-74165000D01*
X123390000Y-74169500D01*
X123370000Y-74189500D01*
X123370000Y-74285000D01*
X123270000Y-74285000D01*
X123270000Y-74189500D01*
X123245500Y-74165000D01*
X123270000Y-74165000D01*
X123270000Y-74145000D01*
X123370000Y-74145000D01*
X123370000Y-74165000D01*
M02*
