G04 #@! TF.FileFunction,Copper,L2,Bot,Signal*
%FSLAX46Y46*%
G04 Gerber Fmt 4.6, Leading zero omitted, Abs format (unit mm)*
G04 Created by KiCad (PCBNEW 4.0.2-4+6225~38~ubuntu14.04.1-stable) date mar 26 jul 2016 23:31:03 ART*
%MOMM*%
G01*
G04 APERTURE LIST*
%ADD10C,0.100000*%
%ADD11C,0.300000*%
%ADD12R,1.727200X1.727200*%
%ADD13O,1.727200X1.727200*%
%ADD14C,1.600200*%
%ADD15R,1.900000X2.000000*%
%ADD16C,1.900000*%
%ADD17C,1.000760*%
%ADD18C,1.998980*%
%ADD19C,1.397000*%
%ADD20R,2.000000X1.524000*%
%ADD21O,2.000000X1.524000*%
%ADD22R,1.300000X1.300000*%
%ADD23C,1.300000*%
%ADD24C,1.270000*%
%ADD25C,0.635000*%
%ADD26C,0.304800*%
%ADD27C,0.250000*%
G04 APERTURE END LIST*
D10*
D11*
X190357144Y-56750000D02*
X189642858Y-56750000D01*
X190500001Y-57178571D02*
X190000001Y-55678571D01*
X189500001Y-57178571D01*
X188357144Y-56178571D02*
X188357144Y-57392857D01*
X188428573Y-57535714D01*
X188500001Y-57607143D01*
X188642858Y-57678571D01*
X188857144Y-57678571D01*
X189000001Y-57607143D01*
X188357144Y-57107143D02*
X188500001Y-57178571D01*
X188785715Y-57178571D01*
X188928573Y-57107143D01*
X189000001Y-57035714D01*
X189071430Y-56892857D01*
X189071430Y-56464286D01*
X189000001Y-56321429D01*
X188928573Y-56250000D01*
X188785715Y-56178571D01*
X188500001Y-56178571D01*
X188357144Y-56250000D01*
X187000001Y-56178571D02*
X187000001Y-57178571D01*
X187642858Y-56178571D02*
X187642858Y-56964286D01*
X187571430Y-57107143D01*
X187428572Y-57178571D01*
X187214287Y-57178571D01*
X187071430Y-57107143D01*
X187000001Y-57035714D01*
X186357144Y-57107143D02*
X186214287Y-57178571D01*
X185928572Y-57178571D01*
X185785715Y-57107143D01*
X185714287Y-56964286D01*
X185714287Y-56892857D01*
X185785715Y-56750000D01*
X185928572Y-56678571D01*
X186142858Y-56678571D01*
X186285715Y-56607143D01*
X186357144Y-56464286D01*
X186357144Y-56392857D01*
X186285715Y-56250000D01*
X186142858Y-56178571D01*
X185928572Y-56178571D01*
X185785715Y-56250000D01*
X185285715Y-56178571D02*
X184714286Y-56178571D01*
X185071429Y-55678571D02*
X185071429Y-56964286D01*
X185000001Y-57107143D01*
X184857143Y-57178571D01*
X184714286Y-57178571D01*
X184214286Y-57178571D02*
X184214286Y-56178571D01*
X184214286Y-55678571D02*
X184285715Y-55750000D01*
X184214286Y-55821429D01*
X184142858Y-55750000D01*
X184214286Y-55678571D01*
X184214286Y-55821429D01*
X183500000Y-56178571D02*
X183500000Y-57178571D01*
X183500000Y-56321429D02*
X183428572Y-56250000D01*
X183285714Y-56178571D01*
X183071429Y-56178571D01*
X182928572Y-56250000D01*
X182857143Y-56392857D01*
X182857143Y-57178571D01*
X180500000Y-56392857D02*
X180285714Y-56464286D01*
X180214286Y-56535714D01*
X180142857Y-56678571D01*
X180142857Y-56892857D01*
X180214286Y-57035714D01*
X180285714Y-57107143D01*
X180428572Y-57178571D01*
X181000000Y-57178571D01*
X181000000Y-55678571D01*
X180500000Y-55678571D01*
X180357143Y-55750000D01*
X180285714Y-55821429D01*
X180214286Y-55964286D01*
X180214286Y-56107143D01*
X180285714Y-56250000D01*
X180357143Y-56321429D01*
X180500000Y-56392857D01*
X181000000Y-56392857D01*
X178857143Y-57178571D02*
X178857143Y-56392857D01*
X178928572Y-56250000D01*
X179071429Y-56178571D01*
X179357143Y-56178571D01*
X179500000Y-56250000D01*
X178857143Y-57107143D02*
X179000000Y-57178571D01*
X179357143Y-57178571D01*
X179500000Y-57107143D01*
X179571429Y-56964286D01*
X179571429Y-56821429D01*
X179500000Y-56678571D01*
X179357143Y-56607143D01*
X179000000Y-56607143D01*
X178857143Y-56535714D01*
X178214286Y-57107143D02*
X178071429Y-57178571D01*
X177785714Y-57178571D01*
X177642857Y-57107143D01*
X177571429Y-56964286D01*
X177571429Y-56892857D01*
X177642857Y-56750000D01*
X177785714Y-56678571D01*
X178000000Y-56678571D01*
X178142857Y-56607143D01*
X178214286Y-56464286D01*
X178214286Y-56392857D01*
X178142857Y-56250000D01*
X178000000Y-56178571D01*
X177785714Y-56178571D01*
X177642857Y-56250000D01*
X177000000Y-57107143D02*
X176857143Y-57178571D01*
X176571428Y-57178571D01*
X176428571Y-57107143D01*
X176357143Y-56964286D01*
X176357143Y-56892857D01*
X176428571Y-56750000D01*
X176571428Y-56678571D01*
X176785714Y-56678571D01*
X176928571Y-56607143D01*
X177000000Y-56464286D01*
X177000000Y-56392857D01*
X176928571Y-56250000D01*
X176785714Y-56178571D01*
X176571428Y-56178571D01*
X176428571Y-56250000D01*
X175714285Y-57178571D02*
X175714285Y-56178571D01*
X175714285Y-55678571D02*
X175785714Y-55750000D01*
X175714285Y-55821429D01*
X175642857Y-55750000D01*
X175714285Y-55678571D01*
X175714285Y-55821429D01*
X153090571Y-95712857D02*
X152590571Y-95712857D01*
X152376285Y-96498571D02*
X153090571Y-96498571D01*
X153090571Y-94998571D01*
X152376285Y-94998571D01*
X151733428Y-96498571D02*
X151733428Y-94998571D01*
X151376285Y-94998571D01*
X151162000Y-95070000D01*
X151019142Y-95212857D01*
X150947714Y-95355714D01*
X150876285Y-95641429D01*
X150876285Y-95855714D01*
X150947714Y-96141429D01*
X151019142Y-96284286D01*
X151162000Y-96427143D01*
X151376285Y-96498571D01*
X151733428Y-96498571D01*
X150233428Y-94998571D02*
X150233428Y-96212857D01*
X150162000Y-96355714D01*
X150090571Y-96427143D01*
X149947714Y-96498571D01*
X149662000Y-96498571D01*
X149519142Y-96427143D01*
X149447714Y-96355714D01*
X149376285Y-96212857D01*
X149376285Y-94998571D01*
X148661999Y-95927143D02*
X147519142Y-95927143D01*
X145947713Y-96355714D02*
X146019142Y-96427143D01*
X146233428Y-96498571D01*
X146376285Y-96498571D01*
X146590570Y-96427143D01*
X146733428Y-96284286D01*
X146804856Y-96141429D01*
X146876285Y-95855714D01*
X146876285Y-95641429D01*
X146804856Y-95355714D01*
X146733428Y-95212857D01*
X146590570Y-95070000D01*
X146376285Y-94998571D01*
X146233428Y-94998571D01*
X146019142Y-95070000D01*
X145947713Y-95141429D01*
X145304856Y-96498571D02*
X145304856Y-94998571D01*
X144661999Y-96070000D02*
X143947713Y-96070000D01*
X144804856Y-96498571D02*
X144304856Y-94998571D01*
X143804856Y-96498571D01*
X143376285Y-96070000D02*
X142661999Y-96070000D01*
X143519142Y-96498571D02*
X143019142Y-94998571D01*
X142519142Y-96498571D01*
X168969144Y-74146571D02*
X168969144Y-72646571D01*
X168397716Y-72646571D01*
X168254858Y-72718000D01*
X168183430Y-72789429D01*
X168112001Y-72932286D01*
X168112001Y-73146571D01*
X168183430Y-73289429D01*
X168254858Y-73360857D01*
X168397716Y-73432286D01*
X168969144Y-73432286D01*
X167183430Y-72646571D02*
X166897716Y-72646571D01*
X166754858Y-72718000D01*
X166612001Y-72860857D01*
X166540573Y-73146571D01*
X166540573Y-73646571D01*
X166612001Y-73932286D01*
X166754858Y-74075143D01*
X166897716Y-74146571D01*
X167183430Y-74146571D01*
X167326287Y-74075143D01*
X167469144Y-73932286D01*
X167540573Y-73646571D01*
X167540573Y-73146571D01*
X167469144Y-72860857D01*
X167326287Y-72718000D01*
X167183430Y-72646571D01*
X165897715Y-74146571D02*
X165897715Y-72646571D01*
X165040572Y-74146571D01*
X165040572Y-72646571D01*
X163469143Y-74003714D02*
X163540572Y-74075143D01*
X163754858Y-74146571D01*
X163897715Y-74146571D01*
X164112000Y-74075143D01*
X164254858Y-73932286D01*
X164326286Y-73789429D01*
X164397715Y-73503714D01*
X164397715Y-73289429D01*
X164326286Y-73003714D01*
X164254858Y-72860857D01*
X164112000Y-72718000D01*
X163897715Y-72646571D01*
X163754858Y-72646571D01*
X163540572Y-72718000D01*
X163469143Y-72789429D01*
X162826286Y-74146571D02*
X162826286Y-72646571D01*
X162826286Y-73360857D02*
X161969143Y-73360857D01*
X161969143Y-74146571D02*
X161969143Y-72646571D01*
X160969143Y-72646571D02*
X160683429Y-72646571D01*
X160540571Y-72718000D01*
X160397714Y-72860857D01*
X160326286Y-73146571D01*
X160326286Y-73646571D01*
X160397714Y-73932286D01*
X160540571Y-74075143D01*
X160683429Y-74146571D01*
X160969143Y-74146571D01*
X161112000Y-74075143D01*
X161254857Y-73932286D01*
X161326286Y-73646571D01*
X161326286Y-73146571D01*
X161254857Y-72860857D01*
X161112000Y-72718000D01*
X160969143Y-72646571D01*
X158612000Y-74075143D02*
X158397714Y-74146571D01*
X158040571Y-74146571D01*
X157897714Y-74075143D01*
X157826285Y-74003714D01*
X157754857Y-73860857D01*
X157754857Y-73718000D01*
X157826285Y-73575143D01*
X157897714Y-73503714D01*
X158040571Y-73432286D01*
X158326285Y-73360857D01*
X158469143Y-73289429D01*
X158540571Y-73218000D01*
X158612000Y-73075143D01*
X158612000Y-72932286D01*
X158540571Y-72789429D01*
X158469143Y-72718000D01*
X158326285Y-72646571D01*
X157969143Y-72646571D01*
X157754857Y-72718000D01*
X157112000Y-74146571D02*
X157112000Y-72646571D01*
X156397714Y-74146571D02*
X156397714Y-72646571D01*
X155897714Y-73718000D01*
X155397714Y-72646571D01*
X155397714Y-74146571D01*
X154397714Y-72646571D02*
X154112000Y-72646571D01*
X153969142Y-72718000D01*
X153826285Y-72860857D01*
X153754857Y-73146571D01*
X153754857Y-73646571D01*
X153826285Y-73932286D01*
X153969142Y-74075143D01*
X154112000Y-74146571D01*
X154397714Y-74146571D01*
X154540571Y-74075143D01*
X154683428Y-73932286D01*
X154754857Y-73646571D01*
X154754857Y-73146571D01*
X154683428Y-72860857D01*
X154540571Y-72718000D01*
X154397714Y-72646571D01*
X153111999Y-74146571D02*
X153111999Y-72646571D01*
X152254856Y-74146571D01*
X152254856Y-72646571D01*
D12*
X127007800Y-61542700D03*
D13*
X129547800Y-61542700D03*
X127007800Y-64082700D03*
X129547800Y-64082700D03*
D14*
X157178971Y-64124429D03*
X150828971Y-64124429D03*
D15*
X136017000Y-72644000D03*
D16*
X133477000Y-72644000D03*
D15*
X173863000Y-72644000D03*
D16*
X176403000Y-72644000D03*
D15*
X136017000Y-96139000D03*
D16*
X133477000Y-96139000D03*
D15*
X173863000Y-96012000D03*
D16*
X176403000Y-96012000D03*
D17*
X166243000Y-67056000D03*
X164973000Y-68326000D03*
X164973000Y-65786000D03*
X128143000Y-71374000D03*
X129413000Y-72644000D03*
X126873000Y-72644000D03*
X181737000Y-73914000D03*
X180467000Y-72644000D03*
X183007000Y-72644000D03*
X128143000Y-94742000D03*
X129413000Y-96012000D03*
X126873000Y-96012000D03*
X181737000Y-97282000D03*
X180467000Y-96012000D03*
X183007000Y-96012000D03*
D18*
X134239000Y-85344000D03*
X134239000Y-77724000D03*
X145415000Y-85344000D03*
X145415000Y-77724000D03*
X175641000Y-85217000D03*
X175641000Y-77597000D03*
X145415000Y-108966000D03*
X145415000Y-101346000D03*
X134239000Y-108458000D03*
X134239000Y-100838000D03*
X175641000Y-108585000D03*
X175641000Y-100965000D03*
X164465000Y-108839000D03*
X164465000Y-101219000D03*
X169164000Y-62611000D03*
X161544000Y-62611000D03*
X169164000Y-59563000D03*
X161544000Y-59563000D03*
X129921000Y-85217000D03*
X129921000Y-77597000D03*
X126365000Y-85217000D03*
X126365000Y-77597000D03*
X180086000Y-85217000D03*
X180086000Y-77597000D03*
X183515000Y-85217000D03*
X183515000Y-77597000D03*
X129921000Y-108458000D03*
X129921000Y-100838000D03*
X126365000Y-108458000D03*
X126365000Y-100838000D03*
X179959000Y-108585000D03*
X179959000Y-100965000D03*
X183515000Y-108585000D03*
X183515000Y-100965000D03*
D19*
X137287000Y-77724000D03*
X142367000Y-77724000D03*
X137287000Y-85344000D03*
X142367000Y-85344000D03*
X148463000Y-77724000D03*
X153543000Y-77724000D03*
X148463000Y-85344000D03*
X153543000Y-85344000D03*
X172593000Y-85344000D03*
X167513000Y-85344000D03*
X172593000Y-77724000D03*
X167513000Y-77724000D03*
X161417000Y-85344000D03*
X156337000Y-85344000D03*
X161417000Y-77724000D03*
X156337000Y-77724000D03*
X148463000Y-101219000D03*
X153543000Y-101219000D03*
X148463000Y-108839000D03*
X153543000Y-108839000D03*
X137287000Y-101219000D03*
X142367000Y-101219000D03*
X137287000Y-108839000D03*
X142367000Y-108839000D03*
X172593000Y-108712000D03*
X167513000Y-108712000D03*
X172593000Y-101092000D03*
X167513000Y-101092000D03*
X161417000Y-108712000D03*
X156337000Y-108712000D03*
X161417000Y-101092000D03*
X156337000Y-101092000D03*
D20*
X189230000Y-61468000D03*
D21*
X191770000Y-61468000D03*
X189230000Y-74168000D03*
X191770000Y-64008000D03*
X189230000Y-76708000D03*
X191770000Y-66548000D03*
X189230000Y-79248000D03*
X191770000Y-69088000D03*
X189230000Y-81788000D03*
X191770000Y-71628000D03*
X189230000Y-84328000D03*
X191770000Y-74168000D03*
X189230000Y-86868000D03*
X191770000Y-76708000D03*
X189230000Y-89408000D03*
X191770000Y-79248000D03*
X189230000Y-91948000D03*
X191770000Y-81788000D03*
X189230000Y-94488000D03*
X191770000Y-84328000D03*
X189230000Y-97028000D03*
X191770000Y-86868000D03*
X189230000Y-99568000D03*
X191770000Y-89408000D03*
X191770000Y-91948000D03*
X189230000Y-102108000D03*
X191770000Y-94488000D03*
X191770000Y-99568000D03*
X191770000Y-102108000D03*
X191770000Y-104648000D03*
X191770000Y-107188000D03*
X189230000Y-104648000D03*
X189230000Y-107188000D03*
X189230000Y-64008000D03*
X189230000Y-66548000D03*
X189230000Y-69088000D03*
X189230000Y-71628000D03*
X189230000Y-109728000D03*
X191770000Y-109728000D03*
X191770000Y-97028000D03*
D20*
X118110000Y-61468000D03*
D21*
X120650000Y-61468000D03*
X118110000Y-64008000D03*
X120650000Y-64008000D03*
X118110000Y-66548000D03*
X120650000Y-66548000D03*
X118110000Y-69088000D03*
X120650000Y-69088000D03*
X118110000Y-71628000D03*
X120650000Y-71628000D03*
X118110000Y-74168000D03*
X120650000Y-74168000D03*
X118110000Y-76708000D03*
X120650000Y-76708000D03*
X118110000Y-79248000D03*
X120650000Y-79248000D03*
X118110000Y-81788000D03*
X120650000Y-81788000D03*
X118110000Y-84328000D03*
X120650000Y-84328000D03*
X118110000Y-86868000D03*
X120650000Y-86868000D03*
X118110000Y-89408000D03*
X120650000Y-89408000D03*
X118110000Y-91948000D03*
X120650000Y-91948000D03*
X118110000Y-94488000D03*
X120650000Y-94488000D03*
X118110000Y-97028000D03*
X120650000Y-97028000D03*
X118110000Y-99568000D03*
X120650000Y-99568000D03*
X118110000Y-102108000D03*
X120650000Y-102108000D03*
X118110000Y-104648000D03*
X120650000Y-104648000D03*
X118110000Y-107188000D03*
X120650000Y-107188000D03*
X118110000Y-109728000D03*
X120650000Y-109728000D03*
D22*
X135255000Y-64008000D03*
D23*
X135255000Y-61508000D03*
D18*
X164465000Y-85471000D03*
X164465000Y-77851000D03*
D24*
X159596000Y-95058000D03*
X154947800Y-88212700D03*
X144279800Y-61542700D03*
X137287000Y-80137000D03*
X137287000Y-83439000D03*
X131706800Y-87450700D03*
X148336000Y-79629000D03*
X148463000Y-83185000D03*
X133484800Y-87450700D03*
X172593000Y-80137000D03*
X172593000Y-83312000D03*
X178950800Y-87450700D03*
X161417000Y-80010000D03*
X161417000Y-83439000D03*
X177172800Y-87450700D03*
X137287000Y-103505000D03*
X137287000Y-106680000D03*
X131706800Y-110818700D03*
X172593000Y-103378000D03*
X172593000Y-106934000D03*
X178950800Y-110818700D03*
X133484800Y-110818700D03*
X148463000Y-103505000D03*
X148463000Y-106934000D03*
X161417000Y-103759000D03*
X161417000Y-106934000D03*
X177172800Y-110818700D03*
X129928800Y-87450700D03*
X180728800Y-87450700D03*
X129928800Y-110818700D03*
X180728800Y-110818700D03*
X144279800Y-58875700D03*
X124848800Y-69670700D03*
X171521300Y-59637700D03*
X184983300Y-69607200D03*
X124848800Y-93038700D03*
X185046800Y-93038700D03*
D25*
X156344800Y-98309200D02*
X159596000Y-95058000D01*
X156344800Y-101166700D02*
X156344800Y-98309200D01*
X154947800Y-88212700D02*
X154947800Y-85598000D01*
D26*
X142367000Y-85344000D02*
X142367000Y-81661000D01*
X142367000Y-81661000D02*
X142367000Y-81608700D01*
D25*
X154947800Y-85598000D02*
X154947800Y-77858800D01*
X154947800Y-77858800D02*
X154940000Y-77851000D01*
X154940000Y-77851000D02*
X154940000Y-77798700D01*
D26*
X167513000Y-85344000D02*
X167513000Y-81534000D01*
X167513000Y-81534000D02*
X167520800Y-81534000D01*
X167513000Y-108839000D02*
X167513000Y-104902000D01*
X167513000Y-104902000D02*
X167513000Y-104976700D01*
D25*
X154940000Y-108786700D02*
X154940000Y-101219000D01*
X154940000Y-101219000D02*
X154940000Y-101166700D01*
D26*
X142367000Y-108839000D02*
X142367000Y-105029000D01*
X142367000Y-105029000D02*
X142367000Y-104976700D01*
D25*
X153550800Y-108786700D02*
X154940000Y-108786700D01*
X154940000Y-108786700D02*
X156344800Y-108786700D01*
X154947800Y-85418700D02*
X154947800Y-85598000D01*
X153550800Y-85418700D02*
X154947800Y-85418700D01*
X154947800Y-85418700D02*
X156344800Y-85418700D01*
X123750000Y-115500000D02*
X121250000Y-115500000D01*
X181871800Y-112378200D02*
X178750000Y-115500000D01*
X178750000Y-115500000D02*
X178250000Y-115500000D01*
X178250000Y-115500000D02*
X123750000Y-115500000D01*
X181871800Y-112000000D02*
X181871800Y-112378200D01*
X118117800Y-112367800D02*
X118117800Y-109802700D01*
X121250000Y-115500000D02*
X118117800Y-112367800D01*
D26*
X177998300Y-104405200D02*
X180030300Y-104405200D01*
X181871800Y-106246700D02*
X181871800Y-112000000D01*
X181871800Y-112000000D02*
X181871800Y-111961700D01*
X180030300Y-104405200D02*
X181871800Y-106246700D01*
D25*
X153550800Y-101166700D02*
X154940000Y-101166700D01*
X154940000Y-101166700D02*
X155074800Y-101166700D01*
X155074800Y-101166700D02*
X156344800Y-101166700D01*
D26*
X174632800Y-98118700D02*
X173870800Y-97356700D01*
X173870800Y-97356700D02*
X173870800Y-96086700D01*
X132468800Y-104976700D02*
X142367000Y-104976700D01*
X142367000Y-104976700D02*
X142374800Y-104976700D01*
X136024800Y-96086700D02*
X136024800Y-97356700D01*
X131960800Y-98880700D02*
X131960800Y-104468700D01*
X132722800Y-98118700D02*
X131960800Y-98880700D01*
X135262800Y-98118700D02*
X132722800Y-98118700D01*
X136024800Y-97356700D02*
X135262800Y-98118700D01*
X131960800Y-104468700D02*
X132468800Y-104976700D01*
X142374800Y-101166700D02*
X142374800Y-104976700D01*
X153550800Y-104214700D02*
X153550800Y-101166700D01*
X152788800Y-104976700D02*
X153550800Y-104214700D01*
X142374800Y-104976700D02*
X152788800Y-104976700D01*
X156344800Y-104214700D02*
X157106800Y-104976700D01*
X156344800Y-101166700D02*
X156344800Y-104214700D01*
X157106800Y-104976700D02*
X167513000Y-104976700D01*
X167513000Y-104976700D02*
X167520800Y-104976700D01*
X167520800Y-104976700D02*
X177426800Y-104976700D01*
X177426800Y-104976700D02*
X177998300Y-104405200D01*
X177998300Y-104405200D02*
X177934800Y-104468700D01*
X177934800Y-104468700D02*
X177934800Y-98880700D01*
X177934800Y-98880700D02*
X177172800Y-98118700D01*
X177172800Y-98118700D02*
X174632800Y-98118700D01*
X167520800Y-104976700D02*
X167520800Y-101166700D01*
D25*
X136000000Y-61500000D02*
X144000000Y-61500000D01*
X148287242Y-61582700D02*
X150828971Y-64124429D01*
X144279800Y-61582700D02*
X148287242Y-61582700D01*
X144279800Y-61542700D02*
X144279800Y-61582700D01*
X144000000Y-61500000D02*
X144279800Y-61542700D01*
X118000000Y-58612500D02*
X131612500Y-58612500D01*
X134500000Y-61500000D02*
X136000000Y-61500000D01*
X131612500Y-58612500D02*
X134500000Y-61500000D01*
X118117800Y-64082700D02*
X117863800Y-64082700D01*
X117863800Y-64082700D02*
X116403300Y-62622200D01*
X116403300Y-62622200D02*
X116403300Y-60209200D01*
X116403300Y-60209200D02*
X118000000Y-58612500D01*
X118000000Y-58612500D02*
X117927300Y-58685200D01*
X117927300Y-58685200D02*
X117800300Y-58812200D01*
D26*
X119311600Y-65276500D02*
X118117800Y-64082700D01*
X121724600Y-65276500D02*
X119311600Y-65276500D01*
X123705800Y-67257700D02*
X121724600Y-65276500D01*
X123705800Y-83831200D02*
X123705800Y-83513700D01*
X123705800Y-83513700D02*
X123705800Y-67257700D01*
X124658300Y-87006200D02*
X123705800Y-86053700D01*
X123705800Y-86053700D02*
X123705800Y-83513700D01*
X132024300Y-81164200D02*
X130246300Y-81164200D01*
X127452300Y-87006200D02*
X124658300Y-87006200D01*
X124658300Y-87006200D02*
X124594800Y-87006200D01*
X128023800Y-86434700D02*
X127452300Y-87006200D01*
X128023800Y-83386700D02*
X128023800Y-86434700D01*
X130246300Y-81164200D02*
X128023800Y-83386700D01*
X173870800Y-73988700D02*
X173870800Y-72718700D01*
X174632800Y-74750700D02*
X173870800Y-73988700D01*
X131960800Y-81100700D02*
X132024300Y-81164200D01*
X132024300Y-81164200D02*
X132468800Y-81608700D01*
X131960800Y-75512700D02*
X131960800Y-81100700D01*
X177172800Y-74750700D02*
X174632800Y-74750700D01*
X177934800Y-75512700D02*
X177172800Y-74750700D01*
X177934800Y-81100700D02*
X177934800Y-75512700D01*
X177426800Y-81608700D02*
X177934800Y-81100700D01*
X132722800Y-74750700D02*
X131960800Y-75512700D01*
X135262800Y-74750700D02*
X132722800Y-74750700D01*
X136024800Y-73988700D02*
X135262800Y-74750700D01*
X136024800Y-72718700D02*
X136024800Y-73988700D01*
X132468800Y-81608700D02*
X142367000Y-81608700D01*
X142367000Y-81608700D02*
X142374800Y-81608700D01*
X167520800Y-81608700D02*
X167520800Y-81534000D01*
X167520800Y-81534000D02*
X167520800Y-77798700D01*
X157106800Y-81608700D02*
X167520800Y-81608700D01*
X167520800Y-81608700D02*
X177426800Y-81608700D01*
D25*
X153550800Y-77798700D02*
X154940000Y-77798700D01*
X154940000Y-77798700D02*
X156344800Y-77798700D01*
D26*
X142374800Y-81608700D02*
X152788800Y-81608700D01*
X152788800Y-81608700D02*
X153550800Y-80846700D01*
X153550800Y-80846700D02*
X153550800Y-77798700D01*
X156344800Y-77798700D02*
X156344800Y-80846700D01*
X156344800Y-80846700D02*
X157106800Y-81608700D01*
X142374800Y-77798700D02*
X142374800Y-81608700D01*
X133484800Y-72718700D02*
X133738800Y-72464700D01*
X133738800Y-72464700D02*
X133484800Y-72718700D01*
X129420800Y-72718700D02*
X133484800Y-72718700D01*
X180474800Y-72718700D02*
X176410800Y-72718700D01*
X180474800Y-96086700D02*
X176410800Y-96086700D01*
X166410164Y-67016464D02*
X166936536Y-67016464D01*
X169235300Y-64717700D02*
X169235300Y-62558700D01*
X166936536Y-67016464D02*
X169235300Y-64717700D01*
X165140164Y-68286464D02*
X163616164Y-68286465D01*
X159552164Y-64222465D02*
X157266164Y-64222465D01*
X163616164Y-68286465D02*
X159552164Y-64222465D01*
X157266164Y-64222465D02*
X157178971Y-64124429D01*
X157262972Y-64194429D02*
X157178971Y-64124429D01*
X128150800Y-75004700D02*
X128150800Y-71448700D01*
X128658800Y-75512700D02*
X128150800Y-75004700D01*
X129420800Y-75512700D02*
X128658800Y-75512700D01*
X129928800Y-76020700D02*
X129420800Y-75512700D01*
X129928800Y-77544700D02*
X129928800Y-76020700D01*
X126880800Y-75512700D02*
X126880800Y-72718700D01*
X128150800Y-76782700D02*
X126880800Y-75512700D01*
X128150800Y-79576700D02*
X128150800Y-76782700D01*
X126372800Y-81354700D02*
X128150800Y-79576700D01*
X126372800Y-85164700D02*
X126372800Y-81354700D01*
X181744800Y-73988700D02*
X181744800Y-75004700D01*
X179966800Y-76020700D02*
X179966800Y-77290700D01*
X180474800Y-75512700D02*
X179966800Y-76020700D01*
X181236800Y-75512700D02*
X180474800Y-75512700D01*
X181744800Y-75004700D02*
X181236800Y-75512700D01*
X179966800Y-77290700D02*
X180220800Y-77544700D01*
X183522800Y-85164700D02*
X183522800Y-81354700D01*
X183014800Y-75512700D02*
X183014800Y-72718700D01*
X181744800Y-76782700D02*
X183014800Y-75512700D01*
X181744800Y-79576700D02*
X181744800Y-76782700D01*
X183522800Y-81354700D02*
X181744800Y-79576700D01*
X179966800Y-100658700D02*
X180220800Y-100912700D01*
X179966800Y-99388700D02*
X179966800Y-100658700D01*
X180474800Y-98880700D02*
X179966800Y-99388700D01*
X181236800Y-98880700D02*
X180474800Y-98880700D01*
X181744800Y-98372700D02*
X181236800Y-98880700D01*
X181744800Y-97356700D02*
X181744800Y-98372700D01*
X183522800Y-104722700D02*
X181744800Y-102944700D01*
X183522800Y-108532700D02*
X183522800Y-104722700D01*
X181744800Y-102944700D02*
X181744800Y-100150700D01*
X181744800Y-100150700D02*
X183014800Y-98880700D01*
X183014800Y-98880700D02*
X183014800Y-96086700D01*
X137287000Y-85344000D02*
X137287000Y-83439000D01*
X137287000Y-80137000D02*
X137287000Y-77724000D01*
X137040800Y-85164700D02*
X137294800Y-85418700D01*
X123705800Y-88657200D02*
X121483300Y-88657200D01*
X121483300Y-88657200D02*
X120657800Y-89482700D01*
X127261800Y-88657200D02*
X123959800Y-88657200D01*
X123959800Y-88657200D02*
X123705800Y-88657200D01*
X123705800Y-88657200D02*
X123642300Y-88657200D01*
X127261800Y-88657200D02*
X127261800Y-88657200D01*
X127261800Y-88657200D02*
X130500300Y-88657200D01*
X132468800Y-85164700D02*
X131706800Y-85926700D01*
X131706800Y-85926700D02*
X131706800Y-87450700D01*
X134246800Y-85164700D02*
X132468800Y-85164700D01*
X130500300Y-88657200D02*
X131706800Y-87450700D01*
X134246800Y-85164700D02*
X137040800Y-85164700D01*
X148463000Y-85344000D02*
X148463000Y-83185000D01*
X148463000Y-79502000D02*
X148463000Y-77724000D01*
X148336000Y-79629000D02*
X148463000Y-79502000D01*
X145422800Y-85418700D02*
X144660800Y-85418700D01*
X144660800Y-85418700D02*
X143136800Y-86942700D01*
X143136800Y-86942700D02*
X133992800Y-86942700D01*
X148470800Y-85418700D02*
X145422800Y-85418700D01*
X120657800Y-92022700D02*
X120657800Y-91895700D01*
X123896300Y-89292200D02*
X123388300Y-89292200D01*
X123959800Y-89292200D02*
X123896300Y-89292200D01*
X124023300Y-89292200D02*
X123959800Y-89292200D01*
X127388800Y-89292200D02*
X124023300Y-89292200D01*
X123388300Y-89292200D02*
X120657800Y-92022700D01*
X127325300Y-89292200D02*
X127388800Y-89292200D01*
X127388800Y-89292200D02*
X131643300Y-89292200D01*
X131643300Y-89292200D02*
X133548300Y-87387200D01*
X133992800Y-86942700D02*
X133548300Y-87387200D01*
X133548300Y-87387200D02*
X133484800Y-87450700D01*
X123070800Y-94996000D02*
X123070800Y-95496200D01*
X123070800Y-95496200D02*
X121539000Y-97028000D01*
X121539000Y-97028000D02*
X120650000Y-97028000D01*
X172593000Y-85344000D02*
X172593000Y-83312000D01*
X172593000Y-80137000D02*
X172593000Y-77724000D01*
X124848800Y-90562200D02*
X125737800Y-90562200D01*
X123070800Y-92340200D02*
X124848800Y-90562200D01*
X123070800Y-94943700D02*
X123070800Y-94996000D01*
X123070800Y-94996000D02*
X123070800Y-92340200D01*
X120657800Y-97102700D02*
X120911800Y-97102700D01*
X175013800Y-90562200D02*
X175839300Y-90562200D01*
X178950800Y-87450700D02*
X175839300Y-90562200D01*
X177553800Y-86053700D02*
X178950800Y-87450700D01*
X177553800Y-86053700D02*
X177553800Y-85164700D01*
X126626800Y-90562200D02*
X125737800Y-90562200D01*
X126626800Y-90562200D02*
X126626800Y-90562200D01*
X126626800Y-90562200D02*
X175013800Y-90562200D01*
X175013800Y-90562200D02*
X175077300Y-90562200D01*
X172854800Y-85164700D02*
X177553800Y-85164700D01*
X177553800Y-85164700D02*
X177426800Y-85164700D01*
X172600800Y-85418700D02*
X172854800Y-85164700D01*
X161417000Y-85344000D02*
X161417000Y-83439000D01*
X161417000Y-80010000D02*
X161417000Y-77724000D01*
X161424800Y-85418700D02*
X165234800Y-85418700D01*
X175902800Y-86942700D02*
X176664800Y-86942700D01*
X176664800Y-86942700D02*
X177172800Y-87450700D01*
X177172800Y-87450700D02*
X174696300Y-89927200D01*
X174696300Y-89927200D02*
X173743800Y-89927200D01*
X165234800Y-85418700D02*
X166758800Y-86942700D01*
X166758800Y-86942700D02*
X175902800Y-86942700D01*
X118117800Y-97102700D02*
X119507000Y-95758000D01*
X121991300Y-95134200D02*
X122435800Y-94689700D01*
X119507000Y-95758000D02*
X121412000Y-95758000D01*
X121412000Y-95758000D02*
X121991300Y-95134200D01*
X124594800Y-89927200D02*
X125356800Y-89927200D01*
X122435800Y-92086200D02*
X124594800Y-89927200D01*
X122435800Y-94689700D02*
X122435800Y-92086200D01*
X126499800Y-89927200D02*
X125356800Y-89927200D01*
X126499800Y-89927200D02*
X126499800Y-89927200D01*
X126499800Y-89927200D02*
X173743800Y-89927200D01*
X173743800Y-89927200D02*
X173870800Y-89927200D01*
X137287000Y-108839000D02*
X137287000Y-106680000D01*
X137287000Y-103505000D02*
X137287000Y-101219000D01*
X130500300Y-112025200D02*
X131706800Y-110818700D01*
X131706800Y-109294700D02*
X131706800Y-110818700D01*
X137040800Y-108532700D02*
X137294800Y-108786700D01*
X134246800Y-108532700D02*
X137040800Y-108532700D01*
X132468800Y-108532700D02*
X131706800Y-109294700D01*
X131706800Y-109294700D02*
X131706800Y-110818700D01*
X134246800Y-108532700D02*
X132468800Y-108532700D01*
X127388800Y-112025200D02*
X128595300Y-112025200D01*
X128595300Y-112025200D02*
X130500300Y-112025200D01*
X120657800Y-102182700D02*
X122435800Y-102182700D01*
X122435800Y-102182700D02*
X122753300Y-102500200D01*
X124213800Y-109866200D02*
X126372800Y-112025200D01*
X122435800Y-102182700D02*
X122753300Y-102500200D01*
X122753300Y-102500200D02*
X124213800Y-103960700D01*
X124213800Y-103960700D02*
X124213800Y-109866200D01*
X126372800Y-112025200D02*
X127388800Y-112025200D01*
X127388800Y-112025200D02*
X127325300Y-112025200D01*
X127261800Y-112025200D02*
X127388800Y-112025200D01*
X127261800Y-112025200D02*
X127261800Y-112025200D01*
X125603000Y-113930200D02*
X124852200Y-113930200D01*
X122174000Y-110363000D02*
X122181800Y-110363000D01*
X122174000Y-111252000D02*
X122174000Y-110363000D01*
X124852200Y-113930200D02*
X122174000Y-111252000D01*
X172593000Y-108712000D02*
X172593000Y-106934000D01*
X172593000Y-103378000D02*
X172593000Y-101092000D01*
X175641000Y-108585000D02*
X172720000Y-108585000D01*
X172720000Y-108585000D02*
X172593000Y-108712000D01*
X178950800Y-110818700D02*
X178950800Y-110497800D01*
X178950800Y-110818700D02*
X175839300Y-113930200D01*
X175013800Y-113930200D02*
X175839300Y-113930200D01*
X177038000Y-108585000D02*
X175641000Y-108585000D01*
X178950800Y-110497800D02*
X177038000Y-108585000D01*
X122181800Y-108024700D02*
X122181800Y-110363000D01*
X121419800Y-107262700D02*
X122181800Y-108024700D01*
X122181800Y-110363000D02*
X122181800Y-110374200D01*
X126626800Y-113930200D02*
X125603000Y-113930200D01*
X125603000Y-113930200D02*
X125610800Y-113930200D01*
X126626800Y-113930200D02*
X126626800Y-113930200D01*
X175013800Y-113930200D02*
X175077300Y-113930200D01*
X126626800Y-113930200D02*
X175013800Y-113930200D01*
X165140164Y-65746464D02*
X164124164Y-65746464D01*
X163108164Y-59650464D02*
X161584164Y-59650465D01*
X163362163Y-59904464D02*
X163108164Y-59650464D01*
X163362163Y-64984463D02*
X163362163Y-59904464D01*
X164124164Y-65746464D02*
X163362163Y-64984463D01*
X129420800Y-96086700D02*
X133484800Y-96086700D01*
X133738800Y-95832700D02*
X133484800Y-96086700D01*
X133484800Y-96086700D02*
X133738800Y-95832700D01*
X129928800Y-99388700D02*
X129420800Y-98880700D01*
X129420800Y-98880700D02*
X128658800Y-98880700D01*
X128658800Y-98880700D02*
X128150800Y-98372700D01*
X129928800Y-100912700D02*
X129928800Y-99388700D01*
X128150800Y-98372700D02*
X128150800Y-94816700D01*
X126372800Y-104722700D02*
X128150800Y-102944700D01*
X128150800Y-102944700D02*
X128150800Y-100150700D01*
X128150800Y-100150700D02*
X126880800Y-98880700D01*
X126372800Y-108532700D02*
X126372800Y-104722700D01*
X126880800Y-98880700D02*
X126880800Y-96086700D01*
X120904000Y-103378000D02*
X122428000Y-103378000D01*
X122428000Y-103378000D02*
X122816800Y-103706700D01*
X119253000Y-103378000D02*
X120904000Y-103378000D01*
X120904000Y-103378000D02*
X120840500Y-103378000D01*
X123578800Y-104468700D02*
X123578800Y-110120200D01*
X122428000Y-103378000D02*
X122816800Y-103706700D01*
X122816800Y-103706700D02*
X123578800Y-104468700D01*
X118117800Y-102182700D02*
X119253000Y-103378000D01*
X127388800Y-112660200D02*
X126118800Y-112660200D01*
X123578800Y-110120200D02*
X126118800Y-112660200D01*
X133548300Y-110755200D02*
X133484800Y-110818700D01*
X133992800Y-110310700D02*
X133548300Y-110755200D01*
X131643300Y-112660200D02*
X133548300Y-110755200D01*
X127388800Y-112660200D02*
X131643300Y-112660200D01*
X127325300Y-112660200D02*
X127388800Y-112660200D01*
X133992800Y-110310700D02*
X133484800Y-110818700D01*
X143136800Y-110310700D02*
X133992800Y-110310700D01*
X148463000Y-108839000D02*
X148463000Y-106934000D01*
X148463000Y-103505000D02*
X148463000Y-101219000D01*
X148470800Y-108786700D02*
X145422800Y-108786700D01*
X144660800Y-108786700D02*
X143136800Y-110310700D01*
X145422800Y-108786700D02*
X144660800Y-108786700D01*
X161417000Y-108712000D02*
X161417000Y-106934000D01*
X161417000Y-103759000D02*
X161417000Y-101092000D01*
X164465000Y-108839000D02*
X161544000Y-108839000D01*
X161544000Y-108839000D02*
X161417000Y-108712000D01*
X165234800Y-108786700D02*
X166758800Y-110310700D01*
X166758800Y-110310700D02*
X175775800Y-110310700D01*
X173743800Y-113295200D02*
X173870800Y-113295200D01*
X176664800Y-110310700D02*
X177172800Y-110818700D01*
X177172800Y-110818700D02*
X174696300Y-113295200D01*
X174696300Y-113295200D02*
X173743800Y-113295200D01*
X177172800Y-110818700D02*
X176664800Y-110310700D01*
X176664800Y-110310700D02*
X175775800Y-110310700D01*
X175775800Y-110310700D02*
X175902800Y-110310700D01*
X126499800Y-113295200D02*
X173743800Y-113295200D01*
X126499800Y-113295200D02*
X126499800Y-113295200D01*
X126499800Y-113295200D02*
X125864800Y-113295200D01*
X122943800Y-110374200D02*
X125864800Y-113295200D01*
X122943800Y-105802200D02*
X122943800Y-110374200D01*
X122181800Y-105040200D02*
X122943800Y-105802200D01*
X121793000Y-104651400D02*
X122181800Y-105040200D01*
X121864300Y-104722700D02*
X122181800Y-105040200D01*
X121864300Y-104722700D02*
X121793000Y-104651400D01*
X121793000Y-104651400D02*
X120653400Y-104651400D01*
X120653400Y-104651400D02*
X120650000Y-104648000D01*
D25*
X124500000Y-61574900D02*
X126975600Y-61574900D01*
X126975600Y-61574900D02*
X127007800Y-61542700D01*
X122689800Y-59764700D02*
X124500000Y-61574900D01*
X124500000Y-61574900D02*
X124467800Y-61542700D01*
X118625800Y-59764700D02*
X122689800Y-59764700D01*
X122689800Y-59764700D02*
X122689800Y-59764700D01*
X118047800Y-60342700D02*
X118625800Y-59764700D01*
X118047800Y-61602700D02*
X118047800Y-60342700D01*
X124500000Y-64082700D02*
X127007800Y-64082700D01*
X120657800Y-61542700D02*
X120784800Y-61542700D01*
X120784800Y-61542700D02*
X123324800Y-64082700D01*
X123324800Y-64082700D02*
X124500000Y-64082700D01*
X124500000Y-64082700D02*
X124467800Y-64082700D01*
X127007800Y-64336700D02*
X127007800Y-64082700D01*
D26*
X120657800Y-86942700D02*
X122943800Y-86942700D01*
X122943800Y-86942700D02*
X123388300Y-87387200D01*
X122943800Y-86942700D02*
X123197800Y-87196700D01*
X129420800Y-87958700D02*
X124086800Y-87958700D01*
X129928800Y-87450700D02*
X129420800Y-87958700D01*
X123959800Y-87958700D02*
X124086800Y-87958700D01*
X122943800Y-86942700D02*
X123197800Y-87196700D01*
X123197800Y-87196700D02*
X123388300Y-87387200D01*
X123388300Y-87387200D02*
X123959800Y-87958700D01*
X129928800Y-87450700D02*
X129928800Y-85164700D01*
X123197800Y-96531200D02*
X123705800Y-96023200D01*
X119380000Y-98298000D02*
X121412000Y-98298000D01*
X121412000Y-98298000D02*
X123197800Y-96531200D01*
X123197800Y-96531200D02*
X123261300Y-96467700D01*
X118117800Y-99642700D02*
X119380000Y-98298000D01*
X124594800Y-91705200D02*
X125102800Y-91197200D01*
X124594800Y-91705200D02*
X123705800Y-92594200D01*
X123705800Y-92594200D02*
X123705800Y-96023200D01*
X125102800Y-91197200D02*
X125674300Y-91197200D01*
X180220800Y-85164700D02*
X180220800Y-86942700D01*
X176982300Y-91197200D02*
X180728800Y-87450700D01*
X176982300Y-91197200D02*
X176283800Y-91197200D01*
X180220800Y-86942700D02*
X180728800Y-87450700D01*
X126626800Y-91197200D02*
X125674300Y-91197200D01*
X126690300Y-91197200D02*
X126626800Y-91197200D01*
X126626800Y-91197200D02*
X176283800Y-91197200D01*
X176283800Y-91197200D02*
X176220300Y-91197200D01*
X179966800Y-85164700D02*
X180220800Y-85164700D01*
X120657800Y-99642700D02*
X122880300Y-99642700D01*
X122880300Y-99642700D02*
X123642300Y-100404700D01*
X124848800Y-101611200D02*
X123642300Y-100404700D01*
X123642300Y-100404700D02*
X122880300Y-99642700D01*
X124848800Y-109612200D02*
X124848800Y-101611200D01*
X126055300Y-110818700D02*
X124848800Y-109612200D01*
X129928800Y-110818700D02*
X126055300Y-110818700D01*
X129928800Y-108532700D02*
X129928800Y-110818700D01*
X129928800Y-108532700D02*
X129928800Y-110818700D01*
X125476000Y-114565200D02*
X123201200Y-114565200D01*
X120650000Y-112014000D02*
X120650000Y-109728000D01*
X123201200Y-114565200D02*
X120650000Y-112014000D01*
X179966800Y-108532700D02*
X180220800Y-108532700D01*
X126817300Y-114565200D02*
X125476000Y-114565200D01*
X125476000Y-114565200D02*
X125420300Y-114565200D01*
X176283800Y-114565200D02*
X176220300Y-114565200D01*
X126626800Y-114565200D02*
X126817300Y-114565200D01*
X126817300Y-114565200D02*
X176283800Y-114565200D01*
X126690300Y-114565200D02*
X126626800Y-114565200D01*
X180220800Y-110310700D02*
X180728800Y-110818700D01*
X176982300Y-114565200D02*
X176283800Y-114565200D01*
X176982300Y-114565200D02*
X180728800Y-110818700D01*
X180220800Y-108786700D02*
X180220800Y-110310700D01*
X180220800Y-110310700D02*
X180728800Y-110818700D01*
X117500000Y-57969500D02*
X117530500Y-57969500D01*
X144279800Y-58875700D02*
X144406800Y-58875700D01*
X159011800Y-62558700D02*
X155328800Y-58875700D01*
X155328800Y-58875700D02*
X144279800Y-58875700D01*
X161615300Y-62558700D02*
X159011800Y-62558700D01*
X144500000Y-59000000D02*
X144279800Y-58875700D01*
X143000000Y-57500000D02*
X144500000Y-59000000D01*
X118000000Y-57500000D02*
X143000000Y-57500000D01*
X117530500Y-57969500D02*
X118000000Y-57500000D01*
X117482800Y-57986700D02*
X117500000Y-57969500D01*
X117500000Y-57969500D02*
X115323800Y-60145700D01*
X115323800Y-60145700D02*
X115323800Y-101928700D01*
X115323800Y-101928700D02*
X116593800Y-103198700D01*
X118117800Y-104722700D02*
X116593800Y-103198700D01*
X116593800Y-103198700D02*
X116466800Y-103071700D01*
X138049000Y-74488900D02*
X138049000Y-74549000D01*
X138049000Y-74549000D02*
X134874000Y-77724000D01*
X134874000Y-77724000D02*
X134239000Y-77724000D01*
X170434000Y-75819000D02*
X166497000Y-75819000D01*
X166497000Y-75819000D02*
X164465000Y-77851000D01*
X164465000Y-77851000D02*
X164465000Y-77089000D01*
X170688000Y-75565000D02*
X170688000Y-75647500D01*
X170478500Y-75774500D02*
X170434000Y-75819000D01*
X170434000Y-75819000D02*
X170688000Y-75565000D01*
X164472800Y-77544700D02*
X164472800Y-77290700D01*
X145422800Y-77290700D02*
X143898800Y-75766700D01*
D25*
X129547800Y-61542700D02*
X129547800Y-64082700D01*
X131000000Y-64082700D02*
X129547800Y-64082700D01*
X127000000Y-66376500D02*
X129123500Y-66376500D01*
X129123500Y-66376500D02*
X129547800Y-65952200D01*
X129547800Y-65952200D02*
X129547800Y-64082700D01*
X158326000Y-66102000D02*
X148674000Y-66102000D01*
X167838300Y-68273700D02*
X165946000Y-70166000D01*
X165946000Y-70166000D02*
X162390000Y-70166000D01*
X162390000Y-70166000D02*
X158326000Y-66102000D01*
X170010000Y-68273700D02*
X167838300Y-68273700D01*
X142070000Y-64070000D02*
X142070000Y-64082700D01*
X146642000Y-64070000D02*
X142070000Y-64070000D01*
X148674000Y-66102000D02*
X146642000Y-64070000D01*
X171457800Y-68273700D02*
X170010000Y-68273700D01*
X170010000Y-68273700D02*
X169806800Y-68273700D01*
X142438300Y-64082700D02*
X142070000Y-64082700D01*
X142070000Y-64082700D02*
X131000000Y-64082700D01*
X131000000Y-64082700D02*
X130817800Y-64082700D01*
X132722800Y-64082700D02*
X130817800Y-64082700D01*
X124848800Y-69670700D02*
X124848800Y-68527700D01*
X124848800Y-68527700D02*
X127000000Y-66376500D01*
X127000000Y-66376500D02*
X127007800Y-66368700D01*
D26*
X145422800Y-77798700D02*
X145422800Y-77290700D01*
X143898800Y-75766700D02*
X139326800Y-75766700D01*
X139326800Y-75766700D02*
X138049000Y-74488900D01*
X138049000Y-74488900D02*
X138056800Y-74496700D01*
X136532800Y-69670700D02*
X124848800Y-69670700D01*
X138056800Y-71194700D02*
X136532800Y-69670700D01*
X138056800Y-74496700D02*
X138056800Y-71194700D01*
X126372800Y-76274700D02*
X126372800Y-77544700D01*
X126372800Y-76274700D02*
X124848800Y-74750700D01*
X124848800Y-74750700D02*
X124848800Y-69670700D01*
D25*
X180093800Y-68273700D02*
X171457800Y-68273700D01*
X171521300Y-59637700D02*
X171521300Y-59650464D01*
X169204164Y-59650464D02*
X171521300Y-59650464D01*
X171521300Y-59650464D02*
X171534064Y-59650464D01*
X180093800Y-68210200D02*
X180093800Y-68273700D01*
X171534064Y-59650464D02*
X180093800Y-68210200D01*
X185618300Y-68273700D02*
X180093800Y-68273700D01*
X186316800Y-68972200D02*
X185935800Y-68591200D01*
X185935800Y-68591200D02*
X185618300Y-68273700D01*
X186316800Y-75004700D02*
X186316800Y-68972200D01*
X185491300Y-75830200D02*
X186316800Y-75004700D01*
X185491300Y-85926700D02*
X185491300Y-75830200D01*
X184983300Y-69607200D02*
X184983300Y-69543700D01*
X184983300Y-69543700D02*
X185935800Y-68591200D01*
D26*
X183522800Y-76274700D02*
X183522800Y-77544700D01*
X185046800Y-74750700D02*
X183522800Y-76274700D01*
X173362800Y-69670700D02*
X185046800Y-69670700D01*
X185046800Y-69670700D02*
X185046800Y-74750700D01*
X171838800Y-71194700D02*
X173362800Y-69670700D01*
X171838800Y-74242700D02*
X171838800Y-71194700D01*
X170568800Y-75766700D02*
X170688000Y-75647500D01*
X170688000Y-75647500D02*
X171838800Y-74496700D01*
X171838800Y-74496700D02*
X171838800Y-74242700D01*
X173108800Y-75766700D02*
X171838800Y-74496700D01*
X171838800Y-74496700D02*
X171838800Y-74242700D01*
D25*
X124848800Y-93038700D02*
X124848800Y-92975200D01*
X179395300Y-92022700D02*
X181808300Y-89609700D01*
X181808300Y-89609700D02*
X185491300Y-85926700D01*
X125801300Y-92022700D02*
X179395300Y-92022700D01*
X124848800Y-92975200D02*
X125801300Y-92022700D01*
D26*
X124848800Y-98118700D02*
X124848800Y-93038700D01*
X126372800Y-99642700D02*
X124848800Y-98118700D01*
X126372800Y-99642700D02*
X126372800Y-100912700D01*
X134500800Y-99134700D02*
X136786800Y-99134700D01*
X136786800Y-99134700D02*
X138056800Y-97864700D01*
X138056800Y-97864700D02*
X138056800Y-94562700D01*
X138056800Y-94562700D02*
X136532800Y-93038700D01*
X136532800Y-93038700D02*
X124848800Y-93038700D01*
X134246800Y-99388700D02*
X134500800Y-99134700D01*
X134246800Y-100912700D02*
X134246800Y-99388700D01*
X139326800Y-99134700D02*
X138056800Y-97864700D01*
X143898800Y-99134700D02*
X139326800Y-99134700D01*
X145422800Y-100658700D02*
X143898800Y-99134700D01*
X145422800Y-101166700D02*
X145422800Y-100658700D01*
D25*
X185046800Y-92911700D02*
X181808300Y-89673200D01*
X181808300Y-89673200D02*
X181808300Y-89609700D01*
D26*
X185046800Y-93038700D02*
X185046800Y-92911700D01*
X173362800Y-93038700D02*
X185554800Y-93038700D01*
X171838800Y-94562700D02*
X173362800Y-93038700D01*
X171838800Y-97610700D02*
X171838800Y-94562700D01*
X171838800Y-97864700D02*
X171838800Y-97610700D01*
X173108800Y-99134700D02*
X171838800Y-97864700D01*
X171838800Y-97864700D02*
X171838800Y-97610700D01*
X185046800Y-92911700D02*
X185046800Y-98118700D01*
X183522800Y-99642700D02*
X183522800Y-100912700D01*
X185046800Y-98118700D02*
X183522800Y-99642700D01*
X175394800Y-75766700D02*
X173108800Y-75766700D01*
X175648800Y-76020700D02*
X175394800Y-75766700D01*
X175648800Y-77544700D02*
X175648800Y-76020700D01*
X175394800Y-99134700D02*
X173108800Y-99134700D01*
X175648800Y-99388700D02*
X175394800Y-99134700D01*
X175648800Y-100912700D02*
X175648800Y-99388700D01*
X170568800Y-99134700D02*
X171838800Y-97864700D01*
X165996800Y-99134700D02*
X170568800Y-99134700D01*
X164472800Y-100658700D02*
X165996800Y-99134700D01*
X164472800Y-100912700D02*
X164472800Y-100658700D01*
D27*
G36*
X115720750Y-104485720D02*
X115688471Y-104648000D01*
X115851140Y-105465794D01*
X116314384Y-106159087D01*
X116718396Y-106429039D01*
X116536106Y-106755183D01*
X116520258Y-106843297D01*
X116641996Y-107059000D01*
X117981000Y-107059000D01*
X117981000Y-107039000D01*
X118239000Y-107039000D01*
X118239000Y-107059000D01*
X118254131Y-107059000D01*
X118228471Y-107188000D01*
X118254131Y-107317000D01*
X118239000Y-107317000D01*
X118239000Y-108429772D01*
X118278352Y-108458000D01*
X118239000Y-108486228D01*
X118239000Y-109599000D01*
X118254131Y-109599000D01*
X118228471Y-109728000D01*
X118254131Y-109857000D01*
X118239000Y-109857000D01*
X118239000Y-110969772D01*
X118459354Y-111127837D01*
X118729060Y-111051527D01*
X118854384Y-111239087D01*
X119122600Y-111418303D01*
X119122600Y-112014000D01*
X119238866Y-112598511D01*
X119569965Y-113094035D01*
X121906630Y-115430700D01*
X114769800Y-115430700D01*
X114769800Y-110072703D01*
X116520258Y-110072703D01*
X116536106Y-110160817D01*
X116803427Y-110639095D01*
X117233428Y-110978667D01*
X117760646Y-111127837D01*
X117981000Y-110969772D01*
X117981000Y-109857000D01*
X116641996Y-109857000D01*
X116520258Y-110072703D01*
X114769800Y-110072703D01*
X114769800Y-107532703D01*
X116520258Y-107532703D01*
X116536106Y-107620817D01*
X116803427Y-108099095D01*
X117233428Y-108438667D01*
X117301757Y-108458000D01*
X117233428Y-108477333D01*
X116803427Y-108816905D01*
X116536106Y-109295183D01*
X116520258Y-109383297D01*
X116641996Y-109599000D01*
X117981000Y-109599000D01*
X117981000Y-108486228D01*
X117941648Y-108458000D01*
X117981000Y-108429772D01*
X117981000Y-107317000D01*
X116641996Y-107317000D01*
X116520258Y-107532703D01*
X114769800Y-107532703D01*
X114769800Y-103534770D01*
X115720750Y-104485720D01*
X115720750Y-104485720D01*
G37*
X115720750Y-104485720D02*
X115688471Y-104648000D01*
X115851140Y-105465794D01*
X116314384Y-106159087D01*
X116718396Y-106429039D01*
X116536106Y-106755183D01*
X116520258Y-106843297D01*
X116641996Y-107059000D01*
X117981000Y-107059000D01*
X117981000Y-107039000D01*
X118239000Y-107039000D01*
X118239000Y-107059000D01*
X118254131Y-107059000D01*
X118228471Y-107188000D01*
X118254131Y-107317000D01*
X118239000Y-107317000D01*
X118239000Y-108429772D01*
X118278352Y-108458000D01*
X118239000Y-108486228D01*
X118239000Y-109599000D01*
X118254131Y-109599000D01*
X118228471Y-109728000D01*
X118254131Y-109857000D01*
X118239000Y-109857000D01*
X118239000Y-110969772D01*
X118459354Y-111127837D01*
X118729060Y-111051527D01*
X118854384Y-111239087D01*
X119122600Y-111418303D01*
X119122600Y-112014000D01*
X119238866Y-112598511D01*
X119569965Y-113094035D01*
X121906630Y-115430700D01*
X114769800Y-115430700D01*
X114769800Y-110072703D01*
X116520258Y-110072703D01*
X116536106Y-110160817D01*
X116803427Y-110639095D01*
X117233428Y-110978667D01*
X117760646Y-111127837D01*
X117981000Y-110969772D01*
X117981000Y-109857000D01*
X116641996Y-109857000D01*
X116520258Y-110072703D01*
X114769800Y-110072703D01*
X114769800Y-107532703D01*
X116520258Y-107532703D01*
X116536106Y-107620817D01*
X116803427Y-108099095D01*
X117233428Y-108438667D01*
X117301757Y-108458000D01*
X117233428Y-108477333D01*
X116803427Y-108816905D01*
X116536106Y-109295183D01*
X116520258Y-109383297D01*
X116641996Y-109599000D01*
X117981000Y-109599000D01*
X117981000Y-108486228D01*
X117941648Y-108458000D01*
X117981000Y-108429772D01*
X117981000Y-107317000D01*
X116641996Y-107317000D01*
X116520258Y-107532703D01*
X114769800Y-107532703D01*
X114769800Y-103534770D01*
X115720750Y-104485720D01*
G36*
X170427666Y-93978189D02*
X170311400Y-94562700D01*
X170311400Y-97232030D01*
X169936130Y-97607300D01*
X165996800Y-97607300D01*
X165412289Y-97723566D01*
X164916765Y-98054665D01*
X164127215Y-98844215D01*
X163994757Y-98844099D01*
X163121717Y-99204832D01*
X162791753Y-99534220D01*
X162593077Y-99335197D01*
X161831254Y-99018861D01*
X161006365Y-99018141D01*
X160243991Y-99333147D01*
X159660197Y-99915923D01*
X159343861Y-100677746D01*
X159343141Y-101502635D01*
X159658147Y-102265009D01*
X159862990Y-102470209D01*
X159713999Y-102618940D01*
X159407350Y-103357432D01*
X159406652Y-104157060D01*
X159712012Y-104896086D01*
X160161930Y-105346790D01*
X159713999Y-105793940D01*
X159407350Y-106532432D01*
X159406652Y-107332060D01*
X159575333Y-107740298D01*
X159343861Y-108297746D01*
X159343141Y-109122635D01*
X159658147Y-109885009D01*
X160240923Y-110468803D01*
X161002746Y-110785139D01*
X161827635Y-110785859D01*
X162590009Y-110470853D01*
X162664584Y-110396408D01*
X163118203Y-110850821D01*
X163990613Y-111213077D01*
X164935243Y-111213901D01*
X165336242Y-111048212D01*
X165678765Y-111390735D01*
X166174289Y-111721834D01*
X166405377Y-111767800D01*
X143490223Y-111767800D01*
X143721311Y-111721834D01*
X144216835Y-111390735D01*
X144464989Y-111142581D01*
X144940613Y-111340077D01*
X145885243Y-111340901D01*
X146758283Y-110980168D01*
X147215247Y-110524002D01*
X147286923Y-110595803D01*
X148048746Y-110912139D01*
X148873635Y-110912859D01*
X149636009Y-110597853D01*
X150219803Y-110015077D01*
X150320174Y-109773355D01*
X152791078Y-109773355D01*
X152853005Y-110008164D01*
X153352947Y-110183216D01*
X153881824Y-110153624D01*
X154232995Y-110008164D01*
X154294922Y-109773355D01*
X154167922Y-109646355D01*
X155585078Y-109646355D01*
X155647005Y-109881164D01*
X156146947Y-110056216D01*
X156675824Y-110026624D01*
X157026995Y-109881164D01*
X157088922Y-109646355D01*
X156337000Y-108894434D01*
X155585078Y-109646355D01*
X154167922Y-109646355D01*
X153543000Y-109021434D01*
X152791078Y-109773355D01*
X150320174Y-109773355D01*
X150536139Y-109253254D01*
X150536666Y-108648947D01*
X152198784Y-108648947D01*
X152228376Y-109177824D01*
X152373836Y-109528995D01*
X152608645Y-109590922D01*
X153360566Y-108839000D01*
X153725434Y-108839000D01*
X154477355Y-109590922D01*
X154712164Y-109528995D01*
X154887216Y-109029053D01*
X154858843Y-108521947D01*
X154992784Y-108521947D01*
X155022376Y-109050824D01*
X155167836Y-109401995D01*
X155402645Y-109463922D01*
X156154566Y-108712000D01*
X156519434Y-108712000D01*
X157271355Y-109463922D01*
X157506164Y-109401995D01*
X157681216Y-108902053D01*
X157651624Y-108373176D01*
X157506164Y-108022005D01*
X157271355Y-107960078D01*
X156519434Y-108712000D01*
X156154566Y-108712000D01*
X155402645Y-107960078D01*
X155167836Y-108022005D01*
X154992784Y-108521947D01*
X154858843Y-108521947D01*
X154857624Y-108500176D01*
X154712164Y-108149005D01*
X154477355Y-108087078D01*
X153725434Y-108839000D01*
X153360566Y-108839000D01*
X152608645Y-108087078D01*
X152373836Y-108149005D01*
X152198784Y-108648947D01*
X150536666Y-108648947D01*
X150536859Y-108428365D01*
X150320463Y-107904645D01*
X152791078Y-107904645D01*
X153543000Y-108656566D01*
X154294922Y-107904645D01*
X154261428Y-107777645D01*
X155585078Y-107777645D01*
X156337000Y-108529566D01*
X157088922Y-107777645D01*
X157026995Y-107542836D01*
X156527053Y-107367784D01*
X155998176Y-107397376D01*
X155647005Y-107542836D01*
X155585078Y-107777645D01*
X154261428Y-107777645D01*
X154232995Y-107669836D01*
X153733053Y-107494784D01*
X153204176Y-107524376D01*
X152853005Y-107669836D01*
X152791078Y-107904645D01*
X150320463Y-107904645D01*
X150278509Y-107803110D01*
X150472650Y-107335568D01*
X150473348Y-106535940D01*
X150167988Y-105796914D01*
X149603060Y-105230999D01*
X149576214Y-105219852D01*
X149600086Y-105209988D01*
X150166001Y-104645060D01*
X150472650Y-103906568D01*
X150473348Y-103106940D01*
X150191065Y-102423765D01*
X150219803Y-102395077D01*
X150320174Y-102153355D01*
X152791078Y-102153355D01*
X152853005Y-102388164D01*
X153352947Y-102563216D01*
X153881824Y-102533624D01*
X154232995Y-102388164D01*
X154294922Y-102153355D01*
X154167922Y-102026355D01*
X155585078Y-102026355D01*
X155647005Y-102261164D01*
X156146947Y-102436216D01*
X156675824Y-102406624D01*
X157026995Y-102261164D01*
X157088922Y-102026355D01*
X156337000Y-101274434D01*
X155585078Y-102026355D01*
X154167922Y-102026355D01*
X153543000Y-101401434D01*
X152791078Y-102153355D01*
X150320174Y-102153355D01*
X150536139Y-101633254D01*
X150536666Y-101028947D01*
X152198784Y-101028947D01*
X152228376Y-101557824D01*
X152373836Y-101908995D01*
X152608645Y-101970922D01*
X153360566Y-101219000D01*
X153725434Y-101219000D01*
X154477355Y-101970922D01*
X154712164Y-101908995D01*
X154887216Y-101409053D01*
X154858843Y-100901947D01*
X154992784Y-100901947D01*
X155022376Y-101430824D01*
X155167836Y-101781995D01*
X155402645Y-101843922D01*
X156154566Y-101092000D01*
X156519434Y-101092000D01*
X157271355Y-101843922D01*
X157506164Y-101781995D01*
X157681216Y-101282053D01*
X157651624Y-100753176D01*
X157506164Y-100402005D01*
X157271355Y-100340078D01*
X156519434Y-101092000D01*
X156154566Y-101092000D01*
X155402645Y-100340078D01*
X155167836Y-100402005D01*
X154992784Y-100901947D01*
X154858843Y-100901947D01*
X154857624Y-100880176D01*
X154712164Y-100529005D01*
X154477355Y-100467078D01*
X153725434Y-101219000D01*
X153360566Y-101219000D01*
X152608645Y-100467078D01*
X152373836Y-100529005D01*
X152198784Y-101028947D01*
X150536666Y-101028947D01*
X150536859Y-100808365D01*
X150320463Y-100284645D01*
X152791078Y-100284645D01*
X153543000Y-101036566D01*
X154294922Y-100284645D01*
X154261428Y-100157645D01*
X155585078Y-100157645D01*
X156337000Y-100909566D01*
X157088922Y-100157645D01*
X157026995Y-99922836D01*
X156527053Y-99747784D01*
X155998176Y-99777376D01*
X155647005Y-99922836D01*
X155585078Y-100157645D01*
X154261428Y-100157645D01*
X154232995Y-100049836D01*
X153733053Y-99874784D01*
X153204176Y-99904376D01*
X152853005Y-100049836D01*
X152791078Y-100284645D01*
X150320463Y-100284645D01*
X150221853Y-100045991D01*
X149639077Y-99462197D01*
X148877254Y-99145861D01*
X148052365Y-99145141D01*
X147289991Y-99460147D01*
X147088417Y-99661370D01*
X146761797Y-99334179D01*
X145900855Y-98976685D01*
X145319170Y-98395000D01*
X154972715Y-98395000D01*
X154972715Y-93715200D01*
X170603390Y-93715200D01*
X170427666Y-93978189D01*
X170427666Y-93978189D01*
G37*
X170427666Y-93978189D02*
X170311400Y-94562700D01*
X170311400Y-97232030D01*
X169936130Y-97607300D01*
X165996800Y-97607300D01*
X165412289Y-97723566D01*
X164916765Y-98054665D01*
X164127215Y-98844215D01*
X163994757Y-98844099D01*
X163121717Y-99204832D01*
X162791753Y-99534220D01*
X162593077Y-99335197D01*
X161831254Y-99018861D01*
X161006365Y-99018141D01*
X160243991Y-99333147D01*
X159660197Y-99915923D01*
X159343861Y-100677746D01*
X159343141Y-101502635D01*
X159658147Y-102265009D01*
X159862990Y-102470209D01*
X159713999Y-102618940D01*
X159407350Y-103357432D01*
X159406652Y-104157060D01*
X159712012Y-104896086D01*
X160161930Y-105346790D01*
X159713999Y-105793940D01*
X159407350Y-106532432D01*
X159406652Y-107332060D01*
X159575333Y-107740298D01*
X159343861Y-108297746D01*
X159343141Y-109122635D01*
X159658147Y-109885009D01*
X160240923Y-110468803D01*
X161002746Y-110785139D01*
X161827635Y-110785859D01*
X162590009Y-110470853D01*
X162664584Y-110396408D01*
X163118203Y-110850821D01*
X163990613Y-111213077D01*
X164935243Y-111213901D01*
X165336242Y-111048212D01*
X165678765Y-111390735D01*
X166174289Y-111721834D01*
X166405377Y-111767800D01*
X143490223Y-111767800D01*
X143721311Y-111721834D01*
X144216835Y-111390735D01*
X144464989Y-111142581D01*
X144940613Y-111340077D01*
X145885243Y-111340901D01*
X146758283Y-110980168D01*
X147215247Y-110524002D01*
X147286923Y-110595803D01*
X148048746Y-110912139D01*
X148873635Y-110912859D01*
X149636009Y-110597853D01*
X150219803Y-110015077D01*
X150320174Y-109773355D01*
X152791078Y-109773355D01*
X152853005Y-110008164D01*
X153352947Y-110183216D01*
X153881824Y-110153624D01*
X154232995Y-110008164D01*
X154294922Y-109773355D01*
X154167922Y-109646355D01*
X155585078Y-109646355D01*
X155647005Y-109881164D01*
X156146947Y-110056216D01*
X156675824Y-110026624D01*
X157026995Y-109881164D01*
X157088922Y-109646355D01*
X156337000Y-108894434D01*
X155585078Y-109646355D01*
X154167922Y-109646355D01*
X153543000Y-109021434D01*
X152791078Y-109773355D01*
X150320174Y-109773355D01*
X150536139Y-109253254D01*
X150536666Y-108648947D01*
X152198784Y-108648947D01*
X152228376Y-109177824D01*
X152373836Y-109528995D01*
X152608645Y-109590922D01*
X153360566Y-108839000D01*
X153725434Y-108839000D01*
X154477355Y-109590922D01*
X154712164Y-109528995D01*
X154887216Y-109029053D01*
X154858843Y-108521947D01*
X154992784Y-108521947D01*
X155022376Y-109050824D01*
X155167836Y-109401995D01*
X155402645Y-109463922D01*
X156154566Y-108712000D01*
X156519434Y-108712000D01*
X157271355Y-109463922D01*
X157506164Y-109401995D01*
X157681216Y-108902053D01*
X157651624Y-108373176D01*
X157506164Y-108022005D01*
X157271355Y-107960078D01*
X156519434Y-108712000D01*
X156154566Y-108712000D01*
X155402645Y-107960078D01*
X155167836Y-108022005D01*
X154992784Y-108521947D01*
X154858843Y-108521947D01*
X154857624Y-108500176D01*
X154712164Y-108149005D01*
X154477355Y-108087078D01*
X153725434Y-108839000D01*
X153360566Y-108839000D01*
X152608645Y-108087078D01*
X152373836Y-108149005D01*
X152198784Y-108648947D01*
X150536666Y-108648947D01*
X150536859Y-108428365D01*
X150320463Y-107904645D01*
X152791078Y-107904645D01*
X153543000Y-108656566D01*
X154294922Y-107904645D01*
X154261428Y-107777645D01*
X155585078Y-107777645D01*
X156337000Y-108529566D01*
X157088922Y-107777645D01*
X157026995Y-107542836D01*
X156527053Y-107367784D01*
X155998176Y-107397376D01*
X155647005Y-107542836D01*
X155585078Y-107777645D01*
X154261428Y-107777645D01*
X154232995Y-107669836D01*
X153733053Y-107494784D01*
X153204176Y-107524376D01*
X152853005Y-107669836D01*
X152791078Y-107904645D01*
X150320463Y-107904645D01*
X150278509Y-107803110D01*
X150472650Y-107335568D01*
X150473348Y-106535940D01*
X150167988Y-105796914D01*
X149603060Y-105230999D01*
X149576214Y-105219852D01*
X149600086Y-105209988D01*
X150166001Y-104645060D01*
X150472650Y-103906568D01*
X150473348Y-103106940D01*
X150191065Y-102423765D01*
X150219803Y-102395077D01*
X150320174Y-102153355D01*
X152791078Y-102153355D01*
X152853005Y-102388164D01*
X153352947Y-102563216D01*
X153881824Y-102533624D01*
X154232995Y-102388164D01*
X154294922Y-102153355D01*
X154167922Y-102026355D01*
X155585078Y-102026355D01*
X155647005Y-102261164D01*
X156146947Y-102436216D01*
X156675824Y-102406624D01*
X157026995Y-102261164D01*
X157088922Y-102026355D01*
X156337000Y-101274434D01*
X155585078Y-102026355D01*
X154167922Y-102026355D01*
X153543000Y-101401434D01*
X152791078Y-102153355D01*
X150320174Y-102153355D01*
X150536139Y-101633254D01*
X150536666Y-101028947D01*
X152198784Y-101028947D01*
X152228376Y-101557824D01*
X152373836Y-101908995D01*
X152608645Y-101970922D01*
X153360566Y-101219000D01*
X153725434Y-101219000D01*
X154477355Y-101970922D01*
X154712164Y-101908995D01*
X154887216Y-101409053D01*
X154858843Y-100901947D01*
X154992784Y-100901947D01*
X155022376Y-101430824D01*
X155167836Y-101781995D01*
X155402645Y-101843922D01*
X156154566Y-101092000D01*
X156519434Y-101092000D01*
X157271355Y-101843922D01*
X157506164Y-101781995D01*
X157681216Y-101282053D01*
X157651624Y-100753176D01*
X157506164Y-100402005D01*
X157271355Y-100340078D01*
X156519434Y-101092000D01*
X156154566Y-101092000D01*
X155402645Y-100340078D01*
X155167836Y-100402005D01*
X154992784Y-100901947D01*
X154858843Y-100901947D01*
X154857624Y-100880176D01*
X154712164Y-100529005D01*
X154477355Y-100467078D01*
X153725434Y-101219000D01*
X153360566Y-101219000D01*
X152608645Y-100467078D01*
X152373836Y-100529005D01*
X152198784Y-101028947D01*
X150536666Y-101028947D01*
X150536859Y-100808365D01*
X150320463Y-100284645D01*
X152791078Y-100284645D01*
X153543000Y-101036566D01*
X154294922Y-100284645D01*
X154261428Y-100157645D01*
X155585078Y-100157645D01*
X156337000Y-100909566D01*
X157088922Y-100157645D01*
X157026995Y-99922836D01*
X156527053Y-99747784D01*
X155998176Y-99777376D01*
X155647005Y-99922836D01*
X155585078Y-100157645D01*
X154261428Y-100157645D01*
X154232995Y-100049836D01*
X153733053Y-99874784D01*
X153204176Y-99904376D01*
X152853005Y-100049836D01*
X152791078Y-100284645D01*
X150320463Y-100284645D01*
X150221853Y-100045991D01*
X149639077Y-99462197D01*
X148877254Y-99145861D01*
X148052365Y-99145141D01*
X147289991Y-99460147D01*
X147088417Y-99661370D01*
X146761797Y-99334179D01*
X145900855Y-98976685D01*
X145319170Y-98395000D01*
X154972715Y-98395000D01*
X154972715Y-93715200D01*
X170603390Y-93715200D01*
X170427666Y-93978189D01*
G36*
X170519861Y-100677746D02*
X170519141Y-101502635D01*
X170834147Y-102265009D01*
X170865653Y-102296570D01*
X170583350Y-102976432D01*
X170582652Y-103776060D01*
X170888012Y-104515086D01*
X171452940Y-105081001D01*
X171633088Y-105155805D01*
X171455914Y-105229012D01*
X170889999Y-105793940D01*
X170583350Y-106532432D01*
X170582652Y-107332060D01*
X170751333Y-107740298D01*
X170519861Y-108297746D01*
X170519437Y-108783300D01*
X168850571Y-108783300D01*
X168827624Y-108373176D01*
X168682164Y-108022005D01*
X168447355Y-107960078D01*
X167695434Y-108712000D01*
X167709576Y-108726142D01*
X167652418Y-108783300D01*
X167391470Y-108783300D01*
X167325368Y-108717198D01*
X167330566Y-108712000D01*
X167316424Y-108697858D01*
X167498858Y-108515424D01*
X167513000Y-108529566D01*
X168264922Y-107777645D01*
X168202995Y-107542836D01*
X167703053Y-107367784D01*
X167174176Y-107397376D01*
X166823005Y-107542836D01*
X166761079Y-107777642D01*
X166645992Y-107662555D01*
X166576725Y-107731822D01*
X166479168Y-107495717D01*
X165811797Y-106827179D01*
X164939387Y-106464923D01*
X163994757Y-106464099D01*
X163427206Y-106698606D01*
X163427348Y-106535940D01*
X163121988Y-105796914D01*
X162672070Y-105346210D01*
X163120001Y-104899060D01*
X163426650Y-104160568D01*
X163427348Y-103360940D01*
X163426475Y-103358827D01*
X163990613Y-103593077D01*
X164935243Y-103593901D01*
X165808283Y-103233168D01*
X166476821Y-102565797D01*
X166658023Y-102129414D01*
X166761079Y-102026358D01*
X166823005Y-102261164D01*
X167322947Y-102436216D01*
X167851824Y-102406624D01*
X168202995Y-102261164D01*
X168264922Y-102026355D01*
X167513000Y-101274434D01*
X167498858Y-101288576D01*
X167316424Y-101106142D01*
X167330566Y-101092000D01*
X167316424Y-101077858D01*
X167498858Y-100895424D01*
X167513000Y-100909566D01*
X167527142Y-100895424D01*
X167709576Y-101077858D01*
X167695434Y-101092000D01*
X168447355Y-101843922D01*
X168682164Y-101781995D01*
X168857216Y-101282053D01*
X168827624Y-100753176D01*
X168789899Y-100662100D01*
X170526358Y-100662100D01*
X170519861Y-100677746D01*
X170519861Y-100677746D01*
G37*
X170519861Y-100677746D02*
X170519141Y-101502635D01*
X170834147Y-102265009D01*
X170865653Y-102296570D01*
X170583350Y-102976432D01*
X170582652Y-103776060D01*
X170888012Y-104515086D01*
X171452940Y-105081001D01*
X171633088Y-105155805D01*
X171455914Y-105229012D01*
X170889999Y-105793940D01*
X170583350Y-106532432D01*
X170582652Y-107332060D01*
X170751333Y-107740298D01*
X170519861Y-108297746D01*
X170519437Y-108783300D01*
X168850571Y-108783300D01*
X168827624Y-108373176D01*
X168682164Y-108022005D01*
X168447355Y-107960078D01*
X167695434Y-108712000D01*
X167709576Y-108726142D01*
X167652418Y-108783300D01*
X167391470Y-108783300D01*
X167325368Y-108717198D01*
X167330566Y-108712000D01*
X167316424Y-108697858D01*
X167498858Y-108515424D01*
X167513000Y-108529566D01*
X168264922Y-107777645D01*
X168202995Y-107542836D01*
X167703053Y-107367784D01*
X167174176Y-107397376D01*
X166823005Y-107542836D01*
X166761079Y-107777642D01*
X166645992Y-107662555D01*
X166576725Y-107731822D01*
X166479168Y-107495717D01*
X165811797Y-106827179D01*
X164939387Y-106464923D01*
X163994757Y-106464099D01*
X163427206Y-106698606D01*
X163427348Y-106535940D01*
X163121988Y-105796914D01*
X162672070Y-105346210D01*
X163120001Y-104899060D01*
X163426650Y-104160568D01*
X163427348Y-103360940D01*
X163426475Y-103358827D01*
X163990613Y-103593077D01*
X164935243Y-103593901D01*
X165808283Y-103233168D01*
X166476821Y-102565797D01*
X166658023Y-102129414D01*
X166761079Y-102026358D01*
X166823005Y-102261164D01*
X167322947Y-102436216D01*
X167851824Y-102406624D01*
X168202995Y-102261164D01*
X168264922Y-102026355D01*
X167513000Y-101274434D01*
X167498858Y-101288576D01*
X167316424Y-101106142D01*
X167330566Y-101092000D01*
X167316424Y-101077858D01*
X167498858Y-100895424D01*
X167513000Y-100909566D01*
X167527142Y-100895424D01*
X167709576Y-101077858D01*
X167695434Y-101092000D01*
X168447355Y-101843922D01*
X168682164Y-101781995D01*
X168857216Y-101282053D01*
X168827624Y-100753176D01*
X168789899Y-100662100D01*
X170526358Y-100662100D01*
X170519861Y-100677746D01*
G36*
X139326800Y-100662100D02*
X141151234Y-100662100D01*
X141022784Y-101028947D01*
X141052376Y-101557824D01*
X141197836Y-101908995D01*
X141432645Y-101970922D01*
X142184566Y-101219000D01*
X142170424Y-101204858D01*
X142352858Y-101022424D01*
X142367000Y-101036566D01*
X142381142Y-101022424D01*
X142563576Y-101204858D01*
X142549434Y-101219000D01*
X142563576Y-101233142D01*
X142381142Y-101415576D01*
X142367000Y-101401434D01*
X141615078Y-102153355D01*
X141677005Y-102388164D01*
X142176947Y-102563216D01*
X142705824Y-102533624D01*
X143056995Y-102388164D01*
X143118921Y-102153358D01*
X143221972Y-102256409D01*
X143400832Y-102689283D01*
X144068203Y-103357821D01*
X144940613Y-103720077D01*
X145885243Y-103720901D01*
X146453016Y-103486302D01*
X146452652Y-103903060D01*
X146758012Y-104642086D01*
X147322940Y-105208001D01*
X147349786Y-105219148D01*
X147325914Y-105229012D01*
X146759999Y-105793940D01*
X146453350Y-106532432D01*
X146453094Y-106825994D01*
X145889387Y-106591923D01*
X144944757Y-106591099D01*
X144071717Y-106951832D01*
X143403179Y-107619203D01*
X143303562Y-107859109D01*
X143234008Y-107789555D01*
X143118921Y-107904642D01*
X143056995Y-107669836D01*
X142557053Y-107494784D01*
X142028176Y-107524376D01*
X141677005Y-107669836D01*
X141615078Y-107904645D01*
X142367000Y-108656566D01*
X142381142Y-108642424D01*
X142513074Y-108774356D01*
X142504130Y-108783300D01*
X142128866Y-108783300D01*
X141432645Y-108087078D01*
X141197836Y-108149005D01*
X141022784Y-108648947D01*
X141030301Y-108783300D01*
X139360549Y-108783300D01*
X139360859Y-108428365D01*
X139049905Y-107675796D01*
X139296650Y-107081568D01*
X139297348Y-106281940D01*
X138991988Y-105542914D01*
X138542070Y-105092210D01*
X138990001Y-104645060D01*
X139296650Y-103906568D01*
X139297348Y-103106940D01*
X139015065Y-102423765D01*
X139043803Y-102395077D01*
X139360139Y-101633254D01*
X139360859Y-100808365D01*
X139298062Y-100656384D01*
X139326800Y-100662100D01*
X139326800Y-100662100D01*
G37*
X139326800Y-100662100D02*
X141151234Y-100662100D01*
X141022784Y-101028947D01*
X141052376Y-101557824D01*
X141197836Y-101908995D01*
X141432645Y-101970922D01*
X142184566Y-101219000D01*
X142170424Y-101204858D01*
X142352858Y-101022424D01*
X142367000Y-101036566D01*
X142381142Y-101022424D01*
X142563576Y-101204858D01*
X142549434Y-101219000D01*
X142563576Y-101233142D01*
X142381142Y-101415576D01*
X142367000Y-101401434D01*
X141615078Y-102153355D01*
X141677005Y-102388164D01*
X142176947Y-102563216D01*
X142705824Y-102533624D01*
X143056995Y-102388164D01*
X143118921Y-102153358D01*
X143221972Y-102256409D01*
X143400832Y-102689283D01*
X144068203Y-103357821D01*
X144940613Y-103720077D01*
X145885243Y-103720901D01*
X146453016Y-103486302D01*
X146452652Y-103903060D01*
X146758012Y-104642086D01*
X147322940Y-105208001D01*
X147349786Y-105219148D01*
X147325914Y-105229012D01*
X146759999Y-105793940D01*
X146453350Y-106532432D01*
X146453094Y-106825994D01*
X145889387Y-106591923D01*
X144944757Y-106591099D01*
X144071717Y-106951832D01*
X143403179Y-107619203D01*
X143303562Y-107859109D01*
X143234008Y-107789555D01*
X143118921Y-107904642D01*
X143056995Y-107669836D01*
X142557053Y-107494784D01*
X142028176Y-107524376D01*
X141677005Y-107669836D01*
X141615078Y-107904645D01*
X142367000Y-108656566D01*
X142381142Y-108642424D01*
X142513074Y-108774356D01*
X142504130Y-108783300D01*
X142128866Y-108783300D01*
X141432645Y-108087078D01*
X141197836Y-108149005D01*
X141022784Y-108648947D01*
X141030301Y-108783300D01*
X139360549Y-108783300D01*
X139360859Y-108428365D01*
X139049905Y-107675796D01*
X139296650Y-107081568D01*
X139297348Y-106281940D01*
X138991988Y-105542914D01*
X138542070Y-105092210D01*
X138990001Y-104645060D01*
X139296650Y-103906568D01*
X139297348Y-103106940D01*
X139015065Y-102423765D01*
X139043803Y-102395077D01*
X139360139Y-101633254D01*
X139360859Y-100808365D01*
X139298062Y-100656384D01*
X139326800Y-100662100D01*
G36*
X177944832Y-102308283D02*
X178612203Y-102976821D01*
X179484613Y-103339077D01*
X180295987Y-103339785D01*
X180333666Y-103529211D01*
X180664765Y-104024735D01*
X181995400Y-105355370D01*
X181995400Y-106746841D01*
X181736827Y-107004963D01*
X181305797Y-106573179D01*
X180433387Y-106210923D01*
X179488757Y-106210099D01*
X178615717Y-106570832D01*
X177947179Y-107238203D01*
X177897577Y-107357659D01*
X177622511Y-107173866D01*
X177578745Y-107165160D01*
X176987797Y-106573179D01*
X176115387Y-106210923D01*
X175170757Y-106210099D01*
X174571092Y-106457876D01*
X174297988Y-105796914D01*
X173733060Y-105230999D01*
X173552912Y-105156195D01*
X173730086Y-105082988D01*
X174296001Y-104518060D01*
X174602650Y-103779568D01*
X174603239Y-103105144D01*
X175166613Y-103339077D01*
X176111243Y-103339901D01*
X176984283Y-102979168D01*
X177652821Y-102311797D01*
X177799915Y-101957556D01*
X177944832Y-102308283D01*
X177944832Y-102308283D01*
G37*
X177944832Y-102308283D02*
X178612203Y-102976821D01*
X179484613Y-103339077D01*
X180295987Y-103339785D01*
X180333666Y-103529211D01*
X180664765Y-104024735D01*
X181995400Y-105355370D01*
X181995400Y-106746841D01*
X181736827Y-107004963D01*
X181305797Y-106573179D01*
X180433387Y-106210923D01*
X179488757Y-106210099D01*
X178615717Y-106570832D01*
X177947179Y-107238203D01*
X177897577Y-107357659D01*
X177622511Y-107173866D01*
X177578745Y-107165160D01*
X176987797Y-106573179D01*
X176115387Y-106210923D01*
X175170757Y-106210099D01*
X174571092Y-106457876D01*
X174297988Y-105796914D01*
X173733060Y-105230999D01*
X173552912Y-105156195D01*
X173730086Y-105082988D01*
X174296001Y-104518060D01*
X174602650Y-103779568D01*
X174603239Y-103105144D01*
X175166613Y-103339077D01*
X176111243Y-103339901D01*
X176984283Y-102979168D01*
X177652821Y-102311797D01*
X177799915Y-101957556D01*
X177944832Y-102308283D01*
G36*
X132224832Y-102181283D02*
X132892203Y-102849821D01*
X133764613Y-103212077D01*
X134709243Y-103212901D01*
X135340139Y-102952220D01*
X135277350Y-103103432D01*
X135276652Y-103903060D01*
X135582012Y-104642086D01*
X136031930Y-105092790D01*
X135583999Y-105539940D01*
X135277350Y-106278432D01*
X135277315Y-106318086D01*
X134713387Y-106083923D01*
X133768757Y-106083099D01*
X132895717Y-106443832D01*
X132299541Y-107038968D01*
X131932443Y-107111988D01*
X131267797Y-106446179D01*
X130395387Y-106083923D01*
X129450757Y-106083099D01*
X128577717Y-106443832D01*
X128142827Y-106877963D01*
X127900200Y-106634911D01*
X127900200Y-105355370D01*
X129230835Y-104024735D01*
X129561934Y-103529211D01*
X129624985Y-103212233D01*
X130391243Y-103212901D01*
X131264283Y-102852168D01*
X131932821Y-102184797D01*
X132079915Y-101830556D01*
X132224832Y-102181283D01*
X132224832Y-102181283D01*
G37*
X132224832Y-102181283D02*
X132892203Y-102849821D01*
X133764613Y-103212077D01*
X134709243Y-103212901D01*
X135340139Y-102952220D01*
X135277350Y-103103432D01*
X135276652Y-103903060D01*
X135582012Y-104642086D01*
X136031930Y-105092790D01*
X135583999Y-105539940D01*
X135277350Y-106278432D01*
X135277315Y-106318086D01*
X134713387Y-106083923D01*
X133768757Y-106083099D01*
X132895717Y-106443832D01*
X132299541Y-107038968D01*
X131932443Y-107111988D01*
X131267797Y-106446179D01*
X130395387Y-106083923D01*
X129450757Y-106083099D01*
X128577717Y-106443832D01*
X128142827Y-106877963D01*
X127900200Y-106634911D01*
X127900200Y-105355370D01*
X129230835Y-104024735D01*
X129561934Y-103529211D01*
X129624985Y-103212233D01*
X130391243Y-103212901D01*
X131264283Y-102852168D01*
X131932821Y-102184797D01*
X132079915Y-101830556D01*
X132224832Y-102181283D01*
G36*
X179582379Y-97675305D02*
X179394765Y-97800665D01*
X178886765Y-98308665D01*
X178555666Y-98804189D01*
X178504392Y-99061963D01*
X177947179Y-99618203D01*
X177800085Y-99972444D01*
X177655168Y-99621717D01*
X177114895Y-99080500D01*
X177059934Y-98804189D01*
X176747969Y-98337301D01*
X176863442Y-98337402D01*
X177718286Y-97984188D01*
X178089020Y-97614100D01*
X179434981Y-97614100D01*
X179582379Y-97675305D01*
X179582379Y-97675305D01*
G37*
X179582379Y-97675305D02*
X179394765Y-97800665D01*
X178886765Y-98308665D01*
X178555666Y-98804189D01*
X178504392Y-99061963D01*
X177947179Y-99618203D01*
X177800085Y-99972444D01*
X177655168Y-99621717D01*
X177114895Y-99080500D01*
X177059934Y-98804189D01*
X176747969Y-98337301D01*
X176863442Y-98337402D01*
X177718286Y-97984188D01*
X178089020Y-97614100D01*
X179434981Y-97614100D01*
X179582379Y-97675305D01*
G36*
X132158274Y-98108889D02*
X133012500Y-98463595D01*
X133063214Y-98463639D01*
X132835666Y-98804189D01*
X132815912Y-98903497D01*
X132227179Y-99491203D01*
X132080085Y-99845444D01*
X131935168Y-99494717D01*
X131363347Y-98921896D01*
X131339934Y-98804189D01*
X131008835Y-98308665D01*
X130500835Y-97800665D01*
X130307576Y-97671533D01*
X130446575Y-97614100D01*
X131664347Y-97614100D01*
X132158274Y-98108889D01*
X132158274Y-98108889D01*
G37*
X132158274Y-98108889D02*
X133012500Y-98463595D01*
X133063214Y-98463639D01*
X132835666Y-98804189D01*
X132815912Y-98903497D01*
X132227179Y-99491203D01*
X132080085Y-99845444D01*
X131935168Y-99494717D01*
X131363347Y-98921896D01*
X131339934Y-98804189D01*
X131008835Y-98308665D01*
X130500835Y-97800665D01*
X130307576Y-97671533D01*
X130446575Y-97614100D01*
X131664347Y-97614100D01*
X132158274Y-98108889D01*
G36*
X136146000Y-96010000D02*
X136166000Y-96010000D01*
X136166000Y-96268000D01*
X136146000Y-96268000D01*
X136146000Y-96288000D01*
X135888000Y-96288000D01*
X135888000Y-96268000D01*
X135868000Y-96268000D01*
X135868000Y-96010000D01*
X135888000Y-96010000D01*
X135888000Y-95990000D01*
X136146000Y-95990000D01*
X136146000Y-96010000D01*
X136146000Y-96010000D01*
G37*
X136146000Y-96010000D02*
X136166000Y-96010000D01*
X136166000Y-96268000D01*
X136146000Y-96268000D01*
X136146000Y-96288000D01*
X135888000Y-96288000D01*
X135888000Y-96268000D01*
X135868000Y-96268000D01*
X135868000Y-96010000D01*
X135888000Y-96010000D01*
X135888000Y-95990000D01*
X136146000Y-95990000D01*
X136146000Y-96010000D01*
G36*
X173992000Y-95883000D02*
X174012000Y-95883000D01*
X174012000Y-96141000D01*
X173992000Y-96141000D01*
X173992000Y-96161000D01*
X173734000Y-96161000D01*
X173734000Y-96141000D01*
X173714000Y-96141000D01*
X173714000Y-95883000D01*
X173734000Y-95883000D01*
X173734000Y-95863000D01*
X173992000Y-95863000D01*
X173992000Y-95883000D01*
X173992000Y-95883000D01*
G37*
X173992000Y-95883000D02*
X174012000Y-95883000D01*
X174012000Y-96141000D01*
X173992000Y-96141000D01*
X173992000Y-96161000D01*
X173734000Y-96161000D01*
X173734000Y-96141000D01*
X173714000Y-96141000D01*
X173714000Y-95883000D01*
X173734000Y-95883000D01*
X173734000Y-95863000D01*
X173992000Y-95863000D01*
X173992000Y-95883000D01*
G36*
X147477222Y-67298778D02*
X148026308Y-67665666D01*
X148674000Y-67794500D01*
X157624944Y-67794500D01*
X160423444Y-70593000D01*
X150372713Y-70593000D01*
X150372713Y-76043000D01*
X160166002Y-76043000D01*
X159660197Y-76547923D01*
X159343861Y-77309746D01*
X159343141Y-78134635D01*
X159658147Y-78897009D01*
X159689653Y-78928570D01*
X159407350Y-79608432D01*
X159406652Y-80408060D01*
X159712012Y-81147086D01*
X160276940Y-81713001D01*
X160303786Y-81724148D01*
X160279914Y-81734012D01*
X159713999Y-82298940D01*
X159407350Y-83037432D01*
X159406652Y-83837060D01*
X159601635Y-84308955D01*
X159343861Y-84929746D01*
X159343141Y-85754635D01*
X159658147Y-86517009D01*
X160240923Y-87100803D01*
X161002746Y-87417139D01*
X161827635Y-87417859D01*
X162590009Y-87102853D01*
X162664584Y-87028408D01*
X163118203Y-87482821D01*
X163990613Y-87845077D01*
X164935243Y-87845901D01*
X165336242Y-87680212D01*
X165678765Y-88022735D01*
X166174289Y-88353834D01*
X166405377Y-88399800D01*
X143490223Y-88399800D01*
X143721311Y-88353834D01*
X144216835Y-88022735D01*
X144644465Y-87595105D01*
X144940613Y-87718077D01*
X145885243Y-87718901D01*
X146758283Y-87358168D01*
X147151747Y-86965391D01*
X147286923Y-87100803D01*
X148048746Y-87417139D01*
X148873635Y-87417859D01*
X149636009Y-87102853D01*
X150219803Y-86520077D01*
X150320174Y-86278355D01*
X152791078Y-86278355D01*
X152853005Y-86513164D01*
X153352947Y-86688216D01*
X153881824Y-86658624D01*
X154232995Y-86513164D01*
X154294922Y-86278355D01*
X155585078Y-86278355D01*
X155647005Y-86513164D01*
X156146947Y-86688216D01*
X156675824Y-86658624D01*
X157026995Y-86513164D01*
X157088922Y-86278355D01*
X156337000Y-85526434D01*
X155585078Y-86278355D01*
X154294922Y-86278355D01*
X153543000Y-85526434D01*
X152791078Y-86278355D01*
X150320174Y-86278355D01*
X150536139Y-85758254D01*
X150536666Y-85153947D01*
X152198784Y-85153947D01*
X152228376Y-85682824D01*
X152373836Y-86033995D01*
X152608645Y-86095922D01*
X153360566Y-85344000D01*
X153725434Y-85344000D01*
X154477355Y-86095922D01*
X154712164Y-86033995D01*
X154887216Y-85534053D01*
X154865949Y-85153947D01*
X154992784Y-85153947D01*
X155022376Y-85682824D01*
X155167836Y-86033995D01*
X155402645Y-86095922D01*
X156154566Y-85344000D01*
X156519434Y-85344000D01*
X157271355Y-86095922D01*
X157506164Y-86033995D01*
X157681216Y-85534053D01*
X157651624Y-85005176D01*
X157506164Y-84654005D01*
X157271355Y-84592078D01*
X156519434Y-85344000D01*
X156154566Y-85344000D01*
X155402645Y-84592078D01*
X155167836Y-84654005D01*
X154992784Y-85153947D01*
X154865949Y-85153947D01*
X154857624Y-85005176D01*
X154712164Y-84654005D01*
X154477355Y-84592078D01*
X153725434Y-85344000D01*
X153360566Y-85344000D01*
X152608645Y-84592078D01*
X152373836Y-84654005D01*
X152198784Y-85153947D01*
X150536666Y-85153947D01*
X150536859Y-84933365D01*
X150320464Y-84409645D01*
X152791078Y-84409645D01*
X153543000Y-85161566D01*
X154294922Y-84409645D01*
X155585078Y-84409645D01*
X156337000Y-85161566D01*
X157088922Y-84409645D01*
X157026995Y-84174836D01*
X156527053Y-83999784D01*
X155998176Y-84029376D01*
X155647005Y-84174836D01*
X155585078Y-84409645D01*
X154294922Y-84409645D01*
X154232995Y-84174836D01*
X153733053Y-83999784D01*
X153204176Y-84029376D01*
X152853005Y-84174836D01*
X152791078Y-84409645D01*
X150320464Y-84409645D01*
X150225905Y-84180796D01*
X150472650Y-83586568D01*
X150473348Y-82786940D01*
X150167988Y-82047914D01*
X149603060Y-81481999D01*
X149359569Y-81380892D01*
X149473086Y-81333988D01*
X150039001Y-80769060D01*
X150345650Y-80030568D01*
X150346348Y-79230940D01*
X150212606Y-78907261D01*
X150219803Y-78900077D01*
X150320174Y-78658355D01*
X152791078Y-78658355D01*
X152853005Y-78893164D01*
X153352947Y-79068216D01*
X153881824Y-79038624D01*
X154232995Y-78893164D01*
X154294922Y-78658355D01*
X155585078Y-78658355D01*
X155647005Y-78893164D01*
X156146947Y-79068216D01*
X156675824Y-79038624D01*
X157026995Y-78893164D01*
X157088922Y-78658355D01*
X156337000Y-77906434D01*
X155585078Y-78658355D01*
X154294922Y-78658355D01*
X153543000Y-77906434D01*
X152791078Y-78658355D01*
X150320174Y-78658355D01*
X150536139Y-78138254D01*
X150536666Y-77533947D01*
X152198784Y-77533947D01*
X152228376Y-78062824D01*
X152373836Y-78413995D01*
X152608645Y-78475922D01*
X153360566Y-77724000D01*
X153725434Y-77724000D01*
X154477355Y-78475922D01*
X154712164Y-78413995D01*
X154887216Y-77914053D01*
X154865949Y-77533947D01*
X154992784Y-77533947D01*
X155022376Y-78062824D01*
X155167836Y-78413995D01*
X155402645Y-78475922D01*
X156154566Y-77724000D01*
X156519434Y-77724000D01*
X157271355Y-78475922D01*
X157506164Y-78413995D01*
X157681216Y-77914053D01*
X157651624Y-77385176D01*
X157506164Y-77034005D01*
X157271355Y-76972078D01*
X156519434Y-77724000D01*
X156154566Y-77724000D01*
X155402645Y-76972078D01*
X155167836Y-77034005D01*
X154992784Y-77533947D01*
X154865949Y-77533947D01*
X154857624Y-77385176D01*
X154712164Y-77034005D01*
X154477355Y-76972078D01*
X153725434Y-77724000D01*
X153360566Y-77724000D01*
X152608645Y-76972078D01*
X152373836Y-77034005D01*
X152198784Y-77533947D01*
X150536666Y-77533947D01*
X150536859Y-77313365D01*
X150320463Y-76789645D01*
X152791078Y-76789645D01*
X153543000Y-77541566D01*
X154294922Y-76789645D01*
X155585078Y-76789645D01*
X156337000Y-77541566D01*
X157088922Y-76789645D01*
X157026995Y-76554836D01*
X156527053Y-76379784D01*
X155998176Y-76409376D01*
X155647005Y-76554836D01*
X155585078Y-76789645D01*
X154294922Y-76789645D01*
X154232995Y-76554836D01*
X153733053Y-76379784D01*
X153204176Y-76409376D01*
X152853005Y-76554836D01*
X152791078Y-76789645D01*
X150320463Y-76789645D01*
X150221853Y-76550991D01*
X149639077Y-75967197D01*
X148877254Y-75650861D01*
X148052365Y-75650141D01*
X147289991Y-75965147D01*
X147151917Y-76102981D01*
X146761797Y-75712179D01*
X145889387Y-75349923D01*
X145641877Y-75349707D01*
X144978835Y-74686665D01*
X144483311Y-74355566D01*
X143898800Y-74239300D01*
X139959470Y-74239300D01*
X139584200Y-73864030D01*
X139584200Y-71194700D01*
X139467934Y-70610189D01*
X139136835Y-70114665D01*
X137612835Y-68590665D01*
X137117311Y-68259566D01*
X136532800Y-68143300D01*
X127626756Y-68143300D01*
X127701056Y-68069000D01*
X129123500Y-68069000D01*
X129771192Y-67940166D01*
X130320278Y-67573278D01*
X130744578Y-67148978D01*
X130911808Y-66898701D01*
X131111466Y-66599892D01*
X131240300Y-65952200D01*
X131240300Y-65775200D01*
X133804495Y-65775200D01*
X134059568Y-65949484D01*
X134605000Y-66059937D01*
X135905000Y-66059937D01*
X136414544Y-65964060D01*
X136708041Y-65775200D01*
X142438300Y-65775200D01*
X142502147Y-65762500D01*
X145940944Y-65762500D01*
X147477222Y-67298778D01*
X147477222Y-67298778D01*
G37*
X147477222Y-67298778D02*
X148026308Y-67665666D01*
X148674000Y-67794500D01*
X157624944Y-67794500D01*
X160423444Y-70593000D01*
X150372713Y-70593000D01*
X150372713Y-76043000D01*
X160166002Y-76043000D01*
X159660197Y-76547923D01*
X159343861Y-77309746D01*
X159343141Y-78134635D01*
X159658147Y-78897009D01*
X159689653Y-78928570D01*
X159407350Y-79608432D01*
X159406652Y-80408060D01*
X159712012Y-81147086D01*
X160276940Y-81713001D01*
X160303786Y-81724148D01*
X160279914Y-81734012D01*
X159713999Y-82298940D01*
X159407350Y-83037432D01*
X159406652Y-83837060D01*
X159601635Y-84308955D01*
X159343861Y-84929746D01*
X159343141Y-85754635D01*
X159658147Y-86517009D01*
X160240923Y-87100803D01*
X161002746Y-87417139D01*
X161827635Y-87417859D01*
X162590009Y-87102853D01*
X162664584Y-87028408D01*
X163118203Y-87482821D01*
X163990613Y-87845077D01*
X164935243Y-87845901D01*
X165336242Y-87680212D01*
X165678765Y-88022735D01*
X166174289Y-88353834D01*
X166405377Y-88399800D01*
X143490223Y-88399800D01*
X143721311Y-88353834D01*
X144216835Y-88022735D01*
X144644465Y-87595105D01*
X144940613Y-87718077D01*
X145885243Y-87718901D01*
X146758283Y-87358168D01*
X147151747Y-86965391D01*
X147286923Y-87100803D01*
X148048746Y-87417139D01*
X148873635Y-87417859D01*
X149636009Y-87102853D01*
X150219803Y-86520077D01*
X150320174Y-86278355D01*
X152791078Y-86278355D01*
X152853005Y-86513164D01*
X153352947Y-86688216D01*
X153881824Y-86658624D01*
X154232995Y-86513164D01*
X154294922Y-86278355D01*
X155585078Y-86278355D01*
X155647005Y-86513164D01*
X156146947Y-86688216D01*
X156675824Y-86658624D01*
X157026995Y-86513164D01*
X157088922Y-86278355D01*
X156337000Y-85526434D01*
X155585078Y-86278355D01*
X154294922Y-86278355D01*
X153543000Y-85526434D01*
X152791078Y-86278355D01*
X150320174Y-86278355D01*
X150536139Y-85758254D01*
X150536666Y-85153947D01*
X152198784Y-85153947D01*
X152228376Y-85682824D01*
X152373836Y-86033995D01*
X152608645Y-86095922D01*
X153360566Y-85344000D01*
X153725434Y-85344000D01*
X154477355Y-86095922D01*
X154712164Y-86033995D01*
X154887216Y-85534053D01*
X154865949Y-85153947D01*
X154992784Y-85153947D01*
X155022376Y-85682824D01*
X155167836Y-86033995D01*
X155402645Y-86095922D01*
X156154566Y-85344000D01*
X156519434Y-85344000D01*
X157271355Y-86095922D01*
X157506164Y-86033995D01*
X157681216Y-85534053D01*
X157651624Y-85005176D01*
X157506164Y-84654005D01*
X157271355Y-84592078D01*
X156519434Y-85344000D01*
X156154566Y-85344000D01*
X155402645Y-84592078D01*
X155167836Y-84654005D01*
X154992784Y-85153947D01*
X154865949Y-85153947D01*
X154857624Y-85005176D01*
X154712164Y-84654005D01*
X154477355Y-84592078D01*
X153725434Y-85344000D01*
X153360566Y-85344000D01*
X152608645Y-84592078D01*
X152373836Y-84654005D01*
X152198784Y-85153947D01*
X150536666Y-85153947D01*
X150536859Y-84933365D01*
X150320464Y-84409645D01*
X152791078Y-84409645D01*
X153543000Y-85161566D01*
X154294922Y-84409645D01*
X155585078Y-84409645D01*
X156337000Y-85161566D01*
X157088922Y-84409645D01*
X157026995Y-84174836D01*
X156527053Y-83999784D01*
X155998176Y-84029376D01*
X155647005Y-84174836D01*
X155585078Y-84409645D01*
X154294922Y-84409645D01*
X154232995Y-84174836D01*
X153733053Y-83999784D01*
X153204176Y-84029376D01*
X152853005Y-84174836D01*
X152791078Y-84409645D01*
X150320464Y-84409645D01*
X150225905Y-84180796D01*
X150472650Y-83586568D01*
X150473348Y-82786940D01*
X150167988Y-82047914D01*
X149603060Y-81481999D01*
X149359569Y-81380892D01*
X149473086Y-81333988D01*
X150039001Y-80769060D01*
X150345650Y-80030568D01*
X150346348Y-79230940D01*
X150212606Y-78907261D01*
X150219803Y-78900077D01*
X150320174Y-78658355D01*
X152791078Y-78658355D01*
X152853005Y-78893164D01*
X153352947Y-79068216D01*
X153881824Y-79038624D01*
X154232995Y-78893164D01*
X154294922Y-78658355D01*
X155585078Y-78658355D01*
X155647005Y-78893164D01*
X156146947Y-79068216D01*
X156675824Y-79038624D01*
X157026995Y-78893164D01*
X157088922Y-78658355D01*
X156337000Y-77906434D01*
X155585078Y-78658355D01*
X154294922Y-78658355D01*
X153543000Y-77906434D01*
X152791078Y-78658355D01*
X150320174Y-78658355D01*
X150536139Y-78138254D01*
X150536666Y-77533947D01*
X152198784Y-77533947D01*
X152228376Y-78062824D01*
X152373836Y-78413995D01*
X152608645Y-78475922D01*
X153360566Y-77724000D01*
X153725434Y-77724000D01*
X154477355Y-78475922D01*
X154712164Y-78413995D01*
X154887216Y-77914053D01*
X154865949Y-77533947D01*
X154992784Y-77533947D01*
X155022376Y-78062824D01*
X155167836Y-78413995D01*
X155402645Y-78475922D01*
X156154566Y-77724000D01*
X156519434Y-77724000D01*
X157271355Y-78475922D01*
X157506164Y-78413995D01*
X157681216Y-77914053D01*
X157651624Y-77385176D01*
X157506164Y-77034005D01*
X157271355Y-76972078D01*
X156519434Y-77724000D01*
X156154566Y-77724000D01*
X155402645Y-76972078D01*
X155167836Y-77034005D01*
X154992784Y-77533947D01*
X154865949Y-77533947D01*
X154857624Y-77385176D01*
X154712164Y-77034005D01*
X154477355Y-76972078D01*
X153725434Y-77724000D01*
X153360566Y-77724000D01*
X152608645Y-76972078D01*
X152373836Y-77034005D01*
X152198784Y-77533947D01*
X150536666Y-77533947D01*
X150536859Y-77313365D01*
X150320463Y-76789645D01*
X152791078Y-76789645D01*
X153543000Y-77541566D01*
X154294922Y-76789645D01*
X155585078Y-76789645D01*
X156337000Y-77541566D01*
X157088922Y-76789645D01*
X157026995Y-76554836D01*
X156527053Y-76379784D01*
X155998176Y-76409376D01*
X155647005Y-76554836D01*
X155585078Y-76789645D01*
X154294922Y-76789645D01*
X154232995Y-76554836D01*
X153733053Y-76379784D01*
X153204176Y-76409376D01*
X152853005Y-76554836D01*
X152791078Y-76789645D01*
X150320463Y-76789645D01*
X150221853Y-76550991D01*
X149639077Y-75967197D01*
X148877254Y-75650861D01*
X148052365Y-75650141D01*
X147289991Y-75965147D01*
X147151917Y-76102981D01*
X146761797Y-75712179D01*
X145889387Y-75349923D01*
X145641877Y-75349707D01*
X144978835Y-74686665D01*
X144483311Y-74355566D01*
X143898800Y-74239300D01*
X139959470Y-74239300D01*
X139584200Y-73864030D01*
X139584200Y-71194700D01*
X139467934Y-70610189D01*
X139136835Y-70114665D01*
X137612835Y-68590665D01*
X137117311Y-68259566D01*
X136532800Y-68143300D01*
X127626756Y-68143300D01*
X127701056Y-68069000D01*
X129123500Y-68069000D01*
X129771192Y-67940166D01*
X130320278Y-67573278D01*
X130744578Y-67148978D01*
X130911808Y-66898701D01*
X131111466Y-66599892D01*
X131240300Y-65952200D01*
X131240300Y-65775200D01*
X133804495Y-65775200D01*
X134059568Y-65949484D01*
X134605000Y-66059937D01*
X135905000Y-66059937D01*
X136414544Y-65964060D01*
X136708041Y-65775200D01*
X142438300Y-65775200D01*
X142502147Y-65762500D01*
X145940944Y-65762500D01*
X147477222Y-67298778D01*
G36*
X122838452Y-70068760D02*
X123143812Y-70807786D01*
X123321400Y-70985684D01*
X123321400Y-74750700D01*
X123437666Y-75335211D01*
X123768765Y-75830735D01*
X124304783Y-76366753D01*
X123990923Y-77122613D01*
X123990099Y-78067243D01*
X124350832Y-78940283D01*
X125018203Y-79608821D01*
X125682690Y-79884740D01*
X125292765Y-80274665D01*
X124961666Y-80770189D01*
X124845400Y-81354700D01*
X124845400Y-83378841D01*
X124353179Y-83870203D01*
X123990923Y-84742613D01*
X123990099Y-85687243D01*
X124089865Y-85928695D01*
X124023835Y-85862665D01*
X123528311Y-85531566D01*
X122943800Y-85415300D01*
X122728782Y-85415300D01*
X122908860Y-85145794D01*
X123071529Y-84328000D01*
X122908860Y-83510206D01*
X122606705Y-83058000D01*
X122908860Y-82605794D01*
X123071529Y-81788000D01*
X122908860Y-80970206D01*
X122606705Y-80518000D01*
X122908860Y-80065794D01*
X123071529Y-79248000D01*
X122908860Y-78430206D01*
X122606705Y-77978000D01*
X122908860Y-77525794D01*
X123071529Y-76708000D01*
X122908860Y-75890206D01*
X122606705Y-75438000D01*
X122908860Y-74985794D01*
X123071529Y-74168000D01*
X122908860Y-73350206D01*
X122606705Y-72898000D01*
X122908860Y-72445794D01*
X123071529Y-71628000D01*
X122908860Y-70810206D01*
X122606705Y-70358000D01*
X122838502Y-70011092D01*
X122838452Y-70068760D01*
X122838452Y-70068760D01*
G37*
X122838452Y-70068760D02*
X123143812Y-70807786D01*
X123321400Y-70985684D01*
X123321400Y-74750700D01*
X123437666Y-75335211D01*
X123768765Y-75830735D01*
X124304783Y-76366753D01*
X123990923Y-77122613D01*
X123990099Y-78067243D01*
X124350832Y-78940283D01*
X125018203Y-79608821D01*
X125682690Y-79884740D01*
X125292765Y-80274665D01*
X124961666Y-80770189D01*
X124845400Y-81354700D01*
X124845400Y-83378841D01*
X124353179Y-83870203D01*
X123990923Y-84742613D01*
X123990099Y-85687243D01*
X124089865Y-85928695D01*
X124023835Y-85862665D01*
X123528311Y-85531566D01*
X122943800Y-85415300D01*
X122728782Y-85415300D01*
X122908860Y-85145794D01*
X123071529Y-84328000D01*
X122908860Y-83510206D01*
X122606705Y-83058000D01*
X122908860Y-82605794D01*
X123071529Y-81788000D01*
X122908860Y-80970206D01*
X122606705Y-80518000D01*
X122908860Y-80065794D01*
X123071529Y-79248000D01*
X122908860Y-78430206D01*
X122606705Y-77978000D01*
X122908860Y-77525794D01*
X123071529Y-76708000D01*
X122908860Y-75890206D01*
X122606705Y-75438000D01*
X122908860Y-74985794D01*
X123071529Y-74168000D01*
X122908860Y-73350206D01*
X122606705Y-72898000D01*
X122908860Y-72445794D01*
X123071529Y-71628000D01*
X122908860Y-70810206D01*
X122606705Y-70358000D01*
X122838502Y-70011092D01*
X122838452Y-70068760D01*
G36*
X170519141Y-78134635D02*
X170834147Y-78897009D01*
X170911990Y-78974988D01*
X170889999Y-78996940D01*
X170583350Y-79735432D01*
X170582652Y-80535060D01*
X170888012Y-81274086D01*
X171337930Y-81724790D01*
X170889999Y-82171940D01*
X170583350Y-82910432D01*
X170582652Y-83710060D01*
X170803938Y-84245612D01*
X170519861Y-84929746D01*
X170519437Y-85415300D01*
X168850571Y-85415300D01*
X168827624Y-85005176D01*
X168682164Y-84654005D01*
X168447355Y-84592078D01*
X167695434Y-85344000D01*
X167709576Y-85358142D01*
X167652418Y-85415300D01*
X167391470Y-85415300D01*
X167325368Y-85349198D01*
X167330566Y-85344000D01*
X167316424Y-85329858D01*
X167498858Y-85147424D01*
X167513000Y-85161566D01*
X168264922Y-84409645D01*
X168202995Y-84174836D01*
X167703053Y-83999784D01*
X167174176Y-84029376D01*
X166823005Y-84174836D01*
X166761079Y-84409642D01*
X166645992Y-84294555D01*
X166576725Y-84363822D01*
X166479168Y-84127717D01*
X165811797Y-83459179D01*
X164939387Y-83096923D01*
X163994757Y-83096099D01*
X163427095Y-83330652D01*
X163427348Y-83040940D01*
X163121988Y-82301914D01*
X162557060Y-81735999D01*
X162530214Y-81724852D01*
X162554086Y-81714988D01*
X163120001Y-81150060D01*
X163426650Y-80411568D01*
X163427017Y-79991052D01*
X163990613Y-80225077D01*
X164935243Y-80225901D01*
X165808283Y-79865168D01*
X166476821Y-79197797D01*
X166658023Y-78761414D01*
X166761079Y-78658358D01*
X166823005Y-78893164D01*
X167322947Y-79068216D01*
X167851824Y-79038624D01*
X168202995Y-78893164D01*
X168264922Y-78658355D01*
X167513000Y-77906434D01*
X167498858Y-77920576D01*
X167316424Y-77738142D01*
X167330566Y-77724000D01*
X167316424Y-77709858D01*
X167498858Y-77527424D01*
X167513000Y-77541566D01*
X167527142Y-77527424D01*
X167709576Y-77709858D01*
X167695434Y-77724000D01*
X168447355Y-78475922D01*
X168682164Y-78413995D01*
X168857216Y-77914053D01*
X168827624Y-77385176D01*
X168811562Y-77346400D01*
X170434000Y-77346400D01*
X170519844Y-77329325D01*
X170519141Y-78134635D01*
X170519141Y-78134635D01*
G37*
X170519141Y-78134635D02*
X170834147Y-78897009D01*
X170911990Y-78974988D01*
X170889999Y-78996940D01*
X170583350Y-79735432D01*
X170582652Y-80535060D01*
X170888012Y-81274086D01*
X171337930Y-81724790D01*
X170889999Y-82171940D01*
X170583350Y-82910432D01*
X170582652Y-83710060D01*
X170803938Y-84245612D01*
X170519861Y-84929746D01*
X170519437Y-85415300D01*
X168850571Y-85415300D01*
X168827624Y-85005176D01*
X168682164Y-84654005D01*
X168447355Y-84592078D01*
X167695434Y-85344000D01*
X167709576Y-85358142D01*
X167652418Y-85415300D01*
X167391470Y-85415300D01*
X167325368Y-85349198D01*
X167330566Y-85344000D01*
X167316424Y-85329858D01*
X167498858Y-85147424D01*
X167513000Y-85161566D01*
X168264922Y-84409645D01*
X168202995Y-84174836D01*
X167703053Y-83999784D01*
X167174176Y-84029376D01*
X166823005Y-84174836D01*
X166761079Y-84409642D01*
X166645992Y-84294555D01*
X166576725Y-84363822D01*
X166479168Y-84127717D01*
X165811797Y-83459179D01*
X164939387Y-83096923D01*
X163994757Y-83096099D01*
X163427095Y-83330652D01*
X163427348Y-83040940D01*
X163121988Y-82301914D01*
X162557060Y-81735999D01*
X162530214Y-81724852D01*
X162554086Y-81714988D01*
X163120001Y-81150060D01*
X163426650Y-80411568D01*
X163427017Y-79991052D01*
X163990613Y-80225077D01*
X164935243Y-80225901D01*
X165808283Y-79865168D01*
X166476821Y-79197797D01*
X166658023Y-78761414D01*
X166761079Y-78658358D01*
X166823005Y-78893164D01*
X167322947Y-79068216D01*
X167851824Y-79038624D01*
X168202995Y-78893164D01*
X168264922Y-78658355D01*
X167513000Y-77906434D01*
X167498858Y-77920576D01*
X167316424Y-77738142D01*
X167330566Y-77724000D01*
X167316424Y-77709858D01*
X167498858Y-77527424D01*
X167513000Y-77541566D01*
X167527142Y-77527424D01*
X167709576Y-77709858D01*
X167695434Y-77724000D01*
X168447355Y-78475922D01*
X168682164Y-78413995D01*
X168857216Y-77914053D01*
X168827624Y-77385176D01*
X168811562Y-77346400D01*
X170434000Y-77346400D01*
X170519844Y-77329325D01*
X170519141Y-78134635D01*
G36*
X141022784Y-77533947D02*
X141052376Y-78062824D01*
X141197836Y-78413995D01*
X141432645Y-78475922D01*
X142184566Y-77724000D01*
X142170424Y-77709858D01*
X142352858Y-77527424D01*
X142367000Y-77541566D01*
X142381142Y-77527424D01*
X142563576Y-77709858D01*
X142549434Y-77724000D01*
X142563576Y-77738142D01*
X142381142Y-77920576D01*
X142367000Y-77906434D01*
X141615078Y-78658355D01*
X141677005Y-78893164D01*
X142176947Y-79068216D01*
X142705824Y-79038624D01*
X143056995Y-78893164D01*
X143118921Y-78658358D01*
X143234008Y-78773445D01*
X143266143Y-78741310D01*
X143400832Y-79067283D01*
X144068203Y-79735821D01*
X144940613Y-80098077D01*
X145885243Y-80098901D01*
X146325748Y-79916888D01*
X146325652Y-80027060D01*
X146631012Y-80766086D01*
X147195940Y-81332001D01*
X147439431Y-81433108D01*
X147325914Y-81480012D01*
X146759999Y-82044940D01*
X146453350Y-82783432D01*
X146452983Y-83203948D01*
X145889387Y-82969923D01*
X144944757Y-82969099D01*
X144071717Y-83329832D01*
X143403179Y-83997203D01*
X143266299Y-84326846D01*
X143234008Y-84294555D01*
X143118921Y-84409642D01*
X143056995Y-84174836D01*
X142557053Y-83999784D01*
X142028176Y-84029376D01*
X141677005Y-84174836D01*
X141615078Y-84409645D01*
X142367000Y-85161566D01*
X142381142Y-85147424D01*
X142563576Y-85329858D01*
X142549434Y-85344000D01*
X142562432Y-85356998D01*
X142504130Y-85415300D01*
X142227582Y-85415300D01*
X142170424Y-85358142D01*
X142184566Y-85344000D01*
X141432645Y-84592078D01*
X141197836Y-84654005D01*
X141022784Y-85153947D01*
X141037407Y-85415300D01*
X139360438Y-85415300D01*
X139360859Y-84933365D01*
X139102509Y-84308110D01*
X139296650Y-83840568D01*
X139297348Y-83040940D01*
X138991988Y-82301914D01*
X138478570Y-81787599D01*
X138990001Y-81277060D01*
X139296650Y-80538568D01*
X139297348Y-79738940D01*
X138991988Y-78999914D01*
X138967932Y-78975816D01*
X139043803Y-78900077D01*
X139360139Y-78138254D01*
X139360859Y-77313365D01*
X139352899Y-77294100D01*
X141106765Y-77294100D01*
X141022784Y-77533947D01*
X141022784Y-77533947D01*
G37*
X141022784Y-77533947D02*
X141052376Y-78062824D01*
X141197836Y-78413995D01*
X141432645Y-78475922D01*
X142184566Y-77724000D01*
X142170424Y-77709858D01*
X142352858Y-77527424D01*
X142367000Y-77541566D01*
X142381142Y-77527424D01*
X142563576Y-77709858D01*
X142549434Y-77724000D01*
X142563576Y-77738142D01*
X142381142Y-77920576D01*
X142367000Y-77906434D01*
X141615078Y-78658355D01*
X141677005Y-78893164D01*
X142176947Y-79068216D01*
X142705824Y-79038624D01*
X143056995Y-78893164D01*
X143118921Y-78658358D01*
X143234008Y-78773445D01*
X143266143Y-78741310D01*
X143400832Y-79067283D01*
X144068203Y-79735821D01*
X144940613Y-80098077D01*
X145885243Y-80098901D01*
X146325748Y-79916888D01*
X146325652Y-80027060D01*
X146631012Y-80766086D01*
X147195940Y-81332001D01*
X147439431Y-81433108D01*
X147325914Y-81480012D01*
X146759999Y-82044940D01*
X146453350Y-82783432D01*
X146452983Y-83203948D01*
X145889387Y-82969923D01*
X144944757Y-82969099D01*
X144071717Y-83329832D01*
X143403179Y-83997203D01*
X143266299Y-84326846D01*
X143234008Y-84294555D01*
X143118921Y-84409642D01*
X143056995Y-84174836D01*
X142557053Y-83999784D01*
X142028176Y-84029376D01*
X141677005Y-84174836D01*
X141615078Y-84409645D01*
X142367000Y-85161566D01*
X142381142Y-85147424D01*
X142563576Y-85329858D01*
X142549434Y-85344000D01*
X142562432Y-85356998D01*
X142504130Y-85415300D01*
X142227582Y-85415300D01*
X142170424Y-85358142D01*
X142184566Y-85344000D01*
X141432645Y-84592078D01*
X141197836Y-84654005D01*
X141022784Y-85153947D01*
X141037407Y-85415300D01*
X139360438Y-85415300D01*
X139360859Y-84933365D01*
X139102509Y-84308110D01*
X139296650Y-83840568D01*
X139297348Y-83040940D01*
X138991988Y-82301914D01*
X138478570Y-81787599D01*
X138990001Y-81277060D01*
X139296650Y-80538568D01*
X139297348Y-79738940D01*
X138991988Y-78999914D01*
X138967932Y-78975816D01*
X139043803Y-78900077D01*
X139360139Y-78138254D01*
X139360859Y-77313365D01*
X139352899Y-77294100D01*
X141106765Y-77294100D01*
X141022784Y-77533947D01*
G36*
X132224832Y-79067283D02*
X132892203Y-79735821D01*
X133764613Y-80098077D01*
X134709243Y-80098901D01*
X135277238Y-79864210D01*
X135276652Y-80535060D01*
X135582012Y-81274086D01*
X136095430Y-81788401D01*
X135583999Y-82298940D01*
X135277350Y-83037432D01*
X135277205Y-83204040D01*
X134713387Y-82969923D01*
X133768757Y-82969099D01*
X132895717Y-83329832D01*
X132587711Y-83637300D01*
X132468800Y-83637300D01*
X131884289Y-83753566D01*
X131842860Y-83781248D01*
X131267797Y-83205179D01*
X130395387Y-82842923D01*
X129450757Y-82842099D01*
X128577717Y-83202832D01*
X128142827Y-83636963D01*
X127900200Y-83393911D01*
X127900200Y-81987370D01*
X129230835Y-80656735D01*
X129561934Y-80161211D01*
X129599727Y-79971211D01*
X130391243Y-79971901D01*
X131264283Y-79611168D01*
X131932821Y-78943797D01*
X132053612Y-78652899D01*
X132224832Y-79067283D01*
X132224832Y-79067283D01*
G37*
X132224832Y-79067283D02*
X132892203Y-79735821D01*
X133764613Y-80098077D01*
X134709243Y-80098901D01*
X135277238Y-79864210D01*
X135276652Y-80535060D01*
X135582012Y-81274086D01*
X136095430Y-81788401D01*
X135583999Y-82298940D01*
X135277350Y-83037432D01*
X135277205Y-83204040D01*
X134713387Y-82969923D01*
X133768757Y-82969099D01*
X132895717Y-83329832D01*
X132587711Y-83637300D01*
X132468800Y-83637300D01*
X131884289Y-83753566D01*
X131842860Y-83781248D01*
X131267797Y-83205179D01*
X130395387Y-82842923D01*
X129450757Y-82842099D01*
X128577717Y-83202832D01*
X128142827Y-83636963D01*
X127900200Y-83393911D01*
X127900200Y-81987370D01*
X129230835Y-80656735D01*
X129561934Y-80161211D01*
X129599727Y-79971211D01*
X130391243Y-79971901D01*
X131264283Y-79611168D01*
X131932821Y-78943797D01*
X132053612Y-78652899D01*
X132224832Y-79067283D01*
G36*
X178071832Y-78940283D02*
X178739203Y-79608821D01*
X179611613Y-79971077D01*
X180295965Y-79971674D01*
X180333666Y-80161211D01*
X180664765Y-80656735D01*
X181995400Y-81987370D01*
X181995400Y-83378841D01*
X181800438Y-83573463D01*
X181432797Y-83205179D01*
X180560387Y-82842923D01*
X179615757Y-82842099D01*
X178742717Y-83202832D01*
X178169886Y-83774663D01*
X178138311Y-83753566D01*
X177553800Y-83637300D01*
X177419164Y-83637300D01*
X176987797Y-83205179D01*
X176115387Y-82842923D01*
X175170757Y-82842099D01*
X174603206Y-83076606D01*
X174603348Y-82913940D01*
X174297988Y-82174914D01*
X173848070Y-81724210D01*
X174296001Y-81277060D01*
X174602650Y-80538568D01*
X174603348Y-79738940D01*
X174602475Y-79736827D01*
X175166613Y-79971077D01*
X176111243Y-79971901D01*
X176984283Y-79611168D01*
X177652821Y-78943797D01*
X177863571Y-78436254D01*
X178071832Y-78940283D01*
X178071832Y-78940283D01*
G37*
X178071832Y-78940283D02*
X178739203Y-79608821D01*
X179611613Y-79971077D01*
X180295965Y-79971674D01*
X180333666Y-80161211D01*
X180664765Y-80656735D01*
X181995400Y-81987370D01*
X181995400Y-83378841D01*
X181800438Y-83573463D01*
X181432797Y-83205179D01*
X180560387Y-82842923D01*
X179615757Y-82842099D01*
X178742717Y-83202832D01*
X178169886Y-83774663D01*
X178138311Y-83753566D01*
X177553800Y-83637300D01*
X177419164Y-83637300D01*
X176987797Y-83205179D01*
X176115387Y-82842923D01*
X175170757Y-82842099D01*
X174603206Y-83076606D01*
X174603348Y-82913940D01*
X174297988Y-82174914D01*
X173848070Y-81724210D01*
X174296001Y-81277060D01*
X174602650Y-80538568D01*
X174603348Y-79738940D01*
X174602475Y-79736827D01*
X175166613Y-79971077D01*
X176111243Y-79971901D01*
X176984283Y-79611168D01*
X177652821Y-78943797D01*
X177863571Y-78436254D01*
X178071832Y-78940283D01*
G36*
X179582379Y-74307305D02*
X179394765Y-74432665D01*
X178886765Y-74940665D01*
X178555666Y-75436189D01*
X178472926Y-75852152D01*
X178074179Y-76250203D01*
X177863429Y-76757746D01*
X177655168Y-76253717D01*
X177114895Y-75712500D01*
X177059934Y-75436189D01*
X176747969Y-74969301D01*
X176863442Y-74969402D01*
X177718286Y-74616188D01*
X178089020Y-74246100D01*
X179434981Y-74246100D01*
X179582379Y-74307305D01*
X179582379Y-74307305D01*
G37*
X179582379Y-74307305D02*
X179394765Y-74432665D01*
X178886765Y-74940665D01*
X178555666Y-75436189D01*
X178472926Y-75852152D01*
X178074179Y-76250203D01*
X177863429Y-76757746D01*
X177655168Y-76253717D01*
X177114895Y-75712500D01*
X177059934Y-75436189D01*
X176747969Y-74969301D01*
X176863442Y-74969402D01*
X177718286Y-74616188D01*
X178089020Y-74246100D01*
X179434981Y-74246100D01*
X179582379Y-74307305D01*
G36*
X136146000Y-72515000D02*
X136166000Y-72515000D01*
X136166000Y-72773000D01*
X136146000Y-72773000D01*
X136146000Y-74118750D01*
X136232590Y-74205340D01*
X134978092Y-75459838D01*
X134713387Y-75349923D01*
X133768757Y-75349099D01*
X132895717Y-75709832D01*
X132227179Y-76377203D01*
X132106388Y-76668101D01*
X131935168Y-76253717D01*
X131394895Y-75712500D01*
X131339934Y-75436189D01*
X131008835Y-74940665D01*
X130500835Y-74432665D01*
X130307576Y-74303533D01*
X130446575Y-74246100D01*
X131791126Y-74246100D01*
X132158274Y-74613889D01*
X133012500Y-74968595D01*
X133937442Y-74969402D01*
X134792286Y-74616188D01*
X135132066Y-74277000D01*
X135729750Y-74277000D01*
X135888000Y-74118750D01*
X135888000Y-72773000D01*
X135868000Y-72773000D01*
X135868000Y-72515000D01*
X135888000Y-72515000D01*
X135888000Y-72495000D01*
X136146000Y-72495000D01*
X136146000Y-72515000D01*
X136146000Y-72515000D01*
G37*
X136146000Y-72515000D02*
X136166000Y-72515000D01*
X136166000Y-72773000D01*
X136146000Y-72773000D01*
X136146000Y-74118750D01*
X136232590Y-74205340D01*
X134978092Y-75459838D01*
X134713387Y-75349923D01*
X133768757Y-75349099D01*
X132895717Y-75709832D01*
X132227179Y-76377203D01*
X132106388Y-76668101D01*
X131935168Y-76253717D01*
X131394895Y-75712500D01*
X131339934Y-75436189D01*
X131008835Y-74940665D01*
X130500835Y-74432665D01*
X130307576Y-74303533D01*
X130446575Y-74246100D01*
X131791126Y-74246100D01*
X132158274Y-74613889D01*
X133012500Y-74968595D01*
X133937442Y-74969402D01*
X134792286Y-74616188D01*
X135132066Y-74277000D01*
X135729750Y-74277000D01*
X135888000Y-74118750D01*
X135888000Y-72773000D01*
X135868000Y-72773000D01*
X135868000Y-72515000D01*
X135888000Y-72515000D01*
X135888000Y-72495000D01*
X136146000Y-72495000D01*
X136146000Y-72515000D01*
G36*
X173992000Y-72515000D02*
X174012000Y-72515000D01*
X174012000Y-72773000D01*
X173992000Y-72773000D01*
X173992000Y-72793000D01*
X173734000Y-72793000D01*
X173734000Y-72773000D01*
X173714000Y-72773000D01*
X173714000Y-72515000D01*
X173734000Y-72515000D01*
X173734000Y-72495000D01*
X173992000Y-72495000D01*
X173992000Y-72515000D01*
X173992000Y-72515000D01*
G37*
X173992000Y-72515000D02*
X174012000Y-72515000D01*
X174012000Y-72773000D01*
X173992000Y-72773000D01*
X173992000Y-72793000D01*
X173734000Y-72793000D01*
X173734000Y-72773000D01*
X173714000Y-72773000D01*
X173714000Y-72515000D01*
X173734000Y-72515000D01*
X173734000Y-72495000D01*
X173992000Y-72495000D01*
X173992000Y-72515000D01*
G36*
X123324800Y-65775200D02*
X125207744Y-65775200D01*
X123652022Y-67330922D01*
X123285134Y-67880008D01*
X123158172Y-68518289D01*
X123145799Y-68530640D01*
X123020626Y-68832091D01*
X122908860Y-68270206D01*
X122606705Y-67818000D01*
X122908860Y-67365794D01*
X123071529Y-66548000D01*
X122908860Y-65730206D01*
X122879776Y-65686679D01*
X123324800Y-65775200D01*
X123324800Y-65775200D01*
G37*
X123324800Y-65775200D02*
X125207744Y-65775200D01*
X123652022Y-67330922D01*
X123285134Y-67880008D01*
X123158172Y-68518289D01*
X123145799Y-68530640D01*
X123020626Y-68832091D01*
X122908860Y-68270206D01*
X122606705Y-67818000D01*
X122908860Y-67365794D01*
X123071529Y-66548000D01*
X122908860Y-65730206D01*
X122879776Y-65686679D01*
X123324800Y-65775200D01*
G36*
X142269452Y-59273760D02*
X142574812Y-60012786D01*
X143139740Y-60578701D01*
X143878232Y-60885350D01*
X144677860Y-60886048D01*
X145416886Y-60580688D01*
X145594784Y-60403100D01*
X154696130Y-60403100D01*
X156389995Y-62096965D01*
X155948485Y-62279394D01*
X155336086Y-62890725D01*
X155004249Y-63689877D01*
X155003621Y-64409500D01*
X152249035Y-64409500D01*
X152274340Y-64338767D01*
X152246342Y-63769332D01*
X152082295Y-63373288D01*
X151836969Y-63298865D01*
X151011405Y-64124429D01*
X151025547Y-64138571D01*
X150843113Y-64321005D01*
X150828971Y-64306863D01*
X150814829Y-64321005D01*
X150632395Y-64138571D01*
X150646537Y-64124429D01*
X149820973Y-63298865D01*
X149575647Y-63373288D01*
X149383602Y-63910091D01*
X149408157Y-64409500D01*
X149375056Y-64409500D01*
X148081987Y-63116431D01*
X150003407Y-63116431D01*
X150828971Y-63941995D01*
X151654535Y-63116431D01*
X151580112Y-62871105D01*
X151043309Y-62679060D01*
X150473874Y-62707058D01*
X150077830Y-62871105D01*
X150003407Y-63116431D01*
X148081987Y-63116431D01*
X147838778Y-62873222D01*
X147590096Y-62707058D01*
X147289692Y-62506334D01*
X146642000Y-62377500D01*
X142070000Y-62377500D01*
X142006153Y-62390200D01*
X136916180Y-62390200D01*
X136909919Y-62380470D01*
X136450432Y-62066516D01*
X136421402Y-62060637D01*
X136550905Y-61686453D01*
X136520551Y-61176948D01*
X136383970Y-60847209D01*
X136154175Y-60791258D01*
X135437434Y-61508000D01*
X135451576Y-61522142D01*
X135269142Y-61704576D01*
X135255000Y-61690434D01*
X135240858Y-61704576D01*
X135058424Y-61522142D01*
X135072566Y-61508000D01*
X134355825Y-60791258D01*
X134126030Y-60847209D01*
X133959095Y-61329547D01*
X133989449Y-61839052D01*
X134081381Y-62060997D01*
X133627470Y-62353081D01*
X133602108Y-62390200D01*
X131661679Y-62390200D01*
X131830257Y-61542700D01*
X131659854Y-60686025D01*
X131608271Y-60608825D01*
X134538258Y-60608825D01*
X135255000Y-61325566D01*
X135971742Y-60608825D01*
X135915791Y-60379030D01*
X135433453Y-60212095D01*
X134923948Y-60242449D01*
X134594209Y-60379030D01*
X134538258Y-60608825D01*
X131608271Y-60608825D01*
X131174586Y-59959771D01*
X130448332Y-59474503D01*
X129591657Y-59304100D01*
X129503943Y-59304100D01*
X128647268Y-59474503D01*
X128595055Y-59509391D01*
X128416832Y-59387616D01*
X127871400Y-59277163D01*
X126144200Y-59277163D01*
X125634656Y-59373040D01*
X125166670Y-59674181D01*
X125096108Y-59777452D01*
X124346056Y-59027400D01*
X142269667Y-59027400D01*
X142269452Y-59273760D01*
X142269452Y-59273760D01*
G37*
X142269452Y-59273760D02*
X142574812Y-60012786D01*
X143139740Y-60578701D01*
X143878232Y-60885350D01*
X144677860Y-60886048D01*
X145416886Y-60580688D01*
X145594784Y-60403100D01*
X154696130Y-60403100D01*
X156389995Y-62096965D01*
X155948485Y-62279394D01*
X155336086Y-62890725D01*
X155004249Y-63689877D01*
X155003621Y-64409500D01*
X152249035Y-64409500D01*
X152274340Y-64338767D01*
X152246342Y-63769332D01*
X152082295Y-63373288D01*
X151836969Y-63298865D01*
X151011405Y-64124429D01*
X151025547Y-64138571D01*
X150843113Y-64321005D01*
X150828971Y-64306863D01*
X150814829Y-64321005D01*
X150632395Y-64138571D01*
X150646537Y-64124429D01*
X149820973Y-63298865D01*
X149575647Y-63373288D01*
X149383602Y-63910091D01*
X149408157Y-64409500D01*
X149375056Y-64409500D01*
X148081987Y-63116431D01*
X150003407Y-63116431D01*
X150828971Y-63941995D01*
X151654535Y-63116431D01*
X151580112Y-62871105D01*
X151043309Y-62679060D01*
X150473874Y-62707058D01*
X150077830Y-62871105D01*
X150003407Y-63116431D01*
X148081987Y-63116431D01*
X147838778Y-62873222D01*
X147590096Y-62707058D01*
X147289692Y-62506334D01*
X146642000Y-62377500D01*
X142070000Y-62377500D01*
X142006153Y-62390200D01*
X136916180Y-62390200D01*
X136909919Y-62380470D01*
X136450432Y-62066516D01*
X136421402Y-62060637D01*
X136550905Y-61686453D01*
X136520551Y-61176948D01*
X136383970Y-60847209D01*
X136154175Y-60791258D01*
X135437434Y-61508000D01*
X135451576Y-61522142D01*
X135269142Y-61704576D01*
X135255000Y-61690434D01*
X135240858Y-61704576D01*
X135058424Y-61522142D01*
X135072566Y-61508000D01*
X134355825Y-60791258D01*
X134126030Y-60847209D01*
X133959095Y-61329547D01*
X133989449Y-61839052D01*
X134081381Y-62060997D01*
X133627470Y-62353081D01*
X133602108Y-62390200D01*
X131661679Y-62390200D01*
X131830257Y-61542700D01*
X131659854Y-60686025D01*
X131608271Y-60608825D01*
X134538258Y-60608825D01*
X135255000Y-61325566D01*
X135971742Y-60608825D01*
X135915791Y-60379030D01*
X135433453Y-60212095D01*
X134923948Y-60242449D01*
X134594209Y-60379030D01*
X134538258Y-60608825D01*
X131608271Y-60608825D01*
X131174586Y-59959771D01*
X130448332Y-59474503D01*
X129591657Y-59304100D01*
X129503943Y-59304100D01*
X128647268Y-59474503D01*
X128595055Y-59509391D01*
X128416832Y-59387616D01*
X127871400Y-59277163D01*
X126144200Y-59277163D01*
X125634656Y-59373040D01*
X125166670Y-59674181D01*
X125096108Y-59777452D01*
X124346056Y-59027400D01*
X142269667Y-59027400D01*
X142269452Y-59273760D01*
G36*
X118239000Y-63879000D02*
X118254131Y-63879000D01*
X118228471Y-64008000D01*
X118254131Y-64137000D01*
X118239000Y-64137000D01*
X118239000Y-64157000D01*
X117981000Y-64157000D01*
X117981000Y-64137000D01*
X117961000Y-64137000D01*
X117961000Y-63879000D01*
X117981000Y-63879000D01*
X117981000Y-63859000D01*
X118239000Y-63859000D01*
X118239000Y-63879000D01*
X118239000Y-63879000D01*
G37*
X118239000Y-63879000D02*
X118254131Y-63879000D01*
X118228471Y-64008000D01*
X118254131Y-64137000D01*
X118239000Y-64137000D01*
X118239000Y-64157000D01*
X117981000Y-64157000D01*
X117981000Y-64137000D01*
X117961000Y-64137000D01*
X117961000Y-63879000D01*
X117981000Y-63879000D01*
X117981000Y-63859000D01*
X118239000Y-63859000D01*
X118239000Y-63879000D01*
M02*
