G04 #@! TF.FileFunction,Legend,Top*
%FSLAX46Y46*%
G04 Gerber Fmt 4.6, Leading zero omitted, Abs format (unit mm)*
G04 Created by KiCad (PCBNEW 4.0.2-4+6225~38~ubuntu14.04.1-stable) date mar 26 jul 2016 23:31:03 ART*
%MOMM*%
G01*
G04 APERTURE LIST*
%ADD10C,0.100000*%
%ADD11C,0.187500*%
%ADD12C,0.300000*%
%ADD13C,0.125000*%
%ADD14C,0.150000*%
%ADD15C,0.002540*%
%ADD16C,0.120000*%
%ADD17C,0.200000*%
%ADD18C,0.170000*%
%ADD19C,0.175000*%
%ADD20C,0.180000*%
%ADD21C,0.190000*%
G04 APERTURE END LIST*
D10*
D11*
X174027857Y-66927000D02*
X174385000Y-66927000D01*
X173956429Y-67141286D02*
X174206429Y-66391286D01*
X174456429Y-67141286D01*
X174635000Y-66391286D02*
X175135000Y-66391286D01*
X174635000Y-67141286D01*
X175135000Y-67141286D01*
X175420714Y-66391286D02*
X175420714Y-66998429D01*
X175456429Y-67069857D01*
X175492143Y-67105571D01*
X175563572Y-67141286D01*
X175706429Y-67141286D01*
X175777857Y-67105571D01*
X175813572Y-67069857D01*
X175849286Y-66998429D01*
X175849286Y-66391286D01*
X176563571Y-67141286D02*
X176206428Y-67141286D01*
X176206428Y-66391286D01*
X173581430Y-90013286D02*
X173831430Y-90763286D01*
X174081430Y-90013286D01*
X174331429Y-90370429D02*
X174581429Y-90370429D01*
X174688572Y-90763286D02*
X174331429Y-90763286D01*
X174331429Y-90013286D01*
X174688572Y-90013286D01*
X175438572Y-90763286D02*
X175188572Y-90406143D01*
X175010000Y-90763286D02*
X175010000Y-90013286D01*
X175295715Y-90013286D01*
X175367143Y-90049000D01*
X175402858Y-90084714D01*
X175438572Y-90156143D01*
X175438572Y-90263286D01*
X175402858Y-90334714D01*
X175367143Y-90370429D01*
X175295715Y-90406143D01*
X175010000Y-90406143D01*
X175760000Y-90763286D02*
X175760000Y-90013286D01*
X175938572Y-90013286D01*
X176045715Y-90049000D01*
X176117143Y-90120429D01*
X176152858Y-90191857D01*
X176188572Y-90334714D01*
X176188572Y-90441857D01*
X176152858Y-90584714D01*
X176117143Y-90656143D01*
X176045715Y-90727571D01*
X175938572Y-90763286D01*
X175760000Y-90763286D01*
X176510000Y-90370429D02*
X176760000Y-90370429D01*
X176867143Y-90763286D02*
X176510000Y-90763286D01*
X176510000Y-90013286D01*
X176867143Y-90013286D01*
X133780715Y-90763286D02*
X133530715Y-90406143D01*
X133352143Y-90763286D02*
X133352143Y-90013286D01*
X133637858Y-90013286D01*
X133709286Y-90049000D01*
X133745001Y-90084714D01*
X133780715Y-90156143D01*
X133780715Y-90263286D01*
X133745001Y-90334714D01*
X133709286Y-90370429D01*
X133637858Y-90406143D01*
X133352143Y-90406143D01*
X134245001Y-90013286D02*
X134387858Y-90013286D01*
X134459286Y-90049000D01*
X134530715Y-90120429D01*
X134566429Y-90263286D01*
X134566429Y-90513286D01*
X134530715Y-90656143D01*
X134459286Y-90727571D01*
X134387858Y-90763286D01*
X134245001Y-90763286D01*
X134173572Y-90727571D01*
X134102143Y-90656143D01*
X134066429Y-90513286D01*
X134066429Y-90263286D01*
X134102143Y-90120429D01*
X134173572Y-90049000D01*
X134245001Y-90013286D01*
X135102143Y-90013286D02*
X135102143Y-90549000D01*
X135066429Y-90656143D01*
X134995000Y-90727571D01*
X134887857Y-90763286D01*
X134816429Y-90763286D01*
X135602144Y-90013286D02*
X135745001Y-90013286D01*
X135816429Y-90049000D01*
X135887858Y-90120429D01*
X135923572Y-90263286D01*
X135923572Y-90513286D01*
X135887858Y-90656143D01*
X135816429Y-90727571D01*
X135745001Y-90763286D01*
X135602144Y-90763286D01*
X135530715Y-90727571D01*
X135459286Y-90656143D01*
X135423572Y-90513286D01*
X135423572Y-90263286D01*
X135459286Y-90120429D01*
X135530715Y-90049000D01*
X135602144Y-90013286D01*
X132137857Y-67181000D02*
X132495000Y-67181000D01*
X132066429Y-67395286D02*
X132316429Y-66645286D01*
X132566429Y-67395286D01*
X132816428Y-67395286D02*
X132816428Y-66645286D01*
X133066428Y-67181000D01*
X133316428Y-66645286D01*
X133316428Y-67395286D01*
X133637857Y-67181000D02*
X133995000Y-67181000D01*
X133566429Y-67395286D02*
X133816429Y-66645286D01*
X134066429Y-67395286D01*
X134745000Y-67395286D02*
X134495000Y-67038143D01*
X134316428Y-67395286D02*
X134316428Y-66645286D01*
X134602143Y-66645286D01*
X134673571Y-66681000D01*
X134709286Y-66716714D01*
X134745000Y-66788143D01*
X134745000Y-66895286D01*
X134709286Y-66966714D01*
X134673571Y-67002429D01*
X134602143Y-67038143D01*
X134316428Y-67038143D01*
X135066428Y-67395286D02*
X135066428Y-66645286D01*
X135780714Y-67395286D02*
X135423571Y-67395286D01*
X135423571Y-66645286D01*
X136387857Y-67395286D02*
X136030714Y-67395286D01*
X136030714Y-66645286D01*
X136780715Y-66645286D02*
X136923572Y-66645286D01*
X136995000Y-66681000D01*
X137066429Y-66752429D01*
X137102143Y-66895286D01*
X137102143Y-67145286D01*
X137066429Y-67288143D01*
X136995000Y-67359571D01*
X136923572Y-67395286D01*
X136780715Y-67395286D01*
X136709286Y-67359571D01*
X136637857Y-67288143D01*
X136602143Y-67145286D01*
X136602143Y-66895286D01*
X136637857Y-66752429D01*
X136709286Y-66681000D01*
X136780715Y-66645286D01*
D12*
X144122572Y-115740571D02*
X144122572Y-114240571D01*
X144479715Y-114240571D01*
X144694000Y-114312000D01*
X144836858Y-114454857D01*
X144908286Y-114597714D01*
X144979715Y-114883429D01*
X144979715Y-115097714D01*
X144908286Y-115383429D01*
X144836858Y-115526286D01*
X144694000Y-115669143D01*
X144479715Y-115740571D01*
X144122572Y-115740571D01*
X145622572Y-115740571D02*
X145622572Y-114740571D01*
X145622572Y-114240571D02*
X145551143Y-114312000D01*
X145622572Y-114383429D01*
X145694000Y-114312000D01*
X145622572Y-114240571D01*
X145622572Y-114383429D01*
X146265429Y-115669143D02*
X146408286Y-115740571D01*
X146694001Y-115740571D01*
X146836858Y-115669143D01*
X146908286Y-115526286D01*
X146908286Y-115454857D01*
X146836858Y-115312000D01*
X146694001Y-115240571D01*
X146479715Y-115240571D01*
X146336858Y-115169143D01*
X146265429Y-115026286D01*
X146265429Y-114954857D01*
X146336858Y-114812000D01*
X146479715Y-114740571D01*
X146694001Y-114740571D01*
X146836858Y-114812000D01*
X148122572Y-115669143D02*
X147979715Y-115740571D01*
X147694001Y-115740571D01*
X147551144Y-115669143D01*
X147479715Y-115526286D01*
X147479715Y-114954857D01*
X147551144Y-114812000D01*
X147694001Y-114740571D01*
X147979715Y-114740571D01*
X148122572Y-114812000D01*
X148194001Y-114954857D01*
X148194001Y-115097714D01*
X147479715Y-115240571D01*
X148836858Y-114740571D02*
X148836858Y-115740571D01*
X148836858Y-114883429D02*
X148908286Y-114812000D01*
X149051144Y-114740571D01*
X149265429Y-114740571D01*
X149408286Y-114812000D01*
X149479715Y-114954857D01*
X149479715Y-115740571D01*
X148765429Y-114383429D02*
X148836858Y-114312000D01*
X148979715Y-114240571D01*
X149265429Y-114383429D01*
X149408286Y-114312000D01*
X149479715Y-114240571D01*
X150408287Y-115740571D02*
X150265429Y-115669143D01*
X150194001Y-115597714D01*
X150122572Y-115454857D01*
X150122572Y-115026286D01*
X150194001Y-114883429D01*
X150265429Y-114812000D01*
X150408287Y-114740571D01*
X150622572Y-114740571D01*
X150765429Y-114812000D01*
X150836858Y-114883429D01*
X150908287Y-115026286D01*
X150908287Y-115454857D01*
X150836858Y-115597714D01*
X150765429Y-115669143D01*
X150622572Y-115740571D01*
X150408287Y-115740571D01*
X152694001Y-115740571D02*
X152694001Y-114240571D01*
X153265429Y-114240571D01*
X153408287Y-114312000D01*
X153479715Y-114383429D01*
X153551144Y-114526286D01*
X153551144Y-114740571D01*
X153479715Y-114883429D01*
X153408287Y-114954857D01*
X153265429Y-115026286D01*
X152694001Y-115026286D01*
X155051144Y-115597714D02*
X154979715Y-115669143D01*
X154765429Y-115740571D01*
X154622572Y-115740571D01*
X154408287Y-115669143D01*
X154265429Y-115526286D01*
X154194001Y-115383429D01*
X154122572Y-115097714D01*
X154122572Y-114883429D01*
X154194001Y-114597714D01*
X154265429Y-114454857D01*
X154408287Y-114312000D01*
X154622572Y-114240571D01*
X154765429Y-114240571D01*
X154979715Y-114312000D01*
X155051144Y-114383429D01*
X156194001Y-114954857D02*
X156408287Y-115026286D01*
X156479715Y-115097714D01*
X156551144Y-115240571D01*
X156551144Y-115454857D01*
X156479715Y-115597714D01*
X156408287Y-115669143D01*
X156265429Y-115740571D01*
X155694001Y-115740571D01*
X155694001Y-114240571D01*
X156194001Y-114240571D01*
X156336858Y-114312000D01*
X156408287Y-114383429D01*
X156479715Y-114526286D01*
X156479715Y-114669143D01*
X156408287Y-114812000D01*
X156336858Y-114883429D01*
X156194001Y-114954857D01*
X155694001Y-114954857D01*
X158336858Y-115169143D02*
X159479715Y-115169143D01*
X162194001Y-115597714D02*
X162122572Y-115669143D01*
X161908286Y-115740571D01*
X161765429Y-115740571D01*
X161551144Y-115669143D01*
X161408286Y-115526286D01*
X161336858Y-115383429D01*
X161265429Y-115097714D01*
X161265429Y-114883429D01*
X161336858Y-114597714D01*
X161408286Y-114454857D01*
X161551144Y-114312000D01*
X161765429Y-114240571D01*
X161908286Y-114240571D01*
X162122572Y-114312000D01*
X162194001Y-114383429D01*
X162836858Y-114954857D02*
X163336858Y-114954857D01*
X163551144Y-115740571D02*
X162836858Y-115740571D01*
X162836858Y-114240571D01*
X163551144Y-114240571D01*
X164122572Y-115669143D02*
X164336858Y-115740571D01*
X164694001Y-115740571D01*
X164836858Y-115669143D01*
X164908287Y-115597714D01*
X164979715Y-115454857D01*
X164979715Y-115312000D01*
X164908287Y-115169143D01*
X164836858Y-115097714D01*
X164694001Y-115026286D01*
X164408287Y-114954857D01*
X164265429Y-114883429D01*
X164194001Y-114812000D01*
X164122572Y-114669143D01*
X164122572Y-114526286D01*
X164194001Y-114383429D01*
X164265429Y-114312000D01*
X164408287Y-114240571D01*
X164765429Y-114240571D01*
X164979715Y-114312000D01*
X165622572Y-114954857D02*
X166122572Y-114954857D01*
X166336858Y-115740571D02*
X165622572Y-115740571D01*
X165622572Y-114240571D01*
X166336858Y-114240571D01*
D11*
X183999857Y-54906821D02*
X183999857Y-53406821D01*
X184714143Y-54906821D02*
X184714143Y-53406821D01*
X185571286Y-54906821D01*
X185571286Y-53406821D01*
X186285572Y-54906821D02*
X186285572Y-53406821D01*
X186642715Y-53406821D01*
X186857000Y-53478250D01*
X186999858Y-53621107D01*
X187071286Y-53763964D01*
X187142715Y-54049679D01*
X187142715Y-54263964D01*
X187071286Y-54549679D01*
X186999858Y-54692536D01*
X186857000Y-54835393D01*
X186642715Y-54906821D01*
X186285572Y-54906821D01*
X187785572Y-53406821D02*
X187785572Y-54621107D01*
X187857000Y-54763964D01*
X187928429Y-54835393D01*
X188071286Y-54906821D01*
X188357000Y-54906821D01*
X188499858Y-54835393D01*
X188571286Y-54763964D01*
X188642715Y-54621107D01*
X188642715Y-53406821D01*
X189285572Y-54835393D02*
X189499858Y-54906821D01*
X189857001Y-54906821D01*
X189999858Y-54835393D01*
X190071287Y-54763964D01*
X190142715Y-54621107D01*
X190142715Y-54478250D01*
X190071287Y-54335393D01*
X189999858Y-54263964D01*
X189857001Y-54192536D01*
X189571287Y-54121107D01*
X189428429Y-54049679D01*
X189357001Y-53978250D01*
X189285572Y-53835393D01*
X189285572Y-53692536D01*
X189357001Y-53549679D01*
X189428429Y-53478250D01*
X189571287Y-53406821D01*
X189928429Y-53406821D01*
X190142715Y-53478250D01*
X190571286Y-53406821D02*
X191428429Y-53406821D01*
X190999858Y-54906821D02*
X190999858Y-53406821D01*
X192785572Y-54906821D02*
X192285572Y-54192536D01*
X191928429Y-54906821D02*
X191928429Y-53406821D01*
X192499857Y-53406821D01*
X192642715Y-53478250D01*
X192714143Y-53549679D01*
X192785572Y-53692536D01*
X192785572Y-53906821D01*
X192714143Y-54049679D01*
X192642715Y-54121107D01*
X192499857Y-54192536D01*
X191928429Y-54192536D01*
X193428429Y-54906821D02*
X193428429Y-53406821D01*
X194071286Y-54478250D02*
X194785572Y-54478250D01*
X193928429Y-54906821D02*
X194428429Y-53406821D01*
X194928429Y-54906821D01*
X183678428Y-56765750D02*
X184392714Y-56765750D01*
X183535571Y-57194321D02*
X184035571Y-55694321D01*
X184535571Y-57194321D01*
X185892714Y-57194321D02*
X185392714Y-56480036D01*
X185035571Y-57194321D02*
X185035571Y-55694321D01*
X185606999Y-55694321D01*
X185749857Y-55765750D01*
X185821285Y-55837179D01*
X185892714Y-55980036D01*
X185892714Y-56194321D01*
X185821285Y-56337179D01*
X185749857Y-56408607D01*
X185606999Y-56480036D01*
X185035571Y-56480036D01*
X187321285Y-55765750D02*
X187178428Y-55694321D01*
X186964142Y-55694321D01*
X186749857Y-55765750D01*
X186606999Y-55908607D01*
X186535571Y-56051464D01*
X186464142Y-56337179D01*
X186464142Y-56551464D01*
X186535571Y-56837179D01*
X186606999Y-56980036D01*
X186749857Y-57122893D01*
X186964142Y-57194321D01*
X187106999Y-57194321D01*
X187321285Y-57122893D01*
X187392714Y-57051464D01*
X187392714Y-56551464D01*
X187106999Y-56551464D01*
X188035571Y-56408607D02*
X188535571Y-56408607D01*
X188749857Y-57194321D02*
X188035571Y-57194321D01*
X188035571Y-55694321D01*
X188749857Y-55694321D01*
X189392714Y-57194321D02*
X189392714Y-55694321D01*
X190249857Y-57194321D01*
X190249857Y-55694321D01*
X190749857Y-55694321D02*
X191607000Y-55694321D01*
X191178429Y-57194321D02*
X191178429Y-55694321D01*
X192107000Y-57194321D02*
X192107000Y-55694321D01*
X192821286Y-57194321D02*
X192821286Y-55694321D01*
X193678429Y-57194321D01*
X193678429Y-55694321D01*
X194321286Y-56765750D02*
X195035572Y-56765750D01*
X194178429Y-57194321D02*
X194678429Y-55694321D01*
X195178429Y-57194321D01*
D13*
X131857763Y-63714381D02*
X131619668Y-63714381D01*
X131595858Y-64190571D01*
X131619668Y-64142952D01*
X131667287Y-64095333D01*
X131786334Y-64095333D01*
X131833953Y-64142952D01*
X131857763Y-64190571D01*
X131881572Y-64285810D01*
X131881572Y-64523905D01*
X131857763Y-64619143D01*
X131833953Y-64666762D01*
X131786334Y-64714381D01*
X131667287Y-64714381D01*
X131619668Y-64666762D01*
X131595858Y-64619143D01*
X132024429Y-63714381D02*
X132191096Y-64714381D01*
X132357762Y-63714381D01*
X131587954Y-60920381D02*
X131897477Y-60920381D01*
X131730811Y-61301333D01*
X131802239Y-61301333D01*
X131849858Y-61348952D01*
X131873668Y-61396571D01*
X131897477Y-61491810D01*
X131897477Y-61729905D01*
X131873668Y-61825143D01*
X131849858Y-61872762D01*
X131802239Y-61920381D01*
X131659382Y-61920381D01*
X131611763Y-61872762D01*
X131587954Y-61825143D01*
X132040334Y-60920381D02*
X132207001Y-61920381D01*
X132373667Y-60920381D01*
X132492715Y-60920381D02*
X132802238Y-60920381D01*
X132635572Y-61301333D01*
X132707000Y-61301333D01*
X132754619Y-61348952D01*
X132778429Y-61396571D01*
X132802238Y-61491810D01*
X132802238Y-61729905D01*
X132778429Y-61825143D01*
X132754619Y-61872762D01*
X132707000Y-61920381D01*
X132564143Y-61920381D01*
X132516524Y-61872762D01*
X132492715Y-61825143D01*
D12*
X124416857Y-55947571D02*
X124416857Y-57019000D01*
X124345429Y-57233286D01*
X124202572Y-57376143D01*
X123988286Y-57447571D01*
X123845429Y-57447571D01*
X125131143Y-57447571D02*
X125131143Y-55947571D01*
X125631143Y-57019000D01*
X126131143Y-55947571D01*
X126131143Y-57447571D01*
X126845429Y-57447571D02*
X126845429Y-55947571D01*
X127416857Y-55947571D01*
X127559715Y-56019000D01*
X127631143Y-56090429D01*
X127702572Y-56233286D01*
X127702572Y-56447571D01*
X127631143Y-56590429D01*
X127559715Y-56661857D01*
X127416857Y-56733286D01*
X126845429Y-56733286D01*
X127988286Y-57590429D02*
X129131143Y-57590429D01*
X129274000Y-55947571D02*
X129774000Y-57447571D01*
X130274000Y-55947571D01*
X130774000Y-57447571D02*
X130774000Y-55947571D01*
X131131143Y-55947571D01*
X131345428Y-56019000D01*
X131488286Y-56161857D01*
X131559714Y-56304714D01*
X131631143Y-56590429D01*
X131631143Y-56804714D01*
X131559714Y-57090429D01*
X131488286Y-57233286D01*
X131345428Y-57376143D01*
X131131143Y-57447571D01*
X130774000Y-57447571D01*
X132274000Y-57447571D02*
X132274000Y-55947571D01*
X132631143Y-55947571D01*
X132845428Y-56019000D01*
X132988286Y-56161857D01*
X133059714Y-56304714D01*
X133131143Y-56590429D01*
X133131143Y-56804714D01*
X133059714Y-57090429D01*
X132988286Y-57233286D01*
X132845428Y-57376143D01*
X132631143Y-57447571D01*
X132274000Y-57447571D01*
X136857143Y-110678571D02*
X137714286Y-110678571D01*
X137285715Y-112178571D02*
X137285715Y-110678571D01*
X138214286Y-111392857D02*
X138714286Y-111392857D01*
X138928572Y-112178571D02*
X138214286Y-112178571D01*
X138214286Y-110678571D01*
X138928572Y-110678571D01*
X140428572Y-112035714D02*
X140357143Y-112107143D01*
X140142857Y-112178571D01*
X140000000Y-112178571D01*
X139785715Y-112107143D01*
X139642857Y-111964286D01*
X139571429Y-111821429D01*
X139500000Y-111535714D01*
X139500000Y-111321429D01*
X139571429Y-111035714D01*
X139642857Y-110892857D01*
X139785715Y-110750000D01*
X140000000Y-110678571D01*
X140142857Y-110678571D01*
X140357143Y-110750000D01*
X140428572Y-110821429D01*
X142071429Y-110678571D02*
X143000000Y-110678571D01*
X142500000Y-111250000D01*
X142714286Y-111250000D01*
X142857143Y-111321429D01*
X142928572Y-111392857D01*
X143000000Y-111535714D01*
X143000000Y-111892857D01*
X142928572Y-112035714D01*
X142857143Y-112107143D01*
X142714286Y-112178571D01*
X142285714Y-112178571D01*
X142142857Y-112107143D01*
X142071429Y-112035714D01*
X166857143Y-110678571D02*
X167714286Y-110678571D01*
X167285715Y-112178571D02*
X167285715Y-110678571D01*
X168214286Y-111392857D02*
X168714286Y-111392857D01*
X168928572Y-112178571D02*
X168214286Y-112178571D01*
X168214286Y-110678571D01*
X168928572Y-110678571D01*
X170428572Y-112035714D02*
X170357143Y-112107143D01*
X170142857Y-112178571D01*
X170000000Y-112178571D01*
X169785715Y-112107143D01*
X169642857Y-111964286D01*
X169571429Y-111821429D01*
X169500000Y-111535714D01*
X169500000Y-111321429D01*
X169571429Y-111035714D01*
X169642857Y-110892857D01*
X169785715Y-110750000D01*
X170000000Y-110678571D01*
X170142857Y-110678571D01*
X170357143Y-110750000D01*
X170428572Y-110821429D01*
X172857143Y-111178571D02*
X172857143Y-112178571D01*
X172500000Y-110607143D02*
X172142857Y-111678571D01*
X173071429Y-111678571D01*
X165357143Y-74178571D02*
X166214286Y-74178571D01*
X165785715Y-75678571D02*
X165785715Y-74178571D01*
X166714286Y-74892857D02*
X167214286Y-74892857D01*
X167428572Y-75678571D02*
X166714286Y-75678571D01*
X166714286Y-74178571D01*
X167428572Y-74178571D01*
X168928572Y-75535714D02*
X168857143Y-75607143D01*
X168642857Y-75678571D01*
X168500000Y-75678571D01*
X168285715Y-75607143D01*
X168142857Y-75464286D01*
X168071429Y-75321429D01*
X168000000Y-75035714D01*
X168000000Y-74821429D01*
X168071429Y-74535714D01*
X168142857Y-74392857D01*
X168285715Y-74250000D01*
X168500000Y-74178571D01*
X168642857Y-74178571D01*
X168857143Y-74250000D01*
X168928572Y-74321429D01*
X170642857Y-74321429D02*
X170714286Y-74250000D01*
X170857143Y-74178571D01*
X171214286Y-74178571D01*
X171357143Y-74250000D01*
X171428572Y-74321429D01*
X171500000Y-74464286D01*
X171500000Y-74607143D01*
X171428572Y-74821429D01*
X170571429Y-75678571D01*
X171500000Y-75678571D01*
X138357143Y-74178571D02*
X139214286Y-74178571D01*
X138785715Y-75678571D02*
X138785715Y-74178571D01*
X139714286Y-74892857D02*
X140214286Y-74892857D01*
X140428572Y-75678571D02*
X139714286Y-75678571D01*
X139714286Y-74178571D01*
X140428572Y-74178571D01*
X141928572Y-75535714D02*
X141857143Y-75607143D01*
X141642857Y-75678571D01*
X141500000Y-75678571D01*
X141285715Y-75607143D01*
X141142857Y-75464286D01*
X141071429Y-75321429D01*
X141000000Y-75035714D01*
X141000000Y-74821429D01*
X141071429Y-74535714D01*
X141142857Y-74392857D01*
X141285715Y-74250000D01*
X141500000Y-74178571D01*
X141642857Y-74178571D01*
X141857143Y-74250000D01*
X141928572Y-74321429D01*
X144500000Y-75678571D02*
X143642857Y-75678571D01*
X144071429Y-75678571D02*
X144071429Y-74178571D01*
X143928572Y-74392857D01*
X143785714Y-74535714D01*
X143642857Y-74607143D01*
X157142858Y-111392857D02*
X157357144Y-111464286D01*
X157428572Y-111535714D01*
X157500001Y-111678571D01*
X157500001Y-111892857D01*
X157428572Y-112035714D01*
X157357144Y-112107143D01*
X157214286Y-112178571D01*
X156642858Y-112178571D01*
X156642858Y-110678571D01*
X157142858Y-110678571D01*
X157285715Y-110750000D01*
X157357144Y-110821429D01*
X157428572Y-110964286D01*
X157428572Y-111107143D01*
X157357144Y-111250000D01*
X157285715Y-111321429D01*
X157142858Y-111392857D01*
X156642858Y-111392857D01*
X158142858Y-111392857D02*
X158642858Y-111392857D01*
X158857144Y-112178571D02*
X158142858Y-112178571D01*
X158142858Y-110678571D01*
X158857144Y-110678571D01*
X159428572Y-112107143D02*
X159642858Y-112178571D01*
X160000001Y-112178571D01*
X160142858Y-112107143D01*
X160214287Y-112035714D01*
X160285715Y-111892857D01*
X160285715Y-111750000D01*
X160214287Y-111607143D01*
X160142858Y-111535714D01*
X160000001Y-111464286D01*
X159714287Y-111392857D01*
X159571429Y-111321429D01*
X159500001Y-111250000D01*
X159428572Y-111107143D01*
X159428572Y-110964286D01*
X159500001Y-110821429D01*
X159571429Y-110750000D01*
X159714287Y-110678571D01*
X160071429Y-110678571D01*
X160285715Y-110750000D01*
X160714286Y-110678571D02*
X161571429Y-110678571D01*
X161142858Y-112178571D02*
X161142858Y-110678571D01*
X148250000Y-112107143D02*
X148464286Y-112178571D01*
X148821429Y-112178571D01*
X148964286Y-112107143D01*
X149035715Y-112035714D01*
X149107143Y-111892857D01*
X149107143Y-111750000D01*
X149035715Y-111607143D01*
X148964286Y-111535714D01*
X148821429Y-111464286D01*
X148535715Y-111392857D01*
X148392857Y-111321429D01*
X148321429Y-111250000D01*
X148250000Y-111107143D01*
X148250000Y-110964286D01*
X148321429Y-110821429D01*
X148392857Y-110750000D01*
X148535715Y-110678571D01*
X148892857Y-110678571D01*
X149107143Y-110750000D01*
X149750000Y-112178571D02*
X149750000Y-110678571D01*
X150607143Y-112178571D02*
X149964286Y-111321429D01*
X150607143Y-110678571D02*
X149750000Y-111535714D01*
X151250000Y-112178571D02*
X151250000Y-110678571D01*
X152678572Y-112178571D02*
X151964286Y-112178571D01*
X151964286Y-110678571D01*
X153892858Y-112178571D02*
X153178572Y-112178571D01*
X153178572Y-110678571D01*
X157214286Y-74250000D02*
X157071429Y-74178571D01*
X156857143Y-74178571D01*
X156642858Y-74250000D01*
X156500000Y-74392857D01*
X156428572Y-74535714D01*
X156357143Y-74821429D01*
X156357143Y-75035714D01*
X156428572Y-75321429D01*
X156500000Y-75464286D01*
X156642858Y-75607143D01*
X156857143Y-75678571D01*
X157000000Y-75678571D01*
X157214286Y-75607143D01*
X157285715Y-75535714D01*
X157285715Y-75035714D01*
X157000000Y-75035714D01*
X157857143Y-75250000D02*
X158571429Y-75250000D01*
X157714286Y-75678571D02*
X158214286Y-74178571D01*
X158714286Y-75678571D01*
X159214286Y-75678571D02*
X159214286Y-74178571D01*
X159714286Y-75250000D01*
X160214286Y-74178571D01*
X160214286Y-75678571D01*
X160928572Y-74892857D02*
X161428572Y-74892857D01*
X161642858Y-75678571D02*
X160928572Y-75678571D01*
X160928572Y-74178571D01*
X161642858Y-74178571D01*
X148035715Y-75607143D02*
X148250001Y-75678571D01*
X148607144Y-75678571D01*
X148750001Y-75607143D01*
X148821430Y-75535714D01*
X148892858Y-75392857D01*
X148892858Y-75250000D01*
X148821430Y-75107143D01*
X148750001Y-75035714D01*
X148607144Y-74964286D01*
X148321430Y-74892857D01*
X148178572Y-74821429D01*
X148107144Y-74750000D01*
X148035715Y-74607143D01*
X148035715Y-74464286D01*
X148107144Y-74321429D01*
X148178572Y-74250000D01*
X148321430Y-74178571D01*
X148678572Y-74178571D01*
X148892858Y-74250000D01*
X149321429Y-74178571D02*
X150178572Y-74178571D01*
X149750001Y-75678571D02*
X149750001Y-74178571D01*
X150607143Y-75250000D02*
X151321429Y-75250000D01*
X150464286Y-75678571D02*
X150964286Y-74178571D01*
X151464286Y-75678571D01*
X152821429Y-75678571D02*
X152321429Y-74964286D01*
X151964286Y-75678571D02*
X151964286Y-74178571D01*
X152535714Y-74178571D01*
X152678572Y-74250000D01*
X152750000Y-74321429D01*
X152821429Y-74464286D01*
X152821429Y-74678571D01*
X152750000Y-74821429D01*
X152678572Y-74892857D01*
X152535714Y-74964286D01*
X151964286Y-74964286D01*
X153250000Y-74178571D02*
X154107143Y-74178571D01*
X153678572Y-75678571D02*
X153678572Y-74178571D01*
X180142856Y-115250000D02*
X180857142Y-115250000D01*
X179999999Y-115678571D02*
X180499999Y-114178571D01*
X180999999Y-115678571D01*
X182142856Y-114678571D02*
X182142856Y-115892857D01*
X182071427Y-116035714D01*
X181999999Y-116107143D01*
X181857142Y-116178571D01*
X181642856Y-116178571D01*
X181499999Y-116107143D01*
X182142856Y-115607143D02*
X181999999Y-115678571D01*
X181714285Y-115678571D01*
X181571427Y-115607143D01*
X181499999Y-115535714D01*
X181428570Y-115392857D01*
X181428570Y-114964286D01*
X181499999Y-114821429D01*
X181571427Y-114750000D01*
X181714285Y-114678571D01*
X181999999Y-114678571D01*
X182142856Y-114750000D01*
X183499999Y-114678571D02*
X183499999Y-115678571D01*
X182857142Y-114678571D02*
X182857142Y-115464286D01*
X182928570Y-115607143D01*
X183071428Y-115678571D01*
X183285713Y-115678571D01*
X183428570Y-115607143D01*
X183499999Y-115535714D01*
X184142856Y-115607143D02*
X184285713Y-115678571D01*
X184571428Y-115678571D01*
X184714285Y-115607143D01*
X184785713Y-115464286D01*
X184785713Y-115392857D01*
X184714285Y-115250000D01*
X184571428Y-115178571D01*
X184357142Y-115178571D01*
X184214285Y-115107143D01*
X184142856Y-114964286D01*
X184142856Y-114892857D01*
X184214285Y-114750000D01*
X184357142Y-114678571D01*
X184571428Y-114678571D01*
X184714285Y-114750000D01*
X185214285Y-114678571D02*
X185785714Y-114678571D01*
X185428571Y-114178571D02*
X185428571Y-115464286D01*
X185499999Y-115607143D01*
X185642857Y-115678571D01*
X185785714Y-115678571D01*
X186285714Y-115678571D02*
X186285714Y-114678571D01*
X186285714Y-114178571D02*
X186214285Y-114250000D01*
X186285714Y-114321429D01*
X186357142Y-114250000D01*
X186285714Y-114178571D01*
X186285714Y-114321429D01*
X187000000Y-114678571D02*
X187000000Y-115678571D01*
X187000000Y-114821429D02*
X187071428Y-114750000D01*
X187214286Y-114678571D01*
X187428571Y-114678571D01*
X187571428Y-114750000D01*
X187642857Y-114892857D01*
X187642857Y-115678571D01*
X190000000Y-114892857D02*
X190214286Y-114964286D01*
X190285714Y-115035714D01*
X190357143Y-115178571D01*
X190357143Y-115392857D01*
X190285714Y-115535714D01*
X190214286Y-115607143D01*
X190071428Y-115678571D01*
X189500000Y-115678571D01*
X189500000Y-114178571D01*
X190000000Y-114178571D01*
X190142857Y-114250000D01*
X190214286Y-114321429D01*
X190285714Y-114464286D01*
X190285714Y-114607143D01*
X190214286Y-114750000D01*
X190142857Y-114821429D01*
X190000000Y-114892857D01*
X189500000Y-114892857D01*
X191642857Y-115678571D02*
X191642857Y-114892857D01*
X191571428Y-114750000D01*
X191428571Y-114678571D01*
X191142857Y-114678571D01*
X191000000Y-114750000D01*
X191642857Y-115607143D02*
X191500000Y-115678571D01*
X191142857Y-115678571D01*
X191000000Y-115607143D01*
X190928571Y-115464286D01*
X190928571Y-115321429D01*
X191000000Y-115178571D01*
X191142857Y-115107143D01*
X191500000Y-115107143D01*
X191642857Y-115035714D01*
X192285714Y-115607143D02*
X192428571Y-115678571D01*
X192714286Y-115678571D01*
X192857143Y-115607143D01*
X192928571Y-115464286D01*
X192928571Y-115392857D01*
X192857143Y-115250000D01*
X192714286Y-115178571D01*
X192500000Y-115178571D01*
X192357143Y-115107143D01*
X192285714Y-114964286D01*
X192285714Y-114892857D01*
X192357143Y-114750000D01*
X192500000Y-114678571D01*
X192714286Y-114678571D01*
X192857143Y-114750000D01*
X193500000Y-115607143D02*
X193642857Y-115678571D01*
X193928572Y-115678571D01*
X194071429Y-115607143D01*
X194142857Y-115464286D01*
X194142857Y-115392857D01*
X194071429Y-115250000D01*
X193928572Y-115178571D01*
X193714286Y-115178571D01*
X193571429Y-115107143D01*
X193500000Y-114964286D01*
X193500000Y-114892857D01*
X193571429Y-114750000D01*
X193714286Y-114678571D01*
X193928572Y-114678571D01*
X194071429Y-114750000D01*
X194785715Y-115678571D02*
X194785715Y-114678571D01*
X194785715Y-114178571D02*
X194714286Y-114250000D01*
X194785715Y-114321429D01*
X194857143Y-114250000D01*
X194785715Y-114178571D01*
X194785715Y-114321429D01*
X141142857Y-55678571D02*
X141142857Y-54178571D01*
X141714285Y-54178571D01*
X141857143Y-54250000D01*
X141928571Y-54321429D01*
X142000000Y-54464286D01*
X142000000Y-54678571D01*
X141928571Y-54821429D01*
X141857143Y-54892857D01*
X141714285Y-54964286D01*
X141142857Y-54964286D01*
X142857143Y-55678571D02*
X142714285Y-55607143D01*
X142642857Y-55535714D01*
X142571428Y-55392857D01*
X142571428Y-54964286D01*
X142642857Y-54821429D01*
X142714285Y-54750000D01*
X142857143Y-54678571D01*
X143071428Y-54678571D01*
X143214285Y-54750000D01*
X143285714Y-54821429D01*
X143357143Y-54964286D01*
X143357143Y-55392857D01*
X143285714Y-55535714D01*
X143214285Y-55607143D01*
X143071428Y-55678571D01*
X142857143Y-55678571D01*
X144000000Y-54678571D02*
X144000000Y-55678571D01*
X144000000Y-54821429D02*
X144071428Y-54750000D01*
X144214286Y-54678571D01*
X144428571Y-54678571D01*
X144571428Y-54750000D01*
X144642857Y-54892857D01*
X144642857Y-55678571D01*
X146000000Y-55607143D02*
X145857143Y-55678571D01*
X145571429Y-55678571D01*
X145428571Y-55607143D01*
X145357143Y-55535714D01*
X145285714Y-55392857D01*
X145285714Y-54964286D01*
X145357143Y-54821429D01*
X145428571Y-54750000D01*
X145571429Y-54678571D01*
X145857143Y-54678571D01*
X146000000Y-54750000D01*
X146642857Y-55678571D02*
X146642857Y-54178571D01*
X147285714Y-55678571D02*
X147285714Y-54892857D01*
X147214285Y-54750000D01*
X147071428Y-54678571D01*
X146857143Y-54678571D01*
X146714285Y-54750000D01*
X146642857Y-54821429D01*
X148214286Y-55678571D02*
X148071428Y-55607143D01*
X148000000Y-55535714D01*
X147928571Y-55392857D01*
X147928571Y-54964286D01*
X148000000Y-54821429D01*
X148071428Y-54750000D01*
X148214286Y-54678571D01*
X148428571Y-54678571D01*
X148571428Y-54750000D01*
X148642857Y-54821429D01*
X148714286Y-54964286D01*
X148714286Y-55392857D01*
X148642857Y-55535714D01*
X148571428Y-55607143D01*
X148428571Y-55678571D01*
X148214286Y-55678571D01*
X150428571Y-55607143D02*
X150642857Y-55678571D01*
X151000000Y-55678571D01*
X151142857Y-55607143D01*
X151214286Y-55535714D01*
X151285714Y-55392857D01*
X151285714Y-55250000D01*
X151214286Y-55107143D01*
X151142857Y-55035714D01*
X151000000Y-54964286D01*
X150714286Y-54892857D01*
X150571428Y-54821429D01*
X150500000Y-54750000D01*
X150428571Y-54607143D01*
X150428571Y-54464286D01*
X150500000Y-54321429D01*
X150571428Y-54250000D01*
X150714286Y-54178571D01*
X151071428Y-54178571D01*
X151285714Y-54250000D01*
X151928571Y-55678571D02*
X151928571Y-54678571D01*
X151928571Y-54178571D02*
X151857142Y-54250000D01*
X151928571Y-54321429D01*
X151999999Y-54250000D01*
X151928571Y-54178571D01*
X151928571Y-54321429D01*
X152642857Y-55678571D02*
X152642857Y-54678571D01*
X152642857Y-54821429D02*
X152714285Y-54750000D01*
X152857143Y-54678571D01*
X153071428Y-54678571D01*
X153214285Y-54750000D01*
X153285714Y-54892857D01*
X153285714Y-55678571D01*
X153285714Y-54892857D02*
X153357143Y-54750000D01*
X153500000Y-54678571D01*
X153714285Y-54678571D01*
X153857143Y-54750000D01*
X153928571Y-54892857D01*
X153928571Y-55678571D01*
X154857143Y-55678571D02*
X154714285Y-55607143D01*
X154642857Y-55535714D01*
X154571428Y-55392857D01*
X154571428Y-54964286D01*
X154642857Y-54821429D01*
X154714285Y-54750000D01*
X154857143Y-54678571D01*
X155071428Y-54678571D01*
X155214285Y-54750000D01*
X155285714Y-54821429D01*
X155357143Y-54964286D01*
X155357143Y-55392857D01*
X155285714Y-55535714D01*
X155214285Y-55607143D01*
X155071428Y-55678571D01*
X154857143Y-55678571D01*
X156000000Y-54678571D02*
X156000000Y-55678571D01*
X156000000Y-54821429D02*
X156071428Y-54750000D01*
X156214286Y-54678571D01*
X156428571Y-54678571D01*
X156571428Y-54750000D01*
X156642857Y-54892857D01*
X156642857Y-55678571D01*
X158500000Y-54892857D02*
X159000000Y-54892857D01*
X159214286Y-55678571D02*
X158500000Y-55678571D01*
X158500000Y-54178571D01*
X159214286Y-54178571D01*
X159857143Y-55678571D02*
X159857143Y-54178571D01*
X160214286Y-54178571D01*
X160428571Y-54250000D01*
X160571429Y-54392857D01*
X160642857Y-54535714D01*
X160714286Y-54821429D01*
X160714286Y-55035714D01*
X160642857Y-55321429D01*
X160571429Y-55464286D01*
X160428571Y-55607143D01*
X160214286Y-55678571D01*
X159857143Y-55678571D01*
X161357143Y-54178571D02*
X161357143Y-55392857D01*
X161428571Y-55535714D01*
X161500000Y-55607143D01*
X161642857Y-55678571D01*
X161928571Y-55678571D01*
X162071429Y-55607143D01*
X162142857Y-55535714D01*
X162214286Y-55392857D01*
X162214286Y-54178571D01*
X162928572Y-55107143D02*
X164071429Y-55107143D01*
X165642858Y-55535714D02*
X165571429Y-55607143D01*
X165357143Y-55678571D01*
X165214286Y-55678571D01*
X165000001Y-55607143D01*
X164857143Y-55464286D01*
X164785715Y-55321429D01*
X164714286Y-55035714D01*
X164714286Y-54821429D01*
X164785715Y-54535714D01*
X164857143Y-54392857D01*
X165000001Y-54250000D01*
X165214286Y-54178571D01*
X165357143Y-54178571D01*
X165571429Y-54250000D01*
X165642858Y-54321429D01*
X166285715Y-55678571D02*
X166285715Y-54178571D01*
X166928572Y-55250000D02*
X167642858Y-55250000D01*
X166785715Y-55678571D02*
X167285715Y-54178571D01*
X167785715Y-55678571D01*
X168214286Y-55250000D02*
X168928572Y-55250000D01*
X168071429Y-55678571D02*
X168571429Y-54178571D01*
X169071429Y-55678571D01*
D14*
X125457800Y-61542700D02*
X125457800Y-59992700D01*
X127007800Y-59992700D02*
X125457800Y-59992700D01*
X125737800Y-62812700D02*
X128277800Y-62812700D01*
X128277800Y-62812700D02*
X128277800Y-60272700D01*
X128277800Y-60272700D02*
X130817800Y-60272700D01*
X130817800Y-60272700D02*
X130817800Y-65352700D01*
X130817800Y-65352700D02*
X125737800Y-65352700D01*
X125737800Y-65352700D02*
X125737800Y-62812700D01*
X149002711Y-64624809D02*
X149002711Y-63624049D01*
X149503091Y-64124429D02*
X148504871Y-64124429D01*
X155004731Y-64124429D02*
G75*
G03X155004731Y-64124429I-1000760J0D01*
G01*
X160204111Y-64124429D02*
G75*
G03X160204111Y-64124429I-6200140J0D01*
G01*
X137231888Y-71119096D02*
G75*
G03X137247000Y-74144000I-2484888J-1524904D01*
G01*
X137247000Y-71144000D02*
X137247000Y-74144000D01*
X137264936Y-72644000D02*
G75*
G03X137264936Y-72644000I-2517936J0D01*
G01*
X172648112Y-74168904D02*
G75*
G03X172633000Y-71144000I2484888J1524904D01*
G01*
X172633000Y-74144000D02*
X172633000Y-71144000D01*
X177650936Y-72644000D02*
G75*
G03X177650936Y-72644000I-2517936J0D01*
G01*
X137231888Y-94614096D02*
G75*
G03X137247000Y-97639000I-2484888J-1524904D01*
G01*
X137247000Y-94639000D02*
X137247000Y-97639000D01*
X137264936Y-96139000D02*
G75*
G03X137264936Y-96139000I-2517936J0D01*
G01*
X172648112Y-97536904D02*
G75*
G03X172633000Y-94512000I2484888J1524904D01*
G01*
X172633000Y-97512000D02*
X172633000Y-94512000D01*
X177650936Y-96012000D02*
G75*
G03X177650936Y-96012000I-2517936J0D01*
G01*
X163273000Y-65356000D02*
X163273000Y-68756000D01*
X163275944Y-65358944D02*
G75*
G02X167373000Y-67056000I1697056J-1697056D01*
G01*
X163275944Y-68753056D02*
G75*
G03X167373000Y-67056000I1697056J1697056D01*
G01*
X126443000Y-74344000D02*
X129843000Y-74344000D01*
X126445944Y-74341056D02*
G75*
G02X128143000Y-70244000I1697056J1697056D01*
G01*
X129840056Y-74341056D02*
G75*
G03X128143000Y-70244000I-1697056J1697056D01*
G01*
X183437000Y-70944000D02*
X180037000Y-70944000D01*
X183434056Y-70946944D02*
G75*
G02X181737000Y-75044000I-1697056J-1697056D01*
G01*
X180039944Y-70946944D02*
G75*
G03X181737000Y-75044000I1697056J-1697056D01*
G01*
X126443000Y-97712000D02*
X129843000Y-97712000D01*
X126445944Y-97709056D02*
G75*
G02X128143000Y-93612000I1697056J1697056D01*
G01*
X129840056Y-97709056D02*
G75*
G03X128143000Y-93612000I-1697056J1697056D01*
G01*
X183437000Y-94312000D02*
X180037000Y-94312000D01*
X183434056Y-94314944D02*
G75*
G02X181737000Y-98412000I-1697056J-1697056D01*
G01*
X180039944Y-94314944D02*
G75*
G03X181737000Y-98412000I1697056J-1697056D01*
G01*
X132969000Y-84074000D02*
X132969000Y-78994000D01*
X132969000Y-78994000D02*
X135509000Y-78994000D01*
X135509000Y-78994000D02*
X135509000Y-84074000D01*
X135509000Y-84074000D02*
X132969000Y-84074000D01*
X144145000Y-84074000D02*
X144145000Y-78994000D01*
X144145000Y-78994000D02*
X146685000Y-78994000D01*
X146685000Y-78994000D02*
X146685000Y-84074000D01*
X146685000Y-84074000D02*
X144145000Y-84074000D01*
X174371000Y-83947000D02*
X174371000Y-78867000D01*
X174371000Y-78867000D02*
X176911000Y-78867000D01*
X176911000Y-78867000D02*
X176911000Y-83947000D01*
X176911000Y-83947000D02*
X174371000Y-83947000D01*
X144145000Y-107696000D02*
X144145000Y-102616000D01*
X144145000Y-102616000D02*
X146685000Y-102616000D01*
X146685000Y-102616000D02*
X146685000Y-107696000D01*
X146685000Y-107696000D02*
X144145000Y-107696000D01*
X132969000Y-107188000D02*
X132969000Y-102108000D01*
X132969000Y-102108000D02*
X135509000Y-102108000D01*
X135509000Y-102108000D02*
X135509000Y-107188000D01*
X135509000Y-107188000D02*
X132969000Y-107188000D01*
X174371000Y-107315000D02*
X174371000Y-102235000D01*
X174371000Y-102235000D02*
X176911000Y-102235000D01*
X176911000Y-102235000D02*
X176911000Y-107315000D01*
X176911000Y-107315000D02*
X174371000Y-107315000D01*
X163195000Y-107569000D02*
X163195000Y-102489000D01*
X163195000Y-102489000D02*
X165735000Y-102489000D01*
X165735000Y-102489000D02*
X165735000Y-107569000D01*
X165735000Y-107569000D02*
X163195000Y-107569000D01*
X167894000Y-63881000D02*
X162814000Y-63881000D01*
X162814000Y-63881000D02*
X162814000Y-61341000D01*
X162814000Y-61341000D02*
X167894000Y-61341000D01*
X167894000Y-61341000D02*
X167894000Y-63881000D01*
X167894000Y-60833000D02*
X162814000Y-60833000D01*
X162814000Y-60833000D02*
X162814000Y-58293000D01*
X162814000Y-58293000D02*
X167894000Y-58293000D01*
X167894000Y-58293000D02*
X167894000Y-60833000D01*
X128651000Y-83947000D02*
X128651000Y-78867000D01*
X128651000Y-78867000D02*
X131191000Y-78867000D01*
X131191000Y-78867000D02*
X131191000Y-83947000D01*
X131191000Y-83947000D02*
X128651000Y-83947000D01*
X125095000Y-83947000D02*
X125095000Y-78867000D01*
X125095000Y-78867000D02*
X127635000Y-78867000D01*
X127635000Y-78867000D02*
X127635000Y-83947000D01*
X127635000Y-83947000D02*
X125095000Y-83947000D01*
X178816000Y-83947000D02*
X178816000Y-78867000D01*
X178816000Y-78867000D02*
X181356000Y-78867000D01*
X181356000Y-78867000D02*
X181356000Y-83947000D01*
X181356000Y-83947000D02*
X178816000Y-83947000D01*
X182245000Y-83947000D02*
X182245000Y-78867000D01*
X182245000Y-78867000D02*
X184785000Y-78867000D01*
X184785000Y-78867000D02*
X184785000Y-83947000D01*
X184785000Y-83947000D02*
X182245000Y-83947000D01*
X128651000Y-107188000D02*
X128651000Y-102108000D01*
X128651000Y-102108000D02*
X131191000Y-102108000D01*
X131191000Y-102108000D02*
X131191000Y-107188000D01*
X131191000Y-107188000D02*
X128651000Y-107188000D01*
X125095000Y-107188000D02*
X125095000Y-102108000D01*
X125095000Y-102108000D02*
X127635000Y-102108000D01*
X127635000Y-102108000D02*
X127635000Y-107188000D01*
X127635000Y-107188000D02*
X125095000Y-107188000D01*
X178689000Y-107315000D02*
X178689000Y-102235000D01*
X178689000Y-102235000D02*
X181229000Y-102235000D01*
X181229000Y-102235000D02*
X181229000Y-107315000D01*
X181229000Y-107315000D02*
X178689000Y-107315000D01*
X182245000Y-107315000D02*
X182245000Y-102235000D01*
X182245000Y-102235000D02*
X184785000Y-102235000D01*
X184785000Y-102235000D02*
X184785000Y-107315000D01*
X184785000Y-107315000D02*
X182245000Y-107315000D01*
X142367000Y-81534000D02*
G75*
G03X142367000Y-81534000I-2540000J0D01*
G01*
X136017000Y-85344000D02*
X136017000Y-77724000D01*
X136017000Y-77724000D02*
X143637000Y-77724000D01*
X143637000Y-77724000D02*
X143637000Y-85344000D01*
X136017000Y-85344000D02*
X143637000Y-85344000D01*
X153543000Y-81534000D02*
G75*
G03X153543000Y-81534000I-2540000J0D01*
G01*
X147193000Y-85344000D02*
X147193000Y-77724000D01*
X147193000Y-77724000D02*
X154813000Y-77724000D01*
X154813000Y-77724000D02*
X154813000Y-85344000D01*
X147193000Y-85344000D02*
X154813000Y-85344000D01*
X172593000Y-81534000D02*
G75*
G03X172593000Y-81534000I-2540000J0D01*
G01*
X173863000Y-77724000D02*
X173863000Y-85344000D01*
X173863000Y-85344000D02*
X166243000Y-85344000D01*
X166243000Y-85344000D02*
X166243000Y-77724000D01*
X173863000Y-77724000D02*
X166243000Y-77724000D01*
X161417000Y-81534000D02*
G75*
G03X161417000Y-81534000I-2540000J0D01*
G01*
X162687000Y-77724000D02*
X162687000Y-85344000D01*
X162687000Y-85344000D02*
X155067000Y-85344000D01*
X155067000Y-85344000D02*
X155067000Y-77724000D01*
X162687000Y-77724000D02*
X155067000Y-77724000D01*
X153543000Y-105029000D02*
G75*
G03X153543000Y-105029000I-2540000J0D01*
G01*
X147193000Y-108839000D02*
X147193000Y-101219000D01*
X147193000Y-101219000D02*
X154813000Y-101219000D01*
X154813000Y-101219000D02*
X154813000Y-108839000D01*
X147193000Y-108839000D02*
X154813000Y-108839000D01*
X142367000Y-105029000D02*
G75*
G03X142367000Y-105029000I-2540000J0D01*
G01*
X136017000Y-108839000D02*
X136017000Y-101219000D01*
X136017000Y-101219000D02*
X143637000Y-101219000D01*
X143637000Y-101219000D02*
X143637000Y-108839000D01*
X136017000Y-108839000D02*
X143637000Y-108839000D01*
X172593000Y-104902000D02*
G75*
G03X172593000Y-104902000I-2540000J0D01*
G01*
X173863000Y-101092000D02*
X173863000Y-108712000D01*
X173863000Y-108712000D02*
X166243000Y-108712000D01*
X166243000Y-108712000D02*
X166243000Y-101092000D01*
X173863000Y-101092000D02*
X166243000Y-101092000D01*
X161417000Y-104902000D02*
G75*
G03X161417000Y-104902000I-2540000J0D01*
G01*
X162687000Y-101092000D02*
X162687000Y-108712000D01*
X162687000Y-108712000D02*
X155067000Y-108712000D01*
X155067000Y-108712000D02*
X155067000Y-101092000D01*
X162687000Y-101092000D02*
X155067000Y-101092000D01*
X116840000Y-61468000D02*
X116840000Y-60198000D01*
X116840000Y-60198000D02*
X121920000Y-60198000D01*
X121920000Y-60198000D02*
X121920000Y-110998000D01*
X121920000Y-110998000D02*
X116840000Y-110998000D01*
X116840000Y-110998000D02*
X116840000Y-61468000D01*
X187960000Y-110998000D02*
X187960000Y-60198000D01*
X193040000Y-110998000D02*
X193040000Y-60198000D01*
X193040000Y-110998000D02*
X187960000Y-110998000D01*
X193040000Y-60198000D02*
X187960000Y-60198000D01*
X134005000Y-64258000D02*
X134005000Y-61258000D01*
X136505000Y-61258000D02*
X136505000Y-64258000D01*
D15*
G36*
X152516840Y-96809560D02*
X152557480Y-96789240D01*
X152651460Y-96730820D01*
X152786080Y-96641920D01*
X152943560Y-96537780D01*
X153101040Y-96428560D01*
X153230580Y-96342200D01*
X153322020Y-96283780D01*
X153360120Y-96263460D01*
X153380440Y-96268540D01*
X153456640Y-96306640D01*
X153565860Y-96362520D01*
X153629360Y-96395540D01*
X153728420Y-96438720D01*
X153779220Y-96448880D01*
X153786840Y-96433640D01*
X153824940Y-96357440D01*
X153880820Y-96225360D01*
X153957020Y-96052640D01*
X154043380Y-95849440D01*
X154137360Y-95631000D01*
X154228800Y-95407480D01*
X154317700Y-95194120D01*
X154396440Y-95003620D01*
X154459940Y-94848680D01*
X154500580Y-94739460D01*
X154515820Y-94693740D01*
X154510740Y-94683580D01*
X154459940Y-94635320D01*
X154373580Y-94569280D01*
X154183080Y-94414340D01*
X153997660Y-94180660D01*
X153883360Y-93916500D01*
X153845260Y-93621860D01*
X153878280Y-93350080D01*
X153984960Y-93088460D01*
X154167840Y-92852240D01*
X154388820Y-92676980D01*
X154647900Y-92565220D01*
X154940000Y-92529660D01*
X155219400Y-92560140D01*
X155486100Y-92666820D01*
X155722320Y-92847160D01*
X155821380Y-92961460D01*
X155958540Y-93200220D01*
X156037280Y-93456760D01*
X156044900Y-93520260D01*
X156034740Y-93802200D01*
X155950920Y-94071440D01*
X155803600Y-94312740D01*
X155597860Y-94508320D01*
X155569920Y-94528640D01*
X155475940Y-94599760D01*
X155412440Y-94648020D01*
X155361640Y-94688660D01*
X155719780Y-95549720D01*
X155775660Y-95686880D01*
X155874720Y-95923100D01*
X155961080Y-96126300D01*
X156029660Y-96286320D01*
X156077920Y-96395540D01*
X156098240Y-96438720D01*
X156100780Y-96441260D01*
X156131260Y-96446340D01*
X156197300Y-96420940D01*
X156316680Y-96362520D01*
X156397960Y-96321880D01*
X156489400Y-96278700D01*
X156530040Y-96263460D01*
X156565600Y-96281240D01*
X156651960Y-96339660D01*
X156781500Y-96423480D01*
X156933900Y-96527620D01*
X157081220Y-96629220D01*
X157215840Y-96718120D01*
X157314900Y-96779080D01*
X157363160Y-96807020D01*
X157370780Y-96807020D01*
X157411420Y-96781620D01*
X157490160Y-96718120D01*
X157607000Y-96606360D01*
X157772100Y-96443800D01*
X157797500Y-96418400D01*
X157934660Y-96278700D01*
X158046420Y-96161860D01*
X158120080Y-96080580D01*
X158145480Y-96042480D01*
X158145480Y-96042480D01*
X158122620Y-95994220D01*
X158059120Y-95897700D01*
X157970220Y-95760540D01*
X157861000Y-95600520D01*
X157576520Y-95186500D01*
X157734000Y-94795340D01*
X157782260Y-94675960D01*
X157843220Y-94531180D01*
X157886400Y-94427040D01*
X157911800Y-94381320D01*
X157952440Y-94366080D01*
X158061660Y-94340680D01*
X158216600Y-94307660D01*
X158399480Y-94274640D01*
X158577280Y-94241620D01*
X158737300Y-94211140D01*
X158851600Y-94188280D01*
X158902400Y-94178120D01*
X158915100Y-94170500D01*
X158925260Y-94145100D01*
X158932880Y-94091760D01*
X158935420Y-93995240D01*
X158937960Y-93842840D01*
X158937960Y-93621860D01*
X158937960Y-93599000D01*
X158935420Y-93388180D01*
X158932880Y-93220540D01*
X158927800Y-93111320D01*
X158920180Y-93068140D01*
X158920180Y-93068140D01*
X158869380Y-93055440D01*
X158757620Y-93032580D01*
X158597600Y-92999560D01*
X158407100Y-92964000D01*
X158396940Y-92961460D01*
X158206440Y-92925900D01*
X158048960Y-92892880D01*
X157937200Y-92867480D01*
X157891480Y-92852240D01*
X157881320Y-92839540D01*
X157843220Y-92765880D01*
X157787340Y-92649040D01*
X157726380Y-92504260D01*
X157662880Y-92356940D01*
X157609540Y-92222320D01*
X157573980Y-92123260D01*
X157563820Y-92077540D01*
X157563820Y-92077540D01*
X157591760Y-92031820D01*
X157657800Y-91932760D01*
X157749240Y-91798140D01*
X157861000Y-91635580D01*
X157868620Y-91622880D01*
X157977840Y-91462860D01*
X158066740Y-91328240D01*
X158125160Y-91231720D01*
X158145480Y-91188540D01*
X158145480Y-91186000D01*
X158109920Y-91137740D01*
X158028640Y-91048840D01*
X157911800Y-90926920D01*
X157772100Y-90784680D01*
X157726380Y-90741500D01*
X157571440Y-90589100D01*
X157464760Y-90490040D01*
X157396180Y-90436700D01*
X157363160Y-90424000D01*
X157363160Y-90426540D01*
X157314900Y-90454480D01*
X157213300Y-90520520D01*
X157076140Y-90614500D01*
X156913580Y-90723720D01*
X156903420Y-90731340D01*
X156743400Y-90840560D01*
X156611320Y-90929460D01*
X156514800Y-90992960D01*
X156474160Y-91018360D01*
X156466540Y-91018360D01*
X156403040Y-90998040D01*
X156288740Y-90959940D01*
X156149040Y-90904060D01*
X156001720Y-90845640D01*
X155867100Y-90789760D01*
X155765500Y-90741500D01*
X155717240Y-90716100D01*
X155717240Y-90713560D01*
X155699460Y-90655140D01*
X155671520Y-90535760D01*
X155638500Y-90370660D01*
X155600400Y-90175080D01*
X155595320Y-90144600D01*
X155559760Y-89954100D01*
X155529280Y-89796620D01*
X155506420Y-89687400D01*
X155493720Y-89641680D01*
X155468320Y-89636600D01*
X155374340Y-89628980D01*
X155232100Y-89626440D01*
X155059380Y-89623900D01*
X154879040Y-89626440D01*
X154703780Y-89628980D01*
X154551380Y-89634060D01*
X154444700Y-89641680D01*
X154398980Y-89651840D01*
X154396440Y-89654380D01*
X154381200Y-89712800D01*
X154355800Y-89832180D01*
X154320240Y-89997280D01*
X154282140Y-90195400D01*
X154277060Y-90228420D01*
X154241500Y-90418920D01*
X154208480Y-90573860D01*
X154185620Y-90683080D01*
X154172920Y-90723720D01*
X154157680Y-90733880D01*
X154078940Y-90766900D01*
X153951940Y-90820240D01*
X153791920Y-90883740D01*
X153426160Y-91033600D01*
X152979120Y-90723720D01*
X152935940Y-90695780D01*
X152775920Y-90586560D01*
X152641300Y-90497660D01*
X152549860Y-90439240D01*
X152511760Y-90416380D01*
X152509220Y-90418920D01*
X152463500Y-90457020D01*
X152374600Y-90540840D01*
X152252680Y-90660220D01*
X152112980Y-90799920D01*
X152008840Y-90904060D01*
X151884380Y-91031060D01*
X151805640Y-91114880D01*
X151762460Y-91170760D01*
X151747220Y-91203780D01*
X151752300Y-91224100D01*
X151780240Y-91269820D01*
X151846280Y-91368880D01*
X151937720Y-91506040D01*
X152046940Y-91663520D01*
X152138380Y-91798140D01*
X152234900Y-91948000D01*
X152298400Y-92054680D01*
X152321260Y-92108020D01*
X152316180Y-92130880D01*
X152283160Y-92217240D01*
X152229820Y-92351860D01*
X152163780Y-92509340D01*
X152006300Y-92864940D01*
X151772620Y-92908120D01*
X151632920Y-92936060D01*
X151434800Y-92974160D01*
X151246840Y-93009720D01*
X150952200Y-93068140D01*
X150942040Y-94150180D01*
X150987760Y-94170500D01*
X151030940Y-94183200D01*
X151140160Y-94206060D01*
X151295100Y-94236540D01*
X151480520Y-94272100D01*
X151635460Y-94302580D01*
X151795480Y-94330520D01*
X151907240Y-94353380D01*
X151958040Y-94363540D01*
X151970740Y-94381320D01*
X152011380Y-94457520D01*
X152067260Y-94579440D01*
X152128220Y-94726760D01*
X152191720Y-94876620D01*
X152247600Y-95016320D01*
X152288240Y-95123000D01*
X152300940Y-95178880D01*
X152280620Y-95222060D01*
X152219660Y-95313500D01*
X152133300Y-95445580D01*
X152026620Y-95603060D01*
X151917400Y-95760540D01*
X151828500Y-95895160D01*
X151765000Y-95991680D01*
X151739600Y-96034860D01*
X151752300Y-96065340D01*
X151813260Y-96141540D01*
X151932640Y-96263460D01*
X152107900Y-96438720D01*
X152138380Y-96466660D01*
X152278080Y-96601280D01*
X152397460Y-96710500D01*
X152478740Y-96784160D01*
X152516840Y-96809560D01*
X152516840Y-96809560D01*
G37*
X152516840Y-96809560D02*
X152557480Y-96789240D01*
X152651460Y-96730820D01*
X152786080Y-96641920D01*
X152943560Y-96537780D01*
X153101040Y-96428560D01*
X153230580Y-96342200D01*
X153322020Y-96283780D01*
X153360120Y-96263460D01*
X153380440Y-96268540D01*
X153456640Y-96306640D01*
X153565860Y-96362520D01*
X153629360Y-96395540D01*
X153728420Y-96438720D01*
X153779220Y-96448880D01*
X153786840Y-96433640D01*
X153824940Y-96357440D01*
X153880820Y-96225360D01*
X153957020Y-96052640D01*
X154043380Y-95849440D01*
X154137360Y-95631000D01*
X154228800Y-95407480D01*
X154317700Y-95194120D01*
X154396440Y-95003620D01*
X154459940Y-94848680D01*
X154500580Y-94739460D01*
X154515820Y-94693740D01*
X154510740Y-94683580D01*
X154459940Y-94635320D01*
X154373580Y-94569280D01*
X154183080Y-94414340D01*
X153997660Y-94180660D01*
X153883360Y-93916500D01*
X153845260Y-93621860D01*
X153878280Y-93350080D01*
X153984960Y-93088460D01*
X154167840Y-92852240D01*
X154388820Y-92676980D01*
X154647900Y-92565220D01*
X154940000Y-92529660D01*
X155219400Y-92560140D01*
X155486100Y-92666820D01*
X155722320Y-92847160D01*
X155821380Y-92961460D01*
X155958540Y-93200220D01*
X156037280Y-93456760D01*
X156044900Y-93520260D01*
X156034740Y-93802200D01*
X155950920Y-94071440D01*
X155803600Y-94312740D01*
X155597860Y-94508320D01*
X155569920Y-94528640D01*
X155475940Y-94599760D01*
X155412440Y-94648020D01*
X155361640Y-94688660D01*
X155719780Y-95549720D01*
X155775660Y-95686880D01*
X155874720Y-95923100D01*
X155961080Y-96126300D01*
X156029660Y-96286320D01*
X156077920Y-96395540D01*
X156098240Y-96438720D01*
X156100780Y-96441260D01*
X156131260Y-96446340D01*
X156197300Y-96420940D01*
X156316680Y-96362520D01*
X156397960Y-96321880D01*
X156489400Y-96278700D01*
X156530040Y-96263460D01*
X156565600Y-96281240D01*
X156651960Y-96339660D01*
X156781500Y-96423480D01*
X156933900Y-96527620D01*
X157081220Y-96629220D01*
X157215840Y-96718120D01*
X157314900Y-96779080D01*
X157363160Y-96807020D01*
X157370780Y-96807020D01*
X157411420Y-96781620D01*
X157490160Y-96718120D01*
X157607000Y-96606360D01*
X157772100Y-96443800D01*
X157797500Y-96418400D01*
X157934660Y-96278700D01*
X158046420Y-96161860D01*
X158120080Y-96080580D01*
X158145480Y-96042480D01*
X158145480Y-96042480D01*
X158122620Y-95994220D01*
X158059120Y-95897700D01*
X157970220Y-95760540D01*
X157861000Y-95600520D01*
X157576520Y-95186500D01*
X157734000Y-94795340D01*
X157782260Y-94675960D01*
X157843220Y-94531180D01*
X157886400Y-94427040D01*
X157911800Y-94381320D01*
X157952440Y-94366080D01*
X158061660Y-94340680D01*
X158216600Y-94307660D01*
X158399480Y-94274640D01*
X158577280Y-94241620D01*
X158737300Y-94211140D01*
X158851600Y-94188280D01*
X158902400Y-94178120D01*
X158915100Y-94170500D01*
X158925260Y-94145100D01*
X158932880Y-94091760D01*
X158935420Y-93995240D01*
X158937960Y-93842840D01*
X158937960Y-93621860D01*
X158937960Y-93599000D01*
X158935420Y-93388180D01*
X158932880Y-93220540D01*
X158927800Y-93111320D01*
X158920180Y-93068140D01*
X158920180Y-93068140D01*
X158869380Y-93055440D01*
X158757620Y-93032580D01*
X158597600Y-92999560D01*
X158407100Y-92964000D01*
X158396940Y-92961460D01*
X158206440Y-92925900D01*
X158048960Y-92892880D01*
X157937200Y-92867480D01*
X157891480Y-92852240D01*
X157881320Y-92839540D01*
X157843220Y-92765880D01*
X157787340Y-92649040D01*
X157726380Y-92504260D01*
X157662880Y-92356940D01*
X157609540Y-92222320D01*
X157573980Y-92123260D01*
X157563820Y-92077540D01*
X157563820Y-92077540D01*
X157591760Y-92031820D01*
X157657800Y-91932760D01*
X157749240Y-91798140D01*
X157861000Y-91635580D01*
X157868620Y-91622880D01*
X157977840Y-91462860D01*
X158066740Y-91328240D01*
X158125160Y-91231720D01*
X158145480Y-91188540D01*
X158145480Y-91186000D01*
X158109920Y-91137740D01*
X158028640Y-91048840D01*
X157911800Y-90926920D01*
X157772100Y-90784680D01*
X157726380Y-90741500D01*
X157571440Y-90589100D01*
X157464760Y-90490040D01*
X157396180Y-90436700D01*
X157363160Y-90424000D01*
X157363160Y-90426540D01*
X157314900Y-90454480D01*
X157213300Y-90520520D01*
X157076140Y-90614500D01*
X156913580Y-90723720D01*
X156903420Y-90731340D01*
X156743400Y-90840560D01*
X156611320Y-90929460D01*
X156514800Y-90992960D01*
X156474160Y-91018360D01*
X156466540Y-91018360D01*
X156403040Y-90998040D01*
X156288740Y-90959940D01*
X156149040Y-90904060D01*
X156001720Y-90845640D01*
X155867100Y-90789760D01*
X155765500Y-90741500D01*
X155717240Y-90716100D01*
X155717240Y-90713560D01*
X155699460Y-90655140D01*
X155671520Y-90535760D01*
X155638500Y-90370660D01*
X155600400Y-90175080D01*
X155595320Y-90144600D01*
X155559760Y-89954100D01*
X155529280Y-89796620D01*
X155506420Y-89687400D01*
X155493720Y-89641680D01*
X155468320Y-89636600D01*
X155374340Y-89628980D01*
X155232100Y-89626440D01*
X155059380Y-89623900D01*
X154879040Y-89626440D01*
X154703780Y-89628980D01*
X154551380Y-89634060D01*
X154444700Y-89641680D01*
X154398980Y-89651840D01*
X154396440Y-89654380D01*
X154381200Y-89712800D01*
X154355800Y-89832180D01*
X154320240Y-89997280D01*
X154282140Y-90195400D01*
X154277060Y-90228420D01*
X154241500Y-90418920D01*
X154208480Y-90573860D01*
X154185620Y-90683080D01*
X154172920Y-90723720D01*
X154157680Y-90733880D01*
X154078940Y-90766900D01*
X153951940Y-90820240D01*
X153791920Y-90883740D01*
X153426160Y-91033600D01*
X152979120Y-90723720D01*
X152935940Y-90695780D01*
X152775920Y-90586560D01*
X152641300Y-90497660D01*
X152549860Y-90439240D01*
X152511760Y-90416380D01*
X152509220Y-90418920D01*
X152463500Y-90457020D01*
X152374600Y-90540840D01*
X152252680Y-90660220D01*
X152112980Y-90799920D01*
X152008840Y-90904060D01*
X151884380Y-91031060D01*
X151805640Y-91114880D01*
X151762460Y-91170760D01*
X151747220Y-91203780D01*
X151752300Y-91224100D01*
X151780240Y-91269820D01*
X151846280Y-91368880D01*
X151937720Y-91506040D01*
X152046940Y-91663520D01*
X152138380Y-91798140D01*
X152234900Y-91948000D01*
X152298400Y-92054680D01*
X152321260Y-92108020D01*
X152316180Y-92130880D01*
X152283160Y-92217240D01*
X152229820Y-92351860D01*
X152163780Y-92509340D01*
X152006300Y-92864940D01*
X151772620Y-92908120D01*
X151632920Y-92936060D01*
X151434800Y-92974160D01*
X151246840Y-93009720D01*
X150952200Y-93068140D01*
X150942040Y-94150180D01*
X150987760Y-94170500D01*
X151030940Y-94183200D01*
X151140160Y-94206060D01*
X151295100Y-94236540D01*
X151480520Y-94272100D01*
X151635460Y-94302580D01*
X151795480Y-94330520D01*
X151907240Y-94353380D01*
X151958040Y-94363540D01*
X151970740Y-94381320D01*
X152011380Y-94457520D01*
X152067260Y-94579440D01*
X152128220Y-94726760D01*
X152191720Y-94876620D01*
X152247600Y-95016320D01*
X152288240Y-95123000D01*
X152300940Y-95178880D01*
X152280620Y-95222060D01*
X152219660Y-95313500D01*
X152133300Y-95445580D01*
X152026620Y-95603060D01*
X151917400Y-95760540D01*
X151828500Y-95895160D01*
X151765000Y-95991680D01*
X151739600Y-96034860D01*
X151752300Y-96065340D01*
X151813260Y-96141540D01*
X151932640Y-96263460D01*
X152107900Y-96438720D01*
X152138380Y-96466660D01*
X152278080Y-96601280D01*
X152397460Y-96710500D01*
X152478740Y-96784160D01*
X152516840Y-96809560D01*
D10*
G36*
X147791714Y-67698979D02*
X147754746Y-67905891D01*
X147661012Y-68190800D01*
X147536272Y-68488897D01*
X147406281Y-68735374D01*
X147379376Y-68773413D01*
X147379376Y-68202299D01*
X147314326Y-67889062D01*
X147125112Y-67681622D01*
X146820639Y-67588329D01*
X146719636Y-67583792D01*
X146385516Y-67644777D01*
X146164248Y-67822165D01*
X146064734Y-68107608D01*
X146059896Y-68202299D01*
X146124946Y-68515536D01*
X146314159Y-68722975D01*
X146618633Y-68816269D01*
X146719636Y-68820805D01*
X147053606Y-68762492D01*
X147214441Y-68655870D01*
X147348315Y-68418030D01*
X147379376Y-68202299D01*
X147379376Y-68773413D01*
X147345856Y-68820805D01*
X147269749Y-68947925D01*
X147151220Y-69187365D01*
X147009792Y-69498585D01*
X146928876Y-69686714D01*
X146677635Y-70255272D01*
X146405718Y-70822808D01*
X146125494Y-71367693D01*
X145849334Y-71868296D01*
X145812493Y-71929955D01*
X145812493Y-68202299D01*
X145808598Y-67886064D01*
X145790834Y-67700516D01*
X145750089Y-67611476D01*
X145677247Y-67584762D01*
X145647558Y-67583792D01*
X145526831Y-67622671D01*
X145484325Y-67767331D01*
X145482623Y-67831195D01*
X145462189Y-68006430D01*
X145365798Y-68071018D01*
X145235220Y-68078598D01*
X145059985Y-68058163D01*
X144995397Y-67961773D01*
X144987818Y-67831195D01*
X144961898Y-67650104D01*
X144865459Y-67586345D01*
X144822883Y-67583792D01*
X144738553Y-67598401D01*
X144689074Y-67665012D01*
X144665330Y-67817807D01*
X144658206Y-68090964D01*
X144657948Y-68202299D01*
X144661843Y-68518533D01*
X144679606Y-68704081D01*
X144720351Y-68793122D01*
X144793193Y-68819835D01*
X144822883Y-68820805D01*
X144936559Y-68788518D01*
X144982426Y-68662472D01*
X144987818Y-68532169D01*
X145001609Y-68338245D01*
X145071564Y-68258706D01*
X145235220Y-68243533D01*
X145401441Y-68259623D01*
X145469617Y-68341237D01*
X145482623Y-68532169D01*
X145501073Y-68731103D01*
X145573099Y-68811370D01*
X145647558Y-68820805D01*
X145731887Y-68806197D01*
X145781367Y-68739586D01*
X145805111Y-68586791D01*
X145812234Y-68313634D01*
X145812493Y-68202299D01*
X145812493Y-71929955D01*
X145589610Y-72302986D01*
X145358692Y-72650132D01*
X145168952Y-72888103D01*
X145037691Y-72993512D01*
X144916102Y-72980002D01*
X144694445Y-72906892D01*
X144419465Y-72789746D01*
X144410545Y-72785546D01*
X144410545Y-68687490D01*
X144366706Y-68594405D01*
X144212623Y-68592159D01*
X144194776Y-68595422D01*
X143973011Y-68569945D01*
X143779128Y-68441310D01*
X143673755Y-68254790D01*
X143668337Y-68202299D01*
X143740303Y-68007398D01*
X143914393Y-67853991D01*
X144127896Y-67789309D01*
X144205632Y-67797645D01*
X144361982Y-67810616D01*
X144410279Y-67728533D01*
X144410545Y-67716434D01*
X144370247Y-67630720D01*
X144226303Y-67590936D01*
X144039441Y-67583792D01*
X143685195Y-67638653D01*
X143454088Y-67802882D01*
X143346717Y-68075956D01*
X143338467Y-68202299D01*
X143400642Y-68514869D01*
X143586769Y-68718787D01*
X143896252Y-68813526D01*
X144039441Y-68820805D01*
X144278962Y-68806515D01*
X144390243Y-68755291D01*
X144410545Y-68687490D01*
X144410545Y-72785546D01*
X144404315Y-72782614D01*
X143848041Y-72582938D01*
X143317238Y-72533886D01*
X143091065Y-72575843D01*
X143091065Y-68202299D01*
X143087169Y-67886064D01*
X143069406Y-67700516D01*
X143028661Y-67611476D01*
X142955819Y-67584762D01*
X142926129Y-67583792D01*
X142820651Y-67609769D01*
X142772125Y-67716106D01*
X142760414Y-67934279D01*
X142759634Y-68284766D01*
X142549571Y-67934279D01*
X142381995Y-67700431D01*
X142226269Y-67596267D01*
X142138014Y-67583792D01*
X142035505Y-67592063D01*
X141975414Y-67640024D01*
X141946429Y-67762397D01*
X141937238Y-67993906D01*
X141936519Y-68202299D01*
X141940415Y-68518533D01*
X141958178Y-68704081D01*
X141998923Y-68793122D01*
X142071765Y-68819835D01*
X142101454Y-68820805D01*
X142206932Y-68794829D01*
X142255459Y-68688492D01*
X142267169Y-68470318D01*
X142267950Y-68119831D01*
X142478012Y-68470318D01*
X142645588Y-68704167D01*
X142801315Y-68808330D01*
X142889570Y-68820805D01*
X142992078Y-68812535D01*
X143052169Y-68764574D01*
X143081154Y-68642200D01*
X143090345Y-68410692D01*
X143091065Y-68202299D01*
X143091065Y-72575843D01*
X142773590Y-72634738D01*
X142472558Y-72746415D01*
X142196534Y-72861832D01*
X141970037Y-72952797D01*
X141854052Y-72995513D01*
X141737124Y-72951399D01*
X141689116Y-72910033D01*
X141689116Y-68202299D01*
X141624066Y-67889062D01*
X141434853Y-67681622D01*
X141130380Y-67588329D01*
X141029376Y-67583792D01*
X140695257Y-67644777D01*
X140473988Y-67822165D01*
X140374475Y-68107608D01*
X140369636Y-68202299D01*
X140434686Y-68515536D01*
X140623900Y-68722975D01*
X140928373Y-68816269D01*
X141029376Y-68820805D01*
X141363347Y-68762492D01*
X141524181Y-68655870D01*
X141658055Y-68418030D01*
X141689116Y-68202299D01*
X141689116Y-72910033D01*
X141538824Y-72780536D01*
X141270180Y-72492799D01*
X141194311Y-72404924D01*
X140886139Y-72033270D01*
X140623799Y-71689429D01*
X140385659Y-71339116D01*
X140287168Y-71175614D01*
X140287168Y-67996130D01*
X140248515Y-67780020D01*
X140115854Y-67650720D01*
X139864131Y-67591961D01*
X139652168Y-67583792D01*
X139215090Y-67583792D01*
X139215090Y-68202299D01*
X139218986Y-68518533D01*
X139236749Y-68704081D01*
X139277494Y-68793122D01*
X139350336Y-68819835D01*
X139380026Y-68820805D01*
X139509361Y-68772485D01*
X139544961Y-68614637D01*
X139568327Y-68472227D01*
X139671269Y-68416232D01*
X139817103Y-68408468D01*
X140095350Y-68360793D01*
X140247932Y-68211235D01*
X140287168Y-67996130D01*
X140287168Y-71175614D01*
X140150084Y-70948046D01*
X139895442Y-70481935D01*
X139600100Y-69906499D01*
X139531195Y-69769182D01*
X139328554Y-69366996D01*
X139148532Y-69014910D01*
X139005373Y-68740385D01*
X138913322Y-68570880D01*
X138889488Y-68532169D01*
X138776287Y-68264262D01*
X138785598Y-67957701D01*
X138863920Y-67763928D01*
X139044246Y-67531761D01*
X139285229Y-67298825D01*
X139526117Y-67120418D01*
X139627428Y-67068986D01*
X139740414Y-66997742D01*
X139945280Y-66844489D01*
X140208796Y-66634692D01*
X140394847Y-66480858D01*
X140777606Y-66174273D01*
X141162040Y-65891849D01*
X141520115Y-65651844D01*
X141823798Y-65472518D01*
X142045055Y-65372129D01*
X142120077Y-65357169D01*
X142263245Y-65414013D01*
X142387204Y-65518915D01*
X142457177Y-65607911D01*
X142487535Y-65704628D01*
X142476852Y-65849694D01*
X142423698Y-66083739D01*
X142358752Y-66328589D01*
X142253923Y-66711459D01*
X142192300Y-66983087D01*
X142193106Y-67162449D01*
X142275564Y-67268520D01*
X142458895Y-67320274D01*
X142762322Y-67336686D01*
X143205068Y-67336733D01*
X143379701Y-67336390D01*
X143872616Y-67332848D01*
X144219601Y-67321121D01*
X144439529Y-67299554D01*
X144551275Y-67266495D01*
X144575480Y-67231648D01*
X144554521Y-67105660D01*
X144499133Y-66868674D01*
X144420548Y-66568181D01*
X144406407Y-66516787D01*
X144299088Y-66070153D01*
X144264894Y-65756369D01*
X144304676Y-65560028D01*
X144419285Y-65465721D01*
X144464992Y-65455488D01*
X144676553Y-65486090D01*
X144995874Y-65614811D01*
X145405801Y-65832071D01*
X145889175Y-66128287D01*
X146428841Y-66493878D01*
X146781487Y-66749187D01*
X147185546Y-67053697D01*
X147470754Y-67282510D01*
X147654878Y-67452333D01*
X147755689Y-67579872D01*
X147790955Y-67681833D01*
X147791714Y-67698979D01*
X147791714Y-67698979D01*
X147791714Y-67698979D01*
G37*
X147791714Y-67698979D02*
X147754746Y-67905891D01*
X147661012Y-68190800D01*
X147536272Y-68488897D01*
X147406281Y-68735374D01*
X147379376Y-68773413D01*
X147379376Y-68202299D01*
X147314326Y-67889062D01*
X147125112Y-67681622D01*
X146820639Y-67588329D01*
X146719636Y-67583792D01*
X146385516Y-67644777D01*
X146164248Y-67822165D01*
X146064734Y-68107608D01*
X146059896Y-68202299D01*
X146124946Y-68515536D01*
X146314159Y-68722975D01*
X146618633Y-68816269D01*
X146719636Y-68820805D01*
X147053606Y-68762492D01*
X147214441Y-68655870D01*
X147348315Y-68418030D01*
X147379376Y-68202299D01*
X147379376Y-68773413D01*
X147345856Y-68820805D01*
X147269749Y-68947925D01*
X147151220Y-69187365D01*
X147009792Y-69498585D01*
X146928876Y-69686714D01*
X146677635Y-70255272D01*
X146405718Y-70822808D01*
X146125494Y-71367693D01*
X145849334Y-71868296D01*
X145812493Y-71929955D01*
X145812493Y-68202299D01*
X145808598Y-67886064D01*
X145790834Y-67700516D01*
X145750089Y-67611476D01*
X145677247Y-67584762D01*
X145647558Y-67583792D01*
X145526831Y-67622671D01*
X145484325Y-67767331D01*
X145482623Y-67831195D01*
X145462189Y-68006430D01*
X145365798Y-68071018D01*
X145235220Y-68078598D01*
X145059985Y-68058163D01*
X144995397Y-67961773D01*
X144987818Y-67831195D01*
X144961898Y-67650104D01*
X144865459Y-67586345D01*
X144822883Y-67583792D01*
X144738553Y-67598401D01*
X144689074Y-67665012D01*
X144665330Y-67817807D01*
X144658206Y-68090964D01*
X144657948Y-68202299D01*
X144661843Y-68518533D01*
X144679606Y-68704081D01*
X144720351Y-68793122D01*
X144793193Y-68819835D01*
X144822883Y-68820805D01*
X144936559Y-68788518D01*
X144982426Y-68662472D01*
X144987818Y-68532169D01*
X145001609Y-68338245D01*
X145071564Y-68258706D01*
X145235220Y-68243533D01*
X145401441Y-68259623D01*
X145469617Y-68341237D01*
X145482623Y-68532169D01*
X145501073Y-68731103D01*
X145573099Y-68811370D01*
X145647558Y-68820805D01*
X145731887Y-68806197D01*
X145781367Y-68739586D01*
X145805111Y-68586791D01*
X145812234Y-68313634D01*
X145812493Y-68202299D01*
X145812493Y-71929955D01*
X145589610Y-72302986D01*
X145358692Y-72650132D01*
X145168952Y-72888103D01*
X145037691Y-72993512D01*
X144916102Y-72980002D01*
X144694445Y-72906892D01*
X144419465Y-72789746D01*
X144410545Y-72785546D01*
X144410545Y-68687490D01*
X144366706Y-68594405D01*
X144212623Y-68592159D01*
X144194776Y-68595422D01*
X143973011Y-68569945D01*
X143779128Y-68441310D01*
X143673755Y-68254790D01*
X143668337Y-68202299D01*
X143740303Y-68007398D01*
X143914393Y-67853991D01*
X144127896Y-67789309D01*
X144205632Y-67797645D01*
X144361982Y-67810616D01*
X144410279Y-67728533D01*
X144410545Y-67716434D01*
X144370247Y-67630720D01*
X144226303Y-67590936D01*
X144039441Y-67583792D01*
X143685195Y-67638653D01*
X143454088Y-67802882D01*
X143346717Y-68075956D01*
X143338467Y-68202299D01*
X143400642Y-68514869D01*
X143586769Y-68718787D01*
X143896252Y-68813526D01*
X144039441Y-68820805D01*
X144278962Y-68806515D01*
X144390243Y-68755291D01*
X144410545Y-68687490D01*
X144410545Y-72785546D01*
X144404315Y-72782614D01*
X143848041Y-72582938D01*
X143317238Y-72533886D01*
X143091065Y-72575843D01*
X143091065Y-68202299D01*
X143087169Y-67886064D01*
X143069406Y-67700516D01*
X143028661Y-67611476D01*
X142955819Y-67584762D01*
X142926129Y-67583792D01*
X142820651Y-67609769D01*
X142772125Y-67716106D01*
X142760414Y-67934279D01*
X142759634Y-68284766D01*
X142549571Y-67934279D01*
X142381995Y-67700431D01*
X142226269Y-67596267D01*
X142138014Y-67583792D01*
X142035505Y-67592063D01*
X141975414Y-67640024D01*
X141946429Y-67762397D01*
X141937238Y-67993906D01*
X141936519Y-68202299D01*
X141940415Y-68518533D01*
X141958178Y-68704081D01*
X141998923Y-68793122D01*
X142071765Y-68819835D01*
X142101454Y-68820805D01*
X142206932Y-68794829D01*
X142255459Y-68688492D01*
X142267169Y-68470318D01*
X142267950Y-68119831D01*
X142478012Y-68470318D01*
X142645588Y-68704167D01*
X142801315Y-68808330D01*
X142889570Y-68820805D01*
X142992078Y-68812535D01*
X143052169Y-68764574D01*
X143081154Y-68642200D01*
X143090345Y-68410692D01*
X143091065Y-68202299D01*
X143091065Y-72575843D01*
X142773590Y-72634738D01*
X142472558Y-72746415D01*
X142196534Y-72861832D01*
X141970037Y-72952797D01*
X141854052Y-72995513D01*
X141737124Y-72951399D01*
X141689116Y-72910033D01*
X141689116Y-68202299D01*
X141624066Y-67889062D01*
X141434853Y-67681622D01*
X141130380Y-67588329D01*
X141029376Y-67583792D01*
X140695257Y-67644777D01*
X140473988Y-67822165D01*
X140374475Y-68107608D01*
X140369636Y-68202299D01*
X140434686Y-68515536D01*
X140623900Y-68722975D01*
X140928373Y-68816269D01*
X141029376Y-68820805D01*
X141363347Y-68762492D01*
X141524181Y-68655870D01*
X141658055Y-68418030D01*
X141689116Y-68202299D01*
X141689116Y-72910033D01*
X141538824Y-72780536D01*
X141270180Y-72492799D01*
X141194311Y-72404924D01*
X140886139Y-72033270D01*
X140623799Y-71689429D01*
X140385659Y-71339116D01*
X140287168Y-71175614D01*
X140287168Y-67996130D01*
X140248515Y-67780020D01*
X140115854Y-67650720D01*
X139864131Y-67591961D01*
X139652168Y-67583792D01*
X139215090Y-67583792D01*
X139215090Y-68202299D01*
X139218986Y-68518533D01*
X139236749Y-68704081D01*
X139277494Y-68793122D01*
X139350336Y-68819835D01*
X139380026Y-68820805D01*
X139509361Y-68772485D01*
X139544961Y-68614637D01*
X139568327Y-68472227D01*
X139671269Y-68416232D01*
X139817103Y-68408468D01*
X140095350Y-68360793D01*
X140247932Y-68211235D01*
X140287168Y-67996130D01*
X140287168Y-71175614D01*
X140150084Y-70948046D01*
X139895442Y-70481935D01*
X139600100Y-69906499D01*
X139531195Y-69769182D01*
X139328554Y-69366996D01*
X139148532Y-69014910D01*
X139005373Y-68740385D01*
X138913322Y-68570880D01*
X138889488Y-68532169D01*
X138776287Y-68264262D01*
X138785598Y-67957701D01*
X138863920Y-67763928D01*
X139044246Y-67531761D01*
X139285229Y-67298825D01*
X139526117Y-67120418D01*
X139627428Y-67068986D01*
X139740414Y-66997742D01*
X139945280Y-66844489D01*
X140208796Y-66634692D01*
X140394847Y-66480858D01*
X140777606Y-66174273D01*
X141162040Y-65891849D01*
X141520115Y-65651844D01*
X141823798Y-65472518D01*
X142045055Y-65372129D01*
X142120077Y-65357169D01*
X142263245Y-65414013D01*
X142387204Y-65518915D01*
X142457177Y-65607911D01*
X142487535Y-65704628D01*
X142476852Y-65849694D01*
X142423698Y-66083739D01*
X142358752Y-66328589D01*
X142253923Y-66711459D01*
X142192300Y-66983087D01*
X142193106Y-67162449D01*
X142275564Y-67268520D01*
X142458895Y-67320274D01*
X142762322Y-67336686D01*
X143205068Y-67336733D01*
X143379701Y-67336390D01*
X143872616Y-67332848D01*
X144219601Y-67321121D01*
X144439529Y-67299554D01*
X144551275Y-67266495D01*
X144575480Y-67231648D01*
X144554521Y-67105660D01*
X144499133Y-66868674D01*
X144420548Y-66568181D01*
X144406407Y-66516787D01*
X144299088Y-66070153D01*
X144264894Y-65756369D01*
X144304676Y-65560028D01*
X144419285Y-65465721D01*
X144464992Y-65455488D01*
X144676553Y-65486090D01*
X144995874Y-65614811D01*
X145405801Y-65832071D01*
X145889175Y-66128287D01*
X146428841Y-66493878D01*
X146781487Y-66749187D01*
X147185546Y-67053697D01*
X147470754Y-67282510D01*
X147654878Y-67452333D01*
X147755689Y-67579872D01*
X147790955Y-67681833D01*
X147791714Y-67698979D01*
X147791714Y-67698979D01*
G36*
X144279542Y-64589681D02*
X144151402Y-64936555D01*
X143935417Y-65213770D01*
X143819302Y-65343644D01*
X143764034Y-65456302D01*
X143762066Y-65605019D01*
X143805854Y-65843070D01*
X143830294Y-65955978D01*
X143914312Y-66352812D01*
X143952110Y-66616578D01*
X143931383Y-66775618D01*
X143839822Y-66858277D01*
X143665122Y-66892896D01*
X143417440Y-66906813D01*
X143132450Y-66910805D01*
X142916118Y-66897737D01*
X142819550Y-66872451D01*
X142765692Y-66707732D01*
X142789559Y-66402316D01*
X142890776Y-65960778D01*
X142895985Y-65941942D01*
X143030775Y-65457128D01*
X142767192Y-65221596D01*
X142541647Y-64923415D01*
X142447576Y-64579176D01*
X142480480Y-64229477D01*
X142635862Y-63914915D01*
X142909223Y-63676085D01*
X142940290Y-63659262D01*
X143289719Y-63562095D01*
X143636075Y-63610270D01*
X143943140Y-63787559D01*
X144174691Y-64077735D01*
X144245692Y-64244105D01*
X144279542Y-64589681D01*
X144279542Y-64589681D01*
X144279542Y-64589681D01*
G37*
X144279542Y-64589681D02*
X144151402Y-64936555D01*
X143935417Y-65213770D01*
X143819302Y-65343644D01*
X143764034Y-65456302D01*
X143762066Y-65605019D01*
X143805854Y-65843070D01*
X143830294Y-65955978D01*
X143914312Y-66352812D01*
X143952110Y-66616578D01*
X143931383Y-66775618D01*
X143839822Y-66858277D01*
X143665122Y-66892896D01*
X143417440Y-66906813D01*
X143132450Y-66910805D01*
X142916118Y-66897737D01*
X142819550Y-66872451D01*
X142765692Y-66707732D01*
X142789559Y-66402316D01*
X142890776Y-65960778D01*
X142895985Y-65941942D01*
X143030775Y-65457128D01*
X142767192Y-65221596D01*
X142541647Y-64923415D01*
X142447576Y-64579176D01*
X142480480Y-64229477D01*
X142635862Y-63914915D01*
X142909223Y-63676085D01*
X142940290Y-63659262D01*
X143289719Y-63562095D01*
X143636075Y-63610270D01*
X143943140Y-63787559D01*
X144174691Y-64077735D01*
X144245692Y-64244105D01*
X144279542Y-64589681D01*
X144279542Y-64589681D01*
G36*
X139935921Y-68004422D02*
X139874831Y-68119831D01*
X139718394Y-68238559D01*
X139599056Y-68203350D01*
X139545586Y-68024993D01*
X139544961Y-67996130D01*
X139589119Y-67802179D01*
X139702417Y-67750150D01*
X139856085Y-67850830D01*
X139874831Y-67872429D01*
X139935921Y-68004422D01*
X139935921Y-68004422D01*
X139935921Y-68004422D01*
G37*
X139935921Y-68004422D02*
X139874831Y-68119831D01*
X139718394Y-68238559D01*
X139599056Y-68203350D01*
X139545586Y-68024993D01*
X139544961Y-67996130D01*
X139589119Y-67802179D01*
X139702417Y-67750150D01*
X139856085Y-67850830D01*
X139874831Y-67872429D01*
X139935921Y-68004422D01*
X139935921Y-68004422D01*
G36*
X141344176Y-68179300D02*
X141320806Y-68319268D01*
X141249355Y-68440199D01*
X141127495Y-68591484D01*
X141030528Y-68655848D01*
X141029376Y-68655870D01*
X140933357Y-68593542D01*
X140811448Y-68443317D01*
X140809397Y-68440199D01*
X140718594Y-68269160D01*
X140729440Y-68128983D01*
X140790042Y-68007244D01*
X140912518Y-67852105D01*
X141029376Y-67789961D01*
X141149963Y-67855490D01*
X141268711Y-68007244D01*
X141344176Y-68179300D01*
X141344176Y-68179300D01*
X141344176Y-68179300D01*
G37*
X141344176Y-68179300D02*
X141320806Y-68319268D01*
X141249355Y-68440199D01*
X141127495Y-68591484D01*
X141030528Y-68655848D01*
X141029376Y-68655870D01*
X140933357Y-68593542D01*
X140811448Y-68443317D01*
X140809397Y-68440199D01*
X140718594Y-68269160D01*
X140729440Y-68128983D01*
X140790042Y-68007244D01*
X140912518Y-67852105D01*
X141029376Y-67789961D01*
X141149963Y-67855490D01*
X141268711Y-68007244D01*
X141344176Y-68179300D01*
X141344176Y-68179300D01*
G36*
X147034435Y-68179300D02*
X147011065Y-68319268D01*
X146939615Y-68440199D01*
X146817755Y-68591484D01*
X146720788Y-68655848D01*
X146719636Y-68655870D01*
X146623616Y-68593542D01*
X146501708Y-68443317D01*
X146499657Y-68440199D01*
X146408854Y-68269160D01*
X146419699Y-68128983D01*
X146480301Y-68007244D01*
X146602778Y-67852105D01*
X146719636Y-67789961D01*
X146840223Y-67855490D01*
X146958971Y-68007244D01*
X147034435Y-68179300D01*
X147034435Y-68179300D01*
X147034435Y-68179300D01*
G37*
X147034435Y-68179300D02*
X147011065Y-68319268D01*
X146939615Y-68440199D01*
X146817755Y-68591484D01*
X146720788Y-68655848D01*
X146719636Y-68655870D01*
X146623616Y-68593542D01*
X146501708Y-68443317D01*
X146499657Y-68440199D01*
X146408854Y-68269160D01*
X146419699Y-68128983D01*
X146480301Y-68007244D01*
X146602778Y-67852105D01*
X146719636Y-67789961D01*
X146840223Y-67855490D01*
X146958971Y-68007244D01*
X147034435Y-68179300D01*
X147034435Y-68179300D01*
D14*
X163195000Y-84201000D02*
X163195000Y-79121000D01*
X163195000Y-79121000D02*
X165735000Y-79121000D01*
X165735000Y-79121000D02*
X165735000Y-84201000D01*
X165735000Y-84201000D02*
X163195000Y-84201000D01*
X127785905Y-59380381D02*
X127785905Y-58380381D01*
X128166858Y-58380381D01*
X128262096Y-58428000D01*
X128309715Y-58475619D01*
X128357334Y-58570857D01*
X128357334Y-58713714D01*
X128309715Y-58808952D01*
X128262096Y-58856571D01*
X128166858Y-58904190D01*
X127785905Y-58904190D01*
X129309715Y-59380381D02*
X128738286Y-59380381D01*
X129024000Y-59380381D02*
X129024000Y-58380381D01*
X128928762Y-58523238D01*
X128833524Y-58618476D01*
X128738286Y-58666095D01*
X153242066Y-71577810D02*
X153242066Y-72387334D01*
X153289685Y-72482572D01*
X153337304Y-72530191D01*
X153432542Y-72577810D01*
X153623019Y-72577810D01*
X153718257Y-72530191D01*
X153765876Y-72482572D01*
X153813495Y-72387334D01*
X153813495Y-71577810D01*
X154813495Y-72577810D02*
X154242066Y-72577810D01*
X154527780Y-72577810D02*
X154527780Y-71577810D01*
X154432542Y-71720667D01*
X154337304Y-71815905D01*
X154242066Y-71863524D01*
X146122399Y-64195858D02*
X146884304Y-64195858D01*
X146503352Y-64576810D02*
X146503352Y-63814905D01*
X133754905Y-69032381D02*
X133754905Y-68032381D01*
X133993000Y-68032381D01*
X134135858Y-68080000D01*
X134231096Y-68175238D01*
X134278715Y-68270476D01*
X134326334Y-68460952D01*
X134326334Y-68603810D01*
X134278715Y-68794286D01*
X134231096Y-68889524D01*
X134135858Y-68984762D01*
X133993000Y-69032381D01*
X133754905Y-69032381D01*
X135278715Y-69032381D02*
X134707286Y-69032381D01*
X134993000Y-69032381D02*
X134993000Y-68032381D01*
X134897762Y-68175238D01*
X134802524Y-68270476D01*
X134707286Y-68318095D01*
X137660095Y-71191381D02*
X137660095Y-70191381D01*
X138231524Y-71191381D02*
X137802952Y-70619952D01*
X138231524Y-70191381D02*
X137660095Y-70762810D01*
X174521905Y-68905381D02*
X174521905Y-67905381D01*
X174760000Y-67905381D01*
X174902858Y-67953000D01*
X174998096Y-68048238D01*
X175045715Y-68143476D01*
X175093334Y-68333952D01*
X175093334Y-68476810D01*
X175045715Y-68667286D01*
X174998096Y-68762524D01*
X174902858Y-68857762D01*
X174760000Y-68905381D01*
X174521905Y-68905381D01*
X175474286Y-68000619D02*
X175521905Y-67953000D01*
X175617143Y-67905381D01*
X175855239Y-67905381D01*
X175950477Y-67953000D01*
X175998096Y-68000619D01*
X176045715Y-68095857D01*
X176045715Y-68191095D01*
X175998096Y-68333952D01*
X175426667Y-68905381D01*
X176045715Y-68905381D01*
X170934095Y-71318381D02*
X170934095Y-70318381D01*
X171505524Y-71318381D02*
X171076952Y-70746952D01*
X171505524Y-70318381D02*
X170934095Y-70889810D01*
X133754905Y-92527381D02*
X133754905Y-91527381D01*
X133993000Y-91527381D01*
X134135858Y-91575000D01*
X134231096Y-91670238D01*
X134278715Y-91765476D01*
X134326334Y-91955952D01*
X134326334Y-92098810D01*
X134278715Y-92289286D01*
X134231096Y-92384524D01*
X134135858Y-92479762D01*
X133993000Y-92527381D01*
X133754905Y-92527381D01*
X134659667Y-91527381D02*
X135278715Y-91527381D01*
X134945381Y-91908333D01*
X135088239Y-91908333D01*
X135183477Y-91955952D01*
X135231096Y-92003571D01*
X135278715Y-92098810D01*
X135278715Y-92336905D01*
X135231096Y-92432143D01*
X135183477Y-92479762D01*
X135088239Y-92527381D01*
X134802524Y-92527381D01*
X134707286Y-92479762D01*
X134659667Y-92432143D01*
X137660095Y-94686381D02*
X137660095Y-93686381D01*
X138231524Y-94686381D02*
X137802952Y-94114952D01*
X138231524Y-93686381D02*
X137660095Y-94257810D01*
X174648905Y-92400381D02*
X174648905Y-91400381D01*
X174887000Y-91400381D01*
X175029858Y-91448000D01*
X175125096Y-91543238D01*
X175172715Y-91638476D01*
X175220334Y-91828952D01*
X175220334Y-91971810D01*
X175172715Y-92162286D01*
X175125096Y-92257524D01*
X175029858Y-92352762D01*
X174887000Y-92400381D01*
X174648905Y-92400381D01*
X176077477Y-91733714D02*
X176077477Y-92400381D01*
X175839381Y-91352762D02*
X175601286Y-92067048D01*
X176220334Y-92067048D01*
X171696095Y-98369381D02*
X171696095Y-97369381D01*
X172267524Y-98369381D02*
X171838952Y-97797952D01*
X172267524Y-97369381D02*
X171696095Y-97940810D01*
X169520619Y-65881238D02*
X169473000Y-65976476D01*
X169377762Y-66071714D01*
X169234905Y-66214571D01*
X169187286Y-66309810D01*
X169187286Y-66405048D01*
X169425381Y-66357429D02*
X169377762Y-66452667D01*
X169282524Y-66547905D01*
X169092048Y-66595524D01*
X168758714Y-66595524D01*
X168568238Y-66547905D01*
X168473000Y-66452667D01*
X168425381Y-66357429D01*
X168425381Y-66166952D01*
X168473000Y-66071714D01*
X168568238Y-65976476D01*
X168758714Y-65928857D01*
X169092048Y-65928857D01*
X169282524Y-65976476D01*
X169377762Y-66071714D01*
X169425381Y-66166952D01*
X169425381Y-66357429D01*
X169425381Y-64976476D02*
X169425381Y-65547905D01*
X169425381Y-65262191D02*
X168425381Y-65262191D01*
X168568238Y-65357429D01*
X168663476Y-65452667D01*
X168711095Y-65547905D01*
X128047762Y-69508619D02*
X127952524Y-69461000D01*
X127857286Y-69365762D01*
X127714429Y-69222905D01*
X127619190Y-69175286D01*
X127523952Y-69175286D01*
X127571571Y-69413381D02*
X127476333Y-69365762D01*
X127381095Y-69270524D01*
X127333476Y-69080048D01*
X127333476Y-68746714D01*
X127381095Y-68556238D01*
X127476333Y-68461000D01*
X127571571Y-68413381D01*
X127762048Y-68413381D01*
X127857286Y-68461000D01*
X127952524Y-68556238D01*
X128000143Y-68746714D01*
X128000143Y-69080048D01*
X127952524Y-69270524D01*
X127857286Y-69365762D01*
X127762048Y-69413381D01*
X127571571Y-69413381D01*
X128381095Y-68508619D02*
X128428714Y-68461000D01*
X128523952Y-68413381D01*
X128762048Y-68413381D01*
X128857286Y-68461000D01*
X128904905Y-68508619D01*
X128952524Y-68603857D01*
X128952524Y-68699095D01*
X128904905Y-68841952D01*
X128333476Y-69413381D01*
X128952524Y-69413381D01*
X181641762Y-70016619D02*
X181546524Y-69969000D01*
X181451286Y-69873762D01*
X181308429Y-69730905D01*
X181213190Y-69683286D01*
X181117952Y-69683286D01*
X181165571Y-69921381D02*
X181070333Y-69873762D01*
X180975095Y-69778524D01*
X180927476Y-69588048D01*
X180927476Y-69254714D01*
X180975095Y-69064238D01*
X181070333Y-68969000D01*
X181165571Y-68921381D01*
X181356048Y-68921381D01*
X181451286Y-68969000D01*
X181546524Y-69064238D01*
X181594143Y-69254714D01*
X181594143Y-69588048D01*
X181546524Y-69778524D01*
X181451286Y-69873762D01*
X181356048Y-69921381D01*
X181165571Y-69921381D01*
X181927476Y-68921381D02*
X182546524Y-68921381D01*
X182213190Y-69302333D01*
X182356048Y-69302333D01*
X182451286Y-69349952D01*
X182498905Y-69397571D01*
X182546524Y-69492810D01*
X182546524Y-69730905D01*
X182498905Y-69826143D01*
X182451286Y-69873762D01*
X182356048Y-69921381D01*
X182070333Y-69921381D01*
X181975095Y-69873762D01*
X181927476Y-69826143D01*
X128174762Y-93003619D02*
X128079524Y-92956000D01*
X127984286Y-92860762D01*
X127841429Y-92717905D01*
X127746190Y-92670286D01*
X127650952Y-92670286D01*
X127698571Y-92908381D02*
X127603333Y-92860762D01*
X127508095Y-92765524D01*
X127460476Y-92575048D01*
X127460476Y-92241714D01*
X127508095Y-92051238D01*
X127603333Y-91956000D01*
X127698571Y-91908381D01*
X127889048Y-91908381D01*
X127984286Y-91956000D01*
X128079524Y-92051238D01*
X128127143Y-92241714D01*
X128127143Y-92575048D01*
X128079524Y-92765524D01*
X127984286Y-92860762D01*
X127889048Y-92908381D01*
X127698571Y-92908381D01*
X128984286Y-92241714D02*
X128984286Y-92908381D01*
X128746190Y-91860762D02*
X128508095Y-92575048D01*
X129127143Y-92575048D01*
X181641762Y-94019619D02*
X181546524Y-93972000D01*
X181451286Y-93876762D01*
X181308429Y-93733905D01*
X181213190Y-93686286D01*
X181117952Y-93686286D01*
X181165571Y-93924381D02*
X181070333Y-93876762D01*
X180975095Y-93781524D01*
X180927476Y-93591048D01*
X180927476Y-93257714D01*
X180975095Y-93067238D01*
X181070333Y-92972000D01*
X181165571Y-92924381D01*
X181356048Y-92924381D01*
X181451286Y-92972000D01*
X181546524Y-93067238D01*
X181594143Y-93257714D01*
X181594143Y-93591048D01*
X181546524Y-93781524D01*
X181451286Y-93876762D01*
X181356048Y-93924381D01*
X181165571Y-93924381D01*
X182498905Y-92924381D02*
X182022714Y-92924381D01*
X181975095Y-93400571D01*
X182022714Y-93352952D01*
X182117952Y-93305333D01*
X182356048Y-93305333D01*
X182451286Y-93352952D01*
X182498905Y-93400571D01*
X182546524Y-93495810D01*
X182546524Y-93733905D01*
X182498905Y-93829143D01*
X182451286Y-93876762D01*
X182356048Y-93924381D01*
X182117952Y-93924381D01*
X182022714Y-93876762D01*
X181975095Y-93829143D01*
X134961334Y-88082381D02*
X134628000Y-87606190D01*
X134389905Y-88082381D02*
X134389905Y-87082381D01*
X134770858Y-87082381D01*
X134866096Y-87130000D01*
X134913715Y-87177619D01*
X134961334Y-87272857D01*
X134961334Y-87415714D01*
X134913715Y-87510952D01*
X134866096Y-87558571D01*
X134770858Y-87606190D01*
X134389905Y-87606190D01*
X135913715Y-88082381D02*
X135342286Y-88082381D01*
X135628000Y-88082381D02*
X135628000Y-87082381D01*
X135532762Y-87225238D01*
X135437524Y-87320476D01*
X135342286Y-87368095D01*
X145375334Y-88082381D02*
X145042000Y-87606190D01*
X144803905Y-88082381D02*
X144803905Y-87082381D01*
X145184858Y-87082381D01*
X145280096Y-87130000D01*
X145327715Y-87177619D01*
X145375334Y-87272857D01*
X145375334Y-87415714D01*
X145327715Y-87510952D01*
X145280096Y-87558571D01*
X145184858Y-87606190D01*
X144803905Y-87606190D01*
X145756286Y-87177619D02*
X145803905Y-87130000D01*
X145899143Y-87082381D01*
X146137239Y-87082381D01*
X146232477Y-87130000D01*
X146280096Y-87177619D01*
X146327715Y-87272857D01*
X146327715Y-87368095D01*
X146280096Y-87510952D01*
X145708667Y-88082381D01*
X146327715Y-88082381D01*
X175347334Y-88082381D02*
X175014000Y-87606190D01*
X174775905Y-88082381D02*
X174775905Y-87082381D01*
X175156858Y-87082381D01*
X175252096Y-87130000D01*
X175299715Y-87177619D01*
X175347334Y-87272857D01*
X175347334Y-87415714D01*
X175299715Y-87510952D01*
X175252096Y-87558571D01*
X175156858Y-87606190D01*
X174775905Y-87606190D01*
X175680667Y-87082381D02*
X176299715Y-87082381D01*
X175966381Y-87463333D01*
X176109239Y-87463333D01*
X176204477Y-87510952D01*
X176252096Y-87558571D01*
X176299715Y-87653810D01*
X176299715Y-87891905D01*
X176252096Y-87987143D01*
X176204477Y-88034762D01*
X176109239Y-88082381D01*
X175823524Y-88082381D01*
X175728286Y-88034762D01*
X175680667Y-87987143D01*
X145375334Y-99512381D02*
X145042000Y-99036190D01*
X144803905Y-99512381D02*
X144803905Y-98512381D01*
X145184858Y-98512381D01*
X145280096Y-98560000D01*
X145327715Y-98607619D01*
X145375334Y-98702857D01*
X145375334Y-98845714D01*
X145327715Y-98940952D01*
X145280096Y-98988571D01*
X145184858Y-99036190D01*
X144803905Y-99036190D01*
X146280096Y-98512381D02*
X145803905Y-98512381D01*
X145756286Y-98988571D01*
X145803905Y-98940952D01*
X145899143Y-98893333D01*
X146137239Y-98893333D01*
X146232477Y-98940952D01*
X146280096Y-98988571D01*
X146327715Y-99083810D01*
X146327715Y-99321905D01*
X146280096Y-99417143D01*
X146232477Y-99464762D01*
X146137239Y-99512381D01*
X145899143Y-99512381D01*
X145803905Y-99464762D01*
X145756286Y-99417143D01*
X132532381Y-104560666D02*
X132056190Y-104894000D01*
X132532381Y-105132095D02*
X131532381Y-105132095D01*
X131532381Y-104751142D01*
X131580000Y-104655904D01*
X131627619Y-104608285D01*
X131722857Y-104560666D01*
X131865714Y-104560666D01*
X131960952Y-104608285D01*
X132008571Y-104655904D01*
X132056190Y-104751142D01*
X132056190Y-105132095D01*
X131532381Y-103703523D02*
X131532381Y-103894000D01*
X131580000Y-103989238D01*
X131627619Y-104036857D01*
X131770476Y-104132095D01*
X131960952Y-104179714D01*
X132341905Y-104179714D01*
X132437143Y-104132095D01*
X132484762Y-104084476D01*
X132532381Y-103989238D01*
X132532381Y-103798761D01*
X132484762Y-103703523D01*
X132437143Y-103655904D01*
X132341905Y-103608285D01*
X132103810Y-103608285D01*
X132008571Y-103655904D01*
X131960952Y-103703523D01*
X131913333Y-103798761D01*
X131913333Y-103989238D01*
X131960952Y-104084476D01*
X132008571Y-104132095D01*
X132103810Y-104179714D01*
X178252381Y-104560666D02*
X177776190Y-104894000D01*
X178252381Y-105132095D02*
X177252381Y-105132095D01*
X177252381Y-104751142D01*
X177300000Y-104655904D01*
X177347619Y-104608285D01*
X177442857Y-104560666D01*
X177585714Y-104560666D01*
X177680952Y-104608285D01*
X177728571Y-104655904D01*
X177776190Y-104751142D01*
X177776190Y-105132095D01*
X177252381Y-104227333D02*
X177252381Y-103560666D01*
X178252381Y-103989238D01*
X164171334Y-99512381D02*
X163838000Y-99036190D01*
X163599905Y-99512381D02*
X163599905Y-98512381D01*
X163980858Y-98512381D01*
X164076096Y-98560000D01*
X164123715Y-98607619D01*
X164171334Y-98702857D01*
X164171334Y-98845714D01*
X164123715Y-98940952D01*
X164076096Y-98988571D01*
X163980858Y-99036190D01*
X163599905Y-99036190D01*
X164742762Y-98940952D02*
X164647524Y-98893333D01*
X164599905Y-98845714D01*
X164552286Y-98750476D01*
X164552286Y-98702857D01*
X164599905Y-98607619D01*
X164647524Y-98560000D01*
X164742762Y-98512381D01*
X164933239Y-98512381D01*
X165028477Y-98560000D01*
X165076096Y-98607619D01*
X165123715Y-98702857D01*
X165123715Y-98750476D01*
X165076096Y-98845714D01*
X165028477Y-98893333D01*
X164933239Y-98940952D01*
X164742762Y-98940952D01*
X164647524Y-98988571D01*
X164599905Y-99036190D01*
X164552286Y-99131429D01*
X164552286Y-99321905D01*
X164599905Y-99417143D01*
X164647524Y-99464762D01*
X164742762Y-99512381D01*
X164933239Y-99512381D01*
X165028477Y-99464762D01*
X165076096Y-99417143D01*
X165123715Y-99321905D01*
X165123715Y-99131429D01*
X165076096Y-99036190D01*
X165028477Y-98988571D01*
X164933239Y-98940952D01*
X171537334Y-63063381D02*
X171204000Y-62587190D01*
X170965905Y-63063381D02*
X170965905Y-62063381D01*
X171346858Y-62063381D01*
X171442096Y-62111000D01*
X171489715Y-62158619D01*
X171537334Y-62253857D01*
X171537334Y-62396714D01*
X171489715Y-62491952D01*
X171442096Y-62539571D01*
X171346858Y-62587190D01*
X170965905Y-62587190D01*
X172013524Y-63063381D02*
X172204000Y-63063381D01*
X172299239Y-63015762D01*
X172346858Y-62968143D01*
X172442096Y-62825286D01*
X172489715Y-62634810D01*
X172489715Y-62253857D01*
X172442096Y-62158619D01*
X172394477Y-62111000D01*
X172299239Y-62063381D01*
X172108762Y-62063381D01*
X172013524Y-62111000D01*
X171965905Y-62158619D01*
X171918286Y-62253857D01*
X171918286Y-62491952D01*
X171965905Y-62587190D01*
X172013524Y-62634810D01*
X172108762Y-62682429D01*
X172299239Y-62682429D01*
X172394477Y-62634810D01*
X172442096Y-62587190D01*
X172489715Y-62491952D01*
X171442143Y-60015381D02*
X171108809Y-59539190D01*
X170870714Y-60015381D02*
X170870714Y-59015381D01*
X171251667Y-59015381D01*
X171346905Y-59063000D01*
X171394524Y-59110619D01*
X171442143Y-59205857D01*
X171442143Y-59348714D01*
X171394524Y-59443952D01*
X171346905Y-59491571D01*
X171251667Y-59539190D01*
X170870714Y-59539190D01*
X172394524Y-60015381D02*
X171823095Y-60015381D01*
X172108809Y-60015381D02*
X172108809Y-59015381D01*
X172013571Y-59158238D01*
X171918333Y-59253476D01*
X171823095Y-59301095D01*
X173013571Y-59015381D02*
X173108810Y-59015381D01*
X173204048Y-59063000D01*
X173251667Y-59110619D01*
X173299286Y-59205857D01*
X173346905Y-59396333D01*
X173346905Y-59634429D01*
X173299286Y-59824905D01*
X173251667Y-59920143D01*
X173204048Y-59967762D01*
X173108810Y-60015381D01*
X173013571Y-60015381D01*
X172918333Y-59967762D01*
X172870714Y-59920143D01*
X172823095Y-59824905D01*
X172775476Y-59634429D01*
X172775476Y-59396333D01*
X172823095Y-59205857D01*
X172870714Y-59110619D01*
X172918333Y-59063000D01*
X173013571Y-59015381D01*
X129151143Y-75890381D02*
X128817809Y-75414190D01*
X128579714Y-75890381D02*
X128579714Y-74890381D01*
X128960667Y-74890381D01*
X129055905Y-74938000D01*
X129103524Y-74985619D01*
X129151143Y-75080857D01*
X129151143Y-75223714D01*
X129103524Y-75318952D01*
X129055905Y-75366571D01*
X128960667Y-75414190D01*
X128579714Y-75414190D01*
X130103524Y-75890381D02*
X129532095Y-75890381D01*
X129817809Y-75890381D02*
X129817809Y-74890381D01*
X129722571Y-75033238D01*
X129627333Y-75128476D01*
X129532095Y-75176095D01*
X131055905Y-75890381D02*
X130484476Y-75890381D01*
X130770190Y-75890381D02*
X130770190Y-74890381D01*
X130674952Y-75033238D01*
X130579714Y-75128476D01*
X130484476Y-75176095D01*
X125595143Y-75890381D02*
X125261809Y-75414190D01*
X125023714Y-75890381D02*
X125023714Y-74890381D01*
X125404667Y-74890381D01*
X125499905Y-74938000D01*
X125547524Y-74985619D01*
X125595143Y-75080857D01*
X125595143Y-75223714D01*
X125547524Y-75318952D01*
X125499905Y-75366571D01*
X125404667Y-75414190D01*
X125023714Y-75414190D01*
X126547524Y-75890381D02*
X125976095Y-75890381D01*
X126261809Y-75890381D02*
X126261809Y-74890381D01*
X126166571Y-75033238D01*
X126071333Y-75128476D01*
X125976095Y-75176095D01*
X126928476Y-74985619D02*
X126976095Y-74938000D01*
X127071333Y-74890381D01*
X127309429Y-74890381D01*
X127404667Y-74938000D01*
X127452286Y-74985619D01*
X127499905Y-75080857D01*
X127499905Y-75176095D01*
X127452286Y-75318952D01*
X126880857Y-75890381D01*
X127499905Y-75890381D01*
X179443143Y-89352381D02*
X179109809Y-88876190D01*
X178871714Y-89352381D02*
X178871714Y-88352381D01*
X179252667Y-88352381D01*
X179347905Y-88400000D01*
X179395524Y-88447619D01*
X179443143Y-88542857D01*
X179443143Y-88685714D01*
X179395524Y-88780952D01*
X179347905Y-88828571D01*
X179252667Y-88876190D01*
X178871714Y-88876190D01*
X180395524Y-89352381D02*
X179824095Y-89352381D01*
X180109809Y-89352381D02*
X180109809Y-88352381D01*
X180014571Y-88495238D01*
X179919333Y-88590476D01*
X179824095Y-88638095D01*
X180728857Y-88352381D02*
X181347905Y-88352381D01*
X181014571Y-88733333D01*
X181157429Y-88733333D01*
X181252667Y-88780952D01*
X181300286Y-88828571D01*
X181347905Y-88923810D01*
X181347905Y-89161905D01*
X181300286Y-89257143D01*
X181252667Y-89304762D01*
X181157429Y-89352381D01*
X180871714Y-89352381D01*
X180776476Y-89304762D01*
X180728857Y-89257143D01*
X182999143Y-88082381D02*
X182665809Y-87606190D01*
X182427714Y-88082381D02*
X182427714Y-87082381D01*
X182808667Y-87082381D01*
X182903905Y-87130000D01*
X182951524Y-87177619D01*
X182999143Y-87272857D01*
X182999143Y-87415714D01*
X182951524Y-87510952D01*
X182903905Y-87558571D01*
X182808667Y-87606190D01*
X182427714Y-87606190D01*
X183951524Y-88082381D02*
X183380095Y-88082381D01*
X183665809Y-88082381D02*
X183665809Y-87082381D01*
X183570571Y-87225238D01*
X183475333Y-87320476D01*
X183380095Y-87368095D01*
X184808667Y-87415714D02*
X184808667Y-88082381D01*
X184570571Y-87034762D02*
X184332476Y-87749048D01*
X184951524Y-87749048D01*
X129405143Y-99258381D02*
X129071809Y-98782190D01*
X128833714Y-99258381D02*
X128833714Y-98258381D01*
X129214667Y-98258381D01*
X129309905Y-98306000D01*
X129357524Y-98353619D01*
X129405143Y-98448857D01*
X129405143Y-98591714D01*
X129357524Y-98686952D01*
X129309905Y-98734571D01*
X129214667Y-98782190D01*
X128833714Y-98782190D01*
X130357524Y-99258381D02*
X129786095Y-99258381D01*
X130071809Y-99258381D02*
X130071809Y-98258381D01*
X129976571Y-98401238D01*
X129881333Y-98496476D01*
X129786095Y-98544095D01*
X131262286Y-98258381D02*
X130786095Y-98258381D01*
X130738476Y-98734571D01*
X130786095Y-98686952D01*
X130881333Y-98639333D01*
X131119429Y-98639333D01*
X131214667Y-98686952D01*
X131262286Y-98734571D01*
X131309905Y-98829810D01*
X131309905Y-99067905D01*
X131262286Y-99163143D01*
X131214667Y-99210762D01*
X131119429Y-99258381D01*
X130881333Y-99258381D01*
X130786095Y-99210762D01*
X130738476Y-99163143D01*
X125849143Y-99258381D02*
X125515809Y-98782190D01*
X125277714Y-99258381D02*
X125277714Y-98258381D01*
X125658667Y-98258381D01*
X125753905Y-98306000D01*
X125801524Y-98353619D01*
X125849143Y-98448857D01*
X125849143Y-98591714D01*
X125801524Y-98686952D01*
X125753905Y-98734571D01*
X125658667Y-98782190D01*
X125277714Y-98782190D01*
X126801524Y-99258381D02*
X126230095Y-99258381D01*
X126515809Y-99258381D02*
X126515809Y-98258381D01*
X126420571Y-98401238D01*
X126325333Y-98496476D01*
X126230095Y-98544095D01*
X127658667Y-98258381D02*
X127468190Y-98258381D01*
X127372952Y-98306000D01*
X127325333Y-98353619D01*
X127230095Y-98496476D01*
X127182476Y-98686952D01*
X127182476Y-99067905D01*
X127230095Y-99163143D01*
X127277714Y-99210762D01*
X127372952Y-99258381D01*
X127563429Y-99258381D01*
X127658667Y-99210762D01*
X127706286Y-99163143D01*
X127753905Y-99067905D01*
X127753905Y-98829810D01*
X127706286Y-98734571D01*
X127658667Y-98686952D01*
X127563429Y-98639333D01*
X127372952Y-98639333D01*
X127277714Y-98686952D01*
X127230095Y-98734571D01*
X127182476Y-98829810D01*
X179443143Y-99512381D02*
X179109809Y-99036190D01*
X178871714Y-99512381D02*
X178871714Y-98512381D01*
X179252667Y-98512381D01*
X179347905Y-98560000D01*
X179395524Y-98607619D01*
X179443143Y-98702857D01*
X179443143Y-98845714D01*
X179395524Y-98940952D01*
X179347905Y-98988571D01*
X179252667Y-99036190D01*
X178871714Y-99036190D01*
X180395524Y-99512381D02*
X179824095Y-99512381D01*
X180109809Y-99512381D02*
X180109809Y-98512381D01*
X180014571Y-98655238D01*
X179919333Y-98750476D01*
X179824095Y-98798095D01*
X180728857Y-98512381D02*
X181395524Y-98512381D01*
X180966952Y-99512381D01*
X182745143Y-99512381D02*
X182411809Y-99036190D01*
X182173714Y-99512381D02*
X182173714Y-98512381D01*
X182554667Y-98512381D01*
X182649905Y-98560000D01*
X182697524Y-98607619D01*
X182745143Y-98702857D01*
X182745143Y-98845714D01*
X182697524Y-98940952D01*
X182649905Y-98988571D01*
X182554667Y-99036190D01*
X182173714Y-99036190D01*
X183697524Y-99512381D02*
X183126095Y-99512381D01*
X183411809Y-99512381D02*
X183411809Y-98512381D01*
X183316571Y-98655238D01*
X183221333Y-98750476D01*
X183126095Y-98798095D01*
X184268952Y-98940952D02*
X184173714Y-98893333D01*
X184126095Y-98845714D01*
X184078476Y-98750476D01*
X184078476Y-98702857D01*
X184126095Y-98607619D01*
X184173714Y-98560000D01*
X184268952Y-98512381D01*
X184459429Y-98512381D01*
X184554667Y-98560000D01*
X184602286Y-98607619D01*
X184649905Y-98702857D01*
X184649905Y-98750476D01*
X184602286Y-98845714D01*
X184554667Y-98893333D01*
X184459429Y-98940952D01*
X184268952Y-98940952D01*
X184173714Y-98988571D01*
X184126095Y-99036190D01*
X184078476Y-99131429D01*
X184078476Y-99321905D01*
X184126095Y-99417143D01*
X184173714Y-99464762D01*
X184268952Y-99512381D01*
X184459429Y-99512381D01*
X184554667Y-99464762D01*
X184602286Y-99417143D01*
X184649905Y-99321905D01*
X184649905Y-99131429D01*
X184602286Y-99036190D01*
X184554667Y-98988571D01*
X184459429Y-98940952D01*
X138620667Y-88034762D02*
X138763524Y-88082381D01*
X139001620Y-88082381D01*
X139096858Y-88034762D01*
X139144477Y-87987143D01*
X139192096Y-87891905D01*
X139192096Y-87796667D01*
X139144477Y-87701429D01*
X139096858Y-87653810D01*
X139001620Y-87606190D01*
X138811143Y-87558571D01*
X138715905Y-87510952D01*
X138668286Y-87463333D01*
X138620667Y-87368095D01*
X138620667Y-87272857D01*
X138668286Y-87177619D01*
X138715905Y-87130000D01*
X138811143Y-87082381D01*
X139049239Y-87082381D01*
X139192096Y-87130000D01*
X139525429Y-87082381D02*
X139763524Y-88082381D01*
X139954001Y-87368095D01*
X140144477Y-88082381D01*
X140382572Y-87082381D01*
X141287334Y-88082381D02*
X140715905Y-88082381D01*
X141001619Y-88082381D02*
X141001619Y-87082381D01*
X140906381Y-87225238D01*
X140811143Y-87320476D01*
X140715905Y-87368095D01*
X149796667Y-88034762D02*
X149939524Y-88082381D01*
X150177620Y-88082381D01*
X150272858Y-88034762D01*
X150320477Y-87987143D01*
X150368096Y-87891905D01*
X150368096Y-87796667D01*
X150320477Y-87701429D01*
X150272858Y-87653810D01*
X150177620Y-87606190D01*
X149987143Y-87558571D01*
X149891905Y-87510952D01*
X149844286Y-87463333D01*
X149796667Y-87368095D01*
X149796667Y-87272857D01*
X149844286Y-87177619D01*
X149891905Y-87130000D01*
X149987143Y-87082381D01*
X150225239Y-87082381D01*
X150368096Y-87130000D01*
X150701429Y-87082381D02*
X150939524Y-88082381D01*
X151130001Y-87368095D01*
X151320477Y-88082381D01*
X151558572Y-87082381D01*
X151891905Y-87177619D02*
X151939524Y-87130000D01*
X152034762Y-87082381D01*
X152272858Y-87082381D01*
X152368096Y-87130000D01*
X152415715Y-87177619D01*
X152463334Y-87272857D01*
X152463334Y-87368095D01*
X152415715Y-87510952D01*
X151844286Y-88082381D01*
X152463334Y-88082381D01*
X168846667Y-88034762D02*
X168989524Y-88082381D01*
X169227620Y-88082381D01*
X169322858Y-88034762D01*
X169370477Y-87987143D01*
X169418096Y-87891905D01*
X169418096Y-87796667D01*
X169370477Y-87701429D01*
X169322858Y-87653810D01*
X169227620Y-87606190D01*
X169037143Y-87558571D01*
X168941905Y-87510952D01*
X168894286Y-87463333D01*
X168846667Y-87368095D01*
X168846667Y-87272857D01*
X168894286Y-87177619D01*
X168941905Y-87130000D01*
X169037143Y-87082381D01*
X169275239Y-87082381D01*
X169418096Y-87130000D01*
X169751429Y-87082381D02*
X169989524Y-88082381D01*
X170180001Y-87368095D01*
X170370477Y-88082381D01*
X170608572Y-87082381D01*
X170894286Y-87082381D02*
X171513334Y-87082381D01*
X171180000Y-87463333D01*
X171322858Y-87463333D01*
X171418096Y-87510952D01*
X171465715Y-87558571D01*
X171513334Y-87653810D01*
X171513334Y-87891905D01*
X171465715Y-87987143D01*
X171418096Y-88034762D01*
X171322858Y-88082381D01*
X171037143Y-88082381D01*
X170941905Y-88034762D01*
X170894286Y-87987143D01*
X157670667Y-88034762D02*
X157813524Y-88082381D01*
X158051620Y-88082381D01*
X158146858Y-88034762D01*
X158194477Y-87987143D01*
X158242096Y-87891905D01*
X158242096Y-87796667D01*
X158194477Y-87701429D01*
X158146858Y-87653810D01*
X158051620Y-87606190D01*
X157861143Y-87558571D01*
X157765905Y-87510952D01*
X157718286Y-87463333D01*
X157670667Y-87368095D01*
X157670667Y-87272857D01*
X157718286Y-87177619D01*
X157765905Y-87130000D01*
X157861143Y-87082381D01*
X158099239Y-87082381D01*
X158242096Y-87130000D01*
X158575429Y-87082381D02*
X158813524Y-88082381D01*
X159004001Y-87368095D01*
X159194477Y-88082381D01*
X159432572Y-87082381D01*
X160242096Y-87415714D02*
X160242096Y-88082381D01*
X160004000Y-87034762D02*
X159765905Y-87749048D01*
X160384953Y-87749048D01*
X149542667Y-99464762D02*
X149685524Y-99512381D01*
X149923620Y-99512381D01*
X150018858Y-99464762D01*
X150066477Y-99417143D01*
X150114096Y-99321905D01*
X150114096Y-99226667D01*
X150066477Y-99131429D01*
X150018858Y-99083810D01*
X149923620Y-99036190D01*
X149733143Y-98988571D01*
X149637905Y-98940952D01*
X149590286Y-98893333D01*
X149542667Y-98798095D01*
X149542667Y-98702857D01*
X149590286Y-98607619D01*
X149637905Y-98560000D01*
X149733143Y-98512381D01*
X149971239Y-98512381D01*
X150114096Y-98560000D01*
X150447429Y-98512381D02*
X150685524Y-99512381D01*
X150876001Y-98798095D01*
X151066477Y-99512381D01*
X151304572Y-98512381D01*
X152161715Y-98512381D02*
X151685524Y-98512381D01*
X151637905Y-98988571D01*
X151685524Y-98940952D01*
X151780762Y-98893333D01*
X152018858Y-98893333D01*
X152114096Y-98940952D01*
X152161715Y-98988571D01*
X152209334Y-99083810D01*
X152209334Y-99321905D01*
X152161715Y-99417143D01*
X152114096Y-99464762D01*
X152018858Y-99512381D01*
X151780762Y-99512381D01*
X151685524Y-99464762D01*
X151637905Y-99417143D01*
X138366667Y-99464762D02*
X138509524Y-99512381D01*
X138747620Y-99512381D01*
X138842858Y-99464762D01*
X138890477Y-99417143D01*
X138938096Y-99321905D01*
X138938096Y-99226667D01*
X138890477Y-99131429D01*
X138842858Y-99083810D01*
X138747620Y-99036190D01*
X138557143Y-98988571D01*
X138461905Y-98940952D01*
X138414286Y-98893333D01*
X138366667Y-98798095D01*
X138366667Y-98702857D01*
X138414286Y-98607619D01*
X138461905Y-98560000D01*
X138557143Y-98512381D01*
X138795239Y-98512381D01*
X138938096Y-98560000D01*
X139271429Y-98512381D02*
X139509524Y-99512381D01*
X139700001Y-98798095D01*
X139890477Y-99512381D01*
X140128572Y-98512381D01*
X140938096Y-98512381D02*
X140747619Y-98512381D01*
X140652381Y-98560000D01*
X140604762Y-98607619D01*
X140509524Y-98750476D01*
X140461905Y-98940952D01*
X140461905Y-99321905D01*
X140509524Y-99417143D01*
X140557143Y-99464762D01*
X140652381Y-99512381D01*
X140842858Y-99512381D01*
X140938096Y-99464762D01*
X140985715Y-99417143D01*
X141033334Y-99321905D01*
X141033334Y-99083810D01*
X140985715Y-98988571D01*
X140938096Y-98940952D01*
X140842858Y-98893333D01*
X140652381Y-98893333D01*
X140557143Y-98940952D01*
X140509524Y-98988571D01*
X140461905Y-99083810D01*
X168592667Y-99464762D02*
X168735524Y-99512381D01*
X168973620Y-99512381D01*
X169068858Y-99464762D01*
X169116477Y-99417143D01*
X169164096Y-99321905D01*
X169164096Y-99226667D01*
X169116477Y-99131429D01*
X169068858Y-99083810D01*
X168973620Y-99036190D01*
X168783143Y-98988571D01*
X168687905Y-98940952D01*
X168640286Y-98893333D01*
X168592667Y-98798095D01*
X168592667Y-98702857D01*
X168640286Y-98607619D01*
X168687905Y-98560000D01*
X168783143Y-98512381D01*
X169021239Y-98512381D01*
X169164096Y-98560000D01*
X169497429Y-98512381D02*
X169735524Y-99512381D01*
X169926001Y-98798095D01*
X170116477Y-99512381D01*
X170354572Y-98512381D01*
X170640286Y-98512381D02*
X171306953Y-98512381D01*
X170878381Y-99512381D01*
X157670667Y-99464762D02*
X157813524Y-99512381D01*
X158051620Y-99512381D01*
X158146858Y-99464762D01*
X158194477Y-99417143D01*
X158242096Y-99321905D01*
X158242096Y-99226667D01*
X158194477Y-99131429D01*
X158146858Y-99083810D01*
X158051620Y-99036190D01*
X157861143Y-98988571D01*
X157765905Y-98940952D01*
X157718286Y-98893333D01*
X157670667Y-98798095D01*
X157670667Y-98702857D01*
X157718286Y-98607619D01*
X157765905Y-98560000D01*
X157861143Y-98512381D01*
X158099239Y-98512381D01*
X158242096Y-98560000D01*
X158575429Y-98512381D02*
X158813524Y-99512381D01*
X159004001Y-98798095D01*
X159194477Y-99512381D01*
X159432572Y-98512381D01*
X159956381Y-98940952D02*
X159861143Y-98893333D01*
X159813524Y-98845714D01*
X159765905Y-98750476D01*
X159765905Y-98702857D01*
X159813524Y-98607619D01*
X159861143Y-98560000D01*
X159956381Y-98512381D01*
X160146858Y-98512381D01*
X160242096Y-98560000D01*
X160289715Y-98607619D01*
X160337334Y-98702857D01*
X160337334Y-98750476D01*
X160289715Y-98845714D01*
X160242096Y-98893333D01*
X160146858Y-98940952D01*
X159956381Y-98940952D01*
X159861143Y-98988571D01*
X159813524Y-99036190D01*
X159765905Y-99131429D01*
X159765905Y-99321905D01*
X159813524Y-99417143D01*
X159861143Y-99464762D01*
X159956381Y-99512381D01*
X160146858Y-99512381D01*
X160242096Y-99464762D01*
X160289715Y-99417143D01*
X160337334Y-99321905D01*
X160337334Y-99131429D01*
X160289715Y-99036190D01*
X160242096Y-98988571D01*
X160146858Y-98940952D01*
D16*
X189509524Y-57854905D02*
X190042857Y-58654905D01*
X190042857Y-57854905D02*
X189509524Y-58654905D01*
X190309524Y-58426333D02*
X190690476Y-58426333D01*
X190233333Y-58654905D02*
X190500000Y-57854905D01*
X190766667Y-58654905D01*
X191452381Y-58654905D02*
X190995238Y-58654905D01*
X191223809Y-58654905D02*
X191223809Y-57854905D01*
X191147619Y-57969190D01*
X191071428Y-58045381D01*
X190995238Y-58083476D01*
D13*
X122578905Y-109228000D02*
X122531286Y-109180381D01*
X122459858Y-109180381D01*
X122388429Y-109228000D01*
X122340810Y-109323238D01*
X122317001Y-109418476D01*
X122293191Y-109608952D01*
X122293191Y-109751810D01*
X122317001Y-109942286D01*
X122340810Y-110037524D01*
X122388429Y-110132762D01*
X122459858Y-110180381D01*
X122507477Y-110180381D01*
X122578905Y-110132762D01*
X122602715Y-110085143D01*
X122602715Y-109751810D01*
X122507477Y-109751810D01*
X122817001Y-110180381D02*
X122817001Y-109180381D01*
X123007477Y-109180381D01*
X123055096Y-109228000D01*
X123078905Y-109275619D01*
X123102715Y-109370857D01*
X123102715Y-109513714D01*
X123078905Y-109608952D01*
X123055096Y-109656571D01*
X123007477Y-109704190D01*
X122817001Y-109704190D01*
X123317001Y-110180381D02*
X123317001Y-109180381D01*
X123650334Y-109180381D02*
X123745572Y-109180381D01*
X123793191Y-109228000D01*
X123840810Y-109323238D01*
X123864619Y-109513714D01*
X123864619Y-109847048D01*
X123840810Y-110037524D01*
X123793191Y-110132762D01*
X123745572Y-110180381D01*
X123650334Y-110180381D01*
X123602715Y-110132762D01*
X123555096Y-110037524D01*
X123531286Y-109847048D01*
X123531286Y-109513714D01*
X123555096Y-109323238D01*
X123602715Y-109228000D01*
X123650334Y-109180381D01*
X124150334Y-109608952D02*
X124102715Y-109561333D01*
X124078906Y-109513714D01*
X124055096Y-109418476D01*
X124055096Y-109370857D01*
X124078906Y-109275619D01*
X124102715Y-109228000D01*
X124150334Y-109180381D01*
X124245572Y-109180381D01*
X124293191Y-109228000D01*
X124317001Y-109275619D01*
X124340810Y-109370857D01*
X124340810Y-109418476D01*
X124317001Y-109513714D01*
X124293191Y-109561333D01*
X124245572Y-109608952D01*
X124150334Y-109608952D01*
X124102715Y-109656571D01*
X124078906Y-109704190D01*
X124055096Y-109799429D01*
X124055096Y-109989905D01*
X124078906Y-110085143D01*
X124102715Y-110132762D01*
X124150334Y-110180381D01*
X124245572Y-110180381D01*
X124293191Y-110132762D01*
X124317001Y-110085143D01*
X124340810Y-109989905D01*
X124340810Y-109799429D01*
X124317001Y-109704190D01*
X124293191Y-109656571D01*
X124245572Y-109608952D01*
X122578905Y-106815000D02*
X122531286Y-106767381D01*
X122459858Y-106767381D01*
X122388429Y-106815000D01*
X122340810Y-106910238D01*
X122317001Y-107005476D01*
X122293191Y-107195952D01*
X122293191Y-107338810D01*
X122317001Y-107529286D01*
X122340810Y-107624524D01*
X122388429Y-107719762D01*
X122459858Y-107767381D01*
X122507477Y-107767381D01*
X122578905Y-107719762D01*
X122602715Y-107672143D01*
X122602715Y-107338810D01*
X122507477Y-107338810D01*
X122817001Y-107767381D02*
X122817001Y-106767381D01*
X123007477Y-106767381D01*
X123055096Y-106815000D01*
X123078905Y-106862619D01*
X123102715Y-106957857D01*
X123102715Y-107100714D01*
X123078905Y-107195952D01*
X123055096Y-107243571D01*
X123007477Y-107291190D01*
X122817001Y-107291190D01*
X123317001Y-107767381D02*
X123317001Y-106767381D01*
X123650334Y-106767381D02*
X123745572Y-106767381D01*
X123793191Y-106815000D01*
X123840810Y-106910238D01*
X123864619Y-107100714D01*
X123864619Y-107434048D01*
X123840810Y-107624524D01*
X123793191Y-107719762D01*
X123745572Y-107767381D01*
X123650334Y-107767381D01*
X123602715Y-107719762D01*
X123555096Y-107624524D01*
X123531286Y-107434048D01*
X123531286Y-107100714D01*
X123555096Y-106910238D01*
X123602715Y-106815000D01*
X123650334Y-106767381D01*
X124031287Y-106767381D02*
X124364620Y-106767381D01*
X124150334Y-107767381D01*
X122578905Y-104148000D02*
X122531286Y-104100381D01*
X122459858Y-104100381D01*
X122388429Y-104148000D01*
X122340810Y-104243238D01*
X122317001Y-104338476D01*
X122293191Y-104528952D01*
X122293191Y-104671810D01*
X122317001Y-104862286D01*
X122340810Y-104957524D01*
X122388429Y-105052762D01*
X122459858Y-105100381D01*
X122507477Y-105100381D01*
X122578905Y-105052762D01*
X122602715Y-105005143D01*
X122602715Y-104671810D01*
X122507477Y-104671810D01*
X122817001Y-105100381D02*
X122817001Y-104100381D01*
X123007477Y-104100381D01*
X123055096Y-104148000D01*
X123078905Y-104195619D01*
X123102715Y-104290857D01*
X123102715Y-104433714D01*
X123078905Y-104528952D01*
X123055096Y-104576571D01*
X123007477Y-104624190D01*
X122817001Y-104624190D01*
X123317001Y-105100381D02*
X123317001Y-104100381D01*
X123650334Y-104100381D02*
X123745572Y-104100381D01*
X123793191Y-104148000D01*
X123840810Y-104243238D01*
X123864619Y-104433714D01*
X123864619Y-104767048D01*
X123840810Y-104957524D01*
X123793191Y-105052762D01*
X123745572Y-105100381D01*
X123650334Y-105100381D01*
X123602715Y-105052762D01*
X123555096Y-104957524D01*
X123531286Y-104767048D01*
X123531286Y-104433714D01*
X123555096Y-104243238D01*
X123602715Y-104148000D01*
X123650334Y-104100381D01*
X124317001Y-104100381D02*
X124078906Y-104100381D01*
X124055096Y-104576571D01*
X124078906Y-104528952D01*
X124126525Y-104481333D01*
X124245572Y-104481333D01*
X124293191Y-104528952D01*
X124317001Y-104576571D01*
X124340810Y-104671810D01*
X124340810Y-104909905D01*
X124317001Y-105005143D01*
X124293191Y-105052762D01*
X124245572Y-105100381D01*
X124126525Y-105100381D01*
X124078906Y-105052762D01*
X124055096Y-105005143D01*
X122578905Y-101735000D02*
X122531286Y-101687381D01*
X122459858Y-101687381D01*
X122388429Y-101735000D01*
X122340810Y-101830238D01*
X122317001Y-101925476D01*
X122293191Y-102115952D01*
X122293191Y-102258810D01*
X122317001Y-102449286D01*
X122340810Y-102544524D01*
X122388429Y-102639762D01*
X122459858Y-102687381D01*
X122507477Y-102687381D01*
X122578905Y-102639762D01*
X122602715Y-102592143D01*
X122602715Y-102258810D01*
X122507477Y-102258810D01*
X122817001Y-102687381D02*
X122817001Y-101687381D01*
X123007477Y-101687381D01*
X123055096Y-101735000D01*
X123078905Y-101782619D01*
X123102715Y-101877857D01*
X123102715Y-102020714D01*
X123078905Y-102115952D01*
X123055096Y-102163571D01*
X123007477Y-102211190D01*
X122817001Y-102211190D01*
X123317001Y-102687381D02*
X123317001Y-101687381D01*
X123650334Y-101687381D02*
X123745572Y-101687381D01*
X123793191Y-101735000D01*
X123840810Y-101830238D01*
X123864619Y-102020714D01*
X123864619Y-102354048D01*
X123840810Y-102544524D01*
X123793191Y-102639762D01*
X123745572Y-102687381D01*
X123650334Y-102687381D01*
X123602715Y-102639762D01*
X123555096Y-102544524D01*
X123531286Y-102354048D01*
X123531286Y-102020714D01*
X123555096Y-101830238D01*
X123602715Y-101735000D01*
X123650334Y-101687381D01*
X124031287Y-101687381D02*
X124340810Y-101687381D01*
X124174144Y-102068333D01*
X124245572Y-102068333D01*
X124293191Y-102115952D01*
X124317001Y-102163571D01*
X124340810Y-102258810D01*
X124340810Y-102496905D01*
X124317001Y-102592143D01*
X124293191Y-102639762D01*
X124245572Y-102687381D01*
X124102715Y-102687381D01*
X124055096Y-102639762D01*
X124031287Y-102592143D01*
X122578905Y-99068000D02*
X122531286Y-99020381D01*
X122459858Y-99020381D01*
X122388429Y-99068000D01*
X122340810Y-99163238D01*
X122317001Y-99258476D01*
X122293191Y-99448952D01*
X122293191Y-99591810D01*
X122317001Y-99782286D01*
X122340810Y-99877524D01*
X122388429Y-99972762D01*
X122459858Y-100020381D01*
X122507477Y-100020381D01*
X122578905Y-99972762D01*
X122602715Y-99925143D01*
X122602715Y-99591810D01*
X122507477Y-99591810D01*
X122817001Y-100020381D02*
X122817001Y-99020381D01*
X123007477Y-99020381D01*
X123055096Y-99068000D01*
X123078905Y-99115619D01*
X123102715Y-99210857D01*
X123102715Y-99353714D01*
X123078905Y-99448952D01*
X123055096Y-99496571D01*
X123007477Y-99544190D01*
X122817001Y-99544190D01*
X123317001Y-100020381D02*
X123317001Y-99020381D01*
X123650334Y-99020381D02*
X123745572Y-99020381D01*
X123793191Y-99068000D01*
X123840810Y-99163238D01*
X123864619Y-99353714D01*
X123864619Y-99687048D01*
X123840810Y-99877524D01*
X123793191Y-99972762D01*
X123745572Y-100020381D01*
X123650334Y-100020381D01*
X123602715Y-99972762D01*
X123555096Y-99877524D01*
X123531286Y-99687048D01*
X123531286Y-99353714D01*
X123555096Y-99163238D01*
X123602715Y-99068000D01*
X123650334Y-99020381D01*
X124340810Y-100020381D02*
X124055096Y-100020381D01*
X124197953Y-100020381D02*
X124197953Y-99020381D01*
X124150334Y-99163238D01*
X124102715Y-99258476D01*
X124055096Y-99306095D01*
X122733667Y-97480381D02*
X122495572Y-97480381D01*
X122495572Y-96480381D01*
X123186048Y-97385143D02*
X123162238Y-97432762D01*
X123090810Y-97480381D01*
X123043191Y-97480381D01*
X122971762Y-97432762D01*
X122924143Y-97337524D01*
X122900334Y-97242286D01*
X122876524Y-97051810D01*
X122876524Y-96908952D01*
X122900334Y-96718476D01*
X122924143Y-96623238D01*
X122971762Y-96528000D01*
X123043191Y-96480381D01*
X123090810Y-96480381D01*
X123162238Y-96528000D01*
X123186048Y-96575619D01*
X123400334Y-97480381D02*
X123400334Y-96480381D01*
X123519381Y-96480381D01*
X123590810Y-96528000D01*
X123638429Y-96623238D01*
X123662238Y-96718476D01*
X123686048Y-96908952D01*
X123686048Y-97051810D01*
X123662238Y-97242286D01*
X123638429Y-97337524D01*
X123590810Y-97432762D01*
X123519381Y-97480381D01*
X123400334Y-97480381D01*
X124162238Y-97480381D02*
X123876524Y-97480381D01*
X124019381Y-97480381D02*
X124019381Y-96480381D01*
X123971762Y-96623238D01*
X123924143Y-96718476D01*
X123876524Y-96766095D01*
X122733667Y-94940381D02*
X122495572Y-94940381D01*
X122495572Y-93940381D01*
X123186048Y-94845143D02*
X123162238Y-94892762D01*
X123090810Y-94940381D01*
X123043191Y-94940381D01*
X122971762Y-94892762D01*
X122924143Y-94797524D01*
X122900334Y-94702286D01*
X122876524Y-94511810D01*
X122876524Y-94368952D01*
X122900334Y-94178476D01*
X122924143Y-94083238D01*
X122971762Y-93988000D01*
X123043191Y-93940381D01*
X123090810Y-93940381D01*
X123162238Y-93988000D01*
X123186048Y-94035619D01*
X123400334Y-94940381D02*
X123400334Y-93940381D01*
X123519381Y-93940381D01*
X123590810Y-93988000D01*
X123638429Y-94083238D01*
X123662238Y-94178476D01*
X123686048Y-94368952D01*
X123686048Y-94511810D01*
X123662238Y-94702286D01*
X123638429Y-94797524D01*
X123590810Y-94892762D01*
X123519381Y-94940381D01*
X123400334Y-94940381D01*
X123876524Y-94035619D02*
X123900334Y-93988000D01*
X123947953Y-93940381D01*
X124067000Y-93940381D01*
X124114619Y-93988000D01*
X124138429Y-94035619D01*
X124162238Y-94130857D01*
X124162238Y-94226095D01*
X124138429Y-94368952D01*
X123852715Y-94940381D01*
X124162238Y-94940381D01*
D17*
X123039334Y-92400381D02*
X122563143Y-92400381D01*
X122563143Y-91400381D01*
X123944096Y-92305143D02*
X123896477Y-92352762D01*
X123753620Y-92400381D01*
X123658382Y-92400381D01*
X123515524Y-92352762D01*
X123420286Y-92257524D01*
X123372667Y-92162286D01*
X123325048Y-91971810D01*
X123325048Y-91828952D01*
X123372667Y-91638476D01*
X123420286Y-91543238D01*
X123515524Y-91448000D01*
X123658382Y-91400381D01*
X123753620Y-91400381D01*
X123896477Y-91448000D01*
X123944096Y-91495619D01*
X124372667Y-92400381D02*
X124372667Y-91400381D01*
X124610762Y-91400381D01*
X124753620Y-91448000D01*
X124848858Y-91543238D01*
X124896477Y-91638476D01*
X124944096Y-91828952D01*
X124944096Y-91971810D01*
X124896477Y-92162286D01*
X124848858Y-92257524D01*
X124753620Y-92352762D01*
X124610762Y-92400381D01*
X124372667Y-92400381D01*
X125277429Y-91400381D02*
X125896477Y-91400381D01*
X125563143Y-91781333D01*
X125706001Y-91781333D01*
X125801239Y-91828952D01*
X125848858Y-91876571D01*
X125896477Y-91971810D01*
X125896477Y-92209905D01*
X125848858Y-92305143D01*
X125801239Y-92352762D01*
X125706001Y-92400381D01*
X125420286Y-92400381D01*
X125325048Y-92352762D01*
X125277429Y-92305143D01*
X123174381Y-89860381D02*
X122698190Y-89860381D01*
X122698190Y-88860381D01*
X124079143Y-89765143D02*
X124031524Y-89812762D01*
X123888667Y-89860381D01*
X123793429Y-89860381D01*
X123650571Y-89812762D01*
X123555333Y-89717524D01*
X123507714Y-89622286D01*
X123460095Y-89431810D01*
X123460095Y-89288952D01*
X123507714Y-89098476D01*
X123555333Y-89003238D01*
X123650571Y-88908000D01*
X123793429Y-88860381D01*
X123888667Y-88860381D01*
X124031524Y-88908000D01*
X124079143Y-88955619D01*
X124507714Y-89860381D02*
X124507714Y-88860381D01*
X124745809Y-88860381D01*
X124888667Y-88908000D01*
X124983905Y-89003238D01*
X125031524Y-89098476D01*
X125079143Y-89288952D01*
X125079143Y-89431810D01*
X125031524Y-89622286D01*
X124983905Y-89717524D01*
X124888667Y-89812762D01*
X124745809Y-89860381D01*
X124507714Y-89860381D01*
X125269619Y-89955619D02*
X126031524Y-89955619D01*
X126841048Y-89860381D02*
X126507714Y-89384190D01*
X126269619Y-89860381D02*
X126269619Y-88860381D01*
X126650572Y-88860381D01*
X126745810Y-88908000D01*
X126793429Y-88955619D01*
X126841048Y-89050857D01*
X126841048Y-89193714D01*
X126793429Y-89288952D01*
X126745810Y-89336571D01*
X126650572Y-89384190D01*
X126269619Y-89384190D01*
X127222000Y-89812762D02*
X127364857Y-89860381D01*
X127602953Y-89860381D01*
X127698191Y-89812762D01*
X127745810Y-89765143D01*
X127793429Y-89669905D01*
X127793429Y-89574667D01*
X127745810Y-89479429D01*
X127698191Y-89431810D01*
X127602953Y-89384190D01*
X127412476Y-89336571D01*
X127317238Y-89288952D01*
X127269619Y-89241333D01*
X127222000Y-89146095D01*
X127222000Y-89050857D01*
X127269619Y-88955619D01*
X127317238Y-88908000D01*
X127412476Y-88860381D01*
X127650572Y-88860381D01*
X127793429Y-88908000D01*
X122785334Y-87574381D02*
X122309143Y-87574381D01*
X122309143Y-86574381D01*
X123690096Y-87479143D02*
X123642477Y-87526762D01*
X123499620Y-87574381D01*
X123404382Y-87574381D01*
X123261524Y-87526762D01*
X123166286Y-87431524D01*
X123118667Y-87336286D01*
X123071048Y-87145810D01*
X123071048Y-87002952D01*
X123118667Y-86812476D01*
X123166286Y-86717238D01*
X123261524Y-86622000D01*
X123404382Y-86574381D01*
X123499620Y-86574381D01*
X123642477Y-86622000D01*
X123690096Y-86669619D01*
X124118667Y-87574381D02*
X124118667Y-86574381D01*
X124356762Y-86574381D01*
X124499620Y-86622000D01*
X124594858Y-86717238D01*
X124642477Y-86812476D01*
X124690096Y-87002952D01*
X124690096Y-87145810D01*
X124642477Y-87336286D01*
X124594858Y-87431524D01*
X124499620Y-87526762D01*
X124356762Y-87574381D01*
X124118667Y-87574381D01*
X125547239Y-86907714D02*
X125547239Y-87574381D01*
X125309143Y-86526762D02*
X125071048Y-87241048D01*
X125690096Y-87241048D01*
D13*
X122547143Y-84605762D02*
X122618572Y-84653381D01*
X122737619Y-84653381D01*
X122785238Y-84605762D01*
X122809048Y-84558143D01*
X122832857Y-84462905D01*
X122832857Y-84367667D01*
X122809048Y-84272429D01*
X122785238Y-84224810D01*
X122737619Y-84177190D01*
X122642381Y-84129571D01*
X122594762Y-84081952D01*
X122570953Y-84034333D01*
X122547143Y-83939095D01*
X122547143Y-83843857D01*
X122570953Y-83748619D01*
X122594762Y-83701000D01*
X122642381Y-83653381D01*
X122761429Y-83653381D01*
X122832857Y-83701000D01*
X123332857Y-84558143D02*
X123309047Y-84605762D01*
X123237619Y-84653381D01*
X123190000Y-84653381D01*
X123118571Y-84605762D01*
X123070952Y-84510524D01*
X123047143Y-84415286D01*
X123023333Y-84224810D01*
X123023333Y-84081952D01*
X123047143Y-83891476D01*
X123070952Y-83796238D01*
X123118571Y-83701000D01*
X123190000Y-83653381D01*
X123237619Y-83653381D01*
X123309047Y-83701000D01*
X123332857Y-83748619D01*
X123547143Y-84653381D02*
X123547143Y-83653381D01*
X123832857Y-84653381D02*
X123618571Y-84081952D01*
X123832857Y-83653381D02*
X123547143Y-84224810D01*
X122531286Y-82240381D02*
X122531286Y-81240381D01*
X122697952Y-81954667D01*
X122864619Y-81240381D01*
X122864619Y-82240381D01*
X123102715Y-82240381D02*
X123102715Y-81240381D01*
X123317000Y-82192762D02*
X123388429Y-82240381D01*
X123507476Y-82240381D01*
X123555095Y-82192762D01*
X123578905Y-82145143D01*
X123602714Y-82049905D01*
X123602714Y-81954667D01*
X123578905Y-81859429D01*
X123555095Y-81811810D01*
X123507476Y-81764190D01*
X123412238Y-81716571D01*
X123364619Y-81668952D01*
X123340810Y-81621333D01*
X123317000Y-81526095D01*
X123317000Y-81430857D01*
X123340810Y-81335619D01*
X123364619Y-81288000D01*
X123412238Y-81240381D01*
X123531286Y-81240381D01*
X123602714Y-81288000D01*
X123912238Y-81240381D02*
X124007476Y-81240381D01*
X124055095Y-81288000D01*
X124102714Y-81383238D01*
X124126523Y-81573714D01*
X124126523Y-81907048D01*
X124102714Y-82097524D01*
X124055095Y-82192762D01*
X124007476Y-82240381D01*
X123912238Y-82240381D01*
X123864619Y-82192762D01*
X123817000Y-82097524D01*
X123793190Y-81907048D01*
X123793190Y-81573714D01*
X123817000Y-81383238D01*
X123864619Y-81288000D01*
X123912238Y-81240381D01*
X122574953Y-78827381D02*
X122860667Y-78827381D01*
X122717810Y-79827381D02*
X122717810Y-78827381D01*
X122979715Y-78827381D02*
X123313048Y-79827381D01*
X123313048Y-78827381D02*
X122979715Y-79827381D01*
X123503524Y-79827381D02*
X123503524Y-78827381D01*
X123622571Y-78827381D01*
X123694000Y-78875000D01*
X123741619Y-78970238D01*
X123765428Y-79065476D01*
X123789238Y-79255952D01*
X123789238Y-79398810D01*
X123765428Y-79589286D01*
X123741619Y-79684524D01*
X123694000Y-79779762D01*
X123622571Y-79827381D01*
X123503524Y-79827381D01*
X124265428Y-79827381D02*
X123979714Y-79827381D01*
X124122571Y-79827381D02*
X124122571Y-78827381D01*
X124074952Y-78970238D01*
X124027333Y-79065476D01*
X123979714Y-79113095D01*
X122574953Y-76160381D02*
X122860667Y-76160381D01*
X122717810Y-77160381D02*
X122717810Y-76160381D01*
X122979715Y-76160381D02*
X123313048Y-77160381D01*
X123313048Y-76160381D02*
X122979715Y-77160381D01*
X123503524Y-77160381D02*
X123503524Y-76160381D01*
X123622571Y-76160381D01*
X123694000Y-76208000D01*
X123741619Y-76303238D01*
X123765428Y-76398476D01*
X123789238Y-76588952D01*
X123789238Y-76731810D01*
X123765428Y-76922286D01*
X123741619Y-77017524D01*
X123694000Y-77112762D01*
X123622571Y-77160381D01*
X123503524Y-77160381D01*
X124098762Y-76160381D02*
X124146381Y-76160381D01*
X124194000Y-76208000D01*
X124217809Y-76255619D01*
X124241619Y-76350857D01*
X124265428Y-76541333D01*
X124265428Y-76779429D01*
X124241619Y-76969905D01*
X124217809Y-77065143D01*
X124194000Y-77112762D01*
X124146381Y-77160381D01*
X124098762Y-77160381D01*
X124051143Y-77112762D01*
X124027333Y-77065143D01*
X124003524Y-76969905D01*
X123979714Y-76779429D01*
X123979714Y-76541333D01*
X124003524Y-76350857D01*
X124027333Y-76255619D01*
X124051143Y-76208000D01*
X124098762Y-76160381D01*
X122646381Y-74620381D02*
X122646381Y-73620381D01*
X122813047Y-74334667D01*
X122979714Y-73620381D01*
X122979714Y-74620381D01*
X123217810Y-74620381D02*
X123217810Y-73620381D01*
X123336857Y-73620381D01*
X123408286Y-73668000D01*
X123455905Y-73763238D01*
X123479714Y-73858476D01*
X123503524Y-74048952D01*
X123503524Y-74191810D01*
X123479714Y-74382286D01*
X123455905Y-74477524D01*
X123408286Y-74572762D01*
X123336857Y-74620381D01*
X123217810Y-74620381D01*
X123717810Y-74620381D02*
X123717810Y-73620381D01*
X124051143Y-73620381D02*
X124146381Y-73620381D01*
X124194000Y-73668000D01*
X124241619Y-73763238D01*
X124265428Y-73953714D01*
X124265428Y-74287048D01*
X124241619Y-74477524D01*
X124194000Y-74572762D01*
X124146381Y-74620381D01*
X124051143Y-74620381D01*
X124003524Y-74572762D01*
X123955905Y-74477524D01*
X123932095Y-74287048D01*
X123932095Y-73953714D01*
X123955905Y-73763238D01*
X124003524Y-73668000D01*
X124051143Y-73620381D01*
D17*
X123031334Y-72112143D02*
X122983715Y-72159762D01*
X122840858Y-72207381D01*
X122745620Y-72207381D01*
X122602762Y-72159762D01*
X122507524Y-72064524D01*
X122459905Y-71969286D01*
X122412286Y-71778810D01*
X122412286Y-71635952D01*
X122459905Y-71445476D01*
X122507524Y-71350238D01*
X122602762Y-71255000D01*
X122745620Y-71207381D01*
X122840858Y-71207381D01*
X122983715Y-71255000D01*
X123031334Y-71302619D01*
X124031334Y-72207381D02*
X123698000Y-71731190D01*
X123459905Y-72207381D02*
X123459905Y-71207381D01*
X123840858Y-71207381D01*
X123936096Y-71255000D01*
X123983715Y-71302619D01*
X124031334Y-71397857D01*
X124031334Y-71540714D01*
X123983715Y-71635952D01*
X123936096Y-71683571D01*
X123840858Y-71731190D01*
X123459905Y-71731190D01*
X124412286Y-72159762D02*
X124555143Y-72207381D01*
X124793239Y-72207381D01*
X124888477Y-72159762D01*
X124936096Y-72112143D01*
X124983715Y-72016905D01*
X124983715Y-71921667D01*
X124936096Y-71826429D01*
X124888477Y-71778810D01*
X124793239Y-71731190D01*
X124602762Y-71683571D01*
X124507524Y-71635952D01*
X124459905Y-71588333D01*
X124412286Y-71493095D01*
X124412286Y-71397857D01*
X124459905Y-71302619D01*
X124507524Y-71255000D01*
X124602762Y-71207381D01*
X124840858Y-71207381D01*
X124983715Y-71255000D01*
D13*
X122523334Y-69540381D02*
X122523334Y-68540381D01*
X122690000Y-69254667D01*
X122856667Y-68540381D01*
X122856667Y-69540381D01*
X123094763Y-69540381D02*
X123094763Y-68540381D01*
X123213810Y-68540381D01*
X123285239Y-68588000D01*
X123332858Y-68683238D01*
X123356667Y-68778476D01*
X123380477Y-68968952D01*
X123380477Y-69111810D01*
X123356667Y-69302286D01*
X123332858Y-69397524D01*
X123285239Y-69492762D01*
X123213810Y-69540381D01*
X123094763Y-69540381D01*
X123880477Y-69445143D02*
X123856667Y-69492762D01*
X123785239Y-69540381D01*
X123737620Y-69540381D01*
X123666191Y-69492762D01*
X123618572Y-69397524D01*
X123594763Y-69302286D01*
X123570953Y-69111810D01*
X123570953Y-68968952D01*
X123594763Y-68778476D01*
X123618572Y-68683238D01*
X123666191Y-68588000D01*
X123737620Y-68540381D01*
X123785239Y-68540381D01*
X123856667Y-68588000D01*
X123880477Y-68635619D01*
D17*
X122340952Y-66127381D02*
X122912381Y-66127381D01*
X122626666Y-67127381D02*
X122626666Y-66127381D01*
X123150476Y-66127381D02*
X123817143Y-67127381D01*
X123817143Y-66127381D02*
X123150476Y-67127381D01*
X123960000Y-67222619D02*
X124721905Y-67222619D01*
X124960000Y-66603571D02*
X125293334Y-66603571D01*
X125436191Y-67127381D02*
X124960000Y-67127381D01*
X124960000Y-66127381D01*
X125436191Y-66127381D01*
X125864762Y-67127381D02*
X125864762Y-66127381D01*
X126436191Y-67127381D01*
X126436191Y-66127381D01*
D13*
X122745572Y-64587381D02*
X122578905Y-64111190D01*
X122459858Y-64587381D02*
X122459858Y-63587381D01*
X122650334Y-63587381D01*
X122697953Y-63635000D01*
X122721762Y-63682619D01*
X122745572Y-63777857D01*
X122745572Y-63920714D01*
X122721762Y-64015952D01*
X122697953Y-64063571D01*
X122650334Y-64111190D01*
X122459858Y-64111190D01*
X122912239Y-63587381D02*
X123245572Y-64587381D01*
X123245572Y-63587381D02*
X122912239Y-64587381D01*
X123436048Y-64587381D02*
X123436048Y-63587381D01*
X123555095Y-63587381D01*
X123626524Y-63635000D01*
X123674143Y-63730238D01*
X123697952Y-63825476D01*
X123721762Y-64015952D01*
X123721762Y-64158810D01*
X123697952Y-64349286D01*
X123674143Y-64444524D01*
X123626524Y-64539762D01*
X123555095Y-64587381D01*
X123436048Y-64587381D01*
X124197952Y-64587381D02*
X123912238Y-64587381D01*
X124055095Y-64587381D02*
X124055095Y-63587381D01*
X124007476Y-63730238D01*
X123959857Y-63825476D01*
X123912238Y-63873095D01*
D17*
X122412286Y-61539429D02*
X123174191Y-61539429D01*
X122793239Y-61920381D02*
X122793239Y-61158476D01*
X124126572Y-60920381D02*
X123650381Y-60920381D01*
X123602762Y-61396571D01*
X123650381Y-61348952D01*
X123745619Y-61301333D01*
X123983715Y-61301333D01*
X124078953Y-61348952D01*
X124126572Y-61396571D01*
X124174191Y-61491810D01*
X124174191Y-61729905D01*
X124126572Y-61825143D01*
X124078953Y-61872762D01*
X123983715Y-61920381D01*
X123745619Y-61920381D01*
X123650381Y-61872762D01*
X123602762Y-61825143D01*
X124459905Y-60920381D02*
X124793238Y-61920381D01*
X125126572Y-60920381D01*
X114300096Y-108974000D02*
X114204858Y-108926381D01*
X114062001Y-108926381D01*
X113919143Y-108974000D01*
X113823905Y-109069238D01*
X113776286Y-109164476D01*
X113728667Y-109354952D01*
X113728667Y-109497810D01*
X113776286Y-109688286D01*
X113823905Y-109783524D01*
X113919143Y-109878762D01*
X114062001Y-109926381D01*
X114157239Y-109926381D01*
X114300096Y-109878762D01*
X114347715Y-109831143D01*
X114347715Y-109497810D01*
X114157239Y-109497810D01*
X114776286Y-109926381D02*
X114776286Y-108926381D01*
X115347715Y-109926381D01*
X115347715Y-108926381D01*
X115823905Y-109926381D02*
X115823905Y-108926381D01*
X116062000Y-108926381D01*
X116204858Y-108974000D01*
X116300096Y-109069238D01*
X116347715Y-109164476D01*
X116395334Y-109354952D01*
X116395334Y-109497810D01*
X116347715Y-109688286D01*
X116300096Y-109783524D01*
X116204858Y-109878762D01*
X116062000Y-109926381D01*
X115823905Y-109926381D01*
X114300096Y-106688000D02*
X114204858Y-106640381D01*
X114062001Y-106640381D01*
X113919143Y-106688000D01*
X113823905Y-106783238D01*
X113776286Y-106878476D01*
X113728667Y-107068952D01*
X113728667Y-107211810D01*
X113776286Y-107402286D01*
X113823905Y-107497524D01*
X113919143Y-107592762D01*
X114062001Y-107640381D01*
X114157239Y-107640381D01*
X114300096Y-107592762D01*
X114347715Y-107545143D01*
X114347715Y-107211810D01*
X114157239Y-107211810D01*
X114776286Y-107640381D02*
X114776286Y-106640381D01*
X115347715Y-107640381D01*
X115347715Y-106640381D01*
X115823905Y-107640381D02*
X115823905Y-106640381D01*
X116062000Y-106640381D01*
X116204858Y-106688000D01*
X116300096Y-106783238D01*
X116347715Y-106878476D01*
X116395334Y-107068952D01*
X116395334Y-107211810D01*
X116347715Y-107402286D01*
X116300096Y-107497524D01*
X116204858Y-107592762D01*
X116062000Y-107640381D01*
X115823905Y-107640381D01*
D13*
X114196905Y-104148000D02*
X114149286Y-104100381D01*
X114077858Y-104100381D01*
X114006429Y-104148000D01*
X113958810Y-104243238D01*
X113935001Y-104338476D01*
X113911191Y-104528952D01*
X113911191Y-104671810D01*
X113935001Y-104862286D01*
X113958810Y-104957524D01*
X114006429Y-105052762D01*
X114077858Y-105100381D01*
X114125477Y-105100381D01*
X114196905Y-105052762D01*
X114220715Y-105005143D01*
X114220715Y-104671810D01*
X114125477Y-104671810D01*
X114435001Y-105100381D02*
X114435001Y-104100381D01*
X114625477Y-104100381D01*
X114673096Y-104148000D01*
X114696905Y-104195619D01*
X114720715Y-104290857D01*
X114720715Y-104433714D01*
X114696905Y-104528952D01*
X114673096Y-104576571D01*
X114625477Y-104624190D01*
X114435001Y-104624190D01*
X114935001Y-105100381D02*
X114935001Y-104100381D01*
X115268334Y-104100381D02*
X115363572Y-104100381D01*
X115411191Y-104148000D01*
X115458810Y-104243238D01*
X115482619Y-104433714D01*
X115482619Y-104767048D01*
X115458810Y-104957524D01*
X115411191Y-105052762D01*
X115363572Y-105100381D01*
X115268334Y-105100381D01*
X115220715Y-105052762D01*
X115173096Y-104957524D01*
X115149286Y-104767048D01*
X115149286Y-104433714D01*
X115173096Y-104243238D01*
X115220715Y-104148000D01*
X115268334Y-104100381D01*
X115911191Y-104100381D02*
X115815953Y-104100381D01*
X115768334Y-104148000D01*
X115744525Y-104195619D01*
X115696906Y-104338476D01*
X115673096Y-104528952D01*
X115673096Y-104909905D01*
X115696906Y-105005143D01*
X115720715Y-105052762D01*
X115768334Y-105100381D01*
X115863572Y-105100381D01*
X115911191Y-105052762D01*
X115935001Y-105005143D01*
X115958810Y-104909905D01*
X115958810Y-104671810D01*
X115935001Y-104576571D01*
X115911191Y-104528952D01*
X115863572Y-104481333D01*
X115768334Y-104481333D01*
X115720715Y-104528952D01*
X115696906Y-104576571D01*
X115673096Y-104671810D01*
X114196905Y-101608000D02*
X114149286Y-101560381D01*
X114077858Y-101560381D01*
X114006429Y-101608000D01*
X113958810Y-101703238D01*
X113935001Y-101798476D01*
X113911191Y-101988952D01*
X113911191Y-102131810D01*
X113935001Y-102322286D01*
X113958810Y-102417524D01*
X114006429Y-102512762D01*
X114077858Y-102560381D01*
X114125477Y-102560381D01*
X114196905Y-102512762D01*
X114220715Y-102465143D01*
X114220715Y-102131810D01*
X114125477Y-102131810D01*
X114435001Y-102560381D02*
X114435001Y-101560381D01*
X114625477Y-101560381D01*
X114673096Y-101608000D01*
X114696905Y-101655619D01*
X114720715Y-101750857D01*
X114720715Y-101893714D01*
X114696905Y-101988952D01*
X114673096Y-102036571D01*
X114625477Y-102084190D01*
X114435001Y-102084190D01*
X114935001Y-102560381D02*
X114935001Y-101560381D01*
X115268334Y-101560381D02*
X115363572Y-101560381D01*
X115411191Y-101608000D01*
X115458810Y-101703238D01*
X115482619Y-101893714D01*
X115482619Y-102227048D01*
X115458810Y-102417524D01*
X115411191Y-102512762D01*
X115363572Y-102560381D01*
X115268334Y-102560381D01*
X115220715Y-102512762D01*
X115173096Y-102417524D01*
X115149286Y-102227048D01*
X115149286Y-101893714D01*
X115173096Y-101703238D01*
X115220715Y-101608000D01*
X115268334Y-101560381D01*
X115911191Y-101893714D02*
X115911191Y-102560381D01*
X115792144Y-101512762D02*
X115673096Y-102227048D01*
X115982620Y-102227048D01*
X114196905Y-99068000D02*
X114149286Y-99020381D01*
X114077858Y-99020381D01*
X114006429Y-99068000D01*
X113958810Y-99163238D01*
X113935001Y-99258476D01*
X113911191Y-99448952D01*
X113911191Y-99591810D01*
X113935001Y-99782286D01*
X113958810Y-99877524D01*
X114006429Y-99972762D01*
X114077858Y-100020381D01*
X114125477Y-100020381D01*
X114196905Y-99972762D01*
X114220715Y-99925143D01*
X114220715Y-99591810D01*
X114125477Y-99591810D01*
X114435001Y-100020381D02*
X114435001Y-99020381D01*
X114625477Y-99020381D01*
X114673096Y-99068000D01*
X114696905Y-99115619D01*
X114720715Y-99210857D01*
X114720715Y-99353714D01*
X114696905Y-99448952D01*
X114673096Y-99496571D01*
X114625477Y-99544190D01*
X114435001Y-99544190D01*
X114935001Y-100020381D02*
X114935001Y-99020381D01*
X115268334Y-99020381D02*
X115363572Y-99020381D01*
X115411191Y-99068000D01*
X115458810Y-99163238D01*
X115482619Y-99353714D01*
X115482619Y-99687048D01*
X115458810Y-99877524D01*
X115411191Y-99972762D01*
X115363572Y-100020381D01*
X115268334Y-100020381D01*
X115220715Y-99972762D01*
X115173096Y-99877524D01*
X115149286Y-99687048D01*
X115149286Y-99353714D01*
X115173096Y-99163238D01*
X115220715Y-99068000D01*
X115268334Y-99020381D01*
X115673096Y-99115619D02*
X115696906Y-99068000D01*
X115744525Y-99020381D01*
X115863572Y-99020381D01*
X115911191Y-99068000D01*
X115935001Y-99115619D01*
X115958810Y-99210857D01*
X115958810Y-99306095D01*
X115935001Y-99448952D01*
X115649287Y-100020381D01*
X115958810Y-100020381D01*
X114196905Y-96528000D02*
X114149286Y-96480381D01*
X114077858Y-96480381D01*
X114006429Y-96528000D01*
X113958810Y-96623238D01*
X113935001Y-96718476D01*
X113911191Y-96908952D01*
X113911191Y-97051810D01*
X113935001Y-97242286D01*
X113958810Y-97337524D01*
X114006429Y-97432762D01*
X114077858Y-97480381D01*
X114125477Y-97480381D01*
X114196905Y-97432762D01*
X114220715Y-97385143D01*
X114220715Y-97051810D01*
X114125477Y-97051810D01*
X114435001Y-97480381D02*
X114435001Y-96480381D01*
X114625477Y-96480381D01*
X114673096Y-96528000D01*
X114696905Y-96575619D01*
X114720715Y-96670857D01*
X114720715Y-96813714D01*
X114696905Y-96908952D01*
X114673096Y-96956571D01*
X114625477Y-97004190D01*
X114435001Y-97004190D01*
X114935001Y-97480381D02*
X114935001Y-96480381D01*
X115268334Y-96480381D02*
X115363572Y-96480381D01*
X115411191Y-96528000D01*
X115458810Y-96623238D01*
X115482619Y-96813714D01*
X115482619Y-97147048D01*
X115458810Y-97337524D01*
X115411191Y-97432762D01*
X115363572Y-97480381D01*
X115268334Y-97480381D01*
X115220715Y-97432762D01*
X115173096Y-97337524D01*
X115149286Y-97147048D01*
X115149286Y-96813714D01*
X115173096Y-96623238D01*
X115220715Y-96528000D01*
X115268334Y-96480381D01*
X115792144Y-96480381D02*
X115839763Y-96480381D01*
X115887382Y-96528000D01*
X115911191Y-96575619D01*
X115935001Y-96670857D01*
X115958810Y-96861333D01*
X115958810Y-97099429D01*
X115935001Y-97289905D01*
X115911191Y-97385143D01*
X115887382Y-97432762D01*
X115839763Y-97480381D01*
X115792144Y-97480381D01*
X115744525Y-97432762D01*
X115720715Y-97385143D01*
X115696906Y-97289905D01*
X115673096Y-97099429D01*
X115673096Y-96861333D01*
X115696906Y-96670857D01*
X115720715Y-96575619D01*
X115744525Y-96528000D01*
X115792144Y-96480381D01*
D17*
X114300096Y-93988000D02*
X114204858Y-93940381D01*
X114062001Y-93940381D01*
X113919143Y-93988000D01*
X113823905Y-94083238D01*
X113776286Y-94178476D01*
X113728667Y-94368952D01*
X113728667Y-94511810D01*
X113776286Y-94702286D01*
X113823905Y-94797524D01*
X113919143Y-94892762D01*
X114062001Y-94940381D01*
X114157239Y-94940381D01*
X114300096Y-94892762D01*
X114347715Y-94845143D01*
X114347715Y-94511810D01*
X114157239Y-94511810D01*
X114776286Y-94940381D02*
X114776286Y-93940381D01*
X115347715Y-94940381D01*
X115347715Y-93940381D01*
X115823905Y-94940381D02*
X115823905Y-93940381D01*
X116062000Y-93940381D01*
X116204858Y-93988000D01*
X116300096Y-94083238D01*
X116347715Y-94178476D01*
X116395334Y-94368952D01*
X116395334Y-94511810D01*
X116347715Y-94702286D01*
X116300096Y-94797524D01*
X116204858Y-94892762D01*
X116062000Y-94940381D01*
X115823905Y-94940381D01*
X114300096Y-91448000D02*
X114204858Y-91400381D01*
X114062001Y-91400381D01*
X113919143Y-91448000D01*
X113823905Y-91543238D01*
X113776286Y-91638476D01*
X113728667Y-91828952D01*
X113728667Y-91971810D01*
X113776286Y-92162286D01*
X113823905Y-92257524D01*
X113919143Y-92352762D01*
X114062001Y-92400381D01*
X114157239Y-92400381D01*
X114300096Y-92352762D01*
X114347715Y-92305143D01*
X114347715Y-91971810D01*
X114157239Y-91971810D01*
X114776286Y-92400381D02*
X114776286Y-91400381D01*
X115347715Y-92400381D01*
X115347715Y-91400381D01*
X115823905Y-92400381D02*
X115823905Y-91400381D01*
X116062000Y-91400381D01*
X116204858Y-91448000D01*
X116300096Y-91543238D01*
X116347715Y-91638476D01*
X116395334Y-91828952D01*
X116395334Y-91971810D01*
X116347715Y-92162286D01*
X116300096Y-92257524D01*
X116204858Y-92352762D01*
X116062000Y-92400381D01*
X115823905Y-92400381D01*
D13*
X114038191Y-89860381D02*
X113800096Y-89860381D01*
X113800096Y-88860381D01*
X114490572Y-89765143D02*
X114466762Y-89812762D01*
X114395334Y-89860381D01*
X114347715Y-89860381D01*
X114276286Y-89812762D01*
X114228667Y-89717524D01*
X114204858Y-89622286D01*
X114181048Y-89431810D01*
X114181048Y-89288952D01*
X114204858Y-89098476D01*
X114228667Y-89003238D01*
X114276286Y-88908000D01*
X114347715Y-88860381D01*
X114395334Y-88860381D01*
X114466762Y-88908000D01*
X114490572Y-88955619D01*
X114704858Y-89860381D02*
X114704858Y-88860381D01*
X114823905Y-88860381D01*
X114895334Y-88908000D01*
X114942953Y-89003238D01*
X114966762Y-89098476D01*
X114990572Y-89288952D01*
X114990572Y-89431810D01*
X114966762Y-89622286D01*
X114942953Y-89717524D01*
X114895334Y-89812762D01*
X114823905Y-89860381D01*
X114704858Y-89860381D01*
X115085810Y-89955619D02*
X115466762Y-89955619D01*
X115585810Y-89336571D02*
X115752476Y-89336571D01*
X115823905Y-89860381D02*
X115585810Y-89860381D01*
X115585810Y-88860381D01*
X115823905Y-88860381D01*
X116038191Y-89860381D02*
X116038191Y-88860381D01*
X116323905Y-89860381D01*
X116323905Y-88860381D01*
D18*
X113962001Y-87193381D02*
X113962001Y-86193381D01*
X114195334Y-86907667D01*
X114428667Y-86193381D01*
X114428667Y-87193381D01*
X114895334Y-86193381D02*
X115028667Y-86193381D01*
X115095334Y-86241000D01*
X115162001Y-86336238D01*
X115195334Y-86526714D01*
X115195334Y-86860048D01*
X115162001Y-87050524D01*
X115095334Y-87145762D01*
X115028667Y-87193381D01*
X114895334Y-87193381D01*
X114828667Y-87145762D01*
X114762001Y-87050524D01*
X114728667Y-86860048D01*
X114728667Y-86526714D01*
X114762001Y-86336238D01*
X114828667Y-86241000D01*
X114895334Y-86193381D01*
X115462000Y-87145762D02*
X115562000Y-87193381D01*
X115728667Y-87193381D01*
X115795334Y-87145762D01*
X115828667Y-87098143D01*
X115862000Y-87002905D01*
X115862000Y-86907667D01*
X115828667Y-86812429D01*
X115795334Y-86764810D01*
X115728667Y-86717190D01*
X115595334Y-86669571D01*
X115528667Y-86621952D01*
X115495334Y-86574333D01*
X115462000Y-86479095D01*
X115462000Y-86383857D01*
X115495334Y-86288619D01*
X115528667Y-86241000D01*
X115595334Y-86193381D01*
X115762000Y-86193381D01*
X115862000Y-86241000D01*
X116162001Y-87193381D02*
X116162001Y-86193381D01*
D17*
X114300096Y-83828000D02*
X114204858Y-83780381D01*
X114062001Y-83780381D01*
X113919143Y-83828000D01*
X113823905Y-83923238D01*
X113776286Y-84018476D01*
X113728667Y-84208952D01*
X113728667Y-84351810D01*
X113776286Y-84542286D01*
X113823905Y-84637524D01*
X113919143Y-84732762D01*
X114062001Y-84780381D01*
X114157239Y-84780381D01*
X114300096Y-84732762D01*
X114347715Y-84685143D01*
X114347715Y-84351810D01*
X114157239Y-84351810D01*
X114776286Y-84780381D02*
X114776286Y-83780381D01*
X115347715Y-84780381D01*
X115347715Y-83780381D01*
X115823905Y-84780381D02*
X115823905Y-83780381D01*
X116062000Y-83780381D01*
X116204858Y-83828000D01*
X116300096Y-83923238D01*
X116347715Y-84018476D01*
X116395334Y-84208952D01*
X116395334Y-84351810D01*
X116347715Y-84542286D01*
X116300096Y-84637524D01*
X116204858Y-84732762D01*
X116062000Y-84780381D01*
X115823905Y-84780381D01*
X114300096Y-81288000D02*
X114204858Y-81240381D01*
X114062001Y-81240381D01*
X113919143Y-81288000D01*
X113823905Y-81383238D01*
X113776286Y-81478476D01*
X113728667Y-81668952D01*
X113728667Y-81811810D01*
X113776286Y-82002286D01*
X113823905Y-82097524D01*
X113919143Y-82192762D01*
X114062001Y-82240381D01*
X114157239Y-82240381D01*
X114300096Y-82192762D01*
X114347715Y-82145143D01*
X114347715Y-81811810D01*
X114157239Y-81811810D01*
X114776286Y-82240381D02*
X114776286Y-81240381D01*
X115347715Y-82240381D01*
X115347715Y-81240381D01*
X115823905Y-82240381D02*
X115823905Y-81240381D01*
X116062000Y-81240381D01*
X116204858Y-81288000D01*
X116300096Y-81383238D01*
X116347715Y-81478476D01*
X116395334Y-81668952D01*
X116395334Y-81811810D01*
X116347715Y-82002286D01*
X116300096Y-82097524D01*
X116204858Y-82192762D01*
X116062000Y-82240381D01*
X115823905Y-82240381D01*
D19*
X114028667Y-79655143D02*
X113795333Y-79226571D01*
X113628667Y-79655143D02*
X113628667Y-78755143D01*
X113895333Y-78755143D01*
X113962000Y-78798000D01*
X113995333Y-78840857D01*
X114028667Y-78926571D01*
X114028667Y-79055143D01*
X113995333Y-79140857D01*
X113962000Y-79183714D01*
X113895333Y-79226571D01*
X113628667Y-79226571D01*
X114162000Y-79740857D02*
X114695333Y-79740857D01*
X115262000Y-79569429D02*
X115228666Y-79612286D01*
X115128666Y-79655143D01*
X115062000Y-79655143D01*
X114962000Y-79612286D01*
X114895333Y-79526571D01*
X114862000Y-79440857D01*
X114828666Y-79269429D01*
X114828666Y-79140857D01*
X114862000Y-78969429D01*
X114895333Y-78883714D01*
X114962000Y-78798000D01*
X115062000Y-78755143D01*
X115128666Y-78755143D01*
X115228666Y-78798000D01*
X115262000Y-78840857D01*
X115895333Y-79655143D02*
X115562000Y-79655143D01*
X115562000Y-78755143D01*
X116128667Y-79655143D02*
X116128667Y-78755143D01*
X116528667Y-79655143D02*
X116228667Y-79140857D01*
X116528667Y-78755143D02*
X116128667Y-79269429D01*
D17*
X114300096Y-76208000D02*
X114204858Y-76160381D01*
X114062001Y-76160381D01*
X113919143Y-76208000D01*
X113823905Y-76303238D01*
X113776286Y-76398476D01*
X113728667Y-76588952D01*
X113728667Y-76731810D01*
X113776286Y-76922286D01*
X113823905Y-77017524D01*
X113919143Y-77112762D01*
X114062001Y-77160381D01*
X114157239Y-77160381D01*
X114300096Y-77112762D01*
X114347715Y-77065143D01*
X114347715Y-76731810D01*
X114157239Y-76731810D01*
X114776286Y-77160381D02*
X114776286Y-76160381D01*
X115347715Y-77160381D01*
X115347715Y-76160381D01*
X115823905Y-77160381D02*
X115823905Y-76160381D01*
X116062000Y-76160381D01*
X116204858Y-76208000D01*
X116300096Y-76303238D01*
X116347715Y-76398476D01*
X116395334Y-76588952D01*
X116395334Y-76731810D01*
X116347715Y-76922286D01*
X116300096Y-77017524D01*
X116204858Y-77112762D01*
X116062000Y-77160381D01*
X115823905Y-77160381D01*
X114300096Y-73668000D02*
X114204858Y-73620381D01*
X114062001Y-73620381D01*
X113919143Y-73668000D01*
X113823905Y-73763238D01*
X113776286Y-73858476D01*
X113728667Y-74048952D01*
X113728667Y-74191810D01*
X113776286Y-74382286D01*
X113823905Y-74477524D01*
X113919143Y-74572762D01*
X114062001Y-74620381D01*
X114157239Y-74620381D01*
X114300096Y-74572762D01*
X114347715Y-74525143D01*
X114347715Y-74191810D01*
X114157239Y-74191810D01*
X114776286Y-74620381D02*
X114776286Y-73620381D01*
X115347715Y-74620381D01*
X115347715Y-73620381D01*
X115823905Y-74620381D02*
X115823905Y-73620381D01*
X116062000Y-73620381D01*
X116204858Y-73668000D01*
X116300096Y-73763238D01*
X116347715Y-73858476D01*
X116395334Y-74048952D01*
X116395334Y-74191810D01*
X116347715Y-74382286D01*
X116300096Y-74477524D01*
X116204858Y-74572762D01*
X116062000Y-74620381D01*
X115823905Y-74620381D01*
X114300096Y-68588000D02*
X114204858Y-68540381D01*
X114062001Y-68540381D01*
X113919143Y-68588000D01*
X113823905Y-68683238D01*
X113776286Y-68778476D01*
X113728667Y-68968952D01*
X113728667Y-69111810D01*
X113776286Y-69302286D01*
X113823905Y-69397524D01*
X113919143Y-69492762D01*
X114062001Y-69540381D01*
X114157239Y-69540381D01*
X114300096Y-69492762D01*
X114347715Y-69445143D01*
X114347715Y-69111810D01*
X114157239Y-69111810D01*
X114776286Y-69540381D02*
X114776286Y-68540381D01*
X115347715Y-69540381D01*
X115347715Y-68540381D01*
X115823905Y-69540381D02*
X115823905Y-68540381D01*
X116062000Y-68540381D01*
X116204858Y-68588000D01*
X116300096Y-68683238D01*
X116347715Y-68778476D01*
X116395334Y-68968952D01*
X116395334Y-69111810D01*
X116347715Y-69302286D01*
X116300096Y-69397524D01*
X116204858Y-69492762D01*
X116062000Y-69540381D01*
X115823905Y-69540381D01*
D13*
X114617572Y-72080381D02*
X114450905Y-71604190D01*
X114331858Y-72080381D02*
X114331858Y-71080381D01*
X114522334Y-71080381D01*
X114569953Y-71128000D01*
X114593762Y-71175619D01*
X114617572Y-71270857D01*
X114617572Y-71413714D01*
X114593762Y-71508952D01*
X114569953Y-71556571D01*
X114522334Y-71604190D01*
X114331858Y-71604190D01*
X114784239Y-71080381D02*
X115117572Y-72080381D01*
X115117572Y-71080381D02*
X114784239Y-72080381D01*
X115308048Y-72080381D02*
X115308048Y-71080381D01*
X115427095Y-71080381D01*
X115498524Y-71128000D01*
X115546143Y-71223238D01*
X115569952Y-71318476D01*
X115593762Y-71508952D01*
X115593762Y-71651810D01*
X115569952Y-71842286D01*
X115546143Y-71937524D01*
X115498524Y-72032762D01*
X115427095Y-72080381D01*
X115308048Y-72080381D01*
X115903286Y-71080381D02*
X115950905Y-71080381D01*
X115998524Y-71128000D01*
X116022333Y-71175619D01*
X116046143Y-71270857D01*
X116069952Y-71461333D01*
X116069952Y-71699429D01*
X116046143Y-71889905D01*
X116022333Y-71985143D01*
X115998524Y-72032762D01*
X115950905Y-72080381D01*
X115903286Y-72080381D01*
X115855667Y-72032762D01*
X115831857Y-71985143D01*
X115808048Y-71889905D01*
X115784238Y-71699429D01*
X115784238Y-71461333D01*
X115808048Y-71270857D01*
X115831857Y-71175619D01*
X115855667Y-71128000D01*
X115903286Y-71080381D01*
D17*
X114300096Y-66048000D02*
X114204858Y-66000381D01*
X114062001Y-66000381D01*
X113919143Y-66048000D01*
X113823905Y-66143238D01*
X113776286Y-66238476D01*
X113728667Y-66428952D01*
X113728667Y-66571810D01*
X113776286Y-66762286D01*
X113823905Y-66857524D01*
X113919143Y-66952762D01*
X114062001Y-67000381D01*
X114157239Y-67000381D01*
X114300096Y-66952762D01*
X114347715Y-66905143D01*
X114347715Y-66571810D01*
X114157239Y-66571810D01*
X114776286Y-67000381D02*
X114776286Y-66000381D01*
X115347715Y-67000381D01*
X115347715Y-66000381D01*
X115823905Y-67000381D02*
X115823905Y-66000381D01*
X116062000Y-66000381D01*
X116204858Y-66048000D01*
X116300096Y-66143238D01*
X116347715Y-66238476D01*
X116395334Y-66428952D01*
X116395334Y-66571810D01*
X116347715Y-66762286D01*
X116300096Y-66857524D01*
X116204858Y-66952762D01*
X116062000Y-67000381D01*
X115823905Y-67000381D01*
X114300096Y-63508000D02*
X114204858Y-63460381D01*
X114062001Y-63460381D01*
X113919143Y-63508000D01*
X113823905Y-63603238D01*
X113776286Y-63698476D01*
X113728667Y-63888952D01*
X113728667Y-64031810D01*
X113776286Y-64222286D01*
X113823905Y-64317524D01*
X113919143Y-64412762D01*
X114062001Y-64460381D01*
X114157239Y-64460381D01*
X114300096Y-64412762D01*
X114347715Y-64365143D01*
X114347715Y-64031810D01*
X114157239Y-64031810D01*
X114776286Y-64460381D02*
X114776286Y-63460381D01*
X115347715Y-64460381D01*
X115347715Y-63460381D01*
X115823905Y-64460381D02*
X115823905Y-63460381D01*
X116062000Y-63460381D01*
X116204858Y-63508000D01*
X116300096Y-63603238D01*
X116347715Y-63698476D01*
X116395334Y-63888952D01*
X116395334Y-64031810D01*
X116347715Y-64222286D01*
X116300096Y-64317524D01*
X116204858Y-64412762D01*
X116062000Y-64460381D01*
X115823905Y-64460381D01*
D13*
X114189001Y-61539429D02*
X114569953Y-61539429D01*
X114379477Y-61920381D02*
X114379477Y-61158476D01*
X114760430Y-60920381D02*
X115069953Y-60920381D01*
X114903287Y-61301333D01*
X114974715Y-61301333D01*
X115022334Y-61348952D01*
X115046144Y-61396571D01*
X115069953Y-61491810D01*
X115069953Y-61729905D01*
X115046144Y-61825143D01*
X115022334Y-61872762D01*
X114974715Y-61920381D01*
X114831858Y-61920381D01*
X114784239Y-61872762D01*
X114760430Y-61825143D01*
X115284239Y-61825143D02*
X115308048Y-61872762D01*
X115284239Y-61920381D01*
X115260429Y-61872762D01*
X115284239Y-61825143D01*
X115284239Y-61920381D01*
X115474715Y-60920381D02*
X115784238Y-60920381D01*
X115617572Y-61301333D01*
X115689000Y-61301333D01*
X115736619Y-61348952D01*
X115760429Y-61396571D01*
X115784238Y-61491810D01*
X115784238Y-61729905D01*
X115760429Y-61825143D01*
X115736619Y-61872762D01*
X115689000Y-61920381D01*
X115546143Y-61920381D01*
X115498524Y-61872762D01*
X115474715Y-61825143D01*
X115927095Y-60920381D02*
X116093762Y-61920381D01*
X116260428Y-60920381D01*
D17*
X193929096Y-109228000D02*
X193833858Y-109180381D01*
X193691001Y-109180381D01*
X193548143Y-109228000D01*
X193452905Y-109323238D01*
X193405286Y-109418476D01*
X193357667Y-109608952D01*
X193357667Y-109751810D01*
X193405286Y-109942286D01*
X193452905Y-110037524D01*
X193548143Y-110132762D01*
X193691001Y-110180381D01*
X193786239Y-110180381D01*
X193929096Y-110132762D01*
X193976715Y-110085143D01*
X193976715Y-109751810D01*
X193786239Y-109751810D01*
X194405286Y-110180381D02*
X194405286Y-109180381D01*
X194976715Y-110180381D01*
X194976715Y-109180381D01*
X195452905Y-110180381D02*
X195452905Y-109180381D01*
X195691000Y-109180381D01*
X195833858Y-109228000D01*
X195929096Y-109323238D01*
X195976715Y-109418476D01*
X196024334Y-109608952D01*
X196024334Y-109751810D01*
X195976715Y-109942286D01*
X195929096Y-110037524D01*
X195833858Y-110132762D01*
X195691000Y-110180381D01*
X195452905Y-110180381D01*
X193929096Y-106688000D02*
X193833858Y-106640381D01*
X193691001Y-106640381D01*
X193548143Y-106688000D01*
X193452905Y-106783238D01*
X193405286Y-106878476D01*
X193357667Y-107068952D01*
X193357667Y-107211810D01*
X193405286Y-107402286D01*
X193452905Y-107497524D01*
X193548143Y-107592762D01*
X193691001Y-107640381D01*
X193786239Y-107640381D01*
X193929096Y-107592762D01*
X193976715Y-107545143D01*
X193976715Y-107211810D01*
X193786239Y-107211810D01*
X194405286Y-107640381D02*
X194405286Y-106640381D01*
X194976715Y-107640381D01*
X194976715Y-106640381D01*
X195452905Y-107640381D02*
X195452905Y-106640381D01*
X195691000Y-106640381D01*
X195833858Y-106688000D01*
X195929096Y-106783238D01*
X195976715Y-106878476D01*
X196024334Y-107068952D01*
X196024334Y-107211810D01*
X195976715Y-107402286D01*
X195929096Y-107497524D01*
X195833858Y-107592762D01*
X195691000Y-107640381D01*
X195452905Y-107640381D01*
D20*
X193276714Y-104155143D02*
X193791000Y-104155143D01*
X193533857Y-105055143D02*
X193533857Y-104155143D01*
X193876714Y-105140857D02*
X194562428Y-105140857D01*
X195076714Y-104583714D02*
X194776714Y-104583714D01*
X194776714Y-105055143D02*
X194776714Y-104155143D01*
X195205285Y-104155143D01*
X196019571Y-105055143D02*
X195505286Y-105055143D01*
X195762428Y-105055143D02*
X195762428Y-104155143D01*
X195676714Y-104283714D01*
X195591000Y-104369429D01*
X195505286Y-104412286D01*
X193212429Y-101615143D02*
X193726715Y-101615143D01*
X193469572Y-102515143D02*
X193469572Y-101615143D01*
X193812429Y-102600857D02*
X194498143Y-102600857D01*
X195226714Y-102429429D02*
X195183857Y-102472286D01*
X195055286Y-102515143D01*
X194969572Y-102515143D01*
X194841000Y-102472286D01*
X194755286Y-102386571D01*
X194712429Y-102300857D01*
X194669572Y-102129429D01*
X194669572Y-102000857D01*
X194712429Y-101829429D01*
X194755286Y-101743714D01*
X194841000Y-101658000D01*
X194969572Y-101615143D01*
X195055286Y-101615143D01*
X195183857Y-101658000D01*
X195226714Y-101700857D01*
X195569572Y-101700857D02*
X195612429Y-101658000D01*
X195698143Y-101615143D01*
X195912429Y-101615143D01*
X195998143Y-101658000D01*
X196041000Y-101700857D01*
X196083857Y-101786571D01*
X196083857Y-101872286D01*
X196041000Y-102000857D01*
X195526714Y-102515143D01*
X196083857Y-102515143D01*
D17*
X193929096Y-99068000D02*
X193833858Y-99020381D01*
X193691001Y-99020381D01*
X193548143Y-99068000D01*
X193452905Y-99163238D01*
X193405286Y-99258476D01*
X193357667Y-99448952D01*
X193357667Y-99591810D01*
X193405286Y-99782286D01*
X193452905Y-99877524D01*
X193548143Y-99972762D01*
X193691001Y-100020381D01*
X193786239Y-100020381D01*
X193929096Y-99972762D01*
X193976715Y-99925143D01*
X193976715Y-99591810D01*
X193786239Y-99591810D01*
X194405286Y-100020381D02*
X194405286Y-99020381D01*
X194976715Y-100020381D01*
X194976715Y-99020381D01*
X195452905Y-100020381D02*
X195452905Y-99020381D01*
X195691000Y-99020381D01*
X195833858Y-99068000D01*
X195929096Y-99163238D01*
X195976715Y-99258476D01*
X196024334Y-99448952D01*
X196024334Y-99591810D01*
X195976715Y-99782286D01*
X195929096Y-99877524D01*
X195833858Y-99972762D01*
X195691000Y-100020381D01*
X195452905Y-100020381D01*
X193802096Y-96528000D02*
X193706858Y-96480381D01*
X193564001Y-96480381D01*
X193421143Y-96528000D01*
X193325905Y-96623238D01*
X193278286Y-96718476D01*
X193230667Y-96908952D01*
X193230667Y-97051810D01*
X193278286Y-97242286D01*
X193325905Y-97337524D01*
X193421143Y-97432762D01*
X193564001Y-97480381D01*
X193659239Y-97480381D01*
X193802096Y-97432762D01*
X193849715Y-97385143D01*
X193849715Y-97051810D01*
X193659239Y-97051810D01*
X194278286Y-97480381D02*
X194278286Y-96480381D01*
X194849715Y-97480381D01*
X194849715Y-96480381D01*
X195325905Y-97480381D02*
X195325905Y-96480381D01*
X195564000Y-96480381D01*
X195706858Y-96528000D01*
X195802096Y-96623238D01*
X195849715Y-96718476D01*
X195897334Y-96908952D01*
X195897334Y-97051810D01*
X195849715Y-97242286D01*
X195802096Y-97337524D01*
X195706858Y-97432762D01*
X195564000Y-97480381D01*
X195325905Y-97480381D01*
X193929096Y-93988000D02*
X193833858Y-93940381D01*
X193691001Y-93940381D01*
X193548143Y-93988000D01*
X193452905Y-94083238D01*
X193405286Y-94178476D01*
X193357667Y-94368952D01*
X193357667Y-94511810D01*
X193405286Y-94702286D01*
X193452905Y-94797524D01*
X193548143Y-94892762D01*
X193691001Y-94940381D01*
X193786239Y-94940381D01*
X193929096Y-94892762D01*
X193976715Y-94845143D01*
X193976715Y-94511810D01*
X193786239Y-94511810D01*
X194405286Y-94940381D02*
X194405286Y-93940381D01*
X194976715Y-94940381D01*
X194976715Y-93940381D01*
X195452905Y-94940381D02*
X195452905Y-93940381D01*
X195691000Y-93940381D01*
X195833858Y-93988000D01*
X195929096Y-94083238D01*
X195976715Y-94178476D01*
X196024334Y-94368952D01*
X196024334Y-94511810D01*
X195976715Y-94702286D01*
X195929096Y-94797524D01*
X195833858Y-94892762D01*
X195691000Y-94940381D01*
X195452905Y-94940381D01*
X193929096Y-91448000D02*
X193833858Y-91400381D01*
X193691001Y-91400381D01*
X193548143Y-91448000D01*
X193452905Y-91543238D01*
X193405286Y-91638476D01*
X193357667Y-91828952D01*
X193357667Y-91971810D01*
X193405286Y-92162286D01*
X193452905Y-92257524D01*
X193548143Y-92352762D01*
X193691001Y-92400381D01*
X193786239Y-92400381D01*
X193929096Y-92352762D01*
X193976715Y-92305143D01*
X193976715Y-91971810D01*
X193786239Y-91971810D01*
X194405286Y-92400381D02*
X194405286Y-91400381D01*
X194976715Y-92400381D01*
X194976715Y-91400381D01*
X195452905Y-92400381D02*
X195452905Y-91400381D01*
X195691000Y-91400381D01*
X195833858Y-91448000D01*
X195929096Y-91543238D01*
X195976715Y-91638476D01*
X196024334Y-91828952D01*
X196024334Y-91971810D01*
X195976715Y-92162286D01*
X195929096Y-92257524D01*
X195833858Y-92352762D01*
X195691000Y-92400381D01*
X195452905Y-92400381D01*
X193929096Y-88908000D02*
X193833858Y-88860381D01*
X193691001Y-88860381D01*
X193548143Y-88908000D01*
X193452905Y-89003238D01*
X193405286Y-89098476D01*
X193357667Y-89288952D01*
X193357667Y-89431810D01*
X193405286Y-89622286D01*
X193452905Y-89717524D01*
X193548143Y-89812762D01*
X193691001Y-89860381D01*
X193786239Y-89860381D01*
X193929096Y-89812762D01*
X193976715Y-89765143D01*
X193976715Y-89431810D01*
X193786239Y-89431810D01*
X194405286Y-89860381D02*
X194405286Y-88860381D01*
X194976715Y-89860381D01*
X194976715Y-88860381D01*
X195452905Y-89860381D02*
X195452905Y-88860381D01*
X195691000Y-88860381D01*
X195833858Y-88908000D01*
X195929096Y-89003238D01*
X195976715Y-89098476D01*
X196024334Y-89288952D01*
X196024334Y-89431810D01*
X195976715Y-89622286D01*
X195929096Y-89717524D01*
X195833858Y-89812762D01*
X195691000Y-89860381D01*
X195452905Y-89860381D01*
X193929096Y-86368000D02*
X193833858Y-86320381D01*
X193691001Y-86320381D01*
X193548143Y-86368000D01*
X193452905Y-86463238D01*
X193405286Y-86558476D01*
X193357667Y-86748952D01*
X193357667Y-86891810D01*
X193405286Y-87082286D01*
X193452905Y-87177524D01*
X193548143Y-87272762D01*
X193691001Y-87320381D01*
X193786239Y-87320381D01*
X193929096Y-87272762D01*
X193976715Y-87225143D01*
X193976715Y-86891810D01*
X193786239Y-86891810D01*
X194405286Y-87320381D02*
X194405286Y-86320381D01*
X194976715Y-87320381D01*
X194976715Y-86320381D01*
X195452905Y-87320381D02*
X195452905Y-86320381D01*
X195691000Y-86320381D01*
X195833858Y-86368000D01*
X195929096Y-86463238D01*
X195976715Y-86558476D01*
X196024334Y-86748952D01*
X196024334Y-86891810D01*
X195976715Y-87082286D01*
X195929096Y-87177524D01*
X195833858Y-87272762D01*
X195691000Y-87320381D01*
X195452905Y-87320381D01*
X193929096Y-83828000D02*
X193833858Y-83780381D01*
X193691001Y-83780381D01*
X193548143Y-83828000D01*
X193452905Y-83923238D01*
X193405286Y-84018476D01*
X193357667Y-84208952D01*
X193357667Y-84351810D01*
X193405286Y-84542286D01*
X193452905Y-84637524D01*
X193548143Y-84732762D01*
X193691001Y-84780381D01*
X193786239Y-84780381D01*
X193929096Y-84732762D01*
X193976715Y-84685143D01*
X193976715Y-84351810D01*
X193786239Y-84351810D01*
X194405286Y-84780381D02*
X194405286Y-83780381D01*
X194976715Y-84780381D01*
X194976715Y-83780381D01*
X195452905Y-84780381D02*
X195452905Y-83780381D01*
X195691000Y-83780381D01*
X195833858Y-83828000D01*
X195929096Y-83923238D01*
X195976715Y-84018476D01*
X196024334Y-84208952D01*
X196024334Y-84351810D01*
X195976715Y-84542286D01*
X195929096Y-84637524D01*
X195833858Y-84732762D01*
X195691000Y-84780381D01*
X195452905Y-84780381D01*
D21*
X193786239Y-81408000D02*
X193713858Y-81371810D01*
X193605286Y-81371810D01*
X193496715Y-81408000D01*
X193424334Y-81480381D01*
X193388143Y-81552762D01*
X193351953Y-81697524D01*
X193351953Y-81806095D01*
X193388143Y-81950857D01*
X193424334Y-82023238D01*
X193496715Y-82095619D01*
X193605286Y-82131810D01*
X193677667Y-82131810D01*
X193786239Y-82095619D01*
X193822429Y-82059429D01*
X193822429Y-81806095D01*
X193677667Y-81806095D01*
X194148143Y-82131810D02*
X194148143Y-81371810D01*
X194582429Y-82131810D01*
X194582429Y-81371810D01*
X194944333Y-82131810D02*
X194944333Y-81371810D01*
X195125286Y-81371810D01*
X195233857Y-81408000D01*
X195306238Y-81480381D01*
X195342429Y-81552762D01*
X195378619Y-81697524D01*
X195378619Y-81806095D01*
X195342429Y-81950857D01*
X195306238Y-82023238D01*
X195233857Y-82095619D01*
X195125286Y-82131810D01*
X194944333Y-82131810D01*
X195668143Y-81914667D02*
X196030048Y-81914667D01*
X195595762Y-82131810D02*
X195849095Y-81371810D01*
X196102429Y-82131810D01*
X193786239Y-78868000D02*
X193713858Y-78831810D01*
X193605286Y-78831810D01*
X193496715Y-78868000D01*
X193424334Y-78940381D01*
X193388143Y-79012762D01*
X193351953Y-79157524D01*
X193351953Y-79266095D01*
X193388143Y-79410857D01*
X193424334Y-79483238D01*
X193496715Y-79555619D01*
X193605286Y-79591810D01*
X193677667Y-79591810D01*
X193786239Y-79555619D01*
X193822429Y-79519429D01*
X193822429Y-79266095D01*
X193677667Y-79266095D01*
X194148143Y-79591810D02*
X194148143Y-78831810D01*
X194582429Y-79591810D01*
X194582429Y-78831810D01*
X194944333Y-79591810D02*
X194944333Y-78831810D01*
X195125286Y-78831810D01*
X195233857Y-78868000D01*
X195306238Y-78940381D01*
X195342429Y-79012762D01*
X195378619Y-79157524D01*
X195378619Y-79266095D01*
X195342429Y-79410857D01*
X195306238Y-79483238D01*
X195233857Y-79555619D01*
X195125286Y-79591810D01*
X194944333Y-79591810D01*
X195668143Y-79374667D02*
X196030048Y-79374667D01*
X195595762Y-79591810D02*
X195849095Y-78831810D01*
X196102429Y-79591810D01*
X193786239Y-76328000D02*
X193713858Y-76291810D01*
X193605286Y-76291810D01*
X193496715Y-76328000D01*
X193424334Y-76400381D01*
X193388143Y-76472762D01*
X193351953Y-76617524D01*
X193351953Y-76726095D01*
X193388143Y-76870857D01*
X193424334Y-76943238D01*
X193496715Y-77015619D01*
X193605286Y-77051810D01*
X193677667Y-77051810D01*
X193786239Y-77015619D01*
X193822429Y-76979429D01*
X193822429Y-76726095D01*
X193677667Y-76726095D01*
X194148143Y-77051810D02*
X194148143Y-76291810D01*
X194582429Y-77051810D01*
X194582429Y-76291810D01*
X194944333Y-77051810D02*
X194944333Y-76291810D01*
X195125286Y-76291810D01*
X195233857Y-76328000D01*
X195306238Y-76400381D01*
X195342429Y-76472762D01*
X195378619Y-76617524D01*
X195378619Y-76726095D01*
X195342429Y-76870857D01*
X195306238Y-76943238D01*
X195233857Y-77015619D01*
X195125286Y-77051810D01*
X194944333Y-77051810D01*
X195668143Y-76834667D02*
X196030048Y-76834667D01*
X195595762Y-77051810D02*
X195849095Y-76291810D01*
X196102429Y-77051810D01*
X193786239Y-73788000D02*
X193713858Y-73751810D01*
X193605286Y-73751810D01*
X193496715Y-73788000D01*
X193424334Y-73860381D01*
X193388143Y-73932762D01*
X193351953Y-74077524D01*
X193351953Y-74186095D01*
X193388143Y-74330857D01*
X193424334Y-74403238D01*
X193496715Y-74475619D01*
X193605286Y-74511810D01*
X193677667Y-74511810D01*
X193786239Y-74475619D01*
X193822429Y-74439429D01*
X193822429Y-74186095D01*
X193677667Y-74186095D01*
X194148143Y-74511810D02*
X194148143Y-73751810D01*
X194582429Y-74511810D01*
X194582429Y-73751810D01*
X194944333Y-74511810D02*
X194944333Y-73751810D01*
X195125286Y-73751810D01*
X195233857Y-73788000D01*
X195306238Y-73860381D01*
X195342429Y-73932762D01*
X195378619Y-74077524D01*
X195378619Y-74186095D01*
X195342429Y-74330857D01*
X195306238Y-74403238D01*
X195233857Y-74475619D01*
X195125286Y-74511810D01*
X194944333Y-74511810D01*
X195668143Y-74294667D02*
X196030048Y-74294667D01*
X195595762Y-74511810D02*
X195849095Y-73751810D01*
X196102429Y-74511810D01*
X193786239Y-71248000D02*
X193713858Y-71211810D01*
X193605286Y-71211810D01*
X193496715Y-71248000D01*
X193424334Y-71320381D01*
X193388143Y-71392762D01*
X193351953Y-71537524D01*
X193351953Y-71646095D01*
X193388143Y-71790857D01*
X193424334Y-71863238D01*
X193496715Y-71935619D01*
X193605286Y-71971810D01*
X193677667Y-71971810D01*
X193786239Y-71935619D01*
X193822429Y-71899429D01*
X193822429Y-71646095D01*
X193677667Y-71646095D01*
X194148143Y-71971810D02*
X194148143Y-71211810D01*
X194582429Y-71971810D01*
X194582429Y-71211810D01*
X194944333Y-71971810D02*
X194944333Y-71211810D01*
X195125286Y-71211810D01*
X195233857Y-71248000D01*
X195306238Y-71320381D01*
X195342429Y-71392762D01*
X195378619Y-71537524D01*
X195378619Y-71646095D01*
X195342429Y-71790857D01*
X195306238Y-71863238D01*
X195233857Y-71935619D01*
X195125286Y-71971810D01*
X194944333Y-71971810D01*
X195668143Y-71754667D02*
X196030048Y-71754667D01*
X195595762Y-71971810D02*
X195849095Y-71211810D01*
X196102429Y-71971810D01*
X193786239Y-68708000D02*
X193713858Y-68671810D01*
X193605286Y-68671810D01*
X193496715Y-68708000D01*
X193424334Y-68780381D01*
X193388143Y-68852762D01*
X193351953Y-68997524D01*
X193351953Y-69106095D01*
X193388143Y-69250857D01*
X193424334Y-69323238D01*
X193496715Y-69395619D01*
X193605286Y-69431810D01*
X193677667Y-69431810D01*
X193786239Y-69395619D01*
X193822429Y-69359429D01*
X193822429Y-69106095D01*
X193677667Y-69106095D01*
X194148143Y-69431810D02*
X194148143Y-68671810D01*
X194582429Y-69431810D01*
X194582429Y-68671810D01*
X194944333Y-69431810D02*
X194944333Y-68671810D01*
X195125286Y-68671810D01*
X195233857Y-68708000D01*
X195306238Y-68780381D01*
X195342429Y-68852762D01*
X195378619Y-68997524D01*
X195378619Y-69106095D01*
X195342429Y-69250857D01*
X195306238Y-69323238D01*
X195233857Y-69395619D01*
X195125286Y-69431810D01*
X194944333Y-69431810D01*
X195668143Y-69214667D02*
X196030048Y-69214667D01*
X195595762Y-69431810D02*
X195849095Y-68671810D01*
X196102429Y-69431810D01*
D13*
X193274334Y-66254381D02*
X193393381Y-67254381D01*
X193488619Y-66540095D01*
X193583857Y-67254381D01*
X193702905Y-66254381D01*
X193869572Y-66968667D02*
X194107667Y-66968667D01*
X193821953Y-67254381D02*
X193988620Y-66254381D01*
X194155286Y-67254381D01*
X194321953Y-67254381D02*
X194321953Y-66254381D01*
X194607667Y-67254381D02*
X194393381Y-66682952D01*
X194607667Y-66254381D02*
X194321953Y-66825810D01*
X194821953Y-66730571D02*
X194988619Y-66730571D01*
X195060048Y-67254381D02*
X194821953Y-67254381D01*
X194821953Y-66254381D01*
X195060048Y-66254381D01*
X195274334Y-66254381D02*
X195274334Y-67063905D01*
X195298143Y-67159143D01*
X195321953Y-67206762D01*
X195369572Y-67254381D01*
X195464810Y-67254381D01*
X195512429Y-67206762D01*
X195536238Y-67159143D01*
X195560048Y-67063905D01*
X195560048Y-66254381D01*
X195798144Y-67254381D02*
X195798144Y-66254381D01*
X195988620Y-66254381D01*
X196036239Y-66302000D01*
X196060048Y-66349619D01*
X196083858Y-66444857D01*
X196083858Y-66587714D01*
X196060048Y-66682952D01*
X196036239Y-66730571D01*
X195988620Y-66778190D01*
X195798144Y-66778190D01*
D17*
X193929096Y-64016000D02*
X193833858Y-63968381D01*
X193691001Y-63968381D01*
X193548143Y-64016000D01*
X193452905Y-64111238D01*
X193405286Y-64206476D01*
X193357667Y-64396952D01*
X193357667Y-64539810D01*
X193405286Y-64730286D01*
X193452905Y-64825524D01*
X193548143Y-64920762D01*
X193691001Y-64968381D01*
X193786239Y-64968381D01*
X193929096Y-64920762D01*
X193976715Y-64873143D01*
X193976715Y-64539810D01*
X193786239Y-64539810D01*
X194405286Y-64968381D02*
X194405286Y-63968381D01*
X194976715Y-64968381D01*
X194976715Y-63968381D01*
X195452905Y-64968381D02*
X195452905Y-63968381D01*
X195691000Y-63968381D01*
X195833858Y-64016000D01*
X195929096Y-64111238D01*
X195976715Y-64206476D01*
X196024334Y-64396952D01*
X196024334Y-64539810D01*
X195976715Y-64730286D01*
X195929096Y-64825524D01*
X195833858Y-64920762D01*
X195691000Y-64968381D01*
X195452905Y-64968381D01*
X193278286Y-61539429D02*
X194040191Y-61539429D01*
X193659239Y-61920381D02*
X193659239Y-61158476D01*
X194992572Y-60920381D02*
X194516381Y-60920381D01*
X194468762Y-61396571D01*
X194516381Y-61348952D01*
X194611619Y-61301333D01*
X194849715Y-61301333D01*
X194944953Y-61348952D01*
X194992572Y-61396571D01*
X195040191Y-61491810D01*
X195040191Y-61729905D01*
X194992572Y-61825143D01*
X194944953Y-61872762D01*
X194849715Y-61920381D01*
X194611619Y-61920381D01*
X194516381Y-61872762D01*
X194468762Y-61825143D01*
X195325905Y-60920381D02*
X195659238Y-61920381D01*
X195992572Y-60920381D01*
D13*
X186122572Y-109053381D02*
X186408286Y-109053381D01*
X186265429Y-110053381D02*
X186265429Y-109053381D01*
X186455905Y-110148619D02*
X186836857Y-110148619D01*
X187241619Y-109958143D02*
X187217809Y-110005762D01*
X187146381Y-110053381D01*
X187098762Y-110053381D01*
X187027333Y-110005762D01*
X186979714Y-109910524D01*
X186955905Y-109815286D01*
X186932095Y-109624810D01*
X186932095Y-109481952D01*
X186955905Y-109291476D01*
X186979714Y-109196238D01*
X187027333Y-109101000D01*
X187098762Y-109053381D01*
X187146381Y-109053381D01*
X187217809Y-109101000D01*
X187241619Y-109148619D01*
X187551143Y-109053381D02*
X187598762Y-109053381D01*
X187646381Y-109101000D01*
X187670190Y-109148619D01*
X187694000Y-109243857D01*
X187717809Y-109434333D01*
X187717809Y-109672429D01*
X187694000Y-109862905D01*
X187670190Y-109958143D01*
X187646381Y-110005762D01*
X187598762Y-110053381D01*
X187551143Y-110053381D01*
X187503524Y-110005762D01*
X187479714Y-109958143D01*
X187455905Y-109862905D01*
X187432095Y-109672429D01*
X187432095Y-109434333D01*
X187455905Y-109243857D01*
X187479714Y-109148619D01*
X187503524Y-109101000D01*
X187551143Y-109053381D01*
X186031287Y-106640381D02*
X186317001Y-106640381D01*
X186174144Y-107640381D02*
X186174144Y-106640381D01*
X186364620Y-107735619D02*
X186745572Y-107735619D01*
X187031286Y-107116571D02*
X186864620Y-107116571D01*
X186864620Y-107640381D02*
X186864620Y-106640381D01*
X187102715Y-106640381D01*
X187269381Y-106735619D02*
X187293191Y-106688000D01*
X187340810Y-106640381D01*
X187459857Y-106640381D01*
X187507476Y-106688000D01*
X187531286Y-106735619D01*
X187555095Y-106830857D01*
X187555095Y-106926095D01*
X187531286Y-107068952D01*
X187245572Y-107640381D01*
X187555095Y-107640381D01*
X186031287Y-104100381D02*
X186317001Y-104100381D01*
X186174144Y-105100381D02*
X186174144Y-104100381D01*
X186364620Y-105195619D02*
X186745572Y-105195619D01*
X187031286Y-104576571D02*
X186864620Y-104576571D01*
X186864620Y-105100381D02*
X186864620Y-104100381D01*
X187102715Y-104100381D01*
X187245572Y-104100381D02*
X187555095Y-104100381D01*
X187388429Y-104481333D01*
X187459857Y-104481333D01*
X187507476Y-104528952D01*
X187531286Y-104576571D01*
X187555095Y-104671810D01*
X187555095Y-104909905D01*
X187531286Y-105005143D01*
X187507476Y-105052762D01*
X187459857Y-105100381D01*
X187317000Y-105100381D01*
X187269381Y-105052762D01*
X187245572Y-105005143D01*
X186031287Y-101560381D02*
X186317001Y-101560381D01*
X186174144Y-102560381D02*
X186174144Y-101560381D01*
X186364620Y-102655619D02*
X186745572Y-102655619D01*
X187031286Y-102036571D02*
X186864620Y-102036571D01*
X186864620Y-102560381D02*
X186864620Y-101560381D01*
X187102715Y-101560381D01*
X187388429Y-101560381D02*
X187436048Y-101560381D01*
X187483667Y-101608000D01*
X187507476Y-101655619D01*
X187531286Y-101750857D01*
X187555095Y-101941333D01*
X187555095Y-102179429D01*
X187531286Y-102369905D01*
X187507476Y-102465143D01*
X187483667Y-102512762D01*
X187436048Y-102560381D01*
X187388429Y-102560381D01*
X187340810Y-102512762D01*
X187317000Y-102465143D01*
X187293191Y-102369905D01*
X187269381Y-102179429D01*
X187269381Y-101941333D01*
X187293191Y-101750857D01*
X187317000Y-101655619D01*
X187340810Y-101608000D01*
X187388429Y-101560381D01*
X186122572Y-99020381D02*
X186408286Y-99020381D01*
X186265429Y-100020381D02*
X186265429Y-99020381D01*
X186455905Y-100115619D02*
X186836857Y-100115619D01*
X187241619Y-99925143D02*
X187217809Y-99972762D01*
X187146381Y-100020381D01*
X187098762Y-100020381D01*
X187027333Y-99972762D01*
X186979714Y-99877524D01*
X186955905Y-99782286D01*
X186932095Y-99591810D01*
X186932095Y-99448952D01*
X186955905Y-99258476D01*
X186979714Y-99163238D01*
X187027333Y-99068000D01*
X187098762Y-99020381D01*
X187146381Y-99020381D01*
X187217809Y-99068000D01*
X187241619Y-99115619D01*
X187717809Y-100020381D02*
X187432095Y-100020381D01*
X187574952Y-100020381D02*
X187574952Y-99020381D01*
X187527333Y-99163238D01*
X187479714Y-99258476D01*
X187432095Y-99306095D01*
X185356620Y-97512143D02*
X185332810Y-97559762D01*
X185261382Y-97607381D01*
X185213763Y-97607381D01*
X185142334Y-97559762D01*
X185094715Y-97464524D01*
X185070906Y-97369286D01*
X185047096Y-97178810D01*
X185047096Y-97035952D01*
X185070906Y-96845476D01*
X185094715Y-96750238D01*
X185142334Y-96655000D01*
X185213763Y-96607381D01*
X185261382Y-96607381D01*
X185332810Y-96655000D01*
X185356620Y-96702619D01*
X185547096Y-97321667D02*
X185785191Y-97321667D01*
X185499477Y-97607381D02*
X185666144Y-96607381D01*
X185832810Y-97607381D01*
X185999477Y-97607381D02*
X185999477Y-96607381D01*
X186285191Y-97607381D01*
X186285191Y-96607381D01*
X186404239Y-97702619D02*
X186785191Y-97702619D01*
X186832810Y-96607381D02*
X187118524Y-96607381D01*
X186975667Y-97607381D02*
X186975667Y-96607381D01*
X187285191Y-97607381D02*
X187285191Y-96607381D01*
X187404238Y-96607381D01*
X187475667Y-96655000D01*
X187523286Y-96750238D01*
X187547095Y-96845476D01*
X187570905Y-97035952D01*
X187570905Y-97178810D01*
X187547095Y-97369286D01*
X187523286Y-97464524D01*
X187475667Y-97559762D01*
X187404238Y-97607381D01*
X187285191Y-97607381D01*
X185297096Y-94845143D02*
X185273286Y-94892762D01*
X185201858Y-94940381D01*
X185154239Y-94940381D01*
X185082810Y-94892762D01*
X185035191Y-94797524D01*
X185011382Y-94702286D01*
X184987572Y-94511810D01*
X184987572Y-94368952D01*
X185011382Y-94178476D01*
X185035191Y-94083238D01*
X185082810Y-93988000D01*
X185154239Y-93940381D01*
X185201858Y-93940381D01*
X185273286Y-93988000D01*
X185297096Y-94035619D01*
X185487572Y-94654667D02*
X185725667Y-94654667D01*
X185439953Y-94940381D02*
X185606620Y-93940381D01*
X185773286Y-94940381D01*
X185939953Y-94940381D02*
X185939953Y-93940381D01*
X186225667Y-94940381D01*
X186225667Y-93940381D01*
X186344715Y-95035619D02*
X186725667Y-95035619D01*
X187130429Y-94940381D02*
X186963762Y-94464190D01*
X186844715Y-94940381D02*
X186844715Y-93940381D01*
X187035191Y-93940381D01*
X187082810Y-93988000D01*
X187106619Y-94035619D01*
X187130429Y-94130857D01*
X187130429Y-94273714D01*
X187106619Y-94368952D01*
X187082810Y-94416571D01*
X187035191Y-94464190D01*
X186844715Y-94464190D01*
X187344715Y-94940381D02*
X187344715Y-93940381D01*
X187463762Y-93940381D01*
X187535191Y-93988000D01*
X187582810Y-94083238D01*
X187606619Y-94178476D01*
X187630429Y-94368952D01*
X187630429Y-94511810D01*
X187606619Y-94702286D01*
X187582810Y-94797524D01*
X187535191Y-94892762D01*
X187463762Y-94940381D01*
X187344715Y-94940381D01*
D17*
X182435809Y-91495619D02*
X182483428Y-91448000D01*
X182578666Y-91400381D01*
X182816762Y-91400381D01*
X182912000Y-91448000D01*
X182959619Y-91495619D01*
X183007238Y-91590857D01*
X183007238Y-91686095D01*
X182959619Y-91828952D01*
X182388190Y-92400381D01*
X183007238Y-92400381D01*
X183340571Y-91400381D02*
X183959619Y-91400381D01*
X183626285Y-91781333D01*
X183769143Y-91781333D01*
X183864381Y-91828952D01*
X183912000Y-91876571D01*
X183959619Y-91971810D01*
X183959619Y-92209905D01*
X183912000Y-92305143D01*
X183864381Y-92352762D01*
X183769143Y-92400381D01*
X183483428Y-92400381D01*
X183388190Y-92352762D01*
X183340571Y-92305143D01*
X184340571Y-91495619D02*
X184388190Y-91448000D01*
X184483428Y-91400381D01*
X184721524Y-91400381D01*
X184816762Y-91448000D01*
X184864381Y-91495619D01*
X184912000Y-91590857D01*
X184912000Y-91686095D01*
X184864381Y-91828952D01*
X184292952Y-92400381D01*
X184912000Y-92400381D01*
X185102476Y-92495619D02*
X185864381Y-92495619D01*
X185959619Y-91400381D02*
X186531048Y-91400381D01*
X186245333Y-92400381D02*
X186245333Y-91400381D01*
X186769143Y-91400381D02*
X187435810Y-92400381D01*
X187435810Y-91400381D02*
X186769143Y-92400381D01*
X182316762Y-88955619D02*
X182364381Y-88908000D01*
X182459619Y-88860381D01*
X182697715Y-88860381D01*
X182792953Y-88908000D01*
X182840572Y-88955619D01*
X182888191Y-89050857D01*
X182888191Y-89146095D01*
X182840572Y-89288952D01*
X182269143Y-89860381D01*
X182888191Y-89860381D01*
X183221524Y-88860381D02*
X183840572Y-88860381D01*
X183507238Y-89241333D01*
X183650096Y-89241333D01*
X183745334Y-89288952D01*
X183792953Y-89336571D01*
X183840572Y-89431810D01*
X183840572Y-89669905D01*
X183792953Y-89765143D01*
X183745334Y-89812762D01*
X183650096Y-89860381D01*
X183364381Y-89860381D01*
X183269143Y-89812762D01*
X183221524Y-89765143D01*
X184221524Y-88955619D02*
X184269143Y-88908000D01*
X184364381Y-88860381D01*
X184602477Y-88860381D01*
X184697715Y-88908000D01*
X184745334Y-88955619D01*
X184792953Y-89050857D01*
X184792953Y-89146095D01*
X184745334Y-89288952D01*
X184173905Y-89860381D01*
X184792953Y-89860381D01*
X184983429Y-89955619D02*
X185745334Y-89955619D01*
X186554858Y-89860381D02*
X186221524Y-89384190D01*
X185983429Y-89860381D02*
X185983429Y-88860381D01*
X186364382Y-88860381D01*
X186459620Y-88908000D01*
X186507239Y-88955619D01*
X186554858Y-89050857D01*
X186554858Y-89193714D01*
X186507239Y-89288952D01*
X186459620Y-89336571D01*
X186364382Y-89384190D01*
X185983429Y-89384190D01*
X186888191Y-88860381D02*
X187554858Y-89860381D01*
X187554858Y-88860381D02*
X186888191Y-89860381D01*
X185245524Y-87272762D02*
X185388381Y-87320381D01*
X185626477Y-87320381D01*
X185721715Y-87272762D01*
X185769334Y-87225143D01*
X185816953Y-87129905D01*
X185816953Y-87034667D01*
X185769334Y-86939429D01*
X185721715Y-86891810D01*
X185626477Y-86844190D01*
X185436000Y-86796571D01*
X185340762Y-86748952D01*
X185293143Y-86701333D01*
X185245524Y-86606095D01*
X185245524Y-86510857D01*
X185293143Y-86415619D01*
X185340762Y-86368000D01*
X185436000Y-86320381D01*
X185674096Y-86320381D01*
X185816953Y-86368000D01*
X186816953Y-87225143D02*
X186769334Y-87272762D01*
X186626477Y-87320381D01*
X186531239Y-87320381D01*
X186388381Y-87272762D01*
X186293143Y-87177524D01*
X186245524Y-87082286D01*
X186197905Y-86891810D01*
X186197905Y-86748952D01*
X186245524Y-86558476D01*
X186293143Y-86463238D01*
X186388381Y-86368000D01*
X186531239Y-86320381D01*
X186626477Y-86320381D01*
X186769334Y-86368000D01*
X186816953Y-86415619D01*
X187721715Y-87320381D02*
X187245524Y-87320381D01*
X187245524Y-86320381D01*
X185221714Y-84732762D02*
X185364571Y-84780381D01*
X185602667Y-84780381D01*
X185697905Y-84732762D01*
X185745524Y-84685143D01*
X185793143Y-84589905D01*
X185793143Y-84494667D01*
X185745524Y-84399429D01*
X185697905Y-84351810D01*
X185602667Y-84304190D01*
X185412190Y-84256571D01*
X185316952Y-84208952D01*
X185269333Y-84161333D01*
X185221714Y-84066095D01*
X185221714Y-83970857D01*
X185269333Y-83875619D01*
X185316952Y-83828000D01*
X185412190Y-83780381D01*
X185650286Y-83780381D01*
X185793143Y-83828000D01*
X186221714Y-84780381D02*
X186221714Y-83780381D01*
X186459809Y-83780381D01*
X186602667Y-83828000D01*
X186697905Y-83923238D01*
X186745524Y-84018476D01*
X186793143Y-84208952D01*
X186793143Y-84351810D01*
X186745524Y-84542286D01*
X186697905Y-84637524D01*
X186602667Y-84732762D01*
X186459809Y-84780381D01*
X186221714Y-84780381D01*
X187174095Y-84494667D02*
X187650286Y-84494667D01*
X187078857Y-84780381D02*
X187412190Y-83780381D01*
X187745524Y-84780381D01*
D13*
X185555048Y-81240381D02*
X185721715Y-82240381D01*
X185888381Y-81240381D01*
X186055048Y-82240381D02*
X186055048Y-81240381D01*
X186174095Y-81240381D01*
X186245524Y-81288000D01*
X186293143Y-81383238D01*
X186316952Y-81478476D01*
X186340762Y-81668952D01*
X186340762Y-81811810D01*
X186316952Y-82002286D01*
X186293143Y-82097524D01*
X186245524Y-82192762D01*
X186174095Y-82240381D01*
X186055048Y-82240381D01*
X186555048Y-82240381D02*
X186555048Y-81240381D01*
X186674095Y-81240381D01*
X186745524Y-81288000D01*
X186793143Y-81383238D01*
X186816952Y-81478476D01*
X186840762Y-81668952D01*
X186840762Y-81811810D01*
X186816952Y-82002286D01*
X186793143Y-82097524D01*
X186745524Y-82192762D01*
X186674095Y-82240381D01*
X186555048Y-82240381D01*
X187031238Y-81954667D02*
X187269333Y-81954667D01*
X186983619Y-82240381D02*
X187150286Y-81240381D01*
X187316952Y-82240381D01*
D17*
X185245524Y-79700381D02*
X185245524Y-78700381D01*
X185483619Y-78700381D01*
X185626477Y-78748000D01*
X185721715Y-78843238D01*
X185769334Y-78938476D01*
X185816953Y-79128952D01*
X185816953Y-79271810D01*
X185769334Y-79462286D01*
X185721715Y-79557524D01*
X185626477Y-79652762D01*
X185483619Y-79700381D01*
X185245524Y-79700381D01*
X186197905Y-79414667D02*
X186674096Y-79414667D01*
X186102667Y-79700381D02*
X186436000Y-78700381D01*
X186769334Y-79700381D01*
X187674096Y-79605143D02*
X187626477Y-79652762D01*
X187483620Y-79700381D01*
X187388382Y-79700381D01*
X187245524Y-79652762D01*
X187150286Y-79557524D01*
X187102667Y-79462286D01*
X187055048Y-79271810D01*
X187055048Y-79128952D01*
X187102667Y-78938476D01*
X187150286Y-78843238D01*
X187245524Y-78748000D01*
X187388382Y-78700381D01*
X187483620Y-78700381D01*
X187626477Y-78748000D01*
X187674096Y-78795619D01*
X185745524Y-77065143D02*
X185697905Y-77112762D01*
X185555048Y-77160381D01*
X185459810Y-77160381D01*
X185316952Y-77112762D01*
X185221714Y-77017524D01*
X185174095Y-76922286D01*
X185126476Y-76731810D01*
X185126476Y-76588952D01*
X185174095Y-76398476D01*
X185221714Y-76303238D01*
X185316952Y-76208000D01*
X185459810Y-76160381D01*
X185555048Y-76160381D01*
X185697905Y-76208000D01*
X185745524Y-76255619D01*
X186174095Y-77160381D02*
X186174095Y-76160381D01*
X186174095Y-76636571D02*
X186745524Y-76636571D01*
X186745524Y-77160381D02*
X186745524Y-76160381D01*
X187745524Y-77160381D02*
X187174095Y-77160381D01*
X187459809Y-77160381D02*
X187459809Y-76160381D01*
X187364571Y-76303238D01*
X187269333Y-76398476D01*
X187174095Y-76446095D01*
X185491524Y-74525143D02*
X185443905Y-74572762D01*
X185301048Y-74620381D01*
X185205810Y-74620381D01*
X185062952Y-74572762D01*
X184967714Y-74477524D01*
X184920095Y-74382286D01*
X184872476Y-74191810D01*
X184872476Y-74048952D01*
X184920095Y-73858476D01*
X184967714Y-73763238D01*
X185062952Y-73668000D01*
X185205810Y-73620381D01*
X185301048Y-73620381D01*
X185443905Y-73668000D01*
X185491524Y-73715619D01*
X185920095Y-74620381D02*
X185920095Y-73620381D01*
X185920095Y-74096571D02*
X186491524Y-74096571D01*
X186491524Y-74620381D02*
X186491524Y-73620381D01*
X186920095Y-73715619D02*
X186967714Y-73668000D01*
X187062952Y-73620381D01*
X187301048Y-73620381D01*
X187396286Y-73668000D01*
X187443905Y-73715619D01*
X187491524Y-73810857D01*
X187491524Y-73906095D01*
X187443905Y-74048952D01*
X186872476Y-74620381D01*
X187491524Y-74620381D01*
X185491524Y-71985143D02*
X185443905Y-72032762D01*
X185301048Y-72080381D01*
X185205810Y-72080381D01*
X185062952Y-72032762D01*
X184967714Y-71937524D01*
X184920095Y-71842286D01*
X184872476Y-71651810D01*
X184872476Y-71508952D01*
X184920095Y-71318476D01*
X184967714Y-71223238D01*
X185062952Y-71128000D01*
X185205810Y-71080381D01*
X185301048Y-71080381D01*
X185443905Y-71128000D01*
X185491524Y-71175619D01*
X185920095Y-72080381D02*
X185920095Y-71080381D01*
X185920095Y-71556571D02*
X186491524Y-71556571D01*
X186491524Y-72080381D02*
X186491524Y-71080381D01*
X186872476Y-71080381D02*
X187491524Y-71080381D01*
X187158190Y-71461333D01*
X187301048Y-71461333D01*
X187396286Y-71508952D01*
X187443905Y-71556571D01*
X187491524Y-71651810D01*
X187491524Y-71889905D01*
X187443905Y-71985143D01*
X187396286Y-72032762D01*
X187301048Y-72080381D01*
X187015333Y-72080381D01*
X186920095Y-72032762D01*
X186872476Y-71985143D01*
D13*
X186094762Y-68588000D02*
X186047143Y-68540381D01*
X185975715Y-68540381D01*
X185904286Y-68588000D01*
X185856667Y-68683238D01*
X185832858Y-68778476D01*
X185809048Y-68968952D01*
X185809048Y-69111810D01*
X185832858Y-69302286D01*
X185856667Y-69397524D01*
X185904286Y-69492762D01*
X185975715Y-69540381D01*
X186023334Y-69540381D01*
X186094762Y-69492762D01*
X186118572Y-69445143D01*
X186118572Y-69111810D01*
X186023334Y-69111810D01*
X186332858Y-69540381D02*
X186332858Y-68540381D01*
X186618572Y-69540381D01*
X186618572Y-68540381D01*
X186856668Y-69540381D02*
X186856668Y-68540381D01*
X186975715Y-68540381D01*
X187047144Y-68588000D01*
X187094763Y-68683238D01*
X187118572Y-68778476D01*
X187142382Y-68968952D01*
X187142382Y-69111810D01*
X187118572Y-69302286D01*
X187094763Y-69397524D01*
X187047144Y-69492762D01*
X186975715Y-69540381D01*
X186856668Y-69540381D01*
X187332858Y-69254667D02*
X187570953Y-69254667D01*
X187285239Y-69540381D02*
X187451906Y-68540381D01*
X187618572Y-69540381D01*
D17*
X185459810Y-67000381D02*
X185459810Y-66000381D01*
X185888381Y-66952762D02*
X186031238Y-67000381D01*
X186269334Y-67000381D01*
X186364572Y-66952762D01*
X186412191Y-66905143D01*
X186459810Y-66809905D01*
X186459810Y-66714667D01*
X186412191Y-66619429D01*
X186364572Y-66571810D01*
X186269334Y-66524190D01*
X186078857Y-66476571D01*
X185983619Y-66428952D01*
X185936000Y-66381333D01*
X185888381Y-66286095D01*
X185888381Y-66190857D01*
X185936000Y-66095619D01*
X185983619Y-66048000D01*
X186078857Y-66000381D01*
X186316953Y-66000381D01*
X186459810Y-66048000D01*
X186888381Y-67000381D02*
X186888381Y-66000381D01*
X187269334Y-66000381D01*
X187364572Y-66048000D01*
X187412191Y-66095619D01*
X187459810Y-66190857D01*
X187459810Y-66333714D01*
X187412191Y-66428952D01*
X187364572Y-66476571D01*
X187269334Y-66524190D01*
X186888381Y-66524190D01*
X183967619Y-64460381D02*
X183634285Y-63984190D01*
X183396190Y-64460381D02*
X183396190Y-63460381D01*
X183777143Y-63460381D01*
X183872381Y-63508000D01*
X183920000Y-63555619D01*
X183967619Y-63650857D01*
X183967619Y-63793714D01*
X183920000Y-63888952D01*
X183872381Y-63936571D01*
X183777143Y-63984190D01*
X183396190Y-63984190D01*
X184396190Y-63936571D02*
X184729524Y-63936571D01*
X184872381Y-64460381D02*
X184396190Y-64460381D01*
X184396190Y-63460381D01*
X184872381Y-63460381D01*
X185253333Y-64412762D02*
X185396190Y-64460381D01*
X185634286Y-64460381D01*
X185729524Y-64412762D01*
X185777143Y-64365143D01*
X185824762Y-64269905D01*
X185824762Y-64174667D01*
X185777143Y-64079429D01*
X185729524Y-64031810D01*
X185634286Y-63984190D01*
X185443809Y-63936571D01*
X185348571Y-63888952D01*
X185300952Y-63841333D01*
X185253333Y-63746095D01*
X185253333Y-63650857D01*
X185300952Y-63555619D01*
X185348571Y-63508000D01*
X185443809Y-63460381D01*
X185681905Y-63460381D01*
X185824762Y-63508000D01*
X186253333Y-63936571D02*
X186586667Y-63936571D01*
X186729524Y-64460381D02*
X186253333Y-64460381D01*
X186253333Y-63460381D01*
X186729524Y-63460381D01*
X187015238Y-63460381D02*
X187586667Y-63460381D01*
X187300952Y-64460381D02*
X187300952Y-63460381D01*
D16*
X117475239Y-59721714D02*
X117437144Y-59759810D01*
X117322858Y-59797905D01*
X117246668Y-59797905D01*
X117132382Y-59759810D01*
X117056191Y-59683619D01*
X117018096Y-59607429D01*
X116980001Y-59455048D01*
X116980001Y-59340762D01*
X117018096Y-59188381D01*
X117056191Y-59112190D01*
X117132382Y-59036000D01*
X117246668Y-58997905D01*
X117322858Y-58997905D01*
X117437144Y-59036000D01*
X117475239Y-59074095D01*
X117818096Y-59797905D02*
X117818096Y-58997905D01*
X118160953Y-59569333D02*
X118541905Y-59569333D01*
X118084762Y-59797905D02*
X118351429Y-58997905D01*
X118618096Y-59797905D01*
X118846667Y-59569333D02*
X119227619Y-59569333D01*
X118770476Y-59797905D02*
X119037143Y-58997905D01*
X119303810Y-59797905D01*
X119570476Y-59493143D02*
X120180000Y-59493143D01*
X120560952Y-59797905D02*
X120560952Y-58997905D01*
X120865714Y-58997905D01*
X120941905Y-59036000D01*
X120980000Y-59074095D01*
X121018095Y-59150286D01*
X121018095Y-59264571D01*
X120980000Y-59340762D01*
X120941905Y-59378857D01*
X120865714Y-59416952D01*
X120560952Y-59416952D01*
X121322857Y-59074095D02*
X121360952Y-59036000D01*
X121437143Y-58997905D01*
X121627619Y-58997905D01*
X121703809Y-59036000D01*
X121741905Y-59074095D01*
X121780000Y-59150286D01*
X121780000Y-59226476D01*
X121741905Y-59340762D01*
X121284762Y-59797905D01*
X121780000Y-59797905D01*
X188595239Y-59721714D02*
X188557144Y-59759810D01*
X188442858Y-59797905D01*
X188366668Y-59797905D01*
X188252382Y-59759810D01*
X188176191Y-59683619D01*
X188138096Y-59607429D01*
X188100001Y-59455048D01*
X188100001Y-59340762D01*
X188138096Y-59188381D01*
X188176191Y-59112190D01*
X188252382Y-59036000D01*
X188366668Y-58997905D01*
X188442858Y-58997905D01*
X188557144Y-59036000D01*
X188595239Y-59074095D01*
X188938096Y-59797905D02*
X188938096Y-58997905D01*
X189280953Y-59569333D02*
X189661905Y-59569333D01*
X189204762Y-59797905D02*
X189471429Y-58997905D01*
X189738096Y-59797905D01*
X189966667Y-59569333D02*
X190347619Y-59569333D01*
X189890476Y-59797905D02*
X190157143Y-58997905D01*
X190423810Y-59797905D01*
X190690476Y-59493143D02*
X191300000Y-59493143D01*
X191680952Y-59797905D02*
X191680952Y-58997905D01*
X191985714Y-58997905D01*
X192061905Y-59036000D01*
X192100000Y-59074095D01*
X192138095Y-59150286D01*
X192138095Y-59264571D01*
X192100000Y-59340762D01*
X192061905Y-59378857D01*
X191985714Y-59416952D01*
X191680952Y-59416952D01*
X192900000Y-59797905D02*
X192442857Y-59797905D01*
X192671428Y-59797905D02*
X192671428Y-58997905D01*
X192595238Y-59112190D01*
X192519047Y-59188381D01*
X192442857Y-59226476D01*
D17*
X183420000Y-61539429D02*
X184181905Y-61539429D01*
X183800953Y-61920381D02*
X183800953Y-61158476D01*
X184562857Y-60920381D02*
X185181905Y-60920381D01*
X184848571Y-61301333D01*
X184991429Y-61301333D01*
X185086667Y-61348952D01*
X185134286Y-61396571D01*
X185181905Y-61491810D01*
X185181905Y-61729905D01*
X185134286Y-61825143D01*
X185086667Y-61872762D01*
X184991429Y-61920381D01*
X184705714Y-61920381D01*
X184610476Y-61872762D01*
X184562857Y-61825143D01*
X185610476Y-61825143D02*
X185658095Y-61872762D01*
X185610476Y-61920381D01*
X185562857Y-61872762D01*
X185610476Y-61825143D01*
X185610476Y-61920381D01*
X185991428Y-60920381D02*
X186610476Y-60920381D01*
X186277142Y-61301333D01*
X186420000Y-61301333D01*
X186515238Y-61348952D01*
X186562857Y-61396571D01*
X186610476Y-61491810D01*
X186610476Y-61729905D01*
X186562857Y-61825143D01*
X186515238Y-61872762D01*
X186420000Y-61920381D01*
X186134285Y-61920381D01*
X186039047Y-61872762D01*
X185991428Y-61825143D01*
X186896190Y-60920381D02*
X187229523Y-61920381D01*
X187562857Y-60920381D01*
D14*
X138406143Y-62904666D02*
X138453762Y-62952285D01*
X138501381Y-63095142D01*
X138501381Y-63190380D01*
X138453762Y-63333238D01*
X138358524Y-63428476D01*
X138263286Y-63476095D01*
X138072810Y-63523714D01*
X137929952Y-63523714D01*
X137739476Y-63476095D01*
X137644238Y-63428476D01*
X137549000Y-63333238D01*
X137501381Y-63190380D01*
X137501381Y-63095142D01*
X137549000Y-62952285D01*
X137596619Y-62904666D01*
X138501381Y-61952285D02*
X138501381Y-62523714D01*
X138501381Y-62238000D02*
X137501381Y-62238000D01*
X137644238Y-62333238D01*
X137739476Y-62428476D01*
X137787095Y-62523714D01*
X161417261Y-81578746D02*
X160941070Y-81912080D01*
X161417261Y-82150175D02*
X160417261Y-82150175D01*
X160417261Y-81769222D01*
X160464880Y-81673984D01*
X160512499Y-81626365D01*
X160607737Y-81578746D01*
X160750594Y-81578746D01*
X160845832Y-81626365D01*
X160893451Y-81673984D01*
X160941070Y-81769222D01*
X160941070Y-82150175D01*
X160750594Y-80721603D02*
X161417261Y-80721603D01*
X160369642Y-80959699D02*
X161083928Y-81197794D01*
X161083928Y-80578746D01*
M02*
