G04 #@! TF.FileFunction,Copper,L2,Bot,Signal*
%FSLAX46Y46*%
G04 Gerber Fmt 4.6, Leading zero omitted, Abs format (unit mm)*
G04 Created by KiCad (PCBNEW 4.0.3+e1-6302~38~ubuntu16.04.1-stable) date Fri Aug 19 22:37:42 2016*
%MOMM*%
%LPD*%
G01*
G04 APERTURE LIST*
%ADD10C,0.100000*%
%ADD11R,2.000000X1.524000*%
%ADD12O,2.000000X1.524000*%
%ADD13R,2.540000X2.540000*%
%ADD14C,2.540000*%
%ADD15C,0.600000*%
%ADD16C,0.508000*%
%ADD17C,0.254000*%
G04 APERTURE END LIST*
D10*
D11*
X171450000Y-100330000D03*
D12*
X168910000Y-100330000D03*
X171450000Y-87630000D03*
X168910000Y-97790000D03*
X171450000Y-85090000D03*
X168910000Y-95250000D03*
X171450000Y-82550000D03*
X168910000Y-92710000D03*
X171450000Y-80010000D03*
X168910000Y-90170000D03*
X171450000Y-77470000D03*
X168910000Y-87630000D03*
X171450000Y-74930000D03*
X168910000Y-85090000D03*
X171450000Y-72390000D03*
X168910000Y-82550000D03*
X171450000Y-69850000D03*
X168910000Y-80010000D03*
X171450000Y-67310000D03*
X168910000Y-77470000D03*
X171450000Y-64770000D03*
X168910000Y-74930000D03*
X171450000Y-62230000D03*
X168910000Y-72390000D03*
X168910000Y-69850000D03*
X171450000Y-59690000D03*
X168910000Y-67310000D03*
X168910000Y-62230000D03*
X168910000Y-59690000D03*
X168910000Y-57150000D03*
X168910000Y-54610000D03*
X171450000Y-57150000D03*
X171450000Y-54610000D03*
X171450000Y-97790000D03*
X171450000Y-95250000D03*
X171450000Y-92710000D03*
X171450000Y-90170000D03*
X171450000Y-52070000D03*
X168910000Y-52070000D03*
X168910000Y-64770000D03*
D13*
X132080000Y-71120000D03*
D14*
X132080000Y-76200000D03*
X132080000Y-81280000D03*
D15*
X150622000Y-73406000D03*
X149098000Y-79502000D03*
X155702000Y-63500000D03*
X151384000Y-79756000D03*
X157226000Y-78994000D03*
X159004000Y-50292000D03*
X163576000Y-94996000D03*
X176276000Y-61976000D03*
X162306000Y-49530000D03*
D16*
X150622000Y-77978000D02*
X150622000Y-73406000D01*
X149098000Y-79502000D02*
X150622000Y-77978000D01*
X155702000Y-75438000D02*
X155702000Y-63500000D01*
X151384000Y-79756000D02*
X155702000Y-75438000D01*
D17*
X159004000Y-50292000D02*
X159258000Y-50292000D01*
D16*
X176276000Y-49530000D02*
X176276000Y-61976000D01*
X175006000Y-48260000D02*
X176276000Y-49530000D01*
X163576000Y-48260000D02*
X175006000Y-48260000D01*
X162306000Y-49530000D02*
X163576000Y-48260000D01*
D17*
G36*
X179630000Y-105970000D02*
X128218000Y-105970000D01*
X128218000Y-95250000D01*
X167242968Y-95250000D01*
X167349308Y-95784609D01*
X167652140Y-96237828D01*
X168074439Y-96520000D01*
X167652140Y-96802172D01*
X167349308Y-97255391D01*
X167242968Y-97790000D01*
X167349308Y-98324609D01*
X167652140Y-98777828D01*
X168074439Y-99060000D01*
X167652140Y-99342172D01*
X167349308Y-99795391D01*
X167242968Y-100330000D01*
X167349308Y-100864609D01*
X167652140Y-101317828D01*
X168105359Y-101620660D01*
X168639968Y-101727000D01*
X169180032Y-101727000D01*
X169714641Y-101620660D01*
X169939093Y-101470686D01*
X169985910Y-101543441D01*
X170198110Y-101688431D01*
X170450000Y-101739440D01*
X172450000Y-101739440D01*
X172685317Y-101695162D01*
X172901441Y-101556090D01*
X173046431Y-101343890D01*
X173097440Y-101092000D01*
X173097440Y-99568000D01*
X173053162Y-99332683D01*
X172914090Y-99116559D01*
X172701890Y-98971569D01*
X172483956Y-98927436D01*
X172707860Y-98777828D01*
X173010692Y-98324609D01*
X173117032Y-97790000D01*
X173010692Y-97255391D01*
X172707860Y-96802172D01*
X172285561Y-96520000D01*
X172707860Y-96237828D01*
X173010692Y-95784609D01*
X173117032Y-95250000D01*
X173010692Y-94715391D01*
X172707860Y-94262172D01*
X172280067Y-93976329D01*
X172325914Y-93963422D01*
X172757020Y-93623892D01*
X173025377Y-93145230D01*
X173042220Y-93053070D01*
X172919720Y-92837000D01*
X171577000Y-92837000D01*
X171577000Y-92857000D01*
X171323000Y-92857000D01*
X171323000Y-92837000D01*
X169037000Y-92837000D01*
X169037000Y-92857000D01*
X168783000Y-92857000D01*
X168783000Y-92837000D01*
X167440280Y-92837000D01*
X167317780Y-93053070D01*
X167334623Y-93145230D01*
X167602980Y-93623892D01*
X168034086Y-93963422D01*
X168079933Y-93976329D01*
X167652140Y-94262172D01*
X167349308Y-94715391D01*
X167242968Y-95250000D01*
X128218000Y-95250000D01*
X128218000Y-90513070D01*
X167317780Y-90513070D01*
X167334623Y-90605230D01*
X167602980Y-91083892D01*
X168034086Y-91423422D01*
X168092972Y-91440000D01*
X168034086Y-91456578D01*
X167602980Y-91796108D01*
X167334623Y-92274770D01*
X167317780Y-92366930D01*
X167440280Y-92583000D01*
X168783000Y-92583000D01*
X168783000Y-91466723D01*
X168745874Y-91440000D01*
X168783000Y-91413277D01*
X168783000Y-90297000D01*
X167440280Y-90297000D01*
X167317780Y-90513070D01*
X128218000Y-90513070D01*
X128218000Y-87973070D01*
X167317780Y-87973070D01*
X167334623Y-88065230D01*
X167602980Y-88543892D01*
X168034086Y-88883422D01*
X168092972Y-88900000D01*
X168034086Y-88916578D01*
X167602980Y-89256108D01*
X167334623Y-89734770D01*
X167317780Y-89826930D01*
X167440280Y-90043000D01*
X168783000Y-90043000D01*
X168783000Y-88926723D01*
X168745874Y-88900000D01*
X168783000Y-88873277D01*
X168783000Y-87757000D01*
X167440280Y-87757000D01*
X167317780Y-87973070D01*
X128218000Y-87973070D01*
X128218000Y-85433070D01*
X167317780Y-85433070D01*
X167334623Y-85525230D01*
X167602980Y-86003892D01*
X168034086Y-86343422D01*
X168092972Y-86360000D01*
X168034086Y-86376578D01*
X167602980Y-86716108D01*
X167334623Y-87194770D01*
X167317780Y-87286930D01*
X167440280Y-87503000D01*
X168783000Y-87503000D01*
X168783000Y-86386723D01*
X168745874Y-86360000D01*
X168783000Y-86333277D01*
X168783000Y-85217000D01*
X167440280Y-85217000D01*
X167317780Y-85433070D01*
X128218000Y-85433070D01*
X128218000Y-81657265D01*
X130174670Y-81657265D01*
X130464078Y-82357686D01*
X130999495Y-82894039D01*
X131699410Y-83184668D01*
X132457265Y-83185330D01*
X133157686Y-82895922D01*
X133160542Y-82893070D01*
X167317780Y-82893070D01*
X167334623Y-82985230D01*
X167602980Y-83463892D01*
X168034086Y-83803422D01*
X168092972Y-83820000D01*
X168034086Y-83836578D01*
X167602980Y-84176108D01*
X167334623Y-84654770D01*
X167317780Y-84746930D01*
X167440280Y-84963000D01*
X168783000Y-84963000D01*
X168783000Y-83846723D01*
X168745874Y-83820000D01*
X168783000Y-83793277D01*
X168783000Y-82677000D01*
X167440280Y-82677000D01*
X167317780Y-82893070D01*
X133160542Y-82893070D01*
X133694039Y-82360505D01*
X133984668Y-81660590D01*
X133985330Y-80902735D01*
X133695922Y-80202314D01*
X133181674Y-79687167D01*
X148162838Y-79687167D01*
X148304883Y-80030943D01*
X148567673Y-80294192D01*
X148911201Y-80436838D01*
X149283167Y-80437162D01*
X149626943Y-80295117D01*
X149890192Y-80032327D01*
X149936549Y-79920687D01*
X150563578Y-79293658D01*
X150449162Y-79569201D01*
X150448838Y-79941167D01*
X150590883Y-80284943D01*
X150853673Y-80548192D01*
X151197201Y-80690838D01*
X151569167Y-80691162D01*
X151912943Y-80549117D01*
X152109332Y-80353070D01*
X167317780Y-80353070D01*
X167334623Y-80445230D01*
X167602980Y-80923892D01*
X168034086Y-81263422D01*
X168092972Y-81280000D01*
X168034086Y-81296578D01*
X167602980Y-81636108D01*
X167334623Y-82114770D01*
X167317780Y-82206930D01*
X167440280Y-82423000D01*
X168783000Y-82423000D01*
X168783000Y-81306723D01*
X168745874Y-81280000D01*
X168783000Y-81253277D01*
X168783000Y-80137000D01*
X167440280Y-80137000D01*
X167317780Y-80353070D01*
X152109332Y-80353070D01*
X152176192Y-80286327D01*
X152222549Y-80174687D01*
X156330618Y-76066618D01*
X156430036Y-75917828D01*
X156523329Y-75778206D01*
X156591000Y-75438000D01*
X156591000Y-63797189D01*
X156636838Y-63686799D01*
X156637162Y-63314833D01*
X156495117Y-62971057D01*
X156232327Y-62707808D01*
X155888799Y-62565162D01*
X155516833Y-62564838D01*
X155173057Y-62706883D01*
X154909808Y-62969673D01*
X154767162Y-63313201D01*
X154766838Y-63685167D01*
X154813000Y-63796888D01*
X154813000Y-75069764D01*
X150965526Y-78917238D01*
X150922023Y-78935213D01*
X151250618Y-78606618D01*
X151443329Y-78318206D01*
X151511000Y-77978000D01*
X151511000Y-73703189D01*
X151556838Y-73592799D01*
X151557162Y-73220833D01*
X151415117Y-72877057D01*
X151152327Y-72613808D01*
X150808799Y-72471162D01*
X150436833Y-72470838D01*
X150093057Y-72612883D01*
X149829808Y-72875673D01*
X149687162Y-73219201D01*
X149686838Y-73591167D01*
X149733000Y-73702888D01*
X149733000Y-77609764D01*
X148679526Y-78663238D01*
X148569057Y-78708883D01*
X148305808Y-78971673D01*
X148163162Y-79315201D01*
X148162838Y-79687167D01*
X133181674Y-79687167D01*
X133160505Y-79665961D01*
X132460590Y-79375332D01*
X131702735Y-79374670D01*
X131002314Y-79664078D01*
X130465961Y-80199495D01*
X130175332Y-80899410D01*
X130174670Y-81657265D01*
X128218000Y-81657265D01*
X128218000Y-76577265D01*
X130174670Y-76577265D01*
X130464078Y-77277686D01*
X130999495Y-77814039D01*
X131699410Y-78104668D01*
X132457265Y-78105330D01*
X133157686Y-77815922D01*
X133694039Y-77280505D01*
X133984668Y-76580590D01*
X133985330Y-75822735D01*
X133695922Y-75122314D01*
X133160505Y-74585961D01*
X132460590Y-74295332D01*
X131702735Y-74294670D01*
X131002314Y-74584078D01*
X130465961Y-75119495D01*
X130175332Y-75819410D01*
X130174670Y-76577265D01*
X128218000Y-76577265D01*
X128218000Y-69850000D01*
X130162560Y-69850000D01*
X130162560Y-72390000D01*
X130206838Y-72625317D01*
X130345910Y-72841441D01*
X130558110Y-72986431D01*
X130810000Y-73037440D01*
X133350000Y-73037440D01*
X133585317Y-72993162D01*
X133801441Y-72854090D01*
X133946431Y-72641890D01*
X133997440Y-72390000D01*
X133997440Y-69850000D01*
X133953162Y-69614683D01*
X133814090Y-69398559D01*
X133601890Y-69253569D01*
X133350000Y-69202560D01*
X130810000Y-69202560D01*
X130574683Y-69246838D01*
X130358559Y-69385910D01*
X130213569Y-69598110D01*
X130162560Y-69850000D01*
X128218000Y-69850000D01*
X128218000Y-52070000D01*
X167242968Y-52070000D01*
X167349308Y-52604609D01*
X167652140Y-53057828D01*
X168074439Y-53340000D01*
X167652140Y-53622172D01*
X167349308Y-54075391D01*
X167242968Y-54610000D01*
X167349308Y-55144609D01*
X167652140Y-55597828D01*
X168074439Y-55880000D01*
X167652140Y-56162172D01*
X167349308Y-56615391D01*
X167242968Y-57150000D01*
X167349308Y-57684609D01*
X167652140Y-58137828D01*
X168074439Y-58420000D01*
X167652140Y-58702172D01*
X167349308Y-59155391D01*
X167242968Y-59690000D01*
X167349308Y-60224609D01*
X167652140Y-60677828D01*
X168074439Y-60960000D01*
X167652140Y-61242172D01*
X167349308Y-61695391D01*
X167242968Y-62230000D01*
X167349308Y-62764609D01*
X167652140Y-63217828D01*
X168074439Y-63500000D01*
X167652140Y-63782172D01*
X167349308Y-64235391D01*
X167242968Y-64770000D01*
X167349308Y-65304609D01*
X167652140Y-65757828D01*
X168074439Y-66040000D01*
X167652140Y-66322172D01*
X167349308Y-66775391D01*
X167242968Y-67310000D01*
X167349308Y-67844609D01*
X167652140Y-68297828D01*
X168074439Y-68580000D01*
X167652140Y-68862172D01*
X167349308Y-69315391D01*
X167242968Y-69850000D01*
X167349308Y-70384609D01*
X167652140Y-70837828D01*
X168074439Y-71120000D01*
X167652140Y-71402172D01*
X167349308Y-71855391D01*
X167242968Y-72390000D01*
X167349308Y-72924609D01*
X167652140Y-73377828D01*
X168074439Y-73660000D01*
X167652140Y-73942172D01*
X167349308Y-74395391D01*
X167242968Y-74930000D01*
X167349308Y-75464609D01*
X167652140Y-75917828D01*
X168074439Y-76200000D01*
X167652140Y-76482172D01*
X167349308Y-76935391D01*
X167242968Y-77470000D01*
X167349308Y-78004609D01*
X167652140Y-78457828D01*
X168079933Y-78743671D01*
X168034086Y-78756578D01*
X167602980Y-79096108D01*
X167334623Y-79574770D01*
X167317780Y-79666930D01*
X167440280Y-79883000D01*
X168783000Y-79883000D01*
X168783000Y-79863000D01*
X169037000Y-79863000D01*
X169037000Y-79883000D01*
X169057000Y-79883000D01*
X169057000Y-80137000D01*
X169037000Y-80137000D01*
X169037000Y-81253277D01*
X169074126Y-81280000D01*
X169037000Y-81306723D01*
X169037000Y-82423000D01*
X169057000Y-82423000D01*
X169057000Y-82677000D01*
X169037000Y-82677000D01*
X169037000Y-83793277D01*
X169074126Y-83820000D01*
X169037000Y-83846723D01*
X169037000Y-84963000D01*
X169057000Y-84963000D01*
X169057000Y-85217000D01*
X169037000Y-85217000D01*
X169037000Y-86333277D01*
X169074126Y-86360000D01*
X169037000Y-86386723D01*
X169037000Y-87503000D01*
X169057000Y-87503000D01*
X169057000Y-87757000D01*
X169037000Y-87757000D01*
X169037000Y-88873277D01*
X169074126Y-88900000D01*
X169037000Y-88926723D01*
X169037000Y-90043000D01*
X169057000Y-90043000D01*
X169057000Y-90297000D01*
X169037000Y-90297000D01*
X169037000Y-91413277D01*
X169074126Y-91440000D01*
X169037000Y-91466723D01*
X169037000Y-92583000D01*
X171323000Y-92583000D01*
X171323000Y-92563000D01*
X171577000Y-92563000D01*
X171577000Y-92583000D01*
X172919720Y-92583000D01*
X173042220Y-92366930D01*
X173025377Y-92274770D01*
X172757020Y-91796108D01*
X172325914Y-91456578D01*
X172280067Y-91443671D01*
X172707860Y-91157828D01*
X173010692Y-90704609D01*
X173117032Y-90170000D01*
X173010692Y-89635391D01*
X172707860Y-89182172D01*
X172285561Y-88900000D01*
X172707860Y-88617828D01*
X173010692Y-88164609D01*
X173117032Y-87630000D01*
X173010692Y-87095391D01*
X172707860Y-86642172D01*
X172285561Y-86360000D01*
X172707860Y-86077828D01*
X173010692Y-85624609D01*
X173117032Y-85090000D01*
X173010692Y-84555391D01*
X172707860Y-84102172D01*
X172285561Y-83820000D01*
X172707860Y-83537828D01*
X173010692Y-83084609D01*
X173117032Y-82550000D01*
X173010692Y-82015391D01*
X172707860Y-81562172D01*
X172285561Y-81280000D01*
X172707860Y-80997828D01*
X173010692Y-80544609D01*
X173117032Y-80010000D01*
X173010692Y-79475391D01*
X172707860Y-79022172D01*
X172285561Y-78740000D01*
X172707860Y-78457828D01*
X173010692Y-78004609D01*
X173117032Y-77470000D01*
X173010692Y-76935391D01*
X172707860Y-76482172D01*
X172285561Y-76200000D01*
X172707860Y-75917828D01*
X173010692Y-75464609D01*
X173117032Y-74930000D01*
X173010692Y-74395391D01*
X172707860Y-73942172D01*
X172285561Y-73660000D01*
X172707860Y-73377828D01*
X173010692Y-72924609D01*
X173117032Y-72390000D01*
X173010692Y-71855391D01*
X172707860Y-71402172D01*
X172285561Y-71120000D01*
X172707860Y-70837828D01*
X173010692Y-70384609D01*
X173117032Y-69850000D01*
X173010692Y-69315391D01*
X172707860Y-68862172D01*
X172285561Y-68580000D01*
X172707860Y-68297828D01*
X173010692Y-67844609D01*
X173117032Y-67310000D01*
X173010692Y-66775391D01*
X172707860Y-66322172D01*
X172285561Y-66040000D01*
X172707860Y-65757828D01*
X173010692Y-65304609D01*
X173117032Y-64770000D01*
X173010692Y-64235391D01*
X172707860Y-63782172D01*
X172285561Y-63500000D01*
X172707860Y-63217828D01*
X173010692Y-62764609D01*
X173117032Y-62230000D01*
X173010692Y-61695391D01*
X172707860Y-61242172D01*
X172285561Y-60960000D01*
X172707860Y-60677828D01*
X173010692Y-60224609D01*
X173117032Y-59690000D01*
X173010692Y-59155391D01*
X172707860Y-58702172D01*
X172285561Y-58420000D01*
X172707860Y-58137828D01*
X173010692Y-57684609D01*
X173117032Y-57150000D01*
X173010692Y-56615391D01*
X172707860Y-56162172D01*
X172285561Y-55880000D01*
X172707860Y-55597828D01*
X173010692Y-55144609D01*
X173117032Y-54610000D01*
X173010692Y-54075391D01*
X172707860Y-53622172D01*
X172285561Y-53340000D01*
X172707860Y-53057828D01*
X173010692Y-52604609D01*
X173117032Y-52070000D01*
X173010692Y-51535391D01*
X172707860Y-51082172D01*
X172254641Y-50779340D01*
X171720032Y-50673000D01*
X171179968Y-50673000D01*
X170645359Y-50779340D01*
X170192140Y-51082172D01*
X170180000Y-51100341D01*
X170167860Y-51082172D01*
X169714641Y-50779340D01*
X169180032Y-50673000D01*
X168639968Y-50673000D01*
X168105359Y-50779340D01*
X167652140Y-51082172D01*
X167349308Y-51535391D01*
X167242968Y-52070000D01*
X128218000Y-52070000D01*
X128218000Y-49715167D01*
X161370838Y-49715167D01*
X161512883Y-50058943D01*
X161775673Y-50322192D01*
X162119201Y-50464838D01*
X162491167Y-50465162D01*
X162834943Y-50323117D01*
X163098192Y-50060327D01*
X163144549Y-49948687D01*
X163944236Y-49149000D01*
X174637764Y-49149000D01*
X175387000Y-49898236D01*
X175387000Y-61678811D01*
X175341162Y-61789201D01*
X175340838Y-62161167D01*
X175482883Y-62504943D01*
X175745673Y-62768192D01*
X176089201Y-62910838D01*
X176461167Y-62911162D01*
X176804943Y-62769117D01*
X177068192Y-62506327D01*
X177210838Y-62162799D01*
X177211162Y-61790833D01*
X177165000Y-61679112D01*
X177165000Y-49530000D01*
X177097329Y-49189794D01*
X176904618Y-48901382D01*
X175634618Y-47631382D01*
X175346206Y-47438671D01*
X175006000Y-47371000D01*
X163576000Y-47371000D01*
X163235794Y-47438671D01*
X162947382Y-47631382D01*
X161887526Y-48691238D01*
X161777057Y-48736883D01*
X161513808Y-48999673D01*
X161371162Y-49343201D01*
X161370838Y-49715167D01*
X128218000Y-49715167D01*
X128218000Y-46430000D01*
X179630000Y-46430000D01*
X179630000Y-105970000D01*
X179630000Y-105970000D01*
G37*
X179630000Y-105970000D02*
X128218000Y-105970000D01*
X128218000Y-95250000D01*
X167242968Y-95250000D01*
X167349308Y-95784609D01*
X167652140Y-96237828D01*
X168074439Y-96520000D01*
X167652140Y-96802172D01*
X167349308Y-97255391D01*
X167242968Y-97790000D01*
X167349308Y-98324609D01*
X167652140Y-98777828D01*
X168074439Y-99060000D01*
X167652140Y-99342172D01*
X167349308Y-99795391D01*
X167242968Y-100330000D01*
X167349308Y-100864609D01*
X167652140Y-101317828D01*
X168105359Y-101620660D01*
X168639968Y-101727000D01*
X169180032Y-101727000D01*
X169714641Y-101620660D01*
X169939093Y-101470686D01*
X169985910Y-101543441D01*
X170198110Y-101688431D01*
X170450000Y-101739440D01*
X172450000Y-101739440D01*
X172685317Y-101695162D01*
X172901441Y-101556090D01*
X173046431Y-101343890D01*
X173097440Y-101092000D01*
X173097440Y-99568000D01*
X173053162Y-99332683D01*
X172914090Y-99116559D01*
X172701890Y-98971569D01*
X172483956Y-98927436D01*
X172707860Y-98777828D01*
X173010692Y-98324609D01*
X173117032Y-97790000D01*
X173010692Y-97255391D01*
X172707860Y-96802172D01*
X172285561Y-96520000D01*
X172707860Y-96237828D01*
X173010692Y-95784609D01*
X173117032Y-95250000D01*
X173010692Y-94715391D01*
X172707860Y-94262172D01*
X172280067Y-93976329D01*
X172325914Y-93963422D01*
X172757020Y-93623892D01*
X173025377Y-93145230D01*
X173042220Y-93053070D01*
X172919720Y-92837000D01*
X171577000Y-92837000D01*
X171577000Y-92857000D01*
X171323000Y-92857000D01*
X171323000Y-92837000D01*
X169037000Y-92837000D01*
X169037000Y-92857000D01*
X168783000Y-92857000D01*
X168783000Y-92837000D01*
X167440280Y-92837000D01*
X167317780Y-93053070D01*
X167334623Y-93145230D01*
X167602980Y-93623892D01*
X168034086Y-93963422D01*
X168079933Y-93976329D01*
X167652140Y-94262172D01*
X167349308Y-94715391D01*
X167242968Y-95250000D01*
X128218000Y-95250000D01*
X128218000Y-90513070D01*
X167317780Y-90513070D01*
X167334623Y-90605230D01*
X167602980Y-91083892D01*
X168034086Y-91423422D01*
X168092972Y-91440000D01*
X168034086Y-91456578D01*
X167602980Y-91796108D01*
X167334623Y-92274770D01*
X167317780Y-92366930D01*
X167440280Y-92583000D01*
X168783000Y-92583000D01*
X168783000Y-91466723D01*
X168745874Y-91440000D01*
X168783000Y-91413277D01*
X168783000Y-90297000D01*
X167440280Y-90297000D01*
X167317780Y-90513070D01*
X128218000Y-90513070D01*
X128218000Y-87973070D01*
X167317780Y-87973070D01*
X167334623Y-88065230D01*
X167602980Y-88543892D01*
X168034086Y-88883422D01*
X168092972Y-88900000D01*
X168034086Y-88916578D01*
X167602980Y-89256108D01*
X167334623Y-89734770D01*
X167317780Y-89826930D01*
X167440280Y-90043000D01*
X168783000Y-90043000D01*
X168783000Y-88926723D01*
X168745874Y-88900000D01*
X168783000Y-88873277D01*
X168783000Y-87757000D01*
X167440280Y-87757000D01*
X167317780Y-87973070D01*
X128218000Y-87973070D01*
X128218000Y-85433070D01*
X167317780Y-85433070D01*
X167334623Y-85525230D01*
X167602980Y-86003892D01*
X168034086Y-86343422D01*
X168092972Y-86360000D01*
X168034086Y-86376578D01*
X167602980Y-86716108D01*
X167334623Y-87194770D01*
X167317780Y-87286930D01*
X167440280Y-87503000D01*
X168783000Y-87503000D01*
X168783000Y-86386723D01*
X168745874Y-86360000D01*
X168783000Y-86333277D01*
X168783000Y-85217000D01*
X167440280Y-85217000D01*
X167317780Y-85433070D01*
X128218000Y-85433070D01*
X128218000Y-81657265D01*
X130174670Y-81657265D01*
X130464078Y-82357686D01*
X130999495Y-82894039D01*
X131699410Y-83184668D01*
X132457265Y-83185330D01*
X133157686Y-82895922D01*
X133160542Y-82893070D01*
X167317780Y-82893070D01*
X167334623Y-82985230D01*
X167602980Y-83463892D01*
X168034086Y-83803422D01*
X168092972Y-83820000D01*
X168034086Y-83836578D01*
X167602980Y-84176108D01*
X167334623Y-84654770D01*
X167317780Y-84746930D01*
X167440280Y-84963000D01*
X168783000Y-84963000D01*
X168783000Y-83846723D01*
X168745874Y-83820000D01*
X168783000Y-83793277D01*
X168783000Y-82677000D01*
X167440280Y-82677000D01*
X167317780Y-82893070D01*
X133160542Y-82893070D01*
X133694039Y-82360505D01*
X133984668Y-81660590D01*
X133985330Y-80902735D01*
X133695922Y-80202314D01*
X133181674Y-79687167D01*
X148162838Y-79687167D01*
X148304883Y-80030943D01*
X148567673Y-80294192D01*
X148911201Y-80436838D01*
X149283167Y-80437162D01*
X149626943Y-80295117D01*
X149890192Y-80032327D01*
X149936549Y-79920687D01*
X150563578Y-79293658D01*
X150449162Y-79569201D01*
X150448838Y-79941167D01*
X150590883Y-80284943D01*
X150853673Y-80548192D01*
X151197201Y-80690838D01*
X151569167Y-80691162D01*
X151912943Y-80549117D01*
X152109332Y-80353070D01*
X167317780Y-80353070D01*
X167334623Y-80445230D01*
X167602980Y-80923892D01*
X168034086Y-81263422D01*
X168092972Y-81280000D01*
X168034086Y-81296578D01*
X167602980Y-81636108D01*
X167334623Y-82114770D01*
X167317780Y-82206930D01*
X167440280Y-82423000D01*
X168783000Y-82423000D01*
X168783000Y-81306723D01*
X168745874Y-81280000D01*
X168783000Y-81253277D01*
X168783000Y-80137000D01*
X167440280Y-80137000D01*
X167317780Y-80353070D01*
X152109332Y-80353070D01*
X152176192Y-80286327D01*
X152222549Y-80174687D01*
X156330618Y-76066618D01*
X156430036Y-75917828D01*
X156523329Y-75778206D01*
X156591000Y-75438000D01*
X156591000Y-63797189D01*
X156636838Y-63686799D01*
X156637162Y-63314833D01*
X156495117Y-62971057D01*
X156232327Y-62707808D01*
X155888799Y-62565162D01*
X155516833Y-62564838D01*
X155173057Y-62706883D01*
X154909808Y-62969673D01*
X154767162Y-63313201D01*
X154766838Y-63685167D01*
X154813000Y-63796888D01*
X154813000Y-75069764D01*
X150965526Y-78917238D01*
X150922023Y-78935213D01*
X151250618Y-78606618D01*
X151443329Y-78318206D01*
X151511000Y-77978000D01*
X151511000Y-73703189D01*
X151556838Y-73592799D01*
X151557162Y-73220833D01*
X151415117Y-72877057D01*
X151152327Y-72613808D01*
X150808799Y-72471162D01*
X150436833Y-72470838D01*
X150093057Y-72612883D01*
X149829808Y-72875673D01*
X149687162Y-73219201D01*
X149686838Y-73591167D01*
X149733000Y-73702888D01*
X149733000Y-77609764D01*
X148679526Y-78663238D01*
X148569057Y-78708883D01*
X148305808Y-78971673D01*
X148163162Y-79315201D01*
X148162838Y-79687167D01*
X133181674Y-79687167D01*
X133160505Y-79665961D01*
X132460590Y-79375332D01*
X131702735Y-79374670D01*
X131002314Y-79664078D01*
X130465961Y-80199495D01*
X130175332Y-80899410D01*
X130174670Y-81657265D01*
X128218000Y-81657265D01*
X128218000Y-76577265D01*
X130174670Y-76577265D01*
X130464078Y-77277686D01*
X130999495Y-77814039D01*
X131699410Y-78104668D01*
X132457265Y-78105330D01*
X133157686Y-77815922D01*
X133694039Y-77280505D01*
X133984668Y-76580590D01*
X133985330Y-75822735D01*
X133695922Y-75122314D01*
X133160505Y-74585961D01*
X132460590Y-74295332D01*
X131702735Y-74294670D01*
X131002314Y-74584078D01*
X130465961Y-75119495D01*
X130175332Y-75819410D01*
X130174670Y-76577265D01*
X128218000Y-76577265D01*
X128218000Y-69850000D01*
X130162560Y-69850000D01*
X130162560Y-72390000D01*
X130206838Y-72625317D01*
X130345910Y-72841441D01*
X130558110Y-72986431D01*
X130810000Y-73037440D01*
X133350000Y-73037440D01*
X133585317Y-72993162D01*
X133801441Y-72854090D01*
X133946431Y-72641890D01*
X133997440Y-72390000D01*
X133997440Y-69850000D01*
X133953162Y-69614683D01*
X133814090Y-69398559D01*
X133601890Y-69253569D01*
X133350000Y-69202560D01*
X130810000Y-69202560D01*
X130574683Y-69246838D01*
X130358559Y-69385910D01*
X130213569Y-69598110D01*
X130162560Y-69850000D01*
X128218000Y-69850000D01*
X128218000Y-52070000D01*
X167242968Y-52070000D01*
X167349308Y-52604609D01*
X167652140Y-53057828D01*
X168074439Y-53340000D01*
X167652140Y-53622172D01*
X167349308Y-54075391D01*
X167242968Y-54610000D01*
X167349308Y-55144609D01*
X167652140Y-55597828D01*
X168074439Y-55880000D01*
X167652140Y-56162172D01*
X167349308Y-56615391D01*
X167242968Y-57150000D01*
X167349308Y-57684609D01*
X167652140Y-58137828D01*
X168074439Y-58420000D01*
X167652140Y-58702172D01*
X167349308Y-59155391D01*
X167242968Y-59690000D01*
X167349308Y-60224609D01*
X167652140Y-60677828D01*
X168074439Y-60960000D01*
X167652140Y-61242172D01*
X167349308Y-61695391D01*
X167242968Y-62230000D01*
X167349308Y-62764609D01*
X167652140Y-63217828D01*
X168074439Y-63500000D01*
X167652140Y-63782172D01*
X167349308Y-64235391D01*
X167242968Y-64770000D01*
X167349308Y-65304609D01*
X167652140Y-65757828D01*
X168074439Y-66040000D01*
X167652140Y-66322172D01*
X167349308Y-66775391D01*
X167242968Y-67310000D01*
X167349308Y-67844609D01*
X167652140Y-68297828D01*
X168074439Y-68580000D01*
X167652140Y-68862172D01*
X167349308Y-69315391D01*
X167242968Y-69850000D01*
X167349308Y-70384609D01*
X167652140Y-70837828D01*
X168074439Y-71120000D01*
X167652140Y-71402172D01*
X167349308Y-71855391D01*
X167242968Y-72390000D01*
X167349308Y-72924609D01*
X167652140Y-73377828D01*
X168074439Y-73660000D01*
X167652140Y-73942172D01*
X167349308Y-74395391D01*
X167242968Y-74930000D01*
X167349308Y-75464609D01*
X167652140Y-75917828D01*
X168074439Y-76200000D01*
X167652140Y-76482172D01*
X167349308Y-76935391D01*
X167242968Y-77470000D01*
X167349308Y-78004609D01*
X167652140Y-78457828D01*
X168079933Y-78743671D01*
X168034086Y-78756578D01*
X167602980Y-79096108D01*
X167334623Y-79574770D01*
X167317780Y-79666930D01*
X167440280Y-79883000D01*
X168783000Y-79883000D01*
X168783000Y-79863000D01*
X169037000Y-79863000D01*
X169037000Y-79883000D01*
X169057000Y-79883000D01*
X169057000Y-80137000D01*
X169037000Y-80137000D01*
X169037000Y-81253277D01*
X169074126Y-81280000D01*
X169037000Y-81306723D01*
X169037000Y-82423000D01*
X169057000Y-82423000D01*
X169057000Y-82677000D01*
X169037000Y-82677000D01*
X169037000Y-83793277D01*
X169074126Y-83820000D01*
X169037000Y-83846723D01*
X169037000Y-84963000D01*
X169057000Y-84963000D01*
X169057000Y-85217000D01*
X169037000Y-85217000D01*
X169037000Y-86333277D01*
X169074126Y-86360000D01*
X169037000Y-86386723D01*
X169037000Y-87503000D01*
X169057000Y-87503000D01*
X169057000Y-87757000D01*
X169037000Y-87757000D01*
X169037000Y-88873277D01*
X169074126Y-88900000D01*
X169037000Y-88926723D01*
X169037000Y-90043000D01*
X169057000Y-90043000D01*
X169057000Y-90297000D01*
X169037000Y-90297000D01*
X169037000Y-91413277D01*
X169074126Y-91440000D01*
X169037000Y-91466723D01*
X169037000Y-92583000D01*
X171323000Y-92583000D01*
X171323000Y-92563000D01*
X171577000Y-92563000D01*
X171577000Y-92583000D01*
X172919720Y-92583000D01*
X173042220Y-92366930D01*
X173025377Y-92274770D01*
X172757020Y-91796108D01*
X172325914Y-91456578D01*
X172280067Y-91443671D01*
X172707860Y-91157828D01*
X173010692Y-90704609D01*
X173117032Y-90170000D01*
X173010692Y-89635391D01*
X172707860Y-89182172D01*
X172285561Y-88900000D01*
X172707860Y-88617828D01*
X173010692Y-88164609D01*
X173117032Y-87630000D01*
X173010692Y-87095391D01*
X172707860Y-86642172D01*
X172285561Y-86360000D01*
X172707860Y-86077828D01*
X173010692Y-85624609D01*
X173117032Y-85090000D01*
X173010692Y-84555391D01*
X172707860Y-84102172D01*
X172285561Y-83820000D01*
X172707860Y-83537828D01*
X173010692Y-83084609D01*
X173117032Y-82550000D01*
X173010692Y-82015391D01*
X172707860Y-81562172D01*
X172285561Y-81280000D01*
X172707860Y-80997828D01*
X173010692Y-80544609D01*
X173117032Y-80010000D01*
X173010692Y-79475391D01*
X172707860Y-79022172D01*
X172285561Y-78740000D01*
X172707860Y-78457828D01*
X173010692Y-78004609D01*
X173117032Y-77470000D01*
X173010692Y-76935391D01*
X172707860Y-76482172D01*
X172285561Y-76200000D01*
X172707860Y-75917828D01*
X173010692Y-75464609D01*
X173117032Y-74930000D01*
X173010692Y-74395391D01*
X172707860Y-73942172D01*
X172285561Y-73660000D01*
X172707860Y-73377828D01*
X173010692Y-72924609D01*
X173117032Y-72390000D01*
X173010692Y-71855391D01*
X172707860Y-71402172D01*
X172285561Y-71120000D01*
X172707860Y-70837828D01*
X173010692Y-70384609D01*
X173117032Y-69850000D01*
X173010692Y-69315391D01*
X172707860Y-68862172D01*
X172285561Y-68580000D01*
X172707860Y-68297828D01*
X173010692Y-67844609D01*
X173117032Y-67310000D01*
X173010692Y-66775391D01*
X172707860Y-66322172D01*
X172285561Y-66040000D01*
X172707860Y-65757828D01*
X173010692Y-65304609D01*
X173117032Y-64770000D01*
X173010692Y-64235391D01*
X172707860Y-63782172D01*
X172285561Y-63500000D01*
X172707860Y-63217828D01*
X173010692Y-62764609D01*
X173117032Y-62230000D01*
X173010692Y-61695391D01*
X172707860Y-61242172D01*
X172285561Y-60960000D01*
X172707860Y-60677828D01*
X173010692Y-60224609D01*
X173117032Y-59690000D01*
X173010692Y-59155391D01*
X172707860Y-58702172D01*
X172285561Y-58420000D01*
X172707860Y-58137828D01*
X173010692Y-57684609D01*
X173117032Y-57150000D01*
X173010692Y-56615391D01*
X172707860Y-56162172D01*
X172285561Y-55880000D01*
X172707860Y-55597828D01*
X173010692Y-55144609D01*
X173117032Y-54610000D01*
X173010692Y-54075391D01*
X172707860Y-53622172D01*
X172285561Y-53340000D01*
X172707860Y-53057828D01*
X173010692Y-52604609D01*
X173117032Y-52070000D01*
X173010692Y-51535391D01*
X172707860Y-51082172D01*
X172254641Y-50779340D01*
X171720032Y-50673000D01*
X171179968Y-50673000D01*
X170645359Y-50779340D01*
X170192140Y-51082172D01*
X170180000Y-51100341D01*
X170167860Y-51082172D01*
X169714641Y-50779340D01*
X169180032Y-50673000D01*
X168639968Y-50673000D01*
X168105359Y-50779340D01*
X167652140Y-51082172D01*
X167349308Y-51535391D01*
X167242968Y-52070000D01*
X128218000Y-52070000D01*
X128218000Y-49715167D01*
X161370838Y-49715167D01*
X161512883Y-50058943D01*
X161775673Y-50322192D01*
X162119201Y-50464838D01*
X162491167Y-50465162D01*
X162834943Y-50323117D01*
X163098192Y-50060327D01*
X163144549Y-49948687D01*
X163944236Y-49149000D01*
X174637764Y-49149000D01*
X175387000Y-49898236D01*
X175387000Y-61678811D01*
X175341162Y-61789201D01*
X175340838Y-62161167D01*
X175482883Y-62504943D01*
X175745673Y-62768192D01*
X176089201Y-62910838D01*
X176461167Y-62911162D01*
X176804943Y-62769117D01*
X177068192Y-62506327D01*
X177210838Y-62162799D01*
X177211162Y-61790833D01*
X177165000Y-61679112D01*
X177165000Y-49530000D01*
X177097329Y-49189794D01*
X176904618Y-48901382D01*
X175634618Y-47631382D01*
X175346206Y-47438671D01*
X175006000Y-47371000D01*
X163576000Y-47371000D01*
X163235794Y-47438671D01*
X162947382Y-47631382D01*
X161887526Y-48691238D01*
X161777057Y-48736883D01*
X161513808Y-48999673D01*
X161371162Y-49343201D01*
X161370838Y-49715167D01*
X128218000Y-49715167D01*
X128218000Y-46430000D01*
X179630000Y-46430000D01*
X179630000Y-105970000D01*
M02*
