M48
;DRILL file {KiCad 4.0.3+e1-6302~38~ubuntu16.04.1-stable} date Fri Aug 19 22:38:06 2016
;FORMAT={-:-/ absolute / inch / decimal}
FMAT,2
INCH,TZ
T1C0.016
T2C0.040
T3C0.060
%
G90
G05
M72
T1
X5.87Y-3.13
X5.93Y-2.89
X5.96Y-3.14
X6.13Y-2.5
X6.19Y-3.11
X6.26Y-1.98
X6.39Y-1.95
X6.44Y-3.74
X6.94Y-2.44
T2
X6.65Y-2.05
X6.65Y-2.15
X6.65Y-2.25
X6.65Y-2.35
X6.65Y-2.45
X6.65Y-2.55
X6.65Y-2.65
X6.65Y-2.75
X6.65Y-2.85
X6.65Y-2.95
X6.65Y-3.05
X6.65Y-3.15
X6.65Y-3.25
X6.65Y-3.35
X6.65Y-3.45
X6.65Y-3.55
X6.65Y-3.65
X6.65Y-3.75
X6.65Y-3.85
X6.65Y-3.95
X6.75Y-2.05
X6.75Y-2.15
X6.75Y-2.25
X6.75Y-2.35
X6.75Y-2.45
X6.75Y-2.55
X6.75Y-2.65
X6.75Y-2.75
X6.75Y-2.85
X6.75Y-2.95
X6.75Y-3.05
X6.75Y-3.15
X6.75Y-3.25
X6.75Y-3.35
X6.75Y-3.45
X6.75Y-3.55
X6.75Y-3.65
X6.75Y-3.75
X6.75Y-3.85
X6.75Y-3.95
T3
X5.2Y-2.8
X5.2Y-3.
X5.2Y-3.2
T0
M30
