M48
;DRILL file {KiCad 4.0.4-stable} date 12/03/16 12:23:56
;FORMAT={-:-/ absolute / metric / decimal}
FMAT,2
METRIC,TZ
T1C0.800
T2C1.000
T3C1.016
T4C1.524
%
G90
G05
M71
T1
X91.4Y-82.9
X92.25Y-87.75
X92.5Y-90.5
X98.7Y-82.9
X101.25Y-90.5
X102.5Y-104.4
X103.25Y-87.75
X104.2Y-102.5
X109.Y-117.75
X109.Y-125.37
X111.54Y-117.75
X111.54Y-125.37
X114.08Y-117.75
X114.08Y-125.37
X116.25Y-113.735
X116.5Y-104.4
X117.9Y-102.5
X120.Y-113.75
X120.5Y-117.75
X120.5Y-125.37
X122.Y-94.1
X122.055Y-103.9
X123.04Y-117.75
X123.04Y-125.37
X125.58Y-117.75
X125.58Y-125.37
X146.25Y-103.234
X148.5Y-98.8
X148.6Y-95.2
X150.1Y-103.25
X150.6Y-95.2
X150.6Y-98.8
X153.5Y-103.9
X153.54Y-95.04
X157.5Y-96.25
X157.5Y-105.
T2
X105.75Y-106.5
X105.75Y-114.12
X107.34Y-128.
X108.38Y-134.75
X109.25Y-131.
X110.28Y-91.
X110.3Y-95.3
X110.3Y-99.75
X111.25Y-106.5
X111.25Y-114.12
X112.1Y-76.
X112.1Y-78.
X116.Y-134.75
X116.87Y-131.
X117.5Y-128.
X117.7Y-74.4
X117.7Y-79.4
X117.9Y-91.
X117.92Y-95.3
X117.92Y-99.75
X120.25Y-128.
X120.38Y-134.75
X122.5Y-131.
X123.75Y-105.88
X123.75Y-113.5
X128.Y-134.75
X128.25Y-110.25
X128.25Y-112.79
X130.12Y-131.
X130.41Y-128.
X132.25Y-102.63
X132.25Y-110.25
X133.8Y-98.
X135.001Y-115.997
X135.46Y-113.04
X138.Y-110.5
X138.8Y-98.
X140.54Y-113.04
X143.1Y-97.1
X143.1Y-99.1
X143.75Y-105.63
X143.75Y-113.25
X144.88Y-83.1
X145.161Y-115.997
X146.3Y-74.3
X146.3Y-79.3
X146.5Y-107.25
X147.5Y-110.25
X147.5Y-112.79
X149.5Y-115.897
X151.7Y-75.7
X151.7Y-77.7
X151.75Y-113.04
X152.5Y-83.1
X152.5Y-87.75
X154.12Y-107.25
X154.29Y-110.5
X155.04Y-90.29
X156.38Y-93.6
X156.83Y-113.04
X157.58Y-87.75
X158.9Y-77.5
X158.9Y-80.04
X159.66Y-115.897
X162.Y-91.
X164.Y-93.6
X172.16Y-91.
T3
X96.01Y-95.635
X96.01Y-98.175
X96.01Y-100.715
X96.01Y-103.255
X96.01Y-105.795
X96.01Y-108.335
X96.01Y-110.875
X96.01Y-113.415
X96.01Y-115.955
X96.01Y-118.495
X96.01Y-121.035
X96.01Y-123.575
X96.01Y-126.115
X96.01Y-128.655
X96.01Y-131.195
X96.01Y-133.735
X96.01Y-136.275
X96.01Y-138.815
X96.01Y-141.355
X96.01Y-143.895
X98.55Y-95.635
X98.55Y-98.175
X98.55Y-100.715
X98.55Y-103.255
X98.55Y-105.795
X98.55Y-108.335
X98.55Y-110.875
X98.55Y-113.415
X98.55Y-115.955
X98.55Y-118.495
X98.55Y-121.035
X98.55Y-123.575
X98.55Y-126.115
X98.55Y-128.655
X98.55Y-131.195
X98.55Y-133.735
X98.55Y-136.275
X98.55Y-138.815
X98.55Y-141.355
X98.55Y-143.895
X133.25Y-120.912
X133.25Y-132.85
X139.346Y-118.88
X145.188Y-120.912
X145.188Y-132.85
X148.75Y-120.912
X148.75Y-132.85
X154.846Y-118.88
X160.688Y-120.912
X160.688Y-132.85
X167.13Y-95.635
X167.13Y-98.175
X167.13Y-100.715
X167.13Y-103.255
X167.13Y-105.795
X167.13Y-108.335
X167.13Y-110.875
X167.13Y-113.415
X167.13Y-115.955
X167.13Y-118.495
X167.13Y-121.035
X167.13Y-123.575
X167.13Y-126.115
X167.13Y-128.655
X167.13Y-131.195
X167.13Y-133.735
X167.13Y-136.275
X167.13Y-138.815
X167.13Y-141.355
X167.13Y-143.895
X169.67Y-95.635
X169.67Y-98.175
X169.67Y-100.715
X169.67Y-103.255
X169.67Y-105.795
X169.67Y-108.335
X169.67Y-110.875
X169.67Y-113.415
X169.67Y-115.955
X169.67Y-118.495
X169.67Y-121.035
X169.67Y-123.575
X169.67Y-126.115
X169.67Y-128.655
X169.67Y-131.195
X169.67Y-133.735
X169.67Y-136.275
X169.67Y-138.815
X169.67Y-141.355
X169.67Y-143.895
T4
X94.67Y-150.25
X99.75Y-150.25
X104.83Y-150.25
X155.96Y-150.25
X161.04Y-150.25
X167.21Y-150.25
X172.29Y-150.25
T0
M30
