G04 #@! TF.FileFunction,Copper,L1,Top,Signal*
%FSLAX46Y46*%
G04 Gerber Fmt 4.6, Leading zero omitted, Abs format (unit mm)*
G04 Created by KiCad (PCBNEW 4.0.6) date 10/02/17 17:06:01*
%MOMM*%
%LPD*%
G01*
G04 APERTURE LIST*
%ADD10C,0.100000*%
%ADD11C,0.200000*%
%ADD12R,2.600000X1.600000*%
%ADD13R,1.250000X1.500000*%
%ADD14R,1.700000X1.700000*%
%ADD15O,1.700000X1.700000*%
%ADD16R,1.300000X1.500000*%
%ADD17R,3.800000X2.000000*%
%ADD18R,1.500000X2.000000*%
%ADD19O,0.900000X2.500000*%
%ADD20O,2.500000X0.900000*%
%ADD21R,6.000000X6.000000*%
%ADD22R,2.000000X1.524000*%
%ADD23O,2.000000X1.524000*%
%ADD24C,5.000000*%
%ADD25C,0.800000*%
%ADD26C,0.750000*%
%ADD27C,1.000000*%
%ADD28C,0.500000*%
%ADD29C,0.254000*%
G04 APERTURE END LIST*
D10*
D11*
X171299143Y-109416095D02*
X171346762Y-109463714D01*
X171394381Y-109606571D01*
X171394381Y-109701809D01*
X171346762Y-109844667D01*
X171251524Y-109939905D01*
X171156286Y-109987524D01*
X170965810Y-110035143D01*
X170822952Y-110035143D01*
X170632476Y-109987524D01*
X170537238Y-109939905D01*
X170442000Y-109844667D01*
X170394381Y-109701809D01*
X170394381Y-109606571D01*
X170442000Y-109463714D01*
X170489619Y-109416095D01*
X171394381Y-108987524D02*
X170727714Y-108987524D01*
X170394381Y-108987524D02*
X170442000Y-109035143D01*
X170489619Y-108987524D01*
X170442000Y-108939905D01*
X170394381Y-108987524D01*
X170489619Y-108987524D01*
X171394381Y-108511334D02*
X170394381Y-108511334D01*
X171013429Y-108416096D02*
X171394381Y-108130381D01*
X170727714Y-108130381D02*
X171108667Y-108511334D01*
X171394381Y-107273238D02*
X170870571Y-107273238D01*
X170775333Y-107320857D01*
X170727714Y-107416095D01*
X170727714Y-107606572D01*
X170775333Y-107701810D01*
X171346762Y-107273238D02*
X171394381Y-107368476D01*
X171394381Y-107606572D01*
X171346762Y-107701810D01*
X171251524Y-107749429D01*
X171156286Y-107749429D01*
X171061048Y-107701810D01*
X171013429Y-107606572D01*
X171013429Y-107368476D01*
X170965810Y-107273238D01*
X171394381Y-106035143D02*
X170394381Y-106035143D01*
X170727714Y-105558953D02*
X171394381Y-105558953D01*
X170822952Y-105558953D02*
X170775333Y-105511334D01*
X170727714Y-105416096D01*
X170727714Y-105273238D01*
X170775333Y-105178000D01*
X170870571Y-105130381D01*
X171394381Y-105130381D01*
X170727714Y-104797048D02*
X170727714Y-104416096D01*
X170394381Y-104654191D02*
X171251524Y-104654191D01*
X171346762Y-104606572D01*
X171394381Y-104511334D01*
X171394381Y-104416096D01*
X171346762Y-103701809D02*
X171394381Y-103797047D01*
X171394381Y-103987524D01*
X171346762Y-104082762D01*
X171251524Y-104130381D01*
X170870571Y-104130381D01*
X170775333Y-104082762D01*
X170727714Y-103987524D01*
X170727714Y-103797047D01*
X170775333Y-103701809D01*
X170870571Y-103654190D01*
X170965810Y-103654190D01*
X171061048Y-104130381D01*
X171394381Y-103225619D02*
X170727714Y-103225619D01*
X170918190Y-103225619D02*
X170822952Y-103178000D01*
X170775333Y-103130381D01*
X170727714Y-103035143D01*
X170727714Y-102939904D01*
X170727714Y-102606571D02*
X171394381Y-102606571D01*
X170822952Y-102606571D02*
X170775333Y-102558952D01*
X170727714Y-102463714D01*
X170727714Y-102320856D01*
X170775333Y-102225618D01*
X170870571Y-102177999D01*
X171394381Y-102177999D01*
X171394381Y-101273237D02*
X170870571Y-101273237D01*
X170775333Y-101320856D01*
X170727714Y-101416094D01*
X170727714Y-101606571D01*
X170775333Y-101701809D01*
X171346762Y-101273237D02*
X171394381Y-101368475D01*
X171394381Y-101606571D01*
X171346762Y-101701809D01*
X171251524Y-101749428D01*
X171156286Y-101749428D01*
X171061048Y-101701809D01*
X171013429Y-101606571D01*
X171013429Y-101368475D01*
X170965810Y-101273237D01*
X171346762Y-100368475D02*
X171394381Y-100463713D01*
X171394381Y-100654190D01*
X171346762Y-100749428D01*
X171299143Y-100797047D01*
X171203905Y-100844666D01*
X170918190Y-100844666D01*
X170822952Y-100797047D01*
X170775333Y-100749428D01*
X170727714Y-100654190D01*
X170727714Y-100463713D01*
X170775333Y-100368475D01*
X171394381Y-99939904D02*
X170727714Y-99939904D01*
X170394381Y-99939904D02*
X170442000Y-99987523D01*
X170489619Y-99939904D01*
X170442000Y-99892285D01*
X170394381Y-99939904D01*
X170489619Y-99939904D01*
X171394381Y-99320857D02*
X171346762Y-99416095D01*
X171299143Y-99463714D01*
X171203905Y-99511333D01*
X170918190Y-99511333D01*
X170822952Y-99463714D01*
X170775333Y-99416095D01*
X170727714Y-99320857D01*
X170727714Y-99177999D01*
X170775333Y-99082761D01*
X170822952Y-99035142D01*
X170918190Y-98987523D01*
X171203905Y-98987523D01*
X171299143Y-99035142D01*
X171346762Y-99082761D01*
X171394381Y-99177999D01*
X171394381Y-99320857D01*
X170727714Y-98558952D02*
X171394381Y-98558952D01*
X170822952Y-98558952D02*
X170775333Y-98511333D01*
X170727714Y-98416095D01*
X170727714Y-98273237D01*
X170775333Y-98177999D01*
X170870571Y-98130380D01*
X171394381Y-98130380D01*
X171394381Y-97225618D02*
X170870571Y-97225618D01*
X170775333Y-97273237D01*
X170727714Y-97368475D01*
X170727714Y-97558952D01*
X170775333Y-97654190D01*
X171346762Y-97225618D02*
X171394381Y-97320856D01*
X171394381Y-97558952D01*
X171346762Y-97654190D01*
X171251524Y-97701809D01*
X171156286Y-97701809D01*
X171061048Y-97654190D01*
X171013429Y-97558952D01*
X171013429Y-97320856D01*
X170965810Y-97225618D01*
X171394381Y-96606571D02*
X171346762Y-96701809D01*
X171251524Y-96749428D01*
X170394381Y-96749428D01*
X171013429Y-95463713D02*
X171013429Y-94701808D01*
X171394381Y-93463713D02*
X170394381Y-93463713D01*
X170394381Y-93082760D01*
X170442000Y-92987522D01*
X170489619Y-92939903D01*
X170584857Y-92892284D01*
X170727714Y-92892284D01*
X170822952Y-92939903D01*
X170870571Y-92987522D01*
X170918190Y-93082760D01*
X170918190Y-93463713D01*
X171394381Y-92320856D02*
X171346762Y-92416094D01*
X171299143Y-92463713D01*
X171203905Y-92511332D01*
X170918190Y-92511332D01*
X170822952Y-92463713D01*
X170775333Y-92416094D01*
X170727714Y-92320856D01*
X170727714Y-92177998D01*
X170775333Y-92082760D01*
X170822952Y-92035141D01*
X170918190Y-91987522D01*
X171203905Y-91987522D01*
X171299143Y-92035141D01*
X171346762Y-92082760D01*
X171394381Y-92177998D01*
X171394381Y-92320856D01*
X170727714Y-91558951D02*
X171394381Y-91558951D01*
X170822952Y-91558951D02*
X170775333Y-91511332D01*
X170727714Y-91416094D01*
X170727714Y-91273236D01*
X170775333Y-91177998D01*
X170870571Y-91130379D01*
X171394381Y-91130379D01*
X171346762Y-90225617D02*
X171394381Y-90320855D01*
X171394381Y-90511332D01*
X171346762Y-90606570D01*
X171299143Y-90654189D01*
X171203905Y-90701808D01*
X170918190Y-90701808D01*
X170822952Y-90654189D01*
X170775333Y-90606570D01*
X170727714Y-90511332D01*
X170727714Y-90320855D01*
X170775333Y-90225617D01*
X171394381Y-89797046D02*
X170394381Y-89797046D01*
X171394381Y-89368474D02*
X170870571Y-89368474D01*
X170775333Y-89416093D01*
X170727714Y-89511331D01*
X170727714Y-89654189D01*
X170775333Y-89749427D01*
X170822952Y-89797046D01*
X171394381Y-88749427D02*
X171346762Y-88844665D01*
X171299143Y-88892284D01*
X171203905Y-88939903D01*
X170918190Y-88939903D01*
X170822952Y-88892284D01*
X170775333Y-88844665D01*
X170727714Y-88749427D01*
X170727714Y-88606569D01*
X170775333Y-88511331D01*
X170822952Y-88463712D01*
X170918190Y-88416093D01*
X171203905Y-88416093D01*
X171299143Y-88463712D01*
X171346762Y-88511331D01*
X171394381Y-88606569D01*
X171394381Y-88749427D01*
X170394381Y-87320855D02*
X171394381Y-87082760D01*
X170680095Y-86892283D01*
X171394381Y-86701807D01*
X170394381Y-86463712D01*
X171394381Y-86082760D02*
X170727714Y-86082760D01*
X170394381Y-86082760D02*
X170442000Y-86130379D01*
X170489619Y-86082760D01*
X170442000Y-86035141D01*
X170394381Y-86082760D01*
X170489619Y-86082760D01*
X170870571Y-85273236D02*
X170870571Y-85606570D01*
X171394381Y-85606570D02*
X170394381Y-85606570D01*
X170394381Y-85130379D01*
X171394381Y-84749427D02*
X170727714Y-84749427D01*
X170394381Y-84749427D02*
X170442000Y-84797046D01*
X170489619Y-84749427D01*
X170442000Y-84701808D01*
X170394381Y-84749427D01*
X170489619Y-84749427D01*
X170870571Y-83511332D02*
X170870571Y-83177998D01*
X171394381Y-83035141D02*
X171394381Y-83511332D01*
X170394381Y-83511332D01*
X170394381Y-83035141D01*
X171346762Y-82654189D02*
X171394381Y-82511332D01*
X171394381Y-82273236D01*
X171346762Y-82177998D01*
X171299143Y-82130379D01*
X171203905Y-82082760D01*
X171108667Y-82082760D01*
X171013429Y-82130379D01*
X170965810Y-82177998D01*
X170918190Y-82273236D01*
X170870571Y-82463713D01*
X170822952Y-82558951D01*
X170775333Y-82606570D01*
X170680095Y-82654189D01*
X170584857Y-82654189D01*
X170489619Y-82606570D01*
X170442000Y-82558951D01*
X170394381Y-82463713D01*
X170394381Y-82225617D01*
X170442000Y-82082760D01*
X171394381Y-81654189D02*
X170394381Y-81654189D01*
X170394381Y-81273236D01*
X170442000Y-81177998D01*
X170489619Y-81130379D01*
X170584857Y-81082760D01*
X170727714Y-81082760D01*
X170822952Y-81130379D01*
X170870571Y-81177998D01*
X170918190Y-81273236D01*
X170918190Y-81654189D01*
X171013429Y-80654189D02*
X171013429Y-79892284D01*
X170394381Y-79511332D02*
X171394381Y-79273237D01*
X170680095Y-79082760D01*
X171394381Y-78892284D01*
X170394381Y-78654189D01*
X171394381Y-77701808D02*
X170918190Y-78035142D01*
X171394381Y-78273237D02*
X170394381Y-78273237D01*
X170394381Y-77892284D01*
X170442000Y-77797046D01*
X170489619Y-77749427D01*
X170584857Y-77701808D01*
X170727714Y-77701808D01*
X170822952Y-77749427D01*
X170870571Y-77797046D01*
X170918190Y-77892284D01*
X170918190Y-78273237D01*
X170394381Y-77082761D02*
X170394381Y-76892284D01*
X170442000Y-76797046D01*
X170537238Y-76701808D01*
X170727714Y-76654189D01*
X171061048Y-76654189D01*
X171251524Y-76701808D01*
X171346762Y-76797046D01*
X171394381Y-76892284D01*
X171394381Y-77082761D01*
X171346762Y-77177999D01*
X171251524Y-77273237D01*
X171061048Y-77320856D01*
X170727714Y-77320856D01*
X170537238Y-77273237D01*
X170442000Y-77177999D01*
X170394381Y-77082761D01*
X170394381Y-76035142D02*
X170394381Y-75844665D01*
X170442000Y-75749427D01*
X170537238Y-75654189D01*
X170727714Y-75606570D01*
X171061048Y-75606570D01*
X171251524Y-75654189D01*
X171346762Y-75749427D01*
X171394381Y-75844665D01*
X171394381Y-76035142D01*
X171346762Y-76130380D01*
X171251524Y-76225618D01*
X171061048Y-76273237D01*
X170727714Y-76273237D01*
X170537238Y-76225618D01*
X170442000Y-76130380D01*
X170394381Y-76035142D01*
X171394381Y-75177999D02*
X170394381Y-75177999D01*
X171108667Y-74844665D01*
X170394381Y-74511332D01*
X171394381Y-74511332D01*
X171013429Y-74035142D02*
X171013429Y-73273237D01*
X170394381Y-72892285D02*
X170394381Y-72273237D01*
X170775333Y-72606571D01*
X170775333Y-72463713D01*
X170822952Y-72368475D01*
X170870571Y-72320856D01*
X170965810Y-72273237D01*
X171203905Y-72273237D01*
X171299143Y-72320856D01*
X171346762Y-72368475D01*
X171394381Y-72463713D01*
X171394381Y-72749428D01*
X171346762Y-72844666D01*
X171299143Y-72892285D01*
X170489619Y-71892285D02*
X170442000Y-71844666D01*
X170394381Y-71749428D01*
X170394381Y-71511332D01*
X170442000Y-71416094D01*
X170489619Y-71368475D01*
X170584857Y-71320856D01*
X170680095Y-71320856D01*
X170822952Y-71368475D01*
X171394381Y-71939904D01*
X171394381Y-71320856D01*
D12*
X160550000Y-78232000D03*
X156950000Y-78232000D03*
X152676000Y-78232000D03*
X149076000Y-78232000D03*
D13*
X139192000Y-113050000D03*
X139192000Y-115550000D03*
X150622000Y-112288000D03*
X150622000Y-114788000D03*
D14*
X148336000Y-73406000D03*
D15*
X148336000Y-70866000D03*
X145796000Y-73406000D03*
X145796000Y-70866000D03*
X143256000Y-73406000D03*
X143256000Y-70866000D03*
X140716000Y-73406000D03*
X140716000Y-70866000D03*
X138176000Y-73406000D03*
X138176000Y-70866000D03*
D14*
X136398000Y-83058000D03*
D15*
X136398000Y-80518000D03*
D14*
X160782000Y-118364000D03*
D15*
X158242000Y-118364000D03*
X155702000Y-118364000D03*
X153162000Y-118364000D03*
X150622000Y-118364000D03*
D16*
X141732000Y-115650000D03*
X141732000Y-112950000D03*
X160782000Y-112188000D03*
X160782000Y-114888000D03*
X158242000Y-112188000D03*
X158242000Y-114888000D03*
X155702000Y-112188000D03*
X155702000Y-114888000D03*
X153162000Y-112188000D03*
X153162000Y-114888000D03*
X142240000Y-82884000D03*
X142240000Y-80184000D03*
X144780000Y-80184000D03*
X144780000Y-82884000D03*
X161544000Y-84502000D03*
X161544000Y-87202000D03*
X159004000Y-84502000D03*
X159004000Y-87202000D03*
D17*
X157226000Y-63652000D03*
D18*
X157226000Y-69952000D03*
X159526000Y-69952000D03*
X154926000Y-69952000D03*
D19*
X139657000Y-89425000D03*
X140927000Y-89425000D03*
X142197000Y-89425000D03*
X143467000Y-89425000D03*
X144737000Y-89425000D03*
X146007000Y-89425000D03*
X147277000Y-89425000D03*
X148547000Y-89425000D03*
X149817000Y-89425000D03*
X151087000Y-89425000D03*
X152357000Y-89425000D03*
X153627000Y-89425000D03*
X154897000Y-89425000D03*
X156167000Y-89425000D03*
D20*
X157657000Y-92710000D03*
X157657000Y-93980000D03*
X157657000Y-95250000D03*
X157657000Y-96520000D03*
X157657000Y-97790000D03*
X157657000Y-99060000D03*
X157657000Y-100330000D03*
X157657000Y-101600000D03*
X157657000Y-102870000D03*
X157657000Y-104140000D03*
D19*
X156167000Y-107425000D03*
X154897000Y-107425000D03*
X153627000Y-107425000D03*
X152357000Y-107425000D03*
X151087000Y-107425000D03*
X149817000Y-107425000D03*
X148547000Y-107425000D03*
X147277000Y-107425000D03*
X146007000Y-107425000D03*
X144737000Y-107425000D03*
X143467000Y-107425000D03*
X142197000Y-107425000D03*
X140927000Y-107425000D03*
X139657000Y-107425000D03*
D21*
X147357000Y-98725000D03*
D22*
X164719000Y-66294000D03*
D23*
X167259000Y-66294000D03*
X164719000Y-78994000D03*
X167259000Y-68834000D03*
X164719000Y-81534000D03*
X167259000Y-71374000D03*
X164719000Y-84074000D03*
X167259000Y-73914000D03*
X164719000Y-86614000D03*
X167259000Y-76454000D03*
X164719000Y-89154000D03*
X167259000Y-78994000D03*
X164719000Y-91694000D03*
X167259000Y-81534000D03*
X164719000Y-94234000D03*
X167259000Y-84074000D03*
X164719000Y-96774000D03*
X167259000Y-86614000D03*
X164719000Y-99314000D03*
X167259000Y-89154000D03*
X164719000Y-101854000D03*
X167259000Y-91694000D03*
X164719000Y-104394000D03*
X167259000Y-94234000D03*
X167259000Y-96774000D03*
X164719000Y-106934000D03*
X167259000Y-99314000D03*
X167259000Y-104394000D03*
X167259000Y-106934000D03*
X167259000Y-109474000D03*
X167259000Y-112014000D03*
X164719000Y-109474000D03*
X164719000Y-112014000D03*
X164719000Y-68834000D03*
X164719000Y-71374000D03*
X164719000Y-73914000D03*
X164719000Y-76454000D03*
X164719000Y-114554000D03*
X167259000Y-114554000D03*
X167259000Y-101854000D03*
D24*
X146443700Y-114884200D03*
X134886700Y-114909600D03*
D25*
X140525500Y-110223300D03*
X157226000Y-73406000D03*
X156210000Y-86106000D03*
D26*
X140927000Y-107425000D02*
X140927000Y-109821800D01*
X140927000Y-109821800D02*
X140525500Y-110223300D01*
X139192000Y-111556800D02*
X139192000Y-113050000D01*
X140525500Y-110223300D02*
X139192000Y-111556800D01*
X148336000Y-73406000D02*
X151384000Y-73406000D01*
X152676000Y-74698000D02*
X152676000Y-78232000D01*
X151384000Y-73406000D02*
X152676000Y-74698000D01*
X157226000Y-69952000D02*
X157226000Y-73406000D01*
D27*
X157226000Y-69952000D02*
X157226000Y-63652000D01*
D28*
X139192000Y-113050000D02*
X139192000Y-113110000D01*
X139192000Y-113110000D02*
X141986000Y-115650000D01*
X138811000Y-112923000D02*
X139259000Y-112923000D01*
X150622000Y-112288000D02*
X150622000Y-111264700D01*
X150025100Y-110667800D02*
X142197000Y-110667800D01*
X150622000Y-111264700D02*
X150025100Y-110667800D01*
X141732000Y-112950000D02*
X141732000Y-111188500D01*
X142197000Y-110723500D02*
X142197000Y-110667800D01*
X142197000Y-110667800D02*
X142197000Y-107425000D01*
X141732000Y-111188500D02*
X142197000Y-110723500D01*
X141943000Y-112907000D02*
X141986000Y-112950000D01*
X141939000Y-112876000D02*
X141986000Y-112923000D01*
X160782000Y-114888000D02*
X160782000Y-118364000D01*
X158242000Y-114888000D02*
X158242000Y-118364000D01*
X155702000Y-114888000D02*
X155702000Y-118364000D01*
X153162000Y-114888000D02*
X153162000Y-118364000D01*
X153162000Y-115091200D02*
X152895300Y-114824500D01*
X155702000Y-112188000D02*
X155702000Y-109982000D01*
X155702000Y-109982000D02*
X156167000Y-109517000D01*
X156167000Y-109517000D02*
X156167000Y-107425000D01*
X156167000Y-109517000D02*
X156167000Y-107425000D01*
X153162000Y-112188000D02*
X153162000Y-110744000D01*
X153162000Y-110744000D02*
X154897000Y-109009000D01*
X154897000Y-109009000D02*
X154897000Y-107425000D01*
X154897000Y-109009000D02*
X154897000Y-107425000D01*
X154897000Y-109009000D02*
X154897000Y-107425000D01*
X156167000Y-86149000D02*
X156167000Y-89425000D01*
X156210000Y-86106000D02*
X156167000Y-86149000D01*
D26*
X159526000Y-69952000D02*
X159526000Y-74944000D01*
X160550000Y-75968000D02*
X160550000Y-78232000D01*
X159526000Y-74944000D02*
X160550000Y-75968000D01*
X159526000Y-69952000D02*
X160934000Y-69952000D01*
X167259000Y-64389000D02*
X167259000Y-66294000D01*
X166116000Y-63246000D02*
X167259000Y-64389000D01*
X163322000Y-63246000D02*
X166116000Y-63246000D01*
X162052000Y-64516000D02*
X163322000Y-63246000D01*
X162052000Y-68834000D02*
X162052000Y-64516000D01*
X160934000Y-69952000D02*
X162052000Y-68834000D01*
D28*
X142240000Y-82884000D02*
X142240000Y-84582000D01*
X143467000Y-85809000D02*
X143467000Y-89425000D01*
X142240000Y-84582000D02*
X143467000Y-85809000D01*
X144780000Y-77470000D02*
X140716000Y-73406000D01*
X144780000Y-80184000D02*
X144780000Y-77470000D01*
X142240000Y-80184000D02*
X142240000Y-77470000D01*
X140716000Y-69088000D02*
X140716000Y-70866000D01*
X139446000Y-67818000D02*
X140716000Y-69088000D01*
X136906000Y-67818000D02*
X139446000Y-67818000D01*
X135382000Y-69342000D02*
X136906000Y-67818000D01*
X135382000Y-74422000D02*
X135382000Y-69342000D01*
X136906000Y-75946000D02*
X135382000Y-74422000D01*
X140716000Y-75946000D02*
X136906000Y-75946000D01*
X142240000Y-77470000D02*
X140716000Y-75946000D01*
X164719000Y-96774000D02*
X164084000Y-96774000D01*
X164084000Y-96774000D02*
X160020000Y-92710000D01*
X160020000Y-92710000D02*
X160020000Y-91186000D01*
X160020000Y-91186000D02*
X159004000Y-90170000D01*
X159004000Y-90170000D02*
X159004000Y-87202000D01*
X161544000Y-87202000D02*
X161544000Y-92202000D01*
X161544000Y-92202000D02*
X163576000Y-94234000D01*
X163576000Y-94234000D02*
X164719000Y-94234000D01*
X152357000Y-89425000D02*
X152357000Y-85133000D01*
X161544000Y-82804000D02*
X161544000Y-84502000D01*
X160782000Y-82042000D02*
X161544000Y-82804000D01*
X155448000Y-82042000D02*
X160782000Y-82042000D01*
X152357000Y-85133000D02*
X155448000Y-82042000D01*
X160782000Y-112188000D02*
X160782000Y-108966000D01*
X160782000Y-108966000D02*
X161798000Y-107950000D01*
X161798000Y-107950000D02*
X161798000Y-96774000D01*
X161798000Y-107950000D02*
X161798000Y-96774000D01*
X161798000Y-96774000D02*
X159004000Y-93980000D01*
X159004000Y-93980000D02*
X157657000Y-93980000D01*
X157657000Y-93980000D02*
X158750000Y-93980000D01*
X158242000Y-112188000D02*
X158242000Y-108712000D01*
X158242000Y-108712000D02*
X160274000Y-106680000D01*
X160274000Y-103886000D02*
X160274000Y-106680000D01*
X159258000Y-102870000D02*
X160274000Y-103886000D01*
X157657000Y-102870000D02*
X159258000Y-102870000D01*
X144737000Y-82927000D02*
X144780000Y-82884000D01*
X144737000Y-89425000D02*
X144737000Y-82927000D01*
X159004000Y-84502000D02*
X155020000Y-84502000D01*
X153627000Y-85895000D02*
X153627000Y-89425000D01*
X155020000Y-84502000D02*
X153627000Y-85895000D01*
D29*
G36*
X172264000Y-70495380D02*
X169507000Y-70495380D01*
X169507000Y-110860619D01*
X172264000Y-110860619D01*
X172264000Y-120194000D01*
X133044000Y-120194000D01*
X133044000Y-118720892D01*
X149180514Y-118720892D01*
X149426817Y-119245358D01*
X149855076Y-119635645D01*
X150265110Y-119805476D01*
X150495000Y-119684155D01*
X150495000Y-118491000D01*
X149301181Y-118491000D01*
X149180514Y-118720892D01*
X133044000Y-118720892D01*
X133044000Y-117501114D01*
X133108547Y-117565774D01*
X134260374Y-118044054D01*
X135507554Y-118045143D01*
X136660215Y-117568873D01*
X137542874Y-116687753D01*
X137962574Y-115677002D01*
X138090748Y-115677002D01*
X137932000Y-115835750D01*
X137932000Y-116426309D01*
X138028673Y-116659698D01*
X138207301Y-116838327D01*
X138440690Y-116935000D01*
X138906250Y-116935000D01*
X139065000Y-116776250D01*
X139065000Y-115677000D01*
X139045000Y-115677000D01*
X139045000Y-115423000D01*
X139065000Y-115423000D01*
X139065000Y-115403000D01*
X139319000Y-115403000D01*
X139319000Y-115423000D01*
X139339000Y-115423000D01*
X139339000Y-115677000D01*
X139319000Y-115677000D01*
X139319000Y-116776250D01*
X139477750Y-116935000D01*
X139943310Y-116935000D01*
X140176699Y-116838327D01*
X140355327Y-116659698D01*
X140443412Y-116447043D01*
X140478838Y-116635317D01*
X140617910Y-116851441D01*
X140830110Y-116996431D01*
X141082000Y-117047440D01*
X142382000Y-117047440D01*
X142617317Y-117003162D01*
X142833441Y-116864090D01*
X142978431Y-116651890D01*
X143029440Y-116400000D01*
X143029440Y-114900000D01*
X142985162Y-114664683D01*
X142846090Y-114448559D01*
X142633890Y-114303569D01*
X142620803Y-114300919D01*
X142833441Y-114164090D01*
X142978431Y-113951890D01*
X143029440Y-113700000D01*
X143029440Y-112200000D01*
X142985162Y-111964683D01*
X142846090Y-111748559D01*
X142633890Y-111603569D01*
X142617000Y-111600149D01*
X142617000Y-111555079D01*
X142619279Y-111552800D01*
X149349560Y-111552800D01*
X149349560Y-113038000D01*
X149393838Y-113273317D01*
X149532910Y-113489441D01*
X149601006Y-113535969D01*
X149458673Y-113678302D01*
X149398015Y-113824742D01*
X149102973Y-113110685D01*
X148221853Y-112228026D01*
X147070026Y-111749746D01*
X145822846Y-111748657D01*
X144670185Y-112224927D01*
X143787526Y-113106047D01*
X143309246Y-114257874D01*
X143308157Y-115505054D01*
X143784427Y-116657715D01*
X144665547Y-117540374D01*
X145817374Y-118018654D01*
X147064554Y-118019743D01*
X147095133Y-118007108D01*
X149180514Y-118007108D01*
X149301181Y-118237000D01*
X150495000Y-118237000D01*
X150495000Y-117043845D01*
X150265110Y-116922524D01*
X149855076Y-117092355D01*
X149426817Y-117482642D01*
X149180514Y-118007108D01*
X147095133Y-118007108D01*
X148217215Y-117543473D01*
X149099874Y-116662353D01*
X149438055Y-115847922D01*
X149458673Y-115897698D01*
X149637301Y-116076327D01*
X149870690Y-116173000D01*
X150336250Y-116173000D01*
X150495000Y-116014250D01*
X150495000Y-114915000D01*
X150475000Y-114915000D01*
X150475000Y-114661000D01*
X150495000Y-114661000D01*
X150495000Y-114641000D01*
X150749000Y-114641000D01*
X150749000Y-114661000D01*
X150769000Y-114661000D01*
X150769000Y-114915000D01*
X150749000Y-114915000D01*
X150749000Y-116014250D01*
X150907750Y-116173000D01*
X151373310Y-116173000D01*
X151606699Y-116076327D01*
X151785327Y-115897698D01*
X151873412Y-115685043D01*
X151908838Y-115873317D01*
X152047910Y-116089441D01*
X152260110Y-116234431D01*
X152277000Y-116237851D01*
X152277000Y-117174568D01*
X152111946Y-117284853D01*
X151884298Y-117625553D01*
X151817183Y-117482642D01*
X151388924Y-117092355D01*
X150978890Y-116922524D01*
X150749000Y-117043845D01*
X150749000Y-118237000D01*
X150769000Y-118237000D01*
X150769000Y-118491000D01*
X150749000Y-118491000D01*
X150749000Y-119684155D01*
X150978890Y-119805476D01*
X151388924Y-119635645D01*
X151817183Y-119245358D01*
X151884298Y-119102447D01*
X152111946Y-119443147D01*
X152593715Y-119765054D01*
X153162000Y-119878093D01*
X153730285Y-119765054D01*
X154212054Y-119443147D01*
X154432000Y-119113974D01*
X154651946Y-119443147D01*
X155133715Y-119765054D01*
X155702000Y-119878093D01*
X156270285Y-119765054D01*
X156752054Y-119443147D01*
X156972000Y-119113974D01*
X157191946Y-119443147D01*
X157673715Y-119765054D01*
X158242000Y-119878093D01*
X158810285Y-119765054D01*
X159292054Y-119443147D01*
X159319850Y-119401548D01*
X159328838Y-119449317D01*
X159467910Y-119665441D01*
X159680110Y-119810431D01*
X159932000Y-119861440D01*
X161632000Y-119861440D01*
X161867317Y-119817162D01*
X162083441Y-119678090D01*
X162228431Y-119465890D01*
X162279440Y-119214000D01*
X162279440Y-117514000D01*
X162235162Y-117278683D01*
X162096090Y-117062559D01*
X161883890Y-116917569D01*
X161667000Y-116873648D01*
X161667000Y-116241222D01*
X161667317Y-116241162D01*
X161883441Y-116102090D01*
X162028431Y-115889890D01*
X162079440Y-115638000D01*
X162079440Y-114138000D01*
X162035162Y-113902683D01*
X161896090Y-113686559D01*
X161683890Y-113541569D01*
X161670803Y-113538919D01*
X161883441Y-113402090D01*
X162028431Y-113189890D01*
X162079440Y-112938000D01*
X162079440Y-111438000D01*
X162035162Y-111202683D01*
X161896090Y-110986559D01*
X161683890Y-110841569D01*
X161667000Y-110838149D01*
X161667000Y-109332580D01*
X162423787Y-108575792D01*
X162423790Y-108575790D01*
X162615633Y-108288675D01*
X162643542Y-108148367D01*
X162683001Y-107950000D01*
X162683000Y-107949995D01*
X162683000Y-96774005D01*
X162683001Y-96774000D01*
X162645899Y-96587478D01*
X163106482Y-97048061D01*
X163158308Y-97308609D01*
X163461140Y-97761828D01*
X163883439Y-98044000D01*
X163461140Y-98326172D01*
X163158308Y-98779391D01*
X163051968Y-99314000D01*
X163158308Y-99848609D01*
X163461140Y-100301828D01*
X163883439Y-100584000D01*
X163461140Y-100866172D01*
X163158308Y-101319391D01*
X163051968Y-101854000D01*
X163158308Y-102388609D01*
X163461140Y-102841828D01*
X163883439Y-103124000D01*
X163461140Y-103406172D01*
X163158308Y-103859391D01*
X163051968Y-104394000D01*
X163158308Y-104928609D01*
X163461140Y-105381828D01*
X163883439Y-105664000D01*
X163461140Y-105946172D01*
X163158308Y-106399391D01*
X163051968Y-106934000D01*
X163158308Y-107468609D01*
X163461140Y-107921828D01*
X163883439Y-108204000D01*
X163461140Y-108486172D01*
X163158308Y-108939391D01*
X163051968Y-109474000D01*
X163158308Y-110008609D01*
X163461140Y-110461828D01*
X163883439Y-110744000D01*
X163461140Y-111026172D01*
X163158308Y-111479391D01*
X163051968Y-112014000D01*
X163158308Y-112548609D01*
X163461140Y-113001828D01*
X163883439Y-113284000D01*
X163461140Y-113566172D01*
X163158308Y-114019391D01*
X163051968Y-114554000D01*
X163158308Y-115088609D01*
X163461140Y-115541828D01*
X163914359Y-115844660D01*
X164448968Y-115951000D01*
X164989032Y-115951000D01*
X165523641Y-115844660D01*
X165976860Y-115541828D01*
X166000650Y-115506224D01*
X166383086Y-115807422D01*
X166911308Y-115956130D01*
X167132000Y-115797277D01*
X167132000Y-114681000D01*
X167386000Y-114681000D01*
X167386000Y-115797277D01*
X167606692Y-115956130D01*
X168134914Y-115807422D01*
X168566020Y-115467892D01*
X168834377Y-114989230D01*
X168851220Y-114897070D01*
X168728720Y-114681000D01*
X167386000Y-114681000D01*
X167132000Y-114681000D01*
X167112000Y-114681000D01*
X167112000Y-114427000D01*
X167132000Y-114427000D01*
X167132000Y-113310723D01*
X167094874Y-113284000D01*
X167132000Y-113257277D01*
X167132000Y-112141000D01*
X167386000Y-112141000D01*
X167386000Y-113257277D01*
X167423126Y-113284000D01*
X167386000Y-113310723D01*
X167386000Y-114427000D01*
X168728720Y-114427000D01*
X168851220Y-114210930D01*
X168834377Y-114118770D01*
X168566020Y-113640108D01*
X168134914Y-113300578D01*
X168076028Y-113284000D01*
X168134914Y-113267422D01*
X168566020Y-112927892D01*
X168834377Y-112449230D01*
X168851220Y-112357070D01*
X168728720Y-112141000D01*
X167386000Y-112141000D01*
X167132000Y-112141000D01*
X167112000Y-112141000D01*
X167112000Y-111887000D01*
X167132000Y-111887000D01*
X167132000Y-111867000D01*
X167386000Y-111867000D01*
X167386000Y-111887000D01*
X168728720Y-111887000D01*
X168851220Y-111670930D01*
X168834377Y-111578770D01*
X168566020Y-111100108D01*
X168134914Y-110760578D01*
X168089067Y-110747671D01*
X168516860Y-110461828D01*
X168819692Y-110008609D01*
X168926032Y-109474000D01*
X168819692Y-108939391D01*
X168516860Y-108486172D01*
X168094561Y-108204000D01*
X168516860Y-107921828D01*
X168819692Y-107468609D01*
X168926032Y-106934000D01*
X168819692Y-106399391D01*
X168516860Y-105946172D01*
X168089067Y-105660329D01*
X168134914Y-105647422D01*
X168566020Y-105307892D01*
X168834377Y-104829230D01*
X168851220Y-104737070D01*
X168728720Y-104521000D01*
X167386000Y-104521000D01*
X167386000Y-104541000D01*
X167132000Y-104541000D01*
X167132000Y-104521000D01*
X167112000Y-104521000D01*
X167112000Y-104267000D01*
X167132000Y-104267000D01*
X167132000Y-103150723D01*
X167094874Y-103124000D01*
X167132000Y-103097277D01*
X167132000Y-101981000D01*
X167386000Y-101981000D01*
X167386000Y-103097277D01*
X167423126Y-103124000D01*
X167386000Y-103150723D01*
X167386000Y-104267000D01*
X168728720Y-104267000D01*
X168851220Y-104050930D01*
X168834377Y-103958770D01*
X168566020Y-103480108D01*
X168134914Y-103140578D01*
X168076028Y-103124000D01*
X168134914Y-103107422D01*
X168566020Y-102767892D01*
X168834377Y-102289230D01*
X168851220Y-102197070D01*
X168728720Y-101981000D01*
X167386000Y-101981000D01*
X167132000Y-101981000D01*
X167112000Y-101981000D01*
X167112000Y-101727000D01*
X167132000Y-101727000D01*
X167132000Y-100610723D01*
X167094874Y-100584000D01*
X167132000Y-100557277D01*
X167132000Y-99441000D01*
X167386000Y-99441000D01*
X167386000Y-100557277D01*
X167423126Y-100584000D01*
X167386000Y-100610723D01*
X167386000Y-101727000D01*
X168728720Y-101727000D01*
X168851220Y-101510930D01*
X168834377Y-101418770D01*
X168566020Y-100940108D01*
X168134914Y-100600578D01*
X168076028Y-100584000D01*
X168134914Y-100567422D01*
X168566020Y-100227892D01*
X168834377Y-99749230D01*
X168851220Y-99657070D01*
X168728720Y-99441000D01*
X167386000Y-99441000D01*
X167132000Y-99441000D01*
X167112000Y-99441000D01*
X167112000Y-99187000D01*
X167132000Y-99187000D01*
X167132000Y-98070723D01*
X167094874Y-98044000D01*
X167132000Y-98017277D01*
X167132000Y-96901000D01*
X167386000Y-96901000D01*
X167386000Y-98017277D01*
X167423126Y-98044000D01*
X167386000Y-98070723D01*
X167386000Y-99187000D01*
X168728720Y-99187000D01*
X168851220Y-98970930D01*
X168834377Y-98878770D01*
X168566020Y-98400108D01*
X168134914Y-98060578D01*
X168076028Y-98044000D01*
X168134914Y-98027422D01*
X168566020Y-97687892D01*
X168834377Y-97209230D01*
X168851220Y-97117070D01*
X168728720Y-96901000D01*
X167386000Y-96901000D01*
X167132000Y-96901000D01*
X167112000Y-96901000D01*
X167112000Y-96647000D01*
X167132000Y-96647000D01*
X167132000Y-95530723D01*
X167094874Y-95504000D01*
X167132000Y-95477277D01*
X167132000Y-94361000D01*
X167386000Y-94361000D01*
X167386000Y-95477277D01*
X167423126Y-95504000D01*
X167386000Y-95530723D01*
X167386000Y-96647000D01*
X168728720Y-96647000D01*
X168851220Y-96430930D01*
X168834377Y-96338770D01*
X168566020Y-95860108D01*
X168134914Y-95520578D01*
X168076028Y-95504000D01*
X168134914Y-95487422D01*
X168566020Y-95147892D01*
X168834377Y-94669230D01*
X168851220Y-94577070D01*
X168728720Y-94361000D01*
X167386000Y-94361000D01*
X167132000Y-94361000D01*
X167112000Y-94361000D01*
X167112000Y-94107000D01*
X167132000Y-94107000D01*
X167132000Y-92990723D01*
X167094874Y-92964000D01*
X167132000Y-92937277D01*
X167132000Y-91821000D01*
X167386000Y-91821000D01*
X167386000Y-92937277D01*
X167423126Y-92964000D01*
X167386000Y-92990723D01*
X167386000Y-94107000D01*
X168728720Y-94107000D01*
X168851220Y-93890930D01*
X168834377Y-93798770D01*
X168566020Y-93320108D01*
X168134914Y-92980578D01*
X168076028Y-92964000D01*
X168134914Y-92947422D01*
X168566020Y-92607892D01*
X168834377Y-92129230D01*
X168851220Y-92037070D01*
X168728720Y-91821000D01*
X167386000Y-91821000D01*
X167132000Y-91821000D01*
X167112000Y-91821000D01*
X167112000Y-91567000D01*
X167132000Y-91567000D01*
X167132000Y-90450723D01*
X167094874Y-90424000D01*
X167132000Y-90397277D01*
X167132000Y-89281000D01*
X167386000Y-89281000D01*
X167386000Y-90397277D01*
X167423126Y-90424000D01*
X167386000Y-90450723D01*
X167386000Y-91567000D01*
X168728720Y-91567000D01*
X168851220Y-91350930D01*
X168834377Y-91258770D01*
X168566020Y-90780108D01*
X168134914Y-90440578D01*
X168076028Y-90424000D01*
X168134914Y-90407422D01*
X168566020Y-90067892D01*
X168834377Y-89589230D01*
X168851220Y-89497070D01*
X168728720Y-89281000D01*
X167386000Y-89281000D01*
X167132000Y-89281000D01*
X167112000Y-89281000D01*
X167112000Y-89027000D01*
X167132000Y-89027000D01*
X167132000Y-89007000D01*
X167386000Y-89007000D01*
X167386000Y-89027000D01*
X168728720Y-89027000D01*
X168851220Y-88810930D01*
X168834377Y-88718770D01*
X168566020Y-88240108D01*
X168134914Y-87900578D01*
X168089067Y-87887671D01*
X168516860Y-87601828D01*
X168819692Y-87148609D01*
X168926032Y-86614000D01*
X168819692Y-86079391D01*
X168516860Y-85626172D01*
X168094561Y-85344000D01*
X168516860Y-85061828D01*
X168819692Y-84608609D01*
X168926032Y-84074000D01*
X168819692Y-83539391D01*
X168516860Y-83086172D01*
X168094561Y-82804000D01*
X168516860Y-82521828D01*
X168819692Y-82068609D01*
X168926032Y-81534000D01*
X168819692Y-80999391D01*
X168516860Y-80546172D01*
X168094561Y-80264000D01*
X168516860Y-79981828D01*
X168819692Y-79528609D01*
X168926032Y-78994000D01*
X168819692Y-78459391D01*
X168516860Y-78006172D01*
X168094561Y-77724000D01*
X168516860Y-77441828D01*
X168819692Y-76988609D01*
X168926032Y-76454000D01*
X168819692Y-75919391D01*
X168516860Y-75466172D01*
X168094561Y-75184000D01*
X168516860Y-74901828D01*
X168819692Y-74448609D01*
X168926032Y-73914000D01*
X168819692Y-73379391D01*
X168516860Y-72926172D01*
X168094561Y-72644000D01*
X168516860Y-72361828D01*
X168819692Y-71908609D01*
X168926032Y-71374000D01*
X168819692Y-70839391D01*
X168516860Y-70386172D01*
X168089067Y-70100329D01*
X168134914Y-70087422D01*
X168566020Y-69747892D01*
X168834377Y-69269230D01*
X168851220Y-69177070D01*
X168728720Y-68961000D01*
X167386000Y-68961000D01*
X167386000Y-68981000D01*
X167132000Y-68981000D01*
X167132000Y-68961000D01*
X167112000Y-68961000D01*
X167112000Y-68707000D01*
X167132000Y-68707000D01*
X167132000Y-68687000D01*
X167386000Y-68687000D01*
X167386000Y-68707000D01*
X168728720Y-68707000D01*
X168851220Y-68490930D01*
X168834377Y-68398770D01*
X168566020Y-67920108D01*
X168134914Y-67580578D01*
X168089067Y-67567671D01*
X168516860Y-67281828D01*
X168819692Y-66828609D01*
X168926032Y-66294000D01*
X168819692Y-65759391D01*
X168516860Y-65306172D01*
X168269000Y-65140557D01*
X168269000Y-64389000D01*
X168192118Y-64002490D01*
X167973178Y-63674822D01*
X166830178Y-62531822D01*
X166502510Y-62312882D01*
X166116000Y-62236000D01*
X163322000Y-62236000D01*
X162935490Y-62312882D01*
X162607822Y-62531822D01*
X161337822Y-63801822D01*
X161118882Y-64129490D01*
X161042000Y-64516000D01*
X161042000Y-68415644D01*
X160825051Y-68632593D01*
X160740090Y-68500559D01*
X160527890Y-68355569D01*
X160276000Y-68304560D01*
X158776000Y-68304560D01*
X158540683Y-68348838D01*
X158374523Y-68455759D01*
X158361000Y-68446519D01*
X158361000Y-65299440D01*
X159126000Y-65299440D01*
X159361317Y-65255162D01*
X159577441Y-65116090D01*
X159722431Y-64903890D01*
X159773440Y-64652000D01*
X159773440Y-62652000D01*
X159729162Y-62416683D01*
X159590090Y-62200559D01*
X159377890Y-62055569D01*
X159126000Y-62004560D01*
X155326000Y-62004560D01*
X155090683Y-62048838D01*
X154874559Y-62187910D01*
X154729569Y-62400110D01*
X154678560Y-62652000D01*
X154678560Y-64652000D01*
X154722838Y-64887317D01*
X154861910Y-65103441D01*
X155074110Y-65248431D01*
X155326000Y-65299440D01*
X156091000Y-65299440D01*
X156091000Y-68445156D01*
X156076508Y-68454482D01*
X156035699Y-68413673D01*
X155802310Y-68317000D01*
X155211750Y-68317000D01*
X155053000Y-68475750D01*
X155053000Y-69825000D01*
X155073000Y-69825000D01*
X155073000Y-70079000D01*
X155053000Y-70079000D01*
X155053000Y-71428250D01*
X155211750Y-71587000D01*
X155802310Y-71587000D01*
X156035699Y-71490327D01*
X156077660Y-71448366D01*
X156216000Y-71542890D01*
X156216000Y-73139450D01*
X156191180Y-73199223D01*
X156190821Y-73610971D01*
X156348058Y-73991515D01*
X156638954Y-74282919D01*
X157019223Y-74440820D01*
X157430971Y-74441179D01*
X157811515Y-74283942D01*
X158102919Y-73993046D01*
X158260820Y-73612777D01*
X158261179Y-73201029D01*
X158236000Y-73140091D01*
X158236000Y-71539279D01*
X158377477Y-71448241D01*
X158516000Y-71542890D01*
X158516000Y-74944000D01*
X158592882Y-75330510D01*
X158811822Y-75658178D01*
X159540000Y-76386356D01*
X159540000Y-76784560D01*
X159250000Y-76784560D01*
X159014683Y-76828838D01*
X158798559Y-76967910D01*
X158752031Y-77036006D01*
X158609698Y-76893673D01*
X158376309Y-76797000D01*
X157235750Y-76797000D01*
X157077000Y-76955750D01*
X157077000Y-78105000D01*
X157097000Y-78105000D01*
X157097000Y-78359000D01*
X157077000Y-78359000D01*
X157077000Y-79508250D01*
X157235750Y-79667000D01*
X158376309Y-79667000D01*
X158609698Y-79570327D01*
X158750936Y-79429090D01*
X158785910Y-79483441D01*
X158998110Y-79628431D01*
X159250000Y-79679440D01*
X161850000Y-79679440D01*
X162085317Y-79635162D01*
X162301441Y-79496090D01*
X162446431Y-79283890D01*
X162497440Y-79032000D01*
X162497440Y-77432000D01*
X162453162Y-77196683D01*
X162314090Y-76980559D01*
X162101890Y-76835569D01*
X161850000Y-76784560D01*
X161560000Y-76784560D01*
X161560000Y-75968000D01*
X161483118Y-75581490D01*
X161264178Y-75253822D01*
X160536000Y-74525644D01*
X160536000Y-71539279D01*
X160727441Y-71416090D01*
X160872431Y-71203890D01*
X160921415Y-70962000D01*
X160934000Y-70962000D01*
X161320510Y-70885118D01*
X161648178Y-70666178D01*
X162766178Y-69548178D01*
X162985118Y-69220510D01*
X163056984Y-68859217D01*
X163158308Y-69368609D01*
X163461140Y-69821828D01*
X163883439Y-70104000D01*
X163461140Y-70386172D01*
X163158308Y-70839391D01*
X163051968Y-71374000D01*
X163158308Y-71908609D01*
X163461140Y-72361828D01*
X163883439Y-72644000D01*
X163461140Y-72926172D01*
X163158308Y-73379391D01*
X163051968Y-73914000D01*
X163158308Y-74448609D01*
X163461140Y-74901828D01*
X163883439Y-75184000D01*
X163461140Y-75466172D01*
X163158308Y-75919391D01*
X163051968Y-76454000D01*
X163158308Y-76988609D01*
X163461140Y-77441828D01*
X163883439Y-77724000D01*
X163461140Y-78006172D01*
X163158308Y-78459391D01*
X163051968Y-78994000D01*
X163158308Y-79528609D01*
X163461140Y-79981828D01*
X163883439Y-80264000D01*
X163461140Y-80546172D01*
X163158308Y-80999391D01*
X163051968Y-81534000D01*
X163158308Y-82068609D01*
X163461140Y-82521828D01*
X163883439Y-82804000D01*
X163461140Y-83086172D01*
X163158308Y-83539391D01*
X163051968Y-84074000D01*
X163158308Y-84608609D01*
X163461140Y-85061828D01*
X163883439Y-85344000D01*
X163461140Y-85626172D01*
X163158308Y-86079391D01*
X163051968Y-86614000D01*
X163158308Y-87148609D01*
X163461140Y-87601828D01*
X163883439Y-87884000D01*
X163461140Y-88166172D01*
X163158308Y-88619391D01*
X163051968Y-89154000D01*
X163158308Y-89688609D01*
X163461140Y-90141828D01*
X163883439Y-90424000D01*
X163461140Y-90706172D01*
X163158308Y-91159391D01*
X163051968Y-91694000D01*
X163158308Y-92228609D01*
X163461140Y-92681828D01*
X163883439Y-92964000D01*
X163688101Y-93094521D01*
X162429000Y-91835420D01*
X162429000Y-88555222D01*
X162429317Y-88555162D01*
X162645441Y-88416090D01*
X162790431Y-88203890D01*
X162841440Y-87952000D01*
X162841440Y-86452000D01*
X162797162Y-86216683D01*
X162658090Y-86000559D01*
X162445890Y-85855569D01*
X162432803Y-85852919D01*
X162645441Y-85716090D01*
X162790431Y-85503890D01*
X162841440Y-85252000D01*
X162841440Y-83752000D01*
X162797162Y-83516683D01*
X162658090Y-83300559D01*
X162445890Y-83155569D01*
X162429000Y-83152149D01*
X162429000Y-82804005D01*
X162429001Y-82804000D01*
X162361633Y-82465326D01*
X162361633Y-82465325D01*
X162169790Y-82178210D01*
X162169787Y-82178208D01*
X161407790Y-81416210D01*
X161211305Y-81284924D01*
X161120675Y-81224367D01*
X161064484Y-81213190D01*
X160782000Y-81156999D01*
X160781995Y-81157000D01*
X155448005Y-81157000D01*
X155448000Y-81156999D01*
X155109325Y-81224367D01*
X154822210Y-81416210D01*
X154822208Y-81416213D01*
X151731210Y-84507210D01*
X151539367Y-84794325D01*
X151539367Y-84794326D01*
X151471999Y-85133000D01*
X151472000Y-85133005D01*
X151472000Y-87579652D01*
X151087000Y-87503071D01*
X150671788Y-87585662D01*
X150452000Y-87732520D01*
X150232212Y-87585662D01*
X149817000Y-87503071D01*
X149401788Y-87585662D01*
X149182000Y-87732520D01*
X148962212Y-87585662D01*
X148547000Y-87503071D01*
X148131788Y-87585662D01*
X147912000Y-87732520D01*
X147692212Y-87585662D01*
X147277000Y-87503071D01*
X146861788Y-87585662D01*
X146642000Y-87732520D01*
X146422212Y-87585662D01*
X146007000Y-87503071D01*
X145622000Y-87579652D01*
X145622000Y-84245313D01*
X145665317Y-84237162D01*
X145881441Y-84098090D01*
X146026431Y-83885890D01*
X146077440Y-83634000D01*
X146077440Y-82134000D01*
X146033162Y-81898683D01*
X145894090Y-81682559D01*
X145681890Y-81537569D01*
X145668803Y-81534919D01*
X145881441Y-81398090D01*
X146026431Y-81185890D01*
X146077440Y-80934000D01*
X146077440Y-79434000D01*
X146033162Y-79198683D01*
X145894090Y-78982559D01*
X145681890Y-78837569D01*
X145665000Y-78834149D01*
X145665000Y-78517750D01*
X147141000Y-78517750D01*
X147141000Y-79158310D01*
X147237673Y-79391699D01*
X147416302Y-79570327D01*
X147649691Y-79667000D01*
X148790250Y-79667000D01*
X148949000Y-79508250D01*
X148949000Y-78359000D01*
X147299750Y-78359000D01*
X147141000Y-78517750D01*
X145665000Y-78517750D01*
X145665000Y-77470005D01*
X145665001Y-77470000D01*
X145632317Y-77305690D01*
X147141000Y-77305690D01*
X147141000Y-77946250D01*
X147299750Y-78105000D01*
X148949000Y-78105000D01*
X148949000Y-76955750D01*
X148790250Y-76797000D01*
X147649691Y-76797000D01*
X147416302Y-76893673D01*
X147237673Y-77072301D01*
X147141000Y-77305690D01*
X145632317Y-77305690D01*
X145597633Y-77131326D01*
X145597633Y-77131325D01*
X145405790Y-76844210D01*
X145405787Y-76844208D01*
X143444231Y-74882652D01*
X143824285Y-74807054D01*
X144306054Y-74485147D01*
X144526000Y-74155974D01*
X144745946Y-74485147D01*
X145227715Y-74807054D01*
X145796000Y-74920093D01*
X146364285Y-74807054D01*
X146846054Y-74485147D01*
X146873850Y-74443548D01*
X146882838Y-74491317D01*
X147021910Y-74707441D01*
X147234110Y-74852431D01*
X147486000Y-74903440D01*
X149186000Y-74903440D01*
X149421317Y-74859162D01*
X149637441Y-74720090D01*
X149782431Y-74507890D01*
X149801039Y-74416000D01*
X150965644Y-74416000D01*
X151666000Y-75116356D01*
X151666000Y-76784560D01*
X151376000Y-76784560D01*
X151140683Y-76828838D01*
X150924559Y-76967910D01*
X150878031Y-77036006D01*
X150735698Y-76893673D01*
X150502309Y-76797000D01*
X149361750Y-76797000D01*
X149203000Y-76955750D01*
X149203000Y-78105000D01*
X149223000Y-78105000D01*
X149223000Y-78359000D01*
X149203000Y-78359000D01*
X149203000Y-79508250D01*
X149361750Y-79667000D01*
X150502309Y-79667000D01*
X150735698Y-79570327D01*
X150876936Y-79429090D01*
X150911910Y-79483441D01*
X151124110Y-79628431D01*
X151376000Y-79679440D01*
X153976000Y-79679440D01*
X154211317Y-79635162D01*
X154427441Y-79496090D01*
X154572431Y-79283890D01*
X154623440Y-79032000D01*
X154623440Y-78517750D01*
X155015000Y-78517750D01*
X155015000Y-79158310D01*
X155111673Y-79391699D01*
X155290302Y-79570327D01*
X155523691Y-79667000D01*
X156664250Y-79667000D01*
X156823000Y-79508250D01*
X156823000Y-78359000D01*
X155173750Y-78359000D01*
X155015000Y-78517750D01*
X154623440Y-78517750D01*
X154623440Y-77432000D01*
X154599674Y-77305690D01*
X155015000Y-77305690D01*
X155015000Y-77946250D01*
X155173750Y-78105000D01*
X156823000Y-78105000D01*
X156823000Y-76955750D01*
X156664250Y-76797000D01*
X155523691Y-76797000D01*
X155290302Y-76893673D01*
X155111673Y-77072301D01*
X155015000Y-77305690D01*
X154599674Y-77305690D01*
X154579162Y-77196683D01*
X154440090Y-76980559D01*
X154227890Y-76835569D01*
X153976000Y-76784560D01*
X153686000Y-76784560D01*
X153686000Y-74698000D01*
X153609118Y-74311490D01*
X153390178Y-73983822D01*
X152098178Y-72691822D01*
X151770510Y-72472882D01*
X151384000Y-72396000D01*
X149803334Y-72396000D01*
X149789162Y-72320683D01*
X149650090Y-72104559D01*
X149437890Y-71959569D01*
X149381546Y-71948159D01*
X149386054Y-71945147D01*
X149707961Y-71463378D01*
X149821000Y-70895093D01*
X149821000Y-70836907D01*
X149707961Y-70268622D01*
X149687334Y-70237750D01*
X153541000Y-70237750D01*
X153541000Y-71078309D01*
X153637673Y-71311698D01*
X153816301Y-71490327D01*
X154049690Y-71587000D01*
X154640250Y-71587000D01*
X154799000Y-71428250D01*
X154799000Y-70079000D01*
X153699750Y-70079000D01*
X153541000Y-70237750D01*
X149687334Y-70237750D01*
X149386054Y-69786853D01*
X148904285Y-69464946D01*
X148336000Y-69351907D01*
X147767715Y-69464946D01*
X147285946Y-69786853D01*
X147066000Y-70116026D01*
X146846054Y-69786853D01*
X146364285Y-69464946D01*
X145796000Y-69351907D01*
X145227715Y-69464946D01*
X144745946Y-69786853D01*
X144526000Y-70116026D01*
X144306054Y-69786853D01*
X143824285Y-69464946D01*
X143256000Y-69351907D01*
X142687715Y-69464946D01*
X142205946Y-69786853D01*
X141986000Y-70116026D01*
X141766054Y-69786853D01*
X141601000Y-69676568D01*
X141601000Y-69088005D01*
X141601001Y-69088000D01*
X141548824Y-68825691D01*
X153541000Y-68825691D01*
X153541000Y-69666250D01*
X153699750Y-69825000D01*
X154799000Y-69825000D01*
X154799000Y-68475750D01*
X154640250Y-68317000D01*
X154049690Y-68317000D01*
X153816301Y-68413673D01*
X153637673Y-68592302D01*
X153541000Y-68825691D01*
X141548824Y-68825691D01*
X141533633Y-68749325D01*
X141511506Y-68716210D01*
X141341790Y-68462210D01*
X141341787Y-68462208D01*
X140071790Y-67192210D01*
X139784675Y-67000367D01*
X139728484Y-66989190D01*
X139446000Y-66932999D01*
X139445995Y-66933000D01*
X136906000Y-66933000D01*
X136567325Y-67000367D01*
X136280210Y-67192210D01*
X136280208Y-67192213D01*
X134756210Y-68716210D01*
X134564367Y-69003325D01*
X134564367Y-69003326D01*
X134496999Y-69342000D01*
X134497000Y-69342005D01*
X134497000Y-74421995D01*
X134496999Y-74422000D01*
X134551900Y-74698000D01*
X134564367Y-74760675D01*
X134625676Y-74852431D01*
X134756210Y-75047790D01*
X136280208Y-76571787D01*
X136280210Y-76571790D01*
X136567325Y-76763633D01*
X136906000Y-76831000D01*
X140349420Y-76831000D01*
X141355000Y-77836579D01*
X141355000Y-78830778D01*
X141354683Y-78830838D01*
X141138559Y-78969910D01*
X140993569Y-79182110D01*
X140942560Y-79434000D01*
X140942560Y-80934000D01*
X140986838Y-81169317D01*
X141125910Y-81385441D01*
X141338110Y-81530431D01*
X141351197Y-81533081D01*
X141138559Y-81669910D01*
X140993569Y-81882110D01*
X140942560Y-82134000D01*
X140942560Y-83634000D01*
X140986838Y-83869317D01*
X141125910Y-84085441D01*
X141338110Y-84230431D01*
X141355000Y-84233851D01*
X141355000Y-84581995D01*
X141354999Y-84582000D01*
X141397234Y-84794325D01*
X141422367Y-84920675D01*
X141424589Y-84924000D01*
X141614210Y-85207790D01*
X142582000Y-86175579D01*
X142582000Y-87579652D01*
X142197000Y-87503071D01*
X141781788Y-87585662D01*
X141562000Y-87732520D01*
X141342212Y-87585662D01*
X140927000Y-87503071D01*
X140511788Y-87585662D01*
X140279259Y-87741032D01*
X139951001Y-87580592D01*
X139784000Y-87707498D01*
X139784000Y-89298000D01*
X139804000Y-89298000D01*
X139804000Y-89552000D01*
X139784000Y-89552000D01*
X139784000Y-91142502D01*
X139951001Y-91269408D01*
X140279259Y-91108968D01*
X140511788Y-91264338D01*
X140927000Y-91346929D01*
X141342212Y-91264338D01*
X141562000Y-91117480D01*
X141781788Y-91264338D01*
X142197000Y-91346929D01*
X142612212Y-91264338D01*
X142832000Y-91117480D01*
X143051788Y-91264338D01*
X143467000Y-91346929D01*
X143882212Y-91264338D01*
X144102000Y-91117480D01*
X144321788Y-91264338D01*
X144737000Y-91346929D01*
X145152212Y-91264338D01*
X145372000Y-91117480D01*
X145591788Y-91264338D01*
X146007000Y-91346929D01*
X146422212Y-91264338D01*
X146642000Y-91117480D01*
X146861788Y-91264338D01*
X147277000Y-91346929D01*
X147692212Y-91264338D01*
X147912000Y-91117480D01*
X148131788Y-91264338D01*
X148547000Y-91346929D01*
X148962212Y-91264338D01*
X149182000Y-91117480D01*
X149401788Y-91264338D01*
X149817000Y-91346929D01*
X150232212Y-91264338D01*
X150452000Y-91117480D01*
X150671788Y-91264338D01*
X151087000Y-91346929D01*
X151502212Y-91264338D01*
X151722000Y-91117480D01*
X151941788Y-91264338D01*
X152357000Y-91346929D01*
X152772212Y-91264338D01*
X152992000Y-91117480D01*
X153211788Y-91264338D01*
X153627000Y-91346929D01*
X154042212Y-91264338D01*
X154262000Y-91117480D01*
X154481788Y-91264338D01*
X154897000Y-91346929D01*
X155312212Y-91264338D01*
X155532000Y-91117480D01*
X155751788Y-91264338D01*
X156167000Y-91346929D01*
X156582212Y-91264338D01*
X156934211Y-91029140D01*
X157169409Y-90677141D01*
X157252000Y-90261929D01*
X157252000Y-88588071D01*
X157169409Y-88172859D01*
X157052000Y-87997144D01*
X157052000Y-86727904D01*
X157086919Y-86693046D01*
X157244820Y-86312777D01*
X157245179Y-85901029D01*
X157087942Y-85520485D01*
X156954690Y-85387000D01*
X157731962Y-85387000D01*
X157750838Y-85487317D01*
X157889910Y-85703441D01*
X158102110Y-85848431D01*
X158115197Y-85851081D01*
X157902559Y-85987910D01*
X157757569Y-86200110D01*
X157706560Y-86452000D01*
X157706560Y-87952000D01*
X157750838Y-88187317D01*
X157889910Y-88403441D01*
X158102110Y-88548431D01*
X158119000Y-88551851D01*
X158119000Y-90169995D01*
X158118999Y-90170000D01*
X158155202Y-90352000D01*
X158186367Y-90508675D01*
X158298932Y-90677141D01*
X158378210Y-90795790D01*
X159135000Y-91552579D01*
X159135000Y-91858505D01*
X158909141Y-91707591D01*
X158493929Y-91625000D01*
X156820071Y-91625000D01*
X156404859Y-91707591D01*
X156052860Y-91942789D01*
X155817662Y-92294788D01*
X155735071Y-92710000D01*
X155817662Y-93125212D01*
X155964520Y-93345000D01*
X155817662Y-93564788D01*
X155735071Y-93980000D01*
X155817662Y-94395212D01*
X155964520Y-94615000D01*
X155817662Y-94834788D01*
X155735071Y-95250000D01*
X155817662Y-95665212D01*
X155964520Y-95885000D01*
X155817662Y-96104788D01*
X155735071Y-96520000D01*
X155817662Y-96935212D01*
X155964520Y-97155000D01*
X155817662Y-97374788D01*
X155735071Y-97790000D01*
X155817662Y-98205212D01*
X155964520Y-98425000D01*
X155817662Y-98644788D01*
X155735071Y-99060000D01*
X155817662Y-99475212D01*
X155964520Y-99695000D01*
X155817662Y-99914788D01*
X155735071Y-100330000D01*
X155817662Y-100745212D01*
X155964520Y-100965000D01*
X155817662Y-101184788D01*
X155735071Y-101600000D01*
X155817662Y-102015212D01*
X155964520Y-102235000D01*
X155817662Y-102454788D01*
X155735071Y-102870000D01*
X155817662Y-103285212D01*
X155973032Y-103517741D01*
X155812592Y-103845999D01*
X155939498Y-104013000D01*
X157530000Y-104013000D01*
X157530000Y-103993000D01*
X157784000Y-103993000D01*
X157784000Y-104013000D01*
X157804000Y-104013000D01*
X157804000Y-104267000D01*
X157784000Y-104267000D01*
X157784000Y-105225000D01*
X158584000Y-105225000D01*
X158989544Y-105093808D01*
X159314013Y-104817408D01*
X159389000Y-104663986D01*
X159389000Y-106313421D01*
X157616210Y-108086210D01*
X157424367Y-108373325D01*
X157424367Y-108373326D01*
X157356999Y-108712000D01*
X157357000Y-108712005D01*
X157357000Y-110834778D01*
X157356683Y-110834838D01*
X157140559Y-110973910D01*
X156995569Y-111186110D01*
X156973007Y-111297523D01*
X156955162Y-111202683D01*
X156816090Y-110986559D01*
X156603890Y-110841569D01*
X156587000Y-110838149D01*
X156587000Y-110348579D01*
X156792787Y-110142792D01*
X156792790Y-110142790D01*
X156984633Y-109855675D01*
X157052000Y-109517000D01*
X157052000Y-108852856D01*
X157169409Y-108677141D01*
X157252000Y-108261929D01*
X157252000Y-106588071D01*
X157169409Y-106172859D01*
X156934211Y-105820860D01*
X156582212Y-105585662D01*
X156167000Y-105503071D01*
X155751788Y-105585662D01*
X155532000Y-105732520D01*
X155312212Y-105585662D01*
X154897000Y-105503071D01*
X154481788Y-105585662D01*
X154262000Y-105732520D01*
X154042212Y-105585662D01*
X153627000Y-105503071D01*
X153211788Y-105585662D01*
X152992000Y-105732520D01*
X152772212Y-105585662D01*
X152357000Y-105503071D01*
X151941788Y-105585662D01*
X151722000Y-105732520D01*
X151502212Y-105585662D01*
X151087000Y-105503071D01*
X150671788Y-105585662D01*
X150452000Y-105732520D01*
X150232212Y-105585662D01*
X149817000Y-105503071D01*
X149401788Y-105585662D01*
X149182000Y-105732520D01*
X148962212Y-105585662D01*
X148547000Y-105503071D01*
X148131788Y-105585662D01*
X147912000Y-105732520D01*
X147692212Y-105585662D01*
X147277000Y-105503071D01*
X146861788Y-105585662D01*
X146642000Y-105732520D01*
X146422212Y-105585662D01*
X146007000Y-105503071D01*
X145591788Y-105585662D01*
X145372000Y-105732520D01*
X145152212Y-105585662D01*
X144737000Y-105503071D01*
X144321788Y-105585662D01*
X144102000Y-105732520D01*
X143882212Y-105585662D01*
X143467000Y-105503071D01*
X143051788Y-105585662D01*
X142832000Y-105732520D01*
X142612212Y-105585662D01*
X142197000Y-105503071D01*
X141781788Y-105585662D01*
X141562000Y-105732520D01*
X141342212Y-105585662D01*
X140927000Y-105503071D01*
X140511788Y-105585662D01*
X140279259Y-105741032D01*
X139951001Y-105580592D01*
X139784000Y-105707498D01*
X139784000Y-107298000D01*
X139804000Y-107298000D01*
X139804000Y-107552000D01*
X139784000Y-107552000D01*
X139784000Y-109142502D01*
X139917000Y-109243570D01*
X139917000Y-109368303D01*
X139648581Y-109636254D01*
X139623295Y-109697149D01*
X138477822Y-110842622D01*
X138258882Y-111170290D01*
X138182000Y-111556800D01*
X138182000Y-111793156D01*
X138115559Y-111835910D01*
X137970569Y-112048110D01*
X137919560Y-112300000D01*
X137919560Y-113800000D01*
X137963838Y-114035317D01*
X138102910Y-114251441D01*
X138171006Y-114297969D01*
X138028673Y-114440302D01*
X138022097Y-114456178D01*
X138022243Y-114288746D01*
X137545973Y-113136085D01*
X136664853Y-112253426D01*
X135513026Y-111775146D01*
X134265846Y-111774057D01*
X133113185Y-112250327D01*
X133044000Y-112319391D01*
X133044000Y-108077000D01*
X138557000Y-108077000D01*
X138572000Y-108074178D01*
X138572000Y-108352000D01*
X138703192Y-108757544D01*
X138979592Y-109082013D01*
X139362999Y-109269408D01*
X139530000Y-109142502D01*
X139530000Y-107552000D01*
X139510000Y-107552000D01*
X139510000Y-107298000D01*
X139530000Y-107298000D01*
X139530000Y-105707498D01*
X139362999Y-105580592D01*
X138979592Y-105767987D01*
X138703192Y-106092456D01*
X138684000Y-106151783D01*
X138684000Y-104434001D01*
X155812592Y-104434001D01*
X155999987Y-104817408D01*
X156324456Y-105093808D01*
X156730000Y-105225000D01*
X157530000Y-105225000D01*
X157530000Y-104267000D01*
X155939498Y-104267000D01*
X155812592Y-104434001D01*
X138684000Y-104434001D01*
X138684000Y-99010750D01*
X143722000Y-99010750D01*
X143722000Y-101851309D01*
X143818673Y-102084698D01*
X143997301Y-102263327D01*
X144230690Y-102360000D01*
X147071250Y-102360000D01*
X147230000Y-102201250D01*
X147230000Y-98852000D01*
X147484000Y-98852000D01*
X147484000Y-102201250D01*
X147642750Y-102360000D01*
X150483310Y-102360000D01*
X150716699Y-102263327D01*
X150895327Y-102084698D01*
X150992000Y-101851309D01*
X150992000Y-99010750D01*
X150833250Y-98852000D01*
X147484000Y-98852000D01*
X147230000Y-98852000D01*
X143880750Y-98852000D01*
X143722000Y-99010750D01*
X138684000Y-99010750D01*
X138684000Y-95598691D01*
X143722000Y-95598691D01*
X143722000Y-98439250D01*
X143880750Y-98598000D01*
X147230000Y-98598000D01*
X147230000Y-95248750D01*
X147484000Y-95248750D01*
X147484000Y-98598000D01*
X150833250Y-98598000D01*
X150992000Y-98439250D01*
X150992000Y-95598691D01*
X150895327Y-95365302D01*
X150716699Y-95186673D01*
X150483310Y-95090000D01*
X147642750Y-95090000D01*
X147484000Y-95248750D01*
X147230000Y-95248750D01*
X147071250Y-95090000D01*
X144230690Y-95090000D01*
X143997301Y-95186673D01*
X143818673Y-95365302D01*
X143722000Y-95598691D01*
X138684000Y-95598691D01*
X138684000Y-90698217D01*
X138703192Y-90757544D01*
X138979592Y-91082013D01*
X139362999Y-91269408D01*
X139530000Y-91142502D01*
X139530000Y-89552000D01*
X139510000Y-89552000D01*
X139510000Y-89298000D01*
X139530000Y-89298000D01*
X139530000Y-87707498D01*
X139362999Y-87580592D01*
X138979592Y-87767987D01*
X138703192Y-88092456D01*
X138572000Y-88498000D01*
X138572000Y-88776038D01*
X138557000Y-88773000D01*
X133044000Y-88773000D01*
X133044000Y-82208000D01*
X134900560Y-82208000D01*
X134900560Y-83908000D01*
X134944838Y-84143317D01*
X135083910Y-84359441D01*
X135296110Y-84504431D01*
X135548000Y-84555440D01*
X137248000Y-84555440D01*
X137483317Y-84511162D01*
X137699441Y-84372090D01*
X137844431Y-84159890D01*
X137895440Y-83908000D01*
X137895440Y-82208000D01*
X137851162Y-81972683D01*
X137712090Y-81756559D01*
X137499890Y-81611569D01*
X137391893Y-81589699D01*
X137669645Y-81284924D01*
X137839476Y-80874890D01*
X137718155Y-80645000D01*
X136525000Y-80645000D01*
X136525000Y-80665000D01*
X136271000Y-80665000D01*
X136271000Y-80645000D01*
X135077845Y-80645000D01*
X134956524Y-80874890D01*
X135126355Y-81284924D01*
X135402501Y-81587937D01*
X135312683Y-81604838D01*
X135096559Y-81743910D01*
X134951569Y-81956110D01*
X134900560Y-82208000D01*
X133044000Y-82208000D01*
X133044000Y-80161110D01*
X134956524Y-80161110D01*
X135077845Y-80391000D01*
X136271000Y-80391000D01*
X136271000Y-79197181D01*
X136525000Y-79197181D01*
X136525000Y-80391000D01*
X137718155Y-80391000D01*
X137839476Y-80161110D01*
X137669645Y-79751076D01*
X137279358Y-79322817D01*
X136754892Y-79076514D01*
X136525000Y-79197181D01*
X136271000Y-79197181D01*
X136041108Y-79076514D01*
X135516642Y-79322817D01*
X135126355Y-79751076D01*
X134956524Y-80161110D01*
X133044000Y-80161110D01*
X133044000Y-60654000D01*
X172264000Y-60654000D01*
X172264000Y-70495380D01*
X172264000Y-70495380D01*
G37*
X172264000Y-70495380D02*
X169507000Y-70495380D01*
X169507000Y-110860619D01*
X172264000Y-110860619D01*
X172264000Y-120194000D01*
X133044000Y-120194000D01*
X133044000Y-118720892D01*
X149180514Y-118720892D01*
X149426817Y-119245358D01*
X149855076Y-119635645D01*
X150265110Y-119805476D01*
X150495000Y-119684155D01*
X150495000Y-118491000D01*
X149301181Y-118491000D01*
X149180514Y-118720892D01*
X133044000Y-118720892D01*
X133044000Y-117501114D01*
X133108547Y-117565774D01*
X134260374Y-118044054D01*
X135507554Y-118045143D01*
X136660215Y-117568873D01*
X137542874Y-116687753D01*
X137962574Y-115677002D01*
X138090748Y-115677002D01*
X137932000Y-115835750D01*
X137932000Y-116426309D01*
X138028673Y-116659698D01*
X138207301Y-116838327D01*
X138440690Y-116935000D01*
X138906250Y-116935000D01*
X139065000Y-116776250D01*
X139065000Y-115677000D01*
X139045000Y-115677000D01*
X139045000Y-115423000D01*
X139065000Y-115423000D01*
X139065000Y-115403000D01*
X139319000Y-115403000D01*
X139319000Y-115423000D01*
X139339000Y-115423000D01*
X139339000Y-115677000D01*
X139319000Y-115677000D01*
X139319000Y-116776250D01*
X139477750Y-116935000D01*
X139943310Y-116935000D01*
X140176699Y-116838327D01*
X140355327Y-116659698D01*
X140443412Y-116447043D01*
X140478838Y-116635317D01*
X140617910Y-116851441D01*
X140830110Y-116996431D01*
X141082000Y-117047440D01*
X142382000Y-117047440D01*
X142617317Y-117003162D01*
X142833441Y-116864090D01*
X142978431Y-116651890D01*
X143029440Y-116400000D01*
X143029440Y-114900000D01*
X142985162Y-114664683D01*
X142846090Y-114448559D01*
X142633890Y-114303569D01*
X142620803Y-114300919D01*
X142833441Y-114164090D01*
X142978431Y-113951890D01*
X143029440Y-113700000D01*
X143029440Y-112200000D01*
X142985162Y-111964683D01*
X142846090Y-111748559D01*
X142633890Y-111603569D01*
X142617000Y-111600149D01*
X142617000Y-111555079D01*
X142619279Y-111552800D01*
X149349560Y-111552800D01*
X149349560Y-113038000D01*
X149393838Y-113273317D01*
X149532910Y-113489441D01*
X149601006Y-113535969D01*
X149458673Y-113678302D01*
X149398015Y-113824742D01*
X149102973Y-113110685D01*
X148221853Y-112228026D01*
X147070026Y-111749746D01*
X145822846Y-111748657D01*
X144670185Y-112224927D01*
X143787526Y-113106047D01*
X143309246Y-114257874D01*
X143308157Y-115505054D01*
X143784427Y-116657715D01*
X144665547Y-117540374D01*
X145817374Y-118018654D01*
X147064554Y-118019743D01*
X147095133Y-118007108D01*
X149180514Y-118007108D01*
X149301181Y-118237000D01*
X150495000Y-118237000D01*
X150495000Y-117043845D01*
X150265110Y-116922524D01*
X149855076Y-117092355D01*
X149426817Y-117482642D01*
X149180514Y-118007108D01*
X147095133Y-118007108D01*
X148217215Y-117543473D01*
X149099874Y-116662353D01*
X149438055Y-115847922D01*
X149458673Y-115897698D01*
X149637301Y-116076327D01*
X149870690Y-116173000D01*
X150336250Y-116173000D01*
X150495000Y-116014250D01*
X150495000Y-114915000D01*
X150475000Y-114915000D01*
X150475000Y-114661000D01*
X150495000Y-114661000D01*
X150495000Y-114641000D01*
X150749000Y-114641000D01*
X150749000Y-114661000D01*
X150769000Y-114661000D01*
X150769000Y-114915000D01*
X150749000Y-114915000D01*
X150749000Y-116014250D01*
X150907750Y-116173000D01*
X151373310Y-116173000D01*
X151606699Y-116076327D01*
X151785327Y-115897698D01*
X151873412Y-115685043D01*
X151908838Y-115873317D01*
X152047910Y-116089441D01*
X152260110Y-116234431D01*
X152277000Y-116237851D01*
X152277000Y-117174568D01*
X152111946Y-117284853D01*
X151884298Y-117625553D01*
X151817183Y-117482642D01*
X151388924Y-117092355D01*
X150978890Y-116922524D01*
X150749000Y-117043845D01*
X150749000Y-118237000D01*
X150769000Y-118237000D01*
X150769000Y-118491000D01*
X150749000Y-118491000D01*
X150749000Y-119684155D01*
X150978890Y-119805476D01*
X151388924Y-119635645D01*
X151817183Y-119245358D01*
X151884298Y-119102447D01*
X152111946Y-119443147D01*
X152593715Y-119765054D01*
X153162000Y-119878093D01*
X153730285Y-119765054D01*
X154212054Y-119443147D01*
X154432000Y-119113974D01*
X154651946Y-119443147D01*
X155133715Y-119765054D01*
X155702000Y-119878093D01*
X156270285Y-119765054D01*
X156752054Y-119443147D01*
X156972000Y-119113974D01*
X157191946Y-119443147D01*
X157673715Y-119765054D01*
X158242000Y-119878093D01*
X158810285Y-119765054D01*
X159292054Y-119443147D01*
X159319850Y-119401548D01*
X159328838Y-119449317D01*
X159467910Y-119665441D01*
X159680110Y-119810431D01*
X159932000Y-119861440D01*
X161632000Y-119861440D01*
X161867317Y-119817162D01*
X162083441Y-119678090D01*
X162228431Y-119465890D01*
X162279440Y-119214000D01*
X162279440Y-117514000D01*
X162235162Y-117278683D01*
X162096090Y-117062559D01*
X161883890Y-116917569D01*
X161667000Y-116873648D01*
X161667000Y-116241222D01*
X161667317Y-116241162D01*
X161883441Y-116102090D01*
X162028431Y-115889890D01*
X162079440Y-115638000D01*
X162079440Y-114138000D01*
X162035162Y-113902683D01*
X161896090Y-113686559D01*
X161683890Y-113541569D01*
X161670803Y-113538919D01*
X161883441Y-113402090D01*
X162028431Y-113189890D01*
X162079440Y-112938000D01*
X162079440Y-111438000D01*
X162035162Y-111202683D01*
X161896090Y-110986559D01*
X161683890Y-110841569D01*
X161667000Y-110838149D01*
X161667000Y-109332580D01*
X162423787Y-108575792D01*
X162423790Y-108575790D01*
X162615633Y-108288675D01*
X162643542Y-108148367D01*
X162683001Y-107950000D01*
X162683000Y-107949995D01*
X162683000Y-96774005D01*
X162683001Y-96774000D01*
X162645899Y-96587478D01*
X163106482Y-97048061D01*
X163158308Y-97308609D01*
X163461140Y-97761828D01*
X163883439Y-98044000D01*
X163461140Y-98326172D01*
X163158308Y-98779391D01*
X163051968Y-99314000D01*
X163158308Y-99848609D01*
X163461140Y-100301828D01*
X163883439Y-100584000D01*
X163461140Y-100866172D01*
X163158308Y-101319391D01*
X163051968Y-101854000D01*
X163158308Y-102388609D01*
X163461140Y-102841828D01*
X163883439Y-103124000D01*
X163461140Y-103406172D01*
X163158308Y-103859391D01*
X163051968Y-104394000D01*
X163158308Y-104928609D01*
X163461140Y-105381828D01*
X163883439Y-105664000D01*
X163461140Y-105946172D01*
X163158308Y-106399391D01*
X163051968Y-106934000D01*
X163158308Y-107468609D01*
X163461140Y-107921828D01*
X163883439Y-108204000D01*
X163461140Y-108486172D01*
X163158308Y-108939391D01*
X163051968Y-109474000D01*
X163158308Y-110008609D01*
X163461140Y-110461828D01*
X163883439Y-110744000D01*
X163461140Y-111026172D01*
X163158308Y-111479391D01*
X163051968Y-112014000D01*
X163158308Y-112548609D01*
X163461140Y-113001828D01*
X163883439Y-113284000D01*
X163461140Y-113566172D01*
X163158308Y-114019391D01*
X163051968Y-114554000D01*
X163158308Y-115088609D01*
X163461140Y-115541828D01*
X163914359Y-115844660D01*
X164448968Y-115951000D01*
X164989032Y-115951000D01*
X165523641Y-115844660D01*
X165976860Y-115541828D01*
X166000650Y-115506224D01*
X166383086Y-115807422D01*
X166911308Y-115956130D01*
X167132000Y-115797277D01*
X167132000Y-114681000D01*
X167386000Y-114681000D01*
X167386000Y-115797277D01*
X167606692Y-115956130D01*
X168134914Y-115807422D01*
X168566020Y-115467892D01*
X168834377Y-114989230D01*
X168851220Y-114897070D01*
X168728720Y-114681000D01*
X167386000Y-114681000D01*
X167132000Y-114681000D01*
X167112000Y-114681000D01*
X167112000Y-114427000D01*
X167132000Y-114427000D01*
X167132000Y-113310723D01*
X167094874Y-113284000D01*
X167132000Y-113257277D01*
X167132000Y-112141000D01*
X167386000Y-112141000D01*
X167386000Y-113257277D01*
X167423126Y-113284000D01*
X167386000Y-113310723D01*
X167386000Y-114427000D01*
X168728720Y-114427000D01*
X168851220Y-114210930D01*
X168834377Y-114118770D01*
X168566020Y-113640108D01*
X168134914Y-113300578D01*
X168076028Y-113284000D01*
X168134914Y-113267422D01*
X168566020Y-112927892D01*
X168834377Y-112449230D01*
X168851220Y-112357070D01*
X168728720Y-112141000D01*
X167386000Y-112141000D01*
X167132000Y-112141000D01*
X167112000Y-112141000D01*
X167112000Y-111887000D01*
X167132000Y-111887000D01*
X167132000Y-111867000D01*
X167386000Y-111867000D01*
X167386000Y-111887000D01*
X168728720Y-111887000D01*
X168851220Y-111670930D01*
X168834377Y-111578770D01*
X168566020Y-111100108D01*
X168134914Y-110760578D01*
X168089067Y-110747671D01*
X168516860Y-110461828D01*
X168819692Y-110008609D01*
X168926032Y-109474000D01*
X168819692Y-108939391D01*
X168516860Y-108486172D01*
X168094561Y-108204000D01*
X168516860Y-107921828D01*
X168819692Y-107468609D01*
X168926032Y-106934000D01*
X168819692Y-106399391D01*
X168516860Y-105946172D01*
X168089067Y-105660329D01*
X168134914Y-105647422D01*
X168566020Y-105307892D01*
X168834377Y-104829230D01*
X168851220Y-104737070D01*
X168728720Y-104521000D01*
X167386000Y-104521000D01*
X167386000Y-104541000D01*
X167132000Y-104541000D01*
X167132000Y-104521000D01*
X167112000Y-104521000D01*
X167112000Y-104267000D01*
X167132000Y-104267000D01*
X167132000Y-103150723D01*
X167094874Y-103124000D01*
X167132000Y-103097277D01*
X167132000Y-101981000D01*
X167386000Y-101981000D01*
X167386000Y-103097277D01*
X167423126Y-103124000D01*
X167386000Y-103150723D01*
X167386000Y-104267000D01*
X168728720Y-104267000D01*
X168851220Y-104050930D01*
X168834377Y-103958770D01*
X168566020Y-103480108D01*
X168134914Y-103140578D01*
X168076028Y-103124000D01*
X168134914Y-103107422D01*
X168566020Y-102767892D01*
X168834377Y-102289230D01*
X168851220Y-102197070D01*
X168728720Y-101981000D01*
X167386000Y-101981000D01*
X167132000Y-101981000D01*
X167112000Y-101981000D01*
X167112000Y-101727000D01*
X167132000Y-101727000D01*
X167132000Y-100610723D01*
X167094874Y-100584000D01*
X167132000Y-100557277D01*
X167132000Y-99441000D01*
X167386000Y-99441000D01*
X167386000Y-100557277D01*
X167423126Y-100584000D01*
X167386000Y-100610723D01*
X167386000Y-101727000D01*
X168728720Y-101727000D01*
X168851220Y-101510930D01*
X168834377Y-101418770D01*
X168566020Y-100940108D01*
X168134914Y-100600578D01*
X168076028Y-100584000D01*
X168134914Y-100567422D01*
X168566020Y-100227892D01*
X168834377Y-99749230D01*
X168851220Y-99657070D01*
X168728720Y-99441000D01*
X167386000Y-99441000D01*
X167132000Y-99441000D01*
X167112000Y-99441000D01*
X167112000Y-99187000D01*
X167132000Y-99187000D01*
X167132000Y-98070723D01*
X167094874Y-98044000D01*
X167132000Y-98017277D01*
X167132000Y-96901000D01*
X167386000Y-96901000D01*
X167386000Y-98017277D01*
X167423126Y-98044000D01*
X167386000Y-98070723D01*
X167386000Y-99187000D01*
X168728720Y-99187000D01*
X168851220Y-98970930D01*
X168834377Y-98878770D01*
X168566020Y-98400108D01*
X168134914Y-98060578D01*
X168076028Y-98044000D01*
X168134914Y-98027422D01*
X168566020Y-97687892D01*
X168834377Y-97209230D01*
X168851220Y-97117070D01*
X168728720Y-96901000D01*
X167386000Y-96901000D01*
X167132000Y-96901000D01*
X167112000Y-96901000D01*
X167112000Y-96647000D01*
X167132000Y-96647000D01*
X167132000Y-95530723D01*
X167094874Y-95504000D01*
X167132000Y-95477277D01*
X167132000Y-94361000D01*
X167386000Y-94361000D01*
X167386000Y-95477277D01*
X167423126Y-95504000D01*
X167386000Y-95530723D01*
X167386000Y-96647000D01*
X168728720Y-96647000D01*
X168851220Y-96430930D01*
X168834377Y-96338770D01*
X168566020Y-95860108D01*
X168134914Y-95520578D01*
X168076028Y-95504000D01*
X168134914Y-95487422D01*
X168566020Y-95147892D01*
X168834377Y-94669230D01*
X168851220Y-94577070D01*
X168728720Y-94361000D01*
X167386000Y-94361000D01*
X167132000Y-94361000D01*
X167112000Y-94361000D01*
X167112000Y-94107000D01*
X167132000Y-94107000D01*
X167132000Y-92990723D01*
X167094874Y-92964000D01*
X167132000Y-92937277D01*
X167132000Y-91821000D01*
X167386000Y-91821000D01*
X167386000Y-92937277D01*
X167423126Y-92964000D01*
X167386000Y-92990723D01*
X167386000Y-94107000D01*
X168728720Y-94107000D01*
X168851220Y-93890930D01*
X168834377Y-93798770D01*
X168566020Y-93320108D01*
X168134914Y-92980578D01*
X168076028Y-92964000D01*
X168134914Y-92947422D01*
X168566020Y-92607892D01*
X168834377Y-92129230D01*
X168851220Y-92037070D01*
X168728720Y-91821000D01*
X167386000Y-91821000D01*
X167132000Y-91821000D01*
X167112000Y-91821000D01*
X167112000Y-91567000D01*
X167132000Y-91567000D01*
X167132000Y-90450723D01*
X167094874Y-90424000D01*
X167132000Y-90397277D01*
X167132000Y-89281000D01*
X167386000Y-89281000D01*
X167386000Y-90397277D01*
X167423126Y-90424000D01*
X167386000Y-90450723D01*
X167386000Y-91567000D01*
X168728720Y-91567000D01*
X168851220Y-91350930D01*
X168834377Y-91258770D01*
X168566020Y-90780108D01*
X168134914Y-90440578D01*
X168076028Y-90424000D01*
X168134914Y-90407422D01*
X168566020Y-90067892D01*
X168834377Y-89589230D01*
X168851220Y-89497070D01*
X168728720Y-89281000D01*
X167386000Y-89281000D01*
X167132000Y-89281000D01*
X167112000Y-89281000D01*
X167112000Y-89027000D01*
X167132000Y-89027000D01*
X167132000Y-89007000D01*
X167386000Y-89007000D01*
X167386000Y-89027000D01*
X168728720Y-89027000D01*
X168851220Y-88810930D01*
X168834377Y-88718770D01*
X168566020Y-88240108D01*
X168134914Y-87900578D01*
X168089067Y-87887671D01*
X168516860Y-87601828D01*
X168819692Y-87148609D01*
X168926032Y-86614000D01*
X168819692Y-86079391D01*
X168516860Y-85626172D01*
X168094561Y-85344000D01*
X168516860Y-85061828D01*
X168819692Y-84608609D01*
X168926032Y-84074000D01*
X168819692Y-83539391D01*
X168516860Y-83086172D01*
X168094561Y-82804000D01*
X168516860Y-82521828D01*
X168819692Y-82068609D01*
X168926032Y-81534000D01*
X168819692Y-80999391D01*
X168516860Y-80546172D01*
X168094561Y-80264000D01*
X168516860Y-79981828D01*
X168819692Y-79528609D01*
X168926032Y-78994000D01*
X168819692Y-78459391D01*
X168516860Y-78006172D01*
X168094561Y-77724000D01*
X168516860Y-77441828D01*
X168819692Y-76988609D01*
X168926032Y-76454000D01*
X168819692Y-75919391D01*
X168516860Y-75466172D01*
X168094561Y-75184000D01*
X168516860Y-74901828D01*
X168819692Y-74448609D01*
X168926032Y-73914000D01*
X168819692Y-73379391D01*
X168516860Y-72926172D01*
X168094561Y-72644000D01*
X168516860Y-72361828D01*
X168819692Y-71908609D01*
X168926032Y-71374000D01*
X168819692Y-70839391D01*
X168516860Y-70386172D01*
X168089067Y-70100329D01*
X168134914Y-70087422D01*
X168566020Y-69747892D01*
X168834377Y-69269230D01*
X168851220Y-69177070D01*
X168728720Y-68961000D01*
X167386000Y-68961000D01*
X167386000Y-68981000D01*
X167132000Y-68981000D01*
X167132000Y-68961000D01*
X167112000Y-68961000D01*
X167112000Y-68707000D01*
X167132000Y-68707000D01*
X167132000Y-68687000D01*
X167386000Y-68687000D01*
X167386000Y-68707000D01*
X168728720Y-68707000D01*
X168851220Y-68490930D01*
X168834377Y-68398770D01*
X168566020Y-67920108D01*
X168134914Y-67580578D01*
X168089067Y-67567671D01*
X168516860Y-67281828D01*
X168819692Y-66828609D01*
X168926032Y-66294000D01*
X168819692Y-65759391D01*
X168516860Y-65306172D01*
X168269000Y-65140557D01*
X168269000Y-64389000D01*
X168192118Y-64002490D01*
X167973178Y-63674822D01*
X166830178Y-62531822D01*
X166502510Y-62312882D01*
X166116000Y-62236000D01*
X163322000Y-62236000D01*
X162935490Y-62312882D01*
X162607822Y-62531822D01*
X161337822Y-63801822D01*
X161118882Y-64129490D01*
X161042000Y-64516000D01*
X161042000Y-68415644D01*
X160825051Y-68632593D01*
X160740090Y-68500559D01*
X160527890Y-68355569D01*
X160276000Y-68304560D01*
X158776000Y-68304560D01*
X158540683Y-68348838D01*
X158374523Y-68455759D01*
X158361000Y-68446519D01*
X158361000Y-65299440D01*
X159126000Y-65299440D01*
X159361317Y-65255162D01*
X159577441Y-65116090D01*
X159722431Y-64903890D01*
X159773440Y-64652000D01*
X159773440Y-62652000D01*
X159729162Y-62416683D01*
X159590090Y-62200559D01*
X159377890Y-62055569D01*
X159126000Y-62004560D01*
X155326000Y-62004560D01*
X155090683Y-62048838D01*
X154874559Y-62187910D01*
X154729569Y-62400110D01*
X154678560Y-62652000D01*
X154678560Y-64652000D01*
X154722838Y-64887317D01*
X154861910Y-65103441D01*
X155074110Y-65248431D01*
X155326000Y-65299440D01*
X156091000Y-65299440D01*
X156091000Y-68445156D01*
X156076508Y-68454482D01*
X156035699Y-68413673D01*
X155802310Y-68317000D01*
X155211750Y-68317000D01*
X155053000Y-68475750D01*
X155053000Y-69825000D01*
X155073000Y-69825000D01*
X155073000Y-70079000D01*
X155053000Y-70079000D01*
X155053000Y-71428250D01*
X155211750Y-71587000D01*
X155802310Y-71587000D01*
X156035699Y-71490327D01*
X156077660Y-71448366D01*
X156216000Y-71542890D01*
X156216000Y-73139450D01*
X156191180Y-73199223D01*
X156190821Y-73610971D01*
X156348058Y-73991515D01*
X156638954Y-74282919D01*
X157019223Y-74440820D01*
X157430971Y-74441179D01*
X157811515Y-74283942D01*
X158102919Y-73993046D01*
X158260820Y-73612777D01*
X158261179Y-73201029D01*
X158236000Y-73140091D01*
X158236000Y-71539279D01*
X158377477Y-71448241D01*
X158516000Y-71542890D01*
X158516000Y-74944000D01*
X158592882Y-75330510D01*
X158811822Y-75658178D01*
X159540000Y-76386356D01*
X159540000Y-76784560D01*
X159250000Y-76784560D01*
X159014683Y-76828838D01*
X158798559Y-76967910D01*
X158752031Y-77036006D01*
X158609698Y-76893673D01*
X158376309Y-76797000D01*
X157235750Y-76797000D01*
X157077000Y-76955750D01*
X157077000Y-78105000D01*
X157097000Y-78105000D01*
X157097000Y-78359000D01*
X157077000Y-78359000D01*
X157077000Y-79508250D01*
X157235750Y-79667000D01*
X158376309Y-79667000D01*
X158609698Y-79570327D01*
X158750936Y-79429090D01*
X158785910Y-79483441D01*
X158998110Y-79628431D01*
X159250000Y-79679440D01*
X161850000Y-79679440D01*
X162085317Y-79635162D01*
X162301441Y-79496090D01*
X162446431Y-79283890D01*
X162497440Y-79032000D01*
X162497440Y-77432000D01*
X162453162Y-77196683D01*
X162314090Y-76980559D01*
X162101890Y-76835569D01*
X161850000Y-76784560D01*
X161560000Y-76784560D01*
X161560000Y-75968000D01*
X161483118Y-75581490D01*
X161264178Y-75253822D01*
X160536000Y-74525644D01*
X160536000Y-71539279D01*
X160727441Y-71416090D01*
X160872431Y-71203890D01*
X160921415Y-70962000D01*
X160934000Y-70962000D01*
X161320510Y-70885118D01*
X161648178Y-70666178D01*
X162766178Y-69548178D01*
X162985118Y-69220510D01*
X163056984Y-68859217D01*
X163158308Y-69368609D01*
X163461140Y-69821828D01*
X163883439Y-70104000D01*
X163461140Y-70386172D01*
X163158308Y-70839391D01*
X163051968Y-71374000D01*
X163158308Y-71908609D01*
X163461140Y-72361828D01*
X163883439Y-72644000D01*
X163461140Y-72926172D01*
X163158308Y-73379391D01*
X163051968Y-73914000D01*
X163158308Y-74448609D01*
X163461140Y-74901828D01*
X163883439Y-75184000D01*
X163461140Y-75466172D01*
X163158308Y-75919391D01*
X163051968Y-76454000D01*
X163158308Y-76988609D01*
X163461140Y-77441828D01*
X163883439Y-77724000D01*
X163461140Y-78006172D01*
X163158308Y-78459391D01*
X163051968Y-78994000D01*
X163158308Y-79528609D01*
X163461140Y-79981828D01*
X163883439Y-80264000D01*
X163461140Y-80546172D01*
X163158308Y-80999391D01*
X163051968Y-81534000D01*
X163158308Y-82068609D01*
X163461140Y-82521828D01*
X163883439Y-82804000D01*
X163461140Y-83086172D01*
X163158308Y-83539391D01*
X163051968Y-84074000D01*
X163158308Y-84608609D01*
X163461140Y-85061828D01*
X163883439Y-85344000D01*
X163461140Y-85626172D01*
X163158308Y-86079391D01*
X163051968Y-86614000D01*
X163158308Y-87148609D01*
X163461140Y-87601828D01*
X163883439Y-87884000D01*
X163461140Y-88166172D01*
X163158308Y-88619391D01*
X163051968Y-89154000D01*
X163158308Y-89688609D01*
X163461140Y-90141828D01*
X163883439Y-90424000D01*
X163461140Y-90706172D01*
X163158308Y-91159391D01*
X163051968Y-91694000D01*
X163158308Y-92228609D01*
X163461140Y-92681828D01*
X163883439Y-92964000D01*
X163688101Y-93094521D01*
X162429000Y-91835420D01*
X162429000Y-88555222D01*
X162429317Y-88555162D01*
X162645441Y-88416090D01*
X162790431Y-88203890D01*
X162841440Y-87952000D01*
X162841440Y-86452000D01*
X162797162Y-86216683D01*
X162658090Y-86000559D01*
X162445890Y-85855569D01*
X162432803Y-85852919D01*
X162645441Y-85716090D01*
X162790431Y-85503890D01*
X162841440Y-85252000D01*
X162841440Y-83752000D01*
X162797162Y-83516683D01*
X162658090Y-83300559D01*
X162445890Y-83155569D01*
X162429000Y-83152149D01*
X162429000Y-82804005D01*
X162429001Y-82804000D01*
X162361633Y-82465326D01*
X162361633Y-82465325D01*
X162169790Y-82178210D01*
X162169787Y-82178208D01*
X161407790Y-81416210D01*
X161211305Y-81284924D01*
X161120675Y-81224367D01*
X161064484Y-81213190D01*
X160782000Y-81156999D01*
X160781995Y-81157000D01*
X155448005Y-81157000D01*
X155448000Y-81156999D01*
X155109325Y-81224367D01*
X154822210Y-81416210D01*
X154822208Y-81416213D01*
X151731210Y-84507210D01*
X151539367Y-84794325D01*
X151539367Y-84794326D01*
X151471999Y-85133000D01*
X151472000Y-85133005D01*
X151472000Y-87579652D01*
X151087000Y-87503071D01*
X150671788Y-87585662D01*
X150452000Y-87732520D01*
X150232212Y-87585662D01*
X149817000Y-87503071D01*
X149401788Y-87585662D01*
X149182000Y-87732520D01*
X148962212Y-87585662D01*
X148547000Y-87503071D01*
X148131788Y-87585662D01*
X147912000Y-87732520D01*
X147692212Y-87585662D01*
X147277000Y-87503071D01*
X146861788Y-87585662D01*
X146642000Y-87732520D01*
X146422212Y-87585662D01*
X146007000Y-87503071D01*
X145622000Y-87579652D01*
X145622000Y-84245313D01*
X145665317Y-84237162D01*
X145881441Y-84098090D01*
X146026431Y-83885890D01*
X146077440Y-83634000D01*
X146077440Y-82134000D01*
X146033162Y-81898683D01*
X145894090Y-81682559D01*
X145681890Y-81537569D01*
X145668803Y-81534919D01*
X145881441Y-81398090D01*
X146026431Y-81185890D01*
X146077440Y-80934000D01*
X146077440Y-79434000D01*
X146033162Y-79198683D01*
X145894090Y-78982559D01*
X145681890Y-78837569D01*
X145665000Y-78834149D01*
X145665000Y-78517750D01*
X147141000Y-78517750D01*
X147141000Y-79158310D01*
X147237673Y-79391699D01*
X147416302Y-79570327D01*
X147649691Y-79667000D01*
X148790250Y-79667000D01*
X148949000Y-79508250D01*
X148949000Y-78359000D01*
X147299750Y-78359000D01*
X147141000Y-78517750D01*
X145665000Y-78517750D01*
X145665000Y-77470005D01*
X145665001Y-77470000D01*
X145632317Y-77305690D01*
X147141000Y-77305690D01*
X147141000Y-77946250D01*
X147299750Y-78105000D01*
X148949000Y-78105000D01*
X148949000Y-76955750D01*
X148790250Y-76797000D01*
X147649691Y-76797000D01*
X147416302Y-76893673D01*
X147237673Y-77072301D01*
X147141000Y-77305690D01*
X145632317Y-77305690D01*
X145597633Y-77131326D01*
X145597633Y-77131325D01*
X145405790Y-76844210D01*
X145405787Y-76844208D01*
X143444231Y-74882652D01*
X143824285Y-74807054D01*
X144306054Y-74485147D01*
X144526000Y-74155974D01*
X144745946Y-74485147D01*
X145227715Y-74807054D01*
X145796000Y-74920093D01*
X146364285Y-74807054D01*
X146846054Y-74485147D01*
X146873850Y-74443548D01*
X146882838Y-74491317D01*
X147021910Y-74707441D01*
X147234110Y-74852431D01*
X147486000Y-74903440D01*
X149186000Y-74903440D01*
X149421317Y-74859162D01*
X149637441Y-74720090D01*
X149782431Y-74507890D01*
X149801039Y-74416000D01*
X150965644Y-74416000D01*
X151666000Y-75116356D01*
X151666000Y-76784560D01*
X151376000Y-76784560D01*
X151140683Y-76828838D01*
X150924559Y-76967910D01*
X150878031Y-77036006D01*
X150735698Y-76893673D01*
X150502309Y-76797000D01*
X149361750Y-76797000D01*
X149203000Y-76955750D01*
X149203000Y-78105000D01*
X149223000Y-78105000D01*
X149223000Y-78359000D01*
X149203000Y-78359000D01*
X149203000Y-79508250D01*
X149361750Y-79667000D01*
X150502309Y-79667000D01*
X150735698Y-79570327D01*
X150876936Y-79429090D01*
X150911910Y-79483441D01*
X151124110Y-79628431D01*
X151376000Y-79679440D01*
X153976000Y-79679440D01*
X154211317Y-79635162D01*
X154427441Y-79496090D01*
X154572431Y-79283890D01*
X154623440Y-79032000D01*
X154623440Y-78517750D01*
X155015000Y-78517750D01*
X155015000Y-79158310D01*
X155111673Y-79391699D01*
X155290302Y-79570327D01*
X155523691Y-79667000D01*
X156664250Y-79667000D01*
X156823000Y-79508250D01*
X156823000Y-78359000D01*
X155173750Y-78359000D01*
X155015000Y-78517750D01*
X154623440Y-78517750D01*
X154623440Y-77432000D01*
X154599674Y-77305690D01*
X155015000Y-77305690D01*
X155015000Y-77946250D01*
X155173750Y-78105000D01*
X156823000Y-78105000D01*
X156823000Y-76955750D01*
X156664250Y-76797000D01*
X155523691Y-76797000D01*
X155290302Y-76893673D01*
X155111673Y-77072301D01*
X155015000Y-77305690D01*
X154599674Y-77305690D01*
X154579162Y-77196683D01*
X154440090Y-76980559D01*
X154227890Y-76835569D01*
X153976000Y-76784560D01*
X153686000Y-76784560D01*
X153686000Y-74698000D01*
X153609118Y-74311490D01*
X153390178Y-73983822D01*
X152098178Y-72691822D01*
X151770510Y-72472882D01*
X151384000Y-72396000D01*
X149803334Y-72396000D01*
X149789162Y-72320683D01*
X149650090Y-72104559D01*
X149437890Y-71959569D01*
X149381546Y-71948159D01*
X149386054Y-71945147D01*
X149707961Y-71463378D01*
X149821000Y-70895093D01*
X149821000Y-70836907D01*
X149707961Y-70268622D01*
X149687334Y-70237750D01*
X153541000Y-70237750D01*
X153541000Y-71078309D01*
X153637673Y-71311698D01*
X153816301Y-71490327D01*
X154049690Y-71587000D01*
X154640250Y-71587000D01*
X154799000Y-71428250D01*
X154799000Y-70079000D01*
X153699750Y-70079000D01*
X153541000Y-70237750D01*
X149687334Y-70237750D01*
X149386054Y-69786853D01*
X148904285Y-69464946D01*
X148336000Y-69351907D01*
X147767715Y-69464946D01*
X147285946Y-69786853D01*
X147066000Y-70116026D01*
X146846054Y-69786853D01*
X146364285Y-69464946D01*
X145796000Y-69351907D01*
X145227715Y-69464946D01*
X144745946Y-69786853D01*
X144526000Y-70116026D01*
X144306054Y-69786853D01*
X143824285Y-69464946D01*
X143256000Y-69351907D01*
X142687715Y-69464946D01*
X142205946Y-69786853D01*
X141986000Y-70116026D01*
X141766054Y-69786853D01*
X141601000Y-69676568D01*
X141601000Y-69088005D01*
X141601001Y-69088000D01*
X141548824Y-68825691D01*
X153541000Y-68825691D01*
X153541000Y-69666250D01*
X153699750Y-69825000D01*
X154799000Y-69825000D01*
X154799000Y-68475750D01*
X154640250Y-68317000D01*
X154049690Y-68317000D01*
X153816301Y-68413673D01*
X153637673Y-68592302D01*
X153541000Y-68825691D01*
X141548824Y-68825691D01*
X141533633Y-68749325D01*
X141511506Y-68716210D01*
X141341790Y-68462210D01*
X141341787Y-68462208D01*
X140071790Y-67192210D01*
X139784675Y-67000367D01*
X139728484Y-66989190D01*
X139446000Y-66932999D01*
X139445995Y-66933000D01*
X136906000Y-66933000D01*
X136567325Y-67000367D01*
X136280210Y-67192210D01*
X136280208Y-67192213D01*
X134756210Y-68716210D01*
X134564367Y-69003325D01*
X134564367Y-69003326D01*
X134496999Y-69342000D01*
X134497000Y-69342005D01*
X134497000Y-74421995D01*
X134496999Y-74422000D01*
X134551900Y-74698000D01*
X134564367Y-74760675D01*
X134625676Y-74852431D01*
X134756210Y-75047790D01*
X136280208Y-76571787D01*
X136280210Y-76571790D01*
X136567325Y-76763633D01*
X136906000Y-76831000D01*
X140349420Y-76831000D01*
X141355000Y-77836579D01*
X141355000Y-78830778D01*
X141354683Y-78830838D01*
X141138559Y-78969910D01*
X140993569Y-79182110D01*
X140942560Y-79434000D01*
X140942560Y-80934000D01*
X140986838Y-81169317D01*
X141125910Y-81385441D01*
X141338110Y-81530431D01*
X141351197Y-81533081D01*
X141138559Y-81669910D01*
X140993569Y-81882110D01*
X140942560Y-82134000D01*
X140942560Y-83634000D01*
X140986838Y-83869317D01*
X141125910Y-84085441D01*
X141338110Y-84230431D01*
X141355000Y-84233851D01*
X141355000Y-84581995D01*
X141354999Y-84582000D01*
X141397234Y-84794325D01*
X141422367Y-84920675D01*
X141424589Y-84924000D01*
X141614210Y-85207790D01*
X142582000Y-86175579D01*
X142582000Y-87579652D01*
X142197000Y-87503071D01*
X141781788Y-87585662D01*
X141562000Y-87732520D01*
X141342212Y-87585662D01*
X140927000Y-87503071D01*
X140511788Y-87585662D01*
X140279259Y-87741032D01*
X139951001Y-87580592D01*
X139784000Y-87707498D01*
X139784000Y-89298000D01*
X139804000Y-89298000D01*
X139804000Y-89552000D01*
X139784000Y-89552000D01*
X139784000Y-91142502D01*
X139951001Y-91269408D01*
X140279259Y-91108968D01*
X140511788Y-91264338D01*
X140927000Y-91346929D01*
X141342212Y-91264338D01*
X141562000Y-91117480D01*
X141781788Y-91264338D01*
X142197000Y-91346929D01*
X142612212Y-91264338D01*
X142832000Y-91117480D01*
X143051788Y-91264338D01*
X143467000Y-91346929D01*
X143882212Y-91264338D01*
X144102000Y-91117480D01*
X144321788Y-91264338D01*
X144737000Y-91346929D01*
X145152212Y-91264338D01*
X145372000Y-91117480D01*
X145591788Y-91264338D01*
X146007000Y-91346929D01*
X146422212Y-91264338D01*
X146642000Y-91117480D01*
X146861788Y-91264338D01*
X147277000Y-91346929D01*
X147692212Y-91264338D01*
X147912000Y-91117480D01*
X148131788Y-91264338D01*
X148547000Y-91346929D01*
X148962212Y-91264338D01*
X149182000Y-91117480D01*
X149401788Y-91264338D01*
X149817000Y-91346929D01*
X150232212Y-91264338D01*
X150452000Y-91117480D01*
X150671788Y-91264338D01*
X151087000Y-91346929D01*
X151502212Y-91264338D01*
X151722000Y-91117480D01*
X151941788Y-91264338D01*
X152357000Y-91346929D01*
X152772212Y-91264338D01*
X152992000Y-91117480D01*
X153211788Y-91264338D01*
X153627000Y-91346929D01*
X154042212Y-91264338D01*
X154262000Y-91117480D01*
X154481788Y-91264338D01*
X154897000Y-91346929D01*
X155312212Y-91264338D01*
X155532000Y-91117480D01*
X155751788Y-91264338D01*
X156167000Y-91346929D01*
X156582212Y-91264338D01*
X156934211Y-91029140D01*
X157169409Y-90677141D01*
X157252000Y-90261929D01*
X157252000Y-88588071D01*
X157169409Y-88172859D01*
X157052000Y-87997144D01*
X157052000Y-86727904D01*
X157086919Y-86693046D01*
X157244820Y-86312777D01*
X157245179Y-85901029D01*
X157087942Y-85520485D01*
X156954690Y-85387000D01*
X157731962Y-85387000D01*
X157750838Y-85487317D01*
X157889910Y-85703441D01*
X158102110Y-85848431D01*
X158115197Y-85851081D01*
X157902559Y-85987910D01*
X157757569Y-86200110D01*
X157706560Y-86452000D01*
X157706560Y-87952000D01*
X157750838Y-88187317D01*
X157889910Y-88403441D01*
X158102110Y-88548431D01*
X158119000Y-88551851D01*
X158119000Y-90169995D01*
X158118999Y-90170000D01*
X158155202Y-90352000D01*
X158186367Y-90508675D01*
X158298932Y-90677141D01*
X158378210Y-90795790D01*
X159135000Y-91552579D01*
X159135000Y-91858505D01*
X158909141Y-91707591D01*
X158493929Y-91625000D01*
X156820071Y-91625000D01*
X156404859Y-91707591D01*
X156052860Y-91942789D01*
X155817662Y-92294788D01*
X155735071Y-92710000D01*
X155817662Y-93125212D01*
X155964520Y-93345000D01*
X155817662Y-93564788D01*
X155735071Y-93980000D01*
X155817662Y-94395212D01*
X155964520Y-94615000D01*
X155817662Y-94834788D01*
X155735071Y-95250000D01*
X155817662Y-95665212D01*
X155964520Y-95885000D01*
X155817662Y-96104788D01*
X155735071Y-96520000D01*
X155817662Y-96935212D01*
X155964520Y-97155000D01*
X155817662Y-97374788D01*
X155735071Y-97790000D01*
X155817662Y-98205212D01*
X155964520Y-98425000D01*
X155817662Y-98644788D01*
X155735071Y-99060000D01*
X155817662Y-99475212D01*
X155964520Y-99695000D01*
X155817662Y-99914788D01*
X155735071Y-100330000D01*
X155817662Y-100745212D01*
X155964520Y-100965000D01*
X155817662Y-101184788D01*
X155735071Y-101600000D01*
X155817662Y-102015212D01*
X155964520Y-102235000D01*
X155817662Y-102454788D01*
X155735071Y-102870000D01*
X155817662Y-103285212D01*
X155973032Y-103517741D01*
X155812592Y-103845999D01*
X155939498Y-104013000D01*
X157530000Y-104013000D01*
X157530000Y-103993000D01*
X157784000Y-103993000D01*
X157784000Y-104013000D01*
X157804000Y-104013000D01*
X157804000Y-104267000D01*
X157784000Y-104267000D01*
X157784000Y-105225000D01*
X158584000Y-105225000D01*
X158989544Y-105093808D01*
X159314013Y-104817408D01*
X159389000Y-104663986D01*
X159389000Y-106313421D01*
X157616210Y-108086210D01*
X157424367Y-108373325D01*
X157424367Y-108373326D01*
X157356999Y-108712000D01*
X157357000Y-108712005D01*
X157357000Y-110834778D01*
X157356683Y-110834838D01*
X157140559Y-110973910D01*
X156995569Y-111186110D01*
X156973007Y-111297523D01*
X156955162Y-111202683D01*
X156816090Y-110986559D01*
X156603890Y-110841569D01*
X156587000Y-110838149D01*
X156587000Y-110348579D01*
X156792787Y-110142792D01*
X156792790Y-110142790D01*
X156984633Y-109855675D01*
X157052000Y-109517000D01*
X157052000Y-108852856D01*
X157169409Y-108677141D01*
X157252000Y-108261929D01*
X157252000Y-106588071D01*
X157169409Y-106172859D01*
X156934211Y-105820860D01*
X156582212Y-105585662D01*
X156167000Y-105503071D01*
X155751788Y-105585662D01*
X155532000Y-105732520D01*
X155312212Y-105585662D01*
X154897000Y-105503071D01*
X154481788Y-105585662D01*
X154262000Y-105732520D01*
X154042212Y-105585662D01*
X153627000Y-105503071D01*
X153211788Y-105585662D01*
X152992000Y-105732520D01*
X152772212Y-105585662D01*
X152357000Y-105503071D01*
X151941788Y-105585662D01*
X151722000Y-105732520D01*
X151502212Y-105585662D01*
X151087000Y-105503071D01*
X150671788Y-105585662D01*
X150452000Y-105732520D01*
X150232212Y-105585662D01*
X149817000Y-105503071D01*
X149401788Y-105585662D01*
X149182000Y-105732520D01*
X148962212Y-105585662D01*
X148547000Y-105503071D01*
X148131788Y-105585662D01*
X147912000Y-105732520D01*
X147692212Y-105585662D01*
X147277000Y-105503071D01*
X146861788Y-105585662D01*
X146642000Y-105732520D01*
X146422212Y-105585662D01*
X146007000Y-105503071D01*
X145591788Y-105585662D01*
X145372000Y-105732520D01*
X145152212Y-105585662D01*
X144737000Y-105503071D01*
X144321788Y-105585662D01*
X144102000Y-105732520D01*
X143882212Y-105585662D01*
X143467000Y-105503071D01*
X143051788Y-105585662D01*
X142832000Y-105732520D01*
X142612212Y-105585662D01*
X142197000Y-105503071D01*
X141781788Y-105585662D01*
X141562000Y-105732520D01*
X141342212Y-105585662D01*
X140927000Y-105503071D01*
X140511788Y-105585662D01*
X140279259Y-105741032D01*
X139951001Y-105580592D01*
X139784000Y-105707498D01*
X139784000Y-107298000D01*
X139804000Y-107298000D01*
X139804000Y-107552000D01*
X139784000Y-107552000D01*
X139784000Y-109142502D01*
X139917000Y-109243570D01*
X139917000Y-109368303D01*
X139648581Y-109636254D01*
X139623295Y-109697149D01*
X138477822Y-110842622D01*
X138258882Y-111170290D01*
X138182000Y-111556800D01*
X138182000Y-111793156D01*
X138115559Y-111835910D01*
X137970569Y-112048110D01*
X137919560Y-112300000D01*
X137919560Y-113800000D01*
X137963838Y-114035317D01*
X138102910Y-114251441D01*
X138171006Y-114297969D01*
X138028673Y-114440302D01*
X138022097Y-114456178D01*
X138022243Y-114288746D01*
X137545973Y-113136085D01*
X136664853Y-112253426D01*
X135513026Y-111775146D01*
X134265846Y-111774057D01*
X133113185Y-112250327D01*
X133044000Y-112319391D01*
X133044000Y-108077000D01*
X138557000Y-108077000D01*
X138572000Y-108074178D01*
X138572000Y-108352000D01*
X138703192Y-108757544D01*
X138979592Y-109082013D01*
X139362999Y-109269408D01*
X139530000Y-109142502D01*
X139530000Y-107552000D01*
X139510000Y-107552000D01*
X139510000Y-107298000D01*
X139530000Y-107298000D01*
X139530000Y-105707498D01*
X139362999Y-105580592D01*
X138979592Y-105767987D01*
X138703192Y-106092456D01*
X138684000Y-106151783D01*
X138684000Y-104434001D01*
X155812592Y-104434001D01*
X155999987Y-104817408D01*
X156324456Y-105093808D01*
X156730000Y-105225000D01*
X157530000Y-105225000D01*
X157530000Y-104267000D01*
X155939498Y-104267000D01*
X155812592Y-104434001D01*
X138684000Y-104434001D01*
X138684000Y-99010750D01*
X143722000Y-99010750D01*
X143722000Y-101851309D01*
X143818673Y-102084698D01*
X143997301Y-102263327D01*
X144230690Y-102360000D01*
X147071250Y-102360000D01*
X147230000Y-102201250D01*
X147230000Y-98852000D01*
X147484000Y-98852000D01*
X147484000Y-102201250D01*
X147642750Y-102360000D01*
X150483310Y-102360000D01*
X150716699Y-102263327D01*
X150895327Y-102084698D01*
X150992000Y-101851309D01*
X150992000Y-99010750D01*
X150833250Y-98852000D01*
X147484000Y-98852000D01*
X147230000Y-98852000D01*
X143880750Y-98852000D01*
X143722000Y-99010750D01*
X138684000Y-99010750D01*
X138684000Y-95598691D01*
X143722000Y-95598691D01*
X143722000Y-98439250D01*
X143880750Y-98598000D01*
X147230000Y-98598000D01*
X147230000Y-95248750D01*
X147484000Y-95248750D01*
X147484000Y-98598000D01*
X150833250Y-98598000D01*
X150992000Y-98439250D01*
X150992000Y-95598691D01*
X150895327Y-95365302D01*
X150716699Y-95186673D01*
X150483310Y-95090000D01*
X147642750Y-95090000D01*
X147484000Y-95248750D01*
X147230000Y-95248750D01*
X147071250Y-95090000D01*
X144230690Y-95090000D01*
X143997301Y-95186673D01*
X143818673Y-95365302D01*
X143722000Y-95598691D01*
X138684000Y-95598691D01*
X138684000Y-90698217D01*
X138703192Y-90757544D01*
X138979592Y-91082013D01*
X139362999Y-91269408D01*
X139530000Y-91142502D01*
X139530000Y-89552000D01*
X139510000Y-89552000D01*
X139510000Y-89298000D01*
X139530000Y-89298000D01*
X139530000Y-87707498D01*
X139362999Y-87580592D01*
X138979592Y-87767987D01*
X138703192Y-88092456D01*
X138572000Y-88498000D01*
X138572000Y-88776038D01*
X138557000Y-88773000D01*
X133044000Y-88773000D01*
X133044000Y-82208000D01*
X134900560Y-82208000D01*
X134900560Y-83908000D01*
X134944838Y-84143317D01*
X135083910Y-84359441D01*
X135296110Y-84504431D01*
X135548000Y-84555440D01*
X137248000Y-84555440D01*
X137483317Y-84511162D01*
X137699441Y-84372090D01*
X137844431Y-84159890D01*
X137895440Y-83908000D01*
X137895440Y-82208000D01*
X137851162Y-81972683D01*
X137712090Y-81756559D01*
X137499890Y-81611569D01*
X137391893Y-81589699D01*
X137669645Y-81284924D01*
X137839476Y-80874890D01*
X137718155Y-80645000D01*
X136525000Y-80645000D01*
X136525000Y-80665000D01*
X136271000Y-80665000D01*
X136271000Y-80645000D01*
X135077845Y-80645000D01*
X134956524Y-80874890D01*
X135126355Y-81284924D01*
X135402501Y-81587937D01*
X135312683Y-81604838D01*
X135096559Y-81743910D01*
X134951569Y-81956110D01*
X134900560Y-82208000D01*
X133044000Y-82208000D01*
X133044000Y-80161110D01*
X134956524Y-80161110D01*
X135077845Y-80391000D01*
X136271000Y-80391000D01*
X136271000Y-79197181D01*
X136525000Y-79197181D01*
X136525000Y-80391000D01*
X137718155Y-80391000D01*
X137839476Y-80161110D01*
X137669645Y-79751076D01*
X137279358Y-79322817D01*
X136754892Y-79076514D01*
X136525000Y-79197181D01*
X136271000Y-79197181D01*
X136041108Y-79076514D01*
X135516642Y-79322817D01*
X135126355Y-79751076D01*
X134956524Y-80161110D01*
X133044000Y-80161110D01*
X133044000Y-60654000D01*
X172264000Y-60654000D01*
X172264000Y-70495380D01*
G36*
X139831000Y-69454579D02*
X139831000Y-69676568D01*
X139665946Y-69786853D01*
X139438298Y-70127553D01*
X139371183Y-69984642D01*
X138942924Y-69594355D01*
X138532890Y-69424524D01*
X138303000Y-69545845D01*
X138303000Y-70739000D01*
X138323000Y-70739000D01*
X138323000Y-70993000D01*
X138303000Y-70993000D01*
X138303000Y-71013000D01*
X138049000Y-71013000D01*
X138049000Y-70993000D01*
X136855181Y-70993000D01*
X136734514Y-71222892D01*
X136980817Y-71747358D01*
X137409076Y-72137645D01*
X137409101Y-72137655D01*
X137125946Y-72326853D01*
X136804039Y-72808622D01*
X136691000Y-73376907D01*
X136691000Y-73435093D01*
X136804039Y-74003378D01*
X137125946Y-74485147D01*
X137607715Y-74807054D01*
X138176000Y-74920093D01*
X138744285Y-74807054D01*
X139226054Y-74485147D01*
X139446000Y-74155974D01*
X139665946Y-74485147D01*
X140147715Y-74807054D01*
X140716000Y-74920093D01*
X140934959Y-74876539D01*
X143895000Y-77836579D01*
X143895000Y-78830778D01*
X143894683Y-78830838D01*
X143678559Y-78969910D01*
X143533569Y-79182110D01*
X143511007Y-79293523D01*
X143493162Y-79198683D01*
X143354090Y-78982559D01*
X143141890Y-78837569D01*
X143125000Y-78834149D01*
X143125000Y-77470000D01*
X143057633Y-77131325D01*
X142865790Y-76844210D01*
X142865787Y-76844208D01*
X141341790Y-75320210D01*
X141322020Y-75307000D01*
X141054675Y-75128367D01*
X140998484Y-75117190D01*
X140716000Y-75060999D01*
X140715995Y-75061000D01*
X137272579Y-75061000D01*
X136267000Y-74055420D01*
X136267000Y-70509108D01*
X136734514Y-70509108D01*
X136855181Y-70739000D01*
X138049000Y-70739000D01*
X138049000Y-69545845D01*
X137819110Y-69424524D01*
X137409076Y-69594355D01*
X136980817Y-69984642D01*
X136734514Y-70509108D01*
X136267000Y-70509108D01*
X136267000Y-69708580D01*
X137272579Y-68703000D01*
X139079420Y-68703000D01*
X139831000Y-69454579D01*
X139831000Y-69454579D01*
G37*
X139831000Y-69454579D02*
X139831000Y-69676568D01*
X139665946Y-69786853D01*
X139438298Y-70127553D01*
X139371183Y-69984642D01*
X138942924Y-69594355D01*
X138532890Y-69424524D01*
X138303000Y-69545845D01*
X138303000Y-70739000D01*
X138323000Y-70739000D01*
X138323000Y-70993000D01*
X138303000Y-70993000D01*
X138303000Y-71013000D01*
X138049000Y-71013000D01*
X138049000Y-70993000D01*
X136855181Y-70993000D01*
X136734514Y-71222892D01*
X136980817Y-71747358D01*
X137409076Y-72137645D01*
X137409101Y-72137655D01*
X137125946Y-72326853D01*
X136804039Y-72808622D01*
X136691000Y-73376907D01*
X136691000Y-73435093D01*
X136804039Y-74003378D01*
X137125946Y-74485147D01*
X137607715Y-74807054D01*
X138176000Y-74920093D01*
X138744285Y-74807054D01*
X139226054Y-74485147D01*
X139446000Y-74155974D01*
X139665946Y-74485147D01*
X140147715Y-74807054D01*
X140716000Y-74920093D01*
X140934959Y-74876539D01*
X143895000Y-77836579D01*
X143895000Y-78830778D01*
X143894683Y-78830838D01*
X143678559Y-78969910D01*
X143533569Y-79182110D01*
X143511007Y-79293523D01*
X143493162Y-79198683D01*
X143354090Y-78982559D01*
X143141890Y-78837569D01*
X143125000Y-78834149D01*
X143125000Y-77470000D01*
X143057633Y-77131325D01*
X142865790Y-76844210D01*
X142865787Y-76844208D01*
X141341790Y-75320210D01*
X141322020Y-75307000D01*
X141054675Y-75128367D01*
X140998484Y-75117190D01*
X140716000Y-75060999D01*
X140715995Y-75061000D01*
X137272579Y-75061000D01*
X136267000Y-74055420D01*
X136267000Y-70509108D01*
X136734514Y-70509108D01*
X136855181Y-70739000D01*
X138049000Y-70739000D01*
X138049000Y-69545845D01*
X137819110Y-69424524D01*
X137409076Y-69594355D01*
X136980817Y-69984642D01*
X136734514Y-70509108D01*
X136267000Y-70509108D01*
X136267000Y-69708580D01*
X137272579Y-68703000D01*
X139079420Y-68703000D01*
X139831000Y-69454579D01*
M02*
