M48
;DRILL file {KiCad 4.0.6} date 10/02/17 17:06:11
;FORMAT={-:-/ absolute / metric / decimal}
FMAT,2
METRIC,TZ
T1C0.700
T2C1.000
T3C1.016
T4C3.500
%
G90
G05
M71
T1
X140.525Y-110.223
X156.21Y-86.106
X157.226Y-73.406
T2
X136.398Y-80.518
X136.398Y-83.058
X138.176Y-70.866
X138.176Y-73.406
X140.716Y-70.866
X140.716Y-73.406
X143.256Y-70.866
X143.256Y-73.406
X145.796Y-70.866
X145.796Y-73.406
X148.336Y-70.866
X148.336Y-73.406
X150.622Y-118.364
X153.162Y-118.364
X155.702Y-118.364
X158.242Y-118.364
X160.782Y-118.364
T3
X164.719Y-66.294
X164.719Y-68.834
X164.719Y-71.374
X164.719Y-73.914
X164.719Y-76.454
X164.719Y-78.994
X164.719Y-81.534
X164.719Y-84.074
X164.719Y-86.614
X164.719Y-89.154
X164.719Y-91.694
X164.719Y-94.234
X164.719Y-96.774
X164.719Y-99.314
X164.719Y-101.854
X164.719Y-104.394
X164.719Y-106.934
X164.719Y-109.474
X164.719Y-112.014
X164.719Y-114.554
X167.259Y-66.294
X167.259Y-68.834
X167.259Y-71.374
X167.259Y-73.914
X167.259Y-76.454
X167.259Y-78.994
X167.259Y-81.534
X167.259Y-84.074
X167.259Y-86.614
X167.259Y-89.154
X167.259Y-91.694
X167.259Y-94.234
X167.259Y-96.774
X167.259Y-99.314
X167.259Y-101.854
X167.259Y-104.394
X167.259Y-106.934
X167.259Y-109.474
X167.259Y-112.014
X167.259Y-114.554
T4
X134.887Y-114.91
X146.444Y-114.884
T0
M30
