G04 #@! TF.FileFunction,Copper,L1,Top,Signal*
%FSLAX46Y46*%
G04 Gerber Fmt 4.6, Leading zero omitted, Abs format (unit mm)*
G04 Created by KiCad (PCBNEW 4.0.6) date 08/17/17 13:40:10*
%MOMM*%
%LPD*%
G01*
G04 APERTURE LIST*
%ADD10C,0.100000*%
%ADD11C,0.200000*%
%ADD12R,2.000000X1.524000*%
%ADD13O,2.000000X1.524000*%
%ADD14R,3.800000X2.000000*%
%ADD15R,1.500000X2.000000*%
%ADD16R,2.600000X1.600000*%
%ADD17O,0.900000X2.500000*%
%ADD18O,2.500000X0.900000*%
%ADD19R,6.000000X6.000000*%
%ADD20R,1.250000X1.500000*%
%ADD21R,1.500000X1.300000*%
%ADD22R,1.300000X1.500000*%
%ADD23R,1.700000X1.700000*%
%ADD24O,1.700000X1.700000*%
%ADD25C,5.000000*%
%ADD26C,0.600000*%
%ADD27C,0.500000*%
%ADD28C,0.750000*%
%ADD29C,0.254000*%
G04 APERTURE END LIST*
D10*
D11*
X171299143Y-109416095D02*
X171346762Y-109463714D01*
X171394381Y-109606571D01*
X171394381Y-109701809D01*
X171346762Y-109844667D01*
X171251524Y-109939905D01*
X171156286Y-109987524D01*
X170965810Y-110035143D01*
X170822952Y-110035143D01*
X170632476Y-109987524D01*
X170537238Y-109939905D01*
X170442000Y-109844667D01*
X170394381Y-109701809D01*
X170394381Y-109606571D01*
X170442000Y-109463714D01*
X170489619Y-109416095D01*
X171394381Y-108987524D02*
X170727714Y-108987524D01*
X170394381Y-108987524D02*
X170442000Y-109035143D01*
X170489619Y-108987524D01*
X170442000Y-108939905D01*
X170394381Y-108987524D01*
X170489619Y-108987524D01*
X171394381Y-108511334D02*
X170394381Y-108511334D01*
X171013429Y-108416096D02*
X171394381Y-108130381D01*
X170727714Y-108130381D02*
X171108667Y-108511334D01*
X171394381Y-107273238D02*
X170870571Y-107273238D01*
X170775333Y-107320857D01*
X170727714Y-107416095D01*
X170727714Y-107606572D01*
X170775333Y-107701810D01*
X171346762Y-107273238D02*
X171394381Y-107368476D01*
X171394381Y-107606572D01*
X171346762Y-107701810D01*
X171251524Y-107749429D01*
X171156286Y-107749429D01*
X171061048Y-107701810D01*
X171013429Y-107606572D01*
X171013429Y-107368476D01*
X170965810Y-107273238D01*
X171394381Y-106035143D02*
X170394381Y-106035143D01*
X170727714Y-105558953D02*
X171394381Y-105558953D01*
X170822952Y-105558953D02*
X170775333Y-105511334D01*
X170727714Y-105416096D01*
X170727714Y-105273238D01*
X170775333Y-105178000D01*
X170870571Y-105130381D01*
X171394381Y-105130381D01*
X170727714Y-104797048D02*
X170727714Y-104416096D01*
X170394381Y-104654191D02*
X171251524Y-104654191D01*
X171346762Y-104606572D01*
X171394381Y-104511334D01*
X171394381Y-104416096D01*
X171346762Y-103701809D02*
X171394381Y-103797047D01*
X171394381Y-103987524D01*
X171346762Y-104082762D01*
X171251524Y-104130381D01*
X170870571Y-104130381D01*
X170775333Y-104082762D01*
X170727714Y-103987524D01*
X170727714Y-103797047D01*
X170775333Y-103701809D01*
X170870571Y-103654190D01*
X170965810Y-103654190D01*
X171061048Y-104130381D01*
X171394381Y-103225619D02*
X170727714Y-103225619D01*
X170918190Y-103225619D02*
X170822952Y-103178000D01*
X170775333Y-103130381D01*
X170727714Y-103035143D01*
X170727714Y-102939904D01*
X170727714Y-102606571D02*
X171394381Y-102606571D01*
X170822952Y-102606571D02*
X170775333Y-102558952D01*
X170727714Y-102463714D01*
X170727714Y-102320856D01*
X170775333Y-102225618D01*
X170870571Y-102177999D01*
X171394381Y-102177999D01*
X171394381Y-101273237D02*
X170870571Y-101273237D01*
X170775333Y-101320856D01*
X170727714Y-101416094D01*
X170727714Y-101606571D01*
X170775333Y-101701809D01*
X171346762Y-101273237D02*
X171394381Y-101368475D01*
X171394381Y-101606571D01*
X171346762Y-101701809D01*
X171251524Y-101749428D01*
X171156286Y-101749428D01*
X171061048Y-101701809D01*
X171013429Y-101606571D01*
X171013429Y-101368475D01*
X170965810Y-101273237D01*
X171346762Y-100368475D02*
X171394381Y-100463713D01*
X171394381Y-100654190D01*
X171346762Y-100749428D01*
X171299143Y-100797047D01*
X171203905Y-100844666D01*
X170918190Y-100844666D01*
X170822952Y-100797047D01*
X170775333Y-100749428D01*
X170727714Y-100654190D01*
X170727714Y-100463713D01*
X170775333Y-100368475D01*
X171394381Y-99939904D02*
X170727714Y-99939904D01*
X170394381Y-99939904D02*
X170442000Y-99987523D01*
X170489619Y-99939904D01*
X170442000Y-99892285D01*
X170394381Y-99939904D01*
X170489619Y-99939904D01*
X171394381Y-99320857D02*
X171346762Y-99416095D01*
X171299143Y-99463714D01*
X171203905Y-99511333D01*
X170918190Y-99511333D01*
X170822952Y-99463714D01*
X170775333Y-99416095D01*
X170727714Y-99320857D01*
X170727714Y-99177999D01*
X170775333Y-99082761D01*
X170822952Y-99035142D01*
X170918190Y-98987523D01*
X171203905Y-98987523D01*
X171299143Y-99035142D01*
X171346762Y-99082761D01*
X171394381Y-99177999D01*
X171394381Y-99320857D01*
X170727714Y-98558952D02*
X171394381Y-98558952D01*
X170822952Y-98558952D02*
X170775333Y-98511333D01*
X170727714Y-98416095D01*
X170727714Y-98273237D01*
X170775333Y-98177999D01*
X170870571Y-98130380D01*
X171394381Y-98130380D01*
X171394381Y-97225618D02*
X170870571Y-97225618D01*
X170775333Y-97273237D01*
X170727714Y-97368475D01*
X170727714Y-97558952D01*
X170775333Y-97654190D01*
X171346762Y-97225618D02*
X171394381Y-97320856D01*
X171394381Y-97558952D01*
X171346762Y-97654190D01*
X171251524Y-97701809D01*
X171156286Y-97701809D01*
X171061048Y-97654190D01*
X171013429Y-97558952D01*
X171013429Y-97320856D01*
X170965810Y-97225618D01*
X171394381Y-96606571D02*
X171346762Y-96701809D01*
X171251524Y-96749428D01*
X170394381Y-96749428D01*
X171013429Y-95463713D02*
X171013429Y-94701808D01*
X171394381Y-93463713D02*
X170394381Y-93463713D01*
X170394381Y-93082760D01*
X170442000Y-92987522D01*
X170489619Y-92939903D01*
X170584857Y-92892284D01*
X170727714Y-92892284D01*
X170822952Y-92939903D01*
X170870571Y-92987522D01*
X170918190Y-93082760D01*
X170918190Y-93463713D01*
X171394381Y-92320856D02*
X171346762Y-92416094D01*
X171299143Y-92463713D01*
X171203905Y-92511332D01*
X170918190Y-92511332D01*
X170822952Y-92463713D01*
X170775333Y-92416094D01*
X170727714Y-92320856D01*
X170727714Y-92177998D01*
X170775333Y-92082760D01*
X170822952Y-92035141D01*
X170918190Y-91987522D01*
X171203905Y-91987522D01*
X171299143Y-92035141D01*
X171346762Y-92082760D01*
X171394381Y-92177998D01*
X171394381Y-92320856D01*
X170727714Y-91558951D02*
X171394381Y-91558951D01*
X170822952Y-91558951D02*
X170775333Y-91511332D01*
X170727714Y-91416094D01*
X170727714Y-91273236D01*
X170775333Y-91177998D01*
X170870571Y-91130379D01*
X171394381Y-91130379D01*
X171346762Y-90225617D02*
X171394381Y-90320855D01*
X171394381Y-90511332D01*
X171346762Y-90606570D01*
X171299143Y-90654189D01*
X171203905Y-90701808D01*
X170918190Y-90701808D01*
X170822952Y-90654189D01*
X170775333Y-90606570D01*
X170727714Y-90511332D01*
X170727714Y-90320855D01*
X170775333Y-90225617D01*
X171394381Y-89797046D02*
X170394381Y-89797046D01*
X171394381Y-89368474D02*
X170870571Y-89368474D01*
X170775333Y-89416093D01*
X170727714Y-89511331D01*
X170727714Y-89654189D01*
X170775333Y-89749427D01*
X170822952Y-89797046D01*
X171394381Y-88749427D02*
X171346762Y-88844665D01*
X171299143Y-88892284D01*
X171203905Y-88939903D01*
X170918190Y-88939903D01*
X170822952Y-88892284D01*
X170775333Y-88844665D01*
X170727714Y-88749427D01*
X170727714Y-88606569D01*
X170775333Y-88511331D01*
X170822952Y-88463712D01*
X170918190Y-88416093D01*
X171203905Y-88416093D01*
X171299143Y-88463712D01*
X171346762Y-88511331D01*
X171394381Y-88606569D01*
X171394381Y-88749427D01*
X170394381Y-87320855D02*
X171394381Y-87082760D01*
X170680095Y-86892283D01*
X171394381Y-86701807D01*
X170394381Y-86463712D01*
X171394381Y-86082760D02*
X170727714Y-86082760D01*
X170394381Y-86082760D02*
X170442000Y-86130379D01*
X170489619Y-86082760D01*
X170442000Y-86035141D01*
X170394381Y-86082760D01*
X170489619Y-86082760D01*
X170870571Y-85273236D02*
X170870571Y-85606570D01*
X171394381Y-85606570D02*
X170394381Y-85606570D01*
X170394381Y-85130379D01*
X171394381Y-84749427D02*
X170727714Y-84749427D01*
X170394381Y-84749427D02*
X170442000Y-84797046D01*
X170489619Y-84749427D01*
X170442000Y-84701808D01*
X170394381Y-84749427D01*
X170489619Y-84749427D01*
X170870571Y-83511332D02*
X170870571Y-83177998D01*
X171394381Y-83035141D02*
X171394381Y-83511332D01*
X170394381Y-83511332D01*
X170394381Y-83035141D01*
X171346762Y-82654189D02*
X171394381Y-82511332D01*
X171394381Y-82273236D01*
X171346762Y-82177998D01*
X171299143Y-82130379D01*
X171203905Y-82082760D01*
X171108667Y-82082760D01*
X171013429Y-82130379D01*
X170965810Y-82177998D01*
X170918190Y-82273236D01*
X170870571Y-82463713D01*
X170822952Y-82558951D01*
X170775333Y-82606570D01*
X170680095Y-82654189D01*
X170584857Y-82654189D01*
X170489619Y-82606570D01*
X170442000Y-82558951D01*
X170394381Y-82463713D01*
X170394381Y-82225617D01*
X170442000Y-82082760D01*
X171394381Y-81654189D02*
X170394381Y-81654189D01*
X170394381Y-81273236D01*
X170442000Y-81177998D01*
X170489619Y-81130379D01*
X170584857Y-81082760D01*
X170727714Y-81082760D01*
X170822952Y-81130379D01*
X170870571Y-81177998D01*
X170918190Y-81273236D01*
X170918190Y-81654189D01*
X171013429Y-80654189D02*
X171013429Y-79892284D01*
X170394381Y-79511332D02*
X171394381Y-79273237D01*
X170680095Y-79082760D01*
X171394381Y-78892284D01*
X170394381Y-78654189D01*
X171394381Y-77701808D02*
X170918190Y-78035142D01*
X171394381Y-78273237D02*
X170394381Y-78273237D01*
X170394381Y-77892284D01*
X170442000Y-77797046D01*
X170489619Y-77749427D01*
X170584857Y-77701808D01*
X170727714Y-77701808D01*
X170822952Y-77749427D01*
X170870571Y-77797046D01*
X170918190Y-77892284D01*
X170918190Y-78273237D01*
X170394381Y-77082761D02*
X170394381Y-76892284D01*
X170442000Y-76797046D01*
X170537238Y-76701808D01*
X170727714Y-76654189D01*
X171061048Y-76654189D01*
X171251524Y-76701808D01*
X171346762Y-76797046D01*
X171394381Y-76892284D01*
X171394381Y-77082761D01*
X171346762Y-77177999D01*
X171251524Y-77273237D01*
X171061048Y-77320856D01*
X170727714Y-77320856D01*
X170537238Y-77273237D01*
X170442000Y-77177999D01*
X170394381Y-77082761D01*
X170394381Y-76035142D02*
X170394381Y-75844665D01*
X170442000Y-75749427D01*
X170537238Y-75654189D01*
X170727714Y-75606570D01*
X171061048Y-75606570D01*
X171251524Y-75654189D01*
X171346762Y-75749427D01*
X171394381Y-75844665D01*
X171394381Y-76035142D01*
X171346762Y-76130380D01*
X171251524Y-76225618D01*
X171061048Y-76273237D01*
X170727714Y-76273237D01*
X170537238Y-76225618D01*
X170442000Y-76130380D01*
X170394381Y-76035142D01*
X171394381Y-75177999D02*
X170394381Y-75177999D01*
X171108667Y-74844665D01*
X170394381Y-74511332D01*
X171394381Y-74511332D01*
X171013429Y-74035142D02*
X171013429Y-73273237D01*
X170394381Y-72892285D02*
X170394381Y-72273237D01*
X170775333Y-72606571D01*
X170775333Y-72463713D01*
X170822952Y-72368475D01*
X170870571Y-72320856D01*
X170965810Y-72273237D01*
X171203905Y-72273237D01*
X171299143Y-72320856D01*
X171346762Y-72368475D01*
X171394381Y-72463713D01*
X171394381Y-72749428D01*
X171346762Y-72844666D01*
X171299143Y-72892285D01*
X170489619Y-71892285D02*
X170442000Y-71844666D01*
X170394381Y-71749428D01*
X170394381Y-71511332D01*
X170442000Y-71416094D01*
X170489619Y-71368475D01*
X170584857Y-71320856D01*
X170680095Y-71320856D01*
X170822952Y-71368475D01*
X171394381Y-71939904D01*
X171394381Y-71320856D01*
D12*
X164719000Y-66294000D03*
D13*
X167259000Y-66294000D03*
X164719000Y-78994000D03*
X167259000Y-68834000D03*
X164719000Y-81534000D03*
X167259000Y-71374000D03*
X164719000Y-84074000D03*
X167259000Y-73914000D03*
X164719000Y-86614000D03*
X167259000Y-76454000D03*
X164719000Y-89154000D03*
X167259000Y-78994000D03*
X164719000Y-91694000D03*
X167259000Y-81534000D03*
X164719000Y-94234000D03*
X167259000Y-84074000D03*
X164719000Y-96774000D03*
X167259000Y-86614000D03*
X164719000Y-99314000D03*
X167259000Y-89154000D03*
X164719000Y-101854000D03*
X167259000Y-91694000D03*
X164719000Y-104394000D03*
X167259000Y-94234000D03*
X167259000Y-96774000D03*
X164719000Y-106934000D03*
X167259000Y-99314000D03*
X167259000Y-104394000D03*
X167259000Y-106934000D03*
X167259000Y-109474000D03*
X167259000Y-112014000D03*
X164719000Y-109474000D03*
X164719000Y-112014000D03*
X164719000Y-68834000D03*
X164719000Y-71374000D03*
X164719000Y-73914000D03*
X164719000Y-76454000D03*
X164719000Y-114554000D03*
X167259000Y-114554000D03*
X167259000Y-101854000D03*
D14*
X157099000Y-62763000D03*
D15*
X157099000Y-69063000D03*
X159399000Y-69063000D03*
X154799000Y-69063000D03*
D16*
X159026000Y-74930000D03*
X155426000Y-74930000D03*
D17*
X139657000Y-89425000D03*
X140927000Y-89425000D03*
X142197000Y-89425000D03*
X143467000Y-89425000D03*
X144737000Y-89425000D03*
X146007000Y-89425000D03*
X147277000Y-89425000D03*
X148547000Y-89425000D03*
X149817000Y-89425000D03*
X151087000Y-89425000D03*
X152357000Y-89425000D03*
X153627000Y-89425000D03*
X154897000Y-89425000D03*
X156167000Y-89425000D03*
D18*
X157657000Y-92710000D03*
X157657000Y-93980000D03*
X157657000Y-95250000D03*
X157657000Y-96520000D03*
X157657000Y-97790000D03*
X157657000Y-99060000D03*
X157657000Y-100330000D03*
X157657000Y-101600000D03*
X157657000Y-102870000D03*
X157657000Y-104140000D03*
D17*
X156167000Y-107425000D03*
X154897000Y-107425000D03*
X153627000Y-107425000D03*
X152357000Y-107425000D03*
X151087000Y-107425000D03*
X149817000Y-107425000D03*
X148547000Y-107425000D03*
X147277000Y-107425000D03*
X146007000Y-107425000D03*
X144737000Y-107425000D03*
X143467000Y-107425000D03*
X142197000Y-107425000D03*
X140927000Y-107425000D03*
X139657000Y-107425000D03*
D19*
X147357000Y-98725000D03*
D20*
X139319000Y-112923000D03*
X139319000Y-115423000D03*
X142240000Y-112923000D03*
X142240000Y-115423000D03*
D21*
X140890000Y-110617000D03*
X143590000Y-110617000D03*
D22*
X160782000Y-111934000D03*
X160782000Y-114634000D03*
X158242000Y-111934000D03*
X158242000Y-114634000D03*
X155702000Y-111934000D03*
X155702000Y-114634000D03*
X153162000Y-111934000D03*
X153162000Y-114634000D03*
D16*
X159026000Y-81788000D03*
X155426000Y-81788000D03*
D23*
X162052000Y-118364000D03*
D24*
X159512000Y-118364000D03*
X156972000Y-118364000D03*
X154432000Y-118364000D03*
X151892000Y-118364000D03*
D23*
X145796000Y-84074000D03*
D24*
X145796000Y-81534000D03*
X145796000Y-78994000D03*
D23*
X135636000Y-84074000D03*
D24*
X135636000Y-81534000D03*
X135636000Y-78994000D03*
D23*
X140716000Y-84074000D03*
D24*
X140716000Y-81534000D03*
X140716000Y-78994000D03*
D23*
X145796000Y-73152000D03*
D24*
X145796000Y-70612000D03*
X143256000Y-73152000D03*
X143256000Y-70612000D03*
X140716000Y-73152000D03*
X140716000Y-70612000D03*
X138176000Y-73152000D03*
X138176000Y-70612000D03*
X135636000Y-73152000D03*
X135636000Y-70612000D03*
D23*
X150876000Y-81534000D03*
D24*
X150876000Y-78994000D03*
D25*
X146431000Y-114935000D03*
X134874000Y-114808000D03*
D26*
X140970000Y-104648000D03*
X162560000Y-104648000D03*
X157099000Y-66040000D03*
X159004000Y-78232000D03*
X144526000Y-86868000D03*
D27*
X139319000Y-112923000D02*
X139319000Y-111252000D01*
X139954000Y-110617000D02*
X140890000Y-110617000D01*
X139319000Y-111252000D02*
X139954000Y-110617000D01*
X140927000Y-107425000D02*
X140927000Y-110580000D01*
X140927000Y-110580000D02*
X140890000Y-110617000D01*
D28*
X159026000Y-81788000D02*
X161290000Y-81788000D01*
X140927000Y-104691000D02*
X140927000Y-107425000D01*
X140970000Y-104648000D02*
X140927000Y-104691000D01*
X162560000Y-83058000D02*
X162560000Y-104648000D01*
X161290000Y-81788000D02*
X162560000Y-83058000D01*
X159026000Y-81788000D02*
X159026000Y-78254000D01*
X159004000Y-78232000D02*
X159026000Y-78254000D01*
X157099000Y-69063000D02*
X157099000Y-66040000D01*
X157099000Y-66040000D02*
X157099000Y-62763000D01*
D27*
X143590000Y-110617000D02*
X143510000Y-110617000D01*
X143510000Y-110617000D02*
X142197000Y-109304000D01*
X142197000Y-109304000D02*
X142197000Y-107425000D01*
X142240000Y-112923000D02*
X143109000Y-112923000D01*
X143590000Y-112442000D02*
X143590000Y-110617000D01*
X143109000Y-112923000D02*
X143590000Y-112442000D01*
X142193000Y-112876000D02*
X142240000Y-112923000D01*
X160782000Y-114634000D02*
X160782000Y-115570000D01*
X162052000Y-116840000D02*
X162052000Y-118364000D01*
X160782000Y-115570000D02*
X162052000Y-116840000D01*
X158242000Y-114634000D02*
X158242000Y-115570000D01*
X159512000Y-116840000D02*
X159512000Y-118364000D01*
X158242000Y-115570000D02*
X159512000Y-116840000D01*
X155702000Y-114634000D02*
X155702000Y-115570000D01*
X156972000Y-116840000D02*
X156972000Y-118364000D01*
X155702000Y-115570000D02*
X156972000Y-116840000D01*
X153162000Y-114634000D02*
X153162000Y-115824000D01*
X154432000Y-117094000D02*
X154432000Y-118364000D01*
X153162000Y-115824000D02*
X154432000Y-117094000D01*
X160782000Y-111934000D02*
X160782000Y-94742000D01*
X160020000Y-93980000D02*
X157657000Y-93980000D01*
X160782000Y-94742000D02*
X160020000Y-93980000D01*
X158242000Y-111934000D02*
X158242000Y-110744000D01*
X159258000Y-102870000D02*
X157657000Y-102870000D01*
X159766000Y-103378000D02*
X159258000Y-102870000D01*
X159766000Y-109220000D02*
X159766000Y-103378000D01*
X158242000Y-110744000D02*
X159766000Y-109220000D01*
X155702000Y-111934000D02*
X155702000Y-110490000D01*
X156167000Y-110025000D02*
X156167000Y-107425000D01*
X155702000Y-110490000D02*
X156167000Y-110025000D01*
X153162000Y-111934000D02*
X153162000Y-111506000D01*
X153162000Y-111506000D02*
X154897000Y-109771000D01*
X154897000Y-109771000D02*
X154897000Y-107425000D01*
X143467000Y-89425000D02*
X143467000Y-82507000D01*
X142494000Y-81534000D02*
X140716000Y-81534000D01*
X143467000Y-82507000D02*
X142494000Y-81534000D01*
X144737000Y-87079000D02*
X144737000Y-89425000D01*
X144526000Y-86868000D02*
X144737000Y-87079000D01*
D28*
X145796000Y-81534000D02*
X147066000Y-81534000D01*
X159026000Y-75924000D02*
X159026000Y-74930000D01*
X157734000Y-77216000D02*
X159026000Y-75924000D01*
X153670000Y-77216000D02*
X157734000Y-77216000D01*
X152908000Y-76454000D02*
X153670000Y-77216000D01*
X149606000Y-76454000D02*
X152908000Y-76454000D01*
X148336000Y-77724000D02*
X149606000Y-76454000D01*
X148336000Y-80264000D02*
X148336000Y-77724000D01*
X147066000Y-81534000D02*
X148336000Y-80264000D01*
X159026000Y-74930000D02*
X159026000Y-72241000D01*
X159399000Y-71868000D02*
X159399000Y-69063000D01*
X159026000Y-72241000D02*
X159399000Y-71868000D01*
X135636000Y-73152000D02*
X135636000Y-74168000D01*
X145796000Y-76454000D02*
X145796000Y-78994000D01*
X144526000Y-75184000D02*
X145796000Y-76454000D01*
X136652000Y-75184000D02*
X144526000Y-75184000D01*
X135636000Y-74168000D02*
X136652000Y-75184000D01*
D27*
X150876000Y-81534000D02*
X150876000Y-85852000D01*
X156167000Y-87333000D02*
X156167000Y-89425000D01*
X155448000Y-86614000D02*
X156167000Y-87333000D01*
X151638000Y-86614000D02*
X155448000Y-86614000D01*
X150876000Y-85852000D02*
X151638000Y-86614000D01*
D29*
G36*
X172264000Y-70495380D02*
X169507000Y-70495380D01*
X169507000Y-110860619D01*
X172264000Y-110860619D01*
X172264000Y-120194000D01*
X133044000Y-120194000D01*
X133044000Y-118720892D01*
X150450514Y-118720892D01*
X150696817Y-119245358D01*
X151125076Y-119635645D01*
X151535110Y-119805476D01*
X151765000Y-119684155D01*
X151765000Y-118491000D01*
X150571181Y-118491000D01*
X150450514Y-118720892D01*
X133044000Y-118720892D01*
X133044000Y-117412236D01*
X133095847Y-117464174D01*
X134247674Y-117942454D01*
X135494854Y-117943543D01*
X136647515Y-117467273D01*
X137530174Y-116586153D01*
X137894503Y-115708750D01*
X138059000Y-115708750D01*
X138059000Y-116299309D01*
X138155673Y-116532698D01*
X138334301Y-116711327D01*
X138567690Y-116808000D01*
X139033250Y-116808000D01*
X139192000Y-116649250D01*
X139192000Y-115550000D01*
X139446000Y-115550000D01*
X139446000Y-116649250D01*
X139604750Y-116808000D01*
X140070310Y-116808000D01*
X140303699Y-116711327D01*
X140482327Y-116532698D01*
X140579000Y-116299309D01*
X140579000Y-115708750D01*
X140980000Y-115708750D01*
X140980000Y-116299309D01*
X141076673Y-116532698D01*
X141255301Y-116711327D01*
X141488690Y-116808000D01*
X141954250Y-116808000D01*
X142113000Y-116649250D01*
X142113000Y-115550000D01*
X141138750Y-115550000D01*
X140980000Y-115708750D01*
X140579000Y-115708750D01*
X140420250Y-115550000D01*
X139446000Y-115550000D01*
X139192000Y-115550000D01*
X138217750Y-115550000D01*
X138059000Y-115708750D01*
X137894503Y-115708750D01*
X138008454Y-115434326D01*
X138009543Y-114187146D01*
X137533273Y-113034485D01*
X136652153Y-112151826D01*
X135500326Y-111673546D01*
X134253146Y-111672457D01*
X133100485Y-112148727D01*
X133044000Y-112205114D01*
X133044000Y-108077000D01*
X138557000Y-108077000D01*
X138572000Y-108074178D01*
X138572000Y-108352000D01*
X138703192Y-108757544D01*
X138979592Y-109082013D01*
X139362999Y-109269408D01*
X139530000Y-109142502D01*
X139530000Y-107552000D01*
X139510000Y-107552000D01*
X139510000Y-107298000D01*
X139530000Y-107298000D01*
X139530000Y-105707498D01*
X139362999Y-105580592D01*
X138979592Y-105767987D01*
X138703192Y-106092456D01*
X138684000Y-106151783D01*
X138684000Y-99010750D01*
X143722000Y-99010750D01*
X143722000Y-101851309D01*
X143818673Y-102084698D01*
X143997301Y-102263327D01*
X144230690Y-102360000D01*
X147071250Y-102360000D01*
X147230000Y-102201250D01*
X147230000Y-98852000D01*
X147484000Y-98852000D01*
X147484000Y-102201250D01*
X147642750Y-102360000D01*
X150483310Y-102360000D01*
X150716699Y-102263327D01*
X150895327Y-102084698D01*
X150992000Y-101851309D01*
X150992000Y-99010750D01*
X150833250Y-98852000D01*
X147484000Y-98852000D01*
X147230000Y-98852000D01*
X143880750Y-98852000D01*
X143722000Y-99010750D01*
X138684000Y-99010750D01*
X138684000Y-95598691D01*
X143722000Y-95598691D01*
X143722000Y-98439250D01*
X143880750Y-98598000D01*
X147230000Y-98598000D01*
X147230000Y-95248750D01*
X147484000Y-95248750D01*
X147484000Y-98598000D01*
X150833250Y-98598000D01*
X150992000Y-98439250D01*
X150992000Y-95598691D01*
X150895327Y-95365302D01*
X150716699Y-95186673D01*
X150483310Y-95090000D01*
X147642750Y-95090000D01*
X147484000Y-95248750D01*
X147230000Y-95248750D01*
X147071250Y-95090000D01*
X144230690Y-95090000D01*
X143997301Y-95186673D01*
X143818673Y-95365302D01*
X143722000Y-95598691D01*
X138684000Y-95598691D01*
X138684000Y-90698217D01*
X138703192Y-90757544D01*
X138979592Y-91082013D01*
X139362999Y-91269408D01*
X139530000Y-91142502D01*
X139530000Y-89552000D01*
X139510000Y-89552000D01*
X139510000Y-89298000D01*
X139530000Y-89298000D01*
X139530000Y-87707498D01*
X139362999Y-87580592D01*
X138979592Y-87767987D01*
X138703192Y-88092456D01*
X138572000Y-88498000D01*
X138572000Y-88776038D01*
X138557000Y-88773000D01*
X133044000Y-88773000D01*
X133044000Y-78994000D01*
X134121907Y-78994000D01*
X134234946Y-79562285D01*
X134556853Y-80044054D01*
X134886026Y-80264000D01*
X134556853Y-80483946D01*
X134234946Y-80965715D01*
X134121907Y-81534000D01*
X134234946Y-82102285D01*
X134556853Y-82584054D01*
X134598452Y-82611850D01*
X134550683Y-82620838D01*
X134334559Y-82759910D01*
X134189569Y-82972110D01*
X134138560Y-83224000D01*
X134138560Y-84924000D01*
X134182838Y-85159317D01*
X134321910Y-85375441D01*
X134534110Y-85520431D01*
X134786000Y-85571440D01*
X136486000Y-85571440D01*
X136721317Y-85527162D01*
X136937441Y-85388090D01*
X137082431Y-85175890D01*
X137133440Y-84924000D01*
X137133440Y-83224000D01*
X137089162Y-82988683D01*
X136950090Y-82772559D01*
X136737890Y-82627569D01*
X136670459Y-82613914D01*
X136715147Y-82584054D01*
X137037054Y-82102285D01*
X137150093Y-81534000D01*
X137037054Y-80965715D01*
X136715147Y-80483946D01*
X136385974Y-80264000D01*
X136715147Y-80044054D01*
X137037054Y-79562285D01*
X137150093Y-78994000D01*
X137037054Y-78425715D01*
X136715147Y-77943946D01*
X136233378Y-77622039D01*
X135665093Y-77509000D01*
X135606907Y-77509000D01*
X135038622Y-77622039D01*
X134556853Y-77943946D01*
X134234946Y-78425715D01*
X134121907Y-78994000D01*
X133044000Y-78994000D01*
X133044000Y-73122907D01*
X134151000Y-73122907D01*
X134151000Y-73181093D01*
X134264039Y-73749378D01*
X134585946Y-74231147D01*
X134646626Y-74271692D01*
X134702882Y-74554510D01*
X134921822Y-74882178D01*
X135937822Y-75898178D01*
X136265490Y-76117118D01*
X136652000Y-76194000D01*
X144107644Y-76194000D01*
X144786000Y-76872356D01*
X144786000Y-77897744D01*
X144716853Y-77943946D01*
X144394946Y-78425715D01*
X144281907Y-78994000D01*
X144394946Y-79562285D01*
X144716853Y-80044054D01*
X145046026Y-80264000D01*
X144716853Y-80483946D01*
X144394946Y-80965715D01*
X144281907Y-81534000D01*
X144394946Y-82102285D01*
X144716853Y-82584054D01*
X144758452Y-82611850D01*
X144710683Y-82620838D01*
X144494559Y-82759910D01*
X144352000Y-82968552D01*
X144352000Y-82507005D01*
X144352001Y-82507000D01*
X144284633Y-82168326D01*
X144284633Y-82168325D01*
X144092790Y-81881210D01*
X144092787Y-81881208D01*
X143119790Y-80908210D01*
X143050167Y-80861690D01*
X142832675Y-80716367D01*
X142776484Y-80705190D01*
X142494000Y-80648999D01*
X142493995Y-80649000D01*
X141905432Y-80649000D01*
X141795147Y-80483946D01*
X141465974Y-80264000D01*
X141795147Y-80044054D01*
X142117054Y-79562285D01*
X142230093Y-78994000D01*
X142117054Y-78425715D01*
X141795147Y-77943946D01*
X141313378Y-77622039D01*
X140745093Y-77509000D01*
X140686907Y-77509000D01*
X140118622Y-77622039D01*
X139636853Y-77943946D01*
X139314946Y-78425715D01*
X139201907Y-78994000D01*
X139314946Y-79562285D01*
X139636853Y-80044054D01*
X139966026Y-80264000D01*
X139636853Y-80483946D01*
X139314946Y-80965715D01*
X139201907Y-81534000D01*
X139314946Y-82102285D01*
X139636853Y-82584054D01*
X139678452Y-82611850D01*
X139630683Y-82620838D01*
X139414559Y-82759910D01*
X139269569Y-82972110D01*
X139218560Y-83224000D01*
X139218560Y-84924000D01*
X139262838Y-85159317D01*
X139401910Y-85375441D01*
X139614110Y-85520431D01*
X139866000Y-85571440D01*
X141566000Y-85571440D01*
X141801317Y-85527162D01*
X142017441Y-85388090D01*
X142162431Y-85175890D01*
X142213440Y-84924000D01*
X142213440Y-83224000D01*
X142169162Y-82988683D01*
X142030090Y-82772559D01*
X141817890Y-82627569D01*
X141750459Y-82613914D01*
X141795147Y-82584054D01*
X141905432Y-82419000D01*
X142127420Y-82419000D01*
X142582000Y-82873579D01*
X142582000Y-87579652D01*
X142197000Y-87503071D01*
X141781788Y-87585662D01*
X141562000Y-87732520D01*
X141342212Y-87585662D01*
X140927000Y-87503071D01*
X140511788Y-87585662D01*
X140279259Y-87741032D01*
X139951001Y-87580592D01*
X139784000Y-87707498D01*
X139784000Y-89298000D01*
X139804000Y-89298000D01*
X139804000Y-89552000D01*
X139784000Y-89552000D01*
X139784000Y-91142502D01*
X139951001Y-91269408D01*
X140279259Y-91108968D01*
X140511788Y-91264338D01*
X140927000Y-91346929D01*
X141342212Y-91264338D01*
X141562000Y-91117480D01*
X141781788Y-91264338D01*
X142197000Y-91346929D01*
X142612212Y-91264338D01*
X142832000Y-91117480D01*
X143051788Y-91264338D01*
X143467000Y-91346929D01*
X143882212Y-91264338D01*
X144102000Y-91117480D01*
X144321788Y-91264338D01*
X144737000Y-91346929D01*
X145152212Y-91264338D01*
X145372000Y-91117480D01*
X145591788Y-91264338D01*
X146007000Y-91346929D01*
X146422212Y-91264338D01*
X146642000Y-91117480D01*
X146861788Y-91264338D01*
X147277000Y-91346929D01*
X147692212Y-91264338D01*
X147912000Y-91117480D01*
X148131788Y-91264338D01*
X148547000Y-91346929D01*
X148962212Y-91264338D01*
X149182000Y-91117480D01*
X149401788Y-91264338D01*
X149817000Y-91346929D01*
X150232212Y-91264338D01*
X150452000Y-91117480D01*
X150671788Y-91264338D01*
X151087000Y-91346929D01*
X151502212Y-91264338D01*
X151722000Y-91117480D01*
X151941788Y-91264338D01*
X152357000Y-91346929D01*
X152772212Y-91264338D01*
X152992000Y-91117480D01*
X153211788Y-91264338D01*
X153627000Y-91346929D01*
X154042212Y-91264338D01*
X154262000Y-91117480D01*
X154481788Y-91264338D01*
X154897000Y-91346929D01*
X155312212Y-91264338D01*
X155532000Y-91117480D01*
X155751788Y-91264338D01*
X156167000Y-91346929D01*
X156582212Y-91264338D01*
X156934211Y-91029140D01*
X157169409Y-90677141D01*
X157252000Y-90261929D01*
X157252000Y-88588071D01*
X157169409Y-88172859D01*
X157052000Y-87997144D01*
X157052000Y-87333005D01*
X157052001Y-87333000D01*
X156984634Y-86994326D01*
X156814917Y-86740326D01*
X156792790Y-86707210D01*
X156792787Y-86707208D01*
X156073790Y-85988210D01*
X155990919Y-85932838D01*
X155786675Y-85796367D01*
X155730484Y-85785190D01*
X155448000Y-85728999D01*
X155447995Y-85729000D01*
X152004579Y-85729000D01*
X151761000Y-85485420D01*
X151761000Y-83024854D01*
X151961317Y-82987162D01*
X152177441Y-82848090D01*
X152322431Y-82635890D01*
X152373440Y-82384000D01*
X152373440Y-82073750D01*
X153491000Y-82073750D01*
X153491000Y-82714310D01*
X153587673Y-82947699D01*
X153766302Y-83126327D01*
X153999691Y-83223000D01*
X155140250Y-83223000D01*
X155299000Y-83064250D01*
X155299000Y-81915000D01*
X153649750Y-81915000D01*
X153491000Y-82073750D01*
X152373440Y-82073750D01*
X152373440Y-80861690D01*
X153491000Y-80861690D01*
X153491000Y-81502250D01*
X153649750Y-81661000D01*
X155299000Y-81661000D01*
X155299000Y-80511750D01*
X155140250Y-80353000D01*
X153999691Y-80353000D01*
X153766302Y-80449673D01*
X153587673Y-80628301D01*
X153491000Y-80861690D01*
X152373440Y-80861690D01*
X152373440Y-80684000D01*
X152329162Y-80448683D01*
X152190090Y-80232559D01*
X151977890Y-80087569D01*
X151869893Y-80065699D01*
X152147645Y-79760924D01*
X152317476Y-79350890D01*
X152196155Y-79121000D01*
X151003000Y-79121000D01*
X151003000Y-79141000D01*
X150749000Y-79141000D01*
X150749000Y-79121000D01*
X149555845Y-79121000D01*
X149434524Y-79350890D01*
X149604355Y-79760924D01*
X149880501Y-80063937D01*
X149790683Y-80080838D01*
X149574559Y-80219910D01*
X149429569Y-80432110D01*
X149378560Y-80684000D01*
X149378560Y-82384000D01*
X149422838Y-82619317D01*
X149561910Y-82835441D01*
X149774110Y-82980431D01*
X149991000Y-83024352D01*
X149991000Y-85851995D01*
X149990999Y-85852000D01*
X150018094Y-85988211D01*
X150058367Y-86190675D01*
X150157512Y-86339057D01*
X150250210Y-86477790D01*
X151012208Y-87239787D01*
X151012210Y-87239790D01*
X151299325Y-87431633D01*
X151355516Y-87442810D01*
X151638000Y-87499001D01*
X151638005Y-87499000D01*
X155081420Y-87499000D01*
X155132295Y-87549874D01*
X154897000Y-87503071D01*
X154481788Y-87585662D01*
X154262000Y-87732520D01*
X154042212Y-87585662D01*
X153627000Y-87503071D01*
X153211788Y-87585662D01*
X152992000Y-87732520D01*
X152772212Y-87585662D01*
X152357000Y-87503071D01*
X151941788Y-87585662D01*
X151722000Y-87732520D01*
X151502212Y-87585662D01*
X151087000Y-87503071D01*
X150671788Y-87585662D01*
X150452000Y-87732520D01*
X150232212Y-87585662D01*
X149817000Y-87503071D01*
X149401788Y-87585662D01*
X149182000Y-87732520D01*
X148962212Y-87585662D01*
X148547000Y-87503071D01*
X148131788Y-87585662D01*
X147912000Y-87732520D01*
X147692212Y-87585662D01*
X147277000Y-87503071D01*
X146861788Y-87585662D01*
X146642000Y-87732520D01*
X146422212Y-87585662D01*
X146007000Y-87503071D01*
X145622000Y-87579652D01*
X145622000Y-87079005D01*
X145622001Y-87079000D01*
X145554633Y-86740326D01*
X145554633Y-86740325D01*
X145371946Y-86466913D01*
X145319117Y-86339057D01*
X145056327Y-86075808D01*
X144712799Y-85933162D01*
X144352000Y-85932848D01*
X144352000Y-85173555D01*
X144481910Y-85375441D01*
X144694110Y-85520431D01*
X144946000Y-85571440D01*
X146646000Y-85571440D01*
X146881317Y-85527162D01*
X147097441Y-85388090D01*
X147242431Y-85175890D01*
X147293440Y-84924000D01*
X147293440Y-83224000D01*
X147249162Y-82988683D01*
X147110090Y-82772559D01*
X146897890Y-82627569D01*
X146830459Y-82613914D01*
X146875147Y-82584054D01*
X146901910Y-82544000D01*
X147066000Y-82544000D01*
X147452510Y-82467118D01*
X147780178Y-82248178D01*
X149050178Y-80978178D01*
X149269118Y-80650510D01*
X149346000Y-80264000D01*
X149346000Y-78637110D01*
X149434524Y-78637110D01*
X149555845Y-78867000D01*
X150749000Y-78867000D01*
X150749000Y-77673181D01*
X151003000Y-77673181D01*
X151003000Y-78867000D01*
X152196155Y-78867000D01*
X152317476Y-78637110D01*
X152147645Y-78227076D01*
X151757358Y-77798817D01*
X151232892Y-77552514D01*
X151003000Y-77673181D01*
X150749000Y-77673181D01*
X150519108Y-77552514D01*
X149994642Y-77798817D01*
X149604355Y-78227076D01*
X149434524Y-78637110D01*
X149346000Y-78637110D01*
X149346000Y-78142356D01*
X150024356Y-77464000D01*
X152489644Y-77464000D01*
X152955822Y-77930178D01*
X153283490Y-78149118D01*
X153670000Y-78226000D01*
X157734000Y-78226000D01*
X158005954Y-78171905D01*
X157994000Y-78232000D01*
X158016000Y-78342601D01*
X158016000Y-80340560D01*
X157726000Y-80340560D01*
X157490683Y-80384838D01*
X157274559Y-80523910D01*
X157228031Y-80592006D01*
X157085698Y-80449673D01*
X156852309Y-80353000D01*
X155711750Y-80353000D01*
X155553000Y-80511750D01*
X155553000Y-81661000D01*
X155573000Y-81661000D01*
X155573000Y-81915000D01*
X155553000Y-81915000D01*
X155553000Y-83064250D01*
X155711750Y-83223000D01*
X156852309Y-83223000D01*
X157085698Y-83126327D01*
X157226936Y-82985090D01*
X157261910Y-83039441D01*
X157474110Y-83184431D01*
X157726000Y-83235440D01*
X160326000Y-83235440D01*
X160561317Y-83191162D01*
X160777441Y-83052090D01*
X160918820Y-82845176D01*
X161550000Y-83476356D01*
X161550000Y-94329044D01*
X161407790Y-94116210D01*
X161407787Y-94116208D01*
X160645790Y-93354210D01*
X160594752Y-93320108D01*
X160358675Y-93162367D01*
X160302484Y-93151190D01*
X160020000Y-93094999D01*
X160019995Y-93095000D01*
X159502348Y-93095000D01*
X159578929Y-92710000D01*
X159496338Y-92294788D01*
X159261140Y-91942789D01*
X158909141Y-91707591D01*
X158493929Y-91625000D01*
X156820071Y-91625000D01*
X156404859Y-91707591D01*
X156052860Y-91942789D01*
X155817662Y-92294788D01*
X155735071Y-92710000D01*
X155817662Y-93125212D01*
X155964520Y-93345000D01*
X155817662Y-93564788D01*
X155735071Y-93980000D01*
X155817662Y-94395212D01*
X155964520Y-94615000D01*
X155817662Y-94834788D01*
X155735071Y-95250000D01*
X155817662Y-95665212D01*
X155964520Y-95885000D01*
X155817662Y-96104788D01*
X155735071Y-96520000D01*
X155817662Y-96935212D01*
X155964520Y-97155000D01*
X155817662Y-97374788D01*
X155735071Y-97790000D01*
X155817662Y-98205212D01*
X155964520Y-98425000D01*
X155817662Y-98644788D01*
X155735071Y-99060000D01*
X155817662Y-99475212D01*
X155964520Y-99695000D01*
X155817662Y-99914788D01*
X155735071Y-100330000D01*
X155817662Y-100745212D01*
X155964520Y-100965000D01*
X155817662Y-101184788D01*
X155735071Y-101600000D01*
X155817662Y-102015212D01*
X155964520Y-102235000D01*
X155817662Y-102454788D01*
X155735071Y-102870000D01*
X155817662Y-103285212D01*
X155973032Y-103517741D01*
X155812592Y-103845999D01*
X155939498Y-104013000D01*
X157530000Y-104013000D01*
X157530000Y-103993000D01*
X157784000Y-103993000D01*
X157784000Y-104013000D01*
X157804000Y-104013000D01*
X157804000Y-104267000D01*
X157784000Y-104267000D01*
X157784000Y-105225000D01*
X158584000Y-105225000D01*
X158881000Y-105128922D01*
X158881000Y-108853421D01*
X157616210Y-110118210D01*
X157424367Y-110405325D01*
X157424367Y-110405326D01*
X157390729Y-110574432D01*
X157356683Y-110580838D01*
X157140559Y-110719910D01*
X156995569Y-110932110D01*
X156973007Y-111043523D01*
X156955162Y-110948683D01*
X156816090Y-110732559D01*
X156753670Y-110689909D01*
X156792787Y-110650792D01*
X156792790Y-110650790D01*
X156984633Y-110363675D01*
X157052000Y-110025000D01*
X157052000Y-108852856D01*
X157169409Y-108677141D01*
X157252000Y-108261929D01*
X157252000Y-106588071D01*
X157169409Y-106172859D01*
X156934211Y-105820860D01*
X156582212Y-105585662D01*
X156167000Y-105503071D01*
X155751788Y-105585662D01*
X155532000Y-105732520D01*
X155312212Y-105585662D01*
X154897000Y-105503071D01*
X154481788Y-105585662D01*
X154262000Y-105732520D01*
X154042212Y-105585662D01*
X153627000Y-105503071D01*
X153211788Y-105585662D01*
X152992000Y-105732520D01*
X152772212Y-105585662D01*
X152357000Y-105503071D01*
X151941788Y-105585662D01*
X151722000Y-105732520D01*
X151502212Y-105585662D01*
X151087000Y-105503071D01*
X150671788Y-105585662D01*
X150452000Y-105732520D01*
X150232212Y-105585662D01*
X149817000Y-105503071D01*
X149401788Y-105585662D01*
X149182000Y-105732520D01*
X148962212Y-105585662D01*
X148547000Y-105503071D01*
X148131788Y-105585662D01*
X147912000Y-105732520D01*
X147692212Y-105585662D01*
X147277000Y-105503071D01*
X146861788Y-105585662D01*
X146642000Y-105732520D01*
X146422212Y-105585662D01*
X146007000Y-105503071D01*
X145591788Y-105585662D01*
X145372000Y-105732520D01*
X145152212Y-105585662D01*
X144737000Y-105503071D01*
X144321788Y-105585662D01*
X144102000Y-105732520D01*
X143882212Y-105585662D01*
X143467000Y-105503071D01*
X143051788Y-105585662D01*
X142832000Y-105732520D01*
X142612212Y-105585662D01*
X142197000Y-105503071D01*
X141937000Y-105554788D01*
X141937000Y-104864175D01*
X141980000Y-104648000D01*
X141937433Y-104434001D01*
X155812592Y-104434001D01*
X155999987Y-104817408D01*
X156324456Y-105093808D01*
X156730000Y-105225000D01*
X157530000Y-105225000D01*
X157530000Y-104267000D01*
X155939498Y-104267000D01*
X155812592Y-104434001D01*
X141937433Y-104434001D01*
X141903118Y-104261490D01*
X141684178Y-103933822D01*
X141356510Y-103714882D01*
X140970000Y-103638000D01*
X140583490Y-103714882D01*
X140255822Y-103933822D01*
X140212822Y-103976822D01*
X139993882Y-104304490D01*
X139917000Y-104691000D01*
X139917000Y-105606430D01*
X139784000Y-105707498D01*
X139784000Y-107298000D01*
X139804000Y-107298000D01*
X139804000Y-107552000D01*
X139784000Y-107552000D01*
X139784000Y-109142502D01*
X139951001Y-109269408D01*
X140042000Y-109224931D01*
X140042000Y-109338000D01*
X139904683Y-109363838D01*
X139688559Y-109502910D01*
X139543569Y-109715110D01*
X139512608Y-109868000D01*
X139328210Y-109991210D01*
X139328208Y-109991213D01*
X138693210Y-110626210D01*
X138501367Y-110913325D01*
X138494334Y-110948683D01*
X138433999Y-111252000D01*
X138434000Y-111252005D01*
X138434000Y-111585721D01*
X138242559Y-111708910D01*
X138097569Y-111921110D01*
X138046560Y-112173000D01*
X138046560Y-113673000D01*
X138090838Y-113908317D01*
X138229910Y-114124441D01*
X138298006Y-114170969D01*
X138155673Y-114313302D01*
X138059000Y-114546691D01*
X138059000Y-115137250D01*
X138217750Y-115296000D01*
X139192000Y-115296000D01*
X139192000Y-115276000D01*
X139446000Y-115276000D01*
X139446000Y-115296000D01*
X140420250Y-115296000D01*
X140579000Y-115137250D01*
X140579000Y-114546691D01*
X140482327Y-114313302D01*
X140341090Y-114172064D01*
X140395441Y-114137090D01*
X140540431Y-113924890D01*
X140591440Y-113673000D01*
X140591440Y-112173000D01*
X140547162Y-111937683D01*
X140532206Y-111914440D01*
X141023126Y-111914440D01*
X141018569Y-111921110D01*
X140967560Y-112173000D01*
X140967560Y-113673000D01*
X141011838Y-113908317D01*
X141150910Y-114124441D01*
X141219006Y-114170969D01*
X141076673Y-114313302D01*
X140980000Y-114546691D01*
X140980000Y-115137250D01*
X141138750Y-115296000D01*
X142113000Y-115296000D01*
X142113000Y-115276000D01*
X142367000Y-115276000D01*
X142367000Y-115296000D01*
X142387000Y-115296000D01*
X142387000Y-115550000D01*
X142367000Y-115550000D01*
X142367000Y-116649250D01*
X142525750Y-116808000D01*
X142991310Y-116808000D01*
X143224699Y-116711327D01*
X143403327Y-116532698D01*
X143500000Y-116299309D01*
X143500000Y-116050886D01*
X143771727Y-116708515D01*
X144652847Y-117591174D01*
X145804674Y-118069454D01*
X147051854Y-118070543D01*
X147205378Y-118007108D01*
X150450514Y-118007108D01*
X150571181Y-118237000D01*
X151765000Y-118237000D01*
X151765000Y-117043845D01*
X151535110Y-116922524D01*
X151125076Y-117092355D01*
X150696817Y-117482642D01*
X150450514Y-118007108D01*
X147205378Y-118007108D01*
X148204515Y-117594273D01*
X149087174Y-116713153D01*
X149565454Y-115561326D01*
X149566543Y-114314146D01*
X149090273Y-113161485D01*
X148209153Y-112278826D01*
X147057326Y-111800546D01*
X145810146Y-111799457D01*
X144657485Y-112275727D01*
X144471056Y-112461831D01*
X144475001Y-112442000D01*
X144475000Y-112441995D01*
X144475000Y-111889038D01*
X144575317Y-111870162D01*
X144791441Y-111731090D01*
X144936431Y-111518890D01*
X144987440Y-111267000D01*
X144987440Y-109967000D01*
X144943162Y-109731683D01*
X144804090Y-109515559D01*
X144591890Y-109370569D01*
X144340000Y-109319560D01*
X143604593Y-109319560D01*
X143882212Y-109264338D01*
X144102000Y-109117480D01*
X144321788Y-109264338D01*
X144737000Y-109346929D01*
X145152212Y-109264338D01*
X145372000Y-109117480D01*
X145591788Y-109264338D01*
X146007000Y-109346929D01*
X146422212Y-109264338D01*
X146642000Y-109117480D01*
X146861788Y-109264338D01*
X147277000Y-109346929D01*
X147692212Y-109264338D01*
X147912000Y-109117480D01*
X148131788Y-109264338D01*
X148547000Y-109346929D01*
X148962212Y-109264338D01*
X149182000Y-109117480D01*
X149401788Y-109264338D01*
X149817000Y-109346929D01*
X150232212Y-109264338D01*
X150452000Y-109117480D01*
X150671788Y-109264338D01*
X151087000Y-109346929D01*
X151502212Y-109264338D01*
X151722000Y-109117480D01*
X151941788Y-109264338D01*
X152357000Y-109346929D01*
X152772212Y-109264338D01*
X152992000Y-109117480D01*
X153211788Y-109264338D01*
X153627000Y-109346929D01*
X154012000Y-109270348D01*
X154012000Y-109404421D01*
X152879860Y-110536560D01*
X152512000Y-110536560D01*
X152276683Y-110580838D01*
X152060559Y-110719910D01*
X151915569Y-110932110D01*
X151864560Y-111184000D01*
X151864560Y-112684000D01*
X151908838Y-112919317D01*
X152047910Y-113135441D01*
X152260110Y-113280431D01*
X152273197Y-113283081D01*
X152060559Y-113419910D01*
X151915569Y-113632110D01*
X151864560Y-113884000D01*
X151864560Y-115384000D01*
X151908838Y-115619317D01*
X152047910Y-115835441D01*
X152260110Y-115980431D01*
X152310131Y-115990560D01*
X152333190Y-116106484D01*
X152344367Y-116162675D01*
X152494678Y-116387633D01*
X152536210Y-116449790D01*
X153377671Y-117291251D01*
X153154298Y-117625553D01*
X153087183Y-117482642D01*
X152658924Y-117092355D01*
X152248890Y-116922524D01*
X152019000Y-117043845D01*
X152019000Y-118237000D01*
X152039000Y-118237000D01*
X152039000Y-118491000D01*
X152019000Y-118491000D01*
X152019000Y-119684155D01*
X152248890Y-119805476D01*
X152658924Y-119635645D01*
X153087183Y-119245358D01*
X153154298Y-119102447D01*
X153381946Y-119443147D01*
X153863715Y-119765054D01*
X154432000Y-119878093D01*
X155000285Y-119765054D01*
X155482054Y-119443147D01*
X155702000Y-119113974D01*
X155921946Y-119443147D01*
X156403715Y-119765054D01*
X156972000Y-119878093D01*
X157540285Y-119765054D01*
X158022054Y-119443147D01*
X158242000Y-119113974D01*
X158461946Y-119443147D01*
X158943715Y-119765054D01*
X159512000Y-119878093D01*
X160080285Y-119765054D01*
X160562054Y-119443147D01*
X160589850Y-119401548D01*
X160598838Y-119449317D01*
X160737910Y-119665441D01*
X160950110Y-119810431D01*
X161202000Y-119861440D01*
X162902000Y-119861440D01*
X163137317Y-119817162D01*
X163353441Y-119678090D01*
X163498431Y-119465890D01*
X163549440Y-119214000D01*
X163549440Y-117514000D01*
X163505162Y-117278683D01*
X163366090Y-117062559D01*
X163153890Y-116917569D01*
X162937000Y-116873648D01*
X162937000Y-116840005D01*
X162937001Y-116840000D01*
X162869633Y-116501325D01*
X162838680Y-116455000D01*
X162677790Y-116214210D01*
X162677787Y-116214208D01*
X162040394Y-115576815D01*
X162079440Y-115384000D01*
X162079440Y-113884000D01*
X162035162Y-113648683D01*
X161896090Y-113432559D01*
X161683890Y-113287569D01*
X161670803Y-113284919D01*
X161883441Y-113148090D01*
X162028431Y-112935890D01*
X162079440Y-112684000D01*
X162079440Y-111184000D01*
X162035162Y-110948683D01*
X161896090Y-110732559D01*
X161683890Y-110587569D01*
X161667000Y-110584149D01*
X161667000Y-105094551D01*
X161845822Y-105362178D01*
X162173490Y-105581118D01*
X162560000Y-105658000D01*
X162946510Y-105581118D01*
X163274178Y-105362178D01*
X163361094Y-105232099D01*
X163461140Y-105381828D01*
X163883439Y-105664000D01*
X163461140Y-105946172D01*
X163158308Y-106399391D01*
X163051968Y-106934000D01*
X163158308Y-107468609D01*
X163461140Y-107921828D01*
X163883439Y-108204000D01*
X163461140Y-108486172D01*
X163158308Y-108939391D01*
X163051968Y-109474000D01*
X163158308Y-110008609D01*
X163461140Y-110461828D01*
X163883439Y-110744000D01*
X163461140Y-111026172D01*
X163158308Y-111479391D01*
X163051968Y-112014000D01*
X163158308Y-112548609D01*
X163461140Y-113001828D01*
X163883439Y-113284000D01*
X163461140Y-113566172D01*
X163158308Y-114019391D01*
X163051968Y-114554000D01*
X163158308Y-115088609D01*
X163461140Y-115541828D01*
X163914359Y-115844660D01*
X164448968Y-115951000D01*
X164989032Y-115951000D01*
X165523641Y-115844660D01*
X165976860Y-115541828D01*
X166000650Y-115506224D01*
X166383086Y-115807422D01*
X166911308Y-115956130D01*
X167132000Y-115797277D01*
X167132000Y-114681000D01*
X167386000Y-114681000D01*
X167386000Y-115797277D01*
X167606692Y-115956130D01*
X168134914Y-115807422D01*
X168566020Y-115467892D01*
X168834377Y-114989230D01*
X168851220Y-114897070D01*
X168728720Y-114681000D01*
X167386000Y-114681000D01*
X167132000Y-114681000D01*
X167112000Y-114681000D01*
X167112000Y-114427000D01*
X167132000Y-114427000D01*
X167132000Y-113310723D01*
X167094874Y-113284000D01*
X167132000Y-113257277D01*
X167132000Y-112141000D01*
X167386000Y-112141000D01*
X167386000Y-113257277D01*
X167423126Y-113284000D01*
X167386000Y-113310723D01*
X167386000Y-114427000D01*
X168728720Y-114427000D01*
X168851220Y-114210930D01*
X168834377Y-114118770D01*
X168566020Y-113640108D01*
X168134914Y-113300578D01*
X168076028Y-113284000D01*
X168134914Y-113267422D01*
X168566020Y-112927892D01*
X168834377Y-112449230D01*
X168851220Y-112357070D01*
X168728720Y-112141000D01*
X167386000Y-112141000D01*
X167132000Y-112141000D01*
X167112000Y-112141000D01*
X167112000Y-111887000D01*
X167132000Y-111887000D01*
X167132000Y-111867000D01*
X167386000Y-111867000D01*
X167386000Y-111887000D01*
X168728720Y-111887000D01*
X168851220Y-111670930D01*
X168834377Y-111578770D01*
X168566020Y-111100108D01*
X168134914Y-110760578D01*
X168089067Y-110747671D01*
X168516860Y-110461828D01*
X168819692Y-110008609D01*
X168926032Y-109474000D01*
X168819692Y-108939391D01*
X168516860Y-108486172D01*
X168094561Y-108204000D01*
X168516860Y-107921828D01*
X168819692Y-107468609D01*
X168926032Y-106934000D01*
X168819692Y-106399391D01*
X168516860Y-105946172D01*
X168089067Y-105660329D01*
X168134914Y-105647422D01*
X168566020Y-105307892D01*
X168834377Y-104829230D01*
X168851220Y-104737070D01*
X168728720Y-104521000D01*
X167386000Y-104521000D01*
X167386000Y-104541000D01*
X167132000Y-104541000D01*
X167132000Y-104521000D01*
X167112000Y-104521000D01*
X167112000Y-104267000D01*
X167132000Y-104267000D01*
X167132000Y-103150723D01*
X167094874Y-103124000D01*
X167132000Y-103097277D01*
X167132000Y-101981000D01*
X167386000Y-101981000D01*
X167386000Y-103097277D01*
X167423126Y-103124000D01*
X167386000Y-103150723D01*
X167386000Y-104267000D01*
X168728720Y-104267000D01*
X168851220Y-104050930D01*
X168834377Y-103958770D01*
X168566020Y-103480108D01*
X168134914Y-103140578D01*
X168076028Y-103124000D01*
X168134914Y-103107422D01*
X168566020Y-102767892D01*
X168834377Y-102289230D01*
X168851220Y-102197070D01*
X168728720Y-101981000D01*
X167386000Y-101981000D01*
X167132000Y-101981000D01*
X167112000Y-101981000D01*
X167112000Y-101727000D01*
X167132000Y-101727000D01*
X167132000Y-100610723D01*
X167094874Y-100584000D01*
X167132000Y-100557277D01*
X167132000Y-99441000D01*
X167386000Y-99441000D01*
X167386000Y-100557277D01*
X167423126Y-100584000D01*
X167386000Y-100610723D01*
X167386000Y-101727000D01*
X168728720Y-101727000D01*
X168851220Y-101510930D01*
X168834377Y-101418770D01*
X168566020Y-100940108D01*
X168134914Y-100600578D01*
X168076028Y-100584000D01*
X168134914Y-100567422D01*
X168566020Y-100227892D01*
X168834377Y-99749230D01*
X168851220Y-99657070D01*
X168728720Y-99441000D01*
X167386000Y-99441000D01*
X167132000Y-99441000D01*
X167112000Y-99441000D01*
X167112000Y-99187000D01*
X167132000Y-99187000D01*
X167132000Y-98070723D01*
X167094874Y-98044000D01*
X167132000Y-98017277D01*
X167132000Y-96901000D01*
X167386000Y-96901000D01*
X167386000Y-98017277D01*
X167423126Y-98044000D01*
X167386000Y-98070723D01*
X167386000Y-99187000D01*
X168728720Y-99187000D01*
X168851220Y-98970930D01*
X168834377Y-98878770D01*
X168566020Y-98400108D01*
X168134914Y-98060578D01*
X168076028Y-98044000D01*
X168134914Y-98027422D01*
X168566020Y-97687892D01*
X168834377Y-97209230D01*
X168851220Y-97117070D01*
X168728720Y-96901000D01*
X167386000Y-96901000D01*
X167132000Y-96901000D01*
X167112000Y-96901000D01*
X167112000Y-96647000D01*
X167132000Y-96647000D01*
X167132000Y-95530723D01*
X167094874Y-95504000D01*
X167132000Y-95477277D01*
X167132000Y-94361000D01*
X167386000Y-94361000D01*
X167386000Y-95477277D01*
X167423126Y-95504000D01*
X167386000Y-95530723D01*
X167386000Y-96647000D01*
X168728720Y-96647000D01*
X168851220Y-96430930D01*
X168834377Y-96338770D01*
X168566020Y-95860108D01*
X168134914Y-95520578D01*
X168076028Y-95504000D01*
X168134914Y-95487422D01*
X168566020Y-95147892D01*
X168834377Y-94669230D01*
X168851220Y-94577070D01*
X168728720Y-94361000D01*
X167386000Y-94361000D01*
X167132000Y-94361000D01*
X167112000Y-94361000D01*
X167112000Y-94107000D01*
X167132000Y-94107000D01*
X167132000Y-92990723D01*
X167094874Y-92964000D01*
X167132000Y-92937277D01*
X167132000Y-91821000D01*
X167386000Y-91821000D01*
X167386000Y-92937277D01*
X167423126Y-92964000D01*
X167386000Y-92990723D01*
X167386000Y-94107000D01*
X168728720Y-94107000D01*
X168851220Y-93890930D01*
X168834377Y-93798770D01*
X168566020Y-93320108D01*
X168134914Y-92980578D01*
X168076028Y-92964000D01*
X168134914Y-92947422D01*
X168566020Y-92607892D01*
X168834377Y-92129230D01*
X168851220Y-92037070D01*
X168728720Y-91821000D01*
X167386000Y-91821000D01*
X167132000Y-91821000D01*
X167112000Y-91821000D01*
X167112000Y-91567000D01*
X167132000Y-91567000D01*
X167132000Y-90450723D01*
X167094874Y-90424000D01*
X167132000Y-90397277D01*
X167132000Y-89281000D01*
X167386000Y-89281000D01*
X167386000Y-90397277D01*
X167423126Y-90424000D01*
X167386000Y-90450723D01*
X167386000Y-91567000D01*
X168728720Y-91567000D01*
X168851220Y-91350930D01*
X168834377Y-91258770D01*
X168566020Y-90780108D01*
X168134914Y-90440578D01*
X168076028Y-90424000D01*
X168134914Y-90407422D01*
X168566020Y-90067892D01*
X168834377Y-89589230D01*
X168851220Y-89497070D01*
X168728720Y-89281000D01*
X167386000Y-89281000D01*
X167132000Y-89281000D01*
X167112000Y-89281000D01*
X167112000Y-89027000D01*
X167132000Y-89027000D01*
X167132000Y-89007000D01*
X167386000Y-89007000D01*
X167386000Y-89027000D01*
X168728720Y-89027000D01*
X168851220Y-88810930D01*
X168834377Y-88718770D01*
X168566020Y-88240108D01*
X168134914Y-87900578D01*
X168089067Y-87887671D01*
X168516860Y-87601828D01*
X168819692Y-87148609D01*
X168926032Y-86614000D01*
X168819692Y-86079391D01*
X168516860Y-85626172D01*
X168094561Y-85344000D01*
X168516860Y-85061828D01*
X168819692Y-84608609D01*
X168926032Y-84074000D01*
X168819692Y-83539391D01*
X168516860Y-83086172D01*
X168094561Y-82804000D01*
X168516860Y-82521828D01*
X168819692Y-82068609D01*
X168926032Y-81534000D01*
X168819692Y-80999391D01*
X168516860Y-80546172D01*
X168094561Y-80264000D01*
X168516860Y-79981828D01*
X168819692Y-79528609D01*
X168926032Y-78994000D01*
X168819692Y-78459391D01*
X168516860Y-78006172D01*
X168094561Y-77724000D01*
X168516860Y-77441828D01*
X168819692Y-76988609D01*
X168926032Y-76454000D01*
X168819692Y-75919391D01*
X168516860Y-75466172D01*
X168094561Y-75184000D01*
X168516860Y-74901828D01*
X168819692Y-74448609D01*
X168926032Y-73914000D01*
X168819692Y-73379391D01*
X168516860Y-72926172D01*
X168094561Y-72644000D01*
X168516860Y-72361828D01*
X168819692Y-71908609D01*
X168926032Y-71374000D01*
X168819692Y-70839391D01*
X168516860Y-70386172D01*
X168089067Y-70100329D01*
X168134914Y-70087422D01*
X168566020Y-69747892D01*
X168834377Y-69269230D01*
X168851220Y-69177070D01*
X168728720Y-68961000D01*
X167386000Y-68961000D01*
X167386000Y-68981000D01*
X167132000Y-68981000D01*
X167132000Y-68961000D01*
X167112000Y-68961000D01*
X167112000Y-68707000D01*
X167132000Y-68707000D01*
X167132000Y-68687000D01*
X167386000Y-68687000D01*
X167386000Y-68707000D01*
X168728720Y-68707000D01*
X168851220Y-68490930D01*
X168834377Y-68398770D01*
X168566020Y-67920108D01*
X168134914Y-67580578D01*
X168089067Y-67567671D01*
X168516860Y-67281828D01*
X168819692Y-66828609D01*
X168926032Y-66294000D01*
X168819692Y-65759391D01*
X168516860Y-65306172D01*
X168063641Y-65003340D01*
X167529032Y-64897000D01*
X166988968Y-64897000D01*
X166454359Y-65003340D01*
X166229907Y-65153314D01*
X166183090Y-65080559D01*
X165970890Y-64935569D01*
X165719000Y-64884560D01*
X163719000Y-64884560D01*
X163483683Y-64928838D01*
X163267559Y-65067910D01*
X163122569Y-65280110D01*
X163071560Y-65532000D01*
X163071560Y-67056000D01*
X163115838Y-67291317D01*
X163254910Y-67507441D01*
X163467110Y-67652431D01*
X163685044Y-67696564D01*
X163461140Y-67846172D01*
X163158308Y-68299391D01*
X163051968Y-68834000D01*
X163158308Y-69368609D01*
X163461140Y-69821828D01*
X163883439Y-70104000D01*
X163461140Y-70386172D01*
X163158308Y-70839391D01*
X163051968Y-71374000D01*
X163158308Y-71908609D01*
X163461140Y-72361828D01*
X163883439Y-72644000D01*
X163461140Y-72926172D01*
X163158308Y-73379391D01*
X163051968Y-73914000D01*
X163158308Y-74448609D01*
X163461140Y-74901828D01*
X163883439Y-75184000D01*
X163461140Y-75466172D01*
X163158308Y-75919391D01*
X163051968Y-76454000D01*
X163158308Y-76988609D01*
X163461140Y-77441828D01*
X163883439Y-77724000D01*
X163461140Y-78006172D01*
X163158308Y-78459391D01*
X163051968Y-78994000D01*
X163158308Y-79528609D01*
X163461140Y-79981828D01*
X163883439Y-80264000D01*
X163461140Y-80546172D01*
X163158308Y-80999391D01*
X163051968Y-81534000D01*
X163158308Y-82068609D01*
X163461140Y-82521828D01*
X163883439Y-82804000D01*
X163562175Y-83018662D01*
X163493118Y-82671490D01*
X163274178Y-82343822D01*
X162004178Y-81073822D01*
X161676510Y-80854882D01*
X161290000Y-80778000D01*
X160933926Y-80778000D01*
X160929162Y-80752683D01*
X160790090Y-80536559D01*
X160577890Y-80391569D01*
X160326000Y-80340560D01*
X160036000Y-80340560D01*
X160036000Y-78254000D01*
X159959118Y-77867490D01*
X159740178Y-77539822D01*
X159718178Y-77517822D01*
X159390510Y-77298882D01*
X159131078Y-77247278D01*
X159740178Y-76638178D01*
X159914397Y-76377440D01*
X160326000Y-76377440D01*
X160561317Y-76333162D01*
X160777441Y-76194090D01*
X160922431Y-75981890D01*
X160973440Y-75730000D01*
X160973440Y-74130000D01*
X160929162Y-73894683D01*
X160790090Y-73678559D01*
X160577890Y-73533569D01*
X160326000Y-73482560D01*
X160036000Y-73482560D01*
X160036000Y-72659356D01*
X160113178Y-72582178D01*
X160332118Y-72254510D01*
X160409000Y-71868000D01*
X160409000Y-70650279D01*
X160600441Y-70527090D01*
X160745431Y-70314890D01*
X160796440Y-70063000D01*
X160796440Y-68063000D01*
X160752162Y-67827683D01*
X160613090Y-67611559D01*
X160400890Y-67466569D01*
X160149000Y-67415560D01*
X158649000Y-67415560D01*
X158413683Y-67459838D01*
X158247523Y-67566759D01*
X158109000Y-67472110D01*
X158109000Y-64410440D01*
X158999000Y-64410440D01*
X159234317Y-64366162D01*
X159450441Y-64227090D01*
X159595431Y-64014890D01*
X159646440Y-63763000D01*
X159646440Y-61763000D01*
X159602162Y-61527683D01*
X159463090Y-61311559D01*
X159250890Y-61166569D01*
X158999000Y-61115560D01*
X155199000Y-61115560D01*
X154963683Y-61159838D01*
X154747559Y-61298910D01*
X154602569Y-61511110D01*
X154551560Y-61763000D01*
X154551560Y-63763000D01*
X154595838Y-63998317D01*
X154734910Y-64214441D01*
X154947110Y-64359431D01*
X155199000Y-64410440D01*
X156089000Y-64410440D01*
X156089000Y-67475721D01*
X155949508Y-67565482D01*
X155908699Y-67524673D01*
X155675310Y-67428000D01*
X155084750Y-67428000D01*
X154926000Y-67586750D01*
X154926000Y-68936000D01*
X154946000Y-68936000D01*
X154946000Y-69190000D01*
X154926000Y-69190000D01*
X154926000Y-70539250D01*
X155084750Y-70698000D01*
X155675310Y-70698000D01*
X155908699Y-70601327D01*
X155950660Y-70559366D01*
X156097110Y-70659431D01*
X156349000Y-70710440D01*
X157849000Y-70710440D01*
X158084317Y-70666162D01*
X158250477Y-70559241D01*
X158389000Y-70653890D01*
X158389000Y-71449644D01*
X158311822Y-71526822D01*
X158092882Y-71854490D01*
X158016000Y-72241000D01*
X158016000Y-73482560D01*
X157726000Y-73482560D01*
X157490683Y-73526838D01*
X157274559Y-73665910D01*
X157228031Y-73734006D01*
X157085698Y-73591673D01*
X156852309Y-73495000D01*
X155711750Y-73495000D01*
X155553000Y-73653750D01*
X155553000Y-74803000D01*
X155573000Y-74803000D01*
X155573000Y-75057000D01*
X155553000Y-75057000D01*
X155553000Y-75077000D01*
X155299000Y-75077000D01*
X155299000Y-75057000D01*
X153649750Y-75057000D01*
X153491000Y-75215750D01*
X153491000Y-75652172D01*
X153294510Y-75520882D01*
X152908000Y-75444000D01*
X149606000Y-75444000D01*
X149219490Y-75520882D01*
X148891822Y-75739822D01*
X147621822Y-77009822D01*
X147402882Y-77337490D01*
X147326000Y-77724000D01*
X147326000Y-79845644D01*
X146762779Y-80408865D01*
X146545974Y-80264000D01*
X146875147Y-80044054D01*
X147197054Y-79562285D01*
X147310093Y-78994000D01*
X147197054Y-78425715D01*
X146875147Y-77943946D01*
X146806000Y-77897744D01*
X146806000Y-76454000D01*
X146729118Y-76067490D01*
X146510178Y-75739822D01*
X145419796Y-74649440D01*
X146646000Y-74649440D01*
X146881317Y-74605162D01*
X147097441Y-74466090D01*
X147242431Y-74253890D01*
X147293097Y-74003690D01*
X153491000Y-74003690D01*
X153491000Y-74644250D01*
X153649750Y-74803000D01*
X155299000Y-74803000D01*
X155299000Y-73653750D01*
X155140250Y-73495000D01*
X153999691Y-73495000D01*
X153766302Y-73591673D01*
X153587673Y-73770301D01*
X153491000Y-74003690D01*
X147293097Y-74003690D01*
X147293440Y-74002000D01*
X147293440Y-72302000D01*
X147249162Y-72066683D01*
X147110090Y-71850559D01*
X146897890Y-71705569D01*
X146841546Y-71694159D01*
X146846054Y-71691147D01*
X147167961Y-71209378D01*
X147281000Y-70641093D01*
X147281000Y-70582907D01*
X147167961Y-70014622D01*
X146846054Y-69532853D01*
X146570524Y-69348750D01*
X153414000Y-69348750D01*
X153414000Y-70189309D01*
X153510673Y-70422698D01*
X153689301Y-70601327D01*
X153922690Y-70698000D01*
X154513250Y-70698000D01*
X154672000Y-70539250D01*
X154672000Y-69190000D01*
X153572750Y-69190000D01*
X153414000Y-69348750D01*
X146570524Y-69348750D01*
X146364285Y-69210946D01*
X145796000Y-69097907D01*
X145227715Y-69210946D01*
X144745946Y-69532853D01*
X144526000Y-69862026D01*
X144306054Y-69532853D01*
X143824285Y-69210946D01*
X143256000Y-69097907D01*
X142687715Y-69210946D01*
X142205946Y-69532853D01*
X141986000Y-69862026D01*
X141766054Y-69532853D01*
X141284285Y-69210946D01*
X140716000Y-69097907D01*
X140147715Y-69210946D01*
X139665946Y-69532853D01*
X139446000Y-69862026D01*
X139226054Y-69532853D01*
X138744285Y-69210946D01*
X138176000Y-69097907D01*
X137607715Y-69210946D01*
X137125946Y-69532853D01*
X136898298Y-69873553D01*
X136831183Y-69730642D01*
X136402924Y-69340355D01*
X135992890Y-69170524D01*
X135763000Y-69291845D01*
X135763000Y-70485000D01*
X135783000Y-70485000D01*
X135783000Y-70739000D01*
X135763000Y-70739000D01*
X135763000Y-70759000D01*
X135509000Y-70759000D01*
X135509000Y-70739000D01*
X134315181Y-70739000D01*
X134194514Y-70968892D01*
X134440817Y-71493358D01*
X134869076Y-71883645D01*
X134869101Y-71883655D01*
X134585946Y-72072853D01*
X134264039Y-72554622D01*
X134151000Y-73122907D01*
X133044000Y-73122907D01*
X133044000Y-70255108D01*
X134194514Y-70255108D01*
X134315181Y-70485000D01*
X135509000Y-70485000D01*
X135509000Y-69291845D01*
X135279110Y-69170524D01*
X134869076Y-69340355D01*
X134440817Y-69730642D01*
X134194514Y-70255108D01*
X133044000Y-70255108D01*
X133044000Y-67936691D01*
X153414000Y-67936691D01*
X153414000Y-68777250D01*
X153572750Y-68936000D01*
X154672000Y-68936000D01*
X154672000Y-67586750D01*
X154513250Y-67428000D01*
X153922690Y-67428000D01*
X153689301Y-67524673D01*
X153510673Y-67703302D01*
X153414000Y-67936691D01*
X133044000Y-67936691D01*
X133044000Y-60654000D01*
X172264000Y-60654000D01*
X172264000Y-70495380D01*
X172264000Y-70495380D01*
G37*
X172264000Y-70495380D02*
X169507000Y-70495380D01*
X169507000Y-110860619D01*
X172264000Y-110860619D01*
X172264000Y-120194000D01*
X133044000Y-120194000D01*
X133044000Y-118720892D01*
X150450514Y-118720892D01*
X150696817Y-119245358D01*
X151125076Y-119635645D01*
X151535110Y-119805476D01*
X151765000Y-119684155D01*
X151765000Y-118491000D01*
X150571181Y-118491000D01*
X150450514Y-118720892D01*
X133044000Y-118720892D01*
X133044000Y-117412236D01*
X133095847Y-117464174D01*
X134247674Y-117942454D01*
X135494854Y-117943543D01*
X136647515Y-117467273D01*
X137530174Y-116586153D01*
X137894503Y-115708750D01*
X138059000Y-115708750D01*
X138059000Y-116299309D01*
X138155673Y-116532698D01*
X138334301Y-116711327D01*
X138567690Y-116808000D01*
X139033250Y-116808000D01*
X139192000Y-116649250D01*
X139192000Y-115550000D01*
X139446000Y-115550000D01*
X139446000Y-116649250D01*
X139604750Y-116808000D01*
X140070310Y-116808000D01*
X140303699Y-116711327D01*
X140482327Y-116532698D01*
X140579000Y-116299309D01*
X140579000Y-115708750D01*
X140980000Y-115708750D01*
X140980000Y-116299309D01*
X141076673Y-116532698D01*
X141255301Y-116711327D01*
X141488690Y-116808000D01*
X141954250Y-116808000D01*
X142113000Y-116649250D01*
X142113000Y-115550000D01*
X141138750Y-115550000D01*
X140980000Y-115708750D01*
X140579000Y-115708750D01*
X140420250Y-115550000D01*
X139446000Y-115550000D01*
X139192000Y-115550000D01*
X138217750Y-115550000D01*
X138059000Y-115708750D01*
X137894503Y-115708750D01*
X138008454Y-115434326D01*
X138009543Y-114187146D01*
X137533273Y-113034485D01*
X136652153Y-112151826D01*
X135500326Y-111673546D01*
X134253146Y-111672457D01*
X133100485Y-112148727D01*
X133044000Y-112205114D01*
X133044000Y-108077000D01*
X138557000Y-108077000D01*
X138572000Y-108074178D01*
X138572000Y-108352000D01*
X138703192Y-108757544D01*
X138979592Y-109082013D01*
X139362999Y-109269408D01*
X139530000Y-109142502D01*
X139530000Y-107552000D01*
X139510000Y-107552000D01*
X139510000Y-107298000D01*
X139530000Y-107298000D01*
X139530000Y-105707498D01*
X139362999Y-105580592D01*
X138979592Y-105767987D01*
X138703192Y-106092456D01*
X138684000Y-106151783D01*
X138684000Y-99010750D01*
X143722000Y-99010750D01*
X143722000Y-101851309D01*
X143818673Y-102084698D01*
X143997301Y-102263327D01*
X144230690Y-102360000D01*
X147071250Y-102360000D01*
X147230000Y-102201250D01*
X147230000Y-98852000D01*
X147484000Y-98852000D01*
X147484000Y-102201250D01*
X147642750Y-102360000D01*
X150483310Y-102360000D01*
X150716699Y-102263327D01*
X150895327Y-102084698D01*
X150992000Y-101851309D01*
X150992000Y-99010750D01*
X150833250Y-98852000D01*
X147484000Y-98852000D01*
X147230000Y-98852000D01*
X143880750Y-98852000D01*
X143722000Y-99010750D01*
X138684000Y-99010750D01*
X138684000Y-95598691D01*
X143722000Y-95598691D01*
X143722000Y-98439250D01*
X143880750Y-98598000D01*
X147230000Y-98598000D01*
X147230000Y-95248750D01*
X147484000Y-95248750D01*
X147484000Y-98598000D01*
X150833250Y-98598000D01*
X150992000Y-98439250D01*
X150992000Y-95598691D01*
X150895327Y-95365302D01*
X150716699Y-95186673D01*
X150483310Y-95090000D01*
X147642750Y-95090000D01*
X147484000Y-95248750D01*
X147230000Y-95248750D01*
X147071250Y-95090000D01*
X144230690Y-95090000D01*
X143997301Y-95186673D01*
X143818673Y-95365302D01*
X143722000Y-95598691D01*
X138684000Y-95598691D01*
X138684000Y-90698217D01*
X138703192Y-90757544D01*
X138979592Y-91082013D01*
X139362999Y-91269408D01*
X139530000Y-91142502D01*
X139530000Y-89552000D01*
X139510000Y-89552000D01*
X139510000Y-89298000D01*
X139530000Y-89298000D01*
X139530000Y-87707498D01*
X139362999Y-87580592D01*
X138979592Y-87767987D01*
X138703192Y-88092456D01*
X138572000Y-88498000D01*
X138572000Y-88776038D01*
X138557000Y-88773000D01*
X133044000Y-88773000D01*
X133044000Y-78994000D01*
X134121907Y-78994000D01*
X134234946Y-79562285D01*
X134556853Y-80044054D01*
X134886026Y-80264000D01*
X134556853Y-80483946D01*
X134234946Y-80965715D01*
X134121907Y-81534000D01*
X134234946Y-82102285D01*
X134556853Y-82584054D01*
X134598452Y-82611850D01*
X134550683Y-82620838D01*
X134334559Y-82759910D01*
X134189569Y-82972110D01*
X134138560Y-83224000D01*
X134138560Y-84924000D01*
X134182838Y-85159317D01*
X134321910Y-85375441D01*
X134534110Y-85520431D01*
X134786000Y-85571440D01*
X136486000Y-85571440D01*
X136721317Y-85527162D01*
X136937441Y-85388090D01*
X137082431Y-85175890D01*
X137133440Y-84924000D01*
X137133440Y-83224000D01*
X137089162Y-82988683D01*
X136950090Y-82772559D01*
X136737890Y-82627569D01*
X136670459Y-82613914D01*
X136715147Y-82584054D01*
X137037054Y-82102285D01*
X137150093Y-81534000D01*
X137037054Y-80965715D01*
X136715147Y-80483946D01*
X136385974Y-80264000D01*
X136715147Y-80044054D01*
X137037054Y-79562285D01*
X137150093Y-78994000D01*
X137037054Y-78425715D01*
X136715147Y-77943946D01*
X136233378Y-77622039D01*
X135665093Y-77509000D01*
X135606907Y-77509000D01*
X135038622Y-77622039D01*
X134556853Y-77943946D01*
X134234946Y-78425715D01*
X134121907Y-78994000D01*
X133044000Y-78994000D01*
X133044000Y-73122907D01*
X134151000Y-73122907D01*
X134151000Y-73181093D01*
X134264039Y-73749378D01*
X134585946Y-74231147D01*
X134646626Y-74271692D01*
X134702882Y-74554510D01*
X134921822Y-74882178D01*
X135937822Y-75898178D01*
X136265490Y-76117118D01*
X136652000Y-76194000D01*
X144107644Y-76194000D01*
X144786000Y-76872356D01*
X144786000Y-77897744D01*
X144716853Y-77943946D01*
X144394946Y-78425715D01*
X144281907Y-78994000D01*
X144394946Y-79562285D01*
X144716853Y-80044054D01*
X145046026Y-80264000D01*
X144716853Y-80483946D01*
X144394946Y-80965715D01*
X144281907Y-81534000D01*
X144394946Y-82102285D01*
X144716853Y-82584054D01*
X144758452Y-82611850D01*
X144710683Y-82620838D01*
X144494559Y-82759910D01*
X144352000Y-82968552D01*
X144352000Y-82507005D01*
X144352001Y-82507000D01*
X144284633Y-82168326D01*
X144284633Y-82168325D01*
X144092790Y-81881210D01*
X144092787Y-81881208D01*
X143119790Y-80908210D01*
X143050167Y-80861690D01*
X142832675Y-80716367D01*
X142776484Y-80705190D01*
X142494000Y-80648999D01*
X142493995Y-80649000D01*
X141905432Y-80649000D01*
X141795147Y-80483946D01*
X141465974Y-80264000D01*
X141795147Y-80044054D01*
X142117054Y-79562285D01*
X142230093Y-78994000D01*
X142117054Y-78425715D01*
X141795147Y-77943946D01*
X141313378Y-77622039D01*
X140745093Y-77509000D01*
X140686907Y-77509000D01*
X140118622Y-77622039D01*
X139636853Y-77943946D01*
X139314946Y-78425715D01*
X139201907Y-78994000D01*
X139314946Y-79562285D01*
X139636853Y-80044054D01*
X139966026Y-80264000D01*
X139636853Y-80483946D01*
X139314946Y-80965715D01*
X139201907Y-81534000D01*
X139314946Y-82102285D01*
X139636853Y-82584054D01*
X139678452Y-82611850D01*
X139630683Y-82620838D01*
X139414559Y-82759910D01*
X139269569Y-82972110D01*
X139218560Y-83224000D01*
X139218560Y-84924000D01*
X139262838Y-85159317D01*
X139401910Y-85375441D01*
X139614110Y-85520431D01*
X139866000Y-85571440D01*
X141566000Y-85571440D01*
X141801317Y-85527162D01*
X142017441Y-85388090D01*
X142162431Y-85175890D01*
X142213440Y-84924000D01*
X142213440Y-83224000D01*
X142169162Y-82988683D01*
X142030090Y-82772559D01*
X141817890Y-82627569D01*
X141750459Y-82613914D01*
X141795147Y-82584054D01*
X141905432Y-82419000D01*
X142127420Y-82419000D01*
X142582000Y-82873579D01*
X142582000Y-87579652D01*
X142197000Y-87503071D01*
X141781788Y-87585662D01*
X141562000Y-87732520D01*
X141342212Y-87585662D01*
X140927000Y-87503071D01*
X140511788Y-87585662D01*
X140279259Y-87741032D01*
X139951001Y-87580592D01*
X139784000Y-87707498D01*
X139784000Y-89298000D01*
X139804000Y-89298000D01*
X139804000Y-89552000D01*
X139784000Y-89552000D01*
X139784000Y-91142502D01*
X139951001Y-91269408D01*
X140279259Y-91108968D01*
X140511788Y-91264338D01*
X140927000Y-91346929D01*
X141342212Y-91264338D01*
X141562000Y-91117480D01*
X141781788Y-91264338D01*
X142197000Y-91346929D01*
X142612212Y-91264338D01*
X142832000Y-91117480D01*
X143051788Y-91264338D01*
X143467000Y-91346929D01*
X143882212Y-91264338D01*
X144102000Y-91117480D01*
X144321788Y-91264338D01*
X144737000Y-91346929D01*
X145152212Y-91264338D01*
X145372000Y-91117480D01*
X145591788Y-91264338D01*
X146007000Y-91346929D01*
X146422212Y-91264338D01*
X146642000Y-91117480D01*
X146861788Y-91264338D01*
X147277000Y-91346929D01*
X147692212Y-91264338D01*
X147912000Y-91117480D01*
X148131788Y-91264338D01*
X148547000Y-91346929D01*
X148962212Y-91264338D01*
X149182000Y-91117480D01*
X149401788Y-91264338D01*
X149817000Y-91346929D01*
X150232212Y-91264338D01*
X150452000Y-91117480D01*
X150671788Y-91264338D01*
X151087000Y-91346929D01*
X151502212Y-91264338D01*
X151722000Y-91117480D01*
X151941788Y-91264338D01*
X152357000Y-91346929D01*
X152772212Y-91264338D01*
X152992000Y-91117480D01*
X153211788Y-91264338D01*
X153627000Y-91346929D01*
X154042212Y-91264338D01*
X154262000Y-91117480D01*
X154481788Y-91264338D01*
X154897000Y-91346929D01*
X155312212Y-91264338D01*
X155532000Y-91117480D01*
X155751788Y-91264338D01*
X156167000Y-91346929D01*
X156582212Y-91264338D01*
X156934211Y-91029140D01*
X157169409Y-90677141D01*
X157252000Y-90261929D01*
X157252000Y-88588071D01*
X157169409Y-88172859D01*
X157052000Y-87997144D01*
X157052000Y-87333005D01*
X157052001Y-87333000D01*
X156984634Y-86994326D01*
X156814917Y-86740326D01*
X156792790Y-86707210D01*
X156792787Y-86707208D01*
X156073790Y-85988210D01*
X155990919Y-85932838D01*
X155786675Y-85796367D01*
X155730484Y-85785190D01*
X155448000Y-85728999D01*
X155447995Y-85729000D01*
X152004579Y-85729000D01*
X151761000Y-85485420D01*
X151761000Y-83024854D01*
X151961317Y-82987162D01*
X152177441Y-82848090D01*
X152322431Y-82635890D01*
X152373440Y-82384000D01*
X152373440Y-82073750D01*
X153491000Y-82073750D01*
X153491000Y-82714310D01*
X153587673Y-82947699D01*
X153766302Y-83126327D01*
X153999691Y-83223000D01*
X155140250Y-83223000D01*
X155299000Y-83064250D01*
X155299000Y-81915000D01*
X153649750Y-81915000D01*
X153491000Y-82073750D01*
X152373440Y-82073750D01*
X152373440Y-80861690D01*
X153491000Y-80861690D01*
X153491000Y-81502250D01*
X153649750Y-81661000D01*
X155299000Y-81661000D01*
X155299000Y-80511750D01*
X155140250Y-80353000D01*
X153999691Y-80353000D01*
X153766302Y-80449673D01*
X153587673Y-80628301D01*
X153491000Y-80861690D01*
X152373440Y-80861690D01*
X152373440Y-80684000D01*
X152329162Y-80448683D01*
X152190090Y-80232559D01*
X151977890Y-80087569D01*
X151869893Y-80065699D01*
X152147645Y-79760924D01*
X152317476Y-79350890D01*
X152196155Y-79121000D01*
X151003000Y-79121000D01*
X151003000Y-79141000D01*
X150749000Y-79141000D01*
X150749000Y-79121000D01*
X149555845Y-79121000D01*
X149434524Y-79350890D01*
X149604355Y-79760924D01*
X149880501Y-80063937D01*
X149790683Y-80080838D01*
X149574559Y-80219910D01*
X149429569Y-80432110D01*
X149378560Y-80684000D01*
X149378560Y-82384000D01*
X149422838Y-82619317D01*
X149561910Y-82835441D01*
X149774110Y-82980431D01*
X149991000Y-83024352D01*
X149991000Y-85851995D01*
X149990999Y-85852000D01*
X150018094Y-85988211D01*
X150058367Y-86190675D01*
X150157512Y-86339057D01*
X150250210Y-86477790D01*
X151012208Y-87239787D01*
X151012210Y-87239790D01*
X151299325Y-87431633D01*
X151355516Y-87442810D01*
X151638000Y-87499001D01*
X151638005Y-87499000D01*
X155081420Y-87499000D01*
X155132295Y-87549874D01*
X154897000Y-87503071D01*
X154481788Y-87585662D01*
X154262000Y-87732520D01*
X154042212Y-87585662D01*
X153627000Y-87503071D01*
X153211788Y-87585662D01*
X152992000Y-87732520D01*
X152772212Y-87585662D01*
X152357000Y-87503071D01*
X151941788Y-87585662D01*
X151722000Y-87732520D01*
X151502212Y-87585662D01*
X151087000Y-87503071D01*
X150671788Y-87585662D01*
X150452000Y-87732520D01*
X150232212Y-87585662D01*
X149817000Y-87503071D01*
X149401788Y-87585662D01*
X149182000Y-87732520D01*
X148962212Y-87585662D01*
X148547000Y-87503071D01*
X148131788Y-87585662D01*
X147912000Y-87732520D01*
X147692212Y-87585662D01*
X147277000Y-87503071D01*
X146861788Y-87585662D01*
X146642000Y-87732520D01*
X146422212Y-87585662D01*
X146007000Y-87503071D01*
X145622000Y-87579652D01*
X145622000Y-87079005D01*
X145622001Y-87079000D01*
X145554633Y-86740326D01*
X145554633Y-86740325D01*
X145371946Y-86466913D01*
X145319117Y-86339057D01*
X145056327Y-86075808D01*
X144712799Y-85933162D01*
X144352000Y-85932848D01*
X144352000Y-85173555D01*
X144481910Y-85375441D01*
X144694110Y-85520431D01*
X144946000Y-85571440D01*
X146646000Y-85571440D01*
X146881317Y-85527162D01*
X147097441Y-85388090D01*
X147242431Y-85175890D01*
X147293440Y-84924000D01*
X147293440Y-83224000D01*
X147249162Y-82988683D01*
X147110090Y-82772559D01*
X146897890Y-82627569D01*
X146830459Y-82613914D01*
X146875147Y-82584054D01*
X146901910Y-82544000D01*
X147066000Y-82544000D01*
X147452510Y-82467118D01*
X147780178Y-82248178D01*
X149050178Y-80978178D01*
X149269118Y-80650510D01*
X149346000Y-80264000D01*
X149346000Y-78637110D01*
X149434524Y-78637110D01*
X149555845Y-78867000D01*
X150749000Y-78867000D01*
X150749000Y-77673181D01*
X151003000Y-77673181D01*
X151003000Y-78867000D01*
X152196155Y-78867000D01*
X152317476Y-78637110D01*
X152147645Y-78227076D01*
X151757358Y-77798817D01*
X151232892Y-77552514D01*
X151003000Y-77673181D01*
X150749000Y-77673181D01*
X150519108Y-77552514D01*
X149994642Y-77798817D01*
X149604355Y-78227076D01*
X149434524Y-78637110D01*
X149346000Y-78637110D01*
X149346000Y-78142356D01*
X150024356Y-77464000D01*
X152489644Y-77464000D01*
X152955822Y-77930178D01*
X153283490Y-78149118D01*
X153670000Y-78226000D01*
X157734000Y-78226000D01*
X158005954Y-78171905D01*
X157994000Y-78232000D01*
X158016000Y-78342601D01*
X158016000Y-80340560D01*
X157726000Y-80340560D01*
X157490683Y-80384838D01*
X157274559Y-80523910D01*
X157228031Y-80592006D01*
X157085698Y-80449673D01*
X156852309Y-80353000D01*
X155711750Y-80353000D01*
X155553000Y-80511750D01*
X155553000Y-81661000D01*
X155573000Y-81661000D01*
X155573000Y-81915000D01*
X155553000Y-81915000D01*
X155553000Y-83064250D01*
X155711750Y-83223000D01*
X156852309Y-83223000D01*
X157085698Y-83126327D01*
X157226936Y-82985090D01*
X157261910Y-83039441D01*
X157474110Y-83184431D01*
X157726000Y-83235440D01*
X160326000Y-83235440D01*
X160561317Y-83191162D01*
X160777441Y-83052090D01*
X160918820Y-82845176D01*
X161550000Y-83476356D01*
X161550000Y-94329044D01*
X161407790Y-94116210D01*
X161407787Y-94116208D01*
X160645790Y-93354210D01*
X160594752Y-93320108D01*
X160358675Y-93162367D01*
X160302484Y-93151190D01*
X160020000Y-93094999D01*
X160019995Y-93095000D01*
X159502348Y-93095000D01*
X159578929Y-92710000D01*
X159496338Y-92294788D01*
X159261140Y-91942789D01*
X158909141Y-91707591D01*
X158493929Y-91625000D01*
X156820071Y-91625000D01*
X156404859Y-91707591D01*
X156052860Y-91942789D01*
X155817662Y-92294788D01*
X155735071Y-92710000D01*
X155817662Y-93125212D01*
X155964520Y-93345000D01*
X155817662Y-93564788D01*
X155735071Y-93980000D01*
X155817662Y-94395212D01*
X155964520Y-94615000D01*
X155817662Y-94834788D01*
X155735071Y-95250000D01*
X155817662Y-95665212D01*
X155964520Y-95885000D01*
X155817662Y-96104788D01*
X155735071Y-96520000D01*
X155817662Y-96935212D01*
X155964520Y-97155000D01*
X155817662Y-97374788D01*
X155735071Y-97790000D01*
X155817662Y-98205212D01*
X155964520Y-98425000D01*
X155817662Y-98644788D01*
X155735071Y-99060000D01*
X155817662Y-99475212D01*
X155964520Y-99695000D01*
X155817662Y-99914788D01*
X155735071Y-100330000D01*
X155817662Y-100745212D01*
X155964520Y-100965000D01*
X155817662Y-101184788D01*
X155735071Y-101600000D01*
X155817662Y-102015212D01*
X155964520Y-102235000D01*
X155817662Y-102454788D01*
X155735071Y-102870000D01*
X155817662Y-103285212D01*
X155973032Y-103517741D01*
X155812592Y-103845999D01*
X155939498Y-104013000D01*
X157530000Y-104013000D01*
X157530000Y-103993000D01*
X157784000Y-103993000D01*
X157784000Y-104013000D01*
X157804000Y-104013000D01*
X157804000Y-104267000D01*
X157784000Y-104267000D01*
X157784000Y-105225000D01*
X158584000Y-105225000D01*
X158881000Y-105128922D01*
X158881000Y-108853421D01*
X157616210Y-110118210D01*
X157424367Y-110405325D01*
X157424367Y-110405326D01*
X157390729Y-110574432D01*
X157356683Y-110580838D01*
X157140559Y-110719910D01*
X156995569Y-110932110D01*
X156973007Y-111043523D01*
X156955162Y-110948683D01*
X156816090Y-110732559D01*
X156753670Y-110689909D01*
X156792787Y-110650792D01*
X156792790Y-110650790D01*
X156984633Y-110363675D01*
X157052000Y-110025000D01*
X157052000Y-108852856D01*
X157169409Y-108677141D01*
X157252000Y-108261929D01*
X157252000Y-106588071D01*
X157169409Y-106172859D01*
X156934211Y-105820860D01*
X156582212Y-105585662D01*
X156167000Y-105503071D01*
X155751788Y-105585662D01*
X155532000Y-105732520D01*
X155312212Y-105585662D01*
X154897000Y-105503071D01*
X154481788Y-105585662D01*
X154262000Y-105732520D01*
X154042212Y-105585662D01*
X153627000Y-105503071D01*
X153211788Y-105585662D01*
X152992000Y-105732520D01*
X152772212Y-105585662D01*
X152357000Y-105503071D01*
X151941788Y-105585662D01*
X151722000Y-105732520D01*
X151502212Y-105585662D01*
X151087000Y-105503071D01*
X150671788Y-105585662D01*
X150452000Y-105732520D01*
X150232212Y-105585662D01*
X149817000Y-105503071D01*
X149401788Y-105585662D01*
X149182000Y-105732520D01*
X148962212Y-105585662D01*
X148547000Y-105503071D01*
X148131788Y-105585662D01*
X147912000Y-105732520D01*
X147692212Y-105585662D01*
X147277000Y-105503071D01*
X146861788Y-105585662D01*
X146642000Y-105732520D01*
X146422212Y-105585662D01*
X146007000Y-105503071D01*
X145591788Y-105585662D01*
X145372000Y-105732520D01*
X145152212Y-105585662D01*
X144737000Y-105503071D01*
X144321788Y-105585662D01*
X144102000Y-105732520D01*
X143882212Y-105585662D01*
X143467000Y-105503071D01*
X143051788Y-105585662D01*
X142832000Y-105732520D01*
X142612212Y-105585662D01*
X142197000Y-105503071D01*
X141937000Y-105554788D01*
X141937000Y-104864175D01*
X141980000Y-104648000D01*
X141937433Y-104434001D01*
X155812592Y-104434001D01*
X155999987Y-104817408D01*
X156324456Y-105093808D01*
X156730000Y-105225000D01*
X157530000Y-105225000D01*
X157530000Y-104267000D01*
X155939498Y-104267000D01*
X155812592Y-104434001D01*
X141937433Y-104434001D01*
X141903118Y-104261490D01*
X141684178Y-103933822D01*
X141356510Y-103714882D01*
X140970000Y-103638000D01*
X140583490Y-103714882D01*
X140255822Y-103933822D01*
X140212822Y-103976822D01*
X139993882Y-104304490D01*
X139917000Y-104691000D01*
X139917000Y-105606430D01*
X139784000Y-105707498D01*
X139784000Y-107298000D01*
X139804000Y-107298000D01*
X139804000Y-107552000D01*
X139784000Y-107552000D01*
X139784000Y-109142502D01*
X139951001Y-109269408D01*
X140042000Y-109224931D01*
X140042000Y-109338000D01*
X139904683Y-109363838D01*
X139688559Y-109502910D01*
X139543569Y-109715110D01*
X139512608Y-109868000D01*
X139328210Y-109991210D01*
X139328208Y-109991213D01*
X138693210Y-110626210D01*
X138501367Y-110913325D01*
X138494334Y-110948683D01*
X138433999Y-111252000D01*
X138434000Y-111252005D01*
X138434000Y-111585721D01*
X138242559Y-111708910D01*
X138097569Y-111921110D01*
X138046560Y-112173000D01*
X138046560Y-113673000D01*
X138090838Y-113908317D01*
X138229910Y-114124441D01*
X138298006Y-114170969D01*
X138155673Y-114313302D01*
X138059000Y-114546691D01*
X138059000Y-115137250D01*
X138217750Y-115296000D01*
X139192000Y-115296000D01*
X139192000Y-115276000D01*
X139446000Y-115276000D01*
X139446000Y-115296000D01*
X140420250Y-115296000D01*
X140579000Y-115137250D01*
X140579000Y-114546691D01*
X140482327Y-114313302D01*
X140341090Y-114172064D01*
X140395441Y-114137090D01*
X140540431Y-113924890D01*
X140591440Y-113673000D01*
X140591440Y-112173000D01*
X140547162Y-111937683D01*
X140532206Y-111914440D01*
X141023126Y-111914440D01*
X141018569Y-111921110D01*
X140967560Y-112173000D01*
X140967560Y-113673000D01*
X141011838Y-113908317D01*
X141150910Y-114124441D01*
X141219006Y-114170969D01*
X141076673Y-114313302D01*
X140980000Y-114546691D01*
X140980000Y-115137250D01*
X141138750Y-115296000D01*
X142113000Y-115296000D01*
X142113000Y-115276000D01*
X142367000Y-115276000D01*
X142367000Y-115296000D01*
X142387000Y-115296000D01*
X142387000Y-115550000D01*
X142367000Y-115550000D01*
X142367000Y-116649250D01*
X142525750Y-116808000D01*
X142991310Y-116808000D01*
X143224699Y-116711327D01*
X143403327Y-116532698D01*
X143500000Y-116299309D01*
X143500000Y-116050886D01*
X143771727Y-116708515D01*
X144652847Y-117591174D01*
X145804674Y-118069454D01*
X147051854Y-118070543D01*
X147205378Y-118007108D01*
X150450514Y-118007108D01*
X150571181Y-118237000D01*
X151765000Y-118237000D01*
X151765000Y-117043845D01*
X151535110Y-116922524D01*
X151125076Y-117092355D01*
X150696817Y-117482642D01*
X150450514Y-118007108D01*
X147205378Y-118007108D01*
X148204515Y-117594273D01*
X149087174Y-116713153D01*
X149565454Y-115561326D01*
X149566543Y-114314146D01*
X149090273Y-113161485D01*
X148209153Y-112278826D01*
X147057326Y-111800546D01*
X145810146Y-111799457D01*
X144657485Y-112275727D01*
X144471056Y-112461831D01*
X144475001Y-112442000D01*
X144475000Y-112441995D01*
X144475000Y-111889038D01*
X144575317Y-111870162D01*
X144791441Y-111731090D01*
X144936431Y-111518890D01*
X144987440Y-111267000D01*
X144987440Y-109967000D01*
X144943162Y-109731683D01*
X144804090Y-109515559D01*
X144591890Y-109370569D01*
X144340000Y-109319560D01*
X143604593Y-109319560D01*
X143882212Y-109264338D01*
X144102000Y-109117480D01*
X144321788Y-109264338D01*
X144737000Y-109346929D01*
X145152212Y-109264338D01*
X145372000Y-109117480D01*
X145591788Y-109264338D01*
X146007000Y-109346929D01*
X146422212Y-109264338D01*
X146642000Y-109117480D01*
X146861788Y-109264338D01*
X147277000Y-109346929D01*
X147692212Y-109264338D01*
X147912000Y-109117480D01*
X148131788Y-109264338D01*
X148547000Y-109346929D01*
X148962212Y-109264338D01*
X149182000Y-109117480D01*
X149401788Y-109264338D01*
X149817000Y-109346929D01*
X150232212Y-109264338D01*
X150452000Y-109117480D01*
X150671788Y-109264338D01*
X151087000Y-109346929D01*
X151502212Y-109264338D01*
X151722000Y-109117480D01*
X151941788Y-109264338D01*
X152357000Y-109346929D01*
X152772212Y-109264338D01*
X152992000Y-109117480D01*
X153211788Y-109264338D01*
X153627000Y-109346929D01*
X154012000Y-109270348D01*
X154012000Y-109404421D01*
X152879860Y-110536560D01*
X152512000Y-110536560D01*
X152276683Y-110580838D01*
X152060559Y-110719910D01*
X151915569Y-110932110D01*
X151864560Y-111184000D01*
X151864560Y-112684000D01*
X151908838Y-112919317D01*
X152047910Y-113135441D01*
X152260110Y-113280431D01*
X152273197Y-113283081D01*
X152060559Y-113419910D01*
X151915569Y-113632110D01*
X151864560Y-113884000D01*
X151864560Y-115384000D01*
X151908838Y-115619317D01*
X152047910Y-115835441D01*
X152260110Y-115980431D01*
X152310131Y-115990560D01*
X152333190Y-116106484D01*
X152344367Y-116162675D01*
X152494678Y-116387633D01*
X152536210Y-116449790D01*
X153377671Y-117291251D01*
X153154298Y-117625553D01*
X153087183Y-117482642D01*
X152658924Y-117092355D01*
X152248890Y-116922524D01*
X152019000Y-117043845D01*
X152019000Y-118237000D01*
X152039000Y-118237000D01*
X152039000Y-118491000D01*
X152019000Y-118491000D01*
X152019000Y-119684155D01*
X152248890Y-119805476D01*
X152658924Y-119635645D01*
X153087183Y-119245358D01*
X153154298Y-119102447D01*
X153381946Y-119443147D01*
X153863715Y-119765054D01*
X154432000Y-119878093D01*
X155000285Y-119765054D01*
X155482054Y-119443147D01*
X155702000Y-119113974D01*
X155921946Y-119443147D01*
X156403715Y-119765054D01*
X156972000Y-119878093D01*
X157540285Y-119765054D01*
X158022054Y-119443147D01*
X158242000Y-119113974D01*
X158461946Y-119443147D01*
X158943715Y-119765054D01*
X159512000Y-119878093D01*
X160080285Y-119765054D01*
X160562054Y-119443147D01*
X160589850Y-119401548D01*
X160598838Y-119449317D01*
X160737910Y-119665441D01*
X160950110Y-119810431D01*
X161202000Y-119861440D01*
X162902000Y-119861440D01*
X163137317Y-119817162D01*
X163353441Y-119678090D01*
X163498431Y-119465890D01*
X163549440Y-119214000D01*
X163549440Y-117514000D01*
X163505162Y-117278683D01*
X163366090Y-117062559D01*
X163153890Y-116917569D01*
X162937000Y-116873648D01*
X162937000Y-116840005D01*
X162937001Y-116840000D01*
X162869633Y-116501325D01*
X162838680Y-116455000D01*
X162677790Y-116214210D01*
X162677787Y-116214208D01*
X162040394Y-115576815D01*
X162079440Y-115384000D01*
X162079440Y-113884000D01*
X162035162Y-113648683D01*
X161896090Y-113432559D01*
X161683890Y-113287569D01*
X161670803Y-113284919D01*
X161883441Y-113148090D01*
X162028431Y-112935890D01*
X162079440Y-112684000D01*
X162079440Y-111184000D01*
X162035162Y-110948683D01*
X161896090Y-110732559D01*
X161683890Y-110587569D01*
X161667000Y-110584149D01*
X161667000Y-105094551D01*
X161845822Y-105362178D01*
X162173490Y-105581118D01*
X162560000Y-105658000D01*
X162946510Y-105581118D01*
X163274178Y-105362178D01*
X163361094Y-105232099D01*
X163461140Y-105381828D01*
X163883439Y-105664000D01*
X163461140Y-105946172D01*
X163158308Y-106399391D01*
X163051968Y-106934000D01*
X163158308Y-107468609D01*
X163461140Y-107921828D01*
X163883439Y-108204000D01*
X163461140Y-108486172D01*
X163158308Y-108939391D01*
X163051968Y-109474000D01*
X163158308Y-110008609D01*
X163461140Y-110461828D01*
X163883439Y-110744000D01*
X163461140Y-111026172D01*
X163158308Y-111479391D01*
X163051968Y-112014000D01*
X163158308Y-112548609D01*
X163461140Y-113001828D01*
X163883439Y-113284000D01*
X163461140Y-113566172D01*
X163158308Y-114019391D01*
X163051968Y-114554000D01*
X163158308Y-115088609D01*
X163461140Y-115541828D01*
X163914359Y-115844660D01*
X164448968Y-115951000D01*
X164989032Y-115951000D01*
X165523641Y-115844660D01*
X165976860Y-115541828D01*
X166000650Y-115506224D01*
X166383086Y-115807422D01*
X166911308Y-115956130D01*
X167132000Y-115797277D01*
X167132000Y-114681000D01*
X167386000Y-114681000D01*
X167386000Y-115797277D01*
X167606692Y-115956130D01*
X168134914Y-115807422D01*
X168566020Y-115467892D01*
X168834377Y-114989230D01*
X168851220Y-114897070D01*
X168728720Y-114681000D01*
X167386000Y-114681000D01*
X167132000Y-114681000D01*
X167112000Y-114681000D01*
X167112000Y-114427000D01*
X167132000Y-114427000D01*
X167132000Y-113310723D01*
X167094874Y-113284000D01*
X167132000Y-113257277D01*
X167132000Y-112141000D01*
X167386000Y-112141000D01*
X167386000Y-113257277D01*
X167423126Y-113284000D01*
X167386000Y-113310723D01*
X167386000Y-114427000D01*
X168728720Y-114427000D01*
X168851220Y-114210930D01*
X168834377Y-114118770D01*
X168566020Y-113640108D01*
X168134914Y-113300578D01*
X168076028Y-113284000D01*
X168134914Y-113267422D01*
X168566020Y-112927892D01*
X168834377Y-112449230D01*
X168851220Y-112357070D01*
X168728720Y-112141000D01*
X167386000Y-112141000D01*
X167132000Y-112141000D01*
X167112000Y-112141000D01*
X167112000Y-111887000D01*
X167132000Y-111887000D01*
X167132000Y-111867000D01*
X167386000Y-111867000D01*
X167386000Y-111887000D01*
X168728720Y-111887000D01*
X168851220Y-111670930D01*
X168834377Y-111578770D01*
X168566020Y-111100108D01*
X168134914Y-110760578D01*
X168089067Y-110747671D01*
X168516860Y-110461828D01*
X168819692Y-110008609D01*
X168926032Y-109474000D01*
X168819692Y-108939391D01*
X168516860Y-108486172D01*
X168094561Y-108204000D01*
X168516860Y-107921828D01*
X168819692Y-107468609D01*
X168926032Y-106934000D01*
X168819692Y-106399391D01*
X168516860Y-105946172D01*
X168089067Y-105660329D01*
X168134914Y-105647422D01*
X168566020Y-105307892D01*
X168834377Y-104829230D01*
X168851220Y-104737070D01*
X168728720Y-104521000D01*
X167386000Y-104521000D01*
X167386000Y-104541000D01*
X167132000Y-104541000D01*
X167132000Y-104521000D01*
X167112000Y-104521000D01*
X167112000Y-104267000D01*
X167132000Y-104267000D01*
X167132000Y-103150723D01*
X167094874Y-103124000D01*
X167132000Y-103097277D01*
X167132000Y-101981000D01*
X167386000Y-101981000D01*
X167386000Y-103097277D01*
X167423126Y-103124000D01*
X167386000Y-103150723D01*
X167386000Y-104267000D01*
X168728720Y-104267000D01*
X168851220Y-104050930D01*
X168834377Y-103958770D01*
X168566020Y-103480108D01*
X168134914Y-103140578D01*
X168076028Y-103124000D01*
X168134914Y-103107422D01*
X168566020Y-102767892D01*
X168834377Y-102289230D01*
X168851220Y-102197070D01*
X168728720Y-101981000D01*
X167386000Y-101981000D01*
X167132000Y-101981000D01*
X167112000Y-101981000D01*
X167112000Y-101727000D01*
X167132000Y-101727000D01*
X167132000Y-100610723D01*
X167094874Y-100584000D01*
X167132000Y-100557277D01*
X167132000Y-99441000D01*
X167386000Y-99441000D01*
X167386000Y-100557277D01*
X167423126Y-100584000D01*
X167386000Y-100610723D01*
X167386000Y-101727000D01*
X168728720Y-101727000D01*
X168851220Y-101510930D01*
X168834377Y-101418770D01*
X168566020Y-100940108D01*
X168134914Y-100600578D01*
X168076028Y-100584000D01*
X168134914Y-100567422D01*
X168566020Y-100227892D01*
X168834377Y-99749230D01*
X168851220Y-99657070D01*
X168728720Y-99441000D01*
X167386000Y-99441000D01*
X167132000Y-99441000D01*
X167112000Y-99441000D01*
X167112000Y-99187000D01*
X167132000Y-99187000D01*
X167132000Y-98070723D01*
X167094874Y-98044000D01*
X167132000Y-98017277D01*
X167132000Y-96901000D01*
X167386000Y-96901000D01*
X167386000Y-98017277D01*
X167423126Y-98044000D01*
X167386000Y-98070723D01*
X167386000Y-99187000D01*
X168728720Y-99187000D01*
X168851220Y-98970930D01*
X168834377Y-98878770D01*
X168566020Y-98400108D01*
X168134914Y-98060578D01*
X168076028Y-98044000D01*
X168134914Y-98027422D01*
X168566020Y-97687892D01*
X168834377Y-97209230D01*
X168851220Y-97117070D01*
X168728720Y-96901000D01*
X167386000Y-96901000D01*
X167132000Y-96901000D01*
X167112000Y-96901000D01*
X167112000Y-96647000D01*
X167132000Y-96647000D01*
X167132000Y-95530723D01*
X167094874Y-95504000D01*
X167132000Y-95477277D01*
X167132000Y-94361000D01*
X167386000Y-94361000D01*
X167386000Y-95477277D01*
X167423126Y-95504000D01*
X167386000Y-95530723D01*
X167386000Y-96647000D01*
X168728720Y-96647000D01*
X168851220Y-96430930D01*
X168834377Y-96338770D01*
X168566020Y-95860108D01*
X168134914Y-95520578D01*
X168076028Y-95504000D01*
X168134914Y-95487422D01*
X168566020Y-95147892D01*
X168834377Y-94669230D01*
X168851220Y-94577070D01*
X168728720Y-94361000D01*
X167386000Y-94361000D01*
X167132000Y-94361000D01*
X167112000Y-94361000D01*
X167112000Y-94107000D01*
X167132000Y-94107000D01*
X167132000Y-92990723D01*
X167094874Y-92964000D01*
X167132000Y-92937277D01*
X167132000Y-91821000D01*
X167386000Y-91821000D01*
X167386000Y-92937277D01*
X167423126Y-92964000D01*
X167386000Y-92990723D01*
X167386000Y-94107000D01*
X168728720Y-94107000D01*
X168851220Y-93890930D01*
X168834377Y-93798770D01*
X168566020Y-93320108D01*
X168134914Y-92980578D01*
X168076028Y-92964000D01*
X168134914Y-92947422D01*
X168566020Y-92607892D01*
X168834377Y-92129230D01*
X168851220Y-92037070D01*
X168728720Y-91821000D01*
X167386000Y-91821000D01*
X167132000Y-91821000D01*
X167112000Y-91821000D01*
X167112000Y-91567000D01*
X167132000Y-91567000D01*
X167132000Y-90450723D01*
X167094874Y-90424000D01*
X167132000Y-90397277D01*
X167132000Y-89281000D01*
X167386000Y-89281000D01*
X167386000Y-90397277D01*
X167423126Y-90424000D01*
X167386000Y-90450723D01*
X167386000Y-91567000D01*
X168728720Y-91567000D01*
X168851220Y-91350930D01*
X168834377Y-91258770D01*
X168566020Y-90780108D01*
X168134914Y-90440578D01*
X168076028Y-90424000D01*
X168134914Y-90407422D01*
X168566020Y-90067892D01*
X168834377Y-89589230D01*
X168851220Y-89497070D01*
X168728720Y-89281000D01*
X167386000Y-89281000D01*
X167132000Y-89281000D01*
X167112000Y-89281000D01*
X167112000Y-89027000D01*
X167132000Y-89027000D01*
X167132000Y-89007000D01*
X167386000Y-89007000D01*
X167386000Y-89027000D01*
X168728720Y-89027000D01*
X168851220Y-88810930D01*
X168834377Y-88718770D01*
X168566020Y-88240108D01*
X168134914Y-87900578D01*
X168089067Y-87887671D01*
X168516860Y-87601828D01*
X168819692Y-87148609D01*
X168926032Y-86614000D01*
X168819692Y-86079391D01*
X168516860Y-85626172D01*
X168094561Y-85344000D01*
X168516860Y-85061828D01*
X168819692Y-84608609D01*
X168926032Y-84074000D01*
X168819692Y-83539391D01*
X168516860Y-83086172D01*
X168094561Y-82804000D01*
X168516860Y-82521828D01*
X168819692Y-82068609D01*
X168926032Y-81534000D01*
X168819692Y-80999391D01*
X168516860Y-80546172D01*
X168094561Y-80264000D01*
X168516860Y-79981828D01*
X168819692Y-79528609D01*
X168926032Y-78994000D01*
X168819692Y-78459391D01*
X168516860Y-78006172D01*
X168094561Y-77724000D01*
X168516860Y-77441828D01*
X168819692Y-76988609D01*
X168926032Y-76454000D01*
X168819692Y-75919391D01*
X168516860Y-75466172D01*
X168094561Y-75184000D01*
X168516860Y-74901828D01*
X168819692Y-74448609D01*
X168926032Y-73914000D01*
X168819692Y-73379391D01*
X168516860Y-72926172D01*
X168094561Y-72644000D01*
X168516860Y-72361828D01*
X168819692Y-71908609D01*
X168926032Y-71374000D01*
X168819692Y-70839391D01*
X168516860Y-70386172D01*
X168089067Y-70100329D01*
X168134914Y-70087422D01*
X168566020Y-69747892D01*
X168834377Y-69269230D01*
X168851220Y-69177070D01*
X168728720Y-68961000D01*
X167386000Y-68961000D01*
X167386000Y-68981000D01*
X167132000Y-68981000D01*
X167132000Y-68961000D01*
X167112000Y-68961000D01*
X167112000Y-68707000D01*
X167132000Y-68707000D01*
X167132000Y-68687000D01*
X167386000Y-68687000D01*
X167386000Y-68707000D01*
X168728720Y-68707000D01*
X168851220Y-68490930D01*
X168834377Y-68398770D01*
X168566020Y-67920108D01*
X168134914Y-67580578D01*
X168089067Y-67567671D01*
X168516860Y-67281828D01*
X168819692Y-66828609D01*
X168926032Y-66294000D01*
X168819692Y-65759391D01*
X168516860Y-65306172D01*
X168063641Y-65003340D01*
X167529032Y-64897000D01*
X166988968Y-64897000D01*
X166454359Y-65003340D01*
X166229907Y-65153314D01*
X166183090Y-65080559D01*
X165970890Y-64935569D01*
X165719000Y-64884560D01*
X163719000Y-64884560D01*
X163483683Y-64928838D01*
X163267559Y-65067910D01*
X163122569Y-65280110D01*
X163071560Y-65532000D01*
X163071560Y-67056000D01*
X163115838Y-67291317D01*
X163254910Y-67507441D01*
X163467110Y-67652431D01*
X163685044Y-67696564D01*
X163461140Y-67846172D01*
X163158308Y-68299391D01*
X163051968Y-68834000D01*
X163158308Y-69368609D01*
X163461140Y-69821828D01*
X163883439Y-70104000D01*
X163461140Y-70386172D01*
X163158308Y-70839391D01*
X163051968Y-71374000D01*
X163158308Y-71908609D01*
X163461140Y-72361828D01*
X163883439Y-72644000D01*
X163461140Y-72926172D01*
X163158308Y-73379391D01*
X163051968Y-73914000D01*
X163158308Y-74448609D01*
X163461140Y-74901828D01*
X163883439Y-75184000D01*
X163461140Y-75466172D01*
X163158308Y-75919391D01*
X163051968Y-76454000D01*
X163158308Y-76988609D01*
X163461140Y-77441828D01*
X163883439Y-77724000D01*
X163461140Y-78006172D01*
X163158308Y-78459391D01*
X163051968Y-78994000D01*
X163158308Y-79528609D01*
X163461140Y-79981828D01*
X163883439Y-80264000D01*
X163461140Y-80546172D01*
X163158308Y-80999391D01*
X163051968Y-81534000D01*
X163158308Y-82068609D01*
X163461140Y-82521828D01*
X163883439Y-82804000D01*
X163562175Y-83018662D01*
X163493118Y-82671490D01*
X163274178Y-82343822D01*
X162004178Y-81073822D01*
X161676510Y-80854882D01*
X161290000Y-80778000D01*
X160933926Y-80778000D01*
X160929162Y-80752683D01*
X160790090Y-80536559D01*
X160577890Y-80391569D01*
X160326000Y-80340560D01*
X160036000Y-80340560D01*
X160036000Y-78254000D01*
X159959118Y-77867490D01*
X159740178Y-77539822D01*
X159718178Y-77517822D01*
X159390510Y-77298882D01*
X159131078Y-77247278D01*
X159740178Y-76638178D01*
X159914397Y-76377440D01*
X160326000Y-76377440D01*
X160561317Y-76333162D01*
X160777441Y-76194090D01*
X160922431Y-75981890D01*
X160973440Y-75730000D01*
X160973440Y-74130000D01*
X160929162Y-73894683D01*
X160790090Y-73678559D01*
X160577890Y-73533569D01*
X160326000Y-73482560D01*
X160036000Y-73482560D01*
X160036000Y-72659356D01*
X160113178Y-72582178D01*
X160332118Y-72254510D01*
X160409000Y-71868000D01*
X160409000Y-70650279D01*
X160600441Y-70527090D01*
X160745431Y-70314890D01*
X160796440Y-70063000D01*
X160796440Y-68063000D01*
X160752162Y-67827683D01*
X160613090Y-67611559D01*
X160400890Y-67466569D01*
X160149000Y-67415560D01*
X158649000Y-67415560D01*
X158413683Y-67459838D01*
X158247523Y-67566759D01*
X158109000Y-67472110D01*
X158109000Y-64410440D01*
X158999000Y-64410440D01*
X159234317Y-64366162D01*
X159450441Y-64227090D01*
X159595431Y-64014890D01*
X159646440Y-63763000D01*
X159646440Y-61763000D01*
X159602162Y-61527683D01*
X159463090Y-61311559D01*
X159250890Y-61166569D01*
X158999000Y-61115560D01*
X155199000Y-61115560D01*
X154963683Y-61159838D01*
X154747559Y-61298910D01*
X154602569Y-61511110D01*
X154551560Y-61763000D01*
X154551560Y-63763000D01*
X154595838Y-63998317D01*
X154734910Y-64214441D01*
X154947110Y-64359431D01*
X155199000Y-64410440D01*
X156089000Y-64410440D01*
X156089000Y-67475721D01*
X155949508Y-67565482D01*
X155908699Y-67524673D01*
X155675310Y-67428000D01*
X155084750Y-67428000D01*
X154926000Y-67586750D01*
X154926000Y-68936000D01*
X154946000Y-68936000D01*
X154946000Y-69190000D01*
X154926000Y-69190000D01*
X154926000Y-70539250D01*
X155084750Y-70698000D01*
X155675310Y-70698000D01*
X155908699Y-70601327D01*
X155950660Y-70559366D01*
X156097110Y-70659431D01*
X156349000Y-70710440D01*
X157849000Y-70710440D01*
X158084317Y-70666162D01*
X158250477Y-70559241D01*
X158389000Y-70653890D01*
X158389000Y-71449644D01*
X158311822Y-71526822D01*
X158092882Y-71854490D01*
X158016000Y-72241000D01*
X158016000Y-73482560D01*
X157726000Y-73482560D01*
X157490683Y-73526838D01*
X157274559Y-73665910D01*
X157228031Y-73734006D01*
X157085698Y-73591673D01*
X156852309Y-73495000D01*
X155711750Y-73495000D01*
X155553000Y-73653750D01*
X155553000Y-74803000D01*
X155573000Y-74803000D01*
X155573000Y-75057000D01*
X155553000Y-75057000D01*
X155553000Y-75077000D01*
X155299000Y-75077000D01*
X155299000Y-75057000D01*
X153649750Y-75057000D01*
X153491000Y-75215750D01*
X153491000Y-75652172D01*
X153294510Y-75520882D01*
X152908000Y-75444000D01*
X149606000Y-75444000D01*
X149219490Y-75520882D01*
X148891822Y-75739822D01*
X147621822Y-77009822D01*
X147402882Y-77337490D01*
X147326000Y-77724000D01*
X147326000Y-79845644D01*
X146762779Y-80408865D01*
X146545974Y-80264000D01*
X146875147Y-80044054D01*
X147197054Y-79562285D01*
X147310093Y-78994000D01*
X147197054Y-78425715D01*
X146875147Y-77943946D01*
X146806000Y-77897744D01*
X146806000Y-76454000D01*
X146729118Y-76067490D01*
X146510178Y-75739822D01*
X145419796Y-74649440D01*
X146646000Y-74649440D01*
X146881317Y-74605162D01*
X147097441Y-74466090D01*
X147242431Y-74253890D01*
X147293097Y-74003690D01*
X153491000Y-74003690D01*
X153491000Y-74644250D01*
X153649750Y-74803000D01*
X155299000Y-74803000D01*
X155299000Y-73653750D01*
X155140250Y-73495000D01*
X153999691Y-73495000D01*
X153766302Y-73591673D01*
X153587673Y-73770301D01*
X153491000Y-74003690D01*
X147293097Y-74003690D01*
X147293440Y-74002000D01*
X147293440Y-72302000D01*
X147249162Y-72066683D01*
X147110090Y-71850559D01*
X146897890Y-71705569D01*
X146841546Y-71694159D01*
X146846054Y-71691147D01*
X147167961Y-71209378D01*
X147281000Y-70641093D01*
X147281000Y-70582907D01*
X147167961Y-70014622D01*
X146846054Y-69532853D01*
X146570524Y-69348750D01*
X153414000Y-69348750D01*
X153414000Y-70189309D01*
X153510673Y-70422698D01*
X153689301Y-70601327D01*
X153922690Y-70698000D01*
X154513250Y-70698000D01*
X154672000Y-70539250D01*
X154672000Y-69190000D01*
X153572750Y-69190000D01*
X153414000Y-69348750D01*
X146570524Y-69348750D01*
X146364285Y-69210946D01*
X145796000Y-69097907D01*
X145227715Y-69210946D01*
X144745946Y-69532853D01*
X144526000Y-69862026D01*
X144306054Y-69532853D01*
X143824285Y-69210946D01*
X143256000Y-69097907D01*
X142687715Y-69210946D01*
X142205946Y-69532853D01*
X141986000Y-69862026D01*
X141766054Y-69532853D01*
X141284285Y-69210946D01*
X140716000Y-69097907D01*
X140147715Y-69210946D01*
X139665946Y-69532853D01*
X139446000Y-69862026D01*
X139226054Y-69532853D01*
X138744285Y-69210946D01*
X138176000Y-69097907D01*
X137607715Y-69210946D01*
X137125946Y-69532853D01*
X136898298Y-69873553D01*
X136831183Y-69730642D01*
X136402924Y-69340355D01*
X135992890Y-69170524D01*
X135763000Y-69291845D01*
X135763000Y-70485000D01*
X135783000Y-70485000D01*
X135783000Y-70739000D01*
X135763000Y-70739000D01*
X135763000Y-70759000D01*
X135509000Y-70759000D01*
X135509000Y-70739000D01*
X134315181Y-70739000D01*
X134194514Y-70968892D01*
X134440817Y-71493358D01*
X134869076Y-71883645D01*
X134869101Y-71883655D01*
X134585946Y-72072853D01*
X134264039Y-72554622D01*
X134151000Y-73122907D01*
X133044000Y-73122907D01*
X133044000Y-70255108D01*
X134194514Y-70255108D01*
X134315181Y-70485000D01*
X135509000Y-70485000D01*
X135509000Y-69291845D01*
X135279110Y-69170524D01*
X134869076Y-69340355D01*
X134440817Y-69730642D01*
X134194514Y-70255108D01*
X133044000Y-70255108D01*
X133044000Y-67936691D01*
X153414000Y-67936691D01*
X153414000Y-68777250D01*
X153572750Y-68936000D01*
X154672000Y-68936000D01*
X154672000Y-67586750D01*
X154513250Y-67428000D01*
X153922690Y-67428000D01*
X153689301Y-67524673D01*
X153510673Y-67703302D01*
X153414000Y-67936691D01*
X133044000Y-67936691D01*
X133044000Y-60654000D01*
X172264000Y-60654000D01*
X172264000Y-70495380D01*
M02*
