G04 #@! TF.FileFunction,Paste,Top*
%FSLAX46Y46*%
G04 Gerber Fmt 4.6, Leading zero omitted, Abs format (unit mm)*
G04 Created by KiCad (PCBNEW 4.0.6) date 08/17/17 13:40:10*
%MOMM*%
%LPD*%
G01*
G04 APERTURE LIST*
%ADD10C,0.100000*%
%ADD11R,3.800000X2.000000*%
%ADD12R,1.500000X2.000000*%
%ADD13R,2.600000X1.600000*%
%ADD14O,0.900000X2.500000*%
%ADD15O,2.500000X0.900000*%
%ADD16R,6.000000X6.000000*%
%ADD17R,1.250000X1.500000*%
%ADD18R,1.500000X1.300000*%
%ADD19R,1.300000X1.500000*%
G04 APERTURE END LIST*
D10*
D11*
X157099000Y-62763000D03*
D12*
X157099000Y-69063000D03*
X159399000Y-69063000D03*
X154799000Y-69063000D03*
D13*
X159026000Y-74930000D03*
X155426000Y-74930000D03*
D14*
X139657000Y-89425000D03*
X140927000Y-89425000D03*
X142197000Y-89425000D03*
X143467000Y-89425000D03*
X144737000Y-89425000D03*
X146007000Y-89425000D03*
X147277000Y-89425000D03*
X148547000Y-89425000D03*
X149817000Y-89425000D03*
X151087000Y-89425000D03*
X152357000Y-89425000D03*
X153627000Y-89425000D03*
X154897000Y-89425000D03*
X156167000Y-89425000D03*
D15*
X157657000Y-92710000D03*
X157657000Y-93980000D03*
X157657000Y-95250000D03*
X157657000Y-96520000D03*
X157657000Y-97790000D03*
X157657000Y-99060000D03*
X157657000Y-100330000D03*
X157657000Y-101600000D03*
X157657000Y-102870000D03*
X157657000Y-104140000D03*
D14*
X156167000Y-107425000D03*
X154897000Y-107425000D03*
X153627000Y-107425000D03*
X152357000Y-107425000D03*
X151087000Y-107425000D03*
X149817000Y-107425000D03*
X148547000Y-107425000D03*
X147277000Y-107425000D03*
X146007000Y-107425000D03*
X144737000Y-107425000D03*
X143467000Y-107425000D03*
X142197000Y-107425000D03*
X140927000Y-107425000D03*
X139657000Y-107425000D03*
D16*
X147357000Y-98725000D03*
D17*
X139319000Y-112923000D03*
X139319000Y-115423000D03*
X142240000Y-112923000D03*
X142240000Y-115423000D03*
D18*
X140890000Y-110617000D03*
X143590000Y-110617000D03*
D19*
X160782000Y-111934000D03*
X160782000Y-114634000D03*
X158242000Y-111934000D03*
X158242000Y-114634000D03*
X155702000Y-111934000D03*
X155702000Y-114634000D03*
X153162000Y-111934000D03*
X153162000Y-114634000D03*
D13*
X159026000Y-81788000D03*
X155426000Y-81788000D03*
M02*
