G04 #@! TF.FileFunction,Legend,Top*
%FSLAX46Y46*%
G04 Gerber Fmt 4.6, Leading zero omitted, Abs format (unit mm)*
G04 Created by KiCad (PCBNEW 4.0.6) date 10/02/17 17:06:01*
%MOMM*%
%LPD*%
G01*
G04 APERTURE LIST*
%ADD10C,0.100000*%
%ADD11C,0.200000*%
%ADD12C,0.300000*%
%ADD13C,0.120000*%
%ADD14C,0.500000*%
%ADD15C,0.150000*%
G04 APERTURE END LIST*
D10*
D11*
X139120571Y-83399142D02*
X139168190Y-83256285D01*
X139215810Y-83208666D01*
X139311048Y-83161047D01*
X139453905Y-83161047D01*
X139549143Y-83208666D01*
X139596762Y-83256285D01*
X139644381Y-83351523D01*
X139644381Y-83732476D01*
X138644381Y-83732476D01*
X138644381Y-83399142D01*
X138692000Y-83303904D01*
X138739619Y-83256285D01*
X138834857Y-83208666D01*
X138930095Y-83208666D01*
X139025333Y-83256285D01*
X139072952Y-83303904D01*
X139120571Y-83399142D01*
X139120571Y-83732476D01*
X138644381Y-82542000D02*
X138644381Y-82351523D01*
X138692000Y-82256285D01*
X138787238Y-82161047D01*
X138977714Y-82113428D01*
X139311048Y-82113428D01*
X139501524Y-82161047D01*
X139596762Y-82256285D01*
X139644381Y-82351523D01*
X139644381Y-82542000D01*
X139596762Y-82637238D01*
X139501524Y-82732476D01*
X139311048Y-82780095D01*
X138977714Y-82780095D01*
X138787238Y-82732476D01*
X138692000Y-82637238D01*
X138644381Y-82542000D01*
X138644381Y-81494381D02*
X138644381Y-81303904D01*
X138692000Y-81208666D01*
X138787238Y-81113428D01*
X138977714Y-81065809D01*
X139311048Y-81065809D01*
X139501524Y-81113428D01*
X139596762Y-81208666D01*
X139644381Y-81303904D01*
X139644381Y-81494381D01*
X139596762Y-81589619D01*
X139501524Y-81684857D01*
X139311048Y-81732476D01*
X138977714Y-81732476D01*
X138787238Y-81684857D01*
X138692000Y-81589619D01*
X138644381Y-81494381D01*
X138644381Y-80780095D02*
X138644381Y-80208666D01*
X139644381Y-80494381D02*
X138644381Y-80494381D01*
D12*
X134281171Y-73579928D02*
X135495457Y-73579928D01*
X135638314Y-73508500D01*
X135709743Y-73437071D01*
X135781171Y-73294214D01*
X135781171Y-73008500D01*
X135709743Y-72865642D01*
X135638314Y-72794214D01*
X135495457Y-72722785D01*
X134281171Y-72722785D01*
X135709743Y-72079928D02*
X135781171Y-71865642D01*
X135781171Y-71508499D01*
X135709743Y-71365642D01*
X135638314Y-71294213D01*
X135495457Y-71222785D01*
X135352600Y-71222785D01*
X135209743Y-71294213D01*
X135138314Y-71365642D01*
X135066886Y-71508499D01*
X134995457Y-71794213D01*
X134924029Y-71937071D01*
X134852600Y-72008499D01*
X134709743Y-72079928D01*
X134566886Y-72079928D01*
X134424029Y-72008499D01*
X134352600Y-71937071D01*
X134281171Y-71794213D01*
X134281171Y-71437071D01*
X134352600Y-71222785D01*
X134995457Y-70079928D02*
X135066886Y-69865642D01*
X135138314Y-69794214D01*
X135281171Y-69722785D01*
X135495457Y-69722785D01*
X135638314Y-69794214D01*
X135709743Y-69865642D01*
X135781171Y-70008500D01*
X135781171Y-70579928D01*
X134281171Y-70579928D01*
X134281171Y-70079928D01*
X134352600Y-69937071D01*
X134424029Y-69865642D01*
X134566886Y-69794214D01*
X134709743Y-69794214D01*
X134852600Y-69865642D01*
X134924029Y-69937071D01*
X134995457Y-70079928D01*
X134995457Y-70579928D01*
X135209743Y-69079928D02*
X135209743Y-67937071D01*
X134281171Y-67222785D02*
X135495457Y-67222785D01*
X135638314Y-67151357D01*
X135709743Y-67079928D01*
X135781171Y-66937071D01*
X135781171Y-66651357D01*
X135709743Y-66508499D01*
X135638314Y-66437071D01*
X135495457Y-66365642D01*
X134281171Y-66365642D01*
X135352600Y-65722785D02*
X135352600Y-65008499D01*
X135781171Y-65865642D02*
X134281171Y-65365642D01*
X135781171Y-64865642D01*
X135781171Y-63508499D02*
X135066886Y-64008499D01*
X135781171Y-64365642D02*
X134281171Y-64365642D01*
X134281171Y-63794214D01*
X134352600Y-63651356D01*
X134424029Y-63579928D01*
X134566886Y-63508499D01*
X134781171Y-63508499D01*
X134924029Y-63579928D01*
X134995457Y-63651356D01*
X135066886Y-63794214D01*
X135066886Y-64365642D01*
X134281171Y-63079928D02*
X134281171Y-62222785D01*
X135781171Y-62651356D02*
X134281171Y-62651356D01*
X163604000Y-117542571D02*
X163604000Y-118614000D01*
X163532572Y-118828286D01*
X163389715Y-118971143D01*
X163175429Y-119042571D01*
X163032572Y-119042571D01*
X164104000Y-117542571D02*
X164961143Y-117542571D01*
X164532572Y-119042571D02*
X164532572Y-117542571D01*
X165389714Y-118614000D02*
X166104000Y-118614000D01*
X165246857Y-119042571D02*
X165746857Y-117542571D01*
X166246857Y-119042571D01*
X167532571Y-117614000D02*
X167389714Y-117542571D01*
X167175428Y-117542571D01*
X166961143Y-117614000D01*
X166818285Y-117756857D01*
X166746857Y-117899714D01*
X166675428Y-118185429D01*
X166675428Y-118399714D01*
X166746857Y-118685429D01*
X166818285Y-118828286D01*
X166961143Y-118971143D01*
X167175428Y-119042571D01*
X167318285Y-119042571D01*
X167532571Y-118971143D01*
X167604000Y-118899714D01*
X167604000Y-118399714D01*
X167318285Y-118399714D01*
D13*
X161040000Y-79752000D02*
X161040000Y-79352000D01*
X156460000Y-80522000D02*
X156460000Y-79352000D01*
X156460000Y-75942000D02*
X156460000Y-77112000D01*
X161040000Y-76712000D02*
X161040000Y-77112000D01*
X160270000Y-75942000D02*
X156460000Y-75942000D01*
X160270000Y-75942000D02*
X161040000Y-76712000D01*
X160270000Y-80522000D02*
X156460000Y-80522000D01*
X160270000Y-80522000D02*
X161040000Y-79752000D01*
X153166000Y-79752000D02*
X153166000Y-79352000D01*
X148586000Y-80522000D02*
X148586000Y-79352000D01*
X148586000Y-75942000D02*
X148586000Y-77112000D01*
X153166000Y-76712000D02*
X153166000Y-77112000D01*
X152396000Y-75942000D02*
X148586000Y-75942000D01*
X152396000Y-75942000D02*
X153166000Y-76712000D01*
X152396000Y-80522000D02*
X148586000Y-80522000D01*
X152396000Y-80522000D02*
X153166000Y-79752000D01*
X140042000Y-114800000D02*
X140042000Y-113800000D01*
X138342000Y-113800000D02*
X138342000Y-114800000D01*
X151472000Y-114038000D02*
X151472000Y-113038000D01*
X149772000Y-113038000D02*
X149772000Y-114038000D01*
X149666000Y-69406000D02*
X147066000Y-69406000D01*
X147066000Y-69406000D02*
X147066000Y-60776000D01*
X147066000Y-60776000D02*
X149666000Y-60776000D01*
X149666000Y-60776000D02*
X149666000Y-69406000D01*
X148716000Y-69836000D02*
X148716000Y-69406000D01*
X147956000Y-69836000D02*
X147956000Y-69406000D01*
X148716000Y-72376000D02*
X148716000Y-71896000D01*
X147956000Y-72376000D02*
X147956000Y-71896000D01*
X149486000Y-69406000D02*
X149486000Y-60776000D01*
X149366000Y-69406000D02*
X149366000Y-60776000D01*
X149246000Y-69406000D02*
X149246000Y-60776000D01*
X149126000Y-69406000D02*
X149126000Y-60776000D01*
X149006000Y-69406000D02*
X149006000Y-60776000D01*
X148886000Y-69406000D02*
X148886000Y-60776000D01*
X148766000Y-69406000D02*
X148766000Y-60776000D01*
X148646000Y-69406000D02*
X148646000Y-60776000D01*
X148526000Y-69406000D02*
X148526000Y-60776000D01*
X148406000Y-69406000D02*
X148406000Y-60776000D01*
X148286000Y-69406000D02*
X148286000Y-60776000D01*
X148166000Y-69406000D02*
X148166000Y-60776000D01*
X148046000Y-69406000D02*
X148046000Y-60776000D01*
X147926000Y-69406000D02*
X147926000Y-60776000D01*
X147806000Y-69406000D02*
X147806000Y-60776000D01*
X147686000Y-69406000D02*
X147686000Y-60776000D01*
X147566000Y-69406000D02*
X147566000Y-60776000D01*
X147446000Y-69406000D02*
X147446000Y-60776000D01*
X147326000Y-69406000D02*
X147326000Y-60776000D01*
X147206000Y-69406000D02*
X147206000Y-60776000D01*
X147086000Y-69406000D02*
X147086000Y-60776000D01*
X146966000Y-69406000D02*
X146966000Y-60776000D01*
X147066000Y-69406000D02*
X144526000Y-69406000D01*
X144526000Y-69406000D02*
X144526000Y-60776000D01*
X144526000Y-60776000D02*
X147066000Y-60776000D01*
X147066000Y-60776000D02*
X147066000Y-69406000D01*
X146176000Y-69836000D02*
X146176000Y-69406000D01*
X145416000Y-69836000D02*
X145416000Y-69406000D01*
X146176000Y-72376000D02*
X146176000Y-71896000D01*
X145416000Y-72376000D02*
X145416000Y-71896000D01*
X144526000Y-69406000D02*
X141986000Y-69406000D01*
X141986000Y-69406000D02*
X141986000Y-60776000D01*
X141986000Y-60776000D02*
X144526000Y-60776000D01*
X144526000Y-60776000D02*
X144526000Y-69406000D01*
X143636000Y-69836000D02*
X143636000Y-69406000D01*
X142876000Y-69836000D02*
X142876000Y-69406000D01*
X143636000Y-72376000D02*
X143636000Y-71896000D01*
X142876000Y-72376000D02*
X142876000Y-71896000D01*
X141986000Y-69406000D02*
X139446000Y-69406000D01*
X139446000Y-69406000D02*
X139446000Y-60776000D01*
X139446000Y-60776000D02*
X141986000Y-60776000D01*
X141986000Y-60776000D02*
X141986000Y-69406000D01*
X141096000Y-69836000D02*
X141096000Y-69406000D01*
X140336000Y-69836000D02*
X140336000Y-69406000D01*
X141096000Y-72376000D02*
X141096000Y-71896000D01*
X140336000Y-72376000D02*
X140336000Y-71896000D01*
X139446000Y-69406000D02*
X136846000Y-69406000D01*
X136846000Y-69406000D02*
X136846000Y-60776000D01*
X136846000Y-60776000D02*
X139446000Y-60776000D01*
X139446000Y-60776000D02*
X139446000Y-69406000D01*
X138556000Y-69836000D02*
X138556000Y-69406000D01*
X137796000Y-69836000D02*
X137796000Y-69406000D01*
X138556000Y-72376000D02*
X138556000Y-71896000D01*
X137796000Y-72376000D02*
X137796000Y-71896000D01*
X149606000Y-73406000D02*
X149606000Y-74676000D01*
X149606000Y-74676000D02*
X148336000Y-74676000D01*
X137728000Y-79188000D02*
X135068000Y-79188000D01*
X137728000Y-81788000D02*
X137728000Y-79188000D01*
X135068000Y-81788000D02*
X135068000Y-79188000D01*
X137728000Y-81788000D02*
X135068000Y-81788000D01*
X137728000Y-83058000D02*
X137728000Y-84388000D01*
X137728000Y-84388000D02*
X136398000Y-84388000D01*
X149292000Y-117034000D02*
X149292000Y-119694000D01*
X159512000Y-117034000D02*
X149292000Y-117034000D01*
X159512000Y-119694000D02*
X149292000Y-119694000D01*
X159512000Y-117034000D02*
X159512000Y-119694000D01*
X160782000Y-117034000D02*
X162112000Y-117034000D01*
X162112000Y-117034000D02*
X162112000Y-118364000D01*
X142612000Y-113700000D02*
X142612000Y-114900000D01*
X140852000Y-114900000D02*
X140852000Y-113700000D01*
X159902000Y-114138000D02*
X159902000Y-112938000D01*
X161662000Y-112938000D02*
X161662000Y-114138000D01*
X157362000Y-114138000D02*
X157362000Y-112938000D01*
X159122000Y-112938000D02*
X159122000Y-114138000D01*
X154822000Y-114138000D02*
X154822000Y-112938000D01*
X156582000Y-112938000D02*
X156582000Y-114138000D01*
X152282000Y-114138000D02*
X152282000Y-112938000D01*
X154042000Y-112938000D02*
X154042000Y-114138000D01*
X143120000Y-80934000D02*
X143120000Y-82134000D01*
X141360000Y-82134000D02*
X141360000Y-80934000D01*
X143900000Y-82134000D02*
X143900000Y-80934000D01*
X145660000Y-80934000D02*
X145660000Y-82134000D01*
X160664000Y-86452000D02*
X160664000Y-85252000D01*
X162424000Y-85252000D02*
X162424000Y-86452000D01*
X158124000Y-86452000D02*
X158124000Y-85252000D01*
X159884000Y-85252000D02*
X159884000Y-86452000D01*
X160636000Y-64892000D02*
X159376000Y-64892000D01*
X153816000Y-64892000D02*
X155076000Y-64892000D01*
X160636000Y-68652000D02*
X160636000Y-64892000D01*
X153816000Y-70902000D02*
X153816000Y-64892000D01*
D14*
X138586981Y-108331000D02*
G75*
G03X138586981Y-108331000I-283981J0D01*
G01*
D15*
X138157000Y-89425000D02*
X138157000Y-107425000D01*
X132157000Y-107425000D02*
X157657000Y-107425000D01*
X132157000Y-89425000D02*
X157657000Y-89425000D01*
X157657000Y-89425000D02*
X157657000Y-107425000D01*
X132157000Y-89425000D02*
X132157000Y-107425000D01*
X163449000Y-115824000D02*
X163449000Y-65024000D01*
X168529000Y-115824000D02*
X168529000Y-65024000D01*
X168529000Y-115824000D02*
X163449000Y-115824000D01*
X168529000Y-65024000D02*
X163449000Y-65024000D01*
X158596034Y-81929243D02*
X158548415Y-81976862D01*
X158405558Y-82024481D01*
X158310320Y-82024481D01*
X158167462Y-81976862D01*
X158072224Y-81881624D01*
X158024605Y-81786386D01*
X157976986Y-81595910D01*
X157976986Y-81453052D01*
X158024605Y-81262576D01*
X158072224Y-81167338D01*
X158167462Y-81072100D01*
X158310320Y-81024481D01*
X158405558Y-81024481D01*
X158548415Y-81072100D01*
X158596034Y-81119719D01*
X159548415Y-82024481D02*
X158976986Y-82024481D01*
X159262700Y-82024481D02*
X159262700Y-81024481D01*
X159167462Y-81167338D01*
X159072224Y-81262576D01*
X158976986Y-81310195D01*
X161139048Y-76293429D02*
X161900953Y-76293429D01*
X161520001Y-76674381D02*
X161520001Y-75912476D01*
X150937934Y-82005443D02*
X150890315Y-82053062D01*
X150747458Y-82100681D01*
X150652220Y-82100681D01*
X150509362Y-82053062D01*
X150414124Y-81957824D01*
X150366505Y-81862586D01*
X150318886Y-81672110D01*
X150318886Y-81529252D01*
X150366505Y-81338776D01*
X150414124Y-81243538D01*
X150509362Y-81148300D01*
X150652220Y-81100681D01*
X150747458Y-81100681D01*
X150890315Y-81148300D01*
X150937934Y-81195919D01*
X151318886Y-81195919D02*
X151366505Y-81148300D01*
X151461743Y-81100681D01*
X151699839Y-81100681D01*
X151795077Y-81148300D01*
X151842696Y-81195919D01*
X151890315Y-81291157D01*
X151890315Y-81386395D01*
X151842696Y-81529252D01*
X151271267Y-82100681D01*
X151890315Y-82100681D01*
X153265048Y-76293429D02*
X154026953Y-76293429D01*
X153646001Y-76674381D02*
X153646001Y-75912476D01*
X139676143Y-117895666D02*
X139723762Y-117943285D01*
X139771381Y-118086142D01*
X139771381Y-118181380D01*
X139723762Y-118324238D01*
X139628524Y-118419476D01*
X139533286Y-118467095D01*
X139342810Y-118514714D01*
X139199952Y-118514714D01*
X139009476Y-118467095D01*
X138914238Y-118419476D01*
X138819000Y-118324238D01*
X138771381Y-118181380D01*
X138771381Y-118086142D01*
X138819000Y-117943285D01*
X138866619Y-117895666D01*
X138771381Y-117562333D02*
X138771381Y-116943285D01*
X139152333Y-117276619D01*
X139152333Y-117133761D01*
X139199952Y-117038523D01*
X139247571Y-116990904D01*
X139342810Y-116943285D01*
X139580905Y-116943285D01*
X139676143Y-116990904D01*
X139723762Y-117038523D01*
X139771381Y-117133761D01*
X139771381Y-117419476D01*
X139723762Y-117514714D01*
X139676143Y-117562333D01*
X150966443Y-110389966D02*
X151014062Y-110437585D01*
X151061681Y-110580442D01*
X151061681Y-110675680D01*
X151014062Y-110818538D01*
X150918824Y-110913776D01*
X150823586Y-110961395D01*
X150633110Y-111009014D01*
X150490252Y-111009014D01*
X150299776Y-110961395D01*
X150204538Y-110913776D01*
X150109300Y-110818538D01*
X150061681Y-110675680D01*
X150061681Y-110580442D01*
X150109300Y-110437585D01*
X150156919Y-110389966D01*
X150395014Y-109532823D02*
X151061681Y-109532823D01*
X150014062Y-109770919D02*
X150728348Y-110009014D01*
X150728348Y-109389966D01*
X150058381Y-68089333D02*
X150772667Y-68089333D01*
X150915524Y-68136953D01*
X151010762Y-68232191D01*
X151058381Y-68375048D01*
X151058381Y-68470286D01*
X151058381Y-67089333D02*
X151058381Y-67660762D01*
X151058381Y-67375048D02*
X150058381Y-67375048D01*
X150201238Y-67470286D01*
X150296476Y-67565524D01*
X150344095Y-67660762D01*
X135850381Y-86439333D02*
X136564667Y-86439333D01*
X136707524Y-86486953D01*
X136802762Y-86582191D01*
X136850381Y-86725048D01*
X136850381Y-86820286D01*
X135945619Y-86010762D02*
X135898000Y-85963143D01*
X135850381Y-85867905D01*
X135850381Y-85629809D01*
X135898000Y-85534571D01*
X135945619Y-85486952D01*
X136040857Y-85439333D01*
X136136095Y-85439333D01*
X136278952Y-85486952D01*
X136850381Y-86058381D01*
X136850381Y-85439333D01*
X147420081Y-118798933D02*
X148134367Y-118798933D01*
X148277224Y-118846553D01*
X148372462Y-118941791D01*
X148420081Y-119084648D01*
X148420081Y-119179886D01*
X147420081Y-118417981D02*
X147420081Y-117798933D01*
X147801033Y-118132267D01*
X147801033Y-117989409D01*
X147848652Y-117894171D01*
X147896271Y-117846552D01*
X147991510Y-117798933D01*
X148229605Y-117798933D01*
X148324843Y-117846552D01*
X148372462Y-117894171D01*
X148420081Y-117989409D01*
X148420081Y-118275124D01*
X148372462Y-118370362D01*
X148324843Y-118417981D01*
X142184381Y-118022666D02*
X141708190Y-118356000D01*
X142184381Y-118594095D02*
X141184381Y-118594095D01*
X141184381Y-118213142D01*
X141232000Y-118117904D01*
X141279619Y-118070285D01*
X141374857Y-118022666D01*
X141517714Y-118022666D01*
X141612952Y-118070285D01*
X141660571Y-118117904D01*
X141708190Y-118213142D01*
X141708190Y-118594095D01*
X142184381Y-117070285D02*
X142184381Y-117641714D01*
X142184381Y-117356000D02*
X141184381Y-117356000D01*
X141327238Y-117451238D01*
X141422476Y-117546476D01*
X141470095Y-117641714D01*
X161234381Y-110351866D02*
X160758190Y-110685200D01*
X161234381Y-110923295D02*
X160234381Y-110923295D01*
X160234381Y-110542342D01*
X160282000Y-110447104D01*
X160329619Y-110399485D01*
X160424857Y-110351866D01*
X160567714Y-110351866D01*
X160662952Y-110399485D01*
X160710571Y-110447104D01*
X160758190Y-110542342D01*
X160758190Y-110923295D01*
X160329619Y-109970914D02*
X160282000Y-109923295D01*
X160234381Y-109828057D01*
X160234381Y-109589961D01*
X160282000Y-109494723D01*
X160329619Y-109447104D01*
X160424857Y-109399485D01*
X160520095Y-109399485D01*
X160662952Y-109447104D01*
X161234381Y-110018533D01*
X161234381Y-109399485D01*
X158757881Y-110389966D02*
X158281690Y-110723300D01*
X158757881Y-110961395D02*
X157757881Y-110961395D01*
X157757881Y-110580442D01*
X157805500Y-110485204D01*
X157853119Y-110437585D01*
X157948357Y-110389966D01*
X158091214Y-110389966D01*
X158186452Y-110437585D01*
X158234071Y-110485204D01*
X158281690Y-110580442D01*
X158281690Y-110961395D01*
X157757881Y-110056633D02*
X157757881Y-109437585D01*
X158138833Y-109770919D01*
X158138833Y-109628061D01*
X158186452Y-109532823D01*
X158234071Y-109485204D01*
X158329310Y-109437585D01*
X158567405Y-109437585D01*
X158662643Y-109485204D01*
X158710262Y-109532823D01*
X158757881Y-109628061D01*
X158757881Y-109913776D01*
X158710262Y-110009014D01*
X158662643Y-110056633D01*
X156243281Y-110351866D02*
X155767090Y-110685200D01*
X156243281Y-110923295D02*
X155243281Y-110923295D01*
X155243281Y-110542342D01*
X155290900Y-110447104D01*
X155338519Y-110399485D01*
X155433757Y-110351866D01*
X155576614Y-110351866D01*
X155671852Y-110399485D01*
X155719471Y-110447104D01*
X155767090Y-110542342D01*
X155767090Y-110923295D01*
X155576614Y-109494723D02*
X156243281Y-109494723D01*
X155195662Y-109732819D02*
X155909948Y-109970914D01*
X155909948Y-109351866D01*
X153728681Y-110275666D02*
X153252490Y-110609000D01*
X153728681Y-110847095D02*
X152728681Y-110847095D01*
X152728681Y-110466142D01*
X152776300Y-110370904D01*
X152823919Y-110323285D01*
X152919157Y-110275666D01*
X153062014Y-110275666D01*
X153157252Y-110323285D01*
X153204871Y-110370904D01*
X153252490Y-110466142D01*
X153252490Y-110847095D01*
X152728681Y-109370904D02*
X152728681Y-109847095D01*
X153204871Y-109894714D01*
X153157252Y-109847095D01*
X153109633Y-109751857D01*
X153109633Y-109513761D01*
X153157252Y-109418523D01*
X153204871Y-109370904D01*
X153300110Y-109323285D01*
X153538205Y-109323285D01*
X153633443Y-109370904D01*
X153681062Y-109418523D01*
X153728681Y-109513761D01*
X153728681Y-109751857D01*
X153681062Y-109847095D01*
X153633443Y-109894714D01*
X142806681Y-78258966D02*
X142330490Y-78592300D01*
X142806681Y-78830395D02*
X141806681Y-78830395D01*
X141806681Y-78449442D01*
X141854300Y-78354204D01*
X141901919Y-78306585D01*
X141997157Y-78258966D01*
X142140014Y-78258966D01*
X142235252Y-78306585D01*
X142282871Y-78354204D01*
X142330490Y-78449442D01*
X142330490Y-78830395D01*
X141806681Y-77401823D02*
X141806681Y-77592300D01*
X141854300Y-77687538D01*
X141901919Y-77735157D01*
X142044776Y-77830395D01*
X142235252Y-77878014D01*
X142616205Y-77878014D01*
X142711443Y-77830395D01*
X142759062Y-77782776D01*
X142806681Y-77687538D01*
X142806681Y-77497061D01*
X142759062Y-77401823D01*
X142711443Y-77354204D01*
X142616205Y-77306585D01*
X142378110Y-77306585D01*
X142282871Y-77354204D01*
X142235252Y-77401823D01*
X142187633Y-77497061D01*
X142187633Y-77687538D01*
X142235252Y-77782776D01*
X142282871Y-77830395D01*
X142378110Y-77878014D01*
X145232381Y-78309766D02*
X144756190Y-78643100D01*
X145232381Y-78881195D02*
X144232381Y-78881195D01*
X144232381Y-78500242D01*
X144280000Y-78405004D01*
X144327619Y-78357385D01*
X144422857Y-78309766D01*
X144565714Y-78309766D01*
X144660952Y-78357385D01*
X144708571Y-78405004D01*
X144756190Y-78500242D01*
X144756190Y-78881195D01*
X144232381Y-77976433D02*
X144232381Y-77309766D01*
X145232381Y-77738338D01*
X161958281Y-89587366D02*
X161482090Y-89920700D01*
X161958281Y-90158795D02*
X160958281Y-90158795D01*
X160958281Y-89777842D01*
X161005900Y-89682604D01*
X161053519Y-89634985D01*
X161148757Y-89587366D01*
X161291614Y-89587366D01*
X161386852Y-89634985D01*
X161434471Y-89682604D01*
X161482090Y-89777842D01*
X161482090Y-90158795D01*
X161386852Y-89015938D02*
X161339233Y-89111176D01*
X161291614Y-89158795D01*
X161196376Y-89206414D01*
X161148757Y-89206414D01*
X161053519Y-89158795D01*
X161005900Y-89111176D01*
X160958281Y-89015938D01*
X160958281Y-88825461D01*
X161005900Y-88730223D01*
X161053519Y-88682604D01*
X161148757Y-88634985D01*
X161196376Y-88634985D01*
X161291614Y-88682604D01*
X161339233Y-88730223D01*
X161386852Y-88825461D01*
X161386852Y-89015938D01*
X161434471Y-89111176D01*
X161482090Y-89158795D01*
X161577329Y-89206414D01*
X161767805Y-89206414D01*
X161863043Y-89158795D01*
X161910662Y-89111176D01*
X161958281Y-89015938D01*
X161958281Y-88825461D01*
X161910662Y-88730223D01*
X161863043Y-88682604D01*
X161767805Y-88634985D01*
X161577329Y-88634985D01*
X161482090Y-88682604D01*
X161434471Y-88730223D01*
X161386852Y-88825461D01*
X159557981Y-89701666D02*
X159081790Y-90035000D01*
X159557981Y-90273095D02*
X158557981Y-90273095D01*
X158557981Y-89892142D01*
X158605600Y-89796904D01*
X158653219Y-89749285D01*
X158748457Y-89701666D01*
X158891314Y-89701666D01*
X158986552Y-89749285D01*
X159034171Y-89796904D01*
X159081790Y-89892142D01*
X159081790Y-90273095D01*
X159557981Y-89225476D02*
X159557981Y-89035000D01*
X159510362Y-88939761D01*
X159462743Y-88892142D01*
X159319886Y-88796904D01*
X159129410Y-88749285D01*
X158748457Y-88749285D01*
X158653219Y-88796904D01*
X158605600Y-88844523D01*
X158557981Y-88939761D01*
X158557981Y-89130238D01*
X158605600Y-89225476D01*
X158653219Y-89273095D01*
X158748457Y-89320714D01*
X158986552Y-89320714D01*
X159081790Y-89273095D01*
X159129410Y-89225476D01*
X159177029Y-89130238D01*
X159177029Y-88939761D01*
X159129410Y-88844523D01*
X159081790Y-88796904D01*
X158986552Y-88749285D01*
X151904795Y-63688981D02*
X151904795Y-64498505D01*
X151952414Y-64593743D01*
X152000033Y-64641362D01*
X152095271Y-64688981D01*
X152285748Y-64688981D01*
X152380986Y-64641362D01*
X152428605Y-64593743D01*
X152476224Y-64498505D01*
X152476224Y-63688981D01*
X153476224Y-64688981D02*
X152904795Y-64688981D01*
X153190509Y-64688981D02*
X153190509Y-63688981D01*
X153095271Y-63831838D01*
X153000033Y-63927076D01*
X152904795Y-63974695D01*
X134631181Y-110401005D02*
X135440705Y-110401005D01*
X135535943Y-110353386D01*
X135583562Y-110305767D01*
X135631181Y-110210529D01*
X135631181Y-110020052D01*
X135583562Y-109924814D01*
X135535943Y-109877195D01*
X135440705Y-109829576D01*
X134631181Y-109829576D01*
X134726419Y-109401005D02*
X134678800Y-109353386D01*
X134631181Y-109258148D01*
X134631181Y-109020052D01*
X134678800Y-108924814D01*
X134726419Y-108877195D01*
X134821657Y-108829576D01*
X134916895Y-108829576D01*
X135059752Y-108877195D01*
X135631181Y-109448624D01*
X135631181Y-108829576D01*
X139224570Y-91495571D02*
X139557904Y-91495571D01*
X139700761Y-92019381D02*
X139224570Y-92019381D01*
X139224570Y-91019381D01*
X139700761Y-91019381D01*
X140081713Y-91971762D02*
X140176951Y-92019381D01*
X140367427Y-92019381D01*
X140462666Y-91971762D01*
X140510285Y-91876524D01*
X140510285Y-91828905D01*
X140462666Y-91733667D01*
X140367427Y-91686048D01*
X140224570Y-91686048D01*
X140129332Y-91638429D01*
X140081713Y-91543190D01*
X140081713Y-91495571D01*
X140129332Y-91400333D01*
X140224570Y-91352714D01*
X140367427Y-91352714D01*
X140462666Y-91400333D01*
X140938856Y-91352714D02*
X140938856Y-92352714D01*
X140938856Y-91400333D02*
X141034094Y-91352714D01*
X141224571Y-91352714D01*
X141319809Y-91400333D01*
X141367428Y-91447952D01*
X141415047Y-91543190D01*
X141415047Y-91828905D01*
X141367428Y-91924143D01*
X141319809Y-91971762D01*
X141224571Y-92019381D01*
X141034094Y-92019381D01*
X140938856Y-91971762D01*
X141843618Y-92019381D02*
X141843618Y-91352714D01*
X141843618Y-91543190D02*
X141891237Y-91447952D01*
X141938856Y-91400333D01*
X142034094Y-91352714D01*
X142129333Y-91352714D01*
X142843619Y-91971762D02*
X142748381Y-92019381D01*
X142557904Y-92019381D01*
X142462666Y-91971762D01*
X142415047Y-91876524D01*
X142415047Y-91495571D01*
X142462666Y-91400333D01*
X142557904Y-91352714D01*
X142748381Y-91352714D01*
X142843619Y-91400333D01*
X142891238Y-91495571D01*
X142891238Y-91590810D01*
X142415047Y-91686048D01*
X143272190Y-91971762D02*
X143367428Y-92019381D01*
X143557904Y-92019381D01*
X143653143Y-91971762D01*
X143700762Y-91876524D01*
X143700762Y-91828905D01*
X143653143Y-91733667D01*
X143557904Y-91686048D01*
X143415047Y-91686048D01*
X143319809Y-91638429D01*
X143272190Y-91543190D01*
X143272190Y-91495571D01*
X143319809Y-91400333D01*
X143415047Y-91352714D01*
X143557904Y-91352714D01*
X143653143Y-91400333D01*
X144081714Y-91971762D02*
X144176952Y-92019381D01*
X144367428Y-92019381D01*
X144462667Y-91971762D01*
X144510286Y-91876524D01*
X144510286Y-91828905D01*
X144462667Y-91733667D01*
X144367428Y-91686048D01*
X144224571Y-91686048D01*
X144129333Y-91638429D01*
X144081714Y-91543190D01*
X144081714Y-91495571D01*
X144129333Y-91400333D01*
X144224571Y-91352714D01*
X144367428Y-91352714D01*
X144462667Y-91400333D01*
X144938857Y-92019381D02*
X144938857Y-91352714D01*
X144938857Y-91019381D02*
X144891238Y-91067000D01*
X144938857Y-91114619D01*
X144986476Y-91067000D01*
X144938857Y-91019381D01*
X144938857Y-91114619D01*
X145272190Y-91352714D02*
X145653142Y-91352714D01*
X145415047Y-92019381D02*
X145415047Y-91162238D01*
X145462666Y-91067000D01*
X145557904Y-91019381D01*
X145653142Y-91019381D01*
X146700762Y-91971762D02*
X146843619Y-92019381D01*
X147081715Y-92019381D01*
X147176953Y-91971762D01*
X147224572Y-91924143D01*
X147272191Y-91828905D01*
X147272191Y-91733667D01*
X147224572Y-91638429D01*
X147176953Y-91590810D01*
X147081715Y-91543190D01*
X146891238Y-91495571D01*
X146796000Y-91447952D01*
X146748381Y-91400333D01*
X146700762Y-91305095D01*
X146700762Y-91209857D01*
X146748381Y-91114619D01*
X146796000Y-91067000D01*
X146891238Y-91019381D01*
X147129334Y-91019381D01*
X147272191Y-91067000D01*
X147605524Y-91352714D02*
X147843619Y-92019381D01*
X148081715Y-91352714D02*
X147843619Y-92019381D01*
X147748381Y-92257476D01*
X147700762Y-92305095D01*
X147605524Y-92352714D01*
X148415048Y-91971762D02*
X148510286Y-92019381D01*
X148700762Y-92019381D01*
X148796001Y-91971762D01*
X148843620Y-91876524D01*
X148843620Y-91828905D01*
X148796001Y-91733667D01*
X148700762Y-91686048D01*
X148557905Y-91686048D01*
X148462667Y-91638429D01*
X148415048Y-91543190D01*
X148415048Y-91495571D01*
X148462667Y-91400333D01*
X148557905Y-91352714D01*
X148700762Y-91352714D01*
X148796001Y-91400333D01*
X149129334Y-91352714D02*
X149510286Y-91352714D01*
X149272191Y-91019381D02*
X149272191Y-91876524D01*
X149319810Y-91971762D01*
X149415048Y-92019381D01*
X149510286Y-92019381D01*
X150224573Y-91971762D02*
X150129335Y-92019381D01*
X149938858Y-92019381D01*
X149843620Y-91971762D01*
X149796001Y-91876524D01*
X149796001Y-91495571D01*
X149843620Y-91400333D01*
X149938858Y-91352714D01*
X150129335Y-91352714D01*
X150224573Y-91400333D01*
X150272192Y-91495571D01*
X150272192Y-91590810D01*
X149796001Y-91686048D01*
X150700763Y-92019381D02*
X150700763Y-91352714D01*
X150700763Y-91447952D02*
X150748382Y-91400333D01*
X150843620Y-91352714D01*
X150986478Y-91352714D01*
X151081716Y-91400333D01*
X151129335Y-91495571D01*
X151129335Y-92019381D01*
X151129335Y-91495571D02*
X151176954Y-91400333D01*
X151272192Y-91352714D01*
X151415049Y-91352714D01*
X151510287Y-91400333D01*
X151557906Y-91495571D01*
X151557906Y-92019381D01*
X151986477Y-91971762D02*
X152081715Y-92019381D01*
X152272191Y-92019381D01*
X152367430Y-91971762D01*
X152415049Y-91876524D01*
X152415049Y-91828905D01*
X152367430Y-91733667D01*
X152272191Y-91686048D01*
X152129334Y-91686048D01*
X152034096Y-91638429D01*
X151986477Y-91543190D01*
X151986477Y-91495571D01*
X152034096Y-91400333D01*
X152129334Y-91352714D01*
X152272191Y-91352714D01*
X152367430Y-91400333D01*
X139200619Y-93146571D02*
X139533953Y-93146571D01*
X139676810Y-93670381D02*
X139200619Y-93670381D01*
X139200619Y-92670381D01*
X139676810Y-92670381D01*
X140057762Y-93622762D02*
X140200619Y-93670381D01*
X140438715Y-93670381D01*
X140533953Y-93622762D01*
X140581572Y-93575143D01*
X140629191Y-93479905D01*
X140629191Y-93384667D01*
X140581572Y-93289429D01*
X140533953Y-93241810D01*
X140438715Y-93194190D01*
X140248238Y-93146571D01*
X140153000Y-93098952D01*
X140105381Y-93051333D01*
X140057762Y-92956095D01*
X140057762Y-92860857D01*
X140105381Y-92765619D01*
X140153000Y-92718000D01*
X140248238Y-92670381D01*
X140486334Y-92670381D01*
X140629191Y-92718000D01*
X141057762Y-93670381D02*
X141057762Y-92670381D01*
X141438715Y-92670381D01*
X141533953Y-92718000D01*
X141581572Y-92765619D01*
X141629191Y-92860857D01*
X141629191Y-93003714D01*
X141581572Y-93098952D01*
X141533953Y-93146571D01*
X141438715Y-93194190D01*
X141057762Y-93194190D01*
X141962524Y-92670381D02*
X142581572Y-92670381D01*
X142248238Y-93051333D01*
X142391096Y-93051333D01*
X142486334Y-93098952D01*
X142533953Y-93146571D01*
X142581572Y-93241810D01*
X142581572Y-93479905D01*
X142533953Y-93575143D01*
X142486334Y-93622762D01*
X142391096Y-93670381D01*
X142105381Y-93670381D01*
X142010143Y-93622762D01*
X141962524Y-93575143D01*
X142962524Y-92765619D02*
X143010143Y-92718000D01*
X143105381Y-92670381D01*
X143343477Y-92670381D01*
X143438715Y-92718000D01*
X143486334Y-92765619D01*
X143533953Y-92860857D01*
X143533953Y-92956095D01*
X143486334Y-93098952D01*
X142914905Y-93670381D01*
X143533953Y-93670381D01*
X143962524Y-93289429D02*
X144724429Y-93289429D01*
X145105381Y-92670381D02*
X145343476Y-93670381D01*
X145533953Y-92956095D01*
X145724429Y-93670381D01*
X145962524Y-92670381D01*
X146914905Y-93670381D02*
X146581571Y-93194190D01*
X146343476Y-93670381D02*
X146343476Y-92670381D01*
X146724429Y-92670381D01*
X146819667Y-92718000D01*
X146867286Y-92765619D01*
X146914905Y-92860857D01*
X146914905Y-93003714D01*
X146867286Y-93098952D01*
X146819667Y-93146571D01*
X146724429Y-93194190D01*
X146343476Y-93194190D01*
X147533952Y-92670381D02*
X147724429Y-92670381D01*
X147819667Y-92718000D01*
X147914905Y-92813238D01*
X147962524Y-93003714D01*
X147962524Y-93337048D01*
X147914905Y-93527524D01*
X147819667Y-93622762D01*
X147724429Y-93670381D01*
X147533952Y-93670381D01*
X147438714Y-93622762D01*
X147343476Y-93527524D01*
X147295857Y-93337048D01*
X147295857Y-93003714D01*
X147343476Y-92813238D01*
X147438714Y-92718000D01*
X147533952Y-92670381D01*
X148581571Y-92670381D02*
X148772048Y-92670381D01*
X148867286Y-92718000D01*
X148962524Y-92813238D01*
X149010143Y-93003714D01*
X149010143Y-93337048D01*
X148962524Y-93527524D01*
X148867286Y-93622762D01*
X148772048Y-93670381D01*
X148581571Y-93670381D01*
X148486333Y-93622762D01*
X148391095Y-93527524D01*
X148343476Y-93337048D01*
X148343476Y-93003714D01*
X148391095Y-92813238D01*
X148486333Y-92718000D01*
X148581571Y-92670381D01*
X149438714Y-93670381D02*
X149438714Y-92670381D01*
X149772048Y-93384667D01*
X150105381Y-92670381D01*
X150105381Y-93670381D01*
D13*
X163601524Y-62807905D02*
X164134857Y-63607905D01*
X164134857Y-62807905D02*
X163601524Y-63607905D01*
X164401524Y-63379333D02*
X164782476Y-63379333D01*
X164325333Y-63607905D02*
X164592000Y-62807905D01*
X164858667Y-63607905D01*
X165544381Y-63607905D02*
X165087238Y-63607905D01*
X165315809Y-63607905D02*
X165315809Y-62807905D01*
X165239619Y-62922190D01*
X165163428Y-62998381D01*
X165087238Y-63036476D01*
X164084239Y-64547714D02*
X164046144Y-64585810D01*
X163931858Y-64623905D01*
X163855668Y-64623905D01*
X163741382Y-64585810D01*
X163665191Y-64509619D01*
X163627096Y-64433429D01*
X163589001Y-64281048D01*
X163589001Y-64166762D01*
X163627096Y-64014381D01*
X163665191Y-63938190D01*
X163741382Y-63862000D01*
X163855668Y-63823905D01*
X163931858Y-63823905D01*
X164046144Y-63862000D01*
X164084239Y-63900095D01*
X164427096Y-64623905D02*
X164427096Y-63823905D01*
X164769953Y-64395333D02*
X165150905Y-64395333D01*
X164693762Y-64623905D02*
X164960429Y-63823905D01*
X165227096Y-64623905D01*
X165455667Y-64395333D02*
X165836619Y-64395333D01*
X165379476Y-64623905D02*
X165646143Y-63823905D01*
X165912810Y-64623905D01*
X166179476Y-64319143D02*
X166789000Y-64319143D01*
X167169952Y-64623905D02*
X167169952Y-63823905D01*
X167474714Y-63823905D01*
X167550905Y-63862000D01*
X167589000Y-63900095D01*
X167627095Y-63976286D01*
X167627095Y-64090571D01*
X167589000Y-64166762D01*
X167550905Y-64204857D01*
X167474714Y-64242952D01*
X167169952Y-64242952D01*
X168389000Y-64623905D02*
X167931857Y-64623905D01*
X168160428Y-64623905D02*
X168160428Y-63823905D01*
X168084238Y-63938190D01*
X168008047Y-64014381D01*
X167931857Y-64052476D01*
M02*
