M48
;DRILL file {KiCad 4.0.6} date 08/17/17 13:40:14
;FORMAT={-:-/ absolute / metric / decimal}
FMAT,2
METRIC,TZ
T1C0.400
T2C1.000
T3C1.016
T4C3.500
%
G90
G05
M71
T1
X140.97Y-104.648
X144.526Y-86.868
X157.099Y-66.04
X159.004Y-78.232
X162.56Y-104.648
T2
X135.636Y-70.612
X135.636Y-73.152
X135.636Y-78.994
X135.636Y-81.534
X135.636Y-84.074
X138.176Y-70.612
X138.176Y-73.152
X140.716Y-70.612
X140.716Y-73.152
X140.716Y-78.994
X140.716Y-81.534
X140.716Y-84.074
X143.256Y-70.612
X143.256Y-73.152
X145.796Y-70.612
X145.796Y-73.152
X145.796Y-78.994
X145.796Y-81.534
X145.796Y-84.074
X150.876Y-78.994
X150.876Y-81.534
X151.892Y-118.364
X154.432Y-118.364
X156.972Y-118.364
X159.512Y-118.364
X162.052Y-118.364
T3
X164.719Y-66.294
X164.719Y-68.834
X164.719Y-71.374
X164.719Y-73.914
X164.719Y-76.454
X164.719Y-78.994
X164.719Y-81.534
X164.719Y-84.074
X164.719Y-86.614
X164.719Y-89.154
X164.719Y-91.694
X164.719Y-94.234
X164.719Y-96.774
X164.719Y-99.314
X164.719Y-101.854
X164.719Y-104.394
X164.719Y-106.934
X164.719Y-109.474
X164.719Y-112.014
X164.719Y-114.554
X167.259Y-66.294
X167.259Y-68.834
X167.259Y-71.374
X167.259Y-73.914
X167.259Y-76.454
X167.259Y-78.994
X167.259Y-81.534
X167.259Y-84.074
X167.259Y-86.614
X167.259Y-89.154
X167.259Y-91.694
X167.259Y-94.234
X167.259Y-96.774
X167.259Y-99.314
X167.259Y-101.854
X167.259Y-104.394
X167.259Y-106.934
X167.259Y-109.474
X167.259Y-112.014
X167.259Y-114.554
T4
X134.874Y-114.808
X146.431Y-114.935
T0
M30
