G04 #@! TF.FileFunction,Legend,Top*
%FSLAX46Y46*%
G04 Gerber Fmt 4.6, Leading zero omitted, Abs format (unit mm)*
G04 Created by KiCad (PCBNEW 4.0.6) date 08/17/17 13:40:10*
%MOMM*%
%LPD*%
G01*
G04 APERTURE LIST*
%ADD10C,0.100000*%
%ADD11C,0.400000*%
%ADD12C,0.200000*%
%ADD13C,0.300000*%
%ADD14C,0.150000*%
%ADD15C,0.120000*%
%ADD16C,0.500000*%
G04 APERTURE END LIST*
D10*
D11*
X147320000Y-76200000D02*
X142748000Y-76200000D01*
X147320000Y-86868000D02*
X147320000Y-76200000D01*
X142494000Y-86868000D02*
X147320000Y-86868000D01*
X134112000Y-86868000D02*
X138938000Y-86868000D01*
X134112000Y-76200000D02*
X134112000Y-86868000D01*
X138684000Y-76200000D02*
X134112000Y-76200000D01*
D12*
X149518858Y-76128571D02*
X149661715Y-76176190D01*
X149709334Y-76223810D01*
X149756953Y-76319048D01*
X149756953Y-76461905D01*
X149709334Y-76557143D01*
X149661715Y-76604762D01*
X149566477Y-76652381D01*
X149185524Y-76652381D01*
X149185524Y-75652381D01*
X149518858Y-75652381D01*
X149614096Y-75700000D01*
X149661715Y-75747619D01*
X149709334Y-75842857D01*
X149709334Y-75938095D01*
X149661715Y-76033333D01*
X149614096Y-76080952D01*
X149518858Y-76128571D01*
X149185524Y-76128571D01*
X150376000Y-75652381D02*
X150566477Y-75652381D01*
X150661715Y-75700000D01*
X150756953Y-75795238D01*
X150804572Y-75985714D01*
X150804572Y-76319048D01*
X150756953Y-76509524D01*
X150661715Y-76604762D01*
X150566477Y-76652381D01*
X150376000Y-76652381D01*
X150280762Y-76604762D01*
X150185524Y-76509524D01*
X150137905Y-76319048D01*
X150137905Y-75985714D01*
X150185524Y-75795238D01*
X150280762Y-75700000D01*
X150376000Y-75652381D01*
X151423619Y-75652381D02*
X151614096Y-75652381D01*
X151709334Y-75700000D01*
X151804572Y-75795238D01*
X151852191Y-75985714D01*
X151852191Y-76319048D01*
X151804572Y-76509524D01*
X151709334Y-76604762D01*
X151614096Y-76652381D01*
X151423619Y-76652381D01*
X151328381Y-76604762D01*
X151233143Y-76509524D01*
X151185524Y-76319048D01*
X151185524Y-75985714D01*
X151233143Y-75795238D01*
X151328381Y-75700000D01*
X151423619Y-75652381D01*
X152137905Y-75652381D02*
X152709334Y-75652381D01*
X152423619Y-76652381D02*
X152423619Y-75652381D01*
D11*
X142494000Y-81534000D02*
X144018000Y-81534000D01*
X137414000Y-81534000D02*
X138938000Y-81534000D01*
D12*
X139120762Y-75652381D02*
X139120762Y-76461905D01*
X139168381Y-76557143D01*
X139216000Y-76604762D01*
X139311238Y-76652381D01*
X139501715Y-76652381D01*
X139596953Y-76604762D01*
X139644572Y-76557143D01*
X139692191Y-76461905D01*
X139692191Y-75652381D01*
X140120762Y-76366667D02*
X140596953Y-76366667D01*
X140025524Y-76652381D02*
X140358857Y-75652381D01*
X140692191Y-76652381D01*
X141596953Y-76652381D02*
X141263619Y-76176190D01*
X141025524Y-76652381D02*
X141025524Y-75652381D01*
X141406477Y-75652381D01*
X141501715Y-75700000D01*
X141549334Y-75747619D01*
X141596953Y-75842857D01*
X141596953Y-75985714D01*
X141549334Y-76080952D01*
X141501715Y-76128571D01*
X141406477Y-76176190D01*
X141025524Y-76176190D01*
X141882667Y-75652381D02*
X142454096Y-75652381D01*
X142168381Y-76652381D02*
X142168381Y-75652381D01*
X139930286Y-87225143D02*
X139882667Y-87272762D01*
X139739810Y-87320381D01*
X139644572Y-87320381D01*
X139501714Y-87272762D01*
X139406476Y-87177524D01*
X139358857Y-87082286D01*
X139311238Y-86891810D01*
X139311238Y-86748952D01*
X139358857Y-86558476D01*
X139406476Y-86463238D01*
X139501714Y-86368000D01*
X139644572Y-86320381D01*
X139739810Y-86320381D01*
X139882667Y-86368000D01*
X139930286Y-86415619D01*
X140358857Y-87320381D02*
X140358857Y-86320381D01*
X140787428Y-87034667D02*
X141263619Y-87034667D01*
X140692190Y-87320381D02*
X141025523Y-86320381D01*
X141358857Y-87320381D01*
X141644571Y-87034667D02*
X142120762Y-87034667D01*
X141549333Y-87320381D02*
X141882666Y-86320381D01*
X142216000Y-87320381D01*
D13*
X148530571Y-69956857D02*
X149744857Y-69956857D01*
X149887714Y-69885429D01*
X149959143Y-69814000D01*
X150030571Y-69671143D01*
X150030571Y-69385429D01*
X149959143Y-69242571D01*
X149887714Y-69171143D01*
X149744857Y-69099714D01*
X148530571Y-69099714D01*
X149602000Y-68456857D02*
X149602000Y-67742571D01*
X150030571Y-68599714D02*
X148530571Y-68099714D01*
X150030571Y-67599714D01*
X150030571Y-66242571D02*
X149316286Y-66742571D01*
X150030571Y-67099714D02*
X148530571Y-67099714D01*
X148530571Y-66528286D01*
X148602000Y-66385428D01*
X148673429Y-66314000D01*
X148816286Y-66242571D01*
X149030571Y-66242571D01*
X149173429Y-66314000D01*
X149244857Y-66385428D01*
X149316286Y-66528286D01*
X149316286Y-67099714D01*
X148530571Y-65814000D02*
X148530571Y-64956857D01*
X150030571Y-65385428D02*
X148530571Y-65385428D01*
X165128000Y-117542571D02*
X165128000Y-118614000D01*
X165056572Y-118828286D01*
X164913715Y-118971143D01*
X164699429Y-119042571D01*
X164556572Y-119042571D01*
X165628000Y-117542571D02*
X166485143Y-117542571D01*
X166056572Y-119042571D02*
X166056572Y-117542571D01*
X166913714Y-118614000D02*
X167628000Y-118614000D01*
X166770857Y-119042571D02*
X167270857Y-117542571D01*
X167770857Y-119042571D01*
X169056571Y-117614000D02*
X168913714Y-117542571D01*
X168699428Y-117542571D01*
X168485143Y-117614000D01*
X168342285Y-117756857D01*
X168270857Y-117899714D01*
X168199428Y-118185429D01*
X168199428Y-118399714D01*
X168270857Y-118685429D01*
X168342285Y-118828286D01*
X168485143Y-118971143D01*
X168699428Y-119042571D01*
X168842285Y-119042571D01*
X169056571Y-118971143D01*
X169128000Y-118899714D01*
X169128000Y-118399714D01*
X168842285Y-118399714D01*
D14*
X163449000Y-115824000D02*
X163449000Y-65024000D01*
X168529000Y-115824000D02*
X168529000Y-65024000D01*
X168529000Y-115824000D02*
X163449000Y-115824000D01*
X168529000Y-65024000D02*
X163449000Y-65024000D01*
D15*
X160509000Y-64003000D02*
X159249000Y-64003000D01*
X153689000Y-64003000D02*
X154949000Y-64003000D01*
X160509000Y-67763000D02*
X160509000Y-64003000D01*
X153689000Y-70013000D02*
X153689000Y-64003000D01*
X159516000Y-76450000D02*
X159516000Y-76050000D01*
X154936000Y-77220000D02*
X154936000Y-76050000D01*
X154936000Y-72640000D02*
X154936000Y-73810000D01*
X159516000Y-73410000D02*
X159516000Y-73810000D01*
X158746000Y-72640000D02*
X154936000Y-72640000D01*
X158746000Y-72640000D02*
X159516000Y-73410000D01*
X158746000Y-77220000D02*
X154936000Y-77220000D01*
X158746000Y-77220000D02*
X159516000Y-76450000D01*
D16*
X138586981Y-108331000D02*
G75*
G03X138586981Y-108331000I-283981J0D01*
G01*
D14*
X138157000Y-89425000D02*
X138157000Y-107425000D01*
X132157000Y-107425000D02*
X157657000Y-107425000D01*
X132157000Y-89425000D02*
X157657000Y-89425000D01*
X157657000Y-89425000D02*
X157657000Y-107425000D01*
X132157000Y-89425000D02*
X132157000Y-107425000D01*
D15*
X140169000Y-114673000D02*
X140169000Y-113673000D01*
X138469000Y-113673000D02*
X138469000Y-114673000D01*
X143090000Y-114673000D02*
X143090000Y-113673000D01*
X141390000Y-113673000D02*
X141390000Y-114673000D01*
X142840000Y-111497000D02*
X141640000Y-111497000D01*
X141640000Y-109737000D02*
X142840000Y-109737000D01*
X159902000Y-113884000D02*
X159902000Y-112684000D01*
X161662000Y-112684000D02*
X161662000Y-113884000D01*
X157362000Y-113884000D02*
X157362000Y-112684000D01*
X159122000Y-112684000D02*
X159122000Y-113884000D01*
X154822000Y-113884000D02*
X154822000Y-112684000D01*
X156582000Y-112684000D02*
X156582000Y-113884000D01*
X152282000Y-113884000D02*
X152282000Y-112684000D01*
X154042000Y-112684000D02*
X154042000Y-113884000D01*
X159516000Y-83308000D02*
X159516000Y-82908000D01*
X154936000Y-84078000D02*
X154936000Y-82908000D01*
X154936000Y-79498000D02*
X154936000Y-80668000D01*
X159516000Y-80268000D02*
X159516000Y-80668000D01*
X158746000Y-79498000D02*
X154936000Y-79498000D01*
X158746000Y-79498000D02*
X159516000Y-80268000D01*
X158746000Y-84078000D02*
X154936000Y-84078000D01*
X158746000Y-84078000D02*
X159516000Y-83308000D01*
X150562000Y-117034000D02*
X150562000Y-119694000D01*
X160782000Y-117034000D02*
X150562000Y-117034000D01*
X160782000Y-119694000D02*
X150562000Y-119694000D01*
X160782000Y-117034000D02*
X160782000Y-119694000D01*
X162052000Y-117034000D02*
X163382000Y-117034000D01*
X163382000Y-117034000D02*
X163382000Y-118364000D01*
X147126000Y-77664000D02*
X144466000Y-77664000D01*
X147126000Y-82804000D02*
X147126000Y-77664000D01*
X144466000Y-82804000D02*
X144466000Y-77664000D01*
X147126000Y-82804000D02*
X144466000Y-82804000D01*
X147126000Y-84074000D02*
X147126000Y-85404000D01*
X147126000Y-85404000D02*
X145796000Y-85404000D01*
X136966000Y-77664000D02*
X134306000Y-77664000D01*
X136966000Y-82804000D02*
X136966000Y-77664000D01*
X134306000Y-82804000D02*
X134306000Y-77664000D01*
X136966000Y-82804000D02*
X134306000Y-82804000D01*
X136966000Y-84074000D02*
X136966000Y-85404000D01*
X136966000Y-85404000D02*
X135636000Y-85404000D01*
X142046000Y-77664000D02*
X139386000Y-77664000D01*
X142046000Y-82804000D02*
X142046000Y-77664000D01*
X139386000Y-82804000D02*
X139386000Y-77664000D01*
X142046000Y-82804000D02*
X139386000Y-82804000D01*
X142046000Y-84074000D02*
X142046000Y-85404000D01*
X142046000Y-85404000D02*
X140716000Y-85404000D01*
X147126000Y-69152000D02*
X144526000Y-69152000D01*
X144526000Y-69152000D02*
X144526000Y-60522000D01*
X144526000Y-60522000D02*
X147126000Y-60522000D01*
X147126000Y-60522000D02*
X147126000Y-69152000D01*
X146176000Y-69582000D02*
X146176000Y-69152000D01*
X145416000Y-69582000D02*
X145416000Y-69152000D01*
X146176000Y-72122000D02*
X146176000Y-71642000D01*
X145416000Y-72122000D02*
X145416000Y-71642000D01*
X146946000Y-69152000D02*
X146946000Y-60522000D01*
X146826000Y-69152000D02*
X146826000Y-60522000D01*
X146706000Y-69152000D02*
X146706000Y-60522000D01*
X146586000Y-69152000D02*
X146586000Y-60522000D01*
X146466000Y-69152000D02*
X146466000Y-60522000D01*
X146346000Y-69152000D02*
X146346000Y-60522000D01*
X146226000Y-69152000D02*
X146226000Y-60522000D01*
X146106000Y-69152000D02*
X146106000Y-60522000D01*
X145986000Y-69152000D02*
X145986000Y-60522000D01*
X145866000Y-69152000D02*
X145866000Y-60522000D01*
X145746000Y-69152000D02*
X145746000Y-60522000D01*
X145626000Y-69152000D02*
X145626000Y-60522000D01*
X145506000Y-69152000D02*
X145506000Y-60522000D01*
X145386000Y-69152000D02*
X145386000Y-60522000D01*
X145266000Y-69152000D02*
X145266000Y-60522000D01*
X145146000Y-69152000D02*
X145146000Y-60522000D01*
X145026000Y-69152000D02*
X145026000Y-60522000D01*
X144906000Y-69152000D02*
X144906000Y-60522000D01*
X144786000Y-69152000D02*
X144786000Y-60522000D01*
X144666000Y-69152000D02*
X144666000Y-60522000D01*
X144546000Y-69152000D02*
X144546000Y-60522000D01*
X144426000Y-69152000D02*
X144426000Y-60522000D01*
X144526000Y-69152000D02*
X141986000Y-69152000D01*
X141986000Y-69152000D02*
X141986000Y-60522000D01*
X141986000Y-60522000D02*
X144526000Y-60522000D01*
X144526000Y-60522000D02*
X144526000Y-69152000D01*
X143636000Y-69582000D02*
X143636000Y-69152000D01*
X142876000Y-69582000D02*
X142876000Y-69152000D01*
X143636000Y-72122000D02*
X143636000Y-71642000D01*
X142876000Y-72122000D02*
X142876000Y-71642000D01*
X141986000Y-69152000D02*
X139446000Y-69152000D01*
X139446000Y-69152000D02*
X139446000Y-60522000D01*
X139446000Y-60522000D02*
X141986000Y-60522000D01*
X141986000Y-60522000D02*
X141986000Y-69152000D01*
X141096000Y-69582000D02*
X141096000Y-69152000D01*
X140336000Y-69582000D02*
X140336000Y-69152000D01*
X141096000Y-72122000D02*
X141096000Y-71642000D01*
X140336000Y-72122000D02*
X140336000Y-71642000D01*
X139446000Y-69152000D02*
X136906000Y-69152000D01*
X136906000Y-69152000D02*
X136906000Y-60522000D01*
X136906000Y-60522000D02*
X139446000Y-60522000D01*
X139446000Y-60522000D02*
X139446000Y-69152000D01*
X138556000Y-69582000D02*
X138556000Y-69152000D01*
X137796000Y-69582000D02*
X137796000Y-69152000D01*
X138556000Y-72122000D02*
X138556000Y-71642000D01*
X137796000Y-72122000D02*
X137796000Y-71642000D01*
X136906000Y-69152000D02*
X134306000Y-69152000D01*
X134306000Y-69152000D02*
X134306000Y-60522000D01*
X134306000Y-60522000D02*
X136906000Y-60522000D01*
X136906000Y-60522000D02*
X136906000Y-69152000D01*
X136016000Y-69582000D02*
X136016000Y-69152000D01*
X135256000Y-69582000D02*
X135256000Y-69152000D01*
X136016000Y-72122000D02*
X136016000Y-71642000D01*
X135256000Y-72122000D02*
X135256000Y-71642000D01*
X147066000Y-73152000D02*
X147066000Y-74422000D01*
X147066000Y-74422000D02*
X145796000Y-74422000D01*
X152206000Y-77664000D02*
X149546000Y-77664000D01*
X152206000Y-80264000D02*
X152206000Y-77664000D01*
X149546000Y-80264000D02*
X149546000Y-77664000D01*
X152206000Y-80264000D02*
X149546000Y-80264000D01*
X152206000Y-81534000D02*
X152206000Y-82864000D01*
X152206000Y-82864000D02*
X150876000Y-82864000D01*
X161950905Y-64204857D02*
X162217572Y-64204857D01*
X162331858Y-64623905D02*
X161950905Y-64623905D01*
X161950905Y-63823905D01*
X162331858Y-63823905D01*
X162674715Y-64623905D02*
X162674715Y-63823905D01*
X162865191Y-63823905D01*
X162979477Y-63862000D01*
X163055668Y-63938190D01*
X163093763Y-64014381D01*
X163131858Y-64166762D01*
X163131858Y-64281048D01*
X163093763Y-64433429D01*
X163055668Y-64509619D01*
X162979477Y-64585810D01*
X162865191Y-64623905D01*
X162674715Y-64623905D01*
X163474715Y-63823905D02*
X163474715Y-64471524D01*
X163512810Y-64547714D01*
X163550906Y-64585810D01*
X163627096Y-64623905D01*
X163779477Y-64623905D01*
X163855668Y-64585810D01*
X163893763Y-64547714D01*
X163931858Y-64471524D01*
X163931858Y-63823905D01*
X164312810Y-64319143D02*
X164922334Y-64319143D01*
X165760429Y-64547714D02*
X165722334Y-64585810D01*
X165608048Y-64623905D01*
X165531858Y-64623905D01*
X165417572Y-64585810D01*
X165341381Y-64509619D01*
X165303286Y-64433429D01*
X165265191Y-64281048D01*
X165265191Y-64166762D01*
X165303286Y-64014381D01*
X165341381Y-63938190D01*
X165417572Y-63862000D01*
X165531858Y-63823905D01*
X165608048Y-63823905D01*
X165722334Y-63862000D01*
X165760429Y-63900095D01*
X166103286Y-64623905D02*
X166103286Y-63823905D01*
X166446143Y-64395333D02*
X166827095Y-64395333D01*
X166369952Y-64623905D02*
X166636619Y-63823905D01*
X166903286Y-64623905D01*
X167131857Y-64395333D02*
X167512809Y-64395333D01*
X167055666Y-64623905D02*
X167322333Y-63823905D01*
X167589000Y-64623905D01*
X167855666Y-64319143D02*
X168465190Y-64319143D01*
X168846142Y-64623905D02*
X168846142Y-63823905D01*
X169150904Y-63823905D01*
X169227095Y-63862000D01*
X169265190Y-63900095D01*
X169303285Y-63976286D01*
X169303285Y-64090571D01*
X169265190Y-64166762D01*
X169227095Y-64204857D01*
X169150904Y-64242952D01*
X168846142Y-64242952D01*
X170065190Y-64623905D02*
X169608047Y-64623905D01*
X169836618Y-64623905D02*
X169836618Y-63823905D01*
X169760428Y-63938190D01*
X169684237Y-64014381D01*
X169608047Y-64052476D01*
D14*
X161051381Y-68674905D02*
X161860905Y-68674905D01*
X161956143Y-68627286D01*
X162003762Y-68579667D01*
X162051381Y-68484429D01*
X162051381Y-68293952D01*
X162003762Y-68198714D01*
X161956143Y-68151095D01*
X161860905Y-68103476D01*
X161051381Y-68103476D01*
X162051381Y-67103476D02*
X162051381Y-67674905D01*
X162051381Y-67389191D02*
X161051381Y-67389191D01*
X161194238Y-67484429D01*
X161289476Y-67579667D01*
X161337095Y-67674905D01*
X157059334Y-71747143D02*
X157011715Y-71794762D01*
X156868858Y-71842381D01*
X156773620Y-71842381D01*
X156630762Y-71794762D01*
X156535524Y-71699524D01*
X156487905Y-71604286D01*
X156440286Y-71413810D01*
X156440286Y-71270952D01*
X156487905Y-71080476D01*
X156535524Y-70985238D01*
X156630762Y-70890000D01*
X156773620Y-70842381D01*
X156868858Y-70842381D01*
X157011715Y-70890000D01*
X157059334Y-70937619D01*
X158011715Y-71842381D02*
X157440286Y-71842381D01*
X157726000Y-71842381D02*
X157726000Y-70842381D01*
X157630762Y-70985238D01*
X157535524Y-71080476D01*
X157440286Y-71128095D01*
X159615048Y-72991429D02*
X160376953Y-72991429D01*
X159996001Y-73372381D02*
X159996001Y-72610476D01*
X135859381Y-109686905D02*
X136668905Y-109686905D01*
X136764143Y-109639286D01*
X136811762Y-109591667D01*
X136859381Y-109496429D01*
X136859381Y-109305952D01*
X136811762Y-109210714D01*
X136764143Y-109163095D01*
X136668905Y-109115476D01*
X135859381Y-109115476D01*
X135954619Y-108686905D02*
X135907000Y-108639286D01*
X135859381Y-108544048D01*
X135859381Y-108305952D01*
X135907000Y-108210714D01*
X135954619Y-108163095D01*
X136049857Y-108115476D01*
X136145095Y-108115476D01*
X136287952Y-108163095D01*
X136859381Y-108734524D01*
X136859381Y-108115476D01*
X139224570Y-91495571D02*
X139557904Y-91495571D01*
X139700761Y-92019381D02*
X139224570Y-92019381D01*
X139224570Y-91019381D01*
X139700761Y-91019381D01*
X140081713Y-91971762D02*
X140176951Y-92019381D01*
X140367427Y-92019381D01*
X140462666Y-91971762D01*
X140510285Y-91876524D01*
X140510285Y-91828905D01*
X140462666Y-91733667D01*
X140367427Y-91686048D01*
X140224570Y-91686048D01*
X140129332Y-91638429D01*
X140081713Y-91543190D01*
X140081713Y-91495571D01*
X140129332Y-91400333D01*
X140224570Y-91352714D01*
X140367427Y-91352714D01*
X140462666Y-91400333D01*
X140938856Y-91352714D02*
X140938856Y-92352714D01*
X140938856Y-91400333D02*
X141034094Y-91352714D01*
X141224571Y-91352714D01*
X141319809Y-91400333D01*
X141367428Y-91447952D01*
X141415047Y-91543190D01*
X141415047Y-91828905D01*
X141367428Y-91924143D01*
X141319809Y-91971762D01*
X141224571Y-92019381D01*
X141034094Y-92019381D01*
X140938856Y-91971762D01*
X141843618Y-92019381D02*
X141843618Y-91352714D01*
X141843618Y-91543190D02*
X141891237Y-91447952D01*
X141938856Y-91400333D01*
X142034094Y-91352714D01*
X142129333Y-91352714D01*
X142843619Y-91971762D02*
X142748381Y-92019381D01*
X142557904Y-92019381D01*
X142462666Y-91971762D01*
X142415047Y-91876524D01*
X142415047Y-91495571D01*
X142462666Y-91400333D01*
X142557904Y-91352714D01*
X142748381Y-91352714D01*
X142843619Y-91400333D01*
X142891238Y-91495571D01*
X142891238Y-91590810D01*
X142415047Y-91686048D01*
X143272190Y-91971762D02*
X143367428Y-92019381D01*
X143557904Y-92019381D01*
X143653143Y-91971762D01*
X143700762Y-91876524D01*
X143700762Y-91828905D01*
X143653143Y-91733667D01*
X143557904Y-91686048D01*
X143415047Y-91686048D01*
X143319809Y-91638429D01*
X143272190Y-91543190D01*
X143272190Y-91495571D01*
X143319809Y-91400333D01*
X143415047Y-91352714D01*
X143557904Y-91352714D01*
X143653143Y-91400333D01*
X144081714Y-91971762D02*
X144176952Y-92019381D01*
X144367428Y-92019381D01*
X144462667Y-91971762D01*
X144510286Y-91876524D01*
X144510286Y-91828905D01*
X144462667Y-91733667D01*
X144367428Y-91686048D01*
X144224571Y-91686048D01*
X144129333Y-91638429D01*
X144081714Y-91543190D01*
X144081714Y-91495571D01*
X144129333Y-91400333D01*
X144224571Y-91352714D01*
X144367428Y-91352714D01*
X144462667Y-91400333D01*
X144938857Y-92019381D02*
X144938857Y-91352714D01*
X144938857Y-91019381D02*
X144891238Y-91067000D01*
X144938857Y-91114619D01*
X144986476Y-91067000D01*
X144938857Y-91019381D01*
X144938857Y-91114619D01*
X145272190Y-91352714D02*
X145653142Y-91352714D01*
X145415047Y-92019381D02*
X145415047Y-91162238D01*
X145462666Y-91067000D01*
X145557904Y-91019381D01*
X145653142Y-91019381D01*
X146700762Y-91971762D02*
X146843619Y-92019381D01*
X147081715Y-92019381D01*
X147176953Y-91971762D01*
X147224572Y-91924143D01*
X147272191Y-91828905D01*
X147272191Y-91733667D01*
X147224572Y-91638429D01*
X147176953Y-91590810D01*
X147081715Y-91543190D01*
X146891238Y-91495571D01*
X146796000Y-91447952D01*
X146748381Y-91400333D01*
X146700762Y-91305095D01*
X146700762Y-91209857D01*
X146748381Y-91114619D01*
X146796000Y-91067000D01*
X146891238Y-91019381D01*
X147129334Y-91019381D01*
X147272191Y-91067000D01*
X147605524Y-91352714D02*
X147843619Y-92019381D01*
X148081715Y-91352714D02*
X147843619Y-92019381D01*
X147748381Y-92257476D01*
X147700762Y-92305095D01*
X147605524Y-92352714D01*
X148415048Y-91971762D02*
X148510286Y-92019381D01*
X148700762Y-92019381D01*
X148796001Y-91971762D01*
X148843620Y-91876524D01*
X148843620Y-91828905D01*
X148796001Y-91733667D01*
X148700762Y-91686048D01*
X148557905Y-91686048D01*
X148462667Y-91638429D01*
X148415048Y-91543190D01*
X148415048Y-91495571D01*
X148462667Y-91400333D01*
X148557905Y-91352714D01*
X148700762Y-91352714D01*
X148796001Y-91400333D01*
X149129334Y-91352714D02*
X149510286Y-91352714D01*
X149272191Y-91019381D02*
X149272191Y-91876524D01*
X149319810Y-91971762D01*
X149415048Y-92019381D01*
X149510286Y-92019381D01*
X150224573Y-91971762D02*
X150129335Y-92019381D01*
X149938858Y-92019381D01*
X149843620Y-91971762D01*
X149796001Y-91876524D01*
X149796001Y-91495571D01*
X149843620Y-91400333D01*
X149938858Y-91352714D01*
X150129335Y-91352714D01*
X150224573Y-91400333D01*
X150272192Y-91495571D01*
X150272192Y-91590810D01*
X149796001Y-91686048D01*
X150700763Y-92019381D02*
X150700763Y-91352714D01*
X150700763Y-91447952D02*
X150748382Y-91400333D01*
X150843620Y-91352714D01*
X150986478Y-91352714D01*
X151081716Y-91400333D01*
X151129335Y-91495571D01*
X151129335Y-92019381D01*
X151129335Y-91495571D02*
X151176954Y-91400333D01*
X151272192Y-91352714D01*
X151415049Y-91352714D01*
X151510287Y-91400333D01*
X151557906Y-91495571D01*
X151557906Y-92019381D01*
X151986477Y-91971762D02*
X152081715Y-92019381D01*
X152272191Y-92019381D01*
X152367430Y-91971762D01*
X152415049Y-91876524D01*
X152415049Y-91828905D01*
X152367430Y-91733667D01*
X152272191Y-91686048D01*
X152129334Y-91686048D01*
X152034096Y-91638429D01*
X151986477Y-91543190D01*
X151986477Y-91495571D01*
X152034096Y-91400333D01*
X152129334Y-91352714D01*
X152272191Y-91352714D01*
X152367430Y-91400333D01*
X139200619Y-93146571D02*
X139533953Y-93146571D01*
X139676810Y-93670381D02*
X139200619Y-93670381D01*
X139200619Y-92670381D01*
X139676810Y-92670381D01*
X140057762Y-93622762D02*
X140200619Y-93670381D01*
X140438715Y-93670381D01*
X140533953Y-93622762D01*
X140581572Y-93575143D01*
X140629191Y-93479905D01*
X140629191Y-93384667D01*
X140581572Y-93289429D01*
X140533953Y-93241810D01*
X140438715Y-93194190D01*
X140248238Y-93146571D01*
X140153000Y-93098952D01*
X140105381Y-93051333D01*
X140057762Y-92956095D01*
X140057762Y-92860857D01*
X140105381Y-92765619D01*
X140153000Y-92718000D01*
X140248238Y-92670381D01*
X140486334Y-92670381D01*
X140629191Y-92718000D01*
X141057762Y-93670381D02*
X141057762Y-92670381D01*
X141438715Y-92670381D01*
X141533953Y-92718000D01*
X141581572Y-92765619D01*
X141629191Y-92860857D01*
X141629191Y-93003714D01*
X141581572Y-93098952D01*
X141533953Y-93146571D01*
X141438715Y-93194190D01*
X141057762Y-93194190D01*
X141962524Y-92670381D02*
X142581572Y-92670381D01*
X142248238Y-93051333D01*
X142391096Y-93051333D01*
X142486334Y-93098952D01*
X142533953Y-93146571D01*
X142581572Y-93241810D01*
X142581572Y-93479905D01*
X142533953Y-93575143D01*
X142486334Y-93622762D01*
X142391096Y-93670381D01*
X142105381Y-93670381D01*
X142010143Y-93622762D01*
X141962524Y-93575143D01*
X142962524Y-92765619D02*
X143010143Y-92718000D01*
X143105381Y-92670381D01*
X143343477Y-92670381D01*
X143438715Y-92718000D01*
X143486334Y-92765619D01*
X143533953Y-92860857D01*
X143533953Y-92956095D01*
X143486334Y-93098952D01*
X142914905Y-93670381D01*
X143533953Y-93670381D01*
X143962524Y-93289429D02*
X144724429Y-93289429D01*
X145105381Y-92670381D02*
X145343476Y-93670381D01*
X145533953Y-92956095D01*
X145724429Y-93670381D01*
X145962524Y-92670381D01*
X146914905Y-93670381D02*
X146581571Y-93194190D01*
X146343476Y-93670381D02*
X146343476Y-92670381D01*
X146724429Y-92670381D01*
X146819667Y-92718000D01*
X146867286Y-92765619D01*
X146914905Y-92860857D01*
X146914905Y-93003714D01*
X146867286Y-93098952D01*
X146819667Y-93146571D01*
X146724429Y-93194190D01*
X146343476Y-93194190D01*
X147533952Y-92670381D02*
X147724429Y-92670381D01*
X147819667Y-92718000D01*
X147914905Y-92813238D01*
X147962524Y-93003714D01*
X147962524Y-93337048D01*
X147914905Y-93527524D01*
X147819667Y-93622762D01*
X147724429Y-93670381D01*
X147533952Y-93670381D01*
X147438714Y-93622762D01*
X147343476Y-93527524D01*
X147295857Y-93337048D01*
X147295857Y-93003714D01*
X147343476Y-92813238D01*
X147438714Y-92718000D01*
X147533952Y-92670381D01*
X148581571Y-92670381D02*
X148772048Y-92670381D01*
X148867286Y-92718000D01*
X148962524Y-92813238D01*
X149010143Y-93003714D01*
X149010143Y-93337048D01*
X148962524Y-93527524D01*
X148867286Y-93622762D01*
X148772048Y-93670381D01*
X148581571Y-93670381D01*
X148486333Y-93622762D01*
X148391095Y-93527524D01*
X148343476Y-93337048D01*
X148343476Y-93003714D01*
X148391095Y-92813238D01*
X148486333Y-92718000D01*
X148581571Y-92670381D01*
X149438714Y-93670381D02*
X149438714Y-92670381D01*
X149772048Y-93384667D01*
X150105381Y-92670381D01*
X150105381Y-93670381D01*
X139676143Y-117839666D02*
X139723762Y-117887285D01*
X139771381Y-118030142D01*
X139771381Y-118125380D01*
X139723762Y-118268238D01*
X139628524Y-118363476D01*
X139533286Y-118411095D01*
X139342810Y-118458714D01*
X139199952Y-118458714D01*
X139009476Y-118411095D01*
X138914238Y-118363476D01*
X138819000Y-118268238D01*
X138771381Y-118125380D01*
X138771381Y-118030142D01*
X138819000Y-117887285D01*
X138866619Y-117839666D01*
X138771381Y-117506333D02*
X138771381Y-116887285D01*
X139152333Y-117220619D01*
X139152333Y-117077761D01*
X139199952Y-116982523D01*
X139247571Y-116934904D01*
X139342810Y-116887285D01*
X139580905Y-116887285D01*
X139676143Y-116934904D01*
X139723762Y-116982523D01*
X139771381Y-117077761D01*
X139771381Y-117363476D01*
X139723762Y-117458714D01*
X139676143Y-117506333D01*
X142597143Y-117839666D02*
X142644762Y-117887285D01*
X142692381Y-118030142D01*
X142692381Y-118125380D01*
X142644762Y-118268238D01*
X142549524Y-118363476D01*
X142454286Y-118411095D01*
X142263810Y-118458714D01*
X142120952Y-118458714D01*
X141930476Y-118411095D01*
X141835238Y-118363476D01*
X141740000Y-118268238D01*
X141692381Y-118125380D01*
X141692381Y-118030142D01*
X141740000Y-117887285D01*
X141787619Y-117839666D01*
X142025714Y-116982523D02*
X142692381Y-116982523D01*
X141644762Y-117220619D02*
X142359048Y-117458714D01*
X142359048Y-116839666D01*
X145573334Y-111069381D02*
X145240000Y-110593190D01*
X145001905Y-111069381D02*
X145001905Y-110069381D01*
X145382858Y-110069381D01*
X145478096Y-110117000D01*
X145525715Y-110164619D01*
X145573334Y-110259857D01*
X145573334Y-110402714D01*
X145525715Y-110497952D01*
X145478096Y-110545571D01*
X145382858Y-110593190D01*
X145001905Y-110593190D01*
X146525715Y-111069381D02*
X145954286Y-111069381D01*
X146240000Y-111069381D02*
X146240000Y-110069381D01*
X146144762Y-110212238D01*
X146049524Y-110307476D01*
X145954286Y-110355095D01*
X161234381Y-109950666D02*
X160758190Y-110284000D01*
X161234381Y-110522095D02*
X160234381Y-110522095D01*
X160234381Y-110141142D01*
X160282000Y-110045904D01*
X160329619Y-109998285D01*
X160424857Y-109950666D01*
X160567714Y-109950666D01*
X160662952Y-109998285D01*
X160710571Y-110045904D01*
X160758190Y-110141142D01*
X160758190Y-110522095D01*
X160329619Y-109569714D02*
X160282000Y-109522095D01*
X160234381Y-109426857D01*
X160234381Y-109188761D01*
X160282000Y-109093523D01*
X160329619Y-109045904D01*
X160424857Y-108998285D01*
X160520095Y-108998285D01*
X160662952Y-109045904D01*
X161234381Y-109617333D01*
X161234381Y-108998285D01*
X158694381Y-109950666D02*
X158218190Y-110284000D01*
X158694381Y-110522095D02*
X157694381Y-110522095D01*
X157694381Y-110141142D01*
X157742000Y-110045904D01*
X157789619Y-109998285D01*
X157884857Y-109950666D01*
X158027714Y-109950666D01*
X158122952Y-109998285D01*
X158170571Y-110045904D01*
X158218190Y-110141142D01*
X158218190Y-110522095D01*
X157694381Y-109617333D02*
X157694381Y-108998285D01*
X158075333Y-109331619D01*
X158075333Y-109188761D01*
X158122952Y-109093523D01*
X158170571Y-109045904D01*
X158265810Y-108998285D01*
X158503905Y-108998285D01*
X158599143Y-109045904D01*
X158646762Y-109093523D01*
X158694381Y-109188761D01*
X158694381Y-109474476D01*
X158646762Y-109569714D01*
X158599143Y-109617333D01*
X156154381Y-109950666D02*
X155678190Y-110284000D01*
X156154381Y-110522095D02*
X155154381Y-110522095D01*
X155154381Y-110141142D01*
X155202000Y-110045904D01*
X155249619Y-109998285D01*
X155344857Y-109950666D01*
X155487714Y-109950666D01*
X155582952Y-109998285D01*
X155630571Y-110045904D01*
X155678190Y-110141142D01*
X155678190Y-110522095D01*
X155487714Y-109093523D02*
X156154381Y-109093523D01*
X155106762Y-109331619D02*
X155821048Y-109569714D01*
X155821048Y-108950666D01*
X153614381Y-109950666D02*
X153138190Y-110284000D01*
X153614381Y-110522095D02*
X152614381Y-110522095D01*
X152614381Y-110141142D01*
X152662000Y-110045904D01*
X152709619Y-109998285D01*
X152804857Y-109950666D01*
X152947714Y-109950666D01*
X153042952Y-109998285D01*
X153090571Y-110045904D01*
X153138190Y-110141142D01*
X153138190Y-110522095D01*
X152614381Y-109045904D02*
X152614381Y-109522095D01*
X153090571Y-109569714D01*
X153042952Y-109522095D01*
X152995333Y-109426857D01*
X152995333Y-109188761D01*
X153042952Y-109093523D01*
X153090571Y-109045904D01*
X153185810Y-108998285D01*
X153423905Y-108998285D01*
X153519143Y-109045904D01*
X153566762Y-109093523D01*
X153614381Y-109188761D01*
X153614381Y-109426857D01*
X153566762Y-109522095D01*
X153519143Y-109569714D01*
X157059334Y-78605143D02*
X157011715Y-78652762D01*
X156868858Y-78700381D01*
X156773620Y-78700381D01*
X156630762Y-78652762D01*
X156535524Y-78557524D01*
X156487905Y-78462286D01*
X156440286Y-78271810D01*
X156440286Y-78128952D01*
X156487905Y-77938476D01*
X156535524Y-77843238D01*
X156630762Y-77748000D01*
X156773620Y-77700381D01*
X156868858Y-77700381D01*
X157011715Y-77748000D01*
X157059334Y-77795619D01*
X157440286Y-77795619D02*
X157487905Y-77748000D01*
X157583143Y-77700381D01*
X157821239Y-77700381D01*
X157916477Y-77748000D01*
X157964096Y-77795619D01*
X158011715Y-77890857D01*
X158011715Y-77986095D01*
X157964096Y-78128952D01*
X157392667Y-78700381D01*
X158011715Y-78700381D01*
X159615048Y-79849429D02*
X160376953Y-79849429D01*
X159996001Y-80230381D02*
X159996001Y-79468476D01*
M02*
