%FSLAX45Y45*%
G04 Gerber Fmt 4.5, Leading zero omitted, Abs format (unit mm)*
G04 Created by KiCad (PCBNEW 4.0.6) date 09/07/17 10:38:34*
%MOMM*%
%LPD*%
G01*
G04 APERTURE LIST*
%ADD10C,0.127000*%
%ADD11C,0.150000*%
%ADD12C,0.200000*%
%ADD13C,0.300000*%
G04 APERTURE END LIST*
D10*
D11*
X12928600Y-11747500D02*
X12928600Y-5651500D01*
X16992600Y-11747500D02*
X12928600Y-11747500D01*
X16992600Y-5651500D02*
X16992600Y-11747500D01*
X12928600Y-5651500D02*
X16992600Y-5651500D01*
D12*
X13668300Y-7705650D02*
X13738300Y-7775650D01*
X13738300Y-7705650D02*
X13668300Y-7775650D01*
X13687350Y-8778800D02*
X13757350Y-8848800D01*
X13757350Y-8778800D02*
X13687350Y-8848800D01*
X13731800Y-7254800D02*
X13801800Y-7324800D01*
X13801800Y-7254800D02*
X13731800Y-7324800D01*
X13833400Y-7712000D02*
X13903400Y-7782000D01*
X13903400Y-7712000D02*
X13833400Y-7782000D01*
X13833400Y-8778800D02*
X13903400Y-8848800D01*
X13903400Y-8778800D02*
X13833400Y-8848800D01*
X14633500Y-10372650D02*
X14703500Y-10442650D01*
X14703500Y-10372650D02*
X14633500Y-10442650D01*
X14728750Y-10594900D02*
X14798750Y-10664900D01*
X14798750Y-10594900D02*
X14728750Y-10664900D01*
X14836700Y-8791500D02*
X14906700Y-8861500D01*
X14906700Y-8791500D02*
X14836700Y-8861500D01*
X15103400Y-8791500D02*
X15173400Y-8861500D01*
X15173400Y-8791500D02*
X15103400Y-8861500D01*
X15109750Y-10379000D02*
X15179750Y-10449000D01*
X15179750Y-10379000D02*
X15109750Y-10449000D01*
X15255800Y-10613950D02*
X15325800Y-10683950D01*
X15325800Y-10613950D02*
X15255800Y-10683950D01*
X15319300Y-8626400D02*
X15389300Y-8696400D01*
X15389300Y-8626400D02*
X15319300Y-8696400D01*
X15446300Y-7521500D02*
X15516300Y-7591500D01*
X15516300Y-7521500D02*
X15446300Y-7591500D01*
X15586000Y-6181650D02*
X15656000Y-6251650D01*
X15656000Y-6181650D02*
X15586000Y-6251650D01*
X15789200Y-7242100D02*
X15859200Y-7312100D01*
X15859200Y-7242100D02*
X15789200Y-7312100D01*
X15903500Y-6988100D02*
X15973500Y-7058100D01*
X15973500Y-6988100D02*
X15903500Y-7058100D01*
X13194500Y-6731000D02*
G75*
G03X13194500Y-6731000I-50000J0D01*
G01*
X13194500Y-6985000D02*
G75*
G03X13194500Y-6985000I-50000J0D01*
G01*
X13448500Y-6731000D02*
G75*
G03X13448500Y-6731000I-50000J0D01*
G01*
X13448500Y-6985000D02*
G75*
G03X13448500Y-6985000I-50000J0D01*
G01*
X13702500Y-6731000D02*
G75*
G03X13702500Y-6731000I-50000J0D01*
G01*
X13702500Y-6985000D02*
G75*
G03X13702500Y-6985000I-50000J0D01*
G01*
X13956500Y-6731000D02*
G75*
G03X13956500Y-6731000I-50000J0D01*
G01*
X13956500Y-6985000D02*
G75*
G03X13956500Y-6985000I-50000J0D01*
G01*
X14210500Y-6731000D02*
G75*
G03X14210500Y-6731000I-50000J0D01*
G01*
X14210500Y-6985000D02*
G75*
G03X14210500Y-6985000I-50000J0D01*
G01*
X14591500Y-6883400D02*
G75*
G03X14591500Y-6883400I-50000J0D01*
G01*
X14591500Y-7239000D02*
G75*
G03X14591500Y-7239000I-50000J0D01*
G01*
X14591500Y-7594600D02*
G75*
G03X14591500Y-7594600I-50000J0D01*
G01*
X14845500Y-6883400D02*
G75*
G03X14845500Y-6883400I-50000J0D01*
G01*
X14845500Y-7239000D02*
G75*
G03X14845500Y-7239000I-50000J0D01*
G01*
X14845500Y-7594600D02*
G75*
G03X14845500Y-7594600I-50000J0D01*
G01*
X15099500Y-6883400D02*
G75*
G03X15099500Y-6883400I-50000J0D01*
G01*
X15099500Y-7239000D02*
G75*
G03X15099500Y-7239000I-50000J0D01*
G01*
X15099500Y-7594600D02*
G75*
G03X15099500Y-7594600I-50000J0D01*
G01*
X16167100Y-6235700D02*
X16167100Y-6337300D01*
X16116300Y-6286500D02*
X16217900Y-6286500D01*
X16167100Y-6489700D02*
X16167100Y-6591300D01*
X16116300Y-6540500D02*
X16217900Y-6540500D01*
X16167100Y-6743700D02*
X16167100Y-6845300D01*
X16116300Y-6794500D02*
X16217900Y-6794500D01*
X16167100Y-6997700D02*
X16167100Y-7099300D01*
X16116300Y-7048500D02*
X16217900Y-7048500D01*
X16167100Y-7251700D02*
X16167100Y-7353300D01*
X16116300Y-7302500D02*
X16217900Y-7302500D01*
X16167100Y-7505700D02*
X16167100Y-7607300D01*
X16116300Y-7556500D02*
X16217900Y-7556500D01*
X16167100Y-7759700D02*
X16167100Y-7861300D01*
X16116300Y-7810500D02*
X16217900Y-7810500D01*
X16167100Y-8013700D02*
X16167100Y-8115300D01*
X16116300Y-8064500D02*
X16217900Y-8064500D01*
X16167100Y-8267700D02*
X16167100Y-8369300D01*
X16116300Y-8318500D02*
X16217900Y-8318500D01*
X16167100Y-8521700D02*
X16167100Y-8623300D01*
X16116300Y-8572500D02*
X16217900Y-8572500D01*
X16167100Y-8775700D02*
X16167100Y-8877300D01*
X16116300Y-8826500D02*
X16217900Y-8826500D01*
X16167100Y-9029700D02*
X16167100Y-9131300D01*
X16116300Y-9080500D02*
X16217900Y-9080500D01*
X16167100Y-9283700D02*
X16167100Y-9385300D01*
X16116300Y-9334500D02*
X16217900Y-9334500D01*
X16167100Y-9537700D02*
X16167100Y-9639300D01*
X16116300Y-9588500D02*
X16217900Y-9588500D01*
X16167100Y-9791700D02*
X16167100Y-9893300D01*
X16116300Y-9842500D02*
X16217900Y-9842500D01*
X16167100Y-10045700D02*
X16167100Y-10147300D01*
X16116300Y-10096500D02*
X16217900Y-10096500D01*
X16167100Y-10299700D02*
X16167100Y-10401300D01*
X16116300Y-10350500D02*
X16217900Y-10350500D01*
X16167100Y-10553700D02*
X16167100Y-10655300D01*
X16116300Y-10604500D02*
X16217900Y-10604500D01*
X16167100Y-10807700D02*
X16167100Y-10909300D01*
X16116300Y-10858500D02*
X16217900Y-10858500D01*
X16167100Y-11061700D02*
X16167100Y-11163300D01*
X16116300Y-11112500D02*
X16217900Y-11112500D01*
X16421100Y-6235700D02*
X16421100Y-6337300D01*
X16370300Y-6286500D02*
X16471900Y-6286500D01*
X16421100Y-6489700D02*
X16421100Y-6591300D01*
X16370300Y-6540500D02*
X16471900Y-6540500D01*
X16421100Y-6743700D02*
X16421100Y-6845300D01*
X16370300Y-6794500D02*
X16471900Y-6794500D01*
X16421100Y-6997700D02*
X16421100Y-7099300D01*
X16370300Y-7048500D02*
X16471900Y-7048500D01*
X16421100Y-7251700D02*
X16421100Y-7353300D01*
X16370300Y-7302500D02*
X16471900Y-7302500D01*
X16421100Y-7505700D02*
X16421100Y-7607300D01*
X16370300Y-7556500D02*
X16471900Y-7556500D01*
X16421100Y-7759700D02*
X16421100Y-7861300D01*
X16370300Y-7810500D02*
X16471900Y-7810500D01*
X16421100Y-8013700D02*
X16421100Y-8115300D01*
X16370300Y-8064500D02*
X16471900Y-8064500D01*
X16421100Y-8267700D02*
X16421100Y-8369300D01*
X16370300Y-8318500D02*
X16471900Y-8318500D01*
X16421100Y-8521700D02*
X16421100Y-8623300D01*
X16370300Y-8572500D02*
X16471900Y-8572500D01*
X16421100Y-8775700D02*
X16421100Y-8877300D01*
X16370300Y-8826500D02*
X16471900Y-8826500D01*
X16421100Y-9029700D02*
X16421100Y-9131300D01*
X16370300Y-9080500D02*
X16471900Y-9080500D01*
X16421100Y-9283700D02*
X16421100Y-9385300D01*
X16370300Y-9334500D02*
X16471900Y-9334500D01*
X16421100Y-9537700D02*
X16421100Y-9639300D01*
X16370300Y-9588500D02*
X16471900Y-9588500D01*
X16421100Y-9791700D02*
X16421100Y-9893300D01*
X16370300Y-9842500D02*
X16471900Y-9842500D01*
X16421100Y-10045700D02*
X16421100Y-10147300D01*
X16370300Y-10096500D02*
X16471900Y-10096500D01*
X16421100Y-10299700D02*
X16421100Y-10401300D01*
X16370300Y-10350500D02*
X16471900Y-10350500D01*
X16421100Y-10553700D02*
X16421100Y-10655300D01*
X16370300Y-10604500D02*
X16471900Y-10604500D01*
X16421100Y-10807700D02*
X16421100Y-10909300D01*
X16370300Y-10858500D02*
X16471900Y-10858500D01*
X16421100Y-11061700D02*
X16421100Y-11163300D01*
X16370300Y-11112500D02*
X16471900Y-11112500D01*
X15122630Y-11345650D02*
X15122630Y-11250190D01*
X15027170Y-11250190D01*
X15027170Y-11345650D01*
X15122630Y-11345650D01*
X14820900Y-11118920D02*
X14895900Y-11043920D01*
X14820900Y-10968920D01*
X14745900Y-11043920D01*
X14820900Y-11118920D01*
X14820900Y-11626920D02*
X14895900Y-11551920D01*
X14820900Y-11476920D01*
X14745900Y-11551920D01*
X14820900Y-11626920D01*
X15328900Y-11118920D02*
X15403900Y-11043920D01*
X15328900Y-10968920D01*
X15253900Y-11043920D01*
X15328900Y-11118920D01*
X15328900Y-11626920D02*
X15403900Y-11551920D01*
X15328900Y-11476920D01*
X15253900Y-11551920D01*
X15328900Y-11626920D01*
X13007600Y-10975600D02*
X13357600Y-11325600D01*
X13357600Y-10975600D02*
X13007600Y-11325600D01*
X13357600Y-11150600D02*
G75*
G03X13357600Y-11150600I-175000J0D01*
G01*
X14163300Y-10975600D02*
X14513300Y-11325600D01*
X14513300Y-10975600D02*
X14163300Y-11325600D01*
X14513300Y-11150600D02*
G75*
G03X14513300Y-11150600I-175000J0D01*
G01*
D13*
X13192528Y-12220714D02*
X13192528Y-11920714D01*
X13263957Y-11920714D01*
X13306814Y-11935000D01*
X13335386Y-11963571D01*
X13349671Y-11992143D01*
X13363957Y-12049286D01*
X13363957Y-12092143D01*
X13349671Y-12149286D01*
X13335386Y-12177857D01*
X13306814Y-12206429D01*
X13263957Y-12220714D01*
X13192528Y-12220714D01*
X13492528Y-12220714D02*
X13492528Y-12020714D01*
X13492528Y-12077857D02*
X13506814Y-12049286D01*
X13521100Y-12035000D01*
X13549671Y-12020714D01*
X13578243Y-12020714D01*
X13678243Y-12220714D02*
X13678243Y-12020714D01*
X13678243Y-11920714D02*
X13663957Y-11935000D01*
X13678243Y-11949286D01*
X13692528Y-11935000D01*
X13678243Y-11920714D01*
X13678243Y-11949286D01*
X13863957Y-12220714D02*
X13835386Y-12206429D01*
X13821100Y-12177857D01*
X13821100Y-11920714D01*
X14021100Y-12220714D02*
X13992528Y-12206429D01*
X13978243Y-12177857D01*
X13978243Y-11920714D01*
X14363957Y-12220714D02*
X14363957Y-11920714D01*
X14463957Y-12135000D01*
X14563957Y-11920714D01*
X14563957Y-12220714D01*
X14835386Y-12220714D02*
X14835386Y-12063571D01*
X14821100Y-12035000D01*
X14792528Y-12020714D01*
X14735386Y-12020714D01*
X14706814Y-12035000D01*
X14835386Y-12206429D02*
X14806814Y-12220714D01*
X14735386Y-12220714D01*
X14706814Y-12206429D01*
X14692528Y-12177857D01*
X14692528Y-12149286D01*
X14706814Y-12120714D01*
X14735386Y-12106429D01*
X14806814Y-12106429D01*
X14835386Y-12092143D01*
X14978243Y-12020714D02*
X14978243Y-12320714D01*
X14978243Y-12035000D02*
X15006814Y-12020714D01*
X15063957Y-12020714D01*
X15092528Y-12035000D01*
X15106814Y-12049286D01*
X15121100Y-12077857D01*
X15121100Y-12163571D01*
X15106814Y-12192143D01*
X15092528Y-12206429D01*
X15063957Y-12220714D01*
X15006814Y-12220714D01*
X14978243Y-12206429D01*
X15249671Y-12192143D02*
X15263957Y-12206429D01*
X15249671Y-12220714D01*
X15235386Y-12206429D01*
X15249671Y-12192143D01*
X15249671Y-12220714D01*
X15249671Y-12035000D02*
X15263957Y-12049286D01*
X15249671Y-12063571D01*
X15235386Y-12049286D01*
X15249671Y-12035000D01*
X15249671Y-12063571D01*
X12851100Y-12680000D02*
X12921100Y-12750000D01*
X12921100Y-12680000D02*
X12851100Y-12750000D01*
X13249671Y-12550714D02*
X13278243Y-12550714D01*
X13306814Y-12565000D01*
X13321100Y-12579286D01*
X13335386Y-12607857D01*
X13349671Y-12665000D01*
X13349671Y-12736429D01*
X13335386Y-12793571D01*
X13321100Y-12822143D01*
X13306814Y-12836429D01*
X13278243Y-12850714D01*
X13249671Y-12850714D01*
X13221100Y-12836429D01*
X13206814Y-12822143D01*
X13192528Y-12793571D01*
X13178243Y-12736429D01*
X13178243Y-12665000D01*
X13192528Y-12607857D01*
X13206814Y-12579286D01*
X13221100Y-12565000D01*
X13249671Y-12550714D01*
X13478243Y-12822143D02*
X13492528Y-12836429D01*
X13478243Y-12850714D01*
X13463957Y-12836429D01*
X13478243Y-12822143D01*
X13478243Y-12850714D01*
X13592528Y-12550714D02*
X13792528Y-12550714D01*
X13663957Y-12850714D01*
X13963957Y-12550714D02*
X13992528Y-12550714D01*
X14021100Y-12565000D01*
X14035386Y-12579286D01*
X14049671Y-12607857D01*
X14063957Y-12665000D01*
X14063957Y-12736429D01*
X14049671Y-12793571D01*
X14035386Y-12822143D01*
X14021100Y-12836429D01*
X13992528Y-12850714D01*
X13963957Y-12850714D01*
X13935386Y-12836429D01*
X13921100Y-12822143D01*
X13906814Y-12793571D01*
X13892528Y-12736429D01*
X13892528Y-12665000D01*
X13906814Y-12607857D01*
X13921100Y-12579286D01*
X13935386Y-12565000D01*
X13963957Y-12550714D01*
X14192528Y-12850714D02*
X14192528Y-12650714D01*
X14192528Y-12679286D02*
X14206814Y-12665000D01*
X14235386Y-12650714D01*
X14278243Y-12650714D01*
X14306814Y-12665000D01*
X14321100Y-12693571D01*
X14321100Y-12850714D01*
X14321100Y-12693571D02*
X14335386Y-12665000D01*
X14363957Y-12650714D01*
X14406814Y-12650714D01*
X14435386Y-12665000D01*
X14449671Y-12693571D01*
X14449671Y-12850714D01*
X14592528Y-12850714D02*
X14592528Y-12650714D01*
X14592528Y-12679286D02*
X14606814Y-12665000D01*
X14635386Y-12650714D01*
X14678243Y-12650714D01*
X14706814Y-12665000D01*
X14721100Y-12693571D01*
X14721100Y-12850714D01*
X14721100Y-12693571D02*
X14735386Y-12665000D01*
X14763957Y-12650714D01*
X14806814Y-12650714D01*
X14835386Y-12665000D01*
X14849671Y-12693571D01*
X14849671Y-12850714D01*
X15435386Y-12536429D02*
X15178243Y-12922143D01*
X15821100Y-12550714D02*
X15849671Y-12550714D01*
X15878243Y-12565000D01*
X15892528Y-12579286D01*
X15906814Y-12607857D01*
X15921100Y-12665000D01*
X15921100Y-12736429D01*
X15906814Y-12793571D01*
X15892528Y-12822143D01*
X15878243Y-12836429D01*
X15849671Y-12850714D01*
X15821100Y-12850714D01*
X15792528Y-12836429D01*
X15778243Y-12822143D01*
X15763957Y-12793571D01*
X15749671Y-12736429D01*
X15749671Y-12665000D01*
X15763957Y-12607857D01*
X15778243Y-12579286D01*
X15792528Y-12565000D01*
X15821100Y-12550714D01*
X16049671Y-12822143D02*
X16063957Y-12836429D01*
X16049671Y-12850714D01*
X16035386Y-12836429D01*
X16049671Y-12822143D01*
X16049671Y-12850714D01*
X16249671Y-12550714D02*
X16278243Y-12550714D01*
X16306814Y-12565000D01*
X16321100Y-12579286D01*
X16335385Y-12607857D01*
X16349671Y-12665000D01*
X16349671Y-12736429D01*
X16335385Y-12793571D01*
X16321100Y-12822143D01*
X16306814Y-12836429D01*
X16278243Y-12850714D01*
X16249671Y-12850714D01*
X16221100Y-12836429D01*
X16206814Y-12822143D01*
X16192528Y-12793571D01*
X16178243Y-12736429D01*
X16178243Y-12665000D01*
X16192528Y-12607857D01*
X16206814Y-12579286D01*
X16221100Y-12565000D01*
X16249671Y-12550714D01*
X16463957Y-12579286D02*
X16478243Y-12565000D01*
X16506814Y-12550714D01*
X16578243Y-12550714D01*
X16606814Y-12565000D01*
X16621100Y-12579286D01*
X16635385Y-12607857D01*
X16635385Y-12636429D01*
X16621100Y-12679286D01*
X16449671Y-12850714D01*
X16635385Y-12850714D01*
X16806814Y-12679286D02*
X16778243Y-12665000D01*
X16763957Y-12650714D01*
X16749671Y-12622143D01*
X16749671Y-12607857D01*
X16763957Y-12579286D01*
X16778243Y-12565000D01*
X16806814Y-12550714D01*
X16863957Y-12550714D01*
X16892528Y-12565000D01*
X16906814Y-12579286D01*
X16921100Y-12607857D01*
X16921100Y-12622143D01*
X16906814Y-12650714D01*
X16892528Y-12665000D01*
X16863957Y-12679286D01*
X16806814Y-12679286D01*
X16778243Y-12693571D01*
X16763957Y-12707857D01*
X16749671Y-12736429D01*
X16749671Y-12793571D01*
X16763957Y-12822143D01*
X16778243Y-12836429D01*
X16806814Y-12850714D01*
X16863957Y-12850714D01*
X16892528Y-12836429D01*
X16906814Y-12822143D01*
X16921100Y-12793571D01*
X16921100Y-12736429D01*
X16906814Y-12707857D01*
X16892528Y-12693571D01*
X16863957Y-12679286D01*
X17035386Y-12550714D02*
X17035386Y-12607857D01*
X17149671Y-12550714D02*
X17149671Y-12607857D01*
X17592528Y-12965000D02*
X17578243Y-12950714D01*
X17549671Y-12907857D01*
X17535386Y-12879286D01*
X17521100Y-12836429D01*
X17506814Y-12765000D01*
X17506814Y-12707857D01*
X17521100Y-12636429D01*
X17535386Y-12593571D01*
X17549671Y-12565000D01*
X17578243Y-12522143D01*
X17592528Y-12507857D01*
X17863957Y-12850714D02*
X17692528Y-12850714D01*
X17778243Y-12850714D02*
X17778243Y-12550714D01*
X17749671Y-12593571D01*
X17721100Y-12622143D01*
X17692528Y-12636429D01*
X18121100Y-12550714D02*
X18063957Y-12550714D01*
X18035386Y-12565000D01*
X18021100Y-12579286D01*
X17992528Y-12622143D01*
X17978243Y-12679286D01*
X17978243Y-12793571D01*
X17992528Y-12822143D01*
X18006814Y-12836429D01*
X18035386Y-12850714D01*
X18092528Y-12850714D01*
X18121100Y-12836429D01*
X18135386Y-12822143D01*
X18149671Y-12793571D01*
X18149671Y-12722143D01*
X18135386Y-12693571D01*
X18121100Y-12679286D01*
X18092528Y-12665000D01*
X18035386Y-12665000D01*
X18006814Y-12679286D01*
X17992528Y-12693571D01*
X17978243Y-12722143D01*
X18506814Y-12850714D02*
X18506814Y-12550714D01*
X18635386Y-12850714D02*
X18635386Y-12693571D01*
X18621100Y-12665000D01*
X18592528Y-12650714D01*
X18549671Y-12650714D01*
X18521100Y-12665000D01*
X18506814Y-12679286D01*
X18821100Y-12850714D02*
X18792528Y-12836429D01*
X18778243Y-12822143D01*
X18763957Y-12793571D01*
X18763957Y-12707857D01*
X18778243Y-12679286D01*
X18792528Y-12665000D01*
X18821100Y-12650714D01*
X18863957Y-12650714D01*
X18892528Y-12665000D01*
X18906814Y-12679286D01*
X18921100Y-12707857D01*
X18921100Y-12793571D01*
X18906814Y-12822143D01*
X18892528Y-12836429D01*
X18863957Y-12850714D01*
X18821100Y-12850714D01*
X19092528Y-12850714D02*
X19063957Y-12836429D01*
X19049671Y-12807857D01*
X19049671Y-12550714D01*
X19321100Y-12836429D02*
X19292529Y-12850714D01*
X19235386Y-12850714D01*
X19206814Y-12836429D01*
X19192529Y-12807857D01*
X19192529Y-12693571D01*
X19206814Y-12665000D01*
X19235386Y-12650714D01*
X19292529Y-12650714D01*
X19321100Y-12665000D01*
X19335386Y-12693571D01*
X19335386Y-12722143D01*
X19192529Y-12750714D01*
X19449671Y-12836429D02*
X19478243Y-12850714D01*
X19535386Y-12850714D01*
X19563957Y-12836429D01*
X19578243Y-12807857D01*
X19578243Y-12793571D01*
X19563957Y-12765000D01*
X19535386Y-12750714D01*
X19492529Y-12750714D01*
X19463957Y-12736429D01*
X19449671Y-12707857D01*
X19449671Y-12693571D01*
X19463957Y-12665000D01*
X19492529Y-12650714D01*
X19535386Y-12650714D01*
X19563957Y-12665000D01*
X19678243Y-12965000D02*
X19692529Y-12950714D01*
X19721100Y-12907857D01*
X19735386Y-12879286D01*
X19749671Y-12836429D01*
X19763957Y-12765000D01*
X19763957Y-12707857D01*
X19749671Y-12636429D01*
X19735386Y-12593571D01*
X19721100Y-12565000D01*
X19692529Y-12522143D01*
X19678243Y-12507857D01*
X12921100Y-13111000D02*
G75*
G03X12921100Y-13111000I-50000J0D01*
G01*
X13349671Y-13246714D02*
X13178243Y-13246714D01*
X13263957Y-13246714D02*
X13263957Y-12946714D01*
X13235386Y-12989571D01*
X13206814Y-13018143D01*
X13178243Y-13032429D01*
X13478243Y-13218143D02*
X13492528Y-13232429D01*
X13478243Y-13246714D01*
X13463957Y-13232429D01*
X13478243Y-13218143D01*
X13478243Y-13246714D01*
X13678243Y-12946714D02*
X13706814Y-12946714D01*
X13735386Y-12961000D01*
X13749671Y-12975286D01*
X13763957Y-13003857D01*
X13778243Y-13061000D01*
X13778243Y-13132429D01*
X13763957Y-13189571D01*
X13749671Y-13218143D01*
X13735386Y-13232429D01*
X13706814Y-13246714D01*
X13678243Y-13246714D01*
X13649671Y-13232429D01*
X13635386Y-13218143D01*
X13621100Y-13189571D01*
X13606814Y-13132429D01*
X13606814Y-13061000D01*
X13621100Y-13003857D01*
X13635386Y-12975286D01*
X13649671Y-12961000D01*
X13678243Y-12946714D01*
X13963957Y-12946714D02*
X13992528Y-12946714D01*
X14021100Y-12961000D01*
X14035386Y-12975286D01*
X14049671Y-13003857D01*
X14063957Y-13061000D01*
X14063957Y-13132429D01*
X14049671Y-13189571D01*
X14035386Y-13218143D01*
X14021100Y-13232429D01*
X13992528Y-13246714D01*
X13963957Y-13246714D01*
X13935386Y-13232429D01*
X13921100Y-13218143D01*
X13906814Y-13189571D01*
X13892528Y-13132429D01*
X13892528Y-13061000D01*
X13906814Y-13003857D01*
X13921100Y-12975286D01*
X13935386Y-12961000D01*
X13963957Y-12946714D01*
X14192528Y-13246714D02*
X14192528Y-13046714D01*
X14192528Y-13075286D02*
X14206814Y-13061000D01*
X14235386Y-13046714D01*
X14278243Y-13046714D01*
X14306814Y-13061000D01*
X14321100Y-13089571D01*
X14321100Y-13246714D01*
X14321100Y-13089571D02*
X14335386Y-13061000D01*
X14363957Y-13046714D01*
X14406814Y-13046714D01*
X14435386Y-13061000D01*
X14449671Y-13089571D01*
X14449671Y-13246714D01*
X14592528Y-13246714D02*
X14592528Y-13046714D01*
X14592528Y-13075286D02*
X14606814Y-13061000D01*
X14635386Y-13046714D01*
X14678243Y-13046714D01*
X14706814Y-13061000D01*
X14721100Y-13089571D01*
X14721100Y-13246714D01*
X14721100Y-13089571D02*
X14735386Y-13061000D01*
X14763957Y-13046714D01*
X14806814Y-13046714D01*
X14835386Y-13061000D01*
X14849671Y-13089571D01*
X14849671Y-13246714D01*
X15435386Y-12932429D02*
X15178243Y-13318143D01*
X15821100Y-12946714D02*
X15849671Y-12946714D01*
X15878243Y-12961000D01*
X15892528Y-12975286D01*
X15906814Y-13003857D01*
X15921100Y-13061000D01*
X15921100Y-13132429D01*
X15906814Y-13189571D01*
X15892528Y-13218143D01*
X15878243Y-13232429D01*
X15849671Y-13246714D01*
X15821100Y-13246714D01*
X15792528Y-13232429D01*
X15778243Y-13218143D01*
X15763957Y-13189571D01*
X15749671Y-13132429D01*
X15749671Y-13061000D01*
X15763957Y-13003857D01*
X15778243Y-12975286D01*
X15792528Y-12961000D01*
X15821100Y-12946714D01*
X16049671Y-13218143D02*
X16063957Y-13232429D01*
X16049671Y-13246714D01*
X16035386Y-13232429D01*
X16049671Y-13218143D01*
X16049671Y-13246714D01*
X16249671Y-12946714D02*
X16278243Y-12946714D01*
X16306814Y-12961000D01*
X16321100Y-12975286D01*
X16335385Y-13003857D01*
X16349671Y-13061000D01*
X16349671Y-13132429D01*
X16335385Y-13189571D01*
X16321100Y-13218143D01*
X16306814Y-13232429D01*
X16278243Y-13246714D01*
X16249671Y-13246714D01*
X16221100Y-13232429D01*
X16206814Y-13218143D01*
X16192528Y-13189571D01*
X16178243Y-13132429D01*
X16178243Y-13061000D01*
X16192528Y-13003857D01*
X16206814Y-12975286D01*
X16221100Y-12961000D01*
X16249671Y-12946714D01*
X16449671Y-12946714D02*
X16635385Y-12946714D01*
X16535385Y-13061000D01*
X16578243Y-13061000D01*
X16606814Y-13075286D01*
X16621100Y-13089571D01*
X16635385Y-13118143D01*
X16635385Y-13189571D01*
X16621100Y-13218143D01*
X16606814Y-13232429D01*
X16578243Y-13246714D01*
X16492528Y-13246714D01*
X16463957Y-13232429D01*
X16449671Y-13218143D01*
X16778243Y-13246714D02*
X16835386Y-13246714D01*
X16863957Y-13232429D01*
X16878243Y-13218143D01*
X16906814Y-13175286D01*
X16921100Y-13118143D01*
X16921100Y-13003857D01*
X16906814Y-12975286D01*
X16892528Y-12961000D01*
X16863957Y-12946714D01*
X16806814Y-12946714D01*
X16778243Y-12961000D01*
X16763957Y-12975286D01*
X16749671Y-13003857D01*
X16749671Y-13075286D01*
X16763957Y-13103857D01*
X16778243Y-13118143D01*
X16806814Y-13132429D01*
X16863957Y-13132429D01*
X16892528Y-13118143D01*
X16906814Y-13103857D01*
X16921100Y-13075286D01*
X17035386Y-12946714D02*
X17035386Y-13003857D01*
X17149671Y-12946714D02*
X17149671Y-13003857D01*
X17592528Y-13361000D02*
X17578243Y-13346714D01*
X17549671Y-13303857D01*
X17535386Y-13275286D01*
X17521100Y-13232429D01*
X17506814Y-13161000D01*
X17506814Y-13103857D01*
X17521100Y-13032429D01*
X17535386Y-12989571D01*
X17549671Y-12961000D01*
X17578243Y-12918143D01*
X17592528Y-12903857D01*
X17863957Y-13246714D02*
X17692528Y-13246714D01*
X17778243Y-13246714D02*
X17778243Y-12946714D01*
X17749671Y-12989571D01*
X17721100Y-13018143D01*
X17692528Y-13032429D01*
X18006814Y-13246714D02*
X18063957Y-13246714D01*
X18092528Y-13232429D01*
X18106814Y-13218143D01*
X18135386Y-13175286D01*
X18149671Y-13118143D01*
X18149671Y-13003857D01*
X18135386Y-12975286D01*
X18121100Y-12961000D01*
X18092528Y-12946714D01*
X18035386Y-12946714D01*
X18006814Y-12961000D01*
X17992528Y-12975286D01*
X17978243Y-13003857D01*
X17978243Y-13075286D01*
X17992528Y-13103857D01*
X18006814Y-13118143D01*
X18035386Y-13132429D01*
X18092528Y-13132429D01*
X18121100Y-13118143D01*
X18135386Y-13103857D01*
X18149671Y-13075286D01*
X18506814Y-13246714D02*
X18506814Y-12946714D01*
X18635386Y-13246714D02*
X18635386Y-13089571D01*
X18621100Y-13061000D01*
X18592528Y-13046714D01*
X18549671Y-13046714D01*
X18521100Y-13061000D01*
X18506814Y-13075286D01*
X18821100Y-13246714D02*
X18792528Y-13232429D01*
X18778243Y-13218143D01*
X18763957Y-13189571D01*
X18763957Y-13103857D01*
X18778243Y-13075286D01*
X18792528Y-13061000D01*
X18821100Y-13046714D01*
X18863957Y-13046714D01*
X18892528Y-13061000D01*
X18906814Y-13075286D01*
X18921100Y-13103857D01*
X18921100Y-13189571D01*
X18906814Y-13218143D01*
X18892528Y-13232429D01*
X18863957Y-13246714D01*
X18821100Y-13246714D01*
X19092528Y-13246714D02*
X19063957Y-13232429D01*
X19049671Y-13203857D01*
X19049671Y-12946714D01*
X19321100Y-13232429D02*
X19292529Y-13246714D01*
X19235386Y-13246714D01*
X19206814Y-13232429D01*
X19192529Y-13203857D01*
X19192529Y-13089571D01*
X19206814Y-13061000D01*
X19235386Y-13046714D01*
X19292529Y-13046714D01*
X19321100Y-13061000D01*
X19335386Y-13089571D01*
X19335386Y-13118143D01*
X19192529Y-13146714D01*
X19449671Y-13232429D02*
X19478243Y-13246714D01*
X19535386Y-13246714D01*
X19563957Y-13232429D01*
X19578243Y-13203857D01*
X19578243Y-13189571D01*
X19563957Y-13161000D01*
X19535386Y-13146714D01*
X19492529Y-13146714D01*
X19463957Y-13132429D01*
X19449671Y-13103857D01*
X19449671Y-13089571D01*
X19463957Y-13061000D01*
X19492529Y-13046714D01*
X19535386Y-13046714D01*
X19563957Y-13061000D01*
X19678243Y-13361000D02*
X19692529Y-13346714D01*
X19721100Y-13303857D01*
X19735386Y-13275286D01*
X19749671Y-13232429D01*
X19763957Y-13161000D01*
X19763957Y-13103857D01*
X19749671Y-13032429D01*
X19735386Y-12989571D01*
X19721100Y-12961000D01*
X19692529Y-12918143D01*
X19678243Y-12903857D01*
X12870300Y-13456200D02*
X12870300Y-13557800D01*
X12819500Y-13507000D02*
X12921100Y-13507000D01*
X13349671Y-13642714D02*
X13178243Y-13642714D01*
X13263957Y-13642714D02*
X13263957Y-13342714D01*
X13235386Y-13385571D01*
X13206814Y-13414143D01*
X13178243Y-13428429D01*
X13478243Y-13614143D02*
X13492528Y-13628429D01*
X13478243Y-13642714D01*
X13463957Y-13628429D01*
X13478243Y-13614143D01*
X13478243Y-13642714D01*
X13678243Y-13342714D02*
X13706814Y-13342714D01*
X13735386Y-13357000D01*
X13749671Y-13371286D01*
X13763957Y-13399857D01*
X13778243Y-13457000D01*
X13778243Y-13528429D01*
X13763957Y-13585571D01*
X13749671Y-13614143D01*
X13735386Y-13628429D01*
X13706814Y-13642714D01*
X13678243Y-13642714D01*
X13649671Y-13628429D01*
X13635386Y-13614143D01*
X13621100Y-13585571D01*
X13606814Y-13528429D01*
X13606814Y-13457000D01*
X13621100Y-13399857D01*
X13635386Y-13371286D01*
X13649671Y-13357000D01*
X13678243Y-13342714D01*
X13892528Y-13371286D02*
X13906814Y-13357000D01*
X13935386Y-13342714D01*
X14006814Y-13342714D01*
X14035386Y-13357000D01*
X14049671Y-13371286D01*
X14063957Y-13399857D01*
X14063957Y-13428429D01*
X14049671Y-13471286D01*
X13878243Y-13642714D01*
X14063957Y-13642714D01*
X14192528Y-13642714D02*
X14192528Y-13442714D01*
X14192528Y-13471286D02*
X14206814Y-13457000D01*
X14235386Y-13442714D01*
X14278243Y-13442714D01*
X14306814Y-13457000D01*
X14321100Y-13485571D01*
X14321100Y-13642714D01*
X14321100Y-13485571D02*
X14335386Y-13457000D01*
X14363957Y-13442714D01*
X14406814Y-13442714D01*
X14435386Y-13457000D01*
X14449671Y-13485571D01*
X14449671Y-13642714D01*
X14592528Y-13642714D02*
X14592528Y-13442714D01*
X14592528Y-13471286D02*
X14606814Y-13457000D01*
X14635386Y-13442714D01*
X14678243Y-13442714D01*
X14706814Y-13457000D01*
X14721100Y-13485571D01*
X14721100Y-13642714D01*
X14721100Y-13485571D02*
X14735386Y-13457000D01*
X14763957Y-13442714D01*
X14806814Y-13442714D01*
X14835386Y-13457000D01*
X14849671Y-13485571D01*
X14849671Y-13642714D01*
X15435386Y-13328429D02*
X15178243Y-13714143D01*
X15821100Y-13342714D02*
X15849671Y-13342714D01*
X15878243Y-13357000D01*
X15892528Y-13371286D01*
X15906814Y-13399857D01*
X15921100Y-13457000D01*
X15921100Y-13528429D01*
X15906814Y-13585571D01*
X15892528Y-13614143D01*
X15878243Y-13628429D01*
X15849671Y-13642714D01*
X15821100Y-13642714D01*
X15792528Y-13628429D01*
X15778243Y-13614143D01*
X15763957Y-13585571D01*
X15749671Y-13528429D01*
X15749671Y-13457000D01*
X15763957Y-13399857D01*
X15778243Y-13371286D01*
X15792528Y-13357000D01*
X15821100Y-13342714D01*
X16049671Y-13614143D02*
X16063957Y-13628429D01*
X16049671Y-13642714D01*
X16035386Y-13628429D01*
X16049671Y-13614143D01*
X16049671Y-13642714D01*
X16249671Y-13342714D02*
X16278243Y-13342714D01*
X16306814Y-13357000D01*
X16321100Y-13371286D01*
X16335385Y-13399857D01*
X16349671Y-13457000D01*
X16349671Y-13528429D01*
X16335385Y-13585571D01*
X16321100Y-13614143D01*
X16306814Y-13628429D01*
X16278243Y-13642714D01*
X16249671Y-13642714D01*
X16221100Y-13628429D01*
X16206814Y-13614143D01*
X16192528Y-13585571D01*
X16178243Y-13528429D01*
X16178243Y-13457000D01*
X16192528Y-13399857D01*
X16206814Y-13371286D01*
X16221100Y-13357000D01*
X16249671Y-13342714D01*
X16606814Y-13442714D02*
X16606814Y-13642714D01*
X16535385Y-13328429D02*
X16463957Y-13542714D01*
X16649671Y-13542714D01*
X16821100Y-13342714D02*
X16849671Y-13342714D01*
X16878243Y-13357000D01*
X16892528Y-13371286D01*
X16906814Y-13399857D01*
X16921100Y-13457000D01*
X16921100Y-13528429D01*
X16906814Y-13585571D01*
X16892528Y-13614143D01*
X16878243Y-13628429D01*
X16849671Y-13642714D01*
X16821100Y-13642714D01*
X16792528Y-13628429D01*
X16778243Y-13614143D01*
X16763957Y-13585571D01*
X16749671Y-13528429D01*
X16749671Y-13457000D01*
X16763957Y-13399857D01*
X16778243Y-13371286D01*
X16792528Y-13357000D01*
X16821100Y-13342714D01*
X17035386Y-13342714D02*
X17035386Y-13399857D01*
X17149671Y-13342714D02*
X17149671Y-13399857D01*
X17592528Y-13757000D02*
X17578243Y-13742714D01*
X17549671Y-13699857D01*
X17535386Y-13671286D01*
X17521100Y-13628429D01*
X17506814Y-13557000D01*
X17506814Y-13499857D01*
X17521100Y-13428429D01*
X17535386Y-13385571D01*
X17549671Y-13357000D01*
X17578243Y-13314143D01*
X17592528Y-13299857D01*
X17835386Y-13442714D02*
X17835386Y-13642714D01*
X17763957Y-13328429D02*
X17692528Y-13542714D01*
X17878243Y-13542714D01*
X18049671Y-13342714D02*
X18078243Y-13342714D01*
X18106814Y-13357000D01*
X18121100Y-13371286D01*
X18135386Y-13399857D01*
X18149671Y-13457000D01*
X18149671Y-13528429D01*
X18135386Y-13585571D01*
X18121100Y-13614143D01*
X18106814Y-13628429D01*
X18078243Y-13642714D01*
X18049671Y-13642714D01*
X18021100Y-13628429D01*
X18006814Y-13614143D01*
X17992528Y-13585571D01*
X17978243Y-13528429D01*
X17978243Y-13457000D01*
X17992528Y-13399857D01*
X18006814Y-13371286D01*
X18021100Y-13357000D01*
X18049671Y-13342714D01*
X18506814Y-13642714D02*
X18506814Y-13342714D01*
X18635386Y-13642714D02*
X18635386Y-13485571D01*
X18621100Y-13457000D01*
X18592528Y-13442714D01*
X18549671Y-13442714D01*
X18521100Y-13457000D01*
X18506814Y-13471286D01*
X18821100Y-13642714D02*
X18792528Y-13628429D01*
X18778243Y-13614143D01*
X18763957Y-13585571D01*
X18763957Y-13499857D01*
X18778243Y-13471286D01*
X18792528Y-13457000D01*
X18821100Y-13442714D01*
X18863957Y-13442714D01*
X18892528Y-13457000D01*
X18906814Y-13471286D01*
X18921100Y-13499857D01*
X18921100Y-13585571D01*
X18906814Y-13614143D01*
X18892528Y-13628429D01*
X18863957Y-13642714D01*
X18821100Y-13642714D01*
X19092528Y-13642714D02*
X19063957Y-13628429D01*
X19049671Y-13599857D01*
X19049671Y-13342714D01*
X19321100Y-13628429D02*
X19292529Y-13642714D01*
X19235386Y-13642714D01*
X19206814Y-13628429D01*
X19192529Y-13599857D01*
X19192529Y-13485571D01*
X19206814Y-13457000D01*
X19235386Y-13442714D01*
X19292529Y-13442714D01*
X19321100Y-13457000D01*
X19335386Y-13485571D01*
X19335386Y-13514143D01*
X19192529Y-13542714D01*
X19449671Y-13628429D02*
X19478243Y-13642714D01*
X19535386Y-13642714D01*
X19563957Y-13628429D01*
X19578243Y-13599857D01*
X19578243Y-13585571D01*
X19563957Y-13557000D01*
X19535386Y-13542714D01*
X19492529Y-13542714D01*
X19463957Y-13528429D01*
X19449671Y-13499857D01*
X19449671Y-13485571D01*
X19463957Y-13457000D01*
X19492529Y-13442714D01*
X19535386Y-13442714D01*
X19563957Y-13457000D01*
X19678243Y-13757000D02*
X19692529Y-13742714D01*
X19721100Y-13699857D01*
X19735386Y-13671286D01*
X19749671Y-13628429D01*
X19763957Y-13557000D01*
X19763957Y-13499857D01*
X19749671Y-13428429D01*
X19735386Y-13385571D01*
X19721100Y-13357000D01*
X19692529Y-13314143D01*
X19678243Y-13299857D01*
X12901330Y-13950730D02*
X12901330Y-13855270D01*
X12805870Y-13855270D01*
X12805870Y-13950730D01*
X12901330Y-13950730D01*
X13349671Y-14038714D02*
X13178243Y-14038714D01*
X13263957Y-14038714D02*
X13263957Y-13738714D01*
X13235386Y-13781571D01*
X13206814Y-13810143D01*
X13178243Y-13824429D01*
X13478243Y-14010143D02*
X13492528Y-14024429D01*
X13478243Y-14038714D01*
X13463957Y-14024429D01*
X13478243Y-14010143D01*
X13478243Y-14038714D01*
X13592528Y-13738714D02*
X13778243Y-13738714D01*
X13678243Y-13853000D01*
X13721100Y-13853000D01*
X13749671Y-13867286D01*
X13763957Y-13881571D01*
X13778243Y-13910143D01*
X13778243Y-13981571D01*
X13763957Y-14010143D01*
X13749671Y-14024429D01*
X13721100Y-14038714D01*
X13635386Y-14038714D01*
X13606814Y-14024429D01*
X13592528Y-14010143D01*
X14049671Y-13738714D02*
X13906814Y-13738714D01*
X13892528Y-13881571D01*
X13906814Y-13867286D01*
X13935386Y-13853000D01*
X14006814Y-13853000D01*
X14035386Y-13867286D01*
X14049671Y-13881571D01*
X14063957Y-13910143D01*
X14063957Y-13981571D01*
X14049671Y-14010143D01*
X14035386Y-14024429D01*
X14006814Y-14038714D01*
X13935386Y-14038714D01*
X13906814Y-14024429D01*
X13892528Y-14010143D01*
X14192528Y-14038714D02*
X14192528Y-13838714D01*
X14192528Y-13867286D02*
X14206814Y-13853000D01*
X14235386Y-13838714D01*
X14278243Y-13838714D01*
X14306814Y-13853000D01*
X14321100Y-13881571D01*
X14321100Y-14038714D01*
X14321100Y-13881571D02*
X14335386Y-13853000D01*
X14363957Y-13838714D01*
X14406814Y-13838714D01*
X14435386Y-13853000D01*
X14449671Y-13881571D01*
X14449671Y-14038714D01*
X14592528Y-14038714D02*
X14592528Y-13838714D01*
X14592528Y-13867286D02*
X14606814Y-13853000D01*
X14635386Y-13838714D01*
X14678243Y-13838714D01*
X14706814Y-13853000D01*
X14721100Y-13881571D01*
X14721100Y-14038714D01*
X14721100Y-13881571D02*
X14735386Y-13853000D01*
X14763957Y-13838714D01*
X14806814Y-13838714D01*
X14835386Y-13853000D01*
X14849671Y-13881571D01*
X14849671Y-14038714D01*
X15435386Y-13724429D02*
X15178243Y-14110143D01*
X15821100Y-13738714D02*
X15849671Y-13738714D01*
X15878243Y-13753000D01*
X15892528Y-13767286D01*
X15906814Y-13795857D01*
X15921100Y-13853000D01*
X15921100Y-13924429D01*
X15906814Y-13981571D01*
X15892528Y-14010143D01*
X15878243Y-14024429D01*
X15849671Y-14038714D01*
X15821100Y-14038714D01*
X15792528Y-14024429D01*
X15778243Y-14010143D01*
X15763957Y-13981571D01*
X15749671Y-13924429D01*
X15749671Y-13853000D01*
X15763957Y-13795857D01*
X15778243Y-13767286D01*
X15792528Y-13753000D01*
X15821100Y-13738714D01*
X16049671Y-14010143D02*
X16063957Y-14024429D01*
X16049671Y-14038714D01*
X16035386Y-14024429D01*
X16049671Y-14010143D01*
X16049671Y-14038714D01*
X16249671Y-13738714D02*
X16278243Y-13738714D01*
X16306814Y-13753000D01*
X16321100Y-13767286D01*
X16335385Y-13795857D01*
X16349671Y-13853000D01*
X16349671Y-13924429D01*
X16335385Y-13981571D01*
X16321100Y-14010143D01*
X16306814Y-14024429D01*
X16278243Y-14038714D01*
X16249671Y-14038714D01*
X16221100Y-14024429D01*
X16206814Y-14010143D01*
X16192528Y-13981571D01*
X16178243Y-13924429D01*
X16178243Y-13853000D01*
X16192528Y-13795857D01*
X16206814Y-13767286D01*
X16221100Y-13753000D01*
X16249671Y-13738714D01*
X16621100Y-13738714D02*
X16478243Y-13738714D01*
X16463957Y-13881571D01*
X16478243Y-13867286D01*
X16506814Y-13853000D01*
X16578243Y-13853000D01*
X16606814Y-13867286D01*
X16621100Y-13881571D01*
X16635385Y-13910143D01*
X16635385Y-13981571D01*
X16621100Y-14010143D01*
X16606814Y-14024429D01*
X16578243Y-14038714D01*
X16506814Y-14038714D01*
X16478243Y-14024429D01*
X16463957Y-14010143D01*
X16735385Y-13738714D02*
X16921100Y-13738714D01*
X16821100Y-13853000D01*
X16863957Y-13853000D01*
X16892528Y-13867286D01*
X16906814Y-13881571D01*
X16921100Y-13910143D01*
X16921100Y-13981571D01*
X16906814Y-14010143D01*
X16892528Y-14024429D01*
X16863957Y-14038714D01*
X16778243Y-14038714D01*
X16749671Y-14024429D01*
X16735385Y-14010143D01*
X17035386Y-13738714D02*
X17035386Y-13795857D01*
X17149671Y-13738714D02*
X17149671Y-13795857D01*
X17592528Y-14153000D02*
X17578243Y-14138714D01*
X17549671Y-14095857D01*
X17535386Y-14067286D01*
X17521100Y-14024429D01*
X17506814Y-13953000D01*
X17506814Y-13895857D01*
X17521100Y-13824429D01*
X17535386Y-13781571D01*
X17549671Y-13753000D01*
X17578243Y-13710143D01*
X17592528Y-13695857D01*
X17863957Y-14038714D02*
X17692528Y-14038714D01*
X17778243Y-14038714D02*
X17778243Y-13738714D01*
X17749671Y-13781571D01*
X17721100Y-13810143D01*
X17692528Y-13824429D01*
X18221100Y-14038714D02*
X18221100Y-13738714D01*
X18349671Y-14038714D02*
X18349671Y-13881571D01*
X18335386Y-13853000D01*
X18306814Y-13838714D01*
X18263957Y-13838714D01*
X18235386Y-13853000D01*
X18221100Y-13867286D01*
X18535386Y-14038714D02*
X18506814Y-14024429D01*
X18492528Y-14010143D01*
X18478243Y-13981571D01*
X18478243Y-13895857D01*
X18492528Y-13867286D01*
X18506814Y-13853000D01*
X18535386Y-13838714D01*
X18578243Y-13838714D01*
X18606814Y-13853000D01*
X18621100Y-13867286D01*
X18635386Y-13895857D01*
X18635386Y-13981571D01*
X18621100Y-14010143D01*
X18606814Y-14024429D01*
X18578243Y-14038714D01*
X18535386Y-14038714D01*
X18806814Y-14038714D02*
X18778243Y-14024429D01*
X18763957Y-13995857D01*
X18763957Y-13738714D01*
X19035386Y-14024429D02*
X19006814Y-14038714D01*
X18949671Y-14038714D01*
X18921100Y-14024429D01*
X18906814Y-13995857D01*
X18906814Y-13881571D01*
X18921100Y-13853000D01*
X18949671Y-13838714D01*
X19006814Y-13838714D01*
X19035386Y-13853000D01*
X19049671Y-13881571D01*
X19049671Y-13910143D01*
X18906814Y-13938714D01*
X19149671Y-14153000D02*
X19163957Y-14138714D01*
X19192529Y-14095857D01*
X19206814Y-14067286D01*
X19221100Y-14024429D01*
X19235386Y-13953000D01*
X19235386Y-13895857D01*
X19221100Y-13824429D01*
X19206814Y-13781571D01*
X19192529Y-13753000D01*
X19163957Y-13710143D01*
X19149671Y-13695857D01*
X12846100Y-14374000D02*
X12921100Y-14299000D01*
X12846100Y-14224000D01*
X12771100Y-14299000D01*
X12846100Y-14374000D01*
X13349671Y-14434714D02*
X13178243Y-14434714D01*
X13263957Y-14434714D02*
X13263957Y-14134714D01*
X13235386Y-14177571D01*
X13206814Y-14206143D01*
X13178243Y-14220429D01*
X13478243Y-14406143D02*
X13492528Y-14420429D01*
X13478243Y-14434714D01*
X13463957Y-14420429D01*
X13478243Y-14406143D01*
X13478243Y-14434714D01*
X13763957Y-14134714D02*
X13621100Y-14134714D01*
X13606814Y-14277571D01*
X13621100Y-14263286D01*
X13649671Y-14249000D01*
X13721100Y-14249000D01*
X13749671Y-14263286D01*
X13763957Y-14277571D01*
X13778243Y-14306143D01*
X13778243Y-14377571D01*
X13763957Y-14406143D01*
X13749671Y-14420429D01*
X13721100Y-14434714D01*
X13649671Y-14434714D01*
X13621100Y-14420429D01*
X13606814Y-14406143D01*
X13963957Y-14134714D02*
X13992528Y-14134714D01*
X14021100Y-14149000D01*
X14035386Y-14163286D01*
X14049671Y-14191857D01*
X14063957Y-14249000D01*
X14063957Y-14320429D01*
X14049671Y-14377571D01*
X14035386Y-14406143D01*
X14021100Y-14420429D01*
X13992528Y-14434714D01*
X13963957Y-14434714D01*
X13935386Y-14420429D01*
X13921100Y-14406143D01*
X13906814Y-14377571D01*
X13892528Y-14320429D01*
X13892528Y-14249000D01*
X13906814Y-14191857D01*
X13921100Y-14163286D01*
X13935386Y-14149000D01*
X13963957Y-14134714D01*
X14192528Y-14434714D02*
X14192528Y-14234714D01*
X14192528Y-14263286D02*
X14206814Y-14249000D01*
X14235386Y-14234714D01*
X14278243Y-14234714D01*
X14306814Y-14249000D01*
X14321100Y-14277571D01*
X14321100Y-14434714D01*
X14321100Y-14277571D02*
X14335386Y-14249000D01*
X14363957Y-14234714D01*
X14406814Y-14234714D01*
X14435386Y-14249000D01*
X14449671Y-14277571D01*
X14449671Y-14434714D01*
X14592528Y-14434714D02*
X14592528Y-14234714D01*
X14592528Y-14263286D02*
X14606814Y-14249000D01*
X14635386Y-14234714D01*
X14678243Y-14234714D01*
X14706814Y-14249000D01*
X14721100Y-14277571D01*
X14721100Y-14434714D01*
X14721100Y-14277571D02*
X14735386Y-14249000D01*
X14763957Y-14234714D01*
X14806814Y-14234714D01*
X14835386Y-14249000D01*
X14849671Y-14277571D01*
X14849671Y-14434714D01*
X15435386Y-14120429D02*
X15178243Y-14506143D01*
X15821100Y-14134714D02*
X15849671Y-14134714D01*
X15878243Y-14149000D01*
X15892528Y-14163286D01*
X15906814Y-14191857D01*
X15921100Y-14249000D01*
X15921100Y-14320429D01*
X15906814Y-14377571D01*
X15892528Y-14406143D01*
X15878243Y-14420429D01*
X15849671Y-14434714D01*
X15821100Y-14434714D01*
X15792528Y-14420429D01*
X15778243Y-14406143D01*
X15763957Y-14377571D01*
X15749671Y-14320429D01*
X15749671Y-14249000D01*
X15763957Y-14191857D01*
X15778243Y-14163286D01*
X15792528Y-14149000D01*
X15821100Y-14134714D01*
X16049671Y-14406143D02*
X16063957Y-14420429D01*
X16049671Y-14434714D01*
X16035386Y-14420429D01*
X16049671Y-14406143D01*
X16049671Y-14434714D01*
X16249671Y-14134714D02*
X16278243Y-14134714D01*
X16306814Y-14149000D01*
X16321100Y-14163286D01*
X16335385Y-14191857D01*
X16349671Y-14249000D01*
X16349671Y-14320429D01*
X16335385Y-14377571D01*
X16321100Y-14406143D01*
X16306814Y-14420429D01*
X16278243Y-14434714D01*
X16249671Y-14434714D01*
X16221100Y-14420429D01*
X16206814Y-14406143D01*
X16192528Y-14377571D01*
X16178243Y-14320429D01*
X16178243Y-14249000D01*
X16192528Y-14191857D01*
X16206814Y-14163286D01*
X16221100Y-14149000D01*
X16249671Y-14134714D01*
X16621100Y-14134714D02*
X16478243Y-14134714D01*
X16463957Y-14277571D01*
X16478243Y-14263286D01*
X16506814Y-14249000D01*
X16578243Y-14249000D01*
X16606814Y-14263286D01*
X16621100Y-14277571D01*
X16635385Y-14306143D01*
X16635385Y-14377571D01*
X16621100Y-14406143D01*
X16606814Y-14420429D01*
X16578243Y-14434714D01*
X16506814Y-14434714D01*
X16478243Y-14420429D01*
X16463957Y-14406143D01*
X16778243Y-14434714D02*
X16835386Y-14434714D01*
X16863957Y-14420429D01*
X16878243Y-14406143D01*
X16906814Y-14363286D01*
X16921100Y-14306143D01*
X16921100Y-14191857D01*
X16906814Y-14163286D01*
X16892528Y-14149000D01*
X16863957Y-14134714D01*
X16806814Y-14134714D01*
X16778243Y-14149000D01*
X16763957Y-14163286D01*
X16749671Y-14191857D01*
X16749671Y-14263286D01*
X16763957Y-14291857D01*
X16778243Y-14306143D01*
X16806814Y-14320429D01*
X16863957Y-14320429D01*
X16892528Y-14306143D01*
X16906814Y-14291857D01*
X16921100Y-14263286D01*
X17035386Y-14134714D02*
X17035386Y-14191857D01*
X17149671Y-14134714D02*
X17149671Y-14191857D01*
X17592528Y-14549000D02*
X17578243Y-14534714D01*
X17549671Y-14491857D01*
X17535386Y-14463286D01*
X17521100Y-14420429D01*
X17506814Y-14349000D01*
X17506814Y-14291857D01*
X17521100Y-14220429D01*
X17535386Y-14177571D01*
X17549671Y-14149000D01*
X17578243Y-14106143D01*
X17592528Y-14091857D01*
X17835386Y-14234714D02*
X17835386Y-14434714D01*
X17763957Y-14120429D02*
X17692528Y-14334714D01*
X17878243Y-14334714D01*
X18221100Y-14434714D02*
X18221100Y-14134714D01*
X18349671Y-14434714D02*
X18349671Y-14277571D01*
X18335386Y-14249000D01*
X18306814Y-14234714D01*
X18263957Y-14234714D01*
X18235386Y-14249000D01*
X18221100Y-14263286D01*
X18535386Y-14434714D02*
X18506814Y-14420429D01*
X18492528Y-14406143D01*
X18478243Y-14377571D01*
X18478243Y-14291857D01*
X18492528Y-14263286D01*
X18506814Y-14249000D01*
X18535386Y-14234714D01*
X18578243Y-14234714D01*
X18606814Y-14249000D01*
X18621100Y-14263286D01*
X18635386Y-14291857D01*
X18635386Y-14377571D01*
X18621100Y-14406143D01*
X18606814Y-14420429D01*
X18578243Y-14434714D01*
X18535386Y-14434714D01*
X18806814Y-14434714D02*
X18778243Y-14420429D01*
X18763957Y-14391857D01*
X18763957Y-14134714D01*
X19035386Y-14420429D02*
X19006814Y-14434714D01*
X18949671Y-14434714D01*
X18921100Y-14420429D01*
X18906814Y-14391857D01*
X18906814Y-14277571D01*
X18921100Y-14249000D01*
X18949671Y-14234714D01*
X19006814Y-14234714D01*
X19035386Y-14249000D01*
X19049671Y-14277571D01*
X19049671Y-14306143D01*
X18906814Y-14334714D01*
X19163957Y-14420429D02*
X19192529Y-14434714D01*
X19249671Y-14434714D01*
X19278243Y-14420429D01*
X19292529Y-14391857D01*
X19292529Y-14377571D01*
X19278243Y-14349000D01*
X19249671Y-14334714D01*
X19206814Y-14334714D01*
X19178243Y-14320429D01*
X19163957Y-14291857D01*
X19163957Y-14277571D01*
X19178243Y-14249000D01*
X19206814Y-14234714D01*
X19249671Y-14234714D01*
X19278243Y-14249000D01*
X19392528Y-14549000D02*
X19406814Y-14534714D01*
X19435386Y-14491857D01*
X19449671Y-14463286D01*
X19463957Y-14420429D01*
X19478243Y-14349000D01*
X19478243Y-14291857D01*
X19463957Y-14220429D01*
X19449671Y-14177571D01*
X19435386Y-14149000D01*
X19406814Y-14106143D01*
X19392528Y-14091857D01*
X12571100Y-14520000D02*
X12921100Y-14870000D01*
X12921100Y-14520000D02*
X12571100Y-14870000D01*
X12921100Y-14695000D02*
G75*
G03X12921100Y-14695000I-175000J0D01*
G01*
X13163957Y-14530714D02*
X13349671Y-14530714D01*
X13249671Y-14645000D01*
X13292528Y-14645000D01*
X13321100Y-14659286D01*
X13335386Y-14673571D01*
X13349671Y-14702143D01*
X13349671Y-14773571D01*
X13335386Y-14802143D01*
X13321100Y-14816429D01*
X13292528Y-14830714D01*
X13206814Y-14830714D01*
X13178243Y-14816429D01*
X13163957Y-14802143D01*
X13478243Y-14802143D02*
X13492528Y-14816429D01*
X13478243Y-14830714D01*
X13463957Y-14816429D01*
X13478243Y-14802143D01*
X13478243Y-14830714D01*
X13763957Y-14530714D02*
X13621100Y-14530714D01*
X13606814Y-14673571D01*
X13621100Y-14659286D01*
X13649671Y-14645000D01*
X13721100Y-14645000D01*
X13749671Y-14659286D01*
X13763957Y-14673571D01*
X13778243Y-14702143D01*
X13778243Y-14773571D01*
X13763957Y-14802143D01*
X13749671Y-14816429D01*
X13721100Y-14830714D01*
X13649671Y-14830714D01*
X13621100Y-14816429D01*
X13606814Y-14802143D01*
X13963957Y-14530714D02*
X13992528Y-14530714D01*
X14021100Y-14545000D01*
X14035386Y-14559286D01*
X14049671Y-14587857D01*
X14063957Y-14645000D01*
X14063957Y-14716429D01*
X14049671Y-14773571D01*
X14035386Y-14802143D01*
X14021100Y-14816429D01*
X13992528Y-14830714D01*
X13963957Y-14830714D01*
X13935386Y-14816429D01*
X13921100Y-14802143D01*
X13906814Y-14773571D01*
X13892528Y-14716429D01*
X13892528Y-14645000D01*
X13906814Y-14587857D01*
X13921100Y-14559286D01*
X13935386Y-14545000D01*
X13963957Y-14530714D01*
X14192528Y-14830714D02*
X14192528Y-14630714D01*
X14192528Y-14659286D02*
X14206814Y-14645000D01*
X14235386Y-14630714D01*
X14278243Y-14630714D01*
X14306814Y-14645000D01*
X14321100Y-14673571D01*
X14321100Y-14830714D01*
X14321100Y-14673571D02*
X14335386Y-14645000D01*
X14363957Y-14630714D01*
X14406814Y-14630714D01*
X14435386Y-14645000D01*
X14449671Y-14673571D01*
X14449671Y-14830714D01*
X14592528Y-14830714D02*
X14592528Y-14630714D01*
X14592528Y-14659286D02*
X14606814Y-14645000D01*
X14635386Y-14630714D01*
X14678243Y-14630714D01*
X14706814Y-14645000D01*
X14721100Y-14673571D01*
X14721100Y-14830714D01*
X14721100Y-14673571D02*
X14735386Y-14645000D01*
X14763957Y-14630714D01*
X14806814Y-14630714D01*
X14835386Y-14645000D01*
X14849671Y-14673571D01*
X14849671Y-14830714D01*
X15435386Y-14516429D02*
X15178243Y-14902143D01*
X15821100Y-14530714D02*
X15849671Y-14530714D01*
X15878243Y-14545000D01*
X15892528Y-14559286D01*
X15906814Y-14587857D01*
X15921100Y-14645000D01*
X15921100Y-14716429D01*
X15906814Y-14773571D01*
X15892528Y-14802143D01*
X15878243Y-14816429D01*
X15849671Y-14830714D01*
X15821100Y-14830714D01*
X15792528Y-14816429D01*
X15778243Y-14802143D01*
X15763957Y-14773571D01*
X15749671Y-14716429D01*
X15749671Y-14645000D01*
X15763957Y-14587857D01*
X15778243Y-14559286D01*
X15792528Y-14545000D01*
X15821100Y-14530714D01*
X16049671Y-14802143D02*
X16063957Y-14816429D01*
X16049671Y-14830714D01*
X16035386Y-14816429D01*
X16049671Y-14802143D01*
X16049671Y-14830714D01*
X16349671Y-14830714D02*
X16178243Y-14830714D01*
X16263957Y-14830714D02*
X16263957Y-14530714D01*
X16235385Y-14573571D01*
X16206814Y-14602143D01*
X16178243Y-14616429D01*
X16449671Y-14530714D02*
X16635385Y-14530714D01*
X16535385Y-14645000D01*
X16578243Y-14645000D01*
X16606814Y-14659286D01*
X16621100Y-14673571D01*
X16635385Y-14702143D01*
X16635385Y-14773571D01*
X16621100Y-14802143D01*
X16606814Y-14816429D01*
X16578243Y-14830714D01*
X16492528Y-14830714D01*
X16463957Y-14816429D01*
X16449671Y-14802143D01*
X16806814Y-14659286D02*
X16778243Y-14645000D01*
X16763957Y-14630714D01*
X16749671Y-14602143D01*
X16749671Y-14587857D01*
X16763957Y-14559286D01*
X16778243Y-14545000D01*
X16806814Y-14530714D01*
X16863957Y-14530714D01*
X16892528Y-14545000D01*
X16906814Y-14559286D01*
X16921100Y-14587857D01*
X16921100Y-14602143D01*
X16906814Y-14630714D01*
X16892528Y-14645000D01*
X16863957Y-14659286D01*
X16806814Y-14659286D01*
X16778243Y-14673571D01*
X16763957Y-14687857D01*
X16749671Y-14716429D01*
X16749671Y-14773571D01*
X16763957Y-14802143D01*
X16778243Y-14816429D01*
X16806814Y-14830714D01*
X16863957Y-14830714D01*
X16892528Y-14816429D01*
X16906814Y-14802143D01*
X16921100Y-14773571D01*
X16921100Y-14716429D01*
X16906814Y-14687857D01*
X16892528Y-14673571D01*
X16863957Y-14659286D01*
X17035386Y-14530714D02*
X17035386Y-14587857D01*
X17149671Y-14530714D02*
X17149671Y-14587857D01*
X17592528Y-14945000D02*
X17578243Y-14930714D01*
X17549671Y-14887857D01*
X17535386Y-14859286D01*
X17521100Y-14816429D01*
X17506814Y-14745000D01*
X17506814Y-14687857D01*
X17521100Y-14616429D01*
X17535386Y-14573571D01*
X17549671Y-14545000D01*
X17578243Y-14502143D01*
X17592528Y-14487857D01*
X17692528Y-14559286D02*
X17706814Y-14545000D01*
X17735386Y-14530714D01*
X17806814Y-14530714D01*
X17835386Y-14545000D01*
X17849671Y-14559286D01*
X17863957Y-14587857D01*
X17863957Y-14616429D01*
X17849671Y-14659286D01*
X17678243Y-14830714D01*
X17863957Y-14830714D01*
X18221100Y-14830714D02*
X18221100Y-14530714D01*
X18349671Y-14830714D02*
X18349671Y-14673571D01*
X18335386Y-14645000D01*
X18306814Y-14630714D01*
X18263957Y-14630714D01*
X18235386Y-14645000D01*
X18221100Y-14659286D01*
X18535386Y-14830714D02*
X18506814Y-14816429D01*
X18492528Y-14802143D01*
X18478243Y-14773571D01*
X18478243Y-14687857D01*
X18492528Y-14659286D01*
X18506814Y-14645000D01*
X18535386Y-14630714D01*
X18578243Y-14630714D01*
X18606814Y-14645000D01*
X18621100Y-14659286D01*
X18635386Y-14687857D01*
X18635386Y-14773571D01*
X18621100Y-14802143D01*
X18606814Y-14816429D01*
X18578243Y-14830714D01*
X18535386Y-14830714D01*
X18806814Y-14830714D02*
X18778243Y-14816429D01*
X18763957Y-14787857D01*
X18763957Y-14530714D01*
X19035386Y-14816429D02*
X19006814Y-14830714D01*
X18949671Y-14830714D01*
X18921100Y-14816429D01*
X18906814Y-14787857D01*
X18906814Y-14673571D01*
X18921100Y-14645000D01*
X18949671Y-14630714D01*
X19006814Y-14630714D01*
X19035386Y-14645000D01*
X19049671Y-14673571D01*
X19049671Y-14702143D01*
X18906814Y-14730714D01*
X19163957Y-14816429D02*
X19192529Y-14830714D01*
X19249671Y-14830714D01*
X19278243Y-14816429D01*
X19292529Y-14787857D01*
X19292529Y-14773571D01*
X19278243Y-14745000D01*
X19249671Y-14730714D01*
X19206814Y-14730714D01*
X19178243Y-14716429D01*
X19163957Y-14687857D01*
X19163957Y-14673571D01*
X19178243Y-14645000D01*
X19206814Y-14630714D01*
X19249671Y-14630714D01*
X19278243Y-14645000D01*
X19392528Y-14945000D02*
X19406814Y-14930714D01*
X19435386Y-14887857D01*
X19449671Y-14859286D01*
X19463957Y-14816429D01*
X19478243Y-14745000D01*
X19478243Y-14687857D01*
X19463957Y-14616429D01*
X19449671Y-14573571D01*
X19435386Y-14545000D01*
X19406814Y-14502143D01*
X19392528Y-14487857D01*
M02*
