M48
;DRILL file {KiCad 4.0.6} date 09/07/17 10:38:33
;FORMAT={-:-/ absolute / metric / decimal}
FMAT,2
METRIC,TZ
T1C0.700
T2C1.000
T3C1.016
T4C1.350
T5C1.500
T6C3.500
%
G90
G05
M71
T1
X137.033Y-77.406
X137.224Y-88.138
X137.668Y-72.898
X138.684Y-77.47
X138.684Y-88.138
X146.685Y-104.076
X147.637Y-106.299
X148.717Y-88.265
X151.384Y-88.265
X151.447Y-104.14
X152.908Y-106.489
X153.543Y-86.614
X154.813Y-75.565
X156.21Y-62.166
X158.242Y-72.771
X159.385Y-70.231
T2
X131.445Y-67.31
X131.445Y-69.85
X133.985Y-67.31
X133.985Y-69.85
X136.525Y-67.31
X136.525Y-69.85
X139.065Y-67.31
X139.065Y-69.85
X141.605Y-67.31
X141.605Y-69.85
X145.415Y-68.834
X145.415Y-72.39
X145.415Y-75.946
X147.955Y-68.834
X147.955Y-72.39
X147.955Y-75.946
X150.495Y-68.834
X150.495Y-72.39
X150.495Y-75.946
T3
X161.671Y-62.865
X161.671Y-65.405
X161.671Y-67.945
X161.671Y-70.485
X161.671Y-73.025
X161.671Y-75.565
X161.671Y-78.105
X161.671Y-80.645
X161.671Y-83.185
X161.671Y-85.725
X161.671Y-88.265
X161.671Y-90.805
X161.671Y-93.345
X161.671Y-95.885
X161.671Y-98.425
X161.671Y-100.965
X161.671Y-103.505
X161.671Y-106.045
X161.671Y-108.585
X161.671Y-111.125
X164.211Y-62.865
X164.211Y-65.405
X164.211Y-67.945
X164.211Y-70.485
X164.211Y-73.025
X164.211Y-75.565
X164.211Y-78.105
X164.211Y-80.645
X164.211Y-83.185
X164.211Y-85.725
X164.211Y-88.265
X164.211Y-90.805
X164.211Y-93.345
X164.211Y-95.885
X164.211Y-98.425
X164.211Y-100.965
X164.211Y-103.505
X164.211Y-106.045
X164.211Y-108.585
X164.211Y-111.125
T4
X150.749Y-112.979
T5
X148.209Y-110.439
X148.209Y-115.519
X153.289Y-110.439
X153.289Y-115.519
T6
X131.826Y-111.506
X143.383Y-111.506
T0
M30
