G04 #@! TF.FileFunction,Copper,L2,Bot,Signal*
%FSLAX46Y46*%
G04 Gerber Fmt 4.6, Leading zero omitted, Abs format (unit mm)*
G04 Created by KiCad (PCBNEW 4.0.6) date 09/07/17 10:38:29*
%MOMM*%
%LPD*%
G01*
G04 APERTURE LIST*
%ADD10C,0.100000*%
%ADD11C,0.002540*%
%ADD12R,2.000000X1.524000*%
%ADD13O,2.000000X1.524000*%
%ADD14R,1.700000X1.700000*%
%ADD15O,1.700000X1.700000*%
%ADD16C,2.300000*%
%ADD17C,5.000000*%
%ADD18C,0.800000*%
%ADD19C,0.750000*%
%ADD20C,0.500000*%
%ADD21C,0.200000*%
%ADD22C,0.254000*%
G04 APERTURE END LIST*
D10*
D11*
G36*
X135181340Y-91721940D02*
X135221980Y-91742260D01*
X135315960Y-91800680D01*
X135450580Y-91889580D01*
X135608060Y-91993720D01*
X135765540Y-92102940D01*
X135895080Y-92189300D01*
X135986520Y-92247720D01*
X136024620Y-92268040D01*
X136044940Y-92262960D01*
X136121140Y-92224860D01*
X136230360Y-92168980D01*
X136293860Y-92135960D01*
X136392920Y-92092780D01*
X136443720Y-92082620D01*
X136451340Y-92097860D01*
X136489440Y-92174060D01*
X136545320Y-92306140D01*
X136621520Y-92478860D01*
X136707880Y-92682060D01*
X136801860Y-92900500D01*
X136893300Y-93124020D01*
X136982200Y-93337380D01*
X137060940Y-93527880D01*
X137124440Y-93682820D01*
X137165080Y-93792040D01*
X137180320Y-93837760D01*
X137175240Y-93847920D01*
X137124440Y-93896180D01*
X137038080Y-93962220D01*
X136847580Y-94117160D01*
X136662160Y-94350840D01*
X136547860Y-94615000D01*
X136509760Y-94909640D01*
X136542780Y-95181420D01*
X136649460Y-95443040D01*
X136832340Y-95679260D01*
X137053320Y-95854520D01*
X137312400Y-95966280D01*
X137604500Y-96001840D01*
X137883900Y-95971360D01*
X138150600Y-95864680D01*
X138386820Y-95684340D01*
X138485880Y-95570040D01*
X138623040Y-95331280D01*
X138701780Y-95074740D01*
X138709400Y-95011240D01*
X138699240Y-94729300D01*
X138615420Y-94460060D01*
X138468100Y-94218760D01*
X138262360Y-94023180D01*
X138234420Y-94002860D01*
X138140440Y-93931740D01*
X138076940Y-93883480D01*
X138026140Y-93842840D01*
X138384280Y-92981780D01*
X138440160Y-92844620D01*
X138539220Y-92608400D01*
X138625580Y-92405200D01*
X138694160Y-92245180D01*
X138742420Y-92135960D01*
X138762740Y-92092780D01*
X138765280Y-92090240D01*
X138795760Y-92085160D01*
X138861800Y-92110560D01*
X138981180Y-92168980D01*
X139062460Y-92209620D01*
X139153900Y-92252800D01*
X139194540Y-92268040D01*
X139230100Y-92250260D01*
X139316460Y-92191840D01*
X139446000Y-92108020D01*
X139598400Y-92003880D01*
X139745720Y-91902280D01*
X139880340Y-91813380D01*
X139979400Y-91752420D01*
X140027660Y-91724480D01*
X140035280Y-91724480D01*
X140075920Y-91749880D01*
X140154660Y-91813380D01*
X140271500Y-91925140D01*
X140436600Y-92087700D01*
X140462000Y-92113100D01*
X140599160Y-92252800D01*
X140710920Y-92369640D01*
X140784580Y-92450920D01*
X140809980Y-92489020D01*
X140809980Y-92489020D01*
X140787120Y-92537280D01*
X140723620Y-92633800D01*
X140634720Y-92770960D01*
X140525500Y-92930980D01*
X140241020Y-93345000D01*
X140398500Y-93736160D01*
X140446760Y-93855540D01*
X140507720Y-94000320D01*
X140550900Y-94104460D01*
X140576300Y-94150180D01*
X140616940Y-94165420D01*
X140726160Y-94190820D01*
X140881100Y-94223840D01*
X141063980Y-94256860D01*
X141241780Y-94289880D01*
X141401800Y-94320360D01*
X141516100Y-94343220D01*
X141566900Y-94353380D01*
X141579600Y-94361000D01*
X141589760Y-94386400D01*
X141597380Y-94439740D01*
X141599920Y-94536260D01*
X141602460Y-94688660D01*
X141602460Y-94909640D01*
X141602460Y-94932500D01*
X141599920Y-95143320D01*
X141597380Y-95310960D01*
X141592300Y-95420180D01*
X141584680Y-95463360D01*
X141584680Y-95463360D01*
X141533880Y-95476060D01*
X141422120Y-95498920D01*
X141262100Y-95531940D01*
X141071600Y-95567500D01*
X141061440Y-95570040D01*
X140870940Y-95605600D01*
X140713460Y-95638620D01*
X140601700Y-95664020D01*
X140555980Y-95679260D01*
X140545820Y-95691960D01*
X140507720Y-95765620D01*
X140451840Y-95882460D01*
X140390880Y-96027240D01*
X140327380Y-96174560D01*
X140274040Y-96309180D01*
X140238480Y-96408240D01*
X140228320Y-96453960D01*
X140228320Y-96453960D01*
X140256260Y-96499680D01*
X140322300Y-96598740D01*
X140413740Y-96733360D01*
X140525500Y-96895920D01*
X140533120Y-96908620D01*
X140642340Y-97068640D01*
X140731240Y-97203260D01*
X140789660Y-97299780D01*
X140809980Y-97342960D01*
X140809980Y-97345500D01*
X140774420Y-97393760D01*
X140693140Y-97482660D01*
X140576300Y-97604580D01*
X140436600Y-97746820D01*
X140390880Y-97790000D01*
X140235940Y-97942400D01*
X140129260Y-98041460D01*
X140060680Y-98094800D01*
X140027660Y-98107500D01*
X140027660Y-98104960D01*
X139979400Y-98077020D01*
X139877800Y-98010980D01*
X139740640Y-97917000D01*
X139578080Y-97807780D01*
X139567920Y-97800160D01*
X139407900Y-97690940D01*
X139275820Y-97602040D01*
X139179300Y-97538540D01*
X139138660Y-97513140D01*
X139131040Y-97513140D01*
X139067540Y-97533460D01*
X138953240Y-97571560D01*
X138813540Y-97627440D01*
X138666220Y-97685860D01*
X138531600Y-97741740D01*
X138430000Y-97790000D01*
X138381740Y-97815400D01*
X138381740Y-97817940D01*
X138363960Y-97876360D01*
X138336020Y-97995740D01*
X138303000Y-98160840D01*
X138264900Y-98356420D01*
X138259820Y-98386900D01*
X138224260Y-98577400D01*
X138193780Y-98734880D01*
X138170920Y-98844100D01*
X138158220Y-98889820D01*
X138132820Y-98894900D01*
X138038840Y-98902520D01*
X137896600Y-98905060D01*
X137723880Y-98907600D01*
X137543540Y-98905060D01*
X137368280Y-98902520D01*
X137215880Y-98897440D01*
X137109200Y-98889820D01*
X137063480Y-98879660D01*
X137060940Y-98877120D01*
X137045700Y-98818700D01*
X137020300Y-98699320D01*
X136984740Y-98534220D01*
X136946640Y-98336100D01*
X136941560Y-98303080D01*
X136906000Y-98112580D01*
X136872980Y-97957640D01*
X136850120Y-97848420D01*
X136837420Y-97807780D01*
X136822180Y-97797620D01*
X136743440Y-97764600D01*
X136616440Y-97711260D01*
X136456420Y-97647760D01*
X136090660Y-97497900D01*
X135643620Y-97807780D01*
X135600440Y-97835720D01*
X135440420Y-97944940D01*
X135305800Y-98033840D01*
X135214360Y-98092260D01*
X135176260Y-98115120D01*
X135173720Y-98112580D01*
X135128000Y-98074480D01*
X135039100Y-97990660D01*
X134917180Y-97871280D01*
X134777480Y-97731580D01*
X134673340Y-97627440D01*
X134548880Y-97500440D01*
X134470140Y-97416620D01*
X134426960Y-97360740D01*
X134411720Y-97327720D01*
X134416800Y-97307400D01*
X134444740Y-97261680D01*
X134510780Y-97162620D01*
X134602220Y-97025460D01*
X134711440Y-96867980D01*
X134802880Y-96733360D01*
X134899400Y-96583500D01*
X134962900Y-96476820D01*
X134985760Y-96423480D01*
X134980680Y-96400620D01*
X134947660Y-96314260D01*
X134894320Y-96179640D01*
X134828280Y-96022160D01*
X134670800Y-95666560D01*
X134437120Y-95623380D01*
X134297420Y-95595440D01*
X134099300Y-95557340D01*
X133911340Y-95521780D01*
X133616700Y-95463360D01*
X133606540Y-94381320D01*
X133652260Y-94361000D01*
X133695440Y-94348300D01*
X133804660Y-94325440D01*
X133959600Y-94294960D01*
X134145020Y-94259400D01*
X134299960Y-94228920D01*
X134459980Y-94200980D01*
X134571740Y-94178120D01*
X134622540Y-94167960D01*
X134635240Y-94150180D01*
X134675880Y-94073980D01*
X134731760Y-93952060D01*
X134792720Y-93804740D01*
X134856220Y-93654880D01*
X134912100Y-93515180D01*
X134952740Y-93408500D01*
X134965440Y-93352620D01*
X134945120Y-93309440D01*
X134884160Y-93218000D01*
X134797800Y-93085920D01*
X134691120Y-92928440D01*
X134581900Y-92770960D01*
X134493000Y-92636340D01*
X134429500Y-92539820D01*
X134404100Y-92496640D01*
X134416800Y-92466160D01*
X134477760Y-92389960D01*
X134597140Y-92268040D01*
X134772400Y-92092780D01*
X134802880Y-92064840D01*
X134942580Y-91930220D01*
X135061960Y-91821000D01*
X135143240Y-91747340D01*
X135181340Y-91721940D01*
X135181340Y-91721940D01*
G37*
X135181340Y-91721940D02*
X135221980Y-91742260D01*
X135315960Y-91800680D01*
X135450580Y-91889580D01*
X135608060Y-91993720D01*
X135765540Y-92102940D01*
X135895080Y-92189300D01*
X135986520Y-92247720D01*
X136024620Y-92268040D01*
X136044940Y-92262960D01*
X136121140Y-92224860D01*
X136230360Y-92168980D01*
X136293860Y-92135960D01*
X136392920Y-92092780D01*
X136443720Y-92082620D01*
X136451340Y-92097860D01*
X136489440Y-92174060D01*
X136545320Y-92306140D01*
X136621520Y-92478860D01*
X136707880Y-92682060D01*
X136801860Y-92900500D01*
X136893300Y-93124020D01*
X136982200Y-93337380D01*
X137060940Y-93527880D01*
X137124440Y-93682820D01*
X137165080Y-93792040D01*
X137180320Y-93837760D01*
X137175240Y-93847920D01*
X137124440Y-93896180D01*
X137038080Y-93962220D01*
X136847580Y-94117160D01*
X136662160Y-94350840D01*
X136547860Y-94615000D01*
X136509760Y-94909640D01*
X136542780Y-95181420D01*
X136649460Y-95443040D01*
X136832340Y-95679260D01*
X137053320Y-95854520D01*
X137312400Y-95966280D01*
X137604500Y-96001840D01*
X137883900Y-95971360D01*
X138150600Y-95864680D01*
X138386820Y-95684340D01*
X138485880Y-95570040D01*
X138623040Y-95331280D01*
X138701780Y-95074740D01*
X138709400Y-95011240D01*
X138699240Y-94729300D01*
X138615420Y-94460060D01*
X138468100Y-94218760D01*
X138262360Y-94023180D01*
X138234420Y-94002860D01*
X138140440Y-93931740D01*
X138076940Y-93883480D01*
X138026140Y-93842840D01*
X138384280Y-92981780D01*
X138440160Y-92844620D01*
X138539220Y-92608400D01*
X138625580Y-92405200D01*
X138694160Y-92245180D01*
X138742420Y-92135960D01*
X138762740Y-92092780D01*
X138765280Y-92090240D01*
X138795760Y-92085160D01*
X138861800Y-92110560D01*
X138981180Y-92168980D01*
X139062460Y-92209620D01*
X139153900Y-92252800D01*
X139194540Y-92268040D01*
X139230100Y-92250260D01*
X139316460Y-92191840D01*
X139446000Y-92108020D01*
X139598400Y-92003880D01*
X139745720Y-91902280D01*
X139880340Y-91813380D01*
X139979400Y-91752420D01*
X140027660Y-91724480D01*
X140035280Y-91724480D01*
X140075920Y-91749880D01*
X140154660Y-91813380D01*
X140271500Y-91925140D01*
X140436600Y-92087700D01*
X140462000Y-92113100D01*
X140599160Y-92252800D01*
X140710920Y-92369640D01*
X140784580Y-92450920D01*
X140809980Y-92489020D01*
X140809980Y-92489020D01*
X140787120Y-92537280D01*
X140723620Y-92633800D01*
X140634720Y-92770960D01*
X140525500Y-92930980D01*
X140241020Y-93345000D01*
X140398500Y-93736160D01*
X140446760Y-93855540D01*
X140507720Y-94000320D01*
X140550900Y-94104460D01*
X140576300Y-94150180D01*
X140616940Y-94165420D01*
X140726160Y-94190820D01*
X140881100Y-94223840D01*
X141063980Y-94256860D01*
X141241780Y-94289880D01*
X141401800Y-94320360D01*
X141516100Y-94343220D01*
X141566900Y-94353380D01*
X141579600Y-94361000D01*
X141589760Y-94386400D01*
X141597380Y-94439740D01*
X141599920Y-94536260D01*
X141602460Y-94688660D01*
X141602460Y-94909640D01*
X141602460Y-94932500D01*
X141599920Y-95143320D01*
X141597380Y-95310960D01*
X141592300Y-95420180D01*
X141584680Y-95463360D01*
X141584680Y-95463360D01*
X141533880Y-95476060D01*
X141422120Y-95498920D01*
X141262100Y-95531940D01*
X141071600Y-95567500D01*
X141061440Y-95570040D01*
X140870940Y-95605600D01*
X140713460Y-95638620D01*
X140601700Y-95664020D01*
X140555980Y-95679260D01*
X140545820Y-95691960D01*
X140507720Y-95765620D01*
X140451840Y-95882460D01*
X140390880Y-96027240D01*
X140327380Y-96174560D01*
X140274040Y-96309180D01*
X140238480Y-96408240D01*
X140228320Y-96453960D01*
X140228320Y-96453960D01*
X140256260Y-96499680D01*
X140322300Y-96598740D01*
X140413740Y-96733360D01*
X140525500Y-96895920D01*
X140533120Y-96908620D01*
X140642340Y-97068640D01*
X140731240Y-97203260D01*
X140789660Y-97299780D01*
X140809980Y-97342960D01*
X140809980Y-97345500D01*
X140774420Y-97393760D01*
X140693140Y-97482660D01*
X140576300Y-97604580D01*
X140436600Y-97746820D01*
X140390880Y-97790000D01*
X140235940Y-97942400D01*
X140129260Y-98041460D01*
X140060680Y-98094800D01*
X140027660Y-98107500D01*
X140027660Y-98104960D01*
X139979400Y-98077020D01*
X139877800Y-98010980D01*
X139740640Y-97917000D01*
X139578080Y-97807780D01*
X139567920Y-97800160D01*
X139407900Y-97690940D01*
X139275820Y-97602040D01*
X139179300Y-97538540D01*
X139138660Y-97513140D01*
X139131040Y-97513140D01*
X139067540Y-97533460D01*
X138953240Y-97571560D01*
X138813540Y-97627440D01*
X138666220Y-97685860D01*
X138531600Y-97741740D01*
X138430000Y-97790000D01*
X138381740Y-97815400D01*
X138381740Y-97817940D01*
X138363960Y-97876360D01*
X138336020Y-97995740D01*
X138303000Y-98160840D01*
X138264900Y-98356420D01*
X138259820Y-98386900D01*
X138224260Y-98577400D01*
X138193780Y-98734880D01*
X138170920Y-98844100D01*
X138158220Y-98889820D01*
X138132820Y-98894900D01*
X138038840Y-98902520D01*
X137896600Y-98905060D01*
X137723880Y-98907600D01*
X137543540Y-98905060D01*
X137368280Y-98902520D01*
X137215880Y-98897440D01*
X137109200Y-98889820D01*
X137063480Y-98879660D01*
X137060940Y-98877120D01*
X137045700Y-98818700D01*
X137020300Y-98699320D01*
X136984740Y-98534220D01*
X136946640Y-98336100D01*
X136941560Y-98303080D01*
X136906000Y-98112580D01*
X136872980Y-97957640D01*
X136850120Y-97848420D01*
X136837420Y-97807780D01*
X136822180Y-97797620D01*
X136743440Y-97764600D01*
X136616440Y-97711260D01*
X136456420Y-97647760D01*
X136090660Y-97497900D01*
X135643620Y-97807780D01*
X135600440Y-97835720D01*
X135440420Y-97944940D01*
X135305800Y-98033840D01*
X135214360Y-98092260D01*
X135176260Y-98115120D01*
X135173720Y-98112580D01*
X135128000Y-98074480D01*
X135039100Y-97990660D01*
X134917180Y-97871280D01*
X134777480Y-97731580D01*
X134673340Y-97627440D01*
X134548880Y-97500440D01*
X134470140Y-97416620D01*
X134426960Y-97360740D01*
X134411720Y-97327720D01*
X134416800Y-97307400D01*
X134444740Y-97261680D01*
X134510780Y-97162620D01*
X134602220Y-97025460D01*
X134711440Y-96867980D01*
X134802880Y-96733360D01*
X134899400Y-96583500D01*
X134962900Y-96476820D01*
X134985760Y-96423480D01*
X134980680Y-96400620D01*
X134947660Y-96314260D01*
X134894320Y-96179640D01*
X134828280Y-96022160D01*
X134670800Y-95666560D01*
X134437120Y-95623380D01*
X134297420Y-95595440D01*
X134099300Y-95557340D01*
X133911340Y-95521780D01*
X133616700Y-95463360D01*
X133606540Y-94381320D01*
X133652260Y-94361000D01*
X133695440Y-94348300D01*
X133804660Y-94325440D01*
X133959600Y-94294960D01*
X134145020Y-94259400D01*
X134299960Y-94228920D01*
X134459980Y-94200980D01*
X134571740Y-94178120D01*
X134622540Y-94167960D01*
X134635240Y-94150180D01*
X134675880Y-94073980D01*
X134731760Y-93952060D01*
X134792720Y-93804740D01*
X134856220Y-93654880D01*
X134912100Y-93515180D01*
X134952740Y-93408500D01*
X134965440Y-93352620D01*
X134945120Y-93309440D01*
X134884160Y-93218000D01*
X134797800Y-93085920D01*
X134691120Y-92928440D01*
X134581900Y-92770960D01*
X134493000Y-92636340D01*
X134429500Y-92539820D01*
X134404100Y-92496640D01*
X134416800Y-92466160D01*
X134477760Y-92389960D01*
X134597140Y-92268040D01*
X134772400Y-92092780D01*
X134802880Y-92064840D01*
X134942580Y-91930220D01*
X135061960Y-91821000D01*
X135143240Y-91747340D01*
X135181340Y-91721940D01*
D10*
G36*
X142267214Y-107053021D02*
X142230246Y-106846109D01*
X142136512Y-106561200D01*
X142011772Y-106263103D01*
X141881781Y-106016626D01*
X141854876Y-105978587D01*
X141854876Y-106549701D01*
X141789826Y-106862938D01*
X141600612Y-107070378D01*
X141296139Y-107163671D01*
X141195136Y-107168208D01*
X140861016Y-107107223D01*
X140639748Y-106929835D01*
X140540234Y-106644392D01*
X140535396Y-106549701D01*
X140600446Y-106236464D01*
X140789659Y-106029025D01*
X141094133Y-105935731D01*
X141195136Y-105931195D01*
X141529106Y-105989508D01*
X141689941Y-106096130D01*
X141823815Y-106333970D01*
X141854876Y-106549701D01*
X141854876Y-105978587D01*
X141821356Y-105931195D01*
X141745249Y-105804075D01*
X141626720Y-105564635D01*
X141485292Y-105253415D01*
X141404376Y-105065286D01*
X141153135Y-104496728D01*
X140881218Y-103929192D01*
X140600994Y-103384307D01*
X140324834Y-102883704D01*
X140287993Y-102822045D01*
X140287993Y-106549701D01*
X140284098Y-106865936D01*
X140266334Y-107051484D01*
X140225589Y-107140524D01*
X140152747Y-107167238D01*
X140123058Y-107168208D01*
X140002331Y-107129329D01*
X139959825Y-106984669D01*
X139958123Y-106920805D01*
X139937689Y-106745570D01*
X139841298Y-106680982D01*
X139710720Y-106673402D01*
X139535485Y-106693837D01*
X139470897Y-106790227D01*
X139463318Y-106920805D01*
X139437398Y-107101896D01*
X139340959Y-107165655D01*
X139298383Y-107168208D01*
X139214053Y-107153599D01*
X139164574Y-107086988D01*
X139140830Y-106934193D01*
X139133706Y-106661036D01*
X139133448Y-106549701D01*
X139137343Y-106233467D01*
X139155106Y-106047919D01*
X139195851Y-105958878D01*
X139268693Y-105932165D01*
X139298383Y-105931195D01*
X139412059Y-105963482D01*
X139457926Y-106089528D01*
X139463318Y-106219831D01*
X139477109Y-106413755D01*
X139547064Y-106493294D01*
X139710720Y-106508467D01*
X139876941Y-106492377D01*
X139945117Y-106410763D01*
X139958123Y-106219831D01*
X139976573Y-106020897D01*
X140048599Y-105940630D01*
X140123058Y-105931195D01*
X140207387Y-105945803D01*
X140256867Y-106012414D01*
X140280611Y-106165209D01*
X140287734Y-106438366D01*
X140287993Y-106549701D01*
X140287993Y-102822045D01*
X140065110Y-102449014D01*
X139834192Y-102101868D01*
X139644452Y-101863897D01*
X139513191Y-101758488D01*
X139391602Y-101771998D01*
X139169945Y-101845108D01*
X138894965Y-101962254D01*
X138886045Y-101966454D01*
X138886045Y-106064510D01*
X138842206Y-106157595D01*
X138688123Y-106159841D01*
X138670276Y-106156578D01*
X138448511Y-106182055D01*
X138254628Y-106310690D01*
X138149255Y-106497210D01*
X138143837Y-106549701D01*
X138215803Y-106744602D01*
X138389893Y-106898009D01*
X138603396Y-106962691D01*
X138681132Y-106954355D01*
X138837482Y-106941384D01*
X138885779Y-107023467D01*
X138886045Y-107035566D01*
X138845747Y-107121280D01*
X138701803Y-107161064D01*
X138514941Y-107168208D01*
X138160695Y-107113347D01*
X137929588Y-106949118D01*
X137822217Y-106676044D01*
X137813967Y-106549701D01*
X137876142Y-106237131D01*
X138062269Y-106033213D01*
X138371752Y-105938474D01*
X138514941Y-105931195D01*
X138754462Y-105945485D01*
X138865743Y-105996709D01*
X138886045Y-106064510D01*
X138886045Y-101966454D01*
X138879815Y-101969386D01*
X138323541Y-102169062D01*
X137792738Y-102218114D01*
X137566565Y-102176157D01*
X137566565Y-106549701D01*
X137562669Y-106865936D01*
X137544906Y-107051484D01*
X137504161Y-107140524D01*
X137431319Y-107167238D01*
X137401629Y-107168208D01*
X137296151Y-107142231D01*
X137247625Y-107035894D01*
X137235914Y-106817721D01*
X137235134Y-106467234D01*
X137025071Y-106817721D01*
X136857495Y-107051569D01*
X136701769Y-107155733D01*
X136613514Y-107168208D01*
X136511005Y-107159937D01*
X136450914Y-107111976D01*
X136421929Y-106989603D01*
X136412738Y-106758094D01*
X136412019Y-106549701D01*
X136415915Y-106233467D01*
X136433678Y-106047919D01*
X136474423Y-105958878D01*
X136547265Y-105932165D01*
X136576954Y-105931195D01*
X136682432Y-105957171D01*
X136730959Y-106063508D01*
X136742669Y-106281682D01*
X136743450Y-106632169D01*
X136953512Y-106281682D01*
X137121088Y-106047833D01*
X137276815Y-105943670D01*
X137365070Y-105931195D01*
X137467578Y-105939465D01*
X137527669Y-105987426D01*
X137556654Y-106109800D01*
X137565845Y-106341308D01*
X137566565Y-106549701D01*
X137566565Y-102176157D01*
X137249090Y-102117262D01*
X136948058Y-102005585D01*
X136672034Y-101890168D01*
X136445537Y-101799203D01*
X136329552Y-101756487D01*
X136212624Y-101800601D01*
X136164616Y-101841967D01*
X136164616Y-106549701D01*
X136099566Y-106862938D01*
X135910353Y-107070378D01*
X135605880Y-107163671D01*
X135504876Y-107168208D01*
X135170757Y-107107223D01*
X134949488Y-106929835D01*
X134849975Y-106644392D01*
X134845136Y-106549701D01*
X134910186Y-106236464D01*
X135099400Y-106029025D01*
X135403873Y-105935731D01*
X135504876Y-105931195D01*
X135838847Y-105989508D01*
X135999681Y-106096130D01*
X136133555Y-106333970D01*
X136164616Y-106549701D01*
X136164616Y-101841967D01*
X136014324Y-101971464D01*
X135745680Y-102259201D01*
X135669811Y-102347076D01*
X135361639Y-102718730D01*
X135099299Y-103062571D01*
X134861159Y-103412884D01*
X134762668Y-103576386D01*
X134762668Y-106755870D01*
X134724015Y-106971980D01*
X134591354Y-107101280D01*
X134339631Y-107160039D01*
X134127668Y-107168208D01*
X133690590Y-107168208D01*
X133690590Y-106549701D01*
X133694486Y-106233467D01*
X133712249Y-106047919D01*
X133752994Y-105958878D01*
X133825836Y-105932165D01*
X133855526Y-105931195D01*
X133984861Y-105979515D01*
X134020461Y-106137363D01*
X134043827Y-106279773D01*
X134146769Y-106335768D01*
X134292603Y-106343532D01*
X134570850Y-106391207D01*
X134723432Y-106540765D01*
X134762668Y-106755870D01*
X134762668Y-103576386D01*
X134625584Y-103803954D01*
X134370942Y-104270065D01*
X134075600Y-104845501D01*
X134006695Y-104982818D01*
X133804054Y-105385004D01*
X133624032Y-105737090D01*
X133480873Y-106011615D01*
X133388822Y-106181120D01*
X133364988Y-106219831D01*
X133251787Y-106487738D01*
X133261098Y-106794299D01*
X133339420Y-106988072D01*
X133519746Y-107220239D01*
X133760729Y-107453175D01*
X134001617Y-107631582D01*
X134102928Y-107683014D01*
X134215914Y-107754258D01*
X134420780Y-107907511D01*
X134684296Y-108117308D01*
X134870347Y-108271142D01*
X135253106Y-108577727D01*
X135637540Y-108860151D01*
X135995615Y-109100156D01*
X136299298Y-109279482D01*
X136520555Y-109379871D01*
X136595577Y-109394831D01*
X136738745Y-109337987D01*
X136862704Y-109233085D01*
X136932677Y-109144089D01*
X136963035Y-109047372D01*
X136952352Y-108902306D01*
X136899198Y-108668261D01*
X136834252Y-108423411D01*
X136729423Y-108040541D01*
X136667800Y-107768913D01*
X136668606Y-107589551D01*
X136751064Y-107483480D01*
X136934395Y-107431726D01*
X137237822Y-107415314D01*
X137680568Y-107415267D01*
X137855201Y-107415610D01*
X138348116Y-107419152D01*
X138695101Y-107430879D01*
X138915029Y-107452446D01*
X139026775Y-107485505D01*
X139050980Y-107520352D01*
X139030021Y-107646340D01*
X138974633Y-107883326D01*
X138896048Y-108183819D01*
X138881907Y-108235213D01*
X138774588Y-108681847D01*
X138740394Y-108995631D01*
X138780176Y-109191972D01*
X138894785Y-109286279D01*
X138940492Y-109296512D01*
X139152053Y-109265910D01*
X139471374Y-109137189D01*
X139881301Y-108919929D01*
X140364675Y-108623713D01*
X140904341Y-108258122D01*
X141256987Y-108002813D01*
X141661046Y-107698303D01*
X141946254Y-107469490D01*
X142130378Y-107299667D01*
X142231189Y-107172128D01*
X142266455Y-107070167D01*
X142267214Y-107053021D01*
X142267214Y-107053021D01*
X142267214Y-107053021D01*
G37*
X142267214Y-107053021D02*
X142230246Y-106846109D01*
X142136512Y-106561200D01*
X142011772Y-106263103D01*
X141881781Y-106016626D01*
X141854876Y-105978587D01*
X141854876Y-106549701D01*
X141789826Y-106862938D01*
X141600612Y-107070378D01*
X141296139Y-107163671D01*
X141195136Y-107168208D01*
X140861016Y-107107223D01*
X140639748Y-106929835D01*
X140540234Y-106644392D01*
X140535396Y-106549701D01*
X140600446Y-106236464D01*
X140789659Y-106029025D01*
X141094133Y-105935731D01*
X141195136Y-105931195D01*
X141529106Y-105989508D01*
X141689941Y-106096130D01*
X141823815Y-106333970D01*
X141854876Y-106549701D01*
X141854876Y-105978587D01*
X141821356Y-105931195D01*
X141745249Y-105804075D01*
X141626720Y-105564635D01*
X141485292Y-105253415D01*
X141404376Y-105065286D01*
X141153135Y-104496728D01*
X140881218Y-103929192D01*
X140600994Y-103384307D01*
X140324834Y-102883704D01*
X140287993Y-102822045D01*
X140287993Y-106549701D01*
X140284098Y-106865936D01*
X140266334Y-107051484D01*
X140225589Y-107140524D01*
X140152747Y-107167238D01*
X140123058Y-107168208D01*
X140002331Y-107129329D01*
X139959825Y-106984669D01*
X139958123Y-106920805D01*
X139937689Y-106745570D01*
X139841298Y-106680982D01*
X139710720Y-106673402D01*
X139535485Y-106693837D01*
X139470897Y-106790227D01*
X139463318Y-106920805D01*
X139437398Y-107101896D01*
X139340959Y-107165655D01*
X139298383Y-107168208D01*
X139214053Y-107153599D01*
X139164574Y-107086988D01*
X139140830Y-106934193D01*
X139133706Y-106661036D01*
X139133448Y-106549701D01*
X139137343Y-106233467D01*
X139155106Y-106047919D01*
X139195851Y-105958878D01*
X139268693Y-105932165D01*
X139298383Y-105931195D01*
X139412059Y-105963482D01*
X139457926Y-106089528D01*
X139463318Y-106219831D01*
X139477109Y-106413755D01*
X139547064Y-106493294D01*
X139710720Y-106508467D01*
X139876941Y-106492377D01*
X139945117Y-106410763D01*
X139958123Y-106219831D01*
X139976573Y-106020897D01*
X140048599Y-105940630D01*
X140123058Y-105931195D01*
X140207387Y-105945803D01*
X140256867Y-106012414D01*
X140280611Y-106165209D01*
X140287734Y-106438366D01*
X140287993Y-106549701D01*
X140287993Y-102822045D01*
X140065110Y-102449014D01*
X139834192Y-102101868D01*
X139644452Y-101863897D01*
X139513191Y-101758488D01*
X139391602Y-101771998D01*
X139169945Y-101845108D01*
X138894965Y-101962254D01*
X138886045Y-101966454D01*
X138886045Y-106064510D01*
X138842206Y-106157595D01*
X138688123Y-106159841D01*
X138670276Y-106156578D01*
X138448511Y-106182055D01*
X138254628Y-106310690D01*
X138149255Y-106497210D01*
X138143837Y-106549701D01*
X138215803Y-106744602D01*
X138389893Y-106898009D01*
X138603396Y-106962691D01*
X138681132Y-106954355D01*
X138837482Y-106941384D01*
X138885779Y-107023467D01*
X138886045Y-107035566D01*
X138845747Y-107121280D01*
X138701803Y-107161064D01*
X138514941Y-107168208D01*
X138160695Y-107113347D01*
X137929588Y-106949118D01*
X137822217Y-106676044D01*
X137813967Y-106549701D01*
X137876142Y-106237131D01*
X138062269Y-106033213D01*
X138371752Y-105938474D01*
X138514941Y-105931195D01*
X138754462Y-105945485D01*
X138865743Y-105996709D01*
X138886045Y-106064510D01*
X138886045Y-101966454D01*
X138879815Y-101969386D01*
X138323541Y-102169062D01*
X137792738Y-102218114D01*
X137566565Y-102176157D01*
X137566565Y-106549701D01*
X137562669Y-106865936D01*
X137544906Y-107051484D01*
X137504161Y-107140524D01*
X137431319Y-107167238D01*
X137401629Y-107168208D01*
X137296151Y-107142231D01*
X137247625Y-107035894D01*
X137235914Y-106817721D01*
X137235134Y-106467234D01*
X137025071Y-106817721D01*
X136857495Y-107051569D01*
X136701769Y-107155733D01*
X136613514Y-107168208D01*
X136511005Y-107159937D01*
X136450914Y-107111976D01*
X136421929Y-106989603D01*
X136412738Y-106758094D01*
X136412019Y-106549701D01*
X136415915Y-106233467D01*
X136433678Y-106047919D01*
X136474423Y-105958878D01*
X136547265Y-105932165D01*
X136576954Y-105931195D01*
X136682432Y-105957171D01*
X136730959Y-106063508D01*
X136742669Y-106281682D01*
X136743450Y-106632169D01*
X136953512Y-106281682D01*
X137121088Y-106047833D01*
X137276815Y-105943670D01*
X137365070Y-105931195D01*
X137467578Y-105939465D01*
X137527669Y-105987426D01*
X137556654Y-106109800D01*
X137565845Y-106341308D01*
X137566565Y-106549701D01*
X137566565Y-102176157D01*
X137249090Y-102117262D01*
X136948058Y-102005585D01*
X136672034Y-101890168D01*
X136445537Y-101799203D01*
X136329552Y-101756487D01*
X136212624Y-101800601D01*
X136164616Y-101841967D01*
X136164616Y-106549701D01*
X136099566Y-106862938D01*
X135910353Y-107070378D01*
X135605880Y-107163671D01*
X135504876Y-107168208D01*
X135170757Y-107107223D01*
X134949488Y-106929835D01*
X134849975Y-106644392D01*
X134845136Y-106549701D01*
X134910186Y-106236464D01*
X135099400Y-106029025D01*
X135403873Y-105935731D01*
X135504876Y-105931195D01*
X135838847Y-105989508D01*
X135999681Y-106096130D01*
X136133555Y-106333970D01*
X136164616Y-106549701D01*
X136164616Y-101841967D01*
X136014324Y-101971464D01*
X135745680Y-102259201D01*
X135669811Y-102347076D01*
X135361639Y-102718730D01*
X135099299Y-103062571D01*
X134861159Y-103412884D01*
X134762668Y-103576386D01*
X134762668Y-106755870D01*
X134724015Y-106971980D01*
X134591354Y-107101280D01*
X134339631Y-107160039D01*
X134127668Y-107168208D01*
X133690590Y-107168208D01*
X133690590Y-106549701D01*
X133694486Y-106233467D01*
X133712249Y-106047919D01*
X133752994Y-105958878D01*
X133825836Y-105932165D01*
X133855526Y-105931195D01*
X133984861Y-105979515D01*
X134020461Y-106137363D01*
X134043827Y-106279773D01*
X134146769Y-106335768D01*
X134292603Y-106343532D01*
X134570850Y-106391207D01*
X134723432Y-106540765D01*
X134762668Y-106755870D01*
X134762668Y-103576386D01*
X134625584Y-103803954D01*
X134370942Y-104270065D01*
X134075600Y-104845501D01*
X134006695Y-104982818D01*
X133804054Y-105385004D01*
X133624032Y-105737090D01*
X133480873Y-106011615D01*
X133388822Y-106181120D01*
X133364988Y-106219831D01*
X133251787Y-106487738D01*
X133261098Y-106794299D01*
X133339420Y-106988072D01*
X133519746Y-107220239D01*
X133760729Y-107453175D01*
X134001617Y-107631582D01*
X134102928Y-107683014D01*
X134215914Y-107754258D01*
X134420780Y-107907511D01*
X134684296Y-108117308D01*
X134870347Y-108271142D01*
X135253106Y-108577727D01*
X135637540Y-108860151D01*
X135995615Y-109100156D01*
X136299298Y-109279482D01*
X136520555Y-109379871D01*
X136595577Y-109394831D01*
X136738745Y-109337987D01*
X136862704Y-109233085D01*
X136932677Y-109144089D01*
X136963035Y-109047372D01*
X136952352Y-108902306D01*
X136899198Y-108668261D01*
X136834252Y-108423411D01*
X136729423Y-108040541D01*
X136667800Y-107768913D01*
X136668606Y-107589551D01*
X136751064Y-107483480D01*
X136934395Y-107431726D01*
X137237822Y-107415314D01*
X137680568Y-107415267D01*
X137855201Y-107415610D01*
X138348116Y-107419152D01*
X138695101Y-107430879D01*
X138915029Y-107452446D01*
X139026775Y-107485505D01*
X139050980Y-107520352D01*
X139030021Y-107646340D01*
X138974633Y-107883326D01*
X138896048Y-108183819D01*
X138881907Y-108235213D01*
X138774588Y-108681847D01*
X138740394Y-108995631D01*
X138780176Y-109191972D01*
X138894785Y-109286279D01*
X138940492Y-109296512D01*
X139152053Y-109265910D01*
X139471374Y-109137189D01*
X139881301Y-108919929D01*
X140364675Y-108623713D01*
X140904341Y-108258122D01*
X141256987Y-108002813D01*
X141661046Y-107698303D01*
X141946254Y-107469490D01*
X142130378Y-107299667D01*
X142231189Y-107172128D01*
X142266455Y-107070167D01*
X142267214Y-107053021D01*
X142267214Y-107053021D01*
G36*
X138755042Y-110162319D02*
X138626902Y-109815445D01*
X138410917Y-109538230D01*
X138294802Y-109408356D01*
X138239534Y-109295698D01*
X138237566Y-109146981D01*
X138281354Y-108908930D01*
X138305794Y-108796022D01*
X138389812Y-108399188D01*
X138427610Y-108135422D01*
X138406883Y-107976382D01*
X138315322Y-107893723D01*
X138140622Y-107859104D01*
X137892940Y-107845187D01*
X137607950Y-107841195D01*
X137391618Y-107854263D01*
X137295050Y-107879549D01*
X137241192Y-108044268D01*
X137265059Y-108349684D01*
X137366276Y-108791222D01*
X137371485Y-108810058D01*
X137506275Y-109294872D01*
X137242692Y-109530404D01*
X137017147Y-109828585D01*
X136923076Y-110172824D01*
X136955980Y-110522523D01*
X137111362Y-110837085D01*
X137384723Y-111075915D01*
X137415790Y-111092738D01*
X137765219Y-111189905D01*
X138111575Y-111141730D01*
X138418640Y-110964441D01*
X138650191Y-110674265D01*
X138721192Y-110507895D01*
X138755042Y-110162319D01*
X138755042Y-110162319D01*
X138755042Y-110162319D01*
G37*
X138755042Y-110162319D02*
X138626902Y-109815445D01*
X138410917Y-109538230D01*
X138294802Y-109408356D01*
X138239534Y-109295698D01*
X138237566Y-109146981D01*
X138281354Y-108908930D01*
X138305794Y-108796022D01*
X138389812Y-108399188D01*
X138427610Y-108135422D01*
X138406883Y-107976382D01*
X138315322Y-107893723D01*
X138140622Y-107859104D01*
X137892940Y-107845187D01*
X137607950Y-107841195D01*
X137391618Y-107854263D01*
X137295050Y-107879549D01*
X137241192Y-108044268D01*
X137265059Y-108349684D01*
X137366276Y-108791222D01*
X137371485Y-108810058D01*
X137506275Y-109294872D01*
X137242692Y-109530404D01*
X137017147Y-109828585D01*
X136923076Y-110172824D01*
X136955980Y-110522523D01*
X137111362Y-110837085D01*
X137384723Y-111075915D01*
X137415790Y-111092738D01*
X137765219Y-111189905D01*
X138111575Y-111141730D01*
X138418640Y-110964441D01*
X138650191Y-110674265D01*
X138721192Y-110507895D01*
X138755042Y-110162319D01*
X138755042Y-110162319D01*
G36*
X134411421Y-106747578D02*
X134350331Y-106632169D01*
X134193894Y-106513441D01*
X134074556Y-106548650D01*
X134021086Y-106727007D01*
X134020461Y-106755870D01*
X134064619Y-106949821D01*
X134177917Y-107001850D01*
X134331585Y-106901170D01*
X134350331Y-106879571D01*
X134411421Y-106747578D01*
X134411421Y-106747578D01*
X134411421Y-106747578D01*
G37*
X134411421Y-106747578D02*
X134350331Y-106632169D01*
X134193894Y-106513441D01*
X134074556Y-106548650D01*
X134021086Y-106727007D01*
X134020461Y-106755870D01*
X134064619Y-106949821D01*
X134177917Y-107001850D01*
X134331585Y-106901170D01*
X134350331Y-106879571D01*
X134411421Y-106747578D01*
X134411421Y-106747578D01*
G36*
X135819676Y-106572700D02*
X135796306Y-106432732D01*
X135724855Y-106311801D01*
X135602995Y-106160516D01*
X135506028Y-106096152D01*
X135504876Y-106096130D01*
X135408857Y-106158458D01*
X135286948Y-106308683D01*
X135284897Y-106311801D01*
X135194094Y-106482840D01*
X135204940Y-106623017D01*
X135265542Y-106744756D01*
X135388018Y-106899895D01*
X135504876Y-106962039D01*
X135625463Y-106896510D01*
X135744211Y-106744756D01*
X135819676Y-106572700D01*
X135819676Y-106572700D01*
X135819676Y-106572700D01*
G37*
X135819676Y-106572700D02*
X135796306Y-106432732D01*
X135724855Y-106311801D01*
X135602995Y-106160516D01*
X135506028Y-106096152D01*
X135504876Y-106096130D01*
X135408857Y-106158458D01*
X135286948Y-106308683D01*
X135284897Y-106311801D01*
X135194094Y-106482840D01*
X135204940Y-106623017D01*
X135265542Y-106744756D01*
X135388018Y-106899895D01*
X135504876Y-106962039D01*
X135625463Y-106896510D01*
X135744211Y-106744756D01*
X135819676Y-106572700D01*
X135819676Y-106572700D01*
G36*
X141509935Y-106572700D02*
X141486565Y-106432732D01*
X141415115Y-106311801D01*
X141293255Y-106160516D01*
X141196288Y-106096152D01*
X141195136Y-106096130D01*
X141099116Y-106158458D01*
X140977208Y-106308683D01*
X140975157Y-106311801D01*
X140884354Y-106482840D01*
X140895199Y-106623017D01*
X140955801Y-106744756D01*
X141078278Y-106899895D01*
X141195136Y-106962039D01*
X141315723Y-106896510D01*
X141434471Y-106744756D01*
X141509935Y-106572700D01*
X141509935Y-106572700D01*
X141509935Y-106572700D01*
G37*
X141509935Y-106572700D02*
X141486565Y-106432732D01*
X141415115Y-106311801D01*
X141293255Y-106160516D01*
X141196288Y-106096152D01*
X141195136Y-106096130D01*
X141099116Y-106158458D01*
X140977208Y-106308683D01*
X140975157Y-106311801D01*
X140884354Y-106482840D01*
X140895199Y-106623017D01*
X140955801Y-106744756D01*
X141078278Y-106899895D01*
X141195136Y-106962039D01*
X141315723Y-106896510D01*
X141434471Y-106744756D01*
X141509935Y-106572700D01*
X141509935Y-106572700D01*
D12*
X161671000Y-62865000D03*
D13*
X164211000Y-62865000D03*
X161671000Y-75565000D03*
X164211000Y-65405000D03*
X161671000Y-78105000D03*
X164211000Y-67945000D03*
X161671000Y-80645000D03*
X164211000Y-70485000D03*
X161671000Y-83185000D03*
X164211000Y-73025000D03*
X161671000Y-85725000D03*
X164211000Y-75565000D03*
X161671000Y-88265000D03*
X164211000Y-78105000D03*
X161671000Y-90805000D03*
X164211000Y-80645000D03*
X161671000Y-93345000D03*
X164211000Y-83185000D03*
X161671000Y-95885000D03*
X164211000Y-85725000D03*
X161671000Y-98425000D03*
X164211000Y-88265000D03*
X161671000Y-100965000D03*
X164211000Y-90805000D03*
X164211000Y-93345000D03*
X161671000Y-103505000D03*
X164211000Y-95885000D03*
X164211000Y-100965000D03*
X164211000Y-103505000D03*
X164211000Y-106045000D03*
X164211000Y-108585000D03*
X161671000Y-106045000D03*
X161671000Y-108585000D03*
X161671000Y-65405000D03*
X161671000Y-67945000D03*
X161671000Y-70485000D03*
X161671000Y-73025000D03*
X161671000Y-111125000D03*
X164211000Y-111125000D03*
X164211000Y-98425000D03*
D14*
X145415000Y-68834000D03*
D15*
X147955000Y-68834000D03*
X150495000Y-68834000D03*
D14*
X145415000Y-75946000D03*
D15*
X147955000Y-75946000D03*
X150495000Y-75946000D03*
D14*
X145415000Y-72390000D03*
D15*
X147955000Y-72390000D03*
X150495000Y-72390000D03*
D14*
X141605000Y-69850000D03*
D15*
X141605000Y-67310000D03*
X139065000Y-69850000D03*
X139065000Y-67310000D03*
X136525000Y-69850000D03*
X136525000Y-67310000D03*
X133985000Y-69850000D03*
X133985000Y-67310000D03*
X131445000Y-69850000D03*
X131445000Y-67310000D03*
D16*
X150749000Y-112979200D03*
X153289000Y-110439200D03*
X148209000Y-110439200D03*
X148209000Y-115519200D03*
X153289000Y-115519200D03*
D17*
X143383000Y-111506000D03*
X131826000Y-111506000D03*
D18*
X156210000Y-62166500D03*
X154813000Y-75565000D03*
X137033000Y-77406500D03*
X137223500Y-88138000D03*
X153543000Y-86614000D03*
X151447500Y-104140000D03*
X146685000Y-104076500D03*
X147637500Y-106299000D03*
X152908000Y-106489500D03*
X137668000Y-72898000D03*
X151384000Y-88265000D03*
X158242000Y-72771000D03*
X159385000Y-70231000D03*
X148717000Y-88265000D03*
X138684000Y-88138000D03*
X138684000Y-77470000D03*
D19*
X159385000Y-63690500D02*
X159385000Y-63119000D01*
X159385000Y-63119000D02*
X158432500Y-62166500D01*
X158432500Y-62166500D02*
X156210000Y-62166500D01*
X159385000Y-63690500D02*
X159385000Y-67945000D01*
X156845000Y-74993500D02*
X156845000Y-70485000D01*
X156845000Y-70485000D02*
X159385000Y-67945000D01*
D20*
X154813000Y-75565000D02*
X156845000Y-75565000D01*
X137033000Y-77406500D02*
X137033000Y-77470000D01*
X137223500Y-77660500D02*
X137223500Y-88138000D01*
X137033000Y-77470000D02*
X137223500Y-77660500D01*
D19*
X156845000Y-75565000D02*
X156845000Y-74993500D01*
X159385000Y-67945000D02*
X159385000Y-68008500D01*
X156845000Y-74993500D02*
X156845000Y-74803000D01*
X156845000Y-85598000D02*
X156845000Y-75565000D01*
X155829000Y-86614000D02*
X156845000Y-85598000D01*
X153543000Y-86614000D02*
X155829000Y-86614000D01*
D21*
X151447500Y-104140000D02*
X151384000Y-104076500D01*
X151384000Y-104076500D02*
X146685000Y-104076500D01*
X147637500Y-106299000D02*
X147828000Y-106489500D01*
X147828000Y-106489500D02*
X152908000Y-106489500D01*
D20*
X158242000Y-73580000D02*
X158242000Y-86995000D01*
X158242000Y-86995000D02*
X156972000Y-88265000D01*
X156972000Y-88265000D02*
X151384000Y-88265000D01*
X158242000Y-73660000D02*
X158242000Y-73580000D01*
X158242000Y-72771000D02*
X158242000Y-73660000D01*
X159385000Y-87757000D02*
X159385000Y-87884000D01*
X159385000Y-70866000D02*
X159385000Y-86868000D01*
X159385000Y-86868000D02*
X159385000Y-87630000D01*
X159385000Y-87630000D02*
X159385000Y-87757000D01*
X149987000Y-89535000D02*
X148717000Y-88265000D01*
X157734000Y-89535000D02*
X149987000Y-89535000D01*
X159385000Y-87884000D02*
X157734000Y-89535000D01*
X159385000Y-70231000D02*
X159385000Y-70866000D01*
X138684000Y-77470000D02*
X138684000Y-78486000D01*
X138684000Y-78486000D02*
X138684000Y-88138000D01*
D19*
X156210000Y-68834000D02*
X150495000Y-68834000D01*
X158813500Y-59372500D02*
X156019500Y-59372500D01*
X158813500Y-59372500D02*
X163004500Y-59372500D01*
X163004500Y-59372500D02*
X164211000Y-60579000D01*
X164211000Y-62865000D02*
X164211000Y-60579000D01*
X157861000Y-67183000D02*
X156210000Y-68834000D01*
X157861000Y-65087500D02*
X157861000Y-67183000D01*
X157353000Y-64579500D02*
X157861000Y-65087500D01*
X155702000Y-64579500D02*
X157353000Y-64579500D01*
X154686000Y-63563500D02*
X155702000Y-64579500D01*
X154686000Y-60706000D02*
X154686000Y-63563500D01*
X156019500Y-59372500D02*
X154686000Y-60706000D01*
D20*
X142494000Y-71628000D02*
X142621000Y-71628000D01*
X133985000Y-70739000D02*
X134874000Y-71628000D01*
X134874000Y-71628000D02*
X142494000Y-71628000D01*
X133985000Y-69850000D02*
X133985000Y-70739000D01*
X144145000Y-75946000D02*
X145415000Y-75946000D01*
X143256000Y-75057000D02*
X144145000Y-75946000D01*
X143256000Y-72263000D02*
X143256000Y-75057000D01*
X142621000Y-71628000D02*
X143256000Y-72263000D01*
X145542000Y-84963000D02*
X146558000Y-83947000D01*
X159512000Y-93345000D02*
X158242000Y-92075000D01*
X158242000Y-92075000D02*
X147828000Y-92075000D01*
X147828000Y-92075000D02*
X145542000Y-89789000D01*
X145542000Y-89789000D02*
X145542000Y-84963000D01*
X161671000Y-93345000D02*
X159512000Y-93345000D01*
X151511000Y-75946000D02*
X150495000Y-75946000D01*
X152400000Y-76835000D02*
X151511000Y-75946000D01*
X152400000Y-82550000D02*
X152400000Y-76835000D01*
X151003000Y-83947000D02*
X152400000Y-82550000D01*
X146558000Y-83947000D02*
X151003000Y-83947000D01*
X161671000Y-93345000D02*
X161544000Y-93345000D01*
X133985000Y-67310000D02*
X133985000Y-66294000D01*
X143510000Y-70485000D02*
X145415000Y-72390000D01*
X143510000Y-66675000D02*
X143510000Y-70485000D01*
X142240000Y-65405000D02*
X143510000Y-66675000D01*
X134874000Y-65405000D02*
X142240000Y-65405000D01*
X133985000Y-66294000D02*
X134874000Y-65405000D01*
X133985000Y-67310000D02*
X133985000Y-66675000D01*
X147955000Y-84963000D02*
X151765000Y-84963000D01*
X147891500Y-85026500D02*
X146939000Y-85979000D01*
X147955000Y-84963000D02*
X147891500Y-85026500D01*
X146939000Y-85979000D02*
X146939000Y-89281000D01*
X146939000Y-89281000D02*
X148463000Y-90805000D01*
X161671000Y-90805000D02*
X148463000Y-90805000D01*
X153543000Y-73406000D02*
X152527000Y-72390000D01*
X152527000Y-72390000D02*
X150495000Y-72390000D01*
X153543000Y-83185000D02*
X153543000Y-73406000D01*
X151765000Y-84963000D02*
X153543000Y-83185000D01*
D22*
G36*
X169216000Y-116765000D02*
X154578916Y-116765000D01*
X154646662Y-116697254D01*
X154531351Y-116581943D01*
X154811090Y-116468082D01*
X154966961Y-116152904D01*
X155058349Y-115813374D01*
X155081741Y-115462539D01*
X155036240Y-115113881D01*
X154923594Y-114780800D01*
X154811090Y-114570318D01*
X154531349Y-114456456D01*
X153468605Y-115519200D01*
X153482748Y-115533343D01*
X153303143Y-115712948D01*
X153289000Y-115698805D01*
X153274858Y-115712948D01*
X153095253Y-115533343D01*
X153109395Y-115519200D01*
X152046651Y-114456456D01*
X151766910Y-114570318D01*
X151611039Y-114885496D01*
X151519651Y-115225026D01*
X151496259Y-115575861D01*
X151541760Y-115924519D01*
X151654406Y-116257600D01*
X151766910Y-116468082D01*
X152046649Y-116581943D01*
X151931338Y-116697254D01*
X151999084Y-116765000D01*
X149498916Y-116765000D01*
X149566662Y-116697254D01*
X149451351Y-116581943D01*
X149731090Y-116468082D01*
X149886961Y-116152904D01*
X149978349Y-115813374D01*
X150001741Y-115462539D01*
X149956240Y-115113881D01*
X149843594Y-114780800D01*
X149731090Y-114570318D01*
X149451349Y-114456456D01*
X148388605Y-115519200D01*
X148402748Y-115533343D01*
X148223143Y-115712948D01*
X148209000Y-115698805D01*
X148194858Y-115712948D01*
X148015253Y-115533343D01*
X148029395Y-115519200D01*
X146966651Y-114456456D01*
X146686910Y-114570318D01*
X146531039Y-114885496D01*
X146439651Y-115225026D01*
X146416259Y-115575861D01*
X146461760Y-115924519D01*
X146574406Y-116257600D01*
X146686910Y-116468082D01*
X146966649Y-116581943D01*
X146851338Y-116697254D01*
X146919084Y-116765000D01*
X129996000Y-116765000D01*
X129996000Y-114052100D01*
X130289160Y-114255852D01*
X130852544Y-114501989D01*
X131453007Y-114634009D01*
X132067678Y-114646885D01*
X132673143Y-114540125D01*
X133246340Y-114317796D01*
X133765438Y-113988367D01*
X134210662Y-113564385D01*
X134565056Y-113062000D01*
X134815120Y-112500348D01*
X134951329Y-111900821D01*
X134961135Y-111198597D01*
X134841718Y-110595501D01*
X134607434Y-110027085D01*
X134267206Y-109515001D01*
X133833993Y-109078753D01*
X133324297Y-108734958D01*
X132757530Y-108496712D01*
X132155282Y-108373088D01*
X131540492Y-108368796D01*
X130936577Y-108483999D01*
X130366539Y-108714309D01*
X129996000Y-108956783D01*
X129996000Y-106481689D01*
X132566814Y-106481689D01*
X132567584Y-106490325D01*
X132566879Y-106498972D01*
X132567103Y-106508534D01*
X132576414Y-106815094D01*
X132582724Y-106864085D01*
X132586522Y-106913345D01*
X132591249Y-106930265D01*
X132593493Y-106947688D01*
X132609201Y-106994526D01*
X132622492Y-107042104D01*
X132626014Y-107050996D01*
X132704336Y-107244769D01*
X132714962Y-107265087D01*
X132722893Y-107286601D01*
X132745872Y-107324192D01*
X132766291Y-107363236D01*
X132780663Y-107381107D01*
X132792620Y-107400666D01*
X132798433Y-107408261D01*
X132978759Y-107640428D01*
X133008914Y-107672275D01*
X133036841Y-107706065D01*
X133043671Y-107712761D01*
X133284654Y-107945697D01*
X133316049Y-107970605D01*
X133345394Y-107997897D01*
X133353040Y-108003643D01*
X133593928Y-108182050D01*
X133639080Y-108209099D01*
X133683039Y-108237991D01*
X133691536Y-108242381D01*
X133764483Y-108279413D01*
X133827459Y-108319123D01*
X134002202Y-108449842D01*
X134252707Y-108649282D01*
X134433847Y-108799056D01*
X134434302Y-108799363D01*
X134434686Y-108799748D01*
X134442109Y-108805780D01*
X134824868Y-109112365D01*
X134832868Y-109117579D01*
X134839882Y-109124052D01*
X134847550Y-109129768D01*
X135231984Y-109412192D01*
X135240600Y-109417308D01*
X135248247Y-109423778D01*
X135256154Y-109429159D01*
X135614230Y-109669164D01*
X135627276Y-109676169D01*
X135639111Y-109685075D01*
X135647313Y-109689995D01*
X135950995Y-109869321D01*
X135980054Y-109882848D01*
X136007587Y-109899264D01*
X136016269Y-109903277D01*
X136237526Y-110003665D01*
X136243927Y-110005845D01*
X136249855Y-110009114D01*
X136258933Y-110012007D01*
X136253602Y-110043249D01*
X136242650Y-110093798D01*
X136242378Y-110109025D01*
X136239816Y-110124037D01*
X136241184Y-110175746D01*
X136240259Y-110227466D01*
X136241088Y-110236994D01*
X136273992Y-110586693D01*
X136284127Y-110638954D01*
X136292168Y-110691574D01*
X136296833Y-110704471D01*
X136299445Y-110717937D01*
X136319540Y-110767240D01*
X136337646Y-110817290D01*
X136341821Y-110825895D01*
X136497204Y-111140457D01*
X136530507Y-111193986D01*
X136563269Y-111247961D01*
X136565827Y-111250756D01*
X136567826Y-111253970D01*
X136610943Y-111300066D01*
X136653514Y-111346594D01*
X136659064Y-111351512D01*
X136659150Y-111351604D01*
X136659244Y-111351672D01*
X136660672Y-111352937D01*
X136934033Y-111591767D01*
X136937487Y-111594235D01*
X136940434Y-111597290D01*
X136991821Y-111633053D01*
X137042813Y-111669483D01*
X137046684Y-111671234D01*
X137050165Y-111673657D01*
X137058543Y-111678270D01*
X137089610Y-111695093D01*
X137094566Y-111697180D01*
X137099069Y-111700120D01*
X137156137Y-111723108D01*
X137212821Y-111746977D01*
X137218087Y-111748061D01*
X137223076Y-111750071D01*
X137232273Y-111752697D01*
X137581701Y-111849864D01*
X137583231Y-111850132D01*
X137584680Y-111850685D01*
X137649083Y-111861673D01*
X137713384Y-111872941D01*
X137714934Y-111872907D01*
X137716464Y-111873168D01*
X137781758Y-111871437D01*
X137847039Y-111870001D01*
X137848554Y-111869666D01*
X137850106Y-111869625D01*
X137859588Y-111868374D01*
X138205944Y-111820199D01*
X138264469Y-111806128D01*
X138323259Y-111793201D01*
X138329406Y-111790515D01*
X138335929Y-111788947D01*
X138377959Y-111769599D01*
X140243879Y-111769599D01*
X140354863Y-112374304D01*
X140581188Y-112945936D01*
X140914233Y-113462720D01*
X141341313Y-113904974D01*
X141846160Y-114255852D01*
X142409544Y-114501989D01*
X143010007Y-114634009D01*
X143624678Y-114646885D01*
X144230143Y-114540125D01*
X144803340Y-114317796D01*
X144867859Y-114276851D01*
X147146256Y-114276851D01*
X148209000Y-115339595D01*
X149271744Y-114276851D01*
X149157882Y-113997110D01*
X148842704Y-113841239D01*
X148503174Y-113749851D01*
X148152339Y-113726459D01*
X147803681Y-113771960D01*
X147470600Y-113884606D01*
X147260118Y-113997110D01*
X147146256Y-114276851D01*
X144867859Y-114276851D01*
X145322438Y-113988367D01*
X145767662Y-113564385D01*
X146074589Y-113129288D01*
X148961654Y-113129288D01*
X149024845Y-113473593D01*
X149153710Y-113799068D01*
X149343338Y-114093314D01*
X149586508Y-114345123D01*
X149873957Y-114544905D01*
X150194736Y-114685050D01*
X150536626Y-114760220D01*
X150886606Y-114767551D01*
X151231345Y-114706764D01*
X151557711Y-114580175D01*
X151853273Y-114392605D01*
X151974826Y-114276851D01*
X152226256Y-114276851D01*
X153289000Y-115339595D01*
X154351744Y-114276851D01*
X154237882Y-113997110D01*
X153922704Y-113841239D01*
X153583174Y-113749851D01*
X153232339Y-113726459D01*
X152883681Y-113771960D01*
X152550600Y-113884606D01*
X152340118Y-113997110D01*
X152226256Y-114276851D01*
X151974826Y-114276851D01*
X152106774Y-114151199D01*
X152308558Y-113865152D01*
X152450939Y-113545360D01*
X152528494Y-113204002D01*
X152534077Y-112804172D01*
X152466084Y-112460782D01*
X152332687Y-112137138D01*
X152138969Y-111845569D01*
X151976091Y-111681549D01*
X152226256Y-111681549D01*
X152340118Y-111961290D01*
X152655296Y-112117161D01*
X152994826Y-112208549D01*
X153345661Y-112231941D01*
X153694319Y-112186440D01*
X154027400Y-112073794D01*
X154237882Y-111961290D01*
X154351744Y-111681549D01*
X153289000Y-110618805D01*
X152226256Y-111681549D01*
X151976091Y-111681549D01*
X151892307Y-111597179D01*
X151602097Y-111401430D01*
X151279393Y-111265777D01*
X150936486Y-111195389D01*
X150586438Y-111192945D01*
X150242582Y-111258539D01*
X149918015Y-111389672D01*
X149625100Y-111581351D01*
X149374994Y-111826272D01*
X149177224Y-112115109D01*
X149039322Y-112436858D01*
X148966541Y-112779265D01*
X148961654Y-113129288D01*
X146074589Y-113129288D01*
X146122056Y-113062000D01*
X146372120Y-112500348D01*
X146508329Y-111900821D01*
X146511390Y-111681549D01*
X147146256Y-111681549D01*
X147260118Y-111961290D01*
X147575296Y-112117161D01*
X147914826Y-112208549D01*
X148265661Y-112231941D01*
X148614319Y-112186440D01*
X148947400Y-112073794D01*
X149157882Y-111961290D01*
X149271744Y-111681549D01*
X148209000Y-110618805D01*
X147146256Y-111681549D01*
X146511390Y-111681549D01*
X146518135Y-111198597D01*
X146398718Y-110595501D01*
X146357650Y-110495861D01*
X146416259Y-110495861D01*
X146461760Y-110844519D01*
X146574406Y-111177600D01*
X146686910Y-111388082D01*
X146966651Y-111501944D01*
X148029395Y-110439200D01*
X148388605Y-110439200D01*
X149451349Y-111501944D01*
X149731090Y-111388082D01*
X149886961Y-111072904D01*
X149978349Y-110733374D01*
X149994185Y-110495861D01*
X151496259Y-110495861D01*
X151541760Y-110844519D01*
X151654406Y-111177600D01*
X151766910Y-111388082D01*
X152046651Y-111501944D01*
X153109395Y-110439200D01*
X153468605Y-110439200D01*
X154531349Y-111501944D01*
X154811090Y-111388082D01*
X154966961Y-111072904D01*
X155058349Y-110733374D01*
X155081741Y-110382539D01*
X155036240Y-110033881D01*
X154923594Y-109700800D01*
X154811090Y-109490318D01*
X154531349Y-109376456D01*
X153468605Y-110439200D01*
X153109395Y-110439200D01*
X152046651Y-109376456D01*
X151766910Y-109490318D01*
X151611039Y-109805496D01*
X151519651Y-110145026D01*
X151496259Y-110495861D01*
X149994185Y-110495861D01*
X150001741Y-110382539D01*
X149956240Y-110033881D01*
X149843594Y-109700800D01*
X149731090Y-109490318D01*
X149451349Y-109376456D01*
X148388605Y-110439200D01*
X148029395Y-110439200D01*
X146966651Y-109376456D01*
X146686910Y-109490318D01*
X146531039Y-109805496D01*
X146439651Y-110145026D01*
X146416259Y-110495861D01*
X146357650Y-110495861D01*
X146164434Y-110027085D01*
X145824206Y-109515001D01*
X145508270Y-109196851D01*
X147146256Y-109196851D01*
X148209000Y-110259595D01*
X149271744Y-109196851D01*
X152226256Y-109196851D01*
X153289000Y-110259595D01*
X154351744Y-109196851D01*
X154237882Y-108917110D01*
X153922704Y-108761239D01*
X153583174Y-108669851D01*
X153232339Y-108646459D01*
X152883681Y-108691960D01*
X152550600Y-108804606D01*
X152340118Y-108917110D01*
X152226256Y-109196851D01*
X149271744Y-109196851D01*
X149157882Y-108917110D01*
X148842704Y-108761239D01*
X148503174Y-108669851D01*
X148152339Y-108646459D01*
X147803681Y-108691960D01*
X147470600Y-108804606D01*
X147260118Y-108917110D01*
X147146256Y-109196851D01*
X145508270Y-109196851D01*
X145390993Y-109078753D01*
X144881297Y-108734958D01*
X144314530Y-108496712D01*
X143712282Y-108373088D01*
X143097492Y-108368796D01*
X142493577Y-108483999D01*
X141923539Y-108714309D01*
X141409092Y-109050954D01*
X140969831Y-109481110D01*
X140622486Y-109988395D01*
X140380288Y-110553484D01*
X140252463Y-111154854D01*
X140243879Y-111769599D01*
X138377959Y-111769599D01*
X138390613Y-111763774D01*
X138445766Y-111739677D01*
X138454082Y-111734953D01*
X138761148Y-111557664D01*
X138806847Y-111524945D01*
X138853534Y-111493678D01*
X138861122Y-111486087D01*
X138869849Y-111479839D01*
X138908326Y-111438864D01*
X138948048Y-111399127D01*
X138954066Y-111391693D01*
X139185616Y-111101518D01*
X139196957Y-111084046D01*
X139210547Y-111068253D01*
X139233283Y-111028085D01*
X139258406Y-110989382D01*
X139266138Y-110970040D01*
X139276401Y-110951908D01*
X139280217Y-110943138D01*
X139351218Y-110776768D01*
X139361148Y-110745295D01*
X139374148Y-110714955D01*
X139381214Y-110681694D01*
X139391443Y-110649274D01*
X139395071Y-110616470D01*
X139401930Y-110584185D01*
X139402929Y-110574673D01*
X139436779Y-110229097D01*
X139436777Y-110213102D01*
X139439150Y-110197275D01*
X139436771Y-110146353D01*
X139436766Y-110095408D01*
X139433658Y-110079718D01*
X139432911Y-110063733D01*
X139420691Y-110014262D01*
X139410787Y-109964268D01*
X139404686Y-109949471D01*
X139400851Y-109933944D01*
X139397600Y-109924950D01*
X139390988Y-109907050D01*
X139399262Y-109904747D01*
X139408157Y-109901233D01*
X139727478Y-109772512D01*
X139754897Y-109758205D01*
X139783672Y-109746857D01*
X139792154Y-109742437D01*
X140202081Y-109525177D01*
X140215959Y-109515983D01*
X140231026Y-109508925D01*
X140239216Y-109503985D01*
X140722590Y-109207769D01*
X140731270Y-109201204D01*
X140740908Y-109196141D01*
X140748864Y-109190832D01*
X141288530Y-108825241D01*
X141293095Y-108821449D01*
X141298257Y-108818528D01*
X141306043Y-108812974D01*
X141658689Y-108557665D01*
X141660033Y-108556476D01*
X141661578Y-108555562D01*
X141669256Y-108549859D01*
X142073315Y-108245349D01*
X142077454Y-108241542D01*
X142082198Y-108238539D01*
X142089700Y-108232607D01*
X142374909Y-108003794D01*
X142388400Y-107990611D01*
X142403597Y-107979453D01*
X142410673Y-107973018D01*
X142594797Y-107803195D01*
X142627360Y-107766664D01*
X142661789Y-107731902D01*
X142667772Y-107724441D01*
X142768583Y-107596902D01*
X142791993Y-107560471D01*
X142817859Y-107525742D01*
X142828049Y-107504359D01*
X142840854Y-107484431D01*
X142856742Y-107444147D01*
X142875370Y-107405056D01*
X142878560Y-107396039D01*
X142913826Y-107294078D01*
X142920168Y-107267620D01*
X142929532Y-107242079D01*
X142935712Y-107202771D01*
X142944988Y-107164071D01*
X142946070Y-107136885D01*
X142950295Y-107110012D01*
X142950785Y-107100460D01*
X142951544Y-107083314D01*
X142951331Y-107079330D01*
X142951849Y-107075376D01*
X142949781Y-107043654D01*
X142950305Y-107030489D01*
X142947941Y-107015428D01*
X142947760Y-107012657D01*
X142944395Y-106949816D01*
X142943411Y-106945947D01*
X142943152Y-106941970D01*
X142941536Y-106932544D01*
X142904568Y-106725631D01*
X142892769Y-106683739D01*
X142883861Y-106641140D01*
X142880936Y-106632035D01*
X142787202Y-106347126D01*
X142778263Y-106326870D01*
X142772048Y-106305625D01*
X142768418Y-106296776D01*
X142643678Y-105998679D01*
X142631468Y-105976010D01*
X142622073Y-105952045D01*
X142617671Y-105943554D01*
X142487680Y-105697077D01*
X142465737Y-105663807D01*
X142446498Y-105628916D01*
X142441030Y-105621069D01*
X142414125Y-105583030D01*
X142414124Y-105583029D01*
X142395677Y-105556948D01*
X142347013Y-105475665D01*
X142245652Y-105270906D01*
X142111792Y-104976338D01*
X142033639Y-104794634D01*
X142033571Y-104794510D01*
X142030929Y-104788418D01*
X141779688Y-104219859D01*
X141776857Y-104214843D01*
X141774963Y-104209404D01*
X141770891Y-104200750D01*
X141498974Y-103633214D01*
X141496436Y-103629024D01*
X141494696Y-103624446D01*
X141490381Y-103615910D01*
X141210157Y-103071026D01*
X141207335Y-103066649D01*
X141205343Y-103061837D01*
X141200782Y-103053431D01*
X140924622Y-102552828D01*
X140920631Y-102547018D01*
X140917713Y-102540602D01*
X140912865Y-102532358D01*
X140876076Y-102470786D01*
X140876026Y-102470701D01*
X140653142Y-102097669D01*
X140646108Y-102088149D01*
X140640694Y-102077628D01*
X140635453Y-102069627D01*
X140404535Y-101722482D01*
X140388875Y-101703303D01*
X140375695Y-101682346D01*
X140369785Y-101674826D01*
X140180046Y-101436855D01*
X140177250Y-101433976D01*
X140175033Y-101430644D01*
X140130769Y-101386123D01*
X140086899Y-101340957D01*
X140083597Y-101338676D01*
X140080775Y-101335838D01*
X140073360Y-101329797D01*
X139942099Y-101224388D01*
X139888593Y-101189420D01*
X139835409Y-101154004D01*
X139832670Y-101152872D01*
X139830190Y-101151251D01*
X139770923Y-101127346D01*
X139711861Y-101102931D01*
X139708955Y-101102352D01*
X139706207Y-101101244D01*
X139643465Y-101089314D01*
X139580747Y-101076827D01*
X139577780Y-101076824D01*
X139574872Y-101076271D01*
X139511004Y-101076754D01*
X139447057Y-101076688D01*
X139441352Y-101077282D01*
X139441187Y-101077283D01*
X139441030Y-101077315D01*
X139437545Y-101077678D01*
X139315956Y-101091188D01*
X139251059Y-101104911D01*
X139186140Y-101118538D01*
X139185222Y-101118834D01*
X139185159Y-101118847D01*
X139185093Y-101118875D01*
X139177036Y-101121470D01*
X138955379Y-101194580D01*
X138933360Y-101204317D01*
X138910296Y-101211225D01*
X138901471Y-101214912D01*
X138626491Y-101332058D01*
X138624013Y-101333413D01*
X138173941Y-101494968D01*
X137824286Y-101527280D01*
X137691533Y-101502653D01*
X137691508Y-101502648D01*
X137432033Y-101454513D01*
X137199419Y-101368217D01*
X136936289Y-101258192D01*
X136936228Y-101258173D01*
X136936172Y-101258143D01*
X136927322Y-101254516D01*
X136700825Y-101163551D01*
X136695848Y-101162098D01*
X136691222Y-101159779D01*
X136682271Y-101156410D01*
X136566285Y-101113694D01*
X136528745Y-101103903D01*
X136492132Y-101091060D01*
X136464207Y-101087071D01*
X136436924Y-101079955D01*
X136398207Y-101077642D01*
X136359787Y-101072154D01*
X136331618Y-101073665D01*
X136303474Y-101071984D01*
X136265038Y-101077237D01*
X136226291Y-101079315D01*
X136198961Y-101086266D01*
X136171017Y-101090085D01*
X136134325Y-101102706D01*
X136096727Y-101112269D01*
X136087755Y-101115582D01*
X135970827Y-101159696D01*
X135927541Y-101181062D01*
X135883149Y-101200042D01*
X135867710Y-101210593D01*
X135850946Y-101218868D01*
X135812635Y-101248233D01*
X135772775Y-101275475D01*
X135765485Y-101281667D01*
X135717515Y-101323001D01*
X135717481Y-101323030D01*
X135567189Y-101452527D01*
X135544820Y-101475975D01*
X135520204Y-101497048D01*
X135513629Y-101503993D01*
X135244985Y-101791730D01*
X135239776Y-101798534D01*
X135233490Y-101804354D01*
X135227189Y-101811550D01*
X135151320Y-101899424D01*
X135150137Y-101901101D01*
X135148663Y-101902521D01*
X135142507Y-101909840D01*
X134834335Y-102281494D01*
X134829218Y-102289061D01*
X134822903Y-102295660D01*
X134817048Y-102303223D01*
X134554708Y-102647065D01*
X134547344Y-102658969D01*
X134538232Y-102669597D01*
X134532800Y-102677469D01*
X134294660Y-103027782D01*
X134287931Y-103040119D01*
X134279387Y-103051269D01*
X134274394Y-103059427D01*
X134175903Y-103222928D01*
X134175899Y-103222936D01*
X134038820Y-103450495D01*
X134034650Y-103459251D01*
X134029087Y-103467182D01*
X134024442Y-103475543D01*
X133769800Y-103941654D01*
X133768202Y-103945409D01*
X133765950Y-103948803D01*
X133761523Y-103957281D01*
X133466181Y-104532717D01*
X133466121Y-104532868D01*
X133463357Y-104538281D01*
X133394951Y-104674606D01*
X133193222Y-105074982D01*
X133015388Y-105422788D01*
X132876175Y-105689748D01*
X132795746Y-105837852D01*
X132781682Y-105860695D01*
X132760934Y-105903196D01*
X132737788Y-105944432D01*
X132734003Y-105953216D01*
X132620803Y-106221123D01*
X132618224Y-106229399D01*
X132614277Y-106237126D01*
X132598352Y-106293178D01*
X132581034Y-106348760D01*
X132580112Y-106357380D01*
X132577741Y-106365725D01*
X132573008Y-106423792D01*
X132566814Y-106481689D01*
X129996000Y-106481689D01*
X129996000Y-94378410D01*
X132970277Y-94378410D01*
X132970298Y-94387294D01*
X132980458Y-95469334D01*
X132986533Y-95525825D01*
X132991669Y-95582423D01*
X132993168Y-95587522D01*
X132993736Y-95592800D01*
X133010672Y-95647051D01*
X133026699Y-95701557D01*
X133029156Y-95706260D01*
X133030741Y-95711337D01*
X133057906Y-95761289D01*
X133084201Y-95811620D01*
X133087528Y-95815760D01*
X133090066Y-95820427D01*
X133126413Y-95864149D01*
X133161986Y-95908416D01*
X133166049Y-95911827D01*
X133169450Y-95915918D01*
X133213641Y-95951782D01*
X133257092Y-95988261D01*
X133261739Y-95990817D01*
X133265870Y-95994170D01*
X133316170Y-96020760D01*
X133365894Y-96048113D01*
X133370952Y-96049719D01*
X133375653Y-96052204D01*
X133430132Y-96068509D01*
X133484250Y-96085691D01*
X133492952Y-96087480D01*
X133787592Y-96145900D01*
X133787739Y-96145914D01*
X133793063Y-96146960D01*
X133980147Y-96182354D01*
X134174922Y-96219811D01*
X134224314Y-96229689D01*
X134243940Y-96274005D01*
X134282576Y-96366137D01*
X134272163Y-96382306D01*
X134186854Y-96507899D01*
X134079388Y-96662850D01*
X134078701Y-96664082D01*
X134077791Y-96665163D01*
X134072811Y-96672521D01*
X133915331Y-96908741D01*
X133911498Y-96915923D01*
X133906508Y-96922349D01*
X133901822Y-96929897D01*
X133873882Y-96975617D01*
X133860821Y-97002599D01*
X133845101Y-97028116D01*
X133833835Y-97058350D01*
X133819779Y-97087389D01*
X133812209Y-97116388D01*
X133801742Y-97144479D01*
X133799527Y-97153082D01*
X133794447Y-97173402D01*
X133790849Y-97197664D01*
X133784406Y-97221337D01*
X133781760Y-97258950D01*
X133776230Y-97296236D01*
X133777413Y-97320738D01*
X133775691Y-97345210D01*
X133780399Y-97382610D01*
X133782217Y-97420270D01*
X133788138Y-97444080D01*
X133791201Y-97468415D01*
X133803084Y-97504189D01*
X133812182Y-97540778D01*
X133822613Y-97562982D01*
X133830346Y-97586262D01*
X133834013Y-97594354D01*
X133849253Y-97627374D01*
X133851843Y-97631792D01*
X133853604Y-97636607D01*
X133883240Y-97685361D01*
X133912045Y-97734506D01*
X133915442Y-97738336D01*
X133918106Y-97742718D01*
X133923489Y-97749786D01*
X133966669Y-97805665D01*
X133984645Y-97824744D01*
X134000358Y-97845741D01*
X134006396Y-97852258D01*
X134085136Y-97936078D01*
X134086860Y-97937587D01*
X134088274Y-97939395D01*
X134094448Y-97945784D01*
X134218908Y-98072783D01*
X134219004Y-98072863D01*
X134223429Y-98077351D01*
X134467269Y-98321191D01*
X134467362Y-98321268D01*
X134472030Y-98325902D01*
X134593950Y-98445281D01*
X134595170Y-98446262D01*
X134596189Y-98447464D01*
X134602611Y-98453603D01*
X134691510Y-98537423D01*
X134703446Y-98546653D01*
X134713885Y-98557541D01*
X134720670Y-98563276D01*
X134766390Y-98601376D01*
X134778306Y-98609476D01*
X134793022Y-98623025D01*
X134808388Y-98632418D01*
X134822306Y-98643850D01*
X134853416Y-98660531D01*
X134869088Y-98671184D01*
X134877990Y-98674964D01*
X134898973Y-98687790D01*
X134915872Y-98694020D01*
X134931745Y-98702531D01*
X134971650Y-98714731D01*
X134983390Y-98719716D01*
X134988435Y-98720770D01*
X135015486Y-98730743D01*
X135033275Y-98733572D01*
X135050496Y-98738837D01*
X135094474Y-98743304D01*
X135101881Y-98744482D01*
X135104941Y-98745122D01*
X135105971Y-98745133D01*
X135138123Y-98750246D01*
X135156114Y-98749566D01*
X135174039Y-98751387D01*
X135218062Y-98747225D01*
X135262213Y-98745557D01*
X135279731Y-98741396D01*
X135297666Y-98739700D01*
X135340029Y-98727071D01*
X135383029Y-98716856D01*
X135399409Y-98709369D01*
X135416668Y-98704224D01*
X135455760Y-98683613D01*
X135495968Y-98665235D01*
X135503618Y-98660717D01*
X135541718Y-98637857D01*
X135545346Y-98635166D01*
X135549401Y-98633173D01*
X135556921Y-98628442D01*
X135648361Y-98570022D01*
X135648648Y-98569796D01*
X135648976Y-98569629D01*
X135656424Y-98564785D01*
X135791044Y-98475885D01*
X135791372Y-98475619D01*
X135791740Y-98475424D01*
X135799113Y-98470467D01*
X135952679Y-98365652D01*
X135989274Y-98341973D01*
X135993740Y-98338420D01*
X135998763Y-98335712D01*
X136006100Y-98330702D01*
X136169164Y-98217669D01*
X136215189Y-98236527D01*
X136215286Y-98236556D01*
X136221735Y-98239167D01*
X136287220Y-98265153D01*
X136314232Y-98409861D01*
X136317769Y-98432849D01*
X136319618Y-98440079D01*
X136320202Y-98447522D01*
X136321819Y-98456258D01*
X136359919Y-98654378D01*
X136360661Y-98656886D01*
X136360924Y-98659493D01*
X136362734Y-98668191D01*
X136398152Y-98832630D01*
X136423360Y-98951112D01*
X136426411Y-98960723D01*
X136427852Y-98970697D01*
X136430034Y-98979308D01*
X136445274Y-99037728D01*
X136459053Y-99075137D01*
X136470173Y-99113410D01*
X136480463Y-99133262D01*
X136488195Y-99154253D01*
X136508977Y-99188272D01*
X136522795Y-99214930D01*
X136523135Y-99215618D01*
X136523188Y-99215687D01*
X136527319Y-99223657D01*
X136541272Y-99241136D01*
X136552932Y-99260222D01*
X136579240Y-99288811D01*
X136598681Y-99314173D01*
X136601686Y-99316816D01*
X136604791Y-99320705D01*
X136611029Y-99327031D01*
X136613569Y-99329571D01*
X136626592Y-99340268D01*
X136637018Y-99351598D01*
X136662086Y-99369932D01*
X136691931Y-99396177D01*
X136701222Y-99401569D01*
X136709526Y-99408390D01*
X136728812Y-99418731D01*
X136737251Y-99424903D01*
X136758422Y-99434766D01*
X136799332Y-99458508D01*
X136809496Y-99461994D01*
X136818965Y-99467071D01*
X136844578Y-99474902D01*
X136849814Y-99477341D01*
X136863675Y-99480740D01*
X136868146Y-99482107D01*
X136916795Y-99498791D01*
X136925454Y-99500779D01*
X136971173Y-99510938D01*
X137013286Y-99516056D01*
X137055011Y-99523778D01*
X137063868Y-99524473D01*
X137170548Y-99532093D01*
X137178215Y-99531890D01*
X137185806Y-99532999D01*
X137194683Y-99533357D01*
X137347083Y-99538437D01*
X137348638Y-99538337D01*
X137350177Y-99538532D01*
X137359060Y-99538723D01*
X137534319Y-99541263D01*
X137534333Y-99541262D01*
X137534579Y-99541267D01*
X137714919Y-99543807D01*
X137719638Y-99543411D01*
X137724352Y-99543870D01*
X137733236Y-99543801D01*
X137905956Y-99541261D01*
X137906057Y-99541250D01*
X137907960Y-99541229D01*
X138050200Y-99538689D01*
X138065754Y-99536883D01*
X138081401Y-99537365D01*
X138090261Y-99536709D01*
X138184240Y-99529089D01*
X138216356Y-99523290D01*
X138248879Y-99520496D01*
X138257603Y-99518814D01*
X138283003Y-99513734D01*
X138303081Y-99507630D01*
X138306442Y-99507023D01*
X138311126Y-99505184D01*
X138316834Y-99503449D01*
X138351412Y-99496051D01*
X138376105Y-99485429D01*
X138401811Y-99477614D01*
X138432988Y-99460961D01*
X138465484Y-99446982D01*
X138487646Y-99431764D01*
X138511343Y-99419106D01*
X138538700Y-99396707D01*
X138567852Y-99376689D01*
X138586629Y-99357464D01*
X138607423Y-99340438D01*
X138629913Y-99313146D01*
X138654617Y-99287852D01*
X138669300Y-99265348D01*
X138686394Y-99244605D01*
X138703155Y-99213464D01*
X138722475Y-99183854D01*
X138732509Y-99158925D01*
X138745246Y-99135259D01*
X138755638Y-99101457D01*
X138768840Y-99068657D01*
X138771278Y-99060114D01*
X138783978Y-99014394D01*
X138786763Y-98998474D01*
X138791814Y-98983131D01*
X138793695Y-98974448D01*
X138816555Y-98865228D01*
X138816596Y-98864856D01*
X138816708Y-98864496D01*
X138818457Y-98855785D01*
X138848937Y-98698305D01*
X138848952Y-98698147D01*
X138849726Y-98694154D01*
X138885286Y-98503653D01*
X138885436Y-98501925D01*
X138885911Y-98500255D01*
X138887433Y-98491502D01*
X138891090Y-98469560D01*
X138927233Y-98284029D01*
X138930970Y-98265345D01*
X139048086Y-98218902D01*
X139048172Y-98218858D01*
X139049845Y-98218202D01*
X139051045Y-98217722D01*
X139209227Y-98325687D01*
X139210675Y-98326480D01*
X139215899Y-98330910D01*
X139223239Y-98335916D01*
X139383380Y-98443510D01*
X139518160Y-98535860D01*
X139521064Y-98537458D01*
X139523625Y-98539563D01*
X139531040Y-98544457D01*
X139632640Y-98610497D01*
X139643296Y-98616026D01*
X139652948Y-98623160D01*
X139660606Y-98627665D01*
X139668599Y-98632293D01*
X139671862Y-98634992D01*
X139693038Y-98646442D01*
X139708865Y-98655605D01*
X139715936Y-98658823D01*
X139717915Y-98659893D01*
X139763171Y-98686193D01*
X139772458Y-98689384D01*
X139781095Y-98694054D01*
X139819446Y-98705926D01*
X139821891Y-98707038D01*
X139826716Y-98708176D01*
X139831091Y-98709530D01*
X139880611Y-98726545D01*
X139890344Y-98727872D01*
X139899720Y-98730774D01*
X139940895Y-98735102D01*
X139942754Y-98735540D01*
X139946276Y-98735667D01*
X139951781Y-98736246D01*
X140003652Y-98743316D01*
X140013451Y-98742727D01*
X140023218Y-98743754D01*
X140064973Y-98739954D01*
X140066851Y-98740022D01*
X140070274Y-98739472D01*
X140075357Y-98739009D01*
X140127606Y-98735871D01*
X140137105Y-98733390D01*
X140146885Y-98732500D01*
X140186878Y-98720729D01*
X140189456Y-98720315D01*
X140193975Y-98718641D01*
X140197103Y-98717720D01*
X140247754Y-98704491D01*
X140256068Y-98701360D01*
X140289088Y-98688660D01*
X140313129Y-98676601D01*
X140338354Y-98667283D01*
X140368497Y-98648829D01*
X140400085Y-98632985D01*
X140421324Y-98616488D01*
X140444261Y-98602446D01*
X140451312Y-98597041D01*
X140519892Y-98543701D01*
X140536859Y-98527614D01*
X140555658Y-98513714D01*
X140562211Y-98507715D01*
X140668891Y-98408654D01*
X140672024Y-98405116D01*
X140675740Y-98402199D01*
X140682117Y-98396014D01*
X140832456Y-98248140D01*
X140873478Y-98209397D01*
X140878430Y-98203708D01*
X140884276Y-98198954D01*
X140890546Y-98192659D01*
X141030246Y-98050419D01*
X141030289Y-98050366D01*
X141035679Y-98044819D01*
X141152519Y-97922899D01*
X141154398Y-97920510D01*
X141156685Y-97918510D01*
X141162726Y-97911995D01*
X141244006Y-97823095D01*
X141261507Y-97799732D01*
X141281333Y-97778310D01*
X141286653Y-97771195D01*
X141322213Y-97722935D01*
X141327870Y-97713440D01*
X141334975Y-97704972D01*
X141347552Y-97682094D01*
X141351915Y-97676346D01*
X141360703Y-97658328D01*
X141385768Y-97616254D01*
X141389474Y-97605838D01*
X141394798Y-97596153D01*
X141401817Y-97574026D01*
X141406349Y-97564734D01*
X141412843Y-97540152D01*
X141427392Y-97499259D01*
X141429004Y-97488324D01*
X141432346Y-97477788D01*
X141434580Y-97457876D01*
X141438067Y-97444675D01*
X141440024Y-97413554D01*
X141445499Y-97376409D01*
X141444956Y-97365368D01*
X141446188Y-97354384D01*
X141446250Y-97345500D01*
X141446250Y-97342960D01*
X141445162Y-97331861D01*
X141445861Y-97320742D01*
X141440952Y-97283953D01*
X141439399Y-97252380D01*
X141436054Y-97238981D01*
X141434132Y-97219375D01*
X141430910Y-97208705D01*
X141429436Y-97197655D01*
X141415578Y-97156949D01*
X141409325Y-97131899D01*
X141404858Y-97122413D01*
X141398241Y-97100496D01*
X141393008Y-97090655D01*
X141389416Y-97080103D01*
X141385689Y-97072038D01*
X141365369Y-97028858D01*
X141350615Y-97004109D01*
X141338536Y-96977950D01*
X141333989Y-96970318D01*
X141275569Y-96873798D01*
X141270715Y-96867306D01*
X141267029Y-96860084D01*
X141262185Y-96852636D01*
X141173285Y-96718016D01*
X141173019Y-96717688D01*
X141172824Y-96717320D01*
X141167867Y-96709947D01*
X141058647Y-96549927D01*
X141058506Y-96549758D01*
X141054795Y-96542811D01*
X141049813Y-96535455D01*
X140939121Y-96374448D01*
X140936038Y-96369909D01*
X140975182Y-96279094D01*
X140975229Y-96278948D01*
X140977289Y-96274149D01*
X140996089Y-96229499D01*
X141178194Y-96195506D01*
X141184673Y-96193627D01*
X141188354Y-96192966D01*
X141378854Y-96157406D01*
X141380384Y-96156962D01*
X141381972Y-96156816D01*
X141390685Y-96155082D01*
X141550496Y-96122105D01*
X141661386Y-96099423D01*
X141670308Y-96096668D01*
X141679564Y-96095427D01*
X141688198Y-96093333D01*
X141738998Y-96080633D01*
X141786848Y-96063560D01*
X141835252Y-96048213D01*
X141845231Y-96042729D01*
X141855954Y-96038903D01*
X141899547Y-96012879D01*
X141944079Y-95988406D01*
X141952808Y-95981083D01*
X141962578Y-95975251D01*
X142000278Y-95941262D01*
X142039215Y-95908599D01*
X142046355Y-95899721D01*
X142054807Y-95892101D01*
X142085202Y-95851418D01*
X142117039Y-95811832D01*
X142122314Y-95801745D01*
X142129131Y-95792621D01*
X142151054Y-95746790D01*
X142174586Y-95701793D01*
X142177802Y-95690873D01*
X142182716Y-95680599D01*
X142195318Y-95631389D01*
X142209663Y-95582672D01*
X142211268Y-95573934D01*
X142218888Y-95530755D01*
X142221682Y-95494514D01*
X142227408Y-95458614D01*
X142227883Y-95449742D01*
X142232963Y-95340522D01*
X142232679Y-95334980D01*
X142233380Y-95329481D01*
X142233577Y-95320599D01*
X142236117Y-95152960D01*
X142236108Y-95152856D01*
X142236144Y-95150985D01*
X142238684Y-94940166D01*
X142238677Y-94940085D01*
X142238730Y-94932500D01*
X142238730Y-94688660D01*
X142238646Y-94687802D01*
X142238728Y-94686941D01*
X142238642Y-94678057D01*
X142236102Y-94525657D01*
X142236086Y-94525519D01*
X142235970Y-94519521D01*
X142233430Y-94423002D01*
X142229427Y-94390896D01*
X142228450Y-94358562D01*
X142227255Y-94349758D01*
X142219635Y-94296418D01*
X142217425Y-94287374D01*
X142216743Y-94278086D01*
X142202700Y-94227108D01*
X142190161Y-94175789D01*
X142186239Y-94167351D01*
X142183764Y-94158367D01*
X142180522Y-94150096D01*
X142170362Y-94124695D01*
X142163101Y-94110688D01*
X142157953Y-94095768D01*
X142134571Y-94055653D01*
X142113212Y-94014450D01*
X142103368Y-94002119D01*
X142095420Y-93988483D01*
X142064701Y-93953683D01*
X142035738Y-93917403D01*
X142023684Y-93907217D01*
X142013241Y-93895387D01*
X141976344Y-93867214D01*
X141940889Y-93837254D01*
X141929770Y-93831091D01*
X141927378Y-93829076D01*
X141923830Y-93827117D01*
X141914545Y-93820027D01*
X141906959Y-93815403D01*
X141894258Y-93807783D01*
X141855866Y-93789583D01*
X141818675Y-93769044D01*
X141799878Y-93763041D01*
X141782050Y-93754590D01*
X141740859Y-93744195D01*
X141700382Y-93731269D01*
X141691683Y-93729466D01*
X141526583Y-93696446D01*
X141526437Y-93696431D01*
X141520854Y-93695327D01*
X141360834Y-93664847D01*
X141360695Y-93664834D01*
X141357958Y-93664306D01*
X141180158Y-93631287D01*
X141180023Y-93631275D01*
X141177034Y-93630714D01*
X141031547Y-93604446D01*
X140988639Y-93498304D01*
X140958728Y-93424008D01*
X141049907Y-93291309D01*
X141049959Y-93291215D01*
X141051027Y-93289673D01*
X141160247Y-93129653D01*
X141161762Y-93126888D01*
X141163764Y-93124446D01*
X141168648Y-93117024D01*
X141256368Y-92981685D01*
X141318671Y-92886985D01*
X141337266Y-92851628D01*
X141358282Y-92817661D01*
X141362141Y-92809658D01*
X141385001Y-92761399D01*
X141389208Y-92749680D01*
X141395192Y-92738754D01*
X141410160Y-92691310D01*
X141426955Y-92644523D01*
X141428805Y-92632214D01*
X141432554Y-92620330D01*
X141438022Y-92570876D01*
X141445409Y-92521723D01*
X141444833Y-92509288D01*
X141446202Y-92496904D01*
X141441961Y-92447333D01*
X141439659Y-92397679D01*
X141436678Y-92385591D01*
X141435616Y-92373178D01*
X141421833Y-92325395D01*
X141409926Y-92277112D01*
X141404651Y-92265827D01*
X141401200Y-92253864D01*
X141378404Y-92209679D01*
X141357340Y-92164618D01*
X141349974Y-92154573D01*
X141344265Y-92143508D01*
X141339389Y-92136081D01*
X141313989Y-92097981D01*
X141286945Y-92064928D01*
X141261968Y-92030277D01*
X141256048Y-92023653D01*
X141182388Y-91942372D01*
X141179322Y-91939590D01*
X141176812Y-91936299D01*
X141170716Y-91929836D01*
X141058955Y-91812996D01*
X141058927Y-91812972D01*
X141053179Y-91807036D01*
X140916019Y-91667336D01*
X140915912Y-91667246D01*
X140911911Y-91663189D01*
X140886511Y-91637789D01*
X140886387Y-91637687D01*
X140883010Y-91634315D01*
X140717910Y-91471755D01*
X140717784Y-91471653D01*
X140717682Y-91471531D01*
X140711305Y-91465345D01*
X140594464Y-91353585D01*
X140576778Y-91339704D01*
X140560957Y-91323725D01*
X140554080Y-91318099D01*
X140475340Y-91254599D01*
X140447114Y-91236069D01*
X140420644Y-91215085D01*
X140413143Y-91210324D01*
X140372502Y-91184924D01*
X140328744Y-91163197D01*
X140285933Y-91139662D01*
X140273224Y-91135630D01*
X140261280Y-91129700D01*
X140214133Y-91116886D01*
X140202851Y-91113306D01*
X140198032Y-91111444D01*
X140195683Y-91111033D01*
X140167568Y-91102114D01*
X140154318Y-91100628D01*
X140141449Y-91097130D01*
X140099510Y-91094193D01*
X140075715Y-91090027D01*
X140062433Y-91090321D01*
X140044164Y-91088272D01*
X140035280Y-91088210D01*
X140027660Y-91088210D01*
X140021995Y-91088765D01*
X140017575Y-91088456D01*
X139991212Y-91091784D01*
X139989698Y-91091932D01*
X139951566Y-91092777D01*
X139928047Y-91097977D01*
X139904075Y-91100328D01*
X139867564Y-91111351D01*
X139830317Y-91119587D01*
X139808255Y-91129257D01*
X139785196Y-91136219D01*
X139751516Y-91154127D01*
X139716585Y-91169438D01*
X139708865Y-91173835D01*
X139660606Y-91201775D01*
X139657260Y-91204177D01*
X139653531Y-91205932D01*
X139645932Y-91210535D01*
X139546873Y-91271495D01*
X139542290Y-91274975D01*
X139537164Y-91277591D01*
X139529716Y-91282435D01*
X139395096Y-91371335D01*
X139393568Y-91372574D01*
X139391837Y-91373502D01*
X139384488Y-91378495D01*
X139238347Y-91479282D01*
X139146954Y-91541734D01*
X139141474Y-91539052D01*
X139119399Y-91530809D01*
X139098477Y-91519947D01*
X139090207Y-91516700D01*
X139024168Y-91491300D01*
X138985098Y-91480511D01*
X138946859Y-91467092D01*
X138925383Y-91464021D01*
X138904470Y-91458246D01*
X138864054Y-91455251D01*
X138823931Y-91449514D01*
X138802266Y-91450673D01*
X138780631Y-91449070D01*
X138740403Y-91453983D01*
X138699931Y-91456148D01*
X138691157Y-91457547D01*
X138660678Y-91462627D01*
X138654558Y-91464274D01*
X138648237Y-91464827D01*
X138594622Y-91480404D01*
X138540767Y-91494898D01*
X138535082Y-91497703D01*
X138528990Y-91499473D01*
X138479441Y-91525156D01*
X138448784Y-91540282D01*
X138440777Y-91543982D01*
X138439700Y-91544764D01*
X138429405Y-91549844D01*
X138424372Y-91553701D01*
X138418742Y-91556619D01*
X138375126Y-91591437D01*
X138369058Y-91596087D01*
X138340313Y-91616971D01*
X138336667Y-91620908D01*
X138330839Y-91625374D01*
X138326651Y-91630135D01*
X138321695Y-91634091D01*
X138315369Y-91640329D01*
X138312829Y-91642869D01*
X138285352Y-91676321D01*
X138255939Y-91708082D01*
X138250957Y-91716179D01*
X138248819Y-91718610D01*
X138244489Y-91726069D01*
X138234010Y-91738826D01*
X138213558Y-91776969D01*
X138190870Y-91813846D01*
X138187031Y-91821858D01*
X138166711Y-91865038D01*
X138165658Y-91867995D01*
X138164080Y-91870702D01*
X138160432Y-91878803D01*
X138112172Y-91988023D01*
X138112139Y-91988123D01*
X138109336Y-91994541D01*
X138040756Y-92154561D01*
X138040726Y-92154656D01*
X138040001Y-92156329D01*
X137953641Y-92359529D01*
X137953600Y-92359659D01*
X137952455Y-92362337D01*
X137853395Y-92598557D01*
X137853357Y-92598680D01*
X137850915Y-92604557D01*
X137795900Y-92739594D01*
X137609165Y-93188553D01*
X137570220Y-93094332D01*
X137570172Y-93094241D01*
X137569526Y-93092661D01*
X137481451Y-92881281D01*
X137390758Y-92659587D01*
X137390158Y-92658451D01*
X137389786Y-92657226D01*
X137386332Y-92649041D01*
X137292936Y-92431958D01*
X137207099Y-92229989D01*
X137207091Y-92229975D01*
X137203655Y-92222036D01*
X137129421Y-92053771D01*
X137075424Y-91926144D01*
X137067892Y-91912291D01*
X137062455Y-91897485D01*
X137058537Y-91889511D01*
X137012817Y-91798071D01*
X136992874Y-91766359D01*
X136975458Y-91733201D01*
X136959900Y-91713927D01*
X136946710Y-91692953D01*
X136920986Y-91665717D01*
X136897462Y-91636574D01*
X136878456Y-91620688D01*
X136861443Y-91602675D01*
X136830924Y-91580958D01*
X136802184Y-91556936D01*
X136780451Y-91545042D01*
X136760267Y-91530680D01*
X136726109Y-91515304D01*
X136693251Y-91497322D01*
X136669626Y-91489878D01*
X136647032Y-91479707D01*
X136610528Y-91471256D01*
X136574813Y-91460002D01*
X136550198Y-91457289D01*
X136526054Y-91451699D01*
X136488608Y-91450499D01*
X136451383Y-91446396D01*
X136426701Y-91448516D01*
X136401940Y-91447723D01*
X136364984Y-91453818D01*
X136327661Y-91457024D01*
X136318937Y-91458706D01*
X136268137Y-91468866D01*
X136266846Y-91469259D01*
X136265499Y-91469399D01*
X136207308Y-91487359D01*
X136149329Y-91504986D01*
X136148141Y-91505621D01*
X136146844Y-91506021D01*
X136138676Y-91509514D01*
X136069709Y-91539576D01*
X135970670Y-91470888D01*
X135968396Y-91469620D01*
X135966397Y-91467950D01*
X135959021Y-91462998D01*
X135801541Y-91358858D01*
X135801520Y-91358847D01*
X135801204Y-91358635D01*
X135666584Y-91269735D01*
X135662768Y-91267720D01*
X135659381Y-91265048D01*
X135651869Y-91260305D01*
X135557889Y-91201885D01*
X135535446Y-91190810D01*
X135514447Y-91177191D01*
X135506529Y-91173163D01*
X135465889Y-91152843D01*
X135447941Y-91145966D01*
X135431074Y-91136728D01*
X135390055Y-91123787D01*
X135349931Y-91108413D01*
X135330996Y-91105154D01*
X135312650Y-91099366D01*
X135269904Y-91094639D01*
X135227552Y-91087350D01*
X135208337Y-91087831D01*
X135189224Y-91085718D01*
X135146383Y-91089383D01*
X135103413Y-91090460D01*
X135084654Y-91094665D01*
X135065498Y-91096304D01*
X135024197Y-91108217D01*
X134982242Y-91117622D01*
X134964652Y-91125393D01*
X134946184Y-91130720D01*
X134907986Y-91150427D01*
X134868655Y-91167803D01*
X134852910Y-91178842D01*
X134835828Y-91187655D01*
X134828401Y-91192531D01*
X134790301Y-91217931D01*
X134757248Y-91244975D01*
X134722597Y-91269952D01*
X134715973Y-91275872D01*
X134634692Y-91349532D01*
X134634594Y-91349640D01*
X134632469Y-91351557D01*
X134513089Y-91460777D01*
X134510541Y-91463612D01*
X134507517Y-91465936D01*
X134501077Y-91472056D01*
X134367090Y-91601171D01*
X134342457Y-91623751D01*
X134336173Y-91630757D01*
X134328815Y-91636631D01*
X134322489Y-91642869D01*
X134147229Y-91818129D01*
X134147149Y-91818227D01*
X134142518Y-91822890D01*
X134023138Y-91944810D01*
X134005944Y-91966197D01*
X133986515Y-91985586D01*
X133980917Y-91992485D01*
X133919957Y-92068685D01*
X133907701Y-92087514D01*
X133893188Y-92104676D01*
X133873898Y-92139447D01*
X133852216Y-92172759D01*
X133843850Y-92193613D01*
X133832948Y-92213264D01*
X133829474Y-92221441D01*
X133816774Y-92251921D01*
X133804614Y-92291645D01*
X133789898Y-92330519D01*
X133786474Y-92350907D01*
X133780427Y-92370660D01*
X133776214Y-92411991D01*
X133769329Y-92452982D01*
X133769930Y-92473639D01*
X133767834Y-92494199D01*
X133771731Y-92535577D01*
X133772939Y-92577108D01*
X133777540Y-92597253D01*
X133779478Y-92617829D01*
X133791337Y-92657663D01*
X133800589Y-92698169D01*
X133809013Y-92717032D01*
X133814912Y-92736845D01*
X133834284Y-92773617D01*
X133851226Y-92811553D01*
X133855677Y-92819242D01*
X133881077Y-92862422D01*
X133887881Y-92871764D01*
X133893118Y-92882069D01*
X133897949Y-92889524D01*
X133961449Y-92986044D01*
X133961488Y-92986093D01*
X133962055Y-92986964D01*
X134050955Y-93121584D01*
X134052725Y-93123767D01*
X134054056Y-93126234D01*
X134059068Y-93133570D01*
X134166278Y-93288152D01*
X134261204Y-93428280D01*
X134206873Y-93556500D01*
X134206826Y-93556651D01*
X134204796Y-93561461D01*
X134187686Y-93602811D01*
X134185875Y-93602961D01*
X134177146Y-93604615D01*
X134023551Y-93634830D01*
X133839760Y-93670078D01*
X133839633Y-93670116D01*
X133836786Y-93670655D01*
X133681846Y-93701135D01*
X133681763Y-93701160D01*
X133674312Y-93702665D01*
X133565092Y-93725525D01*
X133545094Y-93731800D01*
X133524447Y-93735437D01*
X133515906Y-93737884D01*
X133472726Y-93750585D01*
X133437852Y-93764668D01*
X133401990Y-93776018D01*
X133393846Y-93779569D01*
X133348126Y-93799889D01*
X133300957Y-93826644D01*
X133253158Y-93852207D01*
X133247019Y-93857238D01*
X133240114Y-93861155D01*
X133199050Y-93896553D01*
X133157116Y-93930922D01*
X133152070Y-93937051D01*
X133146058Y-93942234D01*
X133112652Y-93984935D01*
X133078193Y-94026793D01*
X133074434Y-94033785D01*
X133069543Y-94040037D01*
X133045065Y-94088416D01*
X133019394Y-94136169D01*
X133017065Y-94143757D01*
X133013481Y-94150841D01*
X132998864Y-94203058D01*
X132982959Y-94254881D01*
X132982149Y-94262775D01*
X132980008Y-94270422D01*
X132975812Y-94324497D01*
X132970277Y-94378410D01*
X129996000Y-94378410D01*
X129996000Y-77493526D01*
X135996639Y-77493526D01*
X136033280Y-77693165D01*
X136108000Y-77881886D01*
X136217953Y-78052499D01*
X136338500Y-78177329D01*
X136338500Y-87598466D01*
X136312134Y-87636972D01*
X136232174Y-87823533D01*
X136189973Y-88022071D01*
X136187139Y-88225026D01*
X136223780Y-88424665D01*
X136298500Y-88613386D01*
X136408453Y-88783999D01*
X136549450Y-88930006D01*
X136716122Y-89045846D01*
X136902120Y-89127106D01*
X137100359Y-89170692D01*
X137303288Y-89174943D01*
X137503179Y-89139697D01*
X137692416Y-89066296D01*
X137863793Y-88957537D01*
X137953782Y-88871842D01*
X138009950Y-88930006D01*
X138176622Y-89045846D01*
X138362620Y-89127106D01*
X138560859Y-89170692D01*
X138763788Y-89174943D01*
X138963679Y-89139697D01*
X139152916Y-89066296D01*
X139324293Y-88957537D01*
X139471281Y-88817563D01*
X139588282Y-88651703D01*
X139670839Y-88466278D01*
X139715807Y-88268348D01*
X139719044Y-88036513D01*
X139679620Y-87837405D01*
X139602273Y-87649746D01*
X139569000Y-87599666D01*
X139569000Y-78011037D01*
X139588282Y-77983703D01*
X139670839Y-77798278D01*
X139715807Y-77600348D01*
X139719044Y-77368513D01*
X139679620Y-77169405D01*
X139602273Y-76981746D01*
X139489948Y-76812684D01*
X139346926Y-76668660D01*
X139178653Y-76555158D01*
X138991539Y-76476503D01*
X138792710Y-76435689D01*
X138589741Y-76434272D01*
X138390363Y-76472306D01*
X138202168Y-76548341D01*
X138032327Y-76659482D01*
X137887308Y-76801496D01*
X137880404Y-76811579D01*
X137838948Y-76749184D01*
X137695926Y-76605160D01*
X137527653Y-76491658D01*
X137340539Y-76413003D01*
X137141710Y-76372189D01*
X136938741Y-76370772D01*
X136739363Y-76408806D01*
X136551168Y-76484841D01*
X136381327Y-76595982D01*
X136236308Y-76737996D01*
X136121634Y-76905472D01*
X136041674Y-77092033D01*
X135999473Y-77290571D01*
X135996639Y-77493526D01*
X129996000Y-77493526D01*
X129996000Y-70171186D01*
X130072049Y-70423075D01*
X130208112Y-70678971D01*
X130391287Y-70903567D01*
X130614599Y-71088306D01*
X130869539Y-71226152D01*
X131146399Y-71311854D01*
X131434633Y-71342149D01*
X131723261Y-71315882D01*
X132001291Y-71234053D01*
X132258131Y-71099780D01*
X132484000Y-70918177D01*
X132670294Y-70696161D01*
X132714498Y-70615753D01*
X132748112Y-70678971D01*
X132931287Y-70903567D01*
X133154599Y-71088306D01*
X133180690Y-71102413D01*
X133205135Y-71148388D01*
X133242776Y-71221006D01*
X133245682Y-71224646D01*
X133247865Y-71228752D01*
X133299507Y-71292071D01*
X133350534Y-71355991D01*
X133356927Y-71362474D01*
X133357030Y-71362601D01*
X133357147Y-71362698D01*
X133359210Y-71364790D01*
X134248211Y-72253790D01*
X134311402Y-72305696D01*
X134374004Y-72358225D01*
X134378081Y-72360466D01*
X134381678Y-72363421D01*
X134453708Y-72402043D01*
X134525361Y-72441435D01*
X134529800Y-72442843D01*
X134533899Y-72445041D01*
X134612026Y-72468927D01*
X134689998Y-72493661D01*
X134694626Y-72494180D01*
X134699074Y-72495540D01*
X134780339Y-72503794D01*
X134861643Y-72512914D01*
X134870747Y-72512977D01*
X134870911Y-72512994D01*
X134871064Y-72512980D01*
X134874000Y-72513000D01*
X142254420Y-72513000D01*
X142371000Y-72629579D01*
X142371000Y-75057000D01*
X142378977Y-75138356D01*
X142386102Y-75219796D01*
X142387401Y-75224267D01*
X142387855Y-75228897D01*
X142411475Y-75307131D01*
X142434290Y-75385660D01*
X142436432Y-75389793D01*
X142437777Y-75394247D01*
X142476135Y-75466388D01*
X142513776Y-75539006D01*
X142516682Y-75542646D01*
X142518865Y-75546752D01*
X142570507Y-75610071D01*
X142621534Y-75673991D01*
X142627927Y-75680474D01*
X142628030Y-75680601D01*
X142628147Y-75680698D01*
X142630210Y-75682790D01*
X143519211Y-76571790D01*
X143582402Y-76623696D01*
X143645004Y-76676225D01*
X143649081Y-76678466D01*
X143652678Y-76681421D01*
X143724708Y-76720043D01*
X143796361Y-76759435D01*
X143800800Y-76760843D01*
X143804899Y-76763041D01*
X143883026Y-76786927D01*
X143927325Y-76800979D01*
X143934992Y-76897121D01*
X143988106Y-77068634D01*
X144086900Y-77218559D01*
X144223550Y-77335025D01*
X144387237Y-77408810D01*
X144565000Y-77434072D01*
X146265000Y-77434072D01*
X146366121Y-77426008D01*
X146537634Y-77372894D01*
X146687559Y-77274100D01*
X146804025Y-77137450D01*
X146877810Y-76973763D01*
X146878171Y-76971224D01*
X146901287Y-76999567D01*
X147124599Y-77184306D01*
X147379539Y-77322152D01*
X147656399Y-77407854D01*
X147944633Y-77438149D01*
X148233261Y-77411882D01*
X148511291Y-77330053D01*
X148768131Y-77195780D01*
X148994000Y-77014177D01*
X149180294Y-76792161D01*
X149224498Y-76711753D01*
X149258112Y-76774971D01*
X149441287Y-76999567D01*
X149664599Y-77184306D01*
X149919539Y-77322152D01*
X150196399Y-77407854D01*
X150484633Y-77438149D01*
X150773261Y-77411882D01*
X151051291Y-77330053D01*
X151308131Y-77195780D01*
X151419587Y-77106167D01*
X151515000Y-77201579D01*
X151515000Y-82183421D01*
X150636420Y-83062000D01*
X146558000Y-83062000D01*
X146476644Y-83069977D01*
X146395204Y-83077102D01*
X146390733Y-83078401D01*
X146386103Y-83078855D01*
X146307869Y-83102475D01*
X146229340Y-83125290D01*
X146225207Y-83127432D01*
X146220753Y-83128777D01*
X146148612Y-83167135D01*
X146075994Y-83204776D01*
X146072354Y-83207682D01*
X146068248Y-83209865D01*
X146004929Y-83261507D01*
X145941009Y-83312534D01*
X145934530Y-83318923D01*
X145934399Y-83319030D01*
X145934299Y-83319151D01*
X145932211Y-83321210D01*
X144916210Y-84337210D01*
X144864284Y-84400426D01*
X144811775Y-84463004D01*
X144809534Y-84467081D01*
X144806579Y-84470678D01*
X144767957Y-84542708D01*
X144728565Y-84614361D01*
X144727157Y-84618800D01*
X144724959Y-84622899D01*
X144701073Y-84701026D01*
X144676339Y-84778998D01*
X144675820Y-84783626D01*
X144674460Y-84788074D01*
X144666206Y-84869339D01*
X144657086Y-84950643D01*
X144657023Y-84959747D01*
X144657006Y-84959911D01*
X144657020Y-84960064D01*
X144657000Y-84963000D01*
X144657000Y-89789000D01*
X144664977Y-89870356D01*
X144672102Y-89951796D01*
X144673401Y-89956267D01*
X144673855Y-89960897D01*
X144697475Y-90039131D01*
X144720290Y-90117660D01*
X144722432Y-90121793D01*
X144723777Y-90126247D01*
X144762135Y-90198388D01*
X144799776Y-90271006D01*
X144802682Y-90274646D01*
X144804865Y-90278752D01*
X144856507Y-90342071D01*
X144907534Y-90405991D01*
X144913927Y-90412474D01*
X144914030Y-90412601D01*
X144914147Y-90412698D01*
X144916210Y-90414790D01*
X147202210Y-92700789D01*
X147265397Y-92752691D01*
X147328004Y-92805225D01*
X147332081Y-92807466D01*
X147335678Y-92810421D01*
X147407727Y-92849053D01*
X147479361Y-92888435D01*
X147483798Y-92889842D01*
X147487898Y-92892041D01*
X147566040Y-92915931D01*
X147643998Y-92940661D01*
X147648626Y-92941180D01*
X147653074Y-92942540D01*
X147734339Y-92950794D01*
X147815643Y-92959914D01*
X147824747Y-92959977D01*
X147824911Y-92959994D01*
X147825064Y-92959980D01*
X147828000Y-92960000D01*
X157875420Y-92960000D01*
X158886210Y-93970789D01*
X158949397Y-94022691D01*
X159012004Y-94075225D01*
X159016081Y-94077466D01*
X159019678Y-94080421D01*
X159091727Y-94119053D01*
X159163361Y-94158435D01*
X159167798Y-94159842D01*
X159171898Y-94162041D01*
X159250040Y-94185931D01*
X159327998Y-94210661D01*
X159332626Y-94211180D01*
X159337074Y-94212540D01*
X159418344Y-94220795D01*
X159499643Y-94229914D01*
X159508746Y-94229977D01*
X159508910Y-94229994D01*
X159509063Y-94229980D01*
X159512000Y-94230000D01*
X160352655Y-94230000D01*
X160426971Y-94322430D01*
X160635830Y-94497684D01*
X160850653Y-94615784D01*
X160652001Y-94721409D01*
X160440715Y-94893730D01*
X160266924Y-95103808D01*
X160137246Y-95343641D01*
X160056622Y-95604094D01*
X160028123Y-95875247D01*
X160052834Y-96146772D01*
X160129813Y-96408325D01*
X160256129Y-96649946D01*
X160426971Y-96862430D01*
X160635830Y-97037684D01*
X160850653Y-97155784D01*
X160652001Y-97261409D01*
X160440715Y-97433730D01*
X160266924Y-97643808D01*
X160137246Y-97883641D01*
X160056622Y-98144094D01*
X160028123Y-98415247D01*
X160052834Y-98686772D01*
X160129813Y-98948325D01*
X160256129Y-99189946D01*
X160426971Y-99402430D01*
X160635830Y-99577684D01*
X160850653Y-99695784D01*
X160652001Y-99801409D01*
X160440715Y-99973730D01*
X160266924Y-100183808D01*
X160137246Y-100423641D01*
X160056622Y-100684094D01*
X160028123Y-100955247D01*
X160052834Y-101226772D01*
X160129813Y-101488325D01*
X160256129Y-101729946D01*
X160426971Y-101942430D01*
X160635830Y-102117684D01*
X160850653Y-102235784D01*
X160652001Y-102341409D01*
X160440715Y-102513730D01*
X160266924Y-102723808D01*
X160137246Y-102963641D01*
X160056622Y-103224094D01*
X160028123Y-103495247D01*
X160052834Y-103766772D01*
X160129813Y-104028325D01*
X160256129Y-104269946D01*
X160426971Y-104482430D01*
X160635830Y-104657684D01*
X160850653Y-104775784D01*
X160652001Y-104881409D01*
X160440715Y-105053730D01*
X160266924Y-105263808D01*
X160137246Y-105503641D01*
X160056622Y-105764094D01*
X160028123Y-106035247D01*
X160052834Y-106306772D01*
X160129813Y-106568325D01*
X160256129Y-106809946D01*
X160426971Y-107022430D01*
X160635830Y-107197684D01*
X160850653Y-107315784D01*
X160652001Y-107421409D01*
X160440715Y-107593730D01*
X160266924Y-107803808D01*
X160137246Y-108043641D01*
X160056622Y-108304094D01*
X160028123Y-108575247D01*
X160052834Y-108846772D01*
X160129813Y-109108325D01*
X160256129Y-109349946D01*
X160426971Y-109562430D01*
X160635830Y-109737684D01*
X160850653Y-109855784D01*
X160652001Y-109961409D01*
X160440715Y-110133730D01*
X160266924Y-110343808D01*
X160137246Y-110583641D01*
X160056622Y-110844094D01*
X160028123Y-111115247D01*
X160052834Y-111386772D01*
X160129813Y-111648325D01*
X160256129Y-111889946D01*
X160426971Y-112102430D01*
X160635830Y-112277684D01*
X160874752Y-112409032D01*
X161134636Y-112491472D01*
X161405584Y-112521864D01*
X161425089Y-112522000D01*
X161916911Y-112522000D01*
X162188256Y-112495394D01*
X162449266Y-112416591D01*
X162689999Y-112288591D01*
X162901285Y-112116270D01*
X162938144Y-112071715D01*
X163102809Y-112229890D01*
X163335083Y-112378426D01*
X163591872Y-112478793D01*
X163863307Y-112527135D01*
X164084000Y-112368282D01*
X164084000Y-111252000D01*
X164338000Y-111252000D01*
X164338000Y-112368282D01*
X164558693Y-112527135D01*
X164830128Y-112478793D01*
X165086917Y-112378426D01*
X165319191Y-112229890D01*
X165518024Y-112038894D01*
X165675775Y-111812778D01*
X165786382Y-111560231D01*
X165803220Y-111468070D01*
X165680720Y-111252000D01*
X164338000Y-111252000D01*
X164084000Y-111252000D01*
X164064000Y-111252000D01*
X164064000Y-110998000D01*
X164084000Y-110998000D01*
X164084000Y-109881718D01*
X164046881Y-109855000D01*
X164084000Y-109828282D01*
X164084000Y-108712000D01*
X164338000Y-108712000D01*
X164338000Y-109828282D01*
X164375119Y-109855000D01*
X164338000Y-109881718D01*
X164338000Y-110998000D01*
X165680720Y-110998000D01*
X165803220Y-110781930D01*
X165786382Y-110689769D01*
X165675775Y-110437222D01*
X165518024Y-110211106D01*
X165319191Y-110020110D01*
X165086917Y-109871574D01*
X165044512Y-109855000D01*
X165086917Y-109838426D01*
X165319191Y-109689890D01*
X165518024Y-109498894D01*
X165675775Y-109272778D01*
X165786382Y-109020231D01*
X165803220Y-108928070D01*
X165680720Y-108712000D01*
X164338000Y-108712000D01*
X164084000Y-108712000D01*
X164064000Y-108712000D01*
X164064000Y-108458000D01*
X164084000Y-108458000D01*
X164084000Y-108438000D01*
X164338000Y-108438000D01*
X164338000Y-108458000D01*
X165680720Y-108458000D01*
X165803220Y-108241930D01*
X165786382Y-108149769D01*
X165675775Y-107897222D01*
X165518024Y-107671106D01*
X165319191Y-107480110D01*
X165086917Y-107331574D01*
X165036075Y-107311702D01*
X165229999Y-107208591D01*
X165441285Y-107036270D01*
X165615076Y-106826192D01*
X165744754Y-106586359D01*
X165825378Y-106325906D01*
X165853877Y-106054753D01*
X165829166Y-105783228D01*
X165752187Y-105521675D01*
X165625871Y-105280054D01*
X165455029Y-105067570D01*
X165246170Y-104892316D01*
X165031347Y-104774216D01*
X165229999Y-104668591D01*
X165441285Y-104496270D01*
X165615076Y-104286192D01*
X165744754Y-104046359D01*
X165825378Y-103785906D01*
X165853877Y-103514753D01*
X165829166Y-103243228D01*
X165752187Y-102981675D01*
X165625871Y-102740054D01*
X165455029Y-102527570D01*
X165246170Y-102352316D01*
X165037651Y-102237682D01*
X165086917Y-102218426D01*
X165319191Y-102069890D01*
X165518024Y-101878894D01*
X165675775Y-101652778D01*
X165786382Y-101400231D01*
X165803220Y-101308070D01*
X165680720Y-101092000D01*
X164338000Y-101092000D01*
X164338000Y-101112000D01*
X164084000Y-101112000D01*
X164084000Y-101092000D01*
X164064000Y-101092000D01*
X164064000Y-100838000D01*
X164084000Y-100838000D01*
X164084000Y-99721718D01*
X164046881Y-99695000D01*
X164084000Y-99668282D01*
X164084000Y-98552000D01*
X164338000Y-98552000D01*
X164338000Y-99668282D01*
X164375119Y-99695000D01*
X164338000Y-99721718D01*
X164338000Y-100838000D01*
X165680720Y-100838000D01*
X165803220Y-100621930D01*
X165786382Y-100529769D01*
X165675775Y-100277222D01*
X165518024Y-100051106D01*
X165319191Y-99860110D01*
X165086917Y-99711574D01*
X165044512Y-99695000D01*
X165086917Y-99678426D01*
X165319191Y-99529890D01*
X165518024Y-99338894D01*
X165675775Y-99112778D01*
X165786382Y-98860231D01*
X165803220Y-98768070D01*
X165680720Y-98552000D01*
X164338000Y-98552000D01*
X164084000Y-98552000D01*
X164064000Y-98552000D01*
X164064000Y-98298000D01*
X164084000Y-98298000D01*
X164084000Y-97181718D01*
X164046881Y-97155000D01*
X164084000Y-97128282D01*
X164084000Y-96012000D01*
X164338000Y-96012000D01*
X164338000Y-97128282D01*
X164375119Y-97155000D01*
X164338000Y-97181718D01*
X164338000Y-98298000D01*
X165680720Y-98298000D01*
X165803220Y-98081930D01*
X165786382Y-97989769D01*
X165675775Y-97737222D01*
X165518024Y-97511106D01*
X165319191Y-97320110D01*
X165086917Y-97171574D01*
X165044512Y-97155000D01*
X165086917Y-97138426D01*
X165319191Y-96989890D01*
X165518024Y-96798894D01*
X165675775Y-96572778D01*
X165786382Y-96320231D01*
X165803220Y-96228070D01*
X165680720Y-96012000D01*
X164338000Y-96012000D01*
X164084000Y-96012000D01*
X164064000Y-96012000D01*
X164064000Y-95758000D01*
X164084000Y-95758000D01*
X164084000Y-94641718D01*
X164046881Y-94615000D01*
X164084000Y-94588282D01*
X164084000Y-93472000D01*
X164338000Y-93472000D01*
X164338000Y-94588282D01*
X164375119Y-94615000D01*
X164338000Y-94641718D01*
X164338000Y-95758000D01*
X165680720Y-95758000D01*
X165803220Y-95541930D01*
X165786382Y-95449769D01*
X165675775Y-95197222D01*
X165518024Y-94971106D01*
X165319191Y-94780110D01*
X165086917Y-94631574D01*
X165044512Y-94615000D01*
X165086917Y-94598426D01*
X165319191Y-94449890D01*
X165518024Y-94258894D01*
X165675775Y-94032778D01*
X165786382Y-93780231D01*
X165803220Y-93688070D01*
X165680720Y-93472000D01*
X164338000Y-93472000D01*
X164084000Y-93472000D01*
X164064000Y-93472000D01*
X164064000Y-93218000D01*
X164084000Y-93218000D01*
X164084000Y-92101718D01*
X164046881Y-92075000D01*
X164084000Y-92048282D01*
X164084000Y-90932000D01*
X164338000Y-90932000D01*
X164338000Y-92048282D01*
X164375119Y-92075000D01*
X164338000Y-92101718D01*
X164338000Y-93218000D01*
X165680720Y-93218000D01*
X165803220Y-93001930D01*
X165786382Y-92909769D01*
X165675775Y-92657222D01*
X165518024Y-92431106D01*
X165319191Y-92240110D01*
X165086917Y-92091574D01*
X165044512Y-92075000D01*
X165086917Y-92058426D01*
X165319191Y-91909890D01*
X165518024Y-91718894D01*
X165675775Y-91492778D01*
X165786382Y-91240231D01*
X165803220Y-91148070D01*
X165680720Y-90932000D01*
X164338000Y-90932000D01*
X164084000Y-90932000D01*
X164064000Y-90932000D01*
X164064000Y-90678000D01*
X164084000Y-90678000D01*
X164084000Y-89561718D01*
X164046881Y-89535000D01*
X164084000Y-89508282D01*
X164084000Y-88392000D01*
X164338000Y-88392000D01*
X164338000Y-89508282D01*
X164375119Y-89535000D01*
X164338000Y-89561718D01*
X164338000Y-90678000D01*
X165680720Y-90678000D01*
X165803220Y-90461930D01*
X165786382Y-90369769D01*
X165675775Y-90117222D01*
X165518024Y-89891106D01*
X165319191Y-89700110D01*
X165086917Y-89551574D01*
X165044512Y-89535000D01*
X165086917Y-89518426D01*
X165319191Y-89369890D01*
X165518024Y-89178894D01*
X165675775Y-88952778D01*
X165786382Y-88700231D01*
X165803220Y-88608070D01*
X165680720Y-88392000D01*
X164338000Y-88392000D01*
X164084000Y-88392000D01*
X164064000Y-88392000D01*
X164064000Y-88138000D01*
X164084000Y-88138000D01*
X164084000Y-87021718D01*
X164046881Y-86995000D01*
X164084000Y-86968282D01*
X164084000Y-85852000D01*
X164338000Y-85852000D01*
X164338000Y-86968282D01*
X164375119Y-86995000D01*
X164338000Y-87021718D01*
X164338000Y-88138000D01*
X165680720Y-88138000D01*
X165803220Y-87921930D01*
X165786382Y-87829769D01*
X165675775Y-87577222D01*
X165518024Y-87351106D01*
X165319191Y-87160110D01*
X165086917Y-87011574D01*
X165044512Y-86995000D01*
X165086917Y-86978426D01*
X165319191Y-86829890D01*
X165518024Y-86638894D01*
X165675775Y-86412778D01*
X165786382Y-86160231D01*
X165803220Y-86068070D01*
X165680720Y-85852000D01*
X164338000Y-85852000D01*
X164084000Y-85852000D01*
X164064000Y-85852000D01*
X164064000Y-85598000D01*
X164084000Y-85598000D01*
X164084000Y-85578000D01*
X164338000Y-85578000D01*
X164338000Y-85598000D01*
X165680720Y-85598000D01*
X165803220Y-85381930D01*
X165786382Y-85289769D01*
X165675775Y-85037222D01*
X165518024Y-84811106D01*
X165319191Y-84620110D01*
X165086917Y-84471574D01*
X165036075Y-84451702D01*
X165229999Y-84348591D01*
X165441285Y-84176270D01*
X165615076Y-83966192D01*
X165744754Y-83726359D01*
X165825378Y-83465906D01*
X165853877Y-83194753D01*
X165829166Y-82923228D01*
X165752187Y-82661675D01*
X165625871Y-82420054D01*
X165455029Y-82207570D01*
X165246170Y-82032316D01*
X165031347Y-81914216D01*
X165229999Y-81808591D01*
X165441285Y-81636270D01*
X165615076Y-81426192D01*
X165744754Y-81186359D01*
X165825378Y-80925906D01*
X165853877Y-80654753D01*
X165829166Y-80383228D01*
X165752187Y-80121675D01*
X165625871Y-79880054D01*
X165455029Y-79667570D01*
X165246170Y-79492316D01*
X165031347Y-79374216D01*
X165229999Y-79268591D01*
X165441285Y-79096270D01*
X165615076Y-78886192D01*
X165744754Y-78646359D01*
X165825378Y-78385906D01*
X165853877Y-78114753D01*
X165829166Y-77843228D01*
X165752187Y-77581675D01*
X165625871Y-77340054D01*
X165455029Y-77127570D01*
X165246170Y-76952316D01*
X165031347Y-76834216D01*
X165229999Y-76728591D01*
X165441285Y-76556270D01*
X165615076Y-76346192D01*
X165744754Y-76106359D01*
X165825378Y-75845906D01*
X165853877Y-75574753D01*
X165829166Y-75303228D01*
X165752187Y-75041675D01*
X165625871Y-74800054D01*
X165455029Y-74587570D01*
X165246170Y-74412316D01*
X165031347Y-74294216D01*
X165229999Y-74188591D01*
X165441285Y-74016270D01*
X165615076Y-73806192D01*
X165744754Y-73566359D01*
X165825378Y-73305906D01*
X165853877Y-73034753D01*
X165829166Y-72763228D01*
X165752187Y-72501675D01*
X165625871Y-72260054D01*
X165455029Y-72047570D01*
X165246170Y-71872316D01*
X165031347Y-71754216D01*
X165229999Y-71648591D01*
X165441285Y-71476270D01*
X165615076Y-71266192D01*
X165744754Y-71026359D01*
X165825378Y-70765906D01*
X165853877Y-70494753D01*
X165829166Y-70223228D01*
X165752187Y-69961675D01*
X165625871Y-69720054D01*
X165455029Y-69507570D01*
X165246170Y-69332316D01*
X165031347Y-69214216D01*
X165229999Y-69108591D01*
X165441285Y-68936270D01*
X165615076Y-68726192D01*
X165744754Y-68486359D01*
X165825378Y-68225906D01*
X165853877Y-67954753D01*
X165829166Y-67683228D01*
X165752187Y-67421675D01*
X165625871Y-67180054D01*
X165455029Y-66967570D01*
X165246170Y-66792316D01*
X165037651Y-66677682D01*
X165086917Y-66658426D01*
X165319191Y-66509890D01*
X165518024Y-66318894D01*
X165675775Y-66092778D01*
X165786382Y-65840231D01*
X165803220Y-65748070D01*
X165680720Y-65532000D01*
X164338000Y-65532000D01*
X164338000Y-65552000D01*
X164084000Y-65552000D01*
X164084000Y-65532000D01*
X164064000Y-65532000D01*
X164064000Y-65278000D01*
X164084000Y-65278000D01*
X164084000Y-65258000D01*
X164338000Y-65258000D01*
X164338000Y-65278000D01*
X165680720Y-65278000D01*
X165803220Y-65061930D01*
X165786382Y-64969769D01*
X165675775Y-64717222D01*
X165518024Y-64491106D01*
X165319191Y-64300110D01*
X165086917Y-64151574D01*
X165036075Y-64131702D01*
X165229999Y-64028591D01*
X165441285Y-63856270D01*
X165615076Y-63646192D01*
X165744754Y-63406359D01*
X165825378Y-63145906D01*
X165853877Y-62874753D01*
X165829166Y-62603228D01*
X165752187Y-62341675D01*
X165625871Y-62100054D01*
X165455029Y-61887570D01*
X165246170Y-61712316D01*
X165221000Y-61698479D01*
X165221000Y-60579000D01*
X165211898Y-60486170D01*
X165203765Y-60393209D01*
X165202283Y-60388109D01*
X165201765Y-60382823D01*
X165174811Y-60293548D01*
X165148771Y-60203918D01*
X165146325Y-60199198D01*
X165144791Y-60194119D01*
X165101037Y-60111830D01*
X165058058Y-60028915D01*
X165054741Y-60024760D01*
X165052250Y-60020075D01*
X164993328Y-59947828D01*
X164935080Y-59874863D01*
X164927788Y-59867469D01*
X164927666Y-59867319D01*
X164927527Y-59867204D01*
X164925178Y-59864822D01*
X163718678Y-58658322D01*
X163646560Y-58599083D01*
X163575117Y-58539135D01*
X163570464Y-58536577D01*
X163566359Y-58533205D01*
X163484142Y-58489121D01*
X163402381Y-58444173D01*
X163397316Y-58442566D01*
X163392638Y-58440058D01*
X163303481Y-58412800D01*
X163214491Y-58384571D01*
X163209209Y-58383978D01*
X163204134Y-58382427D01*
X163111376Y-58373005D01*
X163018602Y-58362598D01*
X163008220Y-58362526D01*
X163008025Y-58362506D01*
X163007843Y-58362523D01*
X163004500Y-58362500D01*
X156019500Y-58362500D01*
X155926670Y-58371602D01*
X155833709Y-58379735D01*
X155828609Y-58381217D01*
X155823323Y-58381735D01*
X155734048Y-58408689D01*
X155644418Y-58434729D01*
X155639698Y-58437175D01*
X155634619Y-58438709D01*
X155552330Y-58482463D01*
X155469415Y-58525442D01*
X155465260Y-58528759D01*
X155460575Y-58531250D01*
X155388328Y-58590172D01*
X155315363Y-58648420D01*
X155307969Y-58655712D01*
X155307819Y-58655834D01*
X155307704Y-58655973D01*
X155305322Y-58658322D01*
X153971822Y-59991822D01*
X153912583Y-60063940D01*
X153852635Y-60135383D01*
X153850077Y-60140036D01*
X153846705Y-60144141D01*
X153802621Y-60226358D01*
X153757673Y-60308119D01*
X153756066Y-60313184D01*
X153753558Y-60317862D01*
X153726300Y-60407019D01*
X153698071Y-60496009D01*
X153697478Y-60501291D01*
X153695927Y-60506366D01*
X153686505Y-60599124D01*
X153676098Y-60691898D01*
X153676026Y-60702280D01*
X153676006Y-60702475D01*
X153676023Y-60702657D01*
X153676000Y-60706000D01*
X153676000Y-63563500D01*
X153685106Y-63656375D01*
X153693235Y-63749291D01*
X153694717Y-63754391D01*
X153695235Y-63759677D01*
X153722189Y-63848952D01*
X153748229Y-63938582D01*
X153750675Y-63943301D01*
X153752209Y-63948381D01*
X153795984Y-64030710D01*
X153838943Y-64113585D01*
X153842257Y-64117737D01*
X153844750Y-64122425D01*
X153903695Y-64194699D01*
X153961920Y-64267637D01*
X153969212Y-64275031D01*
X153969334Y-64275181D01*
X153969473Y-64275296D01*
X153971822Y-64277678D01*
X154987822Y-65293678D01*
X155059940Y-65352917D01*
X155131383Y-65412865D01*
X155136036Y-65415423D01*
X155140141Y-65418795D01*
X155222358Y-65462879D01*
X155304119Y-65507827D01*
X155309184Y-65509434D01*
X155313862Y-65511942D01*
X155403019Y-65539200D01*
X155492009Y-65567429D01*
X155497291Y-65568022D01*
X155502366Y-65569573D01*
X155595124Y-65578995D01*
X155687898Y-65589402D01*
X155698280Y-65589474D01*
X155698475Y-65589494D01*
X155698657Y-65589477D01*
X155702000Y-65589500D01*
X156851000Y-65589500D01*
X156851000Y-66764644D01*
X155791644Y-67824000D01*
X151584245Y-67824000D01*
X151548713Y-67780433D01*
X151325401Y-67595694D01*
X151070461Y-67457848D01*
X150793601Y-67372146D01*
X150505367Y-67341851D01*
X150216739Y-67368118D01*
X149938709Y-67449947D01*
X149681869Y-67584220D01*
X149456000Y-67765823D01*
X149269706Y-67987839D01*
X149225502Y-68068247D01*
X149191888Y-68005029D01*
X149008713Y-67780433D01*
X148785401Y-67595694D01*
X148530461Y-67457848D01*
X148253601Y-67372146D01*
X147965367Y-67341851D01*
X147676739Y-67368118D01*
X147398709Y-67449947D01*
X147141869Y-67584220D01*
X146916000Y-67765823D01*
X146874189Y-67815651D01*
X146841894Y-67711366D01*
X146743100Y-67561441D01*
X146606450Y-67444975D01*
X146442763Y-67371190D01*
X146265000Y-67345928D01*
X144565000Y-67345928D01*
X144463879Y-67353992D01*
X144395000Y-67375322D01*
X144395000Y-66675000D01*
X144387018Y-66593599D01*
X144379897Y-66512203D01*
X144378599Y-66507736D01*
X144378145Y-66503103D01*
X144354520Y-66424852D01*
X144331710Y-66346339D01*
X144329567Y-66342205D01*
X144328223Y-66337753D01*
X144289875Y-66265630D01*
X144252224Y-66192994D01*
X144249318Y-66189354D01*
X144247135Y-66185248D01*
X144195493Y-66121929D01*
X144144466Y-66058009D01*
X144138077Y-66051530D01*
X144137970Y-66051399D01*
X144137849Y-66051299D01*
X144135789Y-66049210D01*
X142865790Y-64779210D01*
X142802574Y-64727284D01*
X142739996Y-64674775D01*
X142735919Y-64672534D01*
X142732322Y-64669579D01*
X142660292Y-64630957D01*
X142588639Y-64591565D01*
X142584200Y-64590157D01*
X142580101Y-64587959D01*
X142501974Y-64564073D01*
X142424002Y-64539339D01*
X142419374Y-64538820D01*
X142414926Y-64537460D01*
X142333661Y-64529206D01*
X142252357Y-64520086D01*
X142243253Y-64520023D01*
X142243089Y-64520006D01*
X142242936Y-64520020D01*
X142240000Y-64520000D01*
X134874000Y-64520000D01*
X134792644Y-64527977D01*
X134711204Y-64535102D01*
X134706733Y-64536401D01*
X134702103Y-64536855D01*
X134623915Y-64560461D01*
X134545340Y-64583289D01*
X134541203Y-64585434D01*
X134536753Y-64586777D01*
X134464647Y-64625116D01*
X134391994Y-64662776D01*
X134388354Y-64665682D01*
X134384248Y-64667865D01*
X134320960Y-64719482D01*
X134257009Y-64770533D01*
X134250528Y-64776924D01*
X134250399Y-64777030D01*
X134250300Y-64777150D01*
X134248211Y-64779210D01*
X133359210Y-65668210D01*
X133307284Y-65731426D01*
X133254775Y-65794004D01*
X133252534Y-65798081D01*
X133249579Y-65801678D01*
X133210957Y-65873708D01*
X133171565Y-65945361D01*
X133170157Y-65949800D01*
X133167959Y-65953899D01*
X133144073Y-66032026D01*
X133122551Y-66099873D01*
X132946000Y-66241823D01*
X132759706Y-66463839D01*
X132712400Y-66549889D01*
X132640178Y-66428645D01*
X132445269Y-66212412D01*
X132211920Y-66038359D01*
X131949099Y-65913175D01*
X131801890Y-65868524D01*
X131572000Y-65989845D01*
X131572000Y-67183000D01*
X131592000Y-67183000D01*
X131592000Y-67437000D01*
X131572000Y-67437000D01*
X131572000Y-67457000D01*
X131318000Y-67457000D01*
X131318000Y-67437000D01*
X131298000Y-67437000D01*
X131298000Y-67183000D01*
X131318000Y-67183000D01*
X131318000Y-65989845D01*
X131088110Y-65868524D01*
X130940901Y-65913175D01*
X130678080Y-66038359D01*
X130444731Y-66212412D01*
X130249822Y-66428645D01*
X130100843Y-66678748D01*
X130003519Y-66953109D01*
X130124185Y-67182998D01*
X129996000Y-67182998D01*
X129996000Y-57225000D01*
X169216000Y-57225000D01*
X169216000Y-116765000D01*
X169216000Y-116765000D01*
G37*
X169216000Y-116765000D02*
X154578916Y-116765000D01*
X154646662Y-116697254D01*
X154531351Y-116581943D01*
X154811090Y-116468082D01*
X154966961Y-116152904D01*
X155058349Y-115813374D01*
X155081741Y-115462539D01*
X155036240Y-115113881D01*
X154923594Y-114780800D01*
X154811090Y-114570318D01*
X154531349Y-114456456D01*
X153468605Y-115519200D01*
X153482748Y-115533343D01*
X153303143Y-115712948D01*
X153289000Y-115698805D01*
X153274858Y-115712948D01*
X153095253Y-115533343D01*
X153109395Y-115519200D01*
X152046651Y-114456456D01*
X151766910Y-114570318D01*
X151611039Y-114885496D01*
X151519651Y-115225026D01*
X151496259Y-115575861D01*
X151541760Y-115924519D01*
X151654406Y-116257600D01*
X151766910Y-116468082D01*
X152046649Y-116581943D01*
X151931338Y-116697254D01*
X151999084Y-116765000D01*
X149498916Y-116765000D01*
X149566662Y-116697254D01*
X149451351Y-116581943D01*
X149731090Y-116468082D01*
X149886961Y-116152904D01*
X149978349Y-115813374D01*
X150001741Y-115462539D01*
X149956240Y-115113881D01*
X149843594Y-114780800D01*
X149731090Y-114570318D01*
X149451349Y-114456456D01*
X148388605Y-115519200D01*
X148402748Y-115533343D01*
X148223143Y-115712948D01*
X148209000Y-115698805D01*
X148194858Y-115712948D01*
X148015253Y-115533343D01*
X148029395Y-115519200D01*
X146966651Y-114456456D01*
X146686910Y-114570318D01*
X146531039Y-114885496D01*
X146439651Y-115225026D01*
X146416259Y-115575861D01*
X146461760Y-115924519D01*
X146574406Y-116257600D01*
X146686910Y-116468082D01*
X146966649Y-116581943D01*
X146851338Y-116697254D01*
X146919084Y-116765000D01*
X129996000Y-116765000D01*
X129996000Y-114052100D01*
X130289160Y-114255852D01*
X130852544Y-114501989D01*
X131453007Y-114634009D01*
X132067678Y-114646885D01*
X132673143Y-114540125D01*
X133246340Y-114317796D01*
X133765438Y-113988367D01*
X134210662Y-113564385D01*
X134565056Y-113062000D01*
X134815120Y-112500348D01*
X134951329Y-111900821D01*
X134961135Y-111198597D01*
X134841718Y-110595501D01*
X134607434Y-110027085D01*
X134267206Y-109515001D01*
X133833993Y-109078753D01*
X133324297Y-108734958D01*
X132757530Y-108496712D01*
X132155282Y-108373088D01*
X131540492Y-108368796D01*
X130936577Y-108483999D01*
X130366539Y-108714309D01*
X129996000Y-108956783D01*
X129996000Y-106481689D01*
X132566814Y-106481689D01*
X132567584Y-106490325D01*
X132566879Y-106498972D01*
X132567103Y-106508534D01*
X132576414Y-106815094D01*
X132582724Y-106864085D01*
X132586522Y-106913345D01*
X132591249Y-106930265D01*
X132593493Y-106947688D01*
X132609201Y-106994526D01*
X132622492Y-107042104D01*
X132626014Y-107050996D01*
X132704336Y-107244769D01*
X132714962Y-107265087D01*
X132722893Y-107286601D01*
X132745872Y-107324192D01*
X132766291Y-107363236D01*
X132780663Y-107381107D01*
X132792620Y-107400666D01*
X132798433Y-107408261D01*
X132978759Y-107640428D01*
X133008914Y-107672275D01*
X133036841Y-107706065D01*
X133043671Y-107712761D01*
X133284654Y-107945697D01*
X133316049Y-107970605D01*
X133345394Y-107997897D01*
X133353040Y-108003643D01*
X133593928Y-108182050D01*
X133639080Y-108209099D01*
X133683039Y-108237991D01*
X133691536Y-108242381D01*
X133764483Y-108279413D01*
X133827459Y-108319123D01*
X134002202Y-108449842D01*
X134252707Y-108649282D01*
X134433847Y-108799056D01*
X134434302Y-108799363D01*
X134434686Y-108799748D01*
X134442109Y-108805780D01*
X134824868Y-109112365D01*
X134832868Y-109117579D01*
X134839882Y-109124052D01*
X134847550Y-109129768D01*
X135231984Y-109412192D01*
X135240600Y-109417308D01*
X135248247Y-109423778D01*
X135256154Y-109429159D01*
X135614230Y-109669164D01*
X135627276Y-109676169D01*
X135639111Y-109685075D01*
X135647313Y-109689995D01*
X135950995Y-109869321D01*
X135980054Y-109882848D01*
X136007587Y-109899264D01*
X136016269Y-109903277D01*
X136237526Y-110003665D01*
X136243927Y-110005845D01*
X136249855Y-110009114D01*
X136258933Y-110012007D01*
X136253602Y-110043249D01*
X136242650Y-110093798D01*
X136242378Y-110109025D01*
X136239816Y-110124037D01*
X136241184Y-110175746D01*
X136240259Y-110227466D01*
X136241088Y-110236994D01*
X136273992Y-110586693D01*
X136284127Y-110638954D01*
X136292168Y-110691574D01*
X136296833Y-110704471D01*
X136299445Y-110717937D01*
X136319540Y-110767240D01*
X136337646Y-110817290D01*
X136341821Y-110825895D01*
X136497204Y-111140457D01*
X136530507Y-111193986D01*
X136563269Y-111247961D01*
X136565827Y-111250756D01*
X136567826Y-111253970D01*
X136610943Y-111300066D01*
X136653514Y-111346594D01*
X136659064Y-111351512D01*
X136659150Y-111351604D01*
X136659244Y-111351672D01*
X136660672Y-111352937D01*
X136934033Y-111591767D01*
X136937487Y-111594235D01*
X136940434Y-111597290D01*
X136991821Y-111633053D01*
X137042813Y-111669483D01*
X137046684Y-111671234D01*
X137050165Y-111673657D01*
X137058543Y-111678270D01*
X137089610Y-111695093D01*
X137094566Y-111697180D01*
X137099069Y-111700120D01*
X137156137Y-111723108D01*
X137212821Y-111746977D01*
X137218087Y-111748061D01*
X137223076Y-111750071D01*
X137232273Y-111752697D01*
X137581701Y-111849864D01*
X137583231Y-111850132D01*
X137584680Y-111850685D01*
X137649083Y-111861673D01*
X137713384Y-111872941D01*
X137714934Y-111872907D01*
X137716464Y-111873168D01*
X137781758Y-111871437D01*
X137847039Y-111870001D01*
X137848554Y-111869666D01*
X137850106Y-111869625D01*
X137859588Y-111868374D01*
X138205944Y-111820199D01*
X138264469Y-111806128D01*
X138323259Y-111793201D01*
X138329406Y-111790515D01*
X138335929Y-111788947D01*
X138377959Y-111769599D01*
X140243879Y-111769599D01*
X140354863Y-112374304D01*
X140581188Y-112945936D01*
X140914233Y-113462720D01*
X141341313Y-113904974D01*
X141846160Y-114255852D01*
X142409544Y-114501989D01*
X143010007Y-114634009D01*
X143624678Y-114646885D01*
X144230143Y-114540125D01*
X144803340Y-114317796D01*
X144867859Y-114276851D01*
X147146256Y-114276851D01*
X148209000Y-115339595D01*
X149271744Y-114276851D01*
X149157882Y-113997110D01*
X148842704Y-113841239D01*
X148503174Y-113749851D01*
X148152339Y-113726459D01*
X147803681Y-113771960D01*
X147470600Y-113884606D01*
X147260118Y-113997110D01*
X147146256Y-114276851D01*
X144867859Y-114276851D01*
X145322438Y-113988367D01*
X145767662Y-113564385D01*
X146074589Y-113129288D01*
X148961654Y-113129288D01*
X149024845Y-113473593D01*
X149153710Y-113799068D01*
X149343338Y-114093314D01*
X149586508Y-114345123D01*
X149873957Y-114544905D01*
X150194736Y-114685050D01*
X150536626Y-114760220D01*
X150886606Y-114767551D01*
X151231345Y-114706764D01*
X151557711Y-114580175D01*
X151853273Y-114392605D01*
X151974826Y-114276851D01*
X152226256Y-114276851D01*
X153289000Y-115339595D01*
X154351744Y-114276851D01*
X154237882Y-113997110D01*
X153922704Y-113841239D01*
X153583174Y-113749851D01*
X153232339Y-113726459D01*
X152883681Y-113771960D01*
X152550600Y-113884606D01*
X152340118Y-113997110D01*
X152226256Y-114276851D01*
X151974826Y-114276851D01*
X152106774Y-114151199D01*
X152308558Y-113865152D01*
X152450939Y-113545360D01*
X152528494Y-113204002D01*
X152534077Y-112804172D01*
X152466084Y-112460782D01*
X152332687Y-112137138D01*
X152138969Y-111845569D01*
X151976091Y-111681549D01*
X152226256Y-111681549D01*
X152340118Y-111961290D01*
X152655296Y-112117161D01*
X152994826Y-112208549D01*
X153345661Y-112231941D01*
X153694319Y-112186440D01*
X154027400Y-112073794D01*
X154237882Y-111961290D01*
X154351744Y-111681549D01*
X153289000Y-110618805D01*
X152226256Y-111681549D01*
X151976091Y-111681549D01*
X151892307Y-111597179D01*
X151602097Y-111401430D01*
X151279393Y-111265777D01*
X150936486Y-111195389D01*
X150586438Y-111192945D01*
X150242582Y-111258539D01*
X149918015Y-111389672D01*
X149625100Y-111581351D01*
X149374994Y-111826272D01*
X149177224Y-112115109D01*
X149039322Y-112436858D01*
X148966541Y-112779265D01*
X148961654Y-113129288D01*
X146074589Y-113129288D01*
X146122056Y-113062000D01*
X146372120Y-112500348D01*
X146508329Y-111900821D01*
X146511390Y-111681549D01*
X147146256Y-111681549D01*
X147260118Y-111961290D01*
X147575296Y-112117161D01*
X147914826Y-112208549D01*
X148265661Y-112231941D01*
X148614319Y-112186440D01*
X148947400Y-112073794D01*
X149157882Y-111961290D01*
X149271744Y-111681549D01*
X148209000Y-110618805D01*
X147146256Y-111681549D01*
X146511390Y-111681549D01*
X146518135Y-111198597D01*
X146398718Y-110595501D01*
X146357650Y-110495861D01*
X146416259Y-110495861D01*
X146461760Y-110844519D01*
X146574406Y-111177600D01*
X146686910Y-111388082D01*
X146966651Y-111501944D01*
X148029395Y-110439200D01*
X148388605Y-110439200D01*
X149451349Y-111501944D01*
X149731090Y-111388082D01*
X149886961Y-111072904D01*
X149978349Y-110733374D01*
X149994185Y-110495861D01*
X151496259Y-110495861D01*
X151541760Y-110844519D01*
X151654406Y-111177600D01*
X151766910Y-111388082D01*
X152046651Y-111501944D01*
X153109395Y-110439200D01*
X153468605Y-110439200D01*
X154531349Y-111501944D01*
X154811090Y-111388082D01*
X154966961Y-111072904D01*
X155058349Y-110733374D01*
X155081741Y-110382539D01*
X155036240Y-110033881D01*
X154923594Y-109700800D01*
X154811090Y-109490318D01*
X154531349Y-109376456D01*
X153468605Y-110439200D01*
X153109395Y-110439200D01*
X152046651Y-109376456D01*
X151766910Y-109490318D01*
X151611039Y-109805496D01*
X151519651Y-110145026D01*
X151496259Y-110495861D01*
X149994185Y-110495861D01*
X150001741Y-110382539D01*
X149956240Y-110033881D01*
X149843594Y-109700800D01*
X149731090Y-109490318D01*
X149451349Y-109376456D01*
X148388605Y-110439200D01*
X148029395Y-110439200D01*
X146966651Y-109376456D01*
X146686910Y-109490318D01*
X146531039Y-109805496D01*
X146439651Y-110145026D01*
X146416259Y-110495861D01*
X146357650Y-110495861D01*
X146164434Y-110027085D01*
X145824206Y-109515001D01*
X145508270Y-109196851D01*
X147146256Y-109196851D01*
X148209000Y-110259595D01*
X149271744Y-109196851D01*
X152226256Y-109196851D01*
X153289000Y-110259595D01*
X154351744Y-109196851D01*
X154237882Y-108917110D01*
X153922704Y-108761239D01*
X153583174Y-108669851D01*
X153232339Y-108646459D01*
X152883681Y-108691960D01*
X152550600Y-108804606D01*
X152340118Y-108917110D01*
X152226256Y-109196851D01*
X149271744Y-109196851D01*
X149157882Y-108917110D01*
X148842704Y-108761239D01*
X148503174Y-108669851D01*
X148152339Y-108646459D01*
X147803681Y-108691960D01*
X147470600Y-108804606D01*
X147260118Y-108917110D01*
X147146256Y-109196851D01*
X145508270Y-109196851D01*
X145390993Y-109078753D01*
X144881297Y-108734958D01*
X144314530Y-108496712D01*
X143712282Y-108373088D01*
X143097492Y-108368796D01*
X142493577Y-108483999D01*
X141923539Y-108714309D01*
X141409092Y-109050954D01*
X140969831Y-109481110D01*
X140622486Y-109988395D01*
X140380288Y-110553484D01*
X140252463Y-111154854D01*
X140243879Y-111769599D01*
X138377959Y-111769599D01*
X138390613Y-111763774D01*
X138445766Y-111739677D01*
X138454082Y-111734953D01*
X138761148Y-111557664D01*
X138806847Y-111524945D01*
X138853534Y-111493678D01*
X138861122Y-111486087D01*
X138869849Y-111479839D01*
X138908326Y-111438864D01*
X138948048Y-111399127D01*
X138954066Y-111391693D01*
X139185616Y-111101518D01*
X139196957Y-111084046D01*
X139210547Y-111068253D01*
X139233283Y-111028085D01*
X139258406Y-110989382D01*
X139266138Y-110970040D01*
X139276401Y-110951908D01*
X139280217Y-110943138D01*
X139351218Y-110776768D01*
X139361148Y-110745295D01*
X139374148Y-110714955D01*
X139381214Y-110681694D01*
X139391443Y-110649274D01*
X139395071Y-110616470D01*
X139401930Y-110584185D01*
X139402929Y-110574673D01*
X139436779Y-110229097D01*
X139436777Y-110213102D01*
X139439150Y-110197275D01*
X139436771Y-110146353D01*
X139436766Y-110095408D01*
X139433658Y-110079718D01*
X139432911Y-110063733D01*
X139420691Y-110014262D01*
X139410787Y-109964268D01*
X139404686Y-109949471D01*
X139400851Y-109933944D01*
X139397600Y-109924950D01*
X139390988Y-109907050D01*
X139399262Y-109904747D01*
X139408157Y-109901233D01*
X139727478Y-109772512D01*
X139754897Y-109758205D01*
X139783672Y-109746857D01*
X139792154Y-109742437D01*
X140202081Y-109525177D01*
X140215959Y-109515983D01*
X140231026Y-109508925D01*
X140239216Y-109503985D01*
X140722590Y-109207769D01*
X140731270Y-109201204D01*
X140740908Y-109196141D01*
X140748864Y-109190832D01*
X141288530Y-108825241D01*
X141293095Y-108821449D01*
X141298257Y-108818528D01*
X141306043Y-108812974D01*
X141658689Y-108557665D01*
X141660033Y-108556476D01*
X141661578Y-108555562D01*
X141669256Y-108549859D01*
X142073315Y-108245349D01*
X142077454Y-108241542D01*
X142082198Y-108238539D01*
X142089700Y-108232607D01*
X142374909Y-108003794D01*
X142388400Y-107990611D01*
X142403597Y-107979453D01*
X142410673Y-107973018D01*
X142594797Y-107803195D01*
X142627360Y-107766664D01*
X142661789Y-107731902D01*
X142667772Y-107724441D01*
X142768583Y-107596902D01*
X142791993Y-107560471D01*
X142817859Y-107525742D01*
X142828049Y-107504359D01*
X142840854Y-107484431D01*
X142856742Y-107444147D01*
X142875370Y-107405056D01*
X142878560Y-107396039D01*
X142913826Y-107294078D01*
X142920168Y-107267620D01*
X142929532Y-107242079D01*
X142935712Y-107202771D01*
X142944988Y-107164071D01*
X142946070Y-107136885D01*
X142950295Y-107110012D01*
X142950785Y-107100460D01*
X142951544Y-107083314D01*
X142951331Y-107079330D01*
X142951849Y-107075376D01*
X142949781Y-107043654D01*
X142950305Y-107030489D01*
X142947941Y-107015428D01*
X142947760Y-107012657D01*
X142944395Y-106949816D01*
X142943411Y-106945947D01*
X142943152Y-106941970D01*
X142941536Y-106932544D01*
X142904568Y-106725631D01*
X142892769Y-106683739D01*
X142883861Y-106641140D01*
X142880936Y-106632035D01*
X142787202Y-106347126D01*
X142778263Y-106326870D01*
X142772048Y-106305625D01*
X142768418Y-106296776D01*
X142643678Y-105998679D01*
X142631468Y-105976010D01*
X142622073Y-105952045D01*
X142617671Y-105943554D01*
X142487680Y-105697077D01*
X142465737Y-105663807D01*
X142446498Y-105628916D01*
X142441030Y-105621069D01*
X142414125Y-105583030D01*
X142414124Y-105583029D01*
X142395677Y-105556948D01*
X142347013Y-105475665D01*
X142245652Y-105270906D01*
X142111792Y-104976338D01*
X142033639Y-104794634D01*
X142033571Y-104794510D01*
X142030929Y-104788418D01*
X141779688Y-104219859D01*
X141776857Y-104214843D01*
X141774963Y-104209404D01*
X141770891Y-104200750D01*
X141498974Y-103633214D01*
X141496436Y-103629024D01*
X141494696Y-103624446D01*
X141490381Y-103615910D01*
X141210157Y-103071026D01*
X141207335Y-103066649D01*
X141205343Y-103061837D01*
X141200782Y-103053431D01*
X140924622Y-102552828D01*
X140920631Y-102547018D01*
X140917713Y-102540602D01*
X140912865Y-102532358D01*
X140876076Y-102470786D01*
X140876026Y-102470701D01*
X140653142Y-102097669D01*
X140646108Y-102088149D01*
X140640694Y-102077628D01*
X140635453Y-102069627D01*
X140404535Y-101722482D01*
X140388875Y-101703303D01*
X140375695Y-101682346D01*
X140369785Y-101674826D01*
X140180046Y-101436855D01*
X140177250Y-101433976D01*
X140175033Y-101430644D01*
X140130769Y-101386123D01*
X140086899Y-101340957D01*
X140083597Y-101338676D01*
X140080775Y-101335838D01*
X140073360Y-101329797D01*
X139942099Y-101224388D01*
X139888593Y-101189420D01*
X139835409Y-101154004D01*
X139832670Y-101152872D01*
X139830190Y-101151251D01*
X139770923Y-101127346D01*
X139711861Y-101102931D01*
X139708955Y-101102352D01*
X139706207Y-101101244D01*
X139643465Y-101089314D01*
X139580747Y-101076827D01*
X139577780Y-101076824D01*
X139574872Y-101076271D01*
X139511004Y-101076754D01*
X139447057Y-101076688D01*
X139441352Y-101077282D01*
X139441187Y-101077283D01*
X139441030Y-101077315D01*
X139437545Y-101077678D01*
X139315956Y-101091188D01*
X139251059Y-101104911D01*
X139186140Y-101118538D01*
X139185222Y-101118834D01*
X139185159Y-101118847D01*
X139185093Y-101118875D01*
X139177036Y-101121470D01*
X138955379Y-101194580D01*
X138933360Y-101204317D01*
X138910296Y-101211225D01*
X138901471Y-101214912D01*
X138626491Y-101332058D01*
X138624013Y-101333413D01*
X138173941Y-101494968D01*
X137824286Y-101527280D01*
X137691533Y-101502653D01*
X137691508Y-101502648D01*
X137432033Y-101454513D01*
X137199419Y-101368217D01*
X136936289Y-101258192D01*
X136936228Y-101258173D01*
X136936172Y-101258143D01*
X136927322Y-101254516D01*
X136700825Y-101163551D01*
X136695848Y-101162098D01*
X136691222Y-101159779D01*
X136682271Y-101156410D01*
X136566285Y-101113694D01*
X136528745Y-101103903D01*
X136492132Y-101091060D01*
X136464207Y-101087071D01*
X136436924Y-101079955D01*
X136398207Y-101077642D01*
X136359787Y-101072154D01*
X136331618Y-101073665D01*
X136303474Y-101071984D01*
X136265038Y-101077237D01*
X136226291Y-101079315D01*
X136198961Y-101086266D01*
X136171017Y-101090085D01*
X136134325Y-101102706D01*
X136096727Y-101112269D01*
X136087755Y-101115582D01*
X135970827Y-101159696D01*
X135927541Y-101181062D01*
X135883149Y-101200042D01*
X135867710Y-101210593D01*
X135850946Y-101218868D01*
X135812635Y-101248233D01*
X135772775Y-101275475D01*
X135765485Y-101281667D01*
X135717515Y-101323001D01*
X135717481Y-101323030D01*
X135567189Y-101452527D01*
X135544820Y-101475975D01*
X135520204Y-101497048D01*
X135513629Y-101503993D01*
X135244985Y-101791730D01*
X135239776Y-101798534D01*
X135233490Y-101804354D01*
X135227189Y-101811550D01*
X135151320Y-101899424D01*
X135150137Y-101901101D01*
X135148663Y-101902521D01*
X135142507Y-101909840D01*
X134834335Y-102281494D01*
X134829218Y-102289061D01*
X134822903Y-102295660D01*
X134817048Y-102303223D01*
X134554708Y-102647065D01*
X134547344Y-102658969D01*
X134538232Y-102669597D01*
X134532800Y-102677469D01*
X134294660Y-103027782D01*
X134287931Y-103040119D01*
X134279387Y-103051269D01*
X134274394Y-103059427D01*
X134175903Y-103222928D01*
X134175899Y-103222936D01*
X134038820Y-103450495D01*
X134034650Y-103459251D01*
X134029087Y-103467182D01*
X134024442Y-103475543D01*
X133769800Y-103941654D01*
X133768202Y-103945409D01*
X133765950Y-103948803D01*
X133761523Y-103957281D01*
X133466181Y-104532717D01*
X133466121Y-104532868D01*
X133463357Y-104538281D01*
X133394951Y-104674606D01*
X133193222Y-105074982D01*
X133015388Y-105422788D01*
X132876175Y-105689748D01*
X132795746Y-105837852D01*
X132781682Y-105860695D01*
X132760934Y-105903196D01*
X132737788Y-105944432D01*
X132734003Y-105953216D01*
X132620803Y-106221123D01*
X132618224Y-106229399D01*
X132614277Y-106237126D01*
X132598352Y-106293178D01*
X132581034Y-106348760D01*
X132580112Y-106357380D01*
X132577741Y-106365725D01*
X132573008Y-106423792D01*
X132566814Y-106481689D01*
X129996000Y-106481689D01*
X129996000Y-94378410D01*
X132970277Y-94378410D01*
X132970298Y-94387294D01*
X132980458Y-95469334D01*
X132986533Y-95525825D01*
X132991669Y-95582423D01*
X132993168Y-95587522D01*
X132993736Y-95592800D01*
X133010672Y-95647051D01*
X133026699Y-95701557D01*
X133029156Y-95706260D01*
X133030741Y-95711337D01*
X133057906Y-95761289D01*
X133084201Y-95811620D01*
X133087528Y-95815760D01*
X133090066Y-95820427D01*
X133126413Y-95864149D01*
X133161986Y-95908416D01*
X133166049Y-95911827D01*
X133169450Y-95915918D01*
X133213641Y-95951782D01*
X133257092Y-95988261D01*
X133261739Y-95990817D01*
X133265870Y-95994170D01*
X133316170Y-96020760D01*
X133365894Y-96048113D01*
X133370952Y-96049719D01*
X133375653Y-96052204D01*
X133430132Y-96068509D01*
X133484250Y-96085691D01*
X133492952Y-96087480D01*
X133787592Y-96145900D01*
X133787739Y-96145914D01*
X133793063Y-96146960D01*
X133980147Y-96182354D01*
X134174922Y-96219811D01*
X134224314Y-96229689D01*
X134243940Y-96274005D01*
X134282576Y-96366137D01*
X134272163Y-96382306D01*
X134186854Y-96507899D01*
X134079388Y-96662850D01*
X134078701Y-96664082D01*
X134077791Y-96665163D01*
X134072811Y-96672521D01*
X133915331Y-96908741D01*
X133911498Y-96915923D01*
X133906508Y-96922349D01*
X133901822Y-96929897D01*
X133873882Y-96975617D01*
X133860821Y-97002599D01*
X133845101Y-97028116D01*
X133833835Y-97058350D01*
X133819779Y-97087389D01*
X133812209Y-97116388D01*
X133801742Y-97144479D01*
X133799527Y-97153082D01*
X133794447Y-97173402D01*
X133790849Y-97197664D01*
X133784406Y-97221337D01*
X133781760Y-97258950D01*
X133776230Y-97296236D01*
X133777413Y-97320738D01*
X133775691Y-97345210D01*
X133780399Y-97382610D01*
X133782217Y-97420270D01*
X133788138Y-97444080D01*
X133791201Y-97468415D01*
X133803084Y-97504189D01*
X133812182Y-97540778D01*
X133822613Y-97562982D01*
X133830346Y-97586262D01*
X133834013Y-97594354D01*
X133849253Y-97627374D01*
X133851843Y-97631792D01*
X133853604Y-97636607D01*
X133883240Y-97685361D01*
X133912045Y-97734506D01*
X133915442Y-97738336D01*
X133918106Y-97742718D01*
X133923489Y-97749786D01*
X133966669Y-97805665D01*
X133984645Y-97824744D01*
X134000358Y-97845741D01*
X134006396Y-97852258D01*
X134085136Y-97936078D01*
X134086860Y-97937587D01*
X134088274Y-97939395D01*
X134094448Y-97945784D01*
X134218908Y-98072783D01*
X134219004Y-98072863D01*
X134223429Y-98077351D01*
X134467269Y-98321191D01*
X134467362Y-98321268D01*
X134472030Y-98325902D01*
X134593950Y-98445281D01*
X134595170Y-98446262D01*
X134596189Y-98447464D01*
X134602611Y-98453603D01*
X134691510Y-98537423D01*
X134703446Y-98546653D01*
X134713885Y-98557541D01*
X134720670Y-98563276D01*
X134766390Y-98601376D01*
X134778306Y-98609476D01*
X134793022Y-98623025D01*
X134808388Y-98632418D01*
X134822306Y-98643850D01*
X134853416Y-98660531D01*
X134869088Y-98671184D01*
X134877990Y-98674964D01*
X134898973Y-98687790D01*
X134915872Y-98694020D01*
X134931745Y-98702531D01*
X134971650Y-98714731D01*
X134983390Y-98719716D01*
X134988435Y-98720770D01*
X135015486Y-98730743D01*
X135033275Y-98733572D01*
X135050496Y-98738837D01*
X135094474Y-98743304D01*
X135101881Y-98744482D01*
X135104941Y-98745122D01*
X135105971Y-98745133D01*
X135138123Y-98750246D01*
X135156114Y-98749566D01*
X135174039Y-98751387D01*
X135218062Y-98747225D01*
X135262213Y-98745557D01*
X135279731Y-98741396D01*
X135297666Y-98739700D01*
X135340029Y-98727071D01*
X135383029Y-98716856D01*
X135399409Y-98709369D01*
X135416668Y-98704224D01*
X135455760Y-98683613D01*
X135495968Y-98665235D01*
X135503618Y-98660717D01*
X135541718Y-98637857D01*
X135545346Y-98635166D01*
X135549401Y-98633173D01*
X135556921Y-98628442D01*
X135648361Y-98570022D01*
X135648648Y-98569796D01*
X135648976Y-98569629D01*
X135656424Y-98564785D01*
X135791044Y-98475885D01*
X135791372Y-98475619D01*
X135791740Y-98475424D01*
X135799113Y-98470467D01*
X135952679Y-98365652D01*
X135989274Y-98341973D01*
X135993740Y-98338420D01*
X135998763Y-98335712D01*
X136006100Y-98330702D01*
X136169164Y-98217669D01*
X136215189Y-98236527D01*
X136215286Y-98236556D01*
X136221735Y-98239167D01*
X136287220Y-98265153D01*
X136314232Y-98409861D01*
X136317769Y-98432849D01*
X136319618Y-98440079D01*
X136320202Y-98447522D01*
X136321819Y-98456258D01*
X136359919Y-98654378D01*
X136360661Y-98656886D01*
X136360924Y-98659493D01*
X136362734Y-98668191D01*
X136398152Y-98832630D01*
X136423360Y-98951112D01*
X136426411Y-98960723D01*
X136427852Y-98970697D01*
X136430034Y-98979308D01*
X136445274Y-99037728D01*
X136459053Y-99075137D01*
X136470173Y-99113410D01*
X136480463Y-99133262D01*
X136488195Y-99154253D01*
X136508977Y-99188272D01*
X136522795Y-99214930D01*
X136523135Y-99215618D01*
X136523188Y-99215687D01*
X136527319Y-99223657D01*
X136541272Y-99241136D01*
X136552932Y-99260222D01*
X136579240Y-99288811D01*
X136598681Y-99314173D01*
X136601686Y-99316816D01*
X136604791Y-99320705D01*
X136611029Y-99327031D01*
X136613569Y-99329571D01*
X136626592Y-99340268D01*
X136637018Y-99351598D01*
X136662086Y-99369932D01*
X136691931Y-99396177D01*
X136701222Y-99401569D01*
X136709526Y-99408390D01*
X136728812Y-99418731D01*
X136737251Y-99424903D01*
X136758422Y-99434766D01*
X136799332Y-99458508D01*
X136809496Y-99461994D01*
X136818965Y-99467071D01*
X136844578Y-99474902D01*
X136849814Y-99477341D01*
X136863675Y-99480740D01*
X136868146Y-99482107D01*
X136916795Y-99498791D01*
X136925454Y-99500779D01*
X136971173Y-99510938D01*
X137013286Y-99516056D01*
X137055011Y-99523778D01*
X137063868Y-99524473D01*
X137170548Y-99532093D01*
X137178215Y-99531890D01*
X137185806Y-99532999D01*
X137194683Y-99533357D01*
X137347083Y-99538437D01*
X137348638Y-99538337D01*
X137350177Y-99538532D01*
X137359060Y-99538723D01*
X137534319Y-99541263D01*
X137534333Y-99541262D01*
X137534579Y-99541267D01*
X137714919Y-99543807D01*
X137719638Y-99543411D01*
X137724352Y-99543870D01*
X137733236Y-99543801D01*
X137905956Y-99541261D01*
X137906057Y-99541250D01*
X137907960Y-99541229D01*
X138050200Y-99538689D01*
X138065754Y-99536883D01*
X138081401Y-99537365D01*
X138090261Y-99536709D01*
X138184240Y-99529089D01*
X138216356Y-99523290D01*
X138248879Y-99520496D01*
X138257603Y-99518814D01*
X138283003Y-99513734D01*
X138303081Y-99507630D01*
X138306442Y-99507023D01*
X138311126Y-99505184D01*
X138316834Y-99503449D01*
X138351412Y-99496051D01*
X138376105Y-99485429D01*
X138401811Y-99477614D01*
X138432988Y-99460961D01*
X138465484Y-99446982D01*
X138487646Y-99431764D01*
X138511343Y-99419106D01*
X138538700Y-99396707D01*
X138567852Y-99376689D01*
X138586629Y-99357464D01*
X138607423Y-99340438D01*
X138629913Y-99313146D01*
X138654617Y-99287852D01*
X138669300Y-99265348D01*
X138686394Y-99244605D01*
X138703155Y-99213464D01*
X138722475Y-99183854D01*
X138732509Y-99158925D01*
X138745246Y-99135259D01*
X138755638Y-99101457D01*
X138768840Y-99068657D01*
X138771278Y-99060114D01*
X138783978Y-99014394D01*
X138786763Y-98998474D01*
X138791814Y-98983131D01*
X138793695Y-98974448D01*
X138816555Y-98865228D01*
X138816596Y-98864856D01*
X138816708Y-98864496D01*
X138818457Y-98855785D01*
X138848937Y-98698305D01*
X138848952Y-98698147D01*
X138849726Y-98694154D01*
X138885286Y-98503653D01*
X138885436Y-98501925D01*
X138885911Y-98500255D01*
X138887433Y-98491502D01*
X138891090Y-98469560D01*
X138927233Y-98284029D01*
X138930970Y-98265345D01*
X139048086Y-98218902D01*
X139048172Y-98218858D01*
X139049845Y-98218202D01*
X139051045Y-98217722D01*
X139209227Y-98325687D01*
X139210675Y-98326480D01*
X139215899Y-98330910D01*
X139223239Y-98335916D01*
X139383380Y-98443510D01*
X139518160Y-98535860D01*
X139521064Y-98537458D01*
X139523625Y-98539563D01*
X139531040Y-98544457D01*
X139632640Y-98610497D01*
X139643296Y-98616026D01*
X139652948Y-98623160D01*
X139660606Y-98627665D01*
X139668599Y-98632293D01*
X139671862Y-98634992D01*
X139693038Y-98646442D01*
X139708865Y-98655605D01*
X139715936Y-98658823D01*
X139717915Y-98659893D01*
X139763171Y-98686193D01*
X139772458Y-98689384D01*
X139781095Y-98694054D01*
X139819446Y-98705926D01*
X139821891Y-98707038D01*
X139826716Y-98708176D01*
X139831091Y-98709530D01*
X139880611Y-98726545D01*
X139890344Y-98727872D01*
X139899720Y-98730774D01*
X139940895Y-98735102D01*
X139942754Y-98735540D01*
X139946276Y-98735667D01*
X139951781Y-98736246D01*
X140003652Y-98743316D01*
X140013451Y-98742727D01*
X140023218Y-98743754D01*
X140064973Y-98739954D01*
X140066851Y-98740022D01*
X140070274Y-98739472D01*
X140075357Y-98739009D01*
X140127606Y-98735871D01*
X140137105Y-98733390D01*
X140146885Y-98732500D01*
X140186878Y-98720729D01*
X140189456Y-98720315D01*
X140193975Y-98718641D01*
X140197103Y-98717720D01*
X140247754Y-98704491D01*
X140256068Y-98701360D01*
X140289088Y-98688660D01*
X140313129Y-98676601D01*
X140338354Y-98667283D01*
X140368497Y-98648829D01*
X140400085Y-98632985D01*
X140421324Y-98616488D01*
X140444261Y-98602446D01*
X140451312Y-98597041D01*
X140519892Y-98543701D01*
X140536859Y-98527614D01*
X140555658Y-98513714D01*
X140562211Y-98507715D01*
X140668891Y-98408654D01*
X140672024Y-98405116D01*
X140675740Y-98402199D01*
X140682117Y-98396014D01*
X140832456Y-98248140D01*
X140873478Y-98209397D01*
X140878430Y-98203708D01*
X140884276Y-98198954D01*
X140890546Y-98192659D01*
X141030246Y-98050419D01*
X141030289Y-98050366D01*
X141035679Y-98044819D01*
X141152519Y-97922899D01*
X141154398Y-97920510D01*
X141156685Y-97918510D01*
X141162726Y-97911995D01*
X141244006Y-97823095D01*
X141261507Y-97799732D01*
X141281333Y-97778310D01*
X141286653Y-97771195D01*
X141322213Y-97722935D01*
X141327870Y-97713440D01*
X141334975Y-97704972D01*
X141347552Y-97682094D01*
X141351915Y-97676346D01*
X141360703Y-97658328D01*
X141385768Y-97616254D01*
X141389474Y-97605838D01*
X141394798Y-97596153D01*
X141401817Y-97574026D01*
X141406349Y-97564734D01*
X141412843Y-97540152D01*
X141427392Y-97499259D01*
X141429004Y-97488324D01*
X141432346Y-97477788D01*
X141434580Y-97457876D01*
X141438067Y-97444675D01*
X141440024Y-97413554D01*
X141445499Y-97376409D01*
X141444956Y-97365368D01*
X141446188Y-97354384D01*
X141446250Y-97345500D01*
X141446250Y-97342960D01*
X141445162Y-97331861D01*
X141445861Y-97320742D01*
X141440952Y-97283953D01*
X141439399Y-97252380D01*
X141436054Y-97238981D01*
X141434132Y-97219375D01*
X141430910Y-97208705D01*
X141429436Y-97197655D01*
X141415578Y-97156949D01*
X141409325Y-97131899D01*
X141404858Y-97122413D01*
X141398241Y-97100496D01*
X141393008Y-97090655D01*
X141389416Y-97080103D01*
X141385689Y-97072038D01*
X141365369Y-97028858D01*
X141350615Y-97004109D01*
X141338536Y-96977950D01*
X141333989Y-96970318D01*
X141275569Y-96873798D01*
X141270715Y-96867306D01*
X141267029Y-96860084D01*
X141262185Y-96852636D01*
X141173285Y-96718016D01*
X141173019Y-96717688D01*
X141172824Y-96717320D01*
X141167867Y-96709947D01*
X141058647Y-96549927D01*
X141058506Y-96549758D01*
X141054795Y-96542811D01*
X141049813Y-96535455D01*
X140939121Y-96374448D01*
X140936038Y-96369909D01*
X140975182Y-96279094D01*
X140975229Y-96278948D01*
X140977289Y-96274149D01*
X140996089Y-96229499D01*
X141178194Y-96195506D01*
X141184673Y-96193627D01*
X141188354Y-96192966D01*
X141378854Y-96157406D01*
X141380384Y-96156962D01*
X141381972Y-96156816D01*
X141390685Y-96155082D01*
X141550496Y-96122105D01*
X141661386Y-96099423D01*
X141670308Y-96096668D01*
X141679564Y-96095427D01*
X141688198Y-96093333D01*
X141738998Y-96080633D01*
X141786848Y-96063560D01*
X141835252Y-96048213D01*
X141845231Y-96042729D01*
X141855954Y-96038903D01*
X141899547Y-96012879D01*
X141944079Y-95988406D01*
X141952808Y-95981083D01*
X141962578Y-95975251D01*
X142000278Y-95941262D01*
X142039215Y-95908599D01*
X142046355Y-95899721D01*
X142054807Y-95892101D01*
X142085202Y-95851418D01*
X142117039Y-95811832D01*
X142122314Y-95801745D01*
X142129131Y-95792621D01*
X142151054Y-95746790D01*
X142174586Y-95701793D01*
X142177802Y-95690873D01*
X142182716Y-95680599D01*
X142195318Y-95631389D01*
X142209663Y-95582672D01*
X142211268Y-95573934D01*
X142218888Y-95530755D01*
X142221682Y-95494514D01*
X142227408Y-95458614D01*
X142227883Y-95449742D01*
X142232963Y-95340522D01*
X142232679Y-95334980D01*
X142233380Y-95329481D01*
X142233577Y-95320599D01*
X142236117Y-95152960D01*
X142236108Y-95152856D01*
X142236144Y-95150985D01*
X142238684Y-94940166D01*
X142238677Y-94940085D01*
X142238730Y-94932500D01*
X142238730Y-94688660D01*
X142238646Y-94687802D01*
X142238728Y-94686941D01*
X142238642Y-94678057D01*
X142236102Y-94525657D01*
X142236086Y-94525519D01*
X142235970Y-94519521D01*
X142233430Y-94423002D01*
X142229427Y-94390896D01*
X142228450Y-94358562D01*
X142227255Y-94349758D01*
X142219635Y-94296418D01*
X142217425Y-94287374D01*
X142216743Y-94278086D01*
X142202700Y-94227108D01*
X142190161Y-94175789D01*
X142186239Y-94167351D01*
X142183764Y-94158367D01*
X142180522Y-94150096D01*
X142170362Y-94124695D01*
X142163101Y-94110688D01*
X142157953Y-94095768D01*
X142134571Y-94055653D01*
X142113212Y-94014450D01*
X142103368Y-94002119D01*
X142095420Y-93988483D01*
X142064701Y-93953683D01*
X142035738Y-93917403D01*
X142023684Y-93907217D01*
X142013241Y-93895387D01*
X141976344Y-93867214D01*
X141940889Y-93837254D01*
X141929770Y-93831091D01*
X141927378Y-93829076D01*
X141923830Y-93827117D01*
X141914545Y-93820027D01*
X141906959Y-93815403D01*
X141894258Y-93807783D01*
X141855866Y-93789583D01*
X141818675Y-93769044D01*
X141799878Y-93763041D01*
X141782050Y-93754590D01*
X141740859Y-93744195D01*
X141700382Y-93731269D01*
X141691683Y-93729466D01*
X141526583Y-93696446D01*
X141526437Y-93696431D01*
X141520854Y-93695327D01*
X141360834Y-93664847D01*
X141360695Y-93664834D01*
X141357958Y-93664306D01*
X141180158Y-93631287D01*
X141180023Y-93631275D01*
X141177034Y-93630714D01*
X141031547Y-93604446D01*
X140988639Y-93498304D01*
X140958728Y-93424008D01*
X141049907Y-93291309D01*
X141049959Y-93291215D01*
X141051027Y-93289673D01*
X141160247Y-93129653D01*
X141161762Y-93126888D01*
X141163764Y-93124446D01*
X141168648Y-93117024D01*
X141256368Y-92981685D01*
X141318671Y-92886985D01*
X141337266Y-92851628D01*
X141358282Y-92817661D01*
X141362141Y-92809658D01*
X141385001Y-92761399D01*
X141389208Y-92749680D01*
X141395192Y-92738754D01*
X141410160Y-92691310D01*
X141426955Y-92644523D01*
X141428805Y-92632214D01*
X141432554Y-92620330D01*
X141438022Y-92570876D01*
X141445409Y-92521723D01*
X141444833Y-92509288D01*
X141446202Y-92496904D01*
X141441961Y-92447333D01*
X141439659Y-92397679D01*
X141436678Y-92385591D01*
X141435616Y-92373178D01*
X141421833Y-92325395D01*
X141409926Y-92277112D01*
X141404651Y-92265827D01*
X141401200Y-92253864D01*
X141378404Y-92209679D01*
X141357340Y-92164618D01*
X141349974Y-92154573D01*
X141344265Y-92143508D01*
X141339389Y-92136081D01*
X141313989Y-92097981D01*
X141286945Y-92064928D01*
X141261968Y-92030277D01*
X141256048Y-92023653D01*
X141182388Y-91942372D01*
X141179322Y-91939590D01*
X141176812Y-91936299D01*
X141170716Y-91929836D01*
X141058955Y-91812996D01*
X141058927Y-91812972D01*
X141053179Y-91807036D01*
X140916019Y-91667336D01*
X140915912Y-91667246D01*
X140911911Y-91663189D01*
X140886511Y-91637789D01*
X140886387Y-91637687D01*
X140883010Y-91634315D01*
X140717910Y-91471755D01*
X140717784Y-91471653D01*
X140717682Y-91471531D01*
X140711305Y-91465345D01*
X140594464Y-91353585D01*
X140576778Y-91339704D01*
X140560957Y-91323725D01*
X140554080Y-91318099D01*
X140475340Y-91254599D01*
X140447114Y-91236069D01*
X140420644Y-91215085D01*
X140413143Y-91210324D01*
X140372502Y-91184924D01*
X140328744Y-91163197D01*
X140285933Y-91139662D01*
X140273224Y-91135630D01*
X140261280Y-91129700D01*
X140214133Y-91116886D01*
X140202851Y-91113306D01*
X140198032Y-91111444D01*
X140195683Y-91111033D01*
X140167568Y-91102114D01*
X140154318Y-91100628D01*
X140141449Y-91097130D01*
X140099510Y-91094193D01*
X140075715Y-91090027D01*
X140062433Y-91090321D01*
X140044164Y-91088272D01*
X140035280Y-91088210D01*
X140027660Y-91088210D01*
X140021995Y-91088765D01*
X140017575Y-91088456D01*
X139991212Y-91091784D01*
X139989698Y-91091932D01*
X139951566Y-91092777D01*
X139928047Y-91097977D01*
X139904075Y-91100328D01*
X139867564Y-91111351D01*
X139830317Y-91119587D01*
X139808255Y-91129257D01*
X139785196Y-91136219D01*
X139751516Y-91154127D01*
X139716585Y-91169438D01*
X139708865Y-91173835D01*
X139660606Y-91201775D01*
X139657260Y-91204177D01*
X139653531Y-91205932D01*
X139645932Y-91210535D01*
X139546873Y-91271495D01*
X139542290Y-91274975D01*
X139537164Y-91277591D01*
X139529716Y-91282435D01*
X139395096Y-91371335D01*
X139393568Y-91372574D01*
X139391837Y-91373502D01*
X139384488Y-91378495D01*
X139238347Y-91479282D01*
X139146954Y-91541734D01*
X139141474Y-91539052D01*
X139119399Y-91530809D01*
X139098477Y-91519947D01*
X139090207Y-91516700D01*
X139024168Y-91491300D01*
X138985098Y-91480511D01*
X138946859Y-91467092D01*
X138925383Y-91464021D01*
X138904470Y-91458246D01*
X138864054Y-91455251D01*
X138823931Y-91449514D01*
X138802266Y-91450673D01*
X138780631Y-91449070D01*
X138740403Y-91453983D01*
X138699931Y-91456148D01*
X138691157Y-91457547D01*
X138660678Y-91462627D01*
X138654558Y-91464274D01*
X138648237Y-91464827D01*
X138594622Y-91480404D01*
X138540767Y-91494898D01*
X138535082Y-91497703D01*
X138528990Y-91499473D01*
X138479441Y-91525156D01*
X138448784Y-91540282D01*
X138440777Y-91543982D01*
X138439700Y-91544764D01*
X138429405Y-91549844D01*
X138424372Y-91553701D01*
X138418742Y-91556619D01*
X138375126Y-91591437D01*
X138369058Y-91596087D01*
X138340313Y-91616971D01*
X138336667Y-91620908D01*
X138330839Y-91625374D01*
X138326651Y-91630135D01*
X138321695Y-91634091D01*
X138315369Y-91640329D01*
X138312829Y-91642869D01*
X138285352Y-91676321D01*
X138255939Y-91708082D01*
X138250957Y-91716179D01*
X138248819Y-91718610D01*
X138244489Y-91726069D01*
X138234010Y-91738826D01*
X138213558Y-91776969D01*
X138190870Y-91813846D01*
X138187031Y-91821858D01*
X138166711Y-91865038D01*
X138165658Y-91867995D01*
X138164080Y-91870702D01*
X138160432Y-91878803D01*
X138112172Y-91988023D01*
X138112139Y-91988123D01*
X138109336Y-91994541D01*
X138040756Y-92154561D01*
X138040726Y-92154656D01*
X138040001Y-92156329D01*
X137953641Y-92359529D01*
X137953600Y-92359659D01*
X137952455Y-92362337D01*
X137853395Y-92598557D01*
X137853357Y-92598680D01*
X137850915Y-92604557D01*
X137795900Y-92739594D01*
X137609165Y-93188553D01*
X137570220Y-93094332D01*
X137570172Y-93094241D01*
X137569526Y-93092661D01*
X137481451Y-92881281D01*
X137390758Y-92659587D01*
X137390158Y-92658451D01*
X137389786Y-92657226D01*
X137386332Y-92649041D01*
X137292936Y-92431958D01*
X137207099Y-92229989D01*
X137207091Y-92229975D01*
X137203655Y-92222036D01*
X137129421Y-92053771D01*
X137075424Y-91926144D01*
X137067892Y-91912291D01*
X137062455Y-91897485D01*
X137058537Y-91889511D01*
X137012817Y-91798071D01*
X136992874Y-91766359D01*
X136975458Y-91733201D01*
X136959900Y-91713927D01*
X136946710Y-91692953D01*
X136920986Y-91665717D01*
X136897462Y-91636574D01*
X136878456Y-91620688D01*
X136861443Y-91602675D01*
X136830924Y-91580958D01*
X136802184Y-91556936D01*
X136780451Y-91545042D01*
X136760267Y-91530680D01*
X136726109Y-91515304D01*
X136693251Y-91497322D01*
X136669626Y-91489878D01*
X136647032Y-91479707D01*
X136610528Y-91471256D01*
X136574813Y-91460002D01*
X136550198Y-91457289D01*
X136526054Y-91451699D01*
X136488608Y-91450499D01*
X136451383Y-91446396D01*
X136426701Y-91448516D01*
X136401940Y-91447723D01*
X136364984Y-91453818D01*
X136327661Y-91457024D01*
X136318937Y-91458706D01*
X136268137Y-91468866D01*
X136266846Y-91469259D01*
X136265499Y-91469399D01*
X136207308Y-91487359D01*
X136149329Y-91504986D01*
X136148141Y-91505621D01*
X136146844Y-91506021D01*
X136138676Y-91509514D01*
X136069709Y-91539576D01*
X135970670Y-91470888D01*
X135968396Y-91469620D01*
X135966397Y-91467950D01*
X135959021Y-91462998D01*
X135801541Y-91358858D01*
X135801520Y-91358847D01*
X135801204Y-91358635D01*
X135666584Y-91269735D01*
X135662768Y-91267720D01*
X135659381Y-91265048D01*
X135651869Y-91260305D01*
X135557889Y-91201885D01*
X135535446Y-91190810D01*
X135514447Y-91177191D01*
X135506529Y-91173163D01*
X135465889Y-91152843D01*
X135447941Y-91145966D01*
X135431074Y-91136728D01*
X135390055Y-91123787D01*
X135349931Y-91108413D01*
X135330996Y-91105154D01*
X135312650Y-91099366D01*
X135269904Y-91094639D01*
X135227552Y-91087350D01*
X135208337Y-91087831D01*
X135189224Y-91085718D01*
X135146383Y-91089383D01*
X135103413Y-91090460D01*
X135084654Y-91094665D01*
X135065498Y-91096304D01*
X135024197Y-91108217D01*
X134982242Y-91117622D01*
X134964652Y-91125393D01*
X134946184Y-91130720D01*
X134907986Y-91150427D01*
X134868655Y-91167803D01*
X134852910Y-91178842D01*
X134835828Y-91187655D01*
X134828401Y-91192531D01*
X134790301Y-91217931D01*
X134757248Y-91244975D01*
X134722597Y-91269952D01*
X134715973Y-91275872D01*
X134634692Y-91349532D01*
X134634594Y-91349640D01*
X134632469Y-91351557D01*
X134513089Y-91460777D01*
X134510541Y-91463612D01*
X134507517Y-91465936D01*
X134501077Y-91472056D01*
X134367090Y-91601171D01*
X134342457Y-91623751D01*
X134336173Y-91630757D01*
X134328815Y-91636631D01*
X134322489Y-91642869D01*
X134147229Y-91818129D01*
X134147149Y-91818227D01*
X134142518Y-91822890D01*
X134023138Y-91944810D01*
X134005944Y-91966197D01*
X133986515Y-91985586D01*
X133980917Y-91992485D01*
X133919957Y-92068685D01*
X133907701Y-92087514D01*
X133893188Y-92104676D01*
X133873898Y-92139447D01*
X133852216Y-92172759D01*
X133843850Y-92193613D01*
X133832948Y-92213264D01*
X133829474Y-92221441D01*
X133816774Y-92251921D01*
X133804614Y-92291645D01*
X133789898Y-92330519D01*
X133786474Y-92350907D01*
X133780427Y-92370660D01*
X133776214Y-92411991D01*
X133769329Y-92452982D01*
X133769930Y-92473639D01*
X133767834Y-92494199D01*
X133771731Y-92535577D01*
X133772939Y-92577108D01*
X133777540Y-92597253D01*
X133779478Y-92617829D01*
X133791337Y-92657663D01*
X133800589Y-92698169D01*
X133809013Y-92717032D01*
X133814912Y-92736845D01*
X133834284Y-92773617D01*
X133851226Y-92811553D01*
X133855677Y-92819242D01*
X133881077Y-92862422D01*
X133887881Y-92871764D01*
X133893118Y-92882069D01*
X133897949Y-92889524D01*
X133961449Y-92986044D01*
X133961488Y-92986093D01*
X133962055Y-92986964D01*
X134050955Y-93121584D01*
X134052725Y-93123767D01*
X134054056Y-93126234D01*
X134059068Y-93133570D01*
X134166278Y-93288152D01*
X134261204Y-93428280D01*
X134206873Y-93556500D01*
X134206826Y-93556651D01*
X134204796Y-93561461D01*
X134187686Y-93602811D01*
X134185875Y-93602961D01*
X134177146Y-93604615D01*
X134023551Y-93634830D01*
X133839760Y-93670078D01*
X133839633Y-93670116D01*
X133836786Y-93670655D01*
X133681846Y-93701135D01*
X133681763Y-93701160D01*
X133674312Y-93702665D01*
X133565092Y-93725525D01*
X133545094Y-93731800D01*
X133524447Y-93735437D01*
X133515906Y-93737884D01*
X133472726Y-93750585D01*
X133437852Y-93764668D01*
X133401990Y-93776018D01*
X133393846Y-93779569D01*
X133348126Y-93799889D01*
X133300957Y-93826644D01*
X133253158Y-93852207D01*
X133247019Y-93857238D01*
X133240114Y-93861155D01*
X133199050Y-93896553D01*
X133157116Y-93930922D01*
X133152070Y-93937051D01*
X133146058Y-93942234D01*
X133112652Y-93984935D01*
X133078193Y-94026793D01*
X133074434Y-94033785D01*
X133069543Y-94040037D01*
X133045065Y-94088416D01*
X133019394Y-94136169D01*
X133017065Y-94143757D01*
X133013481Y-94150841D01*
X132998864Y-94203058D01*
X132982959Y-94254881D01*
X132982149Y-94262775D01*
X132980008Y-94270422D01*
X132975812Y-94324497D01*
X132970277Y-94378410D01*
X129996000Y-94378410D01*
X129996000Y-77493526D01*
X135996639Y-77493526D01*
X136033280Y-77693165D01*
X136108000Y-77881886D01*
X136217953Y-78052499D01*
X136338500Y-78177329D01*
X136338500Y-87598466D01*
X136312134Y-87636972D01*
X136232174Y-87823533D01*
X136189973Y-88022071D01*
X136187139Y-88225026D01*
X136223780Y-88424665D01*
X136298500Y-88613386D01*
X136408453Y-88783999D01*
X136549450Y-88930006D01*
X136716122Y-89045846D01*
X136902120Y-89127106D01*
X137100359Y-89170692D01*
X137303288Y-89174943D01*
X137503179Y-89139697D01*
X137692416Y-89066296D01*
X137863793Y-88957537D01*
X137953782Y-88871842D01*
X138009950Y-88930006D01*
X138176622Y-89045846D01*
X138362620Y-89127106D01*
X138560859Y-89170692D01*
X138763788Y-89174943D01*
X138963679Y-89139697D01*
X139152916Y-89066296D01*
X139324293Y-88957537D01*
X139471281Y-88817563D01*
X139588282Y-88651703D01*
X139670839Y-88466278D01*
X139715807Y-88268348D01*
X139719044Y-88036513D01*
X139679620Y-87837405D01*
X139602273Y-87649746D01*
X139569000Y-87599666D01*
X139569000Y-78011037D01*
X139588282Y-77983703D01*
X139670839Y-77798278D01*
X139715807Y-77600348D01*
X139719044Y-77368513D01*
X139679620Y-77169405D01*
X139602273Y-76981746D01*
X139489948Y-76812684D01*
X139346926Y-76668660D01*
X139178653Y-76555158D01*
X138991539Y-76476503D01*
X138792710Y-76435689D01*
X138589741Y-76434272D01*
X138390363Y-76472306D01*
X138202168Y-76548341D01*
X138032327Y-76659482D01*
X137887308Y-76801496D01*
X137880404Y-76811579D01*
X137838948Y-76749184D01*
X137695926Y-76605160D01*
X137527653Y-76491658D01*
X137340539Y-76413003D01*
X137141710Y-76372189D01*
X136938741Y-76370772D01*
X136739363Y-76408806D01*
X136551168Y-76484841D01*
X136381327Y-76595982D01*
X136236308Y-76737996D01*
X136121634Y-76905472D01*
X136041674Y-77092033D01*
X135999473Y-77290571D01*
X135996639Y-77493526D01*
X129996000Y-77493526D01*
X129996000Y-70171186D01*
X130072049Y-70423075D01*
X130208112Y-70678971D01*
X130391287Y-70903567D01*
X130614599Y-71088306D01*
X130869539Y-71226152D01*
X131146399Y-71311854D01*
X131434633Y-71342149D01*
X131723261Y-71315882D01*
X132001291Y-71234053D01*
X132258131Y-71099780D01*
X132484000Y-70918177D01*
X132670294Y-70696161D01*
X132714498Y-70615753D01*
X132748112Y-70678971D01*
X132931287Y-70903567D01*
X133154599Y-71088306D01*
X133180690Y-71102413D01*
X133205135Y-71148388D01*
X133242776Y-71221006D01*
X133245682Y-71224646D01*
X133247865Y-71228752D01*
X133299507Y-71292071D01*
X133350534Y-71355991D01*
X133356927Y-71362474D01*
X133357030Y-71362601D01*
X133357147Y-71362698D01*
X133359210Y-71364790D01*
X134248211Y-72253790D01*
X134311402Y-72305696D01*
X134374004Y-72358225D01*
X134378081Y-72360466D01*
X134381678Y-72363421D01*
X134453708Y-72402043D01*
X134525361Y-72441435D01*
X134529800Y-72442843D01*
X134533899Y-72445041D01*
X134612026Y-72468927D01*
X134689998Y-72493661D01*
X134694626Y-72494180D01*
X134699074Y-72495540D01*
X134780339Y-72503794D01*
X134861643Y-72512914D01*
X134870747Y-72512977D01*
X134870911Y-72512994D01*
X134871064Y-72512980D01*
X134874000Y-72513000D01*
X142254420Y-72513000D01*
X142371000Y-72629579D01*
X142371000Y-75057000D01*
X142378977Y-75138356D01*
X142386102Y-75219796D01*
X142387401Y-75224267D01*
X142387855Y-75228897D01*
X142411475Y-75307131D01*
X142434290Y-75385660D01*
X142436432Y-75389793D01*
X142437777Y-75394247D01*
X142476135Y-75466388D01*
X142513776Y-75539006D01*
X142516682Y-75542646D01*
X142518865Y-75546752D01*
X142570507Y-75610071D01*
X142621534Y-75673991D01*
X142627927Y-75680474D01*
X142628030Y-75680601D01*
X142628147Y-75680698D01*
X142630210Y-75682790D01*
X143519211Y-76571790D01*
X143582402Y-76623696D01*
X143645004Y-76676225D01*
X143649081Y-76678466D01*
X143652678Y-76681421D01*
X143724708Y-76720043D01*
X143796361Y-76759435D01*
X143800800Y-76760843D01*
X143804899Y-76763041D01*
X143883026Y-76786927D01*
X143927325Y-76800979D01*
X143934992Y-76897121D01*
X143988106Y-77068634D01*
X144086900Y-77218559D01*
X144223550Y-77335025D01*
X144387237Y-77408810D01*
X144565000Y-77434072D01*
X146265000Y-77434072D01*
X146366121Y-77426008D01*
X146537634Y-77372894D01*
X146687559Y-77274100D01*
X146804025Y-77137450D01*
X146877810Y-76973763D01*
X146878171Y-76971224D01*
X146901287Y-76999567D01*
X147124599Y-77184306D01*
X147379539Y-77322152D01*
X147656399Y-77407854D01*
X147944633Y-77438149D01*
X148233261Y-77411882D01*
X148511291Y-77330053D01*
X148768131Y-77195780D01*
X148994000Y-77014177D01*
X149180294Y-76792161D01*
X149224498Y-76711753D01*
X149258112Y-76774971D01*
X149441287Y-76999567D01*
X149664599Y-77184306D01*
X149919539Y-77322152D01*
X150196399Y-77407854D01*
X150484633Y-77438149D01*
X150773261Y-77411882D01*
X151051291Y-77330053D01*
X151308131Y-77195780D01*
X151419587Y-77106167D01*
X151515000Y-77201579D01*
X151515000Y-82183421D01*
X150636420Y-83062000D01*
X146558000Y-83062000D01*
X146476644Y-83069977D01*
X146395204Y-83077102D01*
X146390733Y-83078401D01*
X146386103Y-83078855D01*
X146307869Y-83102475D01*
X146229340Y-83125290D01*
X146225207Y-83127432D01*
X146220753Y-83128777D01*
X146148612Y-83167135D01*
X146075994Y-83204776D01*
X146072354Y-83207682D01*
X146068248Y-83209865D01*
X146004929Y-83261507D01*
X145941009Y-83312534D01*
X145934530Y-83318923D01*
X145934399Y-83319030D01*
X145934299Y-83319151D01*
X145932211Y-83321210D01*
X144916210Y-84337210D01*
X144864284Y-84400426D01*
X144811775Y-84463004D01*
X144809534Y-84467081D01*
X144806579Y-84470678D01*
X144767957Y-84542708D01*
X144728565Y-84614361D01*
X144727157Y-84618800D01*
X144724959Y-84622899D01*
X144701073Y-84701026D01*
X144676339Y-84778998D01*
X144675820Y-84783626D01*
X144674460Y-84788074D01*
X144666206Y-84869339D01*
X144657086Y-84950643D01*
X144657023Y-84959747D01*
X144657006Y-84959911D01*
X144657020Y-84960064D01*
X144657000Y-84963000D01*
X144657000Y-89789000D01*
X144664977Y-89870356D01*
X144672102Y-89951796D01*
X144673401Y-89956267D01*
X144673855Y-89960897D01*
X144697475Y-90039131D01*
X144720290Y-90117660D01*
X144722432Y-90121793D01*
X144723777Y-90126247D01*
X144762135Y-90198388D01*
X144799776Y-90271006D01*
X144802682Y-90274646D01*
X144804865Y-90278752D01*
X144856507Y-90342071D01*
X144907534Y-90405991D01*
X144913927Y-90412474D01*
X144914030Y-90412601D01*
X144914147Y-90412698D01*
X144916210Y-90414790D01*
X147202210Y-92700789D01*
X147265397Y-92752691D01*
X147328004Y-92805225D01*
X147332081Y-92807466D01*
X147335678Y-92810421D01*
X147407727Y-92849053D01*
X147479361Y-92888435D01*
X147483798Y-92889842D01*
X147487898Y-92892041D01*
X147566040Y-92915931D01*
X147643998Y-92940661D01*
X147648626Y-92941180D01*
X147653074Y-92942540D01*
X147734339Y-92950794D01*
X147815643Y-92959914D01*
X147824747Y-92959977D01*
X147824911Y-92959994D01*
X147825064Y-92959980D01*
X147828000Y-92960000D01*
X157875420Y-92960000D01*
X158886210Y-93970789D01*
X158949397Y-94022691D01*
X159012004Y-94075225D01*
X159016081Y-94077466D01*
X159019678Y-94080421D01*
X159091727Y-94119053D01*
X159163361Y-94158435D01*
X159167798Y-94159842D01*
X159171898Y-94162041D01*
X159250040Y-94185931D01*
X159327998Y-94210661D01*
X159332626Y-94211180D01*
X159337074Y-94212540D01*
X159418344Y-94220795D01*
X159499643Y-94229914D01*
X159508746Y-94229977D01*
X159508910Y-94229994D01*
X159509063Y-94229980D01*
X159512000Y-94230000D01*
X160352655Y-94230000D01*
X160426971Y-94322430D01*
X160635830Y-94497684D01*
X160850653Y-94615784D01*
X160652001Y-94721409D01*
X160440715Y-94893730D01*
X160266924Y-95103808D01*
X160137246Y-95343641D01*
X160056622Y-95604094D01*
X160028123Y-95875247D01*
X160052834Y-96146772D01*
X160129813Y-96408325D01*
X160256129Y-96649946D01*
X160426971Y-96862430D01*
X160635830Y-97037684D01*
X160850653Y-97155784D01*
X160652001Y-97261409D01*
X160440715Y-97433730D01*
X160266924Y-97643808D01*
X160137246Y-97883641D01*
X160056622Y-98144094D01*
X160028123Y-98415247D01*
X160052834Y-98686772D01*
X160129813Y-98948325D01*
X160256129Y-99189946D01*
X160426971Y-99402430D01*
X160635830Y-99577684D01*
X160850653Y-99695784D01*
X160652001Y-99801409D01*
X160440715Y-99973730D01*
X160266924Y-100183808D01*
X160137246Y-100423641D01*
X160056622Y-100684094D01*
X160028123Y-100955247D01*
X160052834Y-101226772D01*
X160129813Y-101488325D01*
X160256129Y-101729946D01*
X160426971Y-101942430D01*
X160635830Y-102117684D01*
X160850653Y-102235784D01*
X160652001Y-102341409D01*
X160440715Y-102513730D01*
X160266924Y-102723808D01*
X160137246Y-102963641D01*
X160056622Y-103224094D01*
X160028123Y-103495247D01*
X160052834Y-103766772D01*
X160129813Y-104028325D01*
X160256129Y-104269946D01*
X160426971Y-104482430D01*
X160635830Y-104657684D01*
X160850653Y-104775784D01*
X160652001Y-104881409D01*
X160440715Y-105053730D01*
X160266924Y-105263808D01*
X160137246Y-105503641D01*
X160056622Y-105764094D01*
X160028123Y-106035247D01*
X160052834Y-106306772D01*
X160129813Y-106568325D01*
X160256129Y-106809946D01*
X160426971Y-107022430D01*
X160635830Y-107197684D01*
X160850653Y-107315784D01*
X160652001Y-107421409D01*
X160440715Y-107593730D01*
X160266924Y-107803808D01*
X160137246Y-108043641D01*
X160056622Y-108304094D01*
X160028123Y-108575247D01*
X160052834Y-108846772D01*
X160129813Y-109108325D01*
X160256129Y-109349946D01*
X160426971Y-109562430D01*
X160635830Y-109737684D01*
X160850653Y-109855784D01*
X160652001Y-109961409D01*
X160440715Y-110133730D01*
X160266924Y-110343808D01*
X160137246Y-110583641D01*
X160056622Y-110844094D01*
X160028123Y-111115247D01*
X160052834Y-111386772D01*
X160129813Y-111648325D01*
X160256129Y-111889946D01*
X160426971Y-112102430D01*
X160635830Y-112277684D01*
X160874752Y-112409032D01*
X161134636Y-112491472D01*
X161405584Y-112521864D01*
X161425089Y-112522000D01*
X161916911Y-112522000D01*
X162188256Y-112495394D01*
X162449266Y-112416591D01*
X162689999Y-112288591D01*
X162901285Y-112116270D01*
X162938144Y-112071715D01*
X163102809Y-112229890D01*
X163335083Y-112378426D01*
X163591872Y-112478793D01*
X163863307Y-112527135D01*
X164084000Y-112368282D01*
X164084000Y-111252000D01*
X164338000Y-111252000D01*
X164338000Y-112368282D01*
X164558693Y-112527135D01*
X164830128Y-112478793D01*
X165086917Y-112378426D01*
X165319191Y-112229890D01*
X165518024Y-112038894D01*
X165675775Y-111812778D01*
X165786382Y-111560231D01*
X165803220Y-111468070D01*
X165680720Y-111252000D01*
X164338000Y-111252000D01*
X164084000Y-111252000D01*
X164064000Y-111252000D01*
X164064000Y-110998000D01*
X164084000Y-110998000D01*
X164084000Y-109881718D01*
X164046881Y-109855000D01*
X164084000Y-109828282D01*
X164084000Y-108712000D01*
X164338000Y-108712000D01*
X164338000Y-109828282D01*
X164375119Y-109855000D01*
X164338000Y-109881718D01*
X164338000Y-110998000D01*
X165680720Y-110998000D01*
X165803220Y-110781930D01*
X165786382Y-110689769D01*
X165675775Y-110437222D01*
X165518024Y-110211106D01*
X165319191Y-110020110D01*
X165086917Y-109871574D01*
X165044512Y-109855000D01*
X165086917Y-109838426D01*
X165319191Y-109689890D01*
X165518024Y-109498894D01*
X165675775Y-109272778D01*
X165786382Y-109020231D01*
X165803220Y-108928070D01*
X165680720Y-108712000D01*
X164338000Y-108712000D01*
X164084000Y-108712000D01*
X164064000Y-108712000D01*
X164064000Y-108458000D01*
X164084000Y-108458000D01*
X164084000Y-108438000D01*
X164338000Y-108438000D01*
X164338000Y-108458000D01*
X165680720Y-108458000D01*
X165803220Y-108241930D01*
X165786382Y-108149769D01*
X165675775Y-107897222D01*
X165518024Y-107671106D01*
X165319191Y-107480110D01*
X165086917Y-107331574D01*
X165036075Y-107311702D01*
X165229999Y-107208591D01*
X165441285Y-107036270D01*
X165615076Y-106826192D01*
X165744754Y-106586359D01*
X165825378Y-106325906D01*
X165853877Y-106054753D01*
X165829166Y-105783228D01*
X165752187Y-105521675D01*
X165625871Y-105280054D01*
X165455029Y-105067570D01*
X165246170Y-104892316D01*
X165031347Y-104774216D01*
X165229999Y-104668591D01*
X165441285Y-104496270D01*
X165615076Y-104286192D01*
X165744754Y-104046359D01*
X165825378Y-103785906D01*
X165853877Y-103514753D01*
X165829166Y-103243228D01*
X165752187Y-102981675D01*
X165625871Y-102740054D01*
X165455029Y-102527570D01*
X165246170Y-102352316D01*
X165037651Y-102237682D01*
X165086917Y-102218426D01*
X165319191Y-102069890D01*
X165518024Y-101878894D01*
X165675775Y-101652778D01*
X165786382Y-101400231D01*
X165803220Y-101308070D01*
X165680720Y-101092000D01*
X164338000Y-101092000D01*
X164338000Y-101112000D01*
X164084000Y-101112000D01*
X164084000Y-101092000D01*
X164064000Y-101092000D01*
X164064000Y-100838000D01*
X164084000Y-100838000D01*
X164084000Y-99721718D01*
X164046881Y-99695000D01*
X164084000Y-99668282D01*
X164084000Y-98552000D01*
X164338000Y-98552000D01*
X164338000Y-99668282D01*
X164375119Y-99695000D01*
X164338000Y-99721718D01*
X164338000Y-100838000D01*
X165680720Y-100838000D01*
X165803220Y-100621930D01*
X165786382Y-100529769D01*
X165675775Y-100277222D01*
X165518024Y-100051106D01*
X165319191Y-99860110D01*
X165086917Y-99711574D01*
X165044512Y-99695000D01*
X165086917Y-99678426D01*
X165319191Y-99529890D01*
X165518024Y-99338894D01*
X165675775Y-99112778D01*
X165786382Y-98860231D01*
X165803220Y-98768070D01*
X165680720Y-98552000D01*
X164338000Y-98552000D01*
X164084000Y-98552000D01*
X164064000Y-98552000D01*
X164064000Y-98298000D01*
X164084000Y-98298000D01*
X164084000Y-97181718D01*
X164046881Y-97155000D01*
X164084000Y-97128282D01*
X164084000Y-96012000D01*
X164338000Y-96012000D01*
X164338000Y-97128282D01*
X164375119Y-97155000D01*
X164338000Y-97181718D01*
X164338000Y-98298000D01*
X165680720Y-98298000D01*
X165803220Y-98081930D01*
X165786382Y-97989769D01*
X165675775Y-97737222D01*
X165518024Y-97511106D01*
X165319191Y-97320110D01*
X165086917Y-97171574D01*
X165044512Y-97155000D01*
X165086917Y-97138426D01*
X165319191Y-96989890D01*
X165518024Y-96798894D01*
X165675775Y-96572778D01*
X165786382Y-96320231D01*
X165803220Y-96228070D01*
X165680720Y-96012000D01*
X164338000Y-96012000D01*
X164084000Y-96012000D01*
X164064000Y-96012000D01*
X164064000Y-95758000D01*
X164084000Y-95758000D01*
X164084000Y-94641718D01*
X164046881Y-94615000D01*
X164084000Y-94588282D01*
X164084000Y-93472000D01*
X164338000Y-93472000D01*
X164338000Y-94588282D01*
X164375119Y-94615000D01*
X164338000Y-94641718D01*
X164338000Y-95758000D01*
X165680720Y-95758000D01*
X165803220Y-95541930D01*
X165786382Y-95449769D01*
X165675775Y-95197222D01*
X165518024Y-94971106D01*
X165319191Y-94780110D01*
X165086917Y-94631574D01*
X165044512Y-94615000D01*
X165086917Y-94598426D01*
X165319191Y-94449890D01*
X165518024Y-94258894D01*
X165675775Y-94032778D01*
X165786382Y-93780231D01*
X165803220Y-93688070D01*
X165680720Y-93472000D01*
X164338000Y-93472000D01*
X164084000Y-93472000D01*
X164064000Y-93472000D01*
X164064000Y-93218000D01*
X164084000Y-93218000D01*
X164084000Y-92101718D01*
X164046881Y-92075000D01*
X164084000Y-92048282D01*
X164084000Y-90932000D01*
X164338000Y-90932000D01*
X164338000Y-92048282D01*
X164375119Y-92075000D01*
X164338000Y-92101718D01*
X164338000Y-93218000D01*
X165680720Y-93218000D01*
X165803220Y-93001930D01*
X165786382Y-92909769D01*
X165675775Y-92657222D01*
X165518024Y-92431106D01*
X165319191Y-92240110D01*
X165086917Y-92091574D01*
X165044512Y-92075000D01*
X165086917Y-92058426D01*
X165319191Y-91909890D01*
X165518024Y-91718894D01*
X165675775Y-91492778D01*
X165786382Y-91240231D01*
X165803220Y-91148070D01*
X165680720Y-90932000D01*
X164338000Y-90932000D01*
X164084000Y-90932000D01*
X164064000Y-90932000D01*
X164064000Y-90678000D01*
X164084000Y-90678000D01*
X164084000Y-89561718D01*
X164046881Y-89535000D01*
X164084000Y-89508282D01*
X164084000Y-88392000D01*
X164338000Y-88392000D01*
X164338000Y-89508282D01*
X164375119Y-89535000D01*
X164338000Y-89561718D01*
X164338000Y-90678000D01*
X165680720Y-90678000D01*
X165803220Y-90461930D01*
X165786382Y-90369769D01*
X165675775Y-90117222D01*
X165518024Y-89891106D01*
X165319191Y-89700110D01*
X165086917Y-89551574D01*
X165044512Y-89535000D01*
X165086917Y-89518426D01*
X165319191Y-89369890D01*
X165518024Y-89178894D01*
X165675775Y-88952778D01*
X165786382Y-88700231D01*
X165803220Y-88608070D01*
X165680720Y-88392000D01*
X164338000Y-88392000D01*
X164084000Y-88392000D01*
X164064000Y-88392000D01*
X164064000Y-88138000D01*
X164084000Y-88138000D01*
X164084000Y-87021718D01*
X164046881Y-86995000D01*
X164084000Y-86968282D01*
X164084000Y-85852000D01*
X164338000Y-85852000D01*
X164338000Y-86968282D01*
X164375119Y-86995000D01*
X164338000Y-87021718D01*
X164338000Y-88138000D01*
X165680720Y-88138000D01*
X165803220Y-87921930D01*
X165786382Y-87829769D01*
X165675775Y-87577222D01*
X165518024Y-87351106D01*
X165319191Y-87160110D01*
X165086917Y-87011574D01*
X165044512Y-86995000D01*
X165086917Y-86978426D01*
X165319191Y-86829890D01*
X165518024Y-86638894D01*
X165675775Y-86412778D01*
X165786382Y-86160231D01*
X165803220Y-86068070D01*
X165680720Y-85852000D01*
X164338000Y-85852000D01*
X164084000Y-85852000D01*
X164064000Y-85852000D01*
X164064000Y-85598000D01*
X164084000Y-85598000D01*
X164084000Y-85578000D01*
X164338000Y-85578000D01*
X164338000Y-85598000D01*
X165680720Y-85598000D01*
X165803220Y-85381930D01*
X165786382Y-85289769D01*
X165675775Y-85037222D01*
X165518024Y-84811106D01*
X165319191Y-84620110D01*
X165086917Y-84471574D01*
X165036075Y-84451702D01*
X165229999Y-84348591D01*
X165441285Y-84176270D01*
X165615076Y-83966192D01*
X165744754Y-83726359D01*
X165825378Y-83465906D01*
X165853877Y-83194753D01*
X165829166Y-82923228D01*
X165752187Y-82661675D01*
X165625871Y-82420054D01*
X165455029Y-82207570D01*
X165246170Y-82032316D01*
X165031347Y-81914216D01*
X165229999Y-81808591D01*
X165441285Y-81636270D01*
X165615076Y-81426192D01*
X165744754Y-81186359D01*
X165825378Y-80925906D01*
X165853877Y-80654753D01*
X165829166Y-80383228D01*
X165752187Y-80121675D01*
X165625871Y-79880054D01*
X165455029Y-79667570D01*
X165246170Y-79492316D01*
X165031347Y-79374216D01*
X165229999Y-79268591D01*
X165441285Y-79096270D01*
X165615076Y-78886192D01*
X165744754Y-78646359D01*
X165825378Y-78385906D01*
X165853877Y-78114753D01*
X165829166Y-77843228D01*
X165752187Y-77581675D01*
X165625871Y-77340054D01*
X165455029Y-77127570D01*
X165246170Y-76952316D01*
X165031347Y-76834216D01*
X165229999Y-76728591D01*
X165441285Y-76556270D01*
X165615076Y-76346192D01*
X165744754Y-76106359D01*
X165825378Y-75845906D01*
X165853877Y-75574753D01*
X165829166Y-75303228D01*
X165752187Y-75041675D01*
X165625871Y-74800054D01*
X165455029Y-74587570D01*
X165246170Y-74412316D01*
X165031347Y-74294216D01*
X165229999Y-74188591D01*
X165441285Y-74016270D01*
X165615076Y-73806192D01*
X165744754Y-73566359D01*
X165825378Y-73305906D01*
X165853877Y-73034753D01*
X165829166Y-72763228D01*
X165752187Y-72501675D01*
X165625871Y-72260054D01*
X165455029Y-72047570D01*
X165246170Y-71872316D01*
X165031347Y-71754216D01*
X165229999Y-71648591D01*
X165441285Y-71476270D01*
X165615076Y-71266192D01*
X165744754Y-71026359D01*
X165825378Y-70765906D01*
X165853877Y-70494753D01*
X165829166Y-70223228D01*
X165752187Y-69961675D01*
X165625871Y-69720054D01*
X165455029Y-69507570D01*
X165246170Y-69332316D01*
X165031347Y-69214216D01*
X165229999Y-69108591D01*
X165441285Y-68936270D01*
X165615076Y-68726192D01*
X165744754Y-68486359D01*
X165825378Y-68225906D01*
X165853877Y-67954753D01*
X165829166Y-67683228D01*
X165752187Y-67421675D01*
X165625871Y-67180054D01*
X165455029Y-66967570D01*
X165246170Y-66792316D01*
X165037651Y-66677682D01*
X165086917Y-66658426D01*
X165319191Y-66509890D01*
X165518024Y-66318894D01*
X165675775Y-66092778D01*
X165786382Y-65840231D01*
X165803220Y-65748070D01*
X165680720Y-65532000D01*
X164338000Y-65532000D01*
X164338000Y-65552000D01*
X164084000Y-65552000D01*
X164084000Y-65532000D01*
X164064000Y-65532000D01*
X164064000Y-65278000D01*
X164084000Y-65278000D01*
X164084000Y-65258000D01*
X164338000Y-65258000D01*
X164338000Y-65278000D01*
X165680720Y-65278000D01*
X165803220Y-65061930D01*
X165786382Y-64969769D01*
X165675775Y-64717222D01*
X165518024Y-64491106D01*
X165319191Y-64300110D01*
X165086917Y-64151574D01*
X165036075Y-64131702D01*
X165229999Y-64028591D01*
X165441285Y-63856270D01*
X165615076Y-63646192D01*
X165744754Y-63406359D01*
X165825378Y-63145906D01*
X165853877Y-62874753D01*
X165829166Y-62603228D01*
X165752187Y-62341675D01*
X165625871Y-62100054D01*
X165455029Y-61887570D01*
X165246170Y-61712316D01*
X165221000Y-61698479D01*
X165221000Y-60579000D01*
X165211898Y-60486170D01*
X165203765Y-60393209D01*
X165202283Y-60388109D01*
X165201765Y-60382823D01*
X165174811Y-60293548D01*
X165148771Y-60203918D01*
X165146325Y-60199198D01*
X165144791Y-60194119D01*
X165101037Y-60111830D01*
X165058058Y-60028915D01*
X165054741Y-60024760D01*
X165052250Y-60020075D01*
X164993328Y-59947828D01*
X164935080Y-59874863D01*
X164927788Y-59867469D01*
X164927666Y-59867319D01*
X164927527Y-59867204D01*
X164925178Y-59864822D01*
X163718678Y-58658322D01*
X163646560Y-58599083D01*
X163575117Y-58539135D01*
X163570464Y-58536577D01*
X163566359Y-58533205D01*
X163484142Y-58489121D01*
X163402381Y-58444173D01*
X163397316Y-58442566D01*
X163392638Y-58440058D01*
X163303481Y-58412800D01*
X163214491Y-58384571D01*
X163209209Y-58383978D01*
X163204134Y-58382427D01*
X163111376Y-58373005D01*
X163018602Y-58362598D01*
X163008220Y-58362526D01*
X163008025Y-58362506D01*
X163007843Y-58362523D01*
X163004500Y-58362500D01*
X156019500Y-58362500D01*
X155926670Y-58371602D01*
X155833709Y-58379735D01*
X155828609Y-58381217D01*
X155823323Y-58381735D01*
X155734048Y-58408689D01*
X155644418Y-58434729D01*
X155639698Y-58437175D01*
X155634619Y-58438709D01*
X155552330Y-58482463D01*
X155469415Y-58525442D01*
X155465260Y-58528759D01*
X155460575Y-58531250D01*
X155388328Y-58590172D01*
X155315363Y-58648420D01*
X155307969Y-58655712D01*
X155307819Y-58655834D01*
X155307704Y-58655973D01*
X155305322Y-58658322D01*
X153971822Y-59991822D01*
X153912583Y-60063940D01*
X153852635Y-60135383D01*
X153850077Y-60140036D01*
X153846705Y-60144141D01*
X153802621Y-60226358D01*
X153757673Y-60308119D01*
X153756066Y-60313184D01*
X153753558Y-60317862D01*
X153726300Y-60407019D01*
X153698071Y-60496009D01*
X153697478Y-60501291D01*
X153695927Y-60506366D01*
X153686505Y-60599124D01*
X153676098Y-60691898D01*
X153676026Y-60702280D01*
X153676006Y-60702475D01*
X153676023Y-60702657D01*
X153676000Y-60706000D01*
X153676000Y-63563500D01*
X153685106Y-63656375D01*
X153693235Y-63749291D01*
X153694717Y-63754391D01*
X153695235Y-63759677D01*
X153722189Y-63848952D01*
X153748229Y-63938582D01*
X153750675Y-63943301D01*
X153752209Y-63948381D01*
X153795984Y-64030710D01*
X153838943Y-64113585D01*
X153842257Y-64117737D01*
X153844750Y-64122425D01*
X153903695Y-64194699D01*
X153961920Y-64267637D01*
X153969212Y-64275031D01*
X153969334Y-64275181D01*
X153969473Y-64275296D01*
X153971822Y-64277678D01*
X154987822Y-65293678D01*
X155059940Y-65352917D01*
X155131383Y-65412865D01*
X155136036Y-65415423D01*
X155140141Y-65418795D01*
X155222358Y-65462879D01*
X155304119Y-65507827D01*
X155309184Y-65509434D01*
X155313862Y-65511942D01*
X155403019Y-65539200D01*
X155492009Y-65567429D01*
X155497291Y-65568022D01*
X155502366Y-65569573D01*
X155595124Y-65578995D01*
X155687898Y-65589402D01*
X155698280Y-65589474D01*
X155698475Y-65589494D01*
X155698657Y-65589477D01*
X155702000Y-65589500D01*
X156851000Y-65589500D01*
X156851000Y-66764644D01*
X155791644Y-67824000D01*
X151584245Y-67824000D01*
X151548713Y-67780433D01*
X151325401Y-67595694D01*
X151070461Y-67457848D01*
X150793601Y-67372146D01*
X150505367Y-67341851D01*
X150216739Y-67368118D01*
X149938709Y-67449947D01*
X149681869Y-67584220D01*
X149456000Y-67765823D01*
X149269706Y-67987839D01*
X149225502Y-68068247D01*
X149191888Y-68005029D01*
X149008713Y-67780433D01*
X148785401Y-67595694D01*
X148530461Y-67457848D01*
X148253601Y-67372146D01*
X147965367Y-67341851D01*
X147676739Y-67368118D01*
X147398709Y-67449947D01*
X147141869Y-67584220D01*
X146916000Y-67765823D01*
X146874189Y-67815651D01*
X146841894Y-67711366D01*
X146743100Y-67561441D01*
X146606450Y-67444975D01*
X146442763Y-67371190D01*
X146265000Y-67345928D01*
X144565000Y-67345928D01*
X144463879Y-67353992D01*
X144395000Y-67375322D01*
X144395000Y-66675000D01*
X144387018Y-66593599D01*
X144379897Y-66512203D01*
X144378599Y-66507736D01*
X144378145Y-66503103D01*
X144354520Y-66424852D01*
X144331710Y-66346339D01*
X144329567Y-66342205D01*
X144328223Y-66337753D01*
X144289875Y-66265630D01*
X144252224Y-66192994D01*
X144249318Y-66189354D01*
X144247135Y-66185248D01*
X144195493Y-66121929D01*
X144144466Y-66058009D01*
X144138077Y-66051530D01*
X144137970Y-66051399D01*
X144137849Y-66051299D01*
X144135789Y-66049210D01*
X142865790Y-64779210D01*
X142802574Y-64727284D01*
X142739996Y-64674775D01*
X142735919Y-64672534D01*
X142732322Y-64669579D01*
X142660292Y-64630957D01*
X142588639Y-64591565D01*
X142584200Y-64590157D01*
X142580101Y-64587959D01*
X142501974Y-64564073D01*
X142424002Y-64539339D01*
X142419374Y-64538820D01*
X142414926Y-64537460D01*
X142333661Y-64529206D01*
X142252357Y-64520086D01*
X142243253Y-64520023D01*
X142243089Y-64520006D01*
X142242936Y-64520020D01*
X142240000Y-64520000D01*
X134874000Y-64520000D01*
X134792644Y-64527977D01*
X134711204Y-64535102D01*
X134706733Y-64536401D01*
X134702103Y-64536855D01*
X134623915Y-64560461D01*
X134545340Y-64583289D01*
X134541203Y-64585434D01*
X134536753Y-64586777D01*
X134464647Y-64625116D01*
X134391994Y-64662776D01*
X134388354Y-64665682D01*
X134384248Y-64667865D01*
X134320960Y-64719482D01*
X134257009Y-64770533D01*
X134250528Y-64776924D01*
X134250399Y-64777030D01*
X134250300Y-64777150D01*
X134248211Y-64779210D01*
X133359210Y-65668210D01*
X133307284Y-65731426D01*
X133254775Y-65794004D01*
X133252534Y-65798081D01*
X133249579Y-65801678D01*
X133210957Y-65873708D01*
X133171565Y-65945361D01*
X133170157Y-65949800D01*
X133167959Y-65953899D01*
X133144073Y-66032026D01*
X133122551Y-66099873D01*
X132946000Y-66241823D01*
X132759706Y-66463839D01*
X132712400Y-66549889D01*
X132640178Y-66428645D01*
X132445269Y-66212412D01*
X132211920Y-66038359D01*
X131949099Y-65913175D01*
X131801890Y-65868524D01*
X131572000Y-65989845D01*
X131572000Y-67183000D01*
X131592000Y-67183000D01*
X131592000Y-67437000D01*
X131572000Y-67437000D01*
X131572000Y-67457000D01*
X131318000Y-67457000D01*
X131318000Y-67437000D01*
X131298000Y-67437000D01*
X131298000Y-67183000D01*
X131318000Y-67183000D01*
X131318000Y-65989845D01*
X131088110Y-65868524D01*
X130940901Y-65913175D01*
X130678080Y-66038359D01*
X130444731Y-66212412D01*
X130249822Y-66428645D01*
X130100843Y-66678748D01*
X130003519Y-66953109D01*
X130124185Y-67182998D01*
X129996000Y-67182998D01*
X129996000Y-57225000D01*
X169216000Y-57225000D01*
X169216000Y-116765000D01*
M02*
