G04 #@! TF.FileFunction,Soldermask,Bot*
%FSLAX46Y46*%
G04 Gerber Fmt 4.6, Leading zero omitted, Abs format (unit mm)*
G04 Created by KiCad (PCBNEW 4.0.6) date 09/07/17 10:38:29*
%MOMM*%
%LPD*%
G01*
G04 APERTURE LIST*
%ADD10C,0.100000*%
%ADD11R,2.400000X1.924000*%
%ADD12O,2.400000X1.924000*%
%ADD13R,2.100000X2.100000*%
%ADD14O,2.100000X2.100000*%
%ADD15C,2.700000*%
%ADD16C,5.400000*%
G04 APERTURE END LIST*
D10*
D11*
X161671000Y-62865000D03*
D12*
X164211000Y-62865000D03*
X161671000Y-75565000D03*
X164211000Y-65405000D03*
X161671000Y-78105000D03*
X164211000Y-67945000D03*
X161671000Y-80645000D03*
X164211000Y-70485000D03*
X161671000Y-83185000D03*
X164211000Y-73025000D03*
X161671000Y-85725000D03*
X164211000Y-75565000D03*
X161671000Y-88265000D03*
X164211000Y-78105000D03*
X161671000Y-90805000D03*
X164211000Y-80645000D03*
X161671000Y-93345000D03*
X164211000Y-83185000D03*
X161671000Y-95885000D03*
X164211000Y-85725000D03*
X161671000Y-98425000D03*
X164211000Y-88265000D03*
X161671000Y-100965000D03*
X164211000Y-90805000D03*
X164211000Y-93345000D03*
X161671000Y-103505000D03*
X164211000Y-95885000D03*
X164211000Y-100965000D03*
X164211000Y-103505000D03*
X164211000Y-106045000D03*
X164211000Y-108585000D03*
X161671000Y-106045000D03*
X161671000Y-108585000D03*
X161671000Y-65405000D03*
X161671000Y-67945000D03*
X161671000Y-70485000D03*
X161671000Y-73025000D03*
X161671000Y-111125000D03*
X164211000Y-111125000D03*
X164211000Y-98425000D03*
D13*
X145415000Y-68834000D03*
D14*
X147955000Y-68834000D03*
X150495000Y-68834000D03*
D13*
X145415000Y-75946000D03*
D14*
X147955000Y-75946000D03*
X150495000Y-75946000D03*
D13*
X145415000Y-72390000D03*
D14*
X147955000Y-72390000D03*
X150495000Y-72390000D03*
D13*
X141605000Y-69850000D03*
D14*
X141605000Y-67310000D03*
X139065000Y-69850000D03*
X139065000Y-67310000D03*
X136525000Y-69850000D03*
X136525000Y-67310000D03*
X133985000Y-69850000D03*
X133985000Y-67310000D03*
X131445000Y-69850000D03*
X131445000Y-67310000D03*
D15*
X150749000Y-112979200D03*
X153289000Y-110439200D03*
X148209000Y-110439200D03*
X148209000Y-115519200D03*
X153289000Y-115519200D03*
D16*
X143383000Y-111506000D03*
X131826000Y-111506000D03*
M02*
