G04 #@! TF.FileFunction,Profile,NP*
%FSLAX46Y46*%
G04 Gerber Fmt 4.6, Leading zero omitted, Abs format (unit mm)*
G04 Created by KiCad (PCBNEW 4.0.2+dfsg1-2~bpo8+1-stable) date lun 17 oct 2016 15:55:52 ART*
%MOMM*%
G01*
G04 APERTURE LIST*
%ADD10C,0.100000*%
%ADD11C,0.150000*%
G04 APERTURE END LIST*
D10*
D11*
X109728000Y-152781000D02*
G75*
G03X109728000Y-152781000I-1778000J0D01*
G01*
X86614000Y-152781000D02*
G75*
G03X86614000Y-152781000I-1778000J0D01*
G01*
X98171000Y-152781000D02*
G75*
G03X98171000Y-152781000I-1778000J0D01*
G01*
X121289530Y-152781000D02*
G75*
G03X121289530Y-152781000I-1782530J0D01*
G01*
X79375000Y-162560000D02*
X122555000Y-162560000D01*
X79375000Y-177800000D02*
X79375000Y-162560000D01*
X60325000Y-177800000D02*
X79375000Y-177800000D01*
X60325000Y-162560000D02*
X60325000Y-177800000D01*
X146050000Y-92075000D02*
X146050000Y-177800000D01*
X146050000Y-78740000D02*
X146050000Y-40640000D01*
X133985000Y-78740000D02*
X146050000Y-78740000D01*
X133985000Y-92075000D02*
X133985000Y-78740000D01*
X146050000Y-92075000D02*
X133985000Y-92075000D01*
X68580000Y-59055000D02*
X60325000Y-59055000D01*
X146050000Y-40640000D02*
X136525000Y-40640000D01*
X122555000Y-177800000D02*
X146050000Y-177800000D01*
X122555000Y-162560000D02*
X122555000Y-177800000D01*
X60325000Y-154940000D02*
X60325000Y-162560000D01*
X119380000Y-40640000D02*
X60325000Y-40640000D01*
X136525000Y-52070000D02*
X136525000Y-40640000D01*
X119380000Y-52070000D02*
X136525000Y-52070000D01*
X119380000Y-40640000D02*
X119380000Y-52070000D01*
X60325000Y-154940000D02*
X60325000Y-59055000D01*
X60325000Y-50800000D02*
X60325000Y-40640000D01*
X68580000Y-50800000D02*
X60325000Y-50800000D01*
X68580000Y-59055000D02*
X68580000Y-50800000D01*
M02*
