M48
;DRILL file {KiCad 4.0.2+dfsg1-2~bpo8+1-stable} date lun 17 oct 2016 16:09:22 ART
;FORMAT={-:-/ absolute / inch / decimal}
FMAT,2
INCH,TZ
T1C0.028
T2C0.031
T3C0.032
T4C0.039
T5C0.039
T6C0.040
T7C0.047
T8C0.087
T9C0.126
T10C0.157
%
G90
G05
M72
T1
X3.299Y-5.092
X3.301Y-4.97
X3.301Y-5.192
X3.491Y-3.618
X3.6975Y-2.4475
X3.805Y-5.7575
X4.1225Y-5.76
X4.25Y-2.2
X4.2525Y-2.475
X4.253Y-2.378
X4.255Y-2.652
X5.0725Y-3.23
X5.075Y-3.4775
X5.3875Y-3.935
T2
X2.525Y-2.9
X2.525Y-3.
X2.525Y-3.1
X2.525Y-3.2
X2.525Y-3.3
X2.525Y-3.4
X2.525Y-3.5
X2.525Y-3.6
X2.525Y-3.825
X2.6037Y-3.825
X2.7713Y-3.825
X2.825Y-2.9
X2.825Y-3.
X2.825Y-3.1
X2.825Y-3.2
X2.825Y-3.3
X2.825Y-3.4
X2.825Y-3.5
X2.825Y-3.6
X2.85Y-3.825
X3.025Y-2.95
X3.025Y-3.0287
X3.025Y-3.1963
X3.025Y-3.275
X3.025Y-3.4463
X3.025Y-3.525
X3.375Y-2.775
X3.375Y-2.875
X3.375Y-2.975
X3.375Y-3.275
X3.375Y-3.375
X3.375Y-3.475
X3.675Y-3.425
X3.675Y-3.525
X3.675Y-3.625
X3.875Y-3.425
X3.875Y-3.525
X3.875Y-3.625
X4.075Y-2.875
X4.075Y-3.175
X4.075Y-3.425
X4.075Y-3.525
X4.075Y-3.625
X4.175Y-2.875
X4.175Y-3.175
X4.275Y-2.875
X4.275Y-3.175
X4.275Y-3.425
X4.275Y-3.525
X4.275Y-3.625
X4.375Y-2.875
X4.375Y-3.175
X4.4Y-2.2
X4.4Y-2.3
X4.4Y-2.4
X4.4Y-2.5
X4.475Y-2.875
X4.475Y-3.175
X4.575Y-2.875
X4.575Y-3.175
X4.675Y-2.875
X4.675Y-3.175
X4.7Y-2.2
X4.7Y-2.3
X4.7Y-2.4
X4.7Y-2.5
T3
X4.4Y-1.725
X4.5Y-1.725
X4.6Y-1.725
T4
X3.55Y-6.2691
X3.65Y-6.2691
X3.75Y-6.2691
X3.85Y-6.2691
X3.95Y-6.2691
X4.05Y-6.2691
X4.15Y-6.2691
X4.25Y-6.2691
X4.35Y-6.2691
T5
X3.8766Y-2.0969
X3.975Y-2.0969
T6
X2.625Y-4.1
X2.625Y-4.2
X2.625Y-4.3
X2.625Y-4.4
X2.625Y-4.5
X2.625Y-4.6
X2.625Y-4.7
X2.625Y-4.8
X2.625Y-4.9
X2.625Y-5.
X2.625Y-5.1
X2.625Y-5.2
X2.625Y-5.3
X2.625Y-5.4
X2.625Y-5.5
X2.625Y-5.6
X2.625Y-5.7
X2.625Y-5.8
X2.625Y-5.9
X2.625Y-6.
X2.725Y-4.1
X2.725Y-4.2
X2.725Y-4.3
X2.725Y-4.4
X2.725Y-4.5
X2.725Y-4.6
X2.725Y-4.7
X2.725Y-4.8
X2.725Y-4.9
X2.725Y-5.
X2.725Y-5.1
X2.725Y-5.2
X2.725Y-5.3
X2.725Y-5.4
X2.725Y-5.5
X2.725Y-5.6
X2.725Y-5.7
X2.725Y-5.8
X2.725Y-5.9
X2.725Y-6.
X2.92Y-6.565
X3.475Y-1.7
X5.425Y-4.1
X5.425Y-4.2
X5.425Y-4.3
X5.425Y-4.4
X5.425Y-4.5
X5.425Y-4.6
X5.425Y-4.7
X5.425Y-4.8
X5.425Y-4.9
X5.425Y-5.
X5.425Y-5.1
X5.425Y-5.2
X5.425Y-5.3
X5.425Y-5.4
X5.425Y-5.5
X5.425Y-5.6
X5.425Y-5.7
X5.425Y-5.8
X5.425Y-5.9
X5.425Y-6.
X5.5Y-2.25
X5.525Y-4.1
X5.525Y-4.2
X5.525Y-4.3
X5.525Y-4.4
X5.525Y-4.5
X5.525Y-4.6
X5.525Y-4.7
X5.525Y-4.8
X5.525Y-4.9
X5.525Y-5.
X5.525Y-5.1
X5.525Y-5.2
X5.525Y-5.3
X5.525Y-5.4
X5.525Y-5.5
X5.525Y-5.6
X5.525Y-5.7
X5.525Y-5.8
X5.525Y-5.9
X5.525Y-6.
T7
X5.0312Y-6.475
X5.2281Y-6.475
X5.425Y-6.475
T8
X3.7743Y-1.929
X4.1758Y-1.929
T9
X3.2787Y-3.8203
X3.2787Y-6.2297
X4.6213Y-3.8203
X4.6213Y-6.2297
T10
X2.55Y-1.795
X2.55Y-6.81
X5.555Y-1.79
X5.555Y-6.81
T0
M30
