%FSLAX45Y45*%
G04 Gerber Fmt 4.5, Leading zero omitted, Abs format (unit mm)*
G04 Created by KiCad (PCBNEW 4.0.2+dfsg1-2~bpo8+1-stable) date lun 17 oct 2016 16:09:25 ART*
%MOMM*%
G01*
G04 APERTURE LIST*
%ADD10C,0.127000*%
%ADD11C,0.150000*%
%ADD12C,0.200000*%
%ADD13C,0.300000*%
G04 APERTURE END LIST*
D10*
D11*
X10972800Y-15278100D02*
G75*
G03X10972800Y-15278100I-177800J0D01*
G01*
X8661400Y-15278100D02*
G75*
G03X8661400Y-15278100I-177800J0D01*
G01*
X9817100Y-15278100D02*
G75*
G03X9817100Y-15278100I-177800J0D01*
G01*
X12128953Y-15278100D02*
G75*
G03X12128953Y-15278100I-178253J0D01*
G01*
X7937500Y-16256000D02*
X12255500Y-16256000D01*
X7937500Y-17780000D02*
X7937500Y-16256000D01*
X6032500Y-17780000D02*
X7937500Y-17780000D01*
X6032500Y-16256000D02*
X6032500Y-17780000D01*
X14605000Y-9207500D02*
X14605000Y-17780000D01*
X14605000Y-7874000D02*
X14605000Y-4064000D01*
X13398500Y-7874000D02*
X14605000Y-7874000D01*
X13398500Y-9207500D02*
X13398500Y-7874000D01*
X14605000Y-9207500D02*
X13398500Y-9207500D01*
X6858000Y-5905500D02*
X6032500Y-5905500D01*
X14605000Y-4064000D02*
X13652500Y-4064000D01*
X12255500Y-17780000D02*
X14605000Y-17780000D01*
X12255500Y-16256000D02*
X12255500Y-17780000D01*
X6032500Y-15494000D02*
X6032500Y-16256000D01*
X11938000Y-4064000D02*
X6032500Y-4064000D01*
X13652500Y-5207000D02*
X13652500Y-4064000D01*
X11938000Y-5207000D02*
X13652500Y-5207000D01*
X11938000Y-4064000D02*
X11938000Y-5207000D01*
X6032500Y-15494000D02*
X6032500Y-5905500D01*
X6032500Y-5080000D02*
X6032500Y-4064000D01*
X6858000Y-5080000D02*
X6032500Y-5080000D01*
X6858000Y-5905500D02*
X6858000Y-5080000D01*
D12*
X8343900Y-12898120D02*
X8415020Y-12969240D01*
X8415020Y-12898120D02*
X8343900Y-12969240D01*
X8348980Y-12588240D02*
X8420100Y-12659360D01*
X8420100Y-12588240D02*
X8348980Y-12659360D01*
X8348980Y-13152120D02*
X8420100Y-13223240D01*
X8420100Y-13152120D02*
X8348980Y-13223240D01*
X8831580Y-9154160D02*
X8902700Y-9225280D01*
X8902700Y-9154160D02*
X8831580Y-9225280D01*
X9356090Y-6181090D02*
X9427210Y-6252210D01*
X9427210Y-6181090D02*
X9356090Y-6252210D01*
X9629140Y-14588490D02*
X9700260Y-14659610D01*
X9700260Y-14588490D02*
X9629140Y-14659610D01*
X10435590Y-14594840D02*
X10506710Y-14665960D01*
X10506710Y-14594840D02*
X10435590Y-14665960D01*
X10759440Y-5552440D02*
X10830560Y-5623560D01*
X10830560Y-5552440D02*
X10759440Y-5623560D01*
X10765790Y-6250940D02*
X10836910Y-6322060D01*
X10836910Y-6250940D02*
X10765790Y-6322060D01*
X10767060Y-6004560D02*
X10838180Y-6075680D01*
X10838180Y-6004560D02*
X10767060Y-6075680D01*
X10772140Y-6700520D02*
X10843260Y-6771640D01*
X10843260Y-6700520D02*
X10772140Y-6771640D01*
X12848590Y-8168640D02*
X12919710Y-8239760D01*
X12919710Y-8168640D02*
X12848590Y-8239760D01*
X12854940Y-8797290D02*
X12926060Y-8868410D01*
X12926060Y-8797290D02*
X12854940Y-8868410D01*
X13648690Y-9959340D02*
X13719810Y-10030460D01*
X13719810Y-9959340D02*
X13648690Y-10030460D01*
X6453500Y-7366000D02*
G75*
G03X6453500Y-7366000I-40000J0D01*
G01*
X6453500Y-7620000D02*
G75*
G03X6453500Y-7620000I-40000J0D01*
G01*
X6453500Y-7874000D02*
G75*
G03X6453500Y-7874000I-40000J0D01*
G01*
X6453500Y-8128000D02*
G75*
G03X6453500Y-8128000I-40000J0D01*
G01*
X6453500Y-8382000D02*
G75*
G03X6453500Y-8382000I-40000J0D01*
G01*
X6453500Y-8636000D02*
G75*
G03X6453500Y-8636000I-40000J0D01*
G01*
X6453500Y-8890000D02*
G75*
G03X6453500Y-8890000I-40000J0D01*
G01*
X6453500Y-9144000D02*
G75*
G03X6453500Y-9144000I-40000J0D01*
G01*
X6453500Y-9715500D02*
G75*
G03X6453500Y-9715500I-40000J0D01*
G01*
X6653500Y-9715500D02*
G75*
G03X6653500Y-9715500I-40000J0D01*
G01*
X7079000Y-9715500D02*
G75*
G03X7079000Y-9715500I-40000J0D01*
G01*
X7215500Y-7366000D02*
G75*
G03X7215500Y-7366000I-40000J0D01*
G01*
X7215500Y-7620000D02*
G75*
G03X7215500Y-7620000I-40000J0D01*
G01*
X7215500Y-7874000D02*
G75*
G03X7215500Y-7874000I-40000J0D01*
G01*
X7215500Y-8128000D02*
G75*
G03X7215500Y-8128000I-40000J0D01*
G01*
X7215500Y-8382000D02*
G75*
G03X7215500Y-8382000I-40000J0D01*
G01*
X7215500Y-8636000D02*
G75*
G03X7215500Y-8636000I-40000J0D01*
G01*
X7215500Y-8890000D02*
G75*
G03X7215500Y-8890000I-40000J0D01*
G01*
X7215500Y-9144000D02*
G75*
G03X7215500Y-9144000I-40000J0D01*
G01*
X7279000Y-9715500D02*
G75*
G03X7279000Y-9715500I-40000J0D01*
G01*
X7723500Y-7493000D02*
G75*
G03X7723500Y-7493000I-40000J0D01*
G01*
X7723500Y-7693000D02*
G75*
G03X7723500Y-7693000I-40000J0D01*
G01*
X7723500Y-8118500D02*
G75*
G03X7723500Y-8118500I-40000J0D01*
G01*
X7723500Y-8318500D02*
G75*
G03X7723500Y-8318500I-40000J0D01*
G01*
X7723500Y-8753500D02*
G75*
G03X7723500Y-8753500I-40000J0D01*
G01*
X7723500Y-8953500D02*
G75*
G03X7723500Y-8953500I-40000J0D01*
G01*
X8612500Y-7048500D02*
G75*
G03X8612500Y-7048500I-40000J0D01*
G01*
X8612500Y-7302500D02*
G75*
G03X8612500Y-7302500I-40000J0D01*
G01*
X8612500Y-7556500D02*
G75*
G03X8612500Y-7556500I-40000J0D01*
G01*
X8612500Y-8318500D02*
G75*
G03X8612500Y-8318500I-40000J0D01*
G01*
X8612500Y-8572500D02*
G75*
G03X8612500Y-8572500I-40000J0D01*
G01*
X8612500Y-8826500D02*
G75*
G03X8612500Y-8826500I-40000J0D01*
G01*
X9374500Y-8699500D02*
G75*
G03X9374500Y-8699500I-40000J0D01*
G01*
X9374500Y-8953500D02*
G75*
G03X9374500Y-8953500I-40000J0D01*
G01*
X9374500Y-9207500D02*
G75*
G03X9374500Y-9207500I-40000J0D01*
G01*
X9882500Y-8699500D02*
G75*
G03X9882500Y-8699500I-40000J0D01*
G01*
X9882500Y-8953500D02*
G75*
G03X9882500Y-8953500I-40000J0D01*
G01*
X9882500Y-9207500D02*
G75*
G03X9882500Y-9207500I-40000J0D01*
G01*
X10390500Y-7302500D02*
G75*
G03X10390500Y-7302500I-40000J0D01*
G01*
X10390500Y-8064500D02*
G75*
G03X10390500Y-8064500I-40000J0D01*
G01*
X10390500Y-8699500D02*
G75*
G03X10390500Y-8699500I-40000J0D01*
G01*
X10390500Y-8953500D02*
G75*
G03X10390500Y-8953500I-40000J0D01*
G01*
X10390500Y-9207500D02*
G75*
G03X10390500Y-9207500I-40000J0D01*
G01*
X10644500Y-7302500D02*
G75*
G03X10644500Y-7302500I-40000J0D01*
G01*
X10644500Y-8064500D02*
G75*
G03X10644500Y-8064500I-40000J0D01*
G01*
X10898500Y-7302500D02*
G75*
G03X10898500Y-7302500I-40000J0D01*
G01*
X10898500Y-8064500D02*
G75*
G03X10898500Y-8064500I-40000J0D01*
G01*
X10898500Y-8699500D02*
G75*
G03X10898500Y-8699500I-40000J0D01*
G01*
X10898500Y-8953500D02*
G75*
G03X10898500Y-8953500I-40000J0D01*
G01*
X10898500Y-9207500D02*
G75*
G03X10898500Y-9207500I-40000J0D01*
G01*
X11152500Y-7302500D02*
G75*
G03X11152500Y-7302500I-40000J0D01*
G01*
X11152500Y-8064500D02*
G75*
G03X11152500Y-8064500I-40000J0D01*
G01*
X11216000Y-5588000D02*
G75*
G03X11216000Y-5588000I-40000J0D01*
G01*
X11216000Y-5842000D02*
G75*
G03X11216000Y-5842000I-40000J0D01*
G01*
X11216000Y-6096000D02*
G75*
G03X11216000Y-6096000I-40000J0D01*
G01*
X11216000Y-6350000D02*
G75*
G03X11216000Y-6350000I-40000J0D01*
G01*
X11406500Y-7302500D02*
G75*
G03X11406500Y-7302500I-40000J0D01*
G01*
X11406500Y-8064500D02*
G75*
G03X11406500Y-8064500I-40000J0D01*
G01*
X11660500Y-7302500D02*
G75*
G03X11660500Y-7302500I-40000J0D01*
G01*
X11660500Y-8064500D02*
G75*
G03X11660500Y-8064500I-40000J0D01*
G01*
X11914500Y-7302500D02*
G75*
G03X11914500Y-7302500I-40000J0D01*
G01*
X11914500Y-8064500D02*
G75*
G03X11914500Y-8064500I-40000J0D01*
G01*
X11978000Y-5588000D02*
G75*
G03X11978000Y-5588000I-40000J0D01*
G01*
X11978000Y-5842000D02*
G75*
G03X11978000Y-5842000I-40000J0D01*
G01*
X11978000Y-6096000D02*
G75*
G03X11978000Y-6096000I-40000J0D01*
G01*
X11978000Y-6350000D02*
G75*
G03X11978000Y-6350000I-40000J0D01*
G01*
X11176000Y-4340860D02*
X11176000Y-4422140D01*
X11135360Y-4381500D02*
X11216640Y-4381500D01*
X11430000Y-4340860D02*
X11430000Y-4422140D01*
X11389360Y-4381500D02*
X11470640Y-4381500D01*
X11684000Y-4340860D02*
X11684000Y-4422140D01*
X11643360Y-4381500D02*
X11724640Y-4381500D01*
X9052356Y-15958856D02*
X9052356Y-15888144D01*
X8981644Y-15888144D01*
X8981644Y-15958856D01*
X9052356Y-15958856D01*
X9306356Y-15958856D02*
X9306356Y-15888144D01*
X9235644Y-15888144D01*
X9235644Y-15958856D01*
X9306356Y-15958856D01*
X9560356Y-15958856D02*
X9560356Y-15888144D01*
X9489644Y-15888144D01*
X9489644Y-15958856D01*
X9560356Y-15958856D01*
X9814356Y-15958856D02*
X9814356Y-15888144D01*
X9743644Y-15888144D01*
X9743644Y-15958856D01*
X9814356Y-15958856D01*
X10068356Y-15958856D02*
X10068356Y-15888144D01*
X9997644Y-15888144D01*
X9997644Y-15958856D01*
X10068356Y-15958856D01*
X10322356Y-15958856D02*
X10322356Y-15888144D01*
X10251644Y-15888144D01*
X10251644Y-15958856D01*
X10322356Y-15958856D01*
X10576356Y-15958856D02*
X10576356Y-15888144D01*
X10505644Y-15888144D01*
X10505644Y-15958856D01*
X10576356Y-15958856D01*
X10830356Y-15958856D02*
X10830356Y-15888144D01*
X10759644Y-15888144D01*
X10759644Y-15958856D01*
X10830356Y-15958856D01*
X11084356Y-15958856D02*
X11084356Y-15888144D01*
X11013644Y-15888144D01*
X11013644Y-15958856D01*
X11084356Y-15958856D01*
X9846564Y-5376164D02*
X9896602Y-5326126D01*
X9846564Y-5276088D01*
X9796526Y-5326126D01*
X9846564Y-5376164D01*
X10096500Y-5376164D02*
X10146538Y-5326126D01*
X10096500Y-5276088D01*
X10046462Y-5326126D01*
X10096500Y-5376164D01*
X6616700Y-10363200D02*
X6718300Y-10464800D01*
X6718300Y-10363200D02*
X6616700Y-10464800D01*
X6718300Y-10414000D02*
G75*
G03X6718300Y-10414000I-50800J0D01*
G01*
X6616700Y-10617200D02*
X6718300Y-10718800D01*
X6718300Y-10617200D02*
X6616700Y-10718800D01*
X6718300Y-10668000D02*
G75*
G03X6718300Y-10668000I-50800J0D01*
G01*
X6616700Y-10871200D02*
X6718300Y-10972800D01*
X6718300Y-10871200D02*
X6616700Y-10972800D01*
X6718300Y-10922000D02*
G75*
G03X6718300Y-10922000I-50800J0D01*
G01*
X6616700Y-11125200D02*
X6718300Y-11226800D01*
X6718300Y-11125200D02*
X6616700Y-11226800D01*
X6718300Y-11176000D02*
G75*
G03X6718300Y-11176000I-50800J0D01*
G01*
X6616700Y-11379200D02*
X6718300Y-11480800D01*
X6718300Y-11379200D02*
X6616700Y-11480800D01*
X6718300Y-11430000D02*
G75*
G03X6718300Y-11430000I-50800J0D01*
G01*
X6616700Y-11633200D02*
X6718300Y-11734800D01*
X6718300Y-11633200D02*
X6616700Y-11734800D01*
X6718300Y-11684000D02*
G75*
G03X6718300Y-11684000I-50800J0D01*
G01*
X6616700Y-11887200D02*
X6718300Y-11988800D01*
X6718300Y-11887200D02*
X6616700Y-11988800D01*
X6718300Y-11938000D02*
G75*
G03X6718300Y-11938000I-50800J0D01*
G01*
X6616700Y-12141200D02*
X6718300Y-12242800D01*
X6718300Y-12141200D02*
X6616700Y-12242800D01*
X6718300Y-12192000D02*
G75*
G03X6718300Y-12192000I-50800J0D01*
G01*
X6616700Y-12395200D02*
X6718300Y-12496800D01*
X6718300Y-12395200D02*
X6616700Y-12496800D01*
X6718300Y-12446000D02*
G75*
G03X6718300Y-12446000I-50800J0D01*
G01*
X6616700Y-12649200D02*
X6718300Y-12750800D01*
X6718300Y-12649200D02*
X6616700Y-12750800D01*
X6718300Y-12700000D02*
G75*
G03X6718300Y-12700000I-50800J0D01*
G01*
X6616700Y-12903200D02*
X6718300Y-13004800D01*
X6718300Y-12903200D02*
X6616700Y-13004800D01*
X6718300Y-12954000D02*
G75*
G03X6718300Y-12954000I-50800J0D01*
G01*
X6616700Y-13157200D02*
X6718300Y-13258800D01*
X6718300Y-13157200D02*
X6616700Y-13258800D01*
X6718300Y-13208000D02*
G75*
G03X6718300Y-13208000I-50800J0D01*
G01*
X6616700Y-13411200D02*
X6718300Y-13512800D01*
X6718300Y-13411200D02*
X6616700Y-13512800D01*
X6718300Y-13462000D02*
G75*
G03X6718300Y-13462000I-50800J0D01*
G01*
X6616700Y-13665200D02*
X6718300Y-13766800D01*
X6718300Y-13665200D02*
X6616700Y-13766800D01*
X6718300Y-13716000D02*
G75*
G03X6718300Y-13716000I-50800J0D01*
G01*
X6616700Y-13919200D02*
X6718300Y-14020800D01*
X6718300Y-13919200D02*
X6616700Y-14020800D01*
X6718300Y-13970000D02*
G75*
G03X6718300Y-13970000I-50800J0D01*
G01*
X6616700Y-14173200D02*
X6718300Y-14274800D01*
X6718300Y-14173200D02*
X6616700Y-14274800D01*
X6718300Y-14224000D02*
G75*
G03X6718300Y-14224000I-50800J0D01*
G01*
X6616700Y-14427200D02*
X6718300Y-14528800D01*
X6718300Y-14427200D02*
X6616700Y-14528800D01*
X6718300Y-14478000D02*
G75*
G03X6718300Y-14478000I-50800J0D01*
G01*
X6616700Y-14681200D02*
X6718300Y-14782800D01*
X6718300Y-14681200D02*
X6616700Y-14782800D01*
X6718300Y-14732000D02*
G75*
G03X6718300Y-14732000I-50800J0D01*
G01*
X6616700Y-14935200D02*
X6718300Y-15036800D01*
X6718300Y-14935200D02*
X6616700Y-15036800D01*
X6718300Y-14986000D02*
G75*
G03X6718300Y-14986000I-50800J0D01*
G01*
X6616700Y-15189200D02*
X6718300Y-15290800D01*
X6718300Y-15189200D02*
X6616700Y-15290800D01*
X6718300Y-15240000D02*
G75*
G03X6718300Y-15240000I-50800J0D01*
G01*
X6870700Y-10363200D02*
X6972300Y-10464800D01*
X6972300Y-10363200D02*
X6870700Y-10464800D01*
X6972300Y-10414000D02*
G75*
G03X6972300Y-10414000I-50800J0D01*
G01*
X6870700Y-10617200D02*
X6972300Y-10718800D01*
X6972300Y-10617200D02*
X6870700Y-10718800D01*
X6972300Y-10668000D02*
G75*
G03X6972300Y-10668000I-50800J0D01*
G01*
X6870700Y-10871200D02*
X6972300Y-10972800D01*
X6972300Y-10871200D02*
X6870700Y-10972800D01*
X6972300Y-10922000D02*
G75*
G03X6972300Y-10922000I-50800J0D01*
G01*
X6870700Y-11125200D02*
X6972300Y-11226800D01*
X6972300Y-11125200D02*
X6870700Y-11226800D01*
X6972300Y-11176000D02*
G75*
G03X6972300Y-11176000I-50800J0D01*
G01*
X6870700Y-11379200D02*
X6972300Y-11480800D01*
X6972300Y-11379200D02*
X6870700Y-11480800D01*
X6972300Y-11430000D02*
G75*
G03X6972300Y-11430000I-50800J0D01*
G01*
X6870700Y-11633200D02*
X6972300Y-11734800D01*
X6972300Y-11633200D02*
X6870700Y-11734800D01*
X6972300Y-11684000D02*
G75*
G03X6972300Y-11684000I-50800J0D01*
G01*
X6870700Y-11887200D02*
X6972300Y-11988800D01*
X6972300Y-11887200D02*
X6870700Y-11988800D01*
X6972300Y-11938000D02*
G75*
G03X6972300Y-11938000I-50800J0D01*
G01*
X6870700Y-12141200D02*
X6972300Y-12242800D01*
X6972300Y-12141200D02*
X6870700Y-12242800D01*
X6972300Y-12192000D02*
G75*
G03X6972300Y-12192000I-50800J0D01*
G01*
X6870700Y-12395200D02*
X6972300Y-12496800D01*
X6972300Y-12395200D02*
X6870700Y-12496800D01*
X6972300Y-12446000D02*
G75*
G03X6972300Y-12446000I-50800J0D01*
G01*
X6870700Y-12649200D02*
X6972300Y-12750800D01*
X6972300Y-12649200D02*
X6870700Y-12750800D01*
X6972300Y-12700000D02*
G75*
G03X6972300Y-12700000I-50800J0D01*
G01*
X6870700Y-12903200D02*
X6972300Y-13004800D01*
X6972300Y-12903200D02*
X6870700Y-13004800D01*
X6972300Y-12954000D02*
G75*
G03X6972300Y-12954000I-50800J0D01*
G01*
X6870700Y-13157200D02*
X6972300Y-13258800D01*
X6972300Y-13157200D02*
X6870700Y-13258800D01*
X6972300Y-13208000D02*
G75*
G03X6972300Y-13208000I-50800J0D01*
G01*
X6870700Y-13411200D02*
X6972300Y-13512800D01*
X6972300Y-13411200D02*
X6870700Y-13512800D01*
X6972300Y-13462000D02*
G75*
G03X6972300Y-13462000I-50800J0D01*
G01*
X6870700Y-13665200D02*
X6972300Y-13766800D01*
X6972300Y-13665200D02*
X6870700Y-13766800D01*
X6972300Y-13716000D02*
G75*
G03X6972300Y-13716000I-50800J0D01*
G01*
X6870700Y-13919200D02*
X6972300Y-14020800D01*
X6972300Y-13919200D02*
X6870700Y-14020800D01*
X6972300Y-13970000D02*
G75*
G03X6972300Y-13970000I-50800J0D01*
G01*
X6870700Y-14173200D02*
X6972300Y-14274800D01*
X6972300Y-14173200D02*
X6870700Y-14274800D01*
X6972300Y-14224000D02*
G75*
G03X6972300Y-14224000I-50800J0D01*
G01*
X6870700Y-14427200D02*
X6972300Y-14528800D01*
X6972300Y-14427200D02*
X6870700Y-14528800D01*
X6972300Y-14478000D02*
G75*
G03X6972300Y-14478000I-50800J0D01*
G01*
X6870700Y-14681200D02*
X6972300Y-14782800D01*
X6972300Y-14681200D02*
X6870700Y-14782800D01*
X6972300Y-14732000D02*
G75*
G03X6972300Y-14732000I-50800J0D01*
G01*
X6870700Y-14935200D02*
X6972300Y-15036800D01*
X6972300Y-14935200D02*
X6870700Y-15036800D01*
X6972300Y-14986000D02*
G75*
G03X6972300Y-14986000I-50800J0D01*
G01*
X6870700Y-15189200D02*
X6972300Y-15290800D01*
X6972300Y-15189200D02*
X6870700Y-15290800D01*
X6972300Y-15240000D02*
G75*
G03X6972300Y-15240000I-50800J0D01*
G01*
X7366000Y-16624300D02*
X7467600Y-16725900D01*
X7467600Y-16624300D02*
X7366000Y-16725900D01*
X7467600Y-16675100D02*
G75*
G03X7467600Y-16675100I-50800J0D01*
G01*
X8775700Y-4267200D02*
X8877300Y-4368800D01*
X8877300Y-4267200D02*
X8775700Y-4368800D01*
X8877300Y-4318000D02*
G75*
G03X8877300Y-4318000I-50800J0D01*
G01*
X13728700Y-10363200D02*
X13830300Y-10464800D01*
X13830300Y-10363200D02*
X13728700Y-10464800D01*
X13830300Y-10414000D02*
G75*
G03X13830300Y-10414000I-50800J0D01*
G01*
X13728700Y-10617200D02*
X13830300Y-10718800D01*
X13830300Y-10617200D02*
X13728700Y-10718800D01*
X13830300Y-10668000D02*
G75*
G03X13830300Y-10668000I-50800J0D01*
G01*
X13728700Y-10871200D02*
X13830300Y-10972800D01*
X13830300Y-10871200D02*
X13728700Y-10972800D01*
X13830300Y-10922000D02*
G75*
G03X13830300Y-10922000I-50800J0D01*
G01*
X13728700Y-11125200D02*
X13830300Y-11226800D01*
X13830300Y-11125200D02*
X13728700Y-11226800D01*
X13830300Y-11176000D02*
G75*
G03X13830300Y-11176000I-50800J0D01*
G01*
X13728700Y-11379200D02*
X13830300Y-11480800D01*
X13830300Y-11379200D02*
X13728700Y-11480800D01*
X13830300Y-11430000D02*
G75*
G03X13830300Y-11430000I-50800J0D01*
G01*
X13728700Y-11633200D02*
X13830300Y-11734800D01*
X13830300Y-11633200D02*
X13728700Y-11734800D01*
X13830300Y-11684000D02*
G75*
G03X13830300Y-11684000I-50800J0D01*
G01*
X13728700Y-11887200D02*
X13830300Y-11988800D01*
X13830300Y-11887200D02*
X13728700Y-11988800D01*
X13830300Y-11938000D02*
G75*
G03X13830300Y-11938000I-50800J0D01*
G01*
X13728700Y-12141200D02*
X13830300Y-12242800D01*
X13830300Y-12141200D02*
X13728700Y-12242800D01*
X13830300Y-12192000D02*
G75*
G03X13830300Y-12192000I-50800J0D01*
G01*
X13728700Y-12395200D02*
X13830300Y-12496800D01*
X13830300Y-12395200D02*
X13728700Y-12496800D01*
X13830300Y-12446000D02*
G75*
G03X13830300Y-12446000I-50800J0D01*
G01*
X13728700Y-12649200D02*
X13830300Y-12750800D01*
X13830300Y-12649200D02*
X13728700Y-12750800D01*
X13830300Y-12700000D02*
G75*
G03X13830300Y-12700000I-50800J0D01*
G01*
X13728700Y-12903200D02*
X13830300Y-13004800D01*
X13830300Y-12903200D02*
X13728700Y-13004800D01*
X13830300Y-12954000D02*
G75*
G03X13830300Y-12954000I-50800J0D01*
G01*
X13728700Y-13157200D02*
X13830300Y-13258800D01*
X13830300Y-13157200D02*
X13728700Y-13258800D01*
X13830300Y-13208000D02*
G75*
G03X13830300Y-13208000I-50800J0D01*
G01*
X13728700Y-13411200D02*
X13830300Y-13512800D01*
X13830300Y-13411200D02*
X13728700Y-13512800D01*
X13830300Y-13462000D02*
G75*
G03X13830300Y-13462000I-50800J0D01*
G01*
X13728700Y-13665200D02*
X13830300Y-13766800D01*
X13830300Y-13665200D02*
X13728700Y-13766800D01*
X13830300Y-13716000D02*
G75*
G03X13830300Y-13716000I-50800J0D01*
G01*
X13728700Y-13919200D02*
X13830300Y-14020800D01*
X13830300Y-13919200D02*
X13728700Y-14020800D01*
X13830300Y-13970000D02*
G75*
G03X13830300Y-13970000I-50800J0D01*
G01*
X13728700Y-14173200D02*
X13830300Y-14274800D01*
X13830300Y-14173200D02*
X13728700Y-14274800D01*
X13830300Y-14224000D02*
G75*
G03X13830300Y-14224000I-50800J0D01*
G01*
X13728700Y-14427200D02*
X13830300Y-14528800D01*
X13830300Y-14427200D02*
X13728700Y-14528800D01*
X13830300Y-14478000D02*
G75*
G03X13830300Y-14478000I-50800J0D01*
G01*
X13728700Y-14681200D02*
X13830300Y-14782800D01*
X13830300Y-14681200D02*
X13728700Y-14782800D01*
X13830300Y-14732000D02*
G75*
G03X13830300Y-14732000I-50800J0D01*
G01*
X13728700Y-14935200D02*
X13830300Y-15036800D01*
X13830300Y-14935200D02*
X13728700Y-15036800D01*
X13830300Y-14986000D02*
G75*
G03X13830300Y-14986000I-50800J0D01*
G01*
X13728700Y-15189200D02*
X13830300Y-15290800D01*
X13830300Y-15189200D02*
X13728700Y-15290800D01*
X13830300Y-15240000D02*
G75*
G03X13830300Y-15240000I-50800J0D01*
G01*
X13919200Y-5664200D02*
X14020800Y-5765800D01*
X14020800Y-5664200D02*
X13919200Y-5765800D01*
X14020800Y-5715000D02*
G75*
G03X14020800Y-5715000I-50800J0D01*
G01*
X13982700Y-10363200D02*
X14084300Y-10464800D01*
X14084300Y-10363200D02*
X13982700Y-10464800D01*
X14084300Y-10414000D02*
G75*
G03X14084300Y-10414000I-50800J0D01*
G01*
X13982700Y-10617200D02*
X14084300Y-10718800D01*
X14084300Y-10617200D02*
X13982700Y-10718800D01*
X14084300Y-10668000D02*
G75*
G03X14084300Y-10668000I-50800J0D01*
G01*
X13982700Y-10871200D02*
X14084300Y-10972800D01*
X14084300Y-10871200D02*
X13982700Y-10972800D01*
X14084300Y-10922000D02*
G75*
G03X14084300Y-10922000I-50800J0D01*
G01*
X13982700Y-11125200D02*
X14084300Y-11226800D01*
X14084300Y-11125200D02*
X13982700Y-11226800D01*
X14084300Y-11176000D02*
G75*
G03X14084300Y-11176000I-50800J0D01*
G01*
X13982700Y-11379200D02*
X14084300Y-11480800D01*
X14084300Y-11379200D02*
X13982700Y-11480800D01*
X14084300Y-11430000D02*
G75*
G03X14084300Y-11430000I-50800J0D01*
G01*
X13982700Y-11633200D02*
X14084300Y-11734800D01*
X14084300Y-11633200D02*
X13982700Y-11734800D01*
X14084300Y-11684000D02*
G75*
G03X14084300Y-11684000I-50800J0D01*
G01*
X13982700Y-11887200D02*
X14084300Y-11988800D01*
X14084300Y-11887200D02*
X13982700Y-11988800D01*
X14084300Y-11938000D02*
G75*
G03X14084300Y-11938000I-50800J0D01*
G01*
X13982700Y-12141200D02*
X14084300Y-12242800D01*
X14084300Y-12141200D02*
X13982700Y-12242800D01*
X14084300Y-12192000D02*
G75*
G03X14084300Y-12192000I-50800J0D01*
G01*
X13982700Y-12395200D02*
X14084300Y-12496800D01*
X14084300Y-12395200D02*
X13982700Y-12496800D01*
X14084300Y-12446000D02*
G75*
G03X14084300Y-12446000I-50800J0D01*
G01*
X13982700Y-12649200D02*
X14084300Y-12750800D01*
X14084300Y-12649200D02*
X13982700Y-12750800D01*
X14084300Y-12700000D02*
G75*
G03X14084300Y-12700000I-50800J0D01*
G01*
X13982700Y-12903200D02*
X14084300Y-13004800D01*
X14084300Y-12903200D02*
X13982700Y-13004800D01*
X14084300Y-12954000D02*
G75*
G03X14084300Y-12954000I-50800J0D01*
G01*
X13982700Y-13157200D02*
X14084300Y-13258800D01*
X14084300Y-13157200D02*
X13982700Y-13258800D01*
X14084300Y-13208000D02*
G75*
G03X14084300Y-13208000I-50800J0D01*
G01*
X13982700Y-13411200D02*
X14084300Y-13512800D01*
X14084300Y-13411200D02*
X13982700Y-13512800D01*
X14084300Y-13462000D02*
G75*
G03X14084300Y-13462000I-50800J0D01*
G01*
X13982700Y-13665200D02*
X14084300Y-13766800D01*
X14084300Y-13665200D02*
X13982700Y-13766800D01*
X14084300Y-13716000D02*
G75*
G03X14084300Y-13716000I-50800J0D01*
G01*
X13982700Y-13919200D02*
X14084300Y-14020800D01*
X14084300Y-13919200D02*
X13982700Y-14020800D01*
X14084300Y-13970000D02*
G75*
G03X14084300Y-13970000I-50800J0D01*
G01*
X13982700Y-14173200D02*
X14084300Y-14274800D01*
X14084300Y-14173200D02*
X13982700Y-14274800D01*
X14084300Y-14224000D02*
G75*
G03X14084300Y-14224000I-50800J0D01*
G01*
X13982700Y-14427200D02*
X14084300Y-14528800D01*
X14084300Y-14427200D02*
X13982700Y-14528800D01*
X14084300Y-14478000D02*
G75*
G03X14084300Y-14478000I-50800J0D01*
G01*
X13982700Y-14681200D02*
X14084300Y-14782800D01*
X14084300Y-14681200D02*
X13982700Y-14782800D01*
X14084300Y-14732000D02*
G75*
G03X14084300Y-14732000I-50800J0D01*
G01*
X13982700Y-14935200D02*
X14084300Y-15036800D01*
X14084300Y-14935200D02*
X13982700Y-15036800D01*
X14084300Y-14986000D02*
G75*
G03X14084300Y-14986000I-50800J0D01*
G01*
X13982700Y-15189200D02*
X14084300Y-15290800D01*
X14084300Y-15189200D02*
X13982700Y-15290800D01*
X14084300Y-15240000D02*
G75*
G03X14084300Y-15240000I-50800J0D01*
G01*
X12719304Y-16386556D02*
X12839192Y-16506444D01*
X12839192Y-16386556D02*
X12719304Y-16506444D01*
X12779248Y-16386556D02*
X12779248Y-16506444D01*
X12719304Y-16446500D02*
X12839192Y-16446500D01*
X13219430Y-16386556D02*
X13339318Y-16506444D01*
X13339318Y-16386556D02*
X13219430Y-16506444D01*
X13279374Y-16386556D02*
X13279374Y-16506444D01*
X13219430Y-16446500D02*
X13339318Y-16446500D01*
X13719556Y-16386556D02*
X13839444Y-16506444D01*
X13839444Y-16386556D02*
X13719556Y-16506444D01*
X13779500Y-16386556D02*
X13779500Y-16506444D01*
X13719556Y-16446500D02*
X13839444Y-16446500D01*
X9476740Y-4789678D02*
X9696704Y-5009642D01*
X9696704Y-4789678D02*
X9476740Y-5009642D01*
X9664492Y-4977430D02*
X9664492Y-4821890D01*
X9508952Y-4821890D01*
X9508952Y-4977430D01*
X9664492Y-4977430D01*
X10496550Y-4789678D02*
X10716514Y-5009642D01*
X10716514Y-4789678D02*
X10496550Y-5009642D01*
X10684302Y-4977430D02*
X10684302Y-4821890D01*
X10528762Y-4821890D01*
X10528762Y-4977430D01*
X10684302Y-4977430D01*
X8168000Y-9543500D02*
X8488000Y-9863500D01*
X8488000Y-9543500D02*
X8168000Y-9863500D01*
X8328000Y-9863500D02*
X8488000Y-9703500D01*
X8328000Y-9543500D01*
X8168000Y-9703500D01*
X8328000Y-9863500D01*
X8168000Y-15663500D02*
X8488000Y-15983500D01*
X8488000Y-15663500D02*
X8168000Y-15983500D01*
X8328000Y-15983500D02*
X8488000Y-15823500D01*
X8328000Y-15663500D01*
X8168000Y-15823500D01*
X8328000Y-15983500D01*
X11578000Y-9543500D02*
X11898000Y-9863500D01*
X11898000Y-9543500D02*
X11578000Y-9863500D01*
X11738000Y-9863500D02*
X11898000Y-9703500D01*
X11738000Y-9543500D01*
X11578000Y-9703500D01*
X11738000Y-9863500D01*
X11578000Y-15663500D02*
X11898000Y-15983500D01*
X11898000Y-15663500D02*
X11578000Y-15983500D01*
X11738000Y-15983500D02*
X11898000Y-15823500D01*
X11738000Y-15663500D01*
X11578000Y-15823500D01*
X11738000Y-15983500D01*
X6477000Y-4359300D02*
X6477000Y-4759300D01*
X6277000Y-4559300D02*
X6677000Y-4559300D01*
X6677000Y-4559300D02*
G75*
G03X6677000Y-4559300I-200000J0D01*
G01*
X6477000Y-17097400D02*
X6477000Y-17497400D01*
X6277000Y-17297400D02*
X6677000Y-17297400D01*
X6677000Y-17297400D02*
G75*
G03X6677000Y-17297400I-200000J0D01*
G01*
X14109700Y-4346600D02*
X14109700Y-4746600D01*
X13909700Y-4546600D02*
X14309700Y-4546600D01*
X14309700Y-4546600D02*
G75*
G03X14309700Y-4546600I-200000J0D01*
G01*
X14109700Y-17097400D02*
X14109700Y-17497400D01*
X13909700Y-17297400D02*
X14309700Y-17297400D01*
X14309700Y-17297400D02*
G75*
G03X14309700Y-17297400I-200000J0D01*
G01*
D13*
X6296428Y-18253214D02*
X6296428Y-17953214D01*
X6367857Y-17953214D01*
X6410714Y-17967500D01*
X6439286Y-17996072D01*
X6453571Y-18024643D01*
X6467857Y-18081786D01*
X6467857Y-18124643D01*
X6453571Y-18181786D01*
X6439286Y-18210357D01*
X6410714Y-18238929D01*
X6367857Y-18253214D01*
X6296428Y-18253214D01*
X6596428Y-18253214D02*
X6596428Y-18053214D01*
X6596428Y-18110357D02*
X6610714Y-18081786D01*
X6625000Y-18067500D01*
X6653571Y-18053214D01*
X6682143Y-18053214D01*
X6782143Y-18253214D02*
X6782143Y-18053214D01*
X6782143Y-17953214D02*
X6767857Y-17967500D01*
X6782143Y-17981786D01*
X6796428Y-17967500D01*
X6782143Y-17953214D01*
X6782143Y-17981786D01*
X6967857Y-18253214D02*
X6939286Y-18238929D01*
X6925000Y-18210357D01*
X6925000Y-17953214D01*
X7125000Y-18253214D02*
X7096428Y-18238929D01*
X7082143Y-18210357D01*
X7082143Y-17953214D01*
X7467857Y-18253214D02*
X7467857Y-17953214D01*
X7567857Y-18167500D01*
X7667857Y-17953214D01*
X7667857Y-18253214D01*
X7939286Y-18253214D02*
X7939286Y-18096072D01*
X7925000Y-18067500D01*
X7896428Y-18053214D01*
X7839286Y-18053214D01*
X7810714Y-18067500D01*
X7939286Y-18238929D02*
X7910714Y-18253214D01*
X7839286Y-18253214D01*
X7810714Y-18238929D01*
X7796428Y-18210357D01*
X7796428Y-18181786D01*
X7810714Y-18153214D01*
X7839286Y-18138929D01*
X7910714Y-18138929D01*
X7939286Y-18124643D01*
X8082143Y-18053214D02*
X8082143Y-18353214D01*
X8082143Y-18067500D02*
X8110714Y-18053214D01*
X8167857Y-18053214D01*
X8196428Y-18067500D01*
X8210714Y-18081786D01*
X8225000Y-18110357D01*
X8225000Y-18196072D01*
X8210714Y-18224643D01*
X8196428Y-18238929D01*
X8167857Y-18253214D01*
X8110714Y-18253214D01*
X8082143Y-18238929D01*
X8353571Y-18224643D02*
X8367857Y-18238929D01*
X8353571Y-18253214D01*
X8339286Y-18238929D01*
X8353571Y-18224643D01*
X8353571Y-18253214D01*
X8353571Y-18067500D02*
X8367857Y-18081786D01*
X8353571Y-18096072D01*
X8339286Y-18081786D01*
X8353571Y-18067500D01*
X8353571Y-18096072D01*
X5953880Y-18711940D02*
X6025000Y-18783060D01*
X6025000Y-18711940D02*
X5953880Y-18783060D01*
X6353571Y-18583214D02*
X6382143Y-18583214D01*
X6410714Y-18597500D01*
X6425000Y-18611786D01*
X6439286Y-18640357D01*
X6453571Y-18697500D01*
X6453571Y-18768929D01*
X6439286Y-18826072D01*
X6425000Y-18854643D01*
X6410714Y-18868929D01*
X6382143Y-18883214D01*
X6353571Y-18883214D01*
X6325000Y-18868929D01*
X6310714Y-18854643D01*
X6296428Y-18826072D01*
X6282143Y-18768929D01*
X6282143Y-18697500D01*
X6296428Y-18640357D01*
X6310714Y-18611786D01*
X6325000Y-18597500D01*
X6353571Y-18583214D01*
X6582143Y-18854643D02*
X6596428Y-18868929D01*
X6582143Y-18883214D01*
X6567857Y-18868929D01*
X6582143Y-18854643D01*
X6582143Y-18883214D01*
X6696428Y-18583214D02*
X6896428Y-18583214D01*
X6767857Y-18883214D01*
X7167857Y-18883214D02*
X6996428Y-18883214D01*
X7082143Y-18883214D02*
X7082143Y-18583214D01*
X7053571Y-18626072D01*
X7025000Y-18654643D01*
X6996428Y-18668929D01*
X7296428Y-18883214D02*
X7296428Y-18683214D01*
X7296428Y-18711786D02*
X7310714Y-18697500D01*
X7339286Y-18683214D01*
X7382143Y-18683214D01*
X7410714Y-18697500D01*
X7425000Y-18726072D01*
X7425000Y-18883214D01*
X7425000Y-18726072D02*
X7439286Y-18697500D01*
X7467857Y-18683214D01*
X7510714Y-18683214D01*
X7539286Y-18697500D01*
X7553571Y-18726072D01*
X7553571Y-18883214D01*
X7696428Y-18883214D02*
X7696428Y-18683214D01*
X7696428Y-18711786D02*
X7710714Y-18697500D01*
X7739286Y-18683214D01*
X7782143Y-18683214D01*
X7810714Y-18697500D01*
X7825000Y-18726072D01*
X7825000Y-18883214D01*
X7825000Y-18726072D02*
X7839286Y-18697500D01*
X7867857Y-18683214D01*
X7910714Y-18683214D01*
X7939286Y-18697500D01*
X7953571Y-18726072D01*
X7953571Y-18883214D01*
X8539286Y-18568929D02*
X8282143Y-18954643D01*
X8925000Y-18583214D02*
X8953571Y-18583214D01*
X8982143Y-18597500D01*
X8996428Y-18611786D01*
X9010714Y-18640357D01*
X9025000Y-18697500D01*
X9025000Y-18768929D01*
X9010714Y-18826072D01*
X8996428Y-18854643D01*
X8982143Y-18868929D01*
X8953571Y-18883214D01*
X8925000Y-18883214D01*
X8896428Y-18868929D01*
X8882143Y-18854643D01*
X8867857Y-18826072D01*
X8853571Y-18768929D01*
X8853571Y-18697500D01*
X8867857Y-18640357D01*
X8882143Y-18611786D01*
X8896428Y-18597500D01*
X8925000Y-18583214D01*
X9153571Y-18854643D02*
X9167857Y-18868929D01*
X9153571Y-18883214D01*
X9139286Y-18868929D01*
X9153571Y-18854643D01*
X9153571Y-18883214D01*
X9353571Y-18583214D02*
X9382143Y-18583214D01*
X9410714Y-18597500D01*
X9425000Y-18611786D01*
X9439286Y-18640357D01*
X9453571Y-18697500D01*
X9453571Y-18768929D01*
X9439286Y-18826072D01*
X9425000Y-18854643D01*
X9410714Y-18868929D01*
X9382143Y-18883214D01*
X9353571Y-18883214D01*
X9325000Y-18868929D01*
X9310714Y-18854643D01*
X9296428Y-18826072D01*
X9282143Y-18768929D01*
X9282143Y-18697500D01*
X9296428Y-18640357D01*
X9310714Y-18611786D01*
X9325000Y-18597500D01*
X9353571Y-18583214D01*
X9567857Y-18611786D02*
X9582143Y-18597500D01*
X9610714Y-18583214D01*
X9682143Y-18583214D01*
X9710714Y-18597500D01*
X9725000Y-18611786D01*
X9739286Y-18640357D01*
X9739286Y-18668929D01*
X9725000Y-18711786D01*
X9553571Y-18883214D01*
X9739286Y-18883214D01*
X9910714Y-18711786D02*
X9882143Y-18697500D01*
X9867857Y-18683214D01*
X9853571Y-18654643D01*
X9853571Y-18640357D01*
X9867857Y-18611786D01*
X9882143Y-18597500D01*
X9910714Y-18583214D01*
X9967857Y-18583214D01*
X9996428Y-18597500D01*
X10010714Y-18611786D01*
X10025000Y-18640357D01*
X10025000Y-18654643D01*
X10010714Y-18683214D01*
X9996428Y-18697500D01*
X9967857Y-18711786D01*
X9910714Y-18711786D01*
X9882143Y-18726072D01*
X9867857Y-18740357D01*
X9853571Y-18768929D01*
X9853571Y-18826072D01*
X9867857Y-18854643D01*
X9882143Y-18868929D01*
X9910714Y-18883214D01*
X9967857Y-18883214D01*
X9996428Y-18868929D01*
X10010714Y-18854643D01*
X10025000Y-18826072D01*
X10025000Y-18768929D01*
X10010714Y-18740357D01*
X9996428Y-18726072D01*
X9967857Y-18711786D01*
X10139286Y-18583214D02*
X10139286Y-18640357D01*
X10253571Y-18583214D02*
X10253571Y-18640357D01*
X10696428Y-18997500D02*
X10682143Y-18983214D01*
X10653571Y-18940357D01*
X10639286Y-18911786D01*
X10625000Y-18868929D01*
X10610714Y-18797500D01*
X10610714Y-18740357D01*
X10625000Y-18668929D01*
X10639286Y-18626072D01*
X10653571Y-18597500D01*
X10682143Y-18554643D01*
X10696428Y-18540357D01*
X10967857Y-18883214D02*
X10796428Y-18883214D01*
X10882143Y-18883214D02*
X10882143Y-18583214D01*
X10853571Y-18626072D01*
X10825000Y-18654643D01*
X10796428Y-18668929D01*
X11225000Y-18683214D02*
X11225000Y-18883214D01*
X11153571Y-18568929D02*
X11082143Y-18783214D01*
X11267857Y-18783214D01*
X11610714Y-18883214D02*
X11610714Y-18583214D01*
X11739285Y-18883214D02*
X11739285Y-18726072D01*
X11725000Y-18697500D01*
X11696428Y-18683214D01*
X11653571Y-18683214D01*
X11625000Y-18697500D01*
X11610714Y-18711786D01*
X11925000Y-18883214D02*
X11896428Y-18868929D01*
X11882143Y-18854643D01*
X11867857Y-18826072D01*
X11867857Y-18740357D01*
X11882143Y-18711786D01*
X11896428Y-18697500D01*
X11925000Y-18683214D01*
X11967857Y-18683214D01*
X11996428Y-18697500D01*
X12010714Y-18711786D01*
X12025000Y-18740357D01*
X12025000Y-18826072D01*
X12010714Y-18854643D01*
X11996428Y-18868929D01*
X11967857Y-18883214D01*
X11925000Y-18883214D01*
X12196428Y-18883214D02*
X12167857Y-18868929D01*
X12153571Y-18840357D01*
X12153571Y-18583214D01*
X12425000Y-18868929D02*
X12396428Y-18883214D01*
X12339286Y-18883214D01*
X12310714Y-18868929D01*
X12296428Y-18840357D01*
X12296428Y-18726072D01*
X12310714Y-18697500D01*
X12339286Y-18683214D01*
X12396428Y-18683214D01*
X12425000Y-18697500D01*
X12439286Y-18726072D01*
X12439286Y-18754643D01*
X12296428Y-18783214D01*
X12553571Y-18868929D02*
X12582143Y-18883214D01*
X12639286Y-18883214D01*
X12667857Y-18868929D01*
X12682143Y-18840357D01*
X12682143Y-18826072D01*
X12667857Y-18797500D01*
X12639286Y-18783214D01*
X12596428Y-18783214D01*
X12567857Y-18768929D01*
X12553571Y-18740357D01*
X12553571Y-18726072D01*
X12567857Y-18697500D01*
X12596428Y-18683214D01*
X12639286Y-18683214D01*
X12667857Y-18697500D01*
X12782143Y-18997500D02*
X12796428Y-18983214D01*
X12825000Y-18940357D01*
X12839286Y-18911786D01*
X12853571Y-18868929D01*
X12867857Y-18797500D01*
X12867857Y-18740357D01*
X12853571Y-18668929D01*
X12839286Y-18626072D01*
X12825000Y-18597500D01*
X12796428Y-18554643D01*
X12782143Y-18540357D01*
X6025000Y-19143500D02*
G75*
G03X6025000Y-19143500I-40000J0D01*
G01*
X6353571Y-18979214D02*
X6382143Y-18979214D01*
X6410714Y-18993500D01*
X6425000Y-19007786D01*
X6439286Y-19036357D01*
X6453571Y-19093500D01*
X6453571Y-19164929D01*
X6439286Y-19222072D01*
X6425000Y-19250643D01*
X6410714Y-19264929D01*
X6382143Y-19279214D01*
X6353571Y-19279214D01*
X6325000Y-19264929D01*
X6310714Y-19250643D01*
X6296428Y-19222072D01*
X6282143Y-19164929D01*
X6282143Y-19093500D01*
X6296428Y-19036357D01*
X6310714Y-19007786D01*
X6325000Y-18993500D01*
X6353571Y-18979214D01*
X6582143Y-19250643D02*
X6596428Y-19264929D01*
X6582143Y-19279214D01*
X6567857Y-19264929D01*
X6582143Y-19250643D01*
X6582143Y-19279214D01*
X6767857Y-19107786D02*
X6739286Y-19093500D01*
X6725000Y-19079214D01*
X6710714Y-19050643D01*
X6710714Y-19036357D01*
X6725000Y-19007786D01*
X6739286Y-18993500D01*
X6767857Y-18979214D01*
X6825000Y-18979214D01*
X6853571Y-18993500D01*
X6867857Y-19007786D01*
X6882143Y-19036357D01*
X6882143Y-19050643D01*
X6867857Y-19079214D01*
X6853571Y-19093500D01*
X6825000Y-19107786D01*
X6767857Y-19107786D01*
X6739286Y-19122072D01*
X6725000Y-19136357D01*
X6710714Y-19164929D01*
X6710714Y-19222072D01*
X6725000Y-19250643D01*
X6739286Y-19264929D01*
X6767857Y-19279214D01*
X6825000Y-19279214D01*
X6853571Y-19264929D01*
X6867857Y-19250643D01*
X6882143Y-19222072D01*
X6882143Y-19164929D01*
X6867857Y-19136357D01*
X6853571Y-19122072D01*
X6825000Y-19107786D01*
X7067857Y-18979214D02*
X7096428Y-18979214D01*
X7125000Y-18993500D01*
X7139286Y-19007786D01*
X7153571Y-19036357D01*
X7167857Y-19093500D01*
X7167857Y-19164929D01*
X7153571Y-19222072D01*
X7139286Y-19250643D01*
X7125000Y-19264929D01*
X7096428Y-19279214D01*
X7067857Y-19279214D01*
X7039286Y-19264929D01*
X7025000Y-19250643D01*
X7010714Y-19222072D01*
X6996428Y-19164929D01*
X6996428Y-19093500D01*
X7010714Y-19036357D01*
X7025000Y-19007786D01*
X7039286Y-18993500D01*
X7067857Y-18979214D01*
X7296428Y-19279214D02*
X7296428Y-19079214D01*
X7296428Y-19107786D02*
X7310714Y-19093500D01*
X7339286Y-19079214D01*
X7382143Y-19079214D01*
X7410714Y-19093500D01*
X7425000Y-19122072D01*
X7425000Y-19279214D01*
X7425000Y-19122072D02*
X7439286Y-19093500D01*
X7467857Y-19079214D01*
X7510714Y-19079214D01*
X7539286Y-19093500D01*
X7553571Y-19122072D01*
X7553571Y-19279214D01*
X7696428Y-19279214D02*
X7696428Y-19079214D01*
X7696428Y-19107786D02*
X7710714Y-19093500D01*
X7739286Y-19079214D01*
X7782143Y-19079214D01*
X7810714Y-19093500D01*
X7825000Y-19122072D01*
X7825000Y-19279214D01*
X7825000Y-19122072D02*
X7839286Y-19093500D01*
X7867857Y-19079214D01*
X7910714Y-19079214D01*
X7939286Y-19093500D01*
X7953571Y-19122072D01*
X7953571Y-19279214D01*
X8539286Y-18964929D02*
X8282143Y-19350643D01*
X8925000Y-18979214D02*
X8953571Y-18979214D01*
X8982143Y-18993500D01*
X8996428Y-19007786D01*
X9010714Y-19036357D01*
X9025000Y-19093500D01*
X9025000Y-19164929D01*
X9010714Y-19222072D01*
X8996428Y-19250643D01*
X8982143Y-19264929D01*
X8953571Y-19279214D01*
X8925000Y-19279214D01*
X8896428Y-19264929D01*
X8882143Y-19250643D01*
X8867857Y-19222072D01*
X8853571Y-19164929D01*
X8853571Y-19093500D01*
X8867857Y-19036357D01*
X8882143Y-19007786D01*
X8896428Y-18993500D01*
X8925000Y-18979214D01*
X9153571Y-19250643D02*
X9167857Y-19264929D01*
X9153571Y-19279214D01*
X9139286Y-19264929D01*
X9153571Y-19250643D01*
X9153571Y-19279214D01*
X9353571Y-18979214D02*
X9382143Y-18979214D01*
X9410714Y-18993500D01*
X9425000Y-19007786D01*
X9439286Y-19036357D01*
X9453571Y-19093500D01*
X9453571Y-19164929D01*
X9439286Y-19222072D01*
X9425000Y-19250643D01*
X9410714Y-19264929D01*
X9382143Y-19279214D01*
X9353571Y-19279214D01*
X9325000Y-19264929D01*
X9310714Y-19250643D01*
X9296428Y-19222072D01*
X9282143Y-19164929D01*
X9282143Y-19093500D01*
X9296428Y-19036357D01*
X9310714Y-19007786D01*
X9325000Y-18993500D01*
X9353571Y-18979214D01*
X9553571Y-18979214D02*
X9739286Y-18979214D01*
X9639286Y-19093500D01*
X9682143Y-19093500D01*
X9710714Y-19107786D01*
X9725000Y-19122072D01*
X9739286Y-19150643D01*
X9739286Y-19222072D01*
X9725000Y-19250643D01*
X9710714Y-19264929D01*
X9682143Y-19279214D01*
X9596428Y-19279214D01*
X9567857Y-19264929D01*
X9553571Y-19250643D01*
X10025000Y-19279214D02*
X9853571Y-19279214D01*
X9939286Y-19279214D02*
X9939286Y-18979214D01*
X9910714Y-19022072D01*
X9882143Y-19050643D01*
X9853571Y-19064929D01*
X10139286Y-18979214D02*
X10139286Y-19036357D01*
X10253571Y-18979214D02*
X10253571Y-19036357D01*
X10696428Y-19393500D02*
X10682143Y-19379214D01*
X10653571Y-19336357D01*
X10639286Y-19307786D01*
X10625000Y-19264929D01*
X10610714Y-19193500D01*
X10610714Y-19136357D01*
X10625000Y-19064929D01*
X10639286Y-19022072D01*
X10653571Y-18993500D01*
X10682143Y-18950643D01*
X10696428Y-18936357D01*
X10939286Y-18979214D02*
X10882143Y-18979214D01*
X10853571Y-18993500D01*
X10839286Y-19007786D01*
X10810714Y-19050643D01*
X10796428Y-19107786D01*
X10796428Y-19222072D01*
X10810714Y-19250643D01*
X10825000Y-19264929D01*
X10853571Y-19279214D01*
X10910714Y-19279214D01*
X10939286Y-19264929D01*
X10953571Y-19250643D01*
X10967857Y-19222072D01*
X10967857Y-19150643D01*
X10953571Y-19122072D01*
X10939286Y-19107786D01*
X10910714Y-19093500D01*
X10853571Y-19093500D01*
X10825000Y-19107786D01*
X10810714Y-19122072D01*
X10796428Y-19150643D01*
X11225000Y-18979214D02*
X11167857Y-18979214D01*
X11139286Y-18993500D01*
X11125000Y-19007786D01*
X11096428Y-19050643D01*
X11082143Y-19107786D01*
X11082143Y-19222072D01*
X11096428Y-19250643D01*
X11110714Y-19264929D01*
X11139286Y-19279214D01*
X11196428Y-19279214D01*
X11225000Y-19264929D01*
X11239285Y-19250643D01*
X11253571Y-19222072D01*
X11253571Y-19150643D01*
X11239285Y-19122072D01*
X11225000Y-19107786D01*
X11196428Y-19093500D01*
X11139286Y-19093500D01*
X11110714Y-19107786D01*
X11096428Y-19122072D01*
X11082143Y-19150643D01*
X11610714Y-19279214D02*
X11610714Y-18979214D01*
X11739285Y-19279214D02*
X11739285Y-19122072D01*
X11725000Y-19093500D01*
X11696428Y-19079214D01*
X11653571Y-19079214D01*
X11625000Y-19093500D01*
X11610714Y-19107786D01*
X11925000Y-19279214D02*
X11896428Y-19264929D01*
X11882143Y-19250643D01*
X11867857Y-19222072D01*
X11867857Y-19136357D01*
X11882143Y-19107786D01*
X11896428Y-19093500D01*
X11925000Y-19079214D01*
X11967857Y-19079214D01*
X11996428Y-19093500D01*
X12010714Y-19107786D01*
X12025000Y-19136357D01*
X12025000Y-19222072D01*
X12010714Y-19250643D01*
X11996428Y-19264929D01*
X11967857Y-19279214D01*
X11925000Y-19279214D01*
X12196428Y-19279214D02*
X12167857Y-19264929D01*
X12153571Y-19236357D01*
X12153571Y-18979214D01*
X12425000Y-19264929D02*
X12396428Y-19279214D01*
X12339286Y-19279214D01*
X12310714Y-19264929D01*
X12296428Y-19236357D01*
X12296428Y-19122072D01*
X12310714Y-19093500D01*
X12339286Y-19079214D01*
X12396428Y-19079214D01*
X12425000Y-19093500D01*
X12439286Y-19122072D01*
X12439286Y-19150643D01*
X12296428Y-19179214D01*
X12553571Y-19264929D02*
X12582143Y-19279214D01*
X12639286Y-19279214D01*
X12667857Y-19264929D01*
X12682143Y-19236357D01*
X12682143Y-19222072D01*
X12667857Y-19193500D01*
X12639286Y-19179214D01*
X12596428Y-19179214D01*
X12567857Y-19164929D01*
X12553571Y-19136357D01*
X12553571Y-19122072D01*
X12567857Y-19093500D01*
X12596428Y-19079214D01*
X12639286Y-19079214D01*
X12667857Y-19093500D01*
X12782143Y-19393500D02*
X12796428Y-19379214D01*
X12825000Y-19336357D01*
X12839286Y-19307786D01*
X12853571Y-19264929D01*
X12867857Y-19193500D01*
X12867857Y-19136357D01*
X12853571Y-19064929D01*
X12839286Y-19022072D01*
X12825000Y-18993500D01*
X12796428Y-18950643D01*
X12782143Y-18936357D01*
X5984360Y-19498860D02*
X5984360Y-19580140D01*
X5943720Y-19539500D02*
X6025000Y-19539500D01*
X6353571Y-19375214D02*
X6382143Y-19375214D01*
X6410714Y-19389500D01*
X6425000Y-19403786D01*
X6439286Y-19432357D01*
X6453571Y-19489500D01*
X6453571Y-19560929D01*
X6439286Y-19618072D01*
X6425000Y-19646643D01*
X6410714Y-19660929D01*
X6382143Y-19675214D01*
X6353571Y-19675214D01*
X6325000Y-19660929D01*
X6310714Y-19646643D01*
X6296428Y-19618072D01*
X6282143Y-19560929D01*
X6282143Y-19489500D01*
X6296428Y-19432357D01*
X6310714Y-19403786D01*
X6325000Y-19389500D01*
X6353571Y-19375214D01*
X6582143Y-19646643D02*
X6596428Y-19660929D01*
X6582143Y-19675214D01*
X6567857Y-19660929D01*
X6582143Y-19646643D01*
X6582143Y-19675214D01*
X6767857Y-19503786D02*
X6739286Y-19489500D01*
X6725000Y-19475214D01*
X6710714Y-19446643D01*
X6710714Y-19432357D01*
X6725000Y-19403786D01*
X6739286Y-19389500D01*
X6767857Y-19375214D01*
X6825000Y-19375214D01*
X6853571Y-19389500D01*
X6867857Y-19403786D01*
X6882143Y-19432357D01*
X6882143Y-19446643D01*
X6867857Y-19475214D01*
X6853571Y-19489500D01*
X6825000Y-19503786D01*
X6767857Y-19503786D01*
X6739286Y-19518072D01*
X6725000Y-19532357D01*
X6710714Y-19560929D01*
X6710714Y-19618072D01*
X6725000Y-19646643D01*
X6739286Y-19660929D01*
X6767857Y-19675214D01*
X6825000Y-19675214D01*
X6853571Y-19660929D01*
X6867857Y-19646643D01*
X6882143Y-19618072D01*
X6882143Y-19560929D01*
X6867857Y-19532357D01*
X6853571Y-19518072D01*
X6825000Y-19503786D01*
X7167857Y-19675214D02*
X6996428Y-19675214D01*
X7082143Y-19675214D02*
X7082143Y-19375214D01*
X7053571Y-19418072D01*
X7025000Y-19446643D01*
X6996428Y-19460929D01*
X7296428Y-19675214D02*
X7296428Y-19475214D01*
X7296428Y-19503786D02*
X7310714Y-19489500D01*
X7339286Y-19475214D01*
X7382143Y-19475214D01*
X7410714Y-19489500D01*
X7425000Y-19518072D01*
X7425000Y-19675214D01*
X7425000Y-19518072D02*
X7439286Y-19489500D01*
X7467857Y-19475214D01*
X7510714Y-19475214D01*
X7539286Y-19489500D01*
X7553571Y-19518072D01*
X7553571Y-19675214D01*
X7696428Y-19675214D02*
X7696428Y-19475214D01*
X7696428Y-19503786D02*
X7710714Y-19489500D01*
X7739286Y-19475214D01*
X7782143Y-19475214D01*
X7810714Y-19489500D01*
X7825000Y-19518072D01*
X7825000Y-19675214D01*
X7825000Y-19518072D02*
X7839286Y-19489500D01*
X7867857Y-19475214D01*
X7910714Y-19475214D01*
X7939286Y-19489500D01*
X7953571Y-19518072D01*
X7953571Y-19675214D01*
X8539286Y-19360929D02*
X8282143Y-19746643D01*
X8925000Y-19375214D02*
X8953571Y-19375214D01*
X8982143Y-19389500D01*
X8996428Y-19403786D01*
X9010714Y-19432357D01*
X9025000Y-19489500D01*
X9025000Y-19560929D01*
X9010714Y-19618072D01*
X8996428Y-19646643D01*
X8982143Y-19660929D01*
X8953571Y-19675214D01*
X8925000Y-19675214D01*
X8896428Y-19660929D01*
X8882143Y-19646643D01*
X8867857Y-19618072D01*
X8853571Y-19560929D01*
X8853571Y-19489500D01*
X8867857Y-19432357D01*
X8882143Y-19403786D01*
X8896428Y-19389500D01*
X8925000Y-19375214D01*
X9153571Y-19646643D02*
X9167857Y-19660929D01*
X9153571Y-19675214D01*
X9139286Y-19660929D01*
X9153571Y-19646643D01*
X9153571Y-19675214D01*
X9353571Y-19375214D02*
X9382143Y-19375214D01*
X9410714Y-19389500D01*
X9425000Y-19403786D01*
X9439286Y-19432357D01*
X9453571Y-19489500D01*
X9453571Y-19560929D01*
X9439286Y-19618072D01*
X9425000Y-19646643D01*
X9410714Y-19660929D01*
X9382143Y-19675214D01*
X9353571Y-19675214D01*
X9325000Y-19660929D01*
X9310714Y-19646643D01*
X9296428Y-19618072D01*
X9282143Y-19560929D01*
X9282143Y-19489500D01*
X9296428Y-19432357D01*
X9310714Y-19403786D01*
X9325000Y-19389500D01*
X9353571Y-19375214D01*
X9553571Y-19375214D02*
X9739286Y-19375214D01*
X9639286Y-19489500D01*
X9682143Y-19489500D01*
X9710714Y-19503786D01*
X9725000Y-19518072D01*
X9739286Y-19546643D01*
X9739286Y-19618072D01*
X9725000Y-19646643D01*
X9710714Y-19660929D01*
X9682143Y-19675214D01*
X9596428Y-19675214D01*
X9567857Y-19660929D01*
X9553571Y-19646643D01*
X9853571Y-19403786D02*
X9867857Y-19389500D01*
X9896428Y-19375214D01*
X9967857Y-19375214D01*
X9996428Y-19389500D01*
X10010714Y-19403786D01*
X10025000Y-19432357D01*
X10025000Y-19460929D01*
X10010714Y-19503786D01*
X9839286Y-19675214D01*
X10025000Y-19675214D01*
X10139286Y-19375214D02*
X10139286Y-19432357D01*
X10253571Y-19375214D02*
X10253571Y-19432357D01*
X10696428Y-19789500D02*
X10682143Y-19775214D01*
X10653571Y-19732357D01*
X10639286Y-19703786D01*
X10625000Y-19660929D01*
X10610714Y-19589500D01*
X10610714Y-19532357D01*
X10625000Y-19460929D01*
X10639286Y-19418072D01*
X10653571Y-19389500D01*
X10682143Y-19346643D01*
X10696428Y-19332357D01*
X10782143Y-19375214D02*
X10967857Y-19375214D01*
X10867857Y-19489500D01*
X10910714Y-19489500D01*
X10939286Y-19503786D01*
X10953571Y-19518072D01*
X10967857Y-19546643D01*
X10967857Y-19618072D01*
X10953571Y-19646643D01*
X10939286Y-19660929D01*
X10910714Y-19675214D01*
X10825000Y-19675214D01*
X10796428Y-19660929D01*
X10782143Y-19646643D01*
X11325000Y-19675214D02*
X11325000Y-19375214D01*
X11453571Y-19675214D02*
X11453571Y-19518072D01*
X11439285Y-19489500D01*
X11410714Y-19475214D01*
X11367857Y-19475214D01*
X11339285Y-19489500D01*
X11325000Y-19503786D01*
X11639285Y-19675214D02*
X11610714Y-19660929D01*
X11596428Y-19646643D01*
X11582143Y-19618072D01*
X11582143Y-19532357D01*
X11596428Y-19503786D01*
X11610714Y-19489500D01*
X11639285Y-19475214D01*
X11682143Y-19475214D01*
X11710714Y-19489500D01*
X11725000Y-19503786D01*
X11739285Y-19532357D01*
X11739285Y-19618072D01*
X11725000Y-19646643D01*
X11710714Y-19660929D01*
X11682143Y-19675214D01*
X11639285Y-19675214D01*
X11910714Y-19675214D02*
X11882143Y-19660929D01*
X11867857Y-19632357D01*
X11867857Y-19375214D01*
X12139286Y-19660929D02*
X12110714Y-19675214D01*
X12053571Y-19675214D01*
X12025000Y-19660929D01*
X12010714Y-19632357D01*
X12010714Y-19518072D01*
X12025000Y-19489500D01*
X12053571Y-19475214D01*
X12110714Y-19475214D01*
X12139286Y-19489500D01*
X12153571Y-19518072D01*
X12153571Y-19546643D01*
X12010714Y-19575214D01*
X12267857Y-19660929D02*
X12296428Y-19675214D01*
X12353571Y-19675214D01*
X12382143Y-19660929D01*
X12396428Y-19632357D01*
X12396428Y-19618072D01*
X12382143Y-19589500D01*
X12353571Y-19575214D01*
X12310714Y-19575214D01*
X12282143Y-19560929D01*
X12267857Y-19532357D01*
X12267857Y-19518072D01*
X12282143Y-19489500D01*
X12310714Y-19475214D01*
X12353571Y-19475214D01*
X12382143Y-19489500D01*
X12496428Y-19789500D02*
X12510714Y-19775214D01*
X12539286Y-19732357D01*
X12553571Y-19703786D01*
X12567857Y-19660929D01*
X12582143Y-19589500D01*
X12582143Y-19532357D01*
X12567857Y-19460929D01*
X12553571Y-19418072D01*
X12539286Y-19389500D01*
X12510714Y-19346643D01*
X12496428Y-19332357D01*
X6010356Y-19970856D02*
X6010356Y-19900144D01*
X5939644Y-19900144D01*
X5939644Y-19970856D01*
X6010356Y-19970856D01*
X6453571Y-20071214D02*
X6282143Y-20071214D01*
X6367857Y-20071214D02*
X6367857Y-19771214D01*
X6339286Y-19814072D01*
X6310714Y-19842643D01*
X6282143Y-19856929D01*
X6582143Y-20042643D02*
X6596428Y-20056929D01*
X6582143Y-20071214D01*
X6567857Y-20056929D01*
X6582143Y-20042643D01*
X6582143Y-20071214D01*
X6782143Y-19771214D02*
X6810714Y-19771214D01*
X6839286Y-19785500D01*
X6853571Y-19799786D01*
X6867857Y-19828357D01*
X6882143Y-19885500D01*
X6882143Y-19956929D01*
X6867857Y-20014072D01*
X6853571Y-20042643D01*
X6839286Y-20056929D01*
X6810714Y-20071214D01*
X6782143Y-20071214D01*
X6753571Y-20056929D01*
X6739286Y-20042643D01*
X6725000Y-20014072D01*
X6710714Y-19956929D01*
X6710714Y-19885500D01*
X6725000Y-19828357D01*
X6739286Y-19799786D01*
X6753571Y-19785500D01*
X6782143Y-19771214D01*
X7067857Y-19771214D02*
X7096428Y-19771214D01*
X7125000Y-19785500D01*
X7139286Y-19799786D01*
X7153571Y-19828357D01*
X7167857Y-19885500D01*
X7167857Y-19956929D01*
X7153571Y-20014072D01*
X7139286Y-20042643D01*
X7125000Y-20056929D01*
X7096428Y-20071214D01*
X7067857Y-20071214D01*
X7039286Y-20056929D01*
X7025000Y-20042643D01*
X7010714Y-20014072D01*
X6996428Y-19956929D01*
X6996428Y-19885500D01*
X7010714Y-19828357D01*
X7025000Y-19799786D01*
X7039286Y-19785500D01*
X7067857Y-19771214D01*
X7296428Y-20071214D02*
X7296428Y-19871214D01*
X7296428Y-19899786D02*
X7310714Y-19885500D01*
X7339286Y-19871214D01*
X7382143Y-19871214D01*
X7410714Y-19885500D01*
X7425000Y-19914072D01*
X7425000Y-20071214D01*
X7425000Y-19914072D02*
X7439286Y-19885500D01*
X7467857Y-19871214D01*
X7510714Y-19871214D01*
X7539286Y-19885500D01*
X7553571Y-19914072D01*
X7553571Y-20071214D01*
X7696428Y-20071214D02*
X7696428Y-19871214D01*
X7696428Y-19899786D02*
X7710714Y-19885500D01*
X7739286Y-19871214D01*
X7782143Y-19871214D01*
X7810714Y-19885500D01*
X7825000Y-19914072D01*
X7825000Y-20071214D01*
X7825000Y-19914072D02*
X7839286Y-19885500D01*
X7867857Y-19871214D01*
X7910714Y-19871214D01*
X7939286Y-19885500D01*
X7953571Y-19914072D01*
X7953571Y-20071214D01*
X8539286Y-19756929D02*
X8282143Y-20142643D01*
X8925000Y-19771214D02*
X8953571Y-19771214D01*
X8982143Y-19785500D01*
X8996428Y-19799786D01*
X9010714Y-19828357D01*
X9025000Y-19885500D01*
X9025000Y-19956929D01*
X9010714Y-20014072D01*
X8996428Y-20042643D01*
X8982143Y-20056929D01*
X8953571Y-20071214D01*
X8925000Y-20071214D01*
X8896428Y-20056929D01*
X8882143Y-20042643D01*
X8867857Y-20014072D01*
X8853571Y-19956929D01*
X8853571Y-19885500D01*
X8867857Y-19828357D01*
X8882143Y-19799786D01*
X8896428Y-19785500D01*
X8925000Y-19771214D01*
X9153571Y-20042643D02*
X9167857Y-20056929D01*
X9153571Y-20071214D01*
X9139286Y-20056929D01*
X9153571Y-20042643D01*
X9153571Y-20071214D01*
X9353571Y-19771214D02*
X9382143Y-19771214D01*
X9410714Y-19785500D01*
X9425000Y-19799786D01*
X9439286Y-19828357D01*
X9453571Y-19885500D01*
X9453571Y-19956929D01*
X9439286Y-20014072D01*
X9425000Y-20042643D01*
X9410714Y-20056929D01*
X9382143Y-20071214D01*
X9353571Y-20071214D01*
X9325000Y-20056929D01*
X9310714Y-20042643D01*
X9296428Y-20014072D01*
X9282143Y-19956929D01*
X9282143Y-19885500D01*
X9296428Y-19828357D01*
X9310714Y-19799786D01*
X9325000Y-19785500D01*
X9353571Y-19771214D01*
X9553571Y-19771214D02*
X9739286Y-19771214D01*
X9639286Y-19885500D01*
X9682143Y-19885500D01*
X9710714Y-19899786D01*
X9725000Y-19914072D01*
X9739286Y-19942643D01*
X9739286Y-20014072D01*
X9725000Y-20042643D01*
X9710714Y-20056929D01*
X9682143Y-20071214D01*
X9596428Y-20071214D01*
X9567857Y-20056929D01*
X9553571Y-20042643D01*
X9882143Y-20071214D02*
X9939286Y-20071214D01*
X9967857Y-20056929D01*
X9982143Y-20042643D01*
X10010714Y-19999786D01*
X10025000Y-19942643D01*
X10025000Y-19828357D01*
X10010714Y-19799786D01*
X9996428Y-19785500D01*
X9967857Y-19771214D01*
X9910714Y-19771214D01*
X9882143Y-19785500D01*
X9867857Y-19799786D01*
X9853571Y-19828357D01*
X9853571Y-19899786D01*
X9867857Y-19928357D01*
X9882143Y-19942643D01*
X9910714Y-19956929D01*
X9967857Y-19956929D01*
X9996428Y-19942643D01*
X10010714Y-19928357D01*
X10025000Y-19899786D01*
X10139286Y-19771214D02*
X10139286Y-19828357D01*
X10253571Y-19771214D02*
X10253571Y-19828357D01*
X10696428Y-20185500D02*
X10682143Y-20171214D01*
X10653571Y-20128357D01*
X10639286Y-20099786D01*
X10625000Y-20056929D01*
X10610714Y-19985500D01*
X10610714Y-19928357D01*
X10625000Y-19856929D01*
X10639286Y-19814072D01*
X10653571Y-19785500D01*
X10682143Y-19742643D01*
X10696428Y-19728357D01*
X10825000Y-20071214D02*
X10882143Y-20071214D01*
X10910714Y-20056929D01*
X10925000Y-20042643D01*
X10953571Y-19999786D01*
X10967857Y-19942643D01*
X10967857Y-19828357D01*
X10953571Y-19799786D01*
X10939286Y-19785500D01*
X10910714Y-19771214D01*
X10853571Y-19771214D01*
X10825000Y-19785500D01*
X10810714Y-19799786D01*
X10796428Y-19828357D01*
X10796428Y-19899786D01*
X10810714Y-19928357D01*
X10825000Y-19942643D01*
X10853571Y-19956929D01*
X10910714Y-19956929D01*
X10939286Y-19942643D01*
X10953571Y-19928357D01*
X10967857Y-19899786D01*
X11325000Y-20071214D02*
X11325000Y-19771214D01*
X11453571Y-20071214D02*
X11453571Y-19914072D01*
X11439285Y-19885500D01*
X11410714Y-19871214D01*
X11367857Y-19871214D01*
X11339285Y-19885500D01*
X11325000Y-19899786D01*
X11639285Y-20071214D02*
X11610714Y-20056929D01*
X11596428Y-20042643D01*
X11582143Y-20014072D01*
X11582143Y-19928357D01*
X11596428Y-19899786D01*
X11610714Y-19885500D01*
X11639285Y-19871214D01*
X11682143Y-19871214D01*
X11710714Y-19885500D01*
X11725000Y-19899786D01*
X11739285Y-19928357D01*
X11739285Y-20014072D01*
X11725000Y-20042643D01*
X11710714Y-20056929D01*
X11682143Y-20071214D01*
X11639285Y-20071214D01*
X11910714Y-20071214D02*
X11882143Y-20056929D01*
X11867857Y-20028357D01*
X11867857Y-19771214D01*
X12139286Y-20056929D02*
X12110714Y-20071214D01*
X12053571Y-20071214D01*
X12025000Y-20056929D01*
X12010714Y-20028357D01*
X12010714Y-19914072D01*
X12025000Y-19885500D01*
X12053571Y-19871214D01*
X12110714Y-19871214D01*
X12139286Y-19885500D01*
X12153571Y-19914072D01*
X12153571Y-19942643D01*
X12010714Y-19971214D01*
X12267857Y-20056929D02*
X12296428Y-20071214D01*
X12353571Y-20071214D01*
X12382143Y-20056929D01*
X12396428Y-20028357D01*
X12396428Y-20014072D01*
X12382143Y-19985500D01*
X12353571Y-19971214D01*
X12310714Y-19971214D01*
X12282143Y-19956929D01*
X12267857Y-19928357D01*
X12267857Y-19914072D01*
X12282143Y-19885500D01*
X12310714Y-19871214D01*
X12353571Y-19871214D01*
X12382143Y-19885500D01*
X12496428Y-20185500D02*
X12510714Y-20171214D01*
X12539286Y-20128357D01*
X12553571Y-20099786D01*
X12567857Y-20056929D01*
X12582143Y-19985500D01*
X12582143Y-19928357D01*
X12567857Y-19856929D01*
X12553571Y-19814072D01*
X12539286Y-19785500D01*
X12510714Y-19742643D01*
X12496428Y-19728357D01*
X5974962Y-20381538D02*
X6025000Y-20331500D01*
X5974962Y-20281462D01*
X5924924Y-20331500D01*
X5974962Y-20381538D01*
X6453571Y-20467214D02*
X6282143Y-20467214D01*
X6367857Y-20467214D02*
X6367857Y-20167214D01*
X6339286Y-20210072D01*
X6310714Y-20238643D01*
X6282143Y-20252929D01*
X6582143Y-20438643D02*
X6596428Y-20452929D01*
X6582143Y-20467214D01*
X6567857Y-20452929D01*
X6582143Y-20438643D01*
X6582143Y-20467214D01*
X6782143Y-20167214D02*
X6810714Y-20167214D01*
X6839286Y-20181500D01*
X6853571Y-20195786D01*
X6867857Y-20224357D01*
X6882143Y-20281500D01*
X6882143Y-20352929D01*
X6867857Y-20410072D01*
X6853571Y-20438643D01*
X6839286Y-20452929D01*
X6810714Y-20467214D01*
X6782143Y-20467214D01*
X6753571Y-20452929D01*
X6739286Y-20438643D01*
X6725000Y-20410072D01*
X6710714Y-20352929D01*
X6710714Y-20281500D01*
X6725000Y-20224357D01*
X6739286Y-20195786D01*
X6753571Y-20181500D01*
X6782143Y-20167214D01*
X7067857Y-20167214D02*
X7096428Y-20167214D01*
X7125000Y-20181500D01*
X7139286Y-20195786D01*
X7153571Y-20224357D01*
X7167857Y-20281500D01*
X7167857Y-20352929D01*
X7153571Y-20410072D01*
X7139286Y-20438643D01*
X7125000Y-20452929D01*
X7096428Y-20467214D01*
X7067857Y-20467214D01*
X7039286Y-20452929D01*
X7025000Y-20438643D01*
X7010714Y-20410072D01*
X6996428Y-20352929D01*
X6996428Y-20281500D01*
X7010714Y-20224357D01*
X7025000Y-20195786D01*
X7039286Y-20181500D01*
X7067857Y-20167214D01*
X7296428Y-20467214D02*
X7296428Y-20267214D01*
X7296428Y-20295786D02*
X7310714Y-20281500D01*
X7339286Y-20267214D01*
X7382143Y-20267214D01*
X7410714Y-20281500D01*
X7425000Y-20310072D01*
X7425000Y-20467214D01*
X7425000Y-20310072D02*
X7439286Y-20281500D01*
X7467857Y-20267214D01*
X7510714Y-20267214D01*
X7539286Y-20281500D01*
X7553571Y-20310072D01*
X7553571Y-20467214D01*
X7696428Y-20467214D02*
X7696428Y-20267214D01*
X7696428Y-20295786D02*
X7710714Y-20281500D01*
X7739286Y-20267214D01*
X7782143Y-20267214D01*
X7810714Y-20281500D01*
X7825000Y-20310072D01*
X7825000Y-20467214D01*
X7825000Y-20310072D02*
X7839286Y-20281500D01*
X7867857Y-20267214D01*
X7910714Y-20267214D01*
X7939286Y-20281500D01*
X7953571Y-20310072D01*
X7953571Y-20467214D01*
X8539286Y-20152929D02*
X8282143Y-20538643D01*
X8925000Y-20167214D02*
X8953571Y-20167214D01*
X8982143Y-20181500D01*
X8996428Y-20195786D01*
X9010714Y-20224357D01*
X9025000Y-20281500D01*
X9025000Y-20352929D01*
X9010714Y-20410072D01*
X8996428Y-20438643D01*
X8982143Y-20452929D01*
X8953571Y-20467214D01*
X8925000Y-20467214D01*
X8896428Y-20452929D01*
X8882143Y-20438643D01*
X8867857Y-20410072D01*
X8853571Y-20352929D01*
X8853571Y-20281500D01*
X8867857Y-20224357D01*
X8882143Y-20195786D01*
X8896428Y-20181500D01*
X8925000Y-20167214D01*
X9153571Y-20438643D02*
X9167857Y-20452929D01*
X9153571Y-20467214D01*
X9139286Y-20452929D01*
X9153571Y-20438643D01*
X9153571Y-20467214D01*
X9353571Y-20167214D02*
X9382143Y-20167214D01*
X9410714Y-20181500D01*
X9425000Y-20195786D01*
X9439286Y-20224357D01*
X9453571Y-20281500D01*
X9453571Y-20352929D01*
X9439286Y-20410072D01*
X9425000Y-20438643D01*
X9410714Y-20452929D01*
X9382143Y-20467214D01*
X9353571Y-20467214D01*
X9325000Y-20452929D01*
X9310714Y-20438643D01*
X9296428Y-20410072D01*
X9282143Y-20352929D01*
X9282143Y-20281500D01*
X9296428Y-20224357D01*
X9310714Y-20195786D01*
X9325000Y-20181500D01*
X9353571Y-20167214D01*
X9553571Y-20167214D02*
X9739286Y-20167214D01*
X9639286Y-20281500D01*
X9682143Y-20281500D01*
X9710714Y-20295786D01*
X9725000Y-20310072D01*
X9739286Y-20338643D01*
X9739286Y-20410072D01*
X9725000Y-20438643D01*
X9710714Y-20452929D01*
X9682143Y-20467214D01*
X9596428Y-20467214D01*
X9567857Y-20452929D01*
X9553571Y-20438643D01*
X9882143Y-20467214D02*
X9939286Y-20467214D01*
X9967857Y-20452929D01*
X9982143Y-20438643D01*
X10010714Y-20395786D01*
X10025000Y-20338643D01*
X10025000Y-20224357D01*
X10010714Y-20195786D01*
X9996428Y-20181500D01*
X9967857Y-20167214D01*
X9910714Y-20167214D01*
X9882143Y-20181500D01*
X9867857Y-20195786D01*
X9853571Y-20224357D01*
X9853571Y-20295786D01*
X9867857Y-20324357D01*
X9882143Y-20338643D01*
X9910714Y-20352929D01*
X9967857Y-20352929D01*
X9996428Y-20338643D01*
X10010714Y-20324357D01*
X10025000Y-20295786D01*
X10139286Y-20167214D02*
X10139286Y-20224357D01*
X10253571Y-20167214D02*
X10253571Y-20224357D01*
X10696428Y-20581500D02*
X10682143Y-20567214D01*
X10653571Y-20524357D01*
X10639286Y-20495786D01*
X10625000Y-20452929D01*
X10610714Y-20381500D01*
X10610714Y-20324357D01*
X10625000Y-20252929D01*
X10639286Y-20210072D01*
X10653571Y-20181500D01*
X10682143Y-20138643D01*
X10696428Y-20124357D01*
X10796428Y-20195786D02*
X10810714Y-20181500D01*
X10839286Y-20167214D01*
X10910714Y-20167214D01*
X10939286Y-20181500D01*
X10953571Y-20195786D01*
X10967857Y-20224357D01*
X10967857Y-20252929D01*
X10953571Y-20295786D01*
X10782143Y-20467214D01*
X10967857Y-20467214D01*
X11325000Y-20467214D02*
X11325000Y-20167214D01*
X11453571Y-20467214D02*
X11453571Y-20310072D01*
X11439285Y-20281500D01*
X11410714Y-20267214D01*
X11367857Y-20267214D01*
X11339285Y-20281500D01*
X11325000Y-20295786D01*
X11639285Y-20467214D02*
X11610714Y-20452929D01*
X11596428Y-20438643D01*
X11582143Y-20410072D01*
X11582143Y-20324357D01*
X11596428Y-20295786D01*
X11610714Y-20281500D01*
X11639285Y-20267214D01*
X11682143Y-20267214D01*
X11710714Y-20281500D01*
X11725000Y-20295786D01*
X11739285Y-20324357D01*
X11739285Y-20410072D01*
X11725000Y-20438643D01*
X11710714Y-20452929D01*
X11682143Y-20467214D01*
X11639285Y-20467214D01*
X11910714Y-20467214D02*
X11882143Y-20452929D01*
X11867857Y-20424357D01*
X11867857Y-20167214D01*
X12139286Y-20452929D02*
X12110714Y-20467214D01*
X12053571Y-20467214D01*
X12025000Y-20452929D01*
X12010714Y-20424357D01*
X12010714Y-20310072D01*
X12025000Y-20281500D01*
X12053571Y-20267214D01*
X12110714Y-20267214D01*
X12139286Y-20281500D01*
X12153571Y-20310072D01*
X12153571Y-20338643D01*
X12010714Y-20367214D01*
X12267857Y-20452929D02*
X12296428Y-20467214D01*
X12353571Y-20467214D01*
X12382143Y-20452929D01*
X12396428Y-20424357D01*
X12396428Y-20410072D01*
X12382143Y-20381500D01*
X12353571Y-20367214D01*
X12310714Y-20367214D01*
X12282143Y-20352929D01*
X12267857Y-20324357D01*
X12267857Y-20310072D01*
X12282143Y-20281500D01*
X12310714Y-20267214D01*
X12353571Y-20267214D01*
X12382143Y-20281500D01*
X12496428Y-20581500D02*
X12510714Y-20567214D01*
X12539286Y-20524357D01*
X12553571Y-20495786D01*
X12567857Y-20452929D01*
X12582143Y-20381500D01*
X12582143Y-20324357D01*
X12567857Y-20252929D01*
X12553571Y-20210072D01*
X12539286Y-20181500D01*
X12510714Y-20138643D01*
X12496428Y-20124357D01*
X5923400Y-20676700D02*
X6025000Y-20778300D01*
X6025000Y-20676700D02*
X5923400Y-20778300D01*
X6025000Y-20727500D02*
G75*
G03X6025000Y-20727500I-50800J0D01*
G01*
X6453571Y-20863214D02*
X6282143Y-20863214D01*
X6367857Y-20863214D02*
X6367857Y-20563214D01*
X6339286Y-20606072D01*
X6310714Y-20634643D01*
X6282143Y-20648929D01*
X6582143Y-20834643D02*
X6596428Y-20848929D01*
X6582143Y-20863214D01*
X6567857Y-20848929D01*
X6582143Y-20834643D01*
X6582143Y-20863214D01*
X6782143Y-20563214D02*
X6810714Y-20563214D01*
X6839286Y-20577500D01*
X6853571Y-20591786D01*
X6867857Y-20620357D01*
X6882143Y-20677500D01*
X6882143Y-20748929D01*
X6867857Y-20806072D01*
X6853571Y-20834643D01*
X6839286Y-20848929D01*
X6810714Y-20863214D01*
X6782143Y-20863214D01*
X6753571Y-20848929D01*
X6739286Y-20834643D01*
X6725000Y-20806072D01*
X6710714Y-20748929D01*
X6710714Y-20677500D01*
X6725000Y-20620357D01*
X6739286Y-20591786D01*
X6753571Y-20577500D01*
X6782143Y-20563214D01*
X6996428Y-20591786D02*
X7010714Y-20577500D01*
X7039286Y-20563214D01*
X7110714Y-20563214D01*
X7139286Y-20577500D01*
X7153571Y-20591786D01*
X7167857Y-20620357D01*
X7167857Y-20648929D01*
X7153571Y-20691786D01*
X6982143Y-20863214D01*
X7167857Y-20863214D01*
X7296428Y-20863214D02*
X7296428Y-20663214D01*
X7296428Y-20691786D02*
X7310714Y-20677500D01*
X7339286Y-20663214D01*
X7382143Y-20663214D01*
X7410714Y-20677500D01*
X7425000Y-20706072D01*
X7425000Y-20863214D01*
X7425000Y-20706072D02*
X7439286Y-20677500D01*
X7467857Y-20663214D01*
X7510714Y-20663214D01*
X7539286Y-20677500D01*
X7553571Y-20706072D01*
X7553571Y-20863214D01*
X7696428Y-20863214D02*
X7696428Y-20663214D01*
X7696428Y-20691786D02*
X7710714Y-20677500D01*
X7739286Y-20663214D01*
X7782143Y-20663214D01*
X7810714Y-20677500D01*
X7825000Y-20706072D01*
X7825000Y-20863214D01*
X7825000Y-20706072D02*
X7839286Y-20677500D01*
X7867857Y-20663214D01*
X7910714Y-20663214D01*
X7939286Y-20677500D01*
X7953571Y-20706072D01*
X7953571Y-20863214D01*
X8539286Y-20548929D02*
X8282143Y-20934643D01*
X8925000Y-20563214D02*
X8953571Y-20563214D01*
X8982143Y-20577500D01*
X8996428Y-20591786D01*
X9010714Y-20620357D01*
X9025000Y-20677500D01*
X9025000Y-20748929D01*
X9010714Y-20806072D01*
X8996428Y-20834643D01*
X8982143Y-20848929D01*
X8953571Y-20863214D01*
X8925000Y-20863214D01*
X8896428Y-20848929D01*
X8882143Y-20834643D01*
X8867857Y-20806072D01*
X8853571Y-20748929D01*
X8853571Y-20677500D01*
X8867857Y-20620357D01*
X8882143Y-20591786D01*
X8896428Y-20577500D01*
X8925000Y-20563214D01*
X9153571Y-20834643D02*
X9167857Y-20848929D01*
X9153571Y-20863214D01*
X9139286Y-20848929D01*
X9153571Y-20834643D01*
X9153571Y-20863214D01*
X9353571Y-20563214D02*
X9382143Y-20563214D01*
X9410714Y-20577500D01*
X9425000Y-20591786D01*
X9439286Y-20620357D01*
X9453571Y-20677500D01*
X9453571Y-20748929D01*
X9439286Y-20806072D01*
X9425000Y-20834643D01*
X9410714Y-20848929D01*
X9382143Y-20863214D01*
X9353571Y-20863214D01*
X9325000Y-20848929D01*
X9310714Y-20834643D01*
X9296428Y-20806072D01*
X9282143Y-20748929D01*
X9282143Y-20677500D01*
X9296428Y-20620357D01*
X9310714Y-20591786D01*
X9325000Y-20577500D01*
X9353571Y-20563214D01*
X9710714Y-20663214D02*
X9710714Y-20863214D01*
X9639286Y-20548929D02*
X9567857Y-20763214D01*
X9753571Y-20763214D01*
X9925000Y-20563214D02*
X9953571Y-20563214D01*
X9982143Y-20577500D01*
X9996428Y-20591786D01*
X10010714Y-20620357D01*
X10025000Y-20677500D01*
X10025000Y-20748929D01*
X10010714Y-20806072D01*
X9996428Y-20834643D01*
X9982143Y-20848929D01*
X9953571Y-20863214D01*
X9925000Y-20863214D01*
X9896428Y-20848929D01*
X9882143Y-20834643D01*
X9867857Y-20806072D01*
X9853571Y-20748929D01*
X9853571Y-20677500D01*
X9867857Y-20620357D01*
X9882143Y-20591786D01*
X9896428Y-20577500D01*
X9925000Y-20563214D01*
X10139286Y-20563214D02*
X10139286Y-20620357D01*
X10253571Y-20563214D02*
X10253571Y-20620357D01*
X10696428Y-20977500D02*
X10682143Y-20963214D01*
X10653571Y-20920357D01*
X10639286Y-20891786D01*
X10625000Y-20848929D01*
X10610714Y-20777500D01*
X10610714Y-20720357D01*
X10625000Y-20648929D01*
X10639286Y-20606072D01*
X10653571Y-20577500D01*
X10682143Y-20534643D01*
X10696428Y-20520357D01*
X10853571Y-20691786D02*
X10825000Y-20677500D01*
X10810714Y-20663214D01*
X10796428Y-20634643D01*
X10796428Y-20620357D01*
X10810714Y-20591786D01*
X10825000Y-20577500D01*
X10853571Y-20563214D01*
X10910714Y-20563214D01*
X10939286Y-20577500D01*
X10953571Y-20591786D01*
X10967857Y-20620357D01*
X10967857Y-20634643D01*
X10953571Y-20663214D01*
X10939286Y-20677500D01*
X10910714Y-20691786D01*
X10853571Y-20691786D01*
X10825000Y-20706072D01*
X10810714Y-20720357D01*
X10796428Y-20748929D01*
X10796428Y-20806072D01*
X10810714Y-20834643D01*
X10825000Y-20848929D01*
X10853571Y-20863214D01*
X10910714Y-20863214D01*
X10939286Y-20848929D01*
X10953571Y-20834643D01*
X10967857Y-20806072D01*
X10967857Y-20748929D01*
X10953571Y-20720357D01*
X10939286Y-20706072D01*
X10910714Y-20691786D01*
X11067857Y-20563214D02*
X11253571Y-20563214D01*
X11153571Y-20677500D01*
X11196428Y-20677500D01*
X11225000Y-20691786D01*
X11239285Y-20706072D01*
X11253571Y-20734643D01*
X11253571Y-20806072D01*
X11239285Y-20834643D01*
X11225000Y-20848929D01*
X11196428Y-20863214D01*
X11110714Y-20863214D01*
X11082143Y-20848929D01*
X11067857Y-20834643D01*
X11610714Y-20863214D02*
X11610714Y-20563214D01*
X11739285Y-20863214D02*
X11739285Y-20706072D01*
X11725000Y-20677500D01*
X11696428Y-20663214D01*
X11653571Y-20663214D01*
X11625000Y-20677500D01*
X11610714Y-20691786D01*
X11925000Y-20863214D02*
X11896428Y-20848929D01*
X11882143Y-20834643D01*
X11867857Y-20806072D01*
X11867857Y-20720357D01*
X11882143Y-20691786D01*
X11896428Y-20677500D01*
X11925000Y-20663214D01*
X11967857Y-20663214D01*
X11996428Y-20677500D01*
X12010714Y-20691786D01*
X12025000Y-20720357D01*
X12025000Y-20806072D01*
X12010714Y-20834643D01*
X11996428Y-20848929D01*
X11967857Y-20863214D01*
X11925000Y-20863214D01*
X12196428Y-20863214D02*
X12167857Y-20848929D01*
X12153571Y-20820357D01*
X12153571Y-20563214D01*
X12425000Y-20848929D02*
X12396428Y-20863214D01*
X12339286Y-20863214D01*
X12310714Y-20848929D01*
X12296428Y-20820357D01*
X12296428Y-20706072D01*
X12310714Y-20677500D01*
X12339286Y-20663214D01*
X12396428Y-20663214D01*
X12425000Y-20677500D01*
X12439286Y-20706072D01*
X12439286Y-20734643D01*
X12296428Y-20763214D01*
X12553571Y-20848929D02*
X12582143Y-20863214D01*
X12639286Y-20863214D01*
X12667857Y-20848929D01*
X12682143Y-20820357D01*
X12682143Y-20806072D01*
X12667857Y-20777500D01*
X12639286Y-20763214D01*
X12596428Y-20763214D01*
X12567857Y-20748929D01*
X12553571Y-20720357D01*
X12553571Y-20706072D01*
X12567857Y-20677500D01*
X12596428Y-20663214D01*
X12639286Y-20663214D01*
X12667857Y-20677500D01*
X12782143Y-20977500D02*
X12796428Y-20963214D01*
X12825000Y-20920357D01*
X12839286Y-20891786D01*
X12853571Y-20848929D01*
X12867857Y-20777500D01*
X12867857Y-20720357D01*
X12853571Y-20648929D01*
X12839286Y-20606072D01*
X12825000Y-20577500D01*
X12796428Y-20534643D01*
X12782143Y-20520357D01*
X5905112Y-21063556D02*
X6025000Y-21183444D01*
X6025000Y-21063556D02*
X5905112Y-21183444D01*
X5965056Y-21063556D02*
X5965056Y-21183444D01*
X5905112Y-21123500D02*
X6025000Y-21123500D01*
X6453571Y-21259214D02*
X6282143Y-21259214D01*
X6367857Y-21259214D02*
X6367857Y-20959214D01*
X6339286Y-21002072D01*
X6310714Y-21030643D01*
X6282143Y-21044929D01*
X6582143Y-21230643D02*
X6596428Y-21244929D01*
X6582143Y-21259214D01*
X6567857Y-21244929D01*
X6582143Y-21230643D01*
X6582143Y-21259214D01*
X6710714Y-20987786D02*
X6725000Y-20973500D01*
X6753571Y-20959214D01*
X6825000Y-20959214D01*
X6853571Y-20973500D01*
X6867857Y-20987786D01*
X6882143Y-21016357D01*
X6882143Y-21044929D01*
X6867857Y-21087786D01*
X6696428Y-21259214D01*
X6882143Y-21259214D01*
X7067857Y-20959214D02*
X7096428Y-20959214D01*
X7125000Y-20973500D01*
X7139286Y-20987786D01*
X7153571Y-21016357D01*
X7167857Y-21073500D01*
X7167857Y-21144929D01*
X7153571Y-21202072D01*
X7139286Y-21230643D01*
X7125000Y-21244929D01*
X7096428Y-21259214D01*
X7067857Y-21259214D01*
X7039286Y-21244929D01*
X7025000Y-21230643D01*
X7010714Y-21202072D01*
X6996428Y-21144929D01*
X6996428Y-21073500D01*
X7010714Y-21016357D01*
X7025000Y-20987786D01*
X7039286Y-20973500D01*
X7067857Y-20959214D01*
X7296428Y-21259214D02*
X7296428Y-21059214D01*
X7296428Y-21087786D02*
X7310714Y-21073500D01*
X7339286Y-21059214D01*
X7382143Y-21059214D01*
X7410714Y-21073500D01*
X7425000Y-21102072D01*
X7425000Y-21259214D01*
X7425000Y-21102072D02*
X7439286Y-21073500D01*
X7467857Y-21059214D01*
X7510714Y-21059214D01*
X7539286Y-21073500D01*
X7553571Y-21102072D01*
X7553571Y-21259214D01*
X7696428Y-21259214D02*
X7696428Y-21059214D01*
X7696428Y-21087786D02*
X7710714Y-21073500D01*
X7739286Y-21059214D01*
X7782143Y-21059214D01*
X7810714Y-21073500D01*
X7825000Y-21102072D01*
X7825000Y-21259214D01*
X7825000Y-21102072D02*
X7839286Y-21073500D01*
X7867857Y-21059214D01*
X7910714Y-21059214D01*
X7939286Y-21073500D01*
X7953571Y-21102072D01*
X7953571Y-21259214D01*
X8539286Y-20944929D02*
X8282143Y-21330643D01*
X8925000Y-20959214D02*
X8953571Y-20959214D01*
X8982143Y-20973500D01*
X8996428Y-20987786D01*
X9010714Y-21016357D01*
X9025000Y-21073500D01*
X9025000Y-21144929D01*
X9010714Y-21202072D01*
X8996428Y-21230643D01*
X8982143Y-21244929D01*
X8953571Y-21259214D01*
X8925000Y-21259214D01*
X8896428Y-21244929D01*
X8882143Y-21230643D01*
X8867857Y-21202072D01*
X8853571Y-21144929D01*
X8853571Y-21073500D01*
X8867857Y-21016357D01*
X8882143Y-20987786D01*
X8896428Y-20973500D01*
X8925000Y-20959214D01*
X9153571Y-21230643D02*
X9167857Y-21244929D01*
X9153571Y-21259214D01*
X9139286Y-21244929D01*
X9153571Y-21230643D01*
X9153571Y-21259214D01*
X9353571Y-20959214D02*
X9382143Y-20959214D01*
X9410714Y-20973500D01*
X9425000Y-20987786D01*
X9439286Y-21016357D01*
X9453571Y-21073500D01*
X9453571Y-21144929D01*
X9439286Y-21202072D01*
X9425000Y-21230643D01*
X9410714Y-21244929D01*
X9382143Y-21259214D01*
X9353571Y-21259214D01*
X9325000Y-21244929D01*
X9310714Y-21230643D01*
X9296428Y-21202072D01*
X9282143Y-21144929D01*
X9282143Y-21073500D01*
X9296428Y-21016357D01*
X9310714Y-20987786D01*
X9325000Y-20973500D01*
X9353571Y-20959214D01*
X9710714Y-21059214D02*
X9710714Y-21259214D01*
X9639286Y-20944929D02*
X9567857Y-21159214D01*
X9753571Y-21159214D01*
X9839286Y-20959214D02*
X10039286Y-20959214D01*
X9910714Y-21259214D01*
X10139286Y-20959214D02*
X10139286Y-21016357D01*
X10253571Y-20959214D02*
X10253571Y-21016357D01*
X10696428Y-21373500D02*
X10682143Y-21359214D01*
X10653571Y-21316357D01*
X10639286Y-21287786D01*
X10625000Y-21244929D01*
X10610714Y-21173500D01*
X10610714Y-21116357D01*
X10625000Y-21044929D01*
X10639286Y-21002072D01*
X10653571Y-20973500D01*
X10682143Y-20930643D01*
X10696428Y-20916357D01*
X10782143Y-20959214D02*
X10967857Y-20959214D01*
X10867857Y-21073500D01*
X10910714Y-21073500D01*
X10939286Y-21087786D01*
X10953571Y-21102072D01*
X10967857Y-21130643D01*
X10967857Y-21202072D01*
X10953571Y-21230643D01*
X10939286Y-21244929D01*
X10910714Y-21259214D01*
X10825000Y-21259214D01*
X10796428Y-21244929D01*
X10782143Y-21230643D01*
X11325000Y-21259214D02*
X11325000Y-20959214D01*
X11453571Y-21259214D02*
X11453571Y-21102072D01*
X11439285Y-21073500D01*
X11410714Y-21059214D01*
X11367857Y-21059214D01*
X11339285Y-21073500D01*
X11325000Y-21087786D01*
X11639285Y-21259214D02*
X11610714Y-21244929D01*
X11596428Y-21230643D01*
X11582143Y-21202072D01*
X11582143Y-21116357D01*
X11596428Y-21087786D01*
X11610714Y-21073500D01*
X11639285Y-21059214D01*
X11682143Y-21059214D01*
X11710714Y-21073500D01*
X11725000Y-21087786D01*
X11739285Y-21116357D01*
X11739285Y-21202072D01*
X11725000Y-21230643D01*
X11710714Y-21244929D01*
X11682143Y-21259214D01*
X11639285Y-21259214D01*
X11910714Y-21259214D02*
X11882143Y-21244929D01*
X11867857Y-21216357D01*
X11867857Y-20959214D01*
X12139286Y-21244929D02*
X12110714Y-21259214D01*
X12053571Y-21259214D01*
X12025000Y-21244929D01*
X12010714Y-21216357D01*
X12010714Y-21102072D01*
X12025000Y-21073500D01*
X12053571Y-21059214D01*
X12110714Y-21059214D01*
X12139286Y-21073500D01*
X12153571Y-21102072D01*
X12153571Y-21130643D01*
X12010714Y-21159214D01*
X12267857Y-21244929D02*
X12296428Y-21259214D01*
X12353571Y-21259214D01*
X12382143Y-21244929D01*
X12396428Y-21216357D01*
X12396428Y-21202072D01*
X12382143Y-21173500D01*
X12353571Y-21159214D01*
X12310714Y-21159214D01*
X12282143Y-21144929D01*
X12267857Y-21116357D01*
X12267857Y-21102072D01*
X12282143Y-21073500D01*
X12310714Y-21059214D01*
X12353571Y-21059214D01*
X12382143Y-21073500D01*
X12496428Y-21373500D02*
X12510714Y-21359214D01*
X12539286Y-21316357D01*
X12553571Y-21287786D01*
X12567857Y-21244929D01*
X12582143Y-21173500D01*
X12582143Y-21116357D01*
X12567857Y-21044929D01*
X12553571Y-21002072D01*
X12539286Y-20973500D01*
X12510714Y-20930643D01*
X12496428Y-20916357D01*
X5805036Y-21409518D02*
X6025000Y-21629482D01*
X6025000Y-21409518D02*
X5805036Y-21629482D01*
X5992788Y-21597270D02*
X5992788Y-21441730D01*
X5837248Y-21441730D01*
X5837248Y-21597270D01*
X5992788Y-21597270D01*
X6282143Y-21383786D02*
X6296428Y-21369500D01*
X6325000Y-21355214D01*
X6396428Y-21355214D01*
X6425000Y-21369500D01*
X6439286Y-21383786D01*
X6453571Y-21412357D01*
X6453571Y-21440929D01*
X6439286Y-21483786D01*
X6267857Y-21655214D01*
X6453571Y-21655214D01*
X6582143Y-21626643D02*
X6596428Y-21640929D01*
X6582143Y-21655214D01*
X6567857Y-21640929D01*
X6582143Y-21626643D01*
X6582143Y-21655214D01*
X6710714Y-21383786D02*
X6725000Y-21369500D01*
X6753571Y-21355214D01*
X6825000Y-21355214D01*
X6853571Y-21369500D01*
X6867857Y-21383786D01*
X6882143Y-21412357D01*
X6882143Y-21440929D01*
X6867857Y-21483786D01*
X6696428Y-21655214D01*
X6882143Y-21655214D01*
X7067857Y-21355214D02*
X7096428Y-21355214D01*
X7125000Y-21369500D01*
X7139286Y-21383786D01*
X7153571Y-21412357D01*
X7167857Y-21469500D01*
X7167857Y-21540929D01*
X7153571Y-21598072D01*
X7139286Y-21626643D01*
X7125000Y-21640929D01*
X7096428Y-21655214D01*
X7067857Y-21655214D01*
X7039286Y-21640929D01*
X7025000Y-21626643D01*
X7010714Y-21598072D01*
X6996428Y-21540929D01*
X6996428Y-21469500D01*
X7010714Y-21412357D01*
X7025000Y-21383786D01*
X7039286Y-21369500D01*
X7067857Y-21355214D01*
X7296428Y-21655214D02*
X7296428Y-21455214D01*
X7296428Y-21483786D02*
X7310714Y-21469500D01*
X7339286Y-21455214D01*
X7382143Y-21455214D01*
X7410714Y-21469500D01*
X7425000Y-21498072D01*
X7425000Y-21655214D01*
X7425000Y-21498072D02*
X7439286Y-21469500D01*
X7467857Y-21455214D01*
X7510714Y-21455214D01*
X7539286Y-21469500D01*
X7553571Y-21498072D01*
X7553571Y-21655214D01*
X7696428Y-21655214D02*
X7696428Y-21455214D01*
X7696428Y-21483786D02*
X7710714Y-21469500D01*
X7739286Y-21455214D01*
X7782143Y-21455214D01*
X7810714Y-21469500D01*
X7825000Y-21498072D01*
X7825000Y-21655214D01*
X7825000Y-21498072D02*
X7839286Y-21469500D01*
X7867857Y-21455214D01*
X7910714Y-21455214D01*
X7939286Y-21469500D01*
X7953571Y-21498072D01*
X7953571Y-21655214D01*
X8539286Y-21340929D02*
X8282143Y-21726643D01*
X8925000Y-21355214D02*
X8953571Y-21355214D01*
X8982143Y-21369500D01*
X8996428Y-21383786D01*
X9010714Y-21412357D01*
X9025000Y-21469500D01*
X9025000Y-21540929D01*
X9010714Y-21598072D01*
X8996428Y-21626643D01*
X8982143Y-21640929D01*
X8953571Y-21655214D01*
X8925000Y-21655214D01*
X8896428Y-21640929D01*
X8882143Y-21626643D01*
X8867857Y-21598072D01*
X8853571Y-21540929D01*
X8853571Y-21469500D01*
X8867857Y-21412357D01*
X8882143Y-21383786D01*
X8896428Y-21369500D01*
X8925000Y-21355214D01*
X9153571Y-21626643D02*
X9167857Y-21640929D01*
X9153571Y-21655214D01*
X9139286Y-21640929D01*
X9153571Y-21626643D01*
X9153571Y-21655214D01*
X9353571Y-21355214D02*
X9382143Y-21355214D01*
X9410714Y-21369500D01*
X9425000Y-21383786D01*
X9439286Y-21412357D01*
X9453571Y-21469500D01*
X9453571Y-21540929D01*
X9439286Y-21598072D01*
X9425000Y-21626643D01*
X9410714Y-21640929D01*
X9382143Y-21655214D01*
X9353571Y-21655214D01*
X9325000Y-21640929D01*
X9310714Y-21626643D01*
X9296428Y-21598072D01*
X9282143Y-21540929D01*
X9282143Y-21469500D01*
X9296428Y-21412357D01*
X9310714Y-21383786D01*
X9325000Y-21369500D01*
X9353571Y-21355214D01*
X9625000Y-21483786D02*
X9596428Y-21469500D01*
X9582143Y-21455214D01*
X9567857Y-21426643D01*
X9567857Y-21412357D01*
X9582143Y-21383786D01*
X9596428Y-21369500D01*
X9625000Y-21355214D01*
X9682143Y-21355214D01*
X9710714Y-21369500D01*
X9725000Y-21383786D01*
X9739286Y-21412357D01*
X9739286Y-21426643D01*
X9725000Y-21455214D01*
X9710714Y-21469500D01*
X9682143Y-21483786D01*
X9625000Y-21483786D01*
X9596428Y-21498072D01*
X9582143Y-21512357D01*
X9567857Y-21540929D01*
X9567857Y-21598072D01*
X9582143Y-21626643D01*
X9596428Y-21640929D01*
X9625000Y-21655214D01*
X9682143Y-21655214D01*
X9710714Y-21640929D01*
X9725000Y-21626643D01*
X9739286Y-21598072D01*
X9739286Y-21540929D01*
X9725000Y-21512357D01*
X9710714Y-21498072D01*
X9682143Y-21483786D01*
X9839286Y-21355214D02*
X10039286Y-21355214D01*
X9910714Y-21655214D01*
X10139286Y-21355214D02*
X10139286Y-21412357D01*
X10253571Y-21355214D02*
X10253571Y-21412357D01*
X10696428Y-21769500D02*
X10682143Y-21755214D01*
X10653571Y-21712357D01*
X10639286Y-21683786D01*
X10625000Y-21640929D01*
X10610714Y-21569500D01*
X10610714Y-21512357D01*
X10625000Y-21440929D01*
X10639286Y-21398072D01*
X10653571Y-21369500D01*
X10682143Y-21326643D01*
X10696428Y-21312357D01*
X10796428Y-21383786D02*
X10810714Y-21369500D01*
X10839286Y-21355214D01*
X10910714Y-21355214D01*
X10939286Y-21369500D01*
X10953571Y-21383786D01*
X10967857Y-21412357D01*
X10967857Y-21440929D01*
X10953571Y-21483786D01*
X10782143Y-21655214D01*
X10967857Y-21655214D01*
X11325000Y-21655214D02*
X11325000Y-21355214D01*
X11453571Y-21655214D02*
X11453571Y-21498072D01*
X11439285Y-21469500D01*
X11410714Y-21455214D01*
X11367857Y-21455214D01*
X11339285Y-21469500D01*
X11325000Y-21483786D01*
X11639285Y-21655214D02*
X11610714Y-21640929D01*
X11596428Y-21626643D01*
X11582143Y-21598072D01*
X11582143Y-21512357D01*
X11596428Y-21483786D01*
X11610714Y-21469500D01*
X11639285Y-21455214D01*
X11682143Y-21455214D01*
X11710714Y-21469500D01*
X11725000Y-21483786D01*
X11739285Y-21512357D01*
X11739285Y-21598072D01*
X11725000Y-21626643D01*
X11710714Y-21640929D01*
X11682143Y-21655214D01*
X11639285Y-21655214D01*
X11910714Y-21655214D02*
X11882143Y-21640929D01*
X11867857Y-21612357D01*
X11867857Y-21355214D01*
X12139286Y-21640929D02*
X12110714Y-21655214D01*
X12053571Y-21655214D01*
X12025000Y-21640929D01*
X12010714Y-21612357D01*
X12010714Y-21498072D01*
X12025000Y-21469500D01*
X12053571Y-21455214D01*
X12110714Y-21455214D01*
X12139286Y-21469500D01*
X12153571Y-21498072D01*
X12153571Y-21526643D01*
X12010714Y-21555214D01*
X12267857Y-21640929D02*
X12296428Y-21655214D01*
X12353571Y-21655214D01*
X12382143Y-21640929D01*
X12396428Y-21612357D01*
X12396428Y-21598072D01*
X12382143Y-21569500D01*
X12353571Y-21555214D01*
X12310714Y-21555214D01*
X12282143Y-21540929D01*
X12267857Y-21512357D01*
X12267857Y-21498072D01*
X12282143Y-21469500D01*
X12310714Y-21455214D01*
X12353571Y-21455214D01*
X12382143Y-21469500D01*
X12496428Y-21769500D02*
X12510714Y-21755214D01*
X12539286Y-21712357D01*
X12553571Y-21683786D01*
X12567857Y-21640929D01*
X12582143Y-21569500D01*
X12582143Y-21512357D01*
X12567857Y-21440929D01*
X12553571Y-21398072D01*
X12539286Y-21369500D01*
X12510714Y-21326643D01*
X12496428Y-21312357D01*
X5705000Y-21755500D02*
X6025000Y-22075500D01*
X6025000Y-21755500D02*
X5705000Y-22075500D01*
X5865000Y-22075500D02*
X6025000Y-21915500D01*
X5865000Y-21755500D01*
X5705000Y-21915500D01*
X5865000Y-22075500D01*
X6267857Y-21751214D02*
X6453571Y-21751214D01*
X6353571Y-21865500D01*
X6396428Y-21865500D01*
X6425000Y-21879786D01*
X6439286Y-21894072D01*
X6453571Y-21922643D01*
X6453571Y-21994072D01*
X6439286Y-22022643D01*
X6425000Y-22036929D01*
X6396428Y-22051214D01*
X6310714Y-22051214D01*
X6282143Y-22036929D01*
X6267857Y-22022643D01*
X6582143Y-22022643D02*
X6596428Y-22036929D01*
X6582143Y-22051214D01*
X6567857Y-22036929D01*
X6582143Y-22022643D01*
X6582143Y-22051214D01*
X6710714Y-21779786D02*
X6725000Y-21765500D01*
X6753571Y-21751214D01*
X6825000Y-21751214D01*
X6853571Y-21765500D01*
X6867857Y-21779786D01*
X6882143Y-21808357D01*
X6882143Y-21836929D01*
X6867857Y-21879786D01*
X6696428Y-22051214D01*
X6882143Y-22051214D01*
X7067857Y-21751214D02*
X7096428Y-21751214D01*
X7125000Y-21765500D01*
X7139286Y-21779786D01*
X7153571Y-21808357D01*
X7167857Y-21865500D01*
X7167857Y-21936929D01*
X7153571Y-21994072D01*
X7139286Y-22022643D01*
X7125000Y-22036929D01*
X7096428Y-22051214D01*
X7067857Y-22051214D01*
X7039286Y-22036929D01*
X7025000Y-22022643D01*
X7010714Y-21994072D01*
X6996428Y-21936929D01*
X6996428Y-21865500D01*
X7010714Y-21808357D01*
X7025000Y-21779786D01*
X7039286Y-21765500D01*
X7067857Y-21751214D01*
X7296428Y-22051214D02*
X7296428Y-21851214D01*
X7296428Y-21879786D02*
X7310714Y-21865500D01*
X7339286Y-21851214D01*
X7382143Y-21851214D01*
X7410714Y-21865500D01*
X7425000Y-21894072D01*
X7425000Y-22051214D01*
X7425000Y-21894072D02*
X7439286Y-21865500D01*
X7467857Y-21851214D01*
X7510714Y-21851214D01*
X7539286Y-21865500D01*
X7553571Y-21894072D01*
X7553571Y-22051214D01*
X7696428Y-22051214D02*
X7696428Y-21851214D01*
X7696428Y-21879786D02*
X7710714Y-21865500D01*
X7739286Y-21851214D01*
X7782143Y-21851214D01*
X7810714Y-21865500D01*
X7825000Y-21894072D01*
X7825000Y-22051214D01*
X7825000Y-21894072D02*
X7839286Y-21865500D01*
X7867857Y-21851214D01*
X7910714Y-21851214D01*
X7939286Y-21865500D01*
X7953571Y-21894072D01*
X7953571Y-22051214D01*
X8539286Y-21736929D02*
X8282143Y-22122643D01*
X8925000Y-21751214D02*
X8953571Y-21751214D01*
X8982143Y-21765500D01*
X8996428Y-21779786D01*
X9010714Y-21808357D01*
X9025000Y-21865500D01*
X9025000Y-21936929D01*
X9010714Y-21994072D01*
X8996428Y-22022643D01*
X8982143Y-22036929D01*
X8953571Y-22051214D01*
X8925000Y-22051214D01*
X8896428Y-22036929D01*
X8882143Y-22022643D01*
X8867857Y-21994072D01*
X8853571Y-21936929D01*
X8853571Y-21865500D01*
X8867857Y-21808357D01*
X8882143Y-21779786D01*
X8896428Y-21765500D01*
X8925000Y-21751214D01*
X9153571Y-22022643D02*
X9167857Y-22036929D01*
X9153571Y-22051214D01*
X9139286Y-22036929D01*
X9153571Y-22022643D01*
X9153571Y-22051214D01*
X9453571Y-22051214D02*
X9282143Y-22051214D01*
X9367857Y-22051214D02*
X9367857Y-21751214D01*
X9339286Y-21794072D01*
X9310714Y-21822643D01*
X9282143Y-21836929D01*
X9567857Y-21779786D02*
X9582143Y-21765500D01*
X9610714Y-21751214D01*
X9682143Y-21751214D01*
X9710714Y-21765500D01*
X9725000Y-21779786D01*
X9739286Y-21808357D01*
X9739286Y-21836929D01*
X9725000Y-21879786D01*
X9553571Y-22051214D01*
X9739286Y-22051214D01*
X9996428Y-21751214D02*
X9939286Y-21751214D01*
X9910714Y-21765500D01*
X9896428Y-21779786D01*
X9867857Y-21822643D01*
X9853571Y-21879786D01*
X9853571Y-21994072D01*
X9867857Y-22022643D01*
X9882143Y-22036929D01*
X9910714Y-22051214D01*
X9967857Y-22051214D01*
X9996428Y-22036929D01*
X10010714Y-22022643D01*
X10025000Y-21994072D01*
X10025000Y-21922643D01*
X10010714Y-21894072D01*
X9996428Y-21879786D01*
X9967857Y-21865500D01*
X9910714Y-21865500D01*
X9882143Y-21879786D01*
X9867857Y-21894072D01*
X9853571Y-21922643D01*
X10139286Y-21751214D02*
X10139286Y-21808357D01*
X10253571Y-21751214D02*
X10253571Y-21808357D01*
X10696428Y-22165500D02*
X10682143Y-22151214D01*
X10653571Y-22108357D01*
X10639286Y-22079786D01*
X10625000Y-22036929D01*
X10610714Y-21965500D01*
X10610714Y-21908357D01*
X10625000Y-21836929D01*
X10639286Y-21794072D01*
X10653571Y-21765500D01*
X10682143Y-21722643D01*
X10696428Y-21708357D01*
X10939286Y-21851214D02*
X10939286Y-22051214D01*
X10867857Y-21736929D02*
X10796428Y-21951214D01*
X10982143Y-21951214D01*
X11325000Y-22051214D02*
X11325000Y-21751214D01*
X11453571Y-22051214D02*
X11453571Y-21894072D01*
X11439285Y-21865500D01*
X11410714Y-21851214D01*
X11367857Y-21851214D01*
X11339285Y-21865500D01*
X11325000Y-21879786D01*
X11639285Y-22051214D02*
X11610714Y-22036929D01*
X11596428Y-22022643D01*
X11582143Y-21994072D01*
X11582143Y-21908357D01*
X11596428Y-21879786D01*
X11610714Y-21865500D01*
X11639285Y-21851214D01*
X11682143Y-21851214D01*
X11710714Y-21865500D01*
X11725000Y-21879786D01*
X11739285Y-21908357D01*
X11739285Y-21994072D01*
X11725000Y-22022643D01*
X11710714Y-22036929D01*
X11682143Y-22051214D01*
X11639285Y-22051214D01*
X11910714Y-22051214D02*
X11882143Y-22036929D01*
X11867857Y-22008357D01*
X11867857Y-21751214D01*
X12139286Y-22036929D02*
X12110714Y-22051214D01*
X12053571Y-22051214D01*
X12025000Y-22036929D01*
X12010714Y-22008357D01*
X12010714Y-21894072D01*
X12025000Y-21865500D01*
X12053571Y-21851214D01*
X12110714Y-21851214D01*
X12139286Y-21865500D01*
X12153571Y-21894072D01*
X12153571Y-21922643D01*
X12010714Y-21951214D01*
X12267857Y-22036929D02*
X12296428Y-22051214D01*
X12353571Y-22051214D01*
X12382143Y-22036929D01*
X12396428Y-22008357D01*
X12396428Y-21994072D01*
X12382143Y-21965500D01*
X12353571Y-21951214D01*
X12310714Y-21951214D01*
X12282143Y-21936929D01*
X12267857Y-21908357D01*
X12267857Y-21894072D01*
X12282143Y-21865500D01*
X12310714Y-21851214D01*
X12353571Y-21851214D01*
X12382143Y-21865500D01*
X12496428Y-22165500D02*
X12510714Y-22151214D01*
X12539286Y-22108357D01*
X12553571Y-22079786D01*
X12567857Y-22036929D01*
X12582143Y-21965500D01*
X12582143Y-21908357D01*
X12567857Y-21836929D01*
X12553571Y-21794072D01*
X12539286Y-21765500D01*
X12510714Y-21722643D01*
X12496428Y-21708357D01*
X5825000Y-22165500D02*
X5825000Y-22565500D01*
X5625000Y-22365500D02*
X6025000Y-22365500D01*
X6025000Y-22365500D02*
G75*
G03X6025000Y-22365500I-200000J0D01*
G01*
X6425000Y-22301214D02*
X6425000Y-22501214D01*
X6353571Y-22186929D02*
X6282143Y-22401214D01*
X6467857Y-22401214D01*
X6582143Y-22472643D02*
X6596428Y-22486929D01*
X6582143Y-22501214D01*
X6567857Y-22486929D01*
X6582143Y-22472643D01*
X6582143Y-22501214D01*
X6782143Y-22201214D02*
X6810714Y-22201214D01*
X6839286Y-22215500D01*
X6853571Y-22229786D01*
X6867857Y-22258357D01*
X6882143Y-22315500D01*
X6882143Y-22386929D01*
X6867857Y-22444071D01*
X6853571Y-22472643D01*
X6839286Y-22486929D01*
X6810714Y-22501214D01*
X6782143Y-22501214D01*
X6753571Y-22486929D01*
X6739286Y-22472643D01*
X6725000Y-22444071D01*
X6710714Y-22386929D01*
X6710714Y-22315500D01*
X6725000Y-22258357D01*
X6739286Y-22229786D01*
X6753571Y-22215500D01*
X6782143Y-22201214D01*
X7067857Y-22201214D02*
X7096428Y-22201214D01*
X7125000Y-22215500D01*
X7139286Y-22229786D01*
X7153571Y-22258357D01*
X7167857Y-22315500D01*
X7167857Y-22386929D01*
X7153571Y-22444071D01*
X7139286Y-22472643D01*
X7125000Y-22486929D01*
X7096428Y-22501214D01*
X7067857Y-22501214D01*
X7039286Y-22486929D01*
X7025000Y-22472643D01*
X7010714Y-22444071D01*
X6996428Y-22386929D01*
X6996428Y-22315500D01*
X7010714Y-22258357D01*
X7025000Y-22229786D01*
X7039286Y-22215500D01*
X7067857Y-22201214D01*
X7296428Y-22501214D02*
X7296428Y-22301214D01*
X7296428Y-22329786D02*
X7310714Y-22315500D01*
X7339286Y-22301214D01*
X7382143Y-22301214D01*
X7410714Y-22315500D01*
X7425000Y-22344072D01*
X7425000Y-22501214D01*
X7425000Y-22344072D02*
X7439286Y-22315500D01*
X7467857Y-22301214D01*
X7510714Y-22301214D01*
X7539286Y-22315500D01*
X7553571Y-22344072D01*
X7553571Y-22501214D01*
X7696428Y-22501214D02*
X7696428Y-22301214D01*
X7696428Y-22329786D02*
X7710714Y-22315500D01*
X7739286Y-22301214D01*
X7782143Y-22301214D01*
X7810714Y-22315500D01*
X7825000Y-22344072D01*
X7825000Y-22501214D01*
X7825000Y-22344072D02*
X7839286Y-22315500D01*
X7867857Y-22301214D01*
X7910714Y-22301214D01*
X7939286Y-22315500D01*
X7953571Y-22344072D01*
X7953571Y-22501214D01*
X8539286Y-22186929D02*
X8282143Y-22572643D01*
X8925000Y-22201214D02*
X8953571Y-22201214D01*
X8982143Y-22215500D01*
X8996428Y-22229786D01*
X9010714Y-22258357D01*
X9025000Y-22315500D01*
X9025000Y-22386929D01*
X9010714Y-22444071D01*
X8996428Y-22472643D01*
X8982143Y-22486929D01*
X8953571Y-22501214D01*
X8925000Y-22501214D01*
X8896428Y-22486929D01*
X8882143Y-22472643D01*
X8867857Y-22444071D01*
X8853571Y-22386929D01*
X8853571Y-22315500D01*
X8867857Y-22258357D01*
X8882143Y-22229786D01*
X8896428Y-22215500D01*
X8925000Y-22201214D01*
X9153571Y-22472643D02*
X9167857Y-22486929D01*
X9153571Y-22501214D01*
X9139286Y-22486929D01*
X9153571Y-22472643D01*
X9153571Y-22501214D01*
X9453571Y-22501214D02*
X9282143Y-22501214D01*
X9367857Y-22501214D02*
X9367857Y-22201214D01*
X9339286Y-22244072D01*
X9310714Y-22272643D01*
X9282143Y-22286929D01*
X9725000Y-22201214D02*
X9582143Y-22201214D01*
X9567857Y-22344072D01*
X9582143Y-22329786D01*
X9610714Y-22315500D01*
X9682143Y-22315500D01*
X9710714Y-22329786D01*
X9725000Y-22344072D01*
X9739286Y-22372643D01*
X9739286Y-22444071D01*
X9725000Y-22472643D01*
X9710714Y-22486929D01*
X9682143Y-22501214D01*
X9610714Y-22501214D01*
X9582143Y-22486929D01*
X9567857Y-22472643D01*
X9839286Y-22201214D02*
X10039286Y-22201214D01*
X9910714Y-22501214D01*
X10139286Y-22201214D02*
X10139286Y-22258357D01*
X10253571Y-22201214D02*
X10253571Y-22258357D01*
X10696428Y-22615500D02*
X10682143Y-22601214D01*
X10653571Y-22558357D01*
X10639286Y-22529786D01*
X10625000Y-22486929D01*
X10610714Y-22415500D01*
X10610714Y-22358357D01*
X10625000Y-22286929D01*
X10639286Y-22244072D01*
X10653571Y-22215500D01*
X10682143Y-22172643D01*
X10696428Y-22158357D01*
X10939286Y-22301214D02*
X10939286Y-22501214D01*
X10867857Y-22186929D02*
X10796428Y-22401214D01*
X10982143Y-22401214D01*
X11325000Y-22501214D02*
X11325000Y-22201214D01*
X11453571Y-22501214D02*
X11453571Y-22344072D01*
X11439285Y-22315500D01*
X11410714Y-22301214D01*
X11367857Y-22301214D01*
X11339285Y-22315500D01*
X11325000Y-22329786D01*
X11639285Y-22501214D02*
X11610714Y-22486929D01*
X11596428Y-22472643D01*
X11582143Y-22444071D01*
X11582143Y-22358357D01*
X11596428Y-22329786D01*
X11610714Y-22315500D01*
X11639285Y-22301214D01*
X11682143Y-22301214D01*
X11710714Y-22315500D01*
X11725000Y-22329786D01*
X11739285Y-22358357D01*
X11739285Y-22444071D01*
X11725000Y-22472643D01*
X11710714Y-22486929D01*
X11682143Y-22501214D01*
X11639285Y-22501214D01*
X11910714Y-22501214D02*
X11882143Y-22486929D01*
X11867857Y-22458357D01*
X11867857Y-22201214D01*
X12139286Y-22486929D02*
X12110714Y-22501214D01*
X12053571Y-22501214D01*
X12025000Y-22486929D01*
X12010714Y-22458357D01*
X12010714Y-22344072D01*
X12025000Y-22315500D01*
X12053571Y-22301214D01*
X12110714Y-22301214D01*
X12139286Y-22315500D01*
X12153571Y-22344072D01*
X12153571Y-22372643D01*
X12010714Y-22401214D01*
X12267857Y-22486929D02*
X12296428Y-22501214D01*
X12353571Y-22501214D01*
X12382143Y-22486929D01*
X12396428Y-22458357D01*
X12396428Y-22444071D01*
X12382143Y-22415500D01*
X12353571Y-22401214D01*
X12310714Y-22401214D01*
X12282143Y-22386929D01*
X12267857Y-22358357D01*
X12267857Y-22344072D01*
X12282143Y-22315500D01*
X12310714Y-22301214D01*
X12353571Y-22301214D01*
X12382143Y-22315500D01*
X12496428Y-22615500D02*
X12510714Y-22601214D01*
X12539286Y-22558357D01*
X12553571Y-22529786D01*
X12567857Y-22486929D01*
X12582143Y-22415500D01*
X12582143Y-22358357D01*
X12567857Y-22286929D01*
X12553571Y-22244072D01*
X12539286Y-22215500D01*
X12510714Y-22172643D01*
X12496428Y-22158357D01*
M02*
