G04 #@! TF.FileFunction,Drawing*
%FSLAX46Y46*%
G04 Gerber Fmt 4.6, Leading zero omitted, Abs format (unit mm)*
G04 Created by KiCad (PCBNEW 4.0.2+dfsg1-2~bpo8+1-stable) date lun 17 oct 2016 15:55:52 ART*
%MOMM*%
G01*
G04 APERTURE LIST*
%ADD10C,0.100000*%
%ADD11C,0.150000*%
%ADD12C,0.200000*%
%ADD13C,0.300000*%
G04 APERTURE END LIST*
D10*
D11*
X109728000Y-152781000D02*
G75*
G03X109728000Y-152781000I-1778000J0D01*
G01*
X86614000Y-152781000D02*
G75*
G03X86614000Y-152781000I-1778000J0D01*
G01*
X98171000Y-152781000D02*
G75*
G03X98171000Y-152781000I-1778000J0D01*
G01*
X121289530Y-152781000D02*
G75*
G03X121289530Y-152781000I-1782530J0D01*
G01*
X79375000Y-162560000D02*
X122555000Y-162560000D01*
X79375000Y-177800000D02*
X79375000Y-162560000D01*
X60325000Y-177800000D02*
X79375000Y-177800000D01*
X60325000Y-162560000D02*
X60325000Y-177800000D01*
X146050000Y-92075000D02*
X146050000Y-177800000D01*
X146050000Y-78740000D02*
X146050000Y-40640000D01*
X133985000Y-78740000D02*
X146050000Y-78740000D01*
X133985000Y-92075000D02*
X133985000Y-78740000D01*
X146050000Y-92075000D02*
X133985000Y-92075000D01*
X68580000Y-59055000D02*
X60325000Y-59055000D01*
X146050000Y-40640000D02*
X136525000Y-40640000D01*
X122555000Y-177800000D02*
X146050000Y-177800000D01*
X122555000Y-162560000D02*
X122555000Y-177800000D01*
X60325000Y-154940000D02*
X60325000Y-162560000D01*
X119380000Y-40640000D02*
X60325000Y-40640000D01*
X136525000Y-52070000D02*
X136525000Y-40640000D01*
X119380000Y-52070000D02*
X136525000Y-52070000D01*
X119380000Y-40640000D02*
X119380000Y-52070000D01*
X60325000Y-154940000D02*
X60325000Y-59055000D01*
X60325000Y-50800000D02*
X60325000Y-40640000D01*
X68580000Y-50800000D02*
X60325000Y-50800000D01*
X68580000Y-59055000D02*
X68580000Y-50800000D01*
D12*
X213360000Y-21590000D02*
X278130000Y-21590000D01*
X278130000Y-21590000D02*
X278130000Y-60960000D01*
X278130000Y-60960000D02*
X213360000Y-60960000D01*
X213360000Y-60960000D02*
X213360000Y-21590000D01*
X212090000Y-20320000D02*
X212090000Y-61595000D01*
X212090000Y-61595000D02*
X279400000Y-61595000D01*
X279400000Y-61595000D02*
X279400000Y-20320000D01*
X279400000Y-20320000D02*
X212090000Y-20320000D01*
X213360000Y-21590000D02*
X212090000Y-20320000D01*
X213360000Y-60960000D02*
X212090000Y-61595000D01*
X279400000Y-61595000D02*
X278130000Y-60960000D01*
X278130000Y-21590000D02*
X279400000Y-20320000D01*
X278130000Y-21590000D02*
X279400000Y-20320000D01*
X279400000Y-61595000D02*
X278130000Y-60960000D01*
X213360000Y-60960000D02*
X212090000Y-61595000D01*
X213360000Y-21590000D02*
X212090000Y-20320000D01*
X279400000Y-20320000D02*
X212090000Y-20320000D01*
X279400000Y-61595000D02*
X279400000Y-20320000D01*
X212090000Y-61595000D02*
X279400000Y-61595000D01*
X212090000Y-20320000D02*
X212090000Y-61595000D01*
X213360000Y-60960000D02*
X213360000Y-21590000D01*
X278130000Y-60960000D02*
X213360000Y-60960000D01*
X278130000Y-21590000D02*
X278130000Y-60960000D01*
X213360000Y-21590000D02*
X278130000Y-21590000D01*
X213360000Y-21590000D02*
X278130000Y-21590000D01*
X278130000Y-21590000D02*
X278130000Y-60960000D01*
X278130000Y-60960000D02*
X213360000Y-60960000D01*
X213360000Y-60960000D02*
X213360000Y-21590000D01*
D13*
X239502857Y-24312143D02*
X239717143Y-24383571D01*
X240074286Y-24383571D01*
X240217143Y-24312143D01*
X240288572Y-24240714D01*
X240360000Y-24097857D01*
X240360000Y-23955000D01*
X240288572Y-23812143D01*
X240217143Y-23740714D01*
X240074286Y-23669286D01*
X239788572Y-23597857D01*
X239645714Y-23526429D01*
X239574286Y-23455000D01*
X239502857Y-23312143D01*
X239502857Y-23169286D01*
X239574286Y-23026429D01*
X239645714Y-22955000D01*
X239788572Y-22883571D01*
X240145714Y-22883571D01*
X240360000Y-22955000D01*
X240788571Y-22883571D02*
X241645714Y-22883571D01*
X241217143Y-24383571D02*
X241217143Y-22883571D01*
X242074285Y-23955000D02*
X242788571Y-23955000D01*
X241931428Y-24383571D02*
X242431428Y-22883571D01*
X242931428Y-24383571D01*
X244288571Y-24240714D02*
X244217142Y-24312143D01*
X244002856Y-24383571D01*
X243859999Y-24383571D01*
X243645714Y-24312143D01*
X243502856Y-24169286D01*
X243431428Y-24026429D01*
X243359999Y-23740714D01*
X243359999Y-23526429D01*
X243431428Y-23240714D01*
X243502856Y-23097857D01*
X243645714Y-22955000D01*
X243859999Y-22883571D01*
X244002856Y-22883571D01*
X244217142Y-22955000D01*
X244288571Y-23026429D01*
X244931428Y-24383571D02*
X244931428Y-22883571D01*
X245788571Y-24383571D02*
X245145714Y-23526429D01*
X245788571Y-22883571D02*
X244931428Y-23740714D01*
X246431428Y-23812143D02*
X247574285Y-23812143D01*
X248288571Y-22883571D02*
X248288571Y-24097857D01*
X248359999Y-24240714D01*
X248431428Y-24312143D01*
X248574285Y-24383571D01*
X248859999Y-24383571D01*
X249002857Y-24312143D01*
X249074285Y-24240714D01*
X249145714Y-24097857D01*
X249145714Y-22883571D01*
X249860000Y-24383571D02*
X249860000Y-22883571D01*
X250431428Y-22883571D01*
X250574286Y-22955000D01*
X250645714Y-23026429D01*
X250717143Y-23169286D01*
X250717143Y-23383571D01*
X250645714Y-23526429D01*
X250574286Y-23597857D01*
X250431428Y-23669286D01*
X249860000Y-23669286D01*
X237288572Y-29183571D02*
X237288572Y-27683571D01*
X237860000Y-27683571D01*
X238002858Y-27755000D01*
X238074286Y-27826429D01*
X238145715Y-27969286D01*
X238145715Y-28183571D01*
X238074286Y-28326429D01*
X238002858Y-28397857D01*
X237860000Y-28469286D01*
X237288572Y-28469286D01*
X239645715Y-29040714D02*
X239574286Y-29112143D01*
X239360000Y-29183571D01*
X239217143Y-29183571D01*
X239002858Y-29112143D01*
X238860000Y-28969286D01*
X238788572Y-28826429D01*
X238717143Y-28540714D01*
X238717143Y-28326429D01*
X238788572Y-28040714D01*
X238860000Y-27897857D01*
X239002858Y-27755000D01*
X239217143Y-27683571D01*
X239360000Y-27683571D01*
X239574286Y-27755000D01*
X239645715Y-27826429D01*
X240788572Y-28397857D02*
X241002858Y-28469286D01*
X241074286Y-28540714D01*
X241145715Y-28683571D01*
X241145715Y-28897857D01*
X241074286Y-29040714D01*
X241002858Y-29112143D01*
X240860000Y-29183571D01*
X240288572Y-29183571D01*
X240288572Y-27683571D01*
X240788572Y-27683571D01*
X240931429Y-27755000D01*
X241002858Y-27826429D01*
X241074286Y-27969286D01*
X241074286Y-28112143D01*
X241002858Y-28255000D01*
X240931429Y-28326429D01*
X240788572Y-28397857D01*
X240288572Y-28397857D01*
X243574286Y-29183571D02*
X243574286Y-27683571D01*
X243574286Y-29112143D02*
X243431429Y-29183571D01*
X243145715Y-29183571D01*
X243002857Y-29112143D01*
X242931429Y-29040714D01*
X242860000Y-28897857D01*
X242860000Y-28469286D01*
X242931429Y-28326429D01*
X243002857Y-28255000D01*
X243145715Y-28183571D01*
X243431429Y-28183571D01*
X243574286Y-28255000D01*
X244502858Y-29183571D02*
X244360000Y-29112143D01*
X244288572Y-29040714D01*
X244217143Y-28897857D01*
X244217143Y-28469286D01*
X244288572Y-28326429D01*
X244360000Y-28255000D01*
X244502858Y-28183571D01*
X244717143Y-28183571D01*
X244860000Y-28255000D01*
X244931429Y-28326429D01*
X245002858Y-28469286D01*
X245002858Y-28897857D01*
X244931429Y-29040714D01*
X244860000Y-29112143D01*
X244717143Y-29183571D01*
X244502858Y-29183571D01*
X245645715Y-29183571D02*
X245645715Y-27683571D01*
X245645715Y-28255000D02*
X245788572Y-28183571D01*
X246074286Y-28183571D01*
X246217143Y-28255000D01*
X246288572Y-28326429D01*
X246360001Y-28469286D01*
X246360001Y-28897857D01*
X246288572Y-29040714D01*
X246217143Y-29112143D01*
X246074286Y-29183571D01*
X245788572Y-29183571D01*
X245645715Y-29112143D01*
X247217144Y-29183571D02*
X247074286Y-29112143D01*
X247002858Y-28969286D01*
X247002858Y-27683571D01*
X248360000Y-29112143D02*
X248217143Y-29183571D01*
X247931429Y-29183571D01*
X247788572Y-29112143D01*
X247717143Y-28969286D01*
X247717143Y-28397857D01*
X247788572Y-28255000D01*
X247931429Y-28183571D01*
X248217143Y-28183571D01*
X248360000Y-28255000D01*
X248431429Y-28397857D01*
X248431429Y-28540714D01*
X247717143Y-28683571D01*
X250002857Y-28183571D02*
X250574286Y-28183571D01*
X250217143Y-29183571D02*
X250217143Y-27897857D01*
X250288571Y-27755000D01*
X250431429Y-27683571D01*
X250574286Y-27683571D01*
X251717143Y-29183571D02*
X251717143Y-28397857D01*
X251645714Y-28255000D01*
X251502857Y-28183571D01*
X251217143Y-28183571D01*
X251074286Y-28255000D01*
X251717143Y-29112143D02*
X251574286Y-29183571D01*
X251217143Y-29183571D01*
X251074286Y-29112143D01*
X251002857Y-28969286D01*
X251002857Y-28826429D01*
X251074286Y-28683571D01*
X251217143Y-28612143D01*
X251574286Y-28612143D01*
X251717143Y-28540714D01*
X252288572Y-28183571D02*
X253074286Y-28183571D01*
X252288572Y-29183571D01*
X253074286Y-29183571D01*
X230681428Y-31512143D02*
X230895714Y-31583571D01*
X231252857Y-31583571D01*
X231395714Y-31512143D01*
X231467143Y-31440714D01*
X231538571Y-31297857D01*
X231538571Y-31155000D01*
X231467143Y-31012143D01*
X231395714Y-30940714D01*
X231252857Y-30869286D01*
X230967143Y-30797857D01*
X230824285Y-30726429D01*
X230752857Y-30655000D01*
X230681428Y-30512143D01*
X230681428Y-30369286D01*
X230752857Y-30226429D01*
X230824285Y-30155000D01*
X230967143Y-30083571D01*
X231324285Y-30083571D01*
X231538571Y-30155000D01*
X232181428Y-31583571D02*
X232181428Y-30583571D01*
X232181428Y-30083571D02*
X232109999Y-30155000D01*
X232181428Y-30226429D01*
X232252856Y-30155000D01*
X232181428Y-30083571D01*
X232181428Y-30226429D01*
X232895714Y-30583571D02*
X232895714Y-31583571D01*
X232895714Y-30726429D02*
X232967142Y-30655000D01*
X233110000Y-30583571D01*
X233324285Y-30583571D01*
X233467142Y-30655000D01*
X233538571Y-30797857D01*
X233538571Y-31583571D01*
X235395714Y-31583571D02*
X235395714Y-30583571D01*
X235395714Y-30869286D02*
X235467142Y-30726429D01*
X235538571Y-30655000D01*
X235681428Y-30583571D01*
X235824285Y-30583571D01*
X236895713Y-31512143D02*
X236752856Y-31583571D01*
X236467142Y-31583571D01*
X236324285Y-31512143D01*
X236252856Y-31369286D01*
X236252856Y-30797857D01*
X236324285Y-30655000D01*
X236467142Y-30583571D01*
X236752856Y-30583571D01*
X236895713Y-30655000D01*
X236967142Y-30797857D01*
X236967142Y-30940714D01*
X236252856Y-31083571D01*
X238252856Y-30583571D02*
X238252856Y-32083571D01*
X238252856Y-31512143D02*
X238109999Y-31583571D01*
X237824285Y-31583571D01*
X237681427Y-31512143D01*
X237609999Y-31440714D01*
X237538570Y-31297857D01*
X237538570Y-30869286D01*
X237609999Y-30726429D01*
X237681427Y-30655000D01*
X237824285Y-30583571D01*
X238109999Y-30583571D01*
X238252856Y-30655000D01*
X239609999Y-30583571D02*
X239609999Y-31583571D01*
X238967142Y-30583571D02*
X238967142Y-31369286D01*
X239038570Y-31512143D01*
X239181428Y-31583571D01*
X239395713Y-31583571D01*
X239538570Y-31512143D01*
X239609999Y-31440714D01*
X240324285Y-31583571D02*
X240324285Y-30583571D01*
X240324285Y-30083571D02*
X240252856Y-30155000D01*
X240324285Y-30226429D01*
X240395713Y-30155000D01*
X240324285Y-30083571D01*
X240324285Y-30226429D01*
X240967142Y-31512143D02*
X241109999Y-31583571D01*
X241395714Y-31583571D01*
X241538571Y-31512143D01*
X241609999Y-31369286D01*
X241609999Y-31297857D01*
X241538571Y-31155000D01*
X241395714Y-31083571D01*
X241181428Y-31083571D01*
X241038571Y-31012143D01*
X240967142Y-30869286D01*
X240967142Y-30797857D01*
X241038571Y-30655000D01*
X241181428Y-30583571D01*
X241395714Y-30583571D01*
X241538571Y-30655000D01*
X242252857Y-31583571D02*
X242252857Y-30583571D01*
X242252857Y-30083571D02*
X242181428Y-30155000D01*
X242252857Y-30226429D01*
X242324285Y-30155000D01*
X242252857Y-30083571D01*
X242252857Y-30226429D01*
X242752857Y-30583571D02*
X243324286Y-30583571D01*
X242967143Y-30083571D02*
X242967143Y-31369286D01*
X243038571Y-31512143D01*
X243181429Y-31583571D01*
X243324286Y-31583571D01*
X244038572Y-31583571D02*
X243895714Y-31512143D01*
X243824286Y-31440714D01*
X243752857Y-31297857D01*
X243752857Y-30869286D01*
X243824286Y-30726429D01*
X243895714Y-30655000D01*
X244038572Y-30583571D01*
X244252857Y-30583571D01*
X244395714Y-30655000D01*
X244467143Y-30726429D01*
X244538572Y-30869286D01*
X244538572Y-31297857D01*
X244467143Y-31440714D01*
X244395714Y-31512143D01*
X244252857Y-31583571D01*
X244038572Y-31583571D01*
X245110000Y-31512143D02*
X245252857Y-31583571D01*
X245538572Y-31583571D01*
X245681429Y-31512143D01*
X245752857Y-31369286D01*
X245752857Y-31297857D01*
X245681429Y-31155000D01*
X245538572Y-31083571D01*
X245324286Y-31083571D01*
X245181429Y-31012143D01*
X245110000Y-30869286D01*
X245110000Y-30797857D01*
X245181429Y-30655000D01*
X245324286Y-30583571D01*
X245538572Y-30583571D01*
X245681429Y-30655000D01*
X248181429Y-31583571D02*
X248181429Y-30083571D01*
X248181429Y-31512143D02*
X248038572Y-31583571D01*
X247752858Y-31583571D01*
X247610000Y-31512143D01*
X247538572Y-31440714D01*
X247467143Y-31297857D01*
X247467143Y-30869286D01*
X247538572Y-30726429D01*
X247610000Y-30655000D01*
X247752858Y-30583571D01*
X248038572Y-30583571D01*
X248181429Y-30655000D01*
X249467143Y-31512143D02*
X249324286Y-31583571D01*
X249038572Y-31583571D01*
X248895715Y-31512143D01*
X248824286Y-31369286D01*
X248824286Y-30797857D01*
X248895715Y-30655000D01*
X249038572Y-30583571D01*
X249324286Y-30583571D01*
X249467143Y-30655000D01*
X249538572Y-30797857D01*
X249538572Y-30940714D01*
X248824286Y-31083571D01*
X251252857Y-31512143D02*
X251467143Y-31583571D01*
X251824286Y-31583571D01*
X251967143Y-31512143D01*
X252038572Y-31440714D01*
X252110000Y-31297857D01*
X252110000Y-31155000D01*
X252038572Y-31012143D01*
X251967143Y-30940714D01*
X251824286Y-30869286D01*
X251538572Y-30797857D01*
X251395714Y-30726429D01*
X251324286Y-30655000D01*
X251252857Y-30512143D01*
X251252857Y-30369286D01*
X251324286Y-30226429D01*
X251395714Y-30155000D01*
X251538572Y-30083571D01*
X251895714Y-30083571D01*
X252110000Y-30155000D01*
X252538571Y-30583571D02*
X253110000Y-30583571D01*
X252752857Y-30083571D02*
X252752857Y-31369286D01*
X252824285Y-31512143D01*
X252967143Y-31583571D01*
X253110000Y-31583571D01*
X254252857Y-31583571D02*
X254252857Y-30797857D01*
X254181428Y-30655000D01*
X254038571Y-30583571D01*
X253752857Y-30583571D01*
X253610000Y-30655000D01*
X254252857Y-31512143D02*
X254110000Y-31583571D01*
X253752857Y-31583571D01*
X253610000Y-31512143D01*
X253538571Y-31369286D01*
X253538571Y-31226429D01*
X253610000Y-31083571D01*
X253752857Y-31012143D01*
X254110000Y-31012143D01*
X254252857Y-30940714D01*
X255610000Y-31512143D02*
X255467143Y-31583571D01*
X255181429Y-31583571D01*
X255038571Y-31512143D01*
X254967143Y-31440714D01*
X254895714Y-31297857D01*
X254895714Y-30869286D01*
X254967143Y-30726429D01*
X255038571Y-30655000D01*
X255181429Y-30583571D01*
X255467143Y-30583571D01*
X255610000Y-30655000D01*
X256252857Y-31583571D02*
X256252857Y-30083571D01*
X256395714Y-31012143D02*
X256824285Y-31583571D01*
X256824285Y-30583571D02*
X256252857Y-31155000D01*
X258110000Y-30583571D02*
X258110000Y-31583571D01*
X257467143Y-30583571D02*
X257467143Y-31369286D01*
X257538571Y-31512143D01*
X257681429Y-31583571D01*
X257895714Y-31583571D01*
X258038571Y-31512143D01*
X258110000Y-31440714D01*
X258824286Y-30583571D02*
X258824286Y-32083571D01*
X258824286Y-30655000D02*
X258967143Y-30583571D01*
X259252857Y-30583571D01*
X259395714Y-30655000D01*
X259467143Y-30726429D01*
X259538572Y-30869286D01*
X259538572Y-31297857D01*
X259467143Y-31440714D01*
X259395714Y-31512143D01*
X259252857Y-31583571D01*
X258967143Y-31583571D01*
X258824286Y-31512143D01*
D12*
X212090000Y-20320000D02*
X212090000Y-61595000D01*
X212090000Y-61595000D02*
X279400000Y-61595000D01*
X279400000Y-61595000D02*
X279400000Y-20320000D01*
X279400000Y-20320000D02*
X212090000Y-20320000D01*
X213360000Y-21590000D02*
X212090000Y-20320000D01*
X213360000Y-60960000D02*
X212090000Y-61595000D01*
X279400000Y-61595000D02*
X278130000Y-60960000D01*
X278130000Y-21590000D02*
X279400000Y-20320000D01*
X278130000Y-21590000D02*
X279400000Y-20320000D01*
X279400000Y-61595000D02*
X278130000Y-60960000D01*
X213360000Y-60960000D02*
X212090000Y-61595000D01*
X213360000Y-21590000D02*
X212090000Y-20320000D01*
X279400000Y-20320000D02*
X212090000Y-20320000D01*
X279400000Y-61595000D02*
X279400000Y-20320000D01*
X212090000Y-61595000D02*
X279400000Y-61595000D01*
X212090000Y-20320000D02*
X212090000Y-61595000D01*
X213360000Y-60960000D02*
X213360000Y-21590000D01*
X278130000Y-60960000D02*
X213360000Y-60960000D01*
X278130000Y-21590000D02*
X278130000Y-60960000D01*
X213360000Y-21590000D02*
X278130000Y-21590000D01*
M02*
