<?xml version="1.0" standalone="no"?>
 <!DOCTYPE svg PUBLIC "-//W3C//DTD SVG 1.1//EN" 
 "http://www.w3.org/Graphics/SVG/1.1/DTD/svg11.dtd"> 
<svg xmlns="http://www.w3.org/2000/svg" version="1.1" 
    width="29.7002cm" height="21.0007cm" viewBox="0 0 116930 82680 ">
<title>SVG Picture created as ECG_CIAA-F.Cu.svg date 2016/08/03 20:12:44 </title>
  <desc>Picture generated by PCBNEW </desc>
<g style="fill:#000000; fill-opacity:1;stroke:#000000; stroke-opacity:1;
stroke-linecap:round; stroke-linejoin:round; "
 transform="translate(0 0) scale(1 1)">
</g>
<g style="fill:#000000; fill-opacity:0.0; 
stroke:#000000; stroke-width:-0.000393701; stroke-opacity:1; 
stroke-linecap:round; stroke-linejoin:round;">
</g>
<g style="fill:#000000; fill-opacity:0.0; 
stroke:#000000; stroke-width:39.3701; stroke-opacity:1; 
stroke-linecap:round; stroke-linejoin:round;">
</g>
<g style="fill:#000000; fill-opacity:0.0; 
stroke:#000000; stroke-width:59.0551; stroke-opacity:1; 
stroke-linecap:round; stroke-linejoin:round;">
<rect x="69685.9" y="65357.2" width="42519.7" height="12598.4" rx="0" />
</g>
<g style="fill:#000000; fill-opacity:0.0; 
stroke:#000000; stroke-width:39.3701; stroke-opacity:1; 
stroke-linecap:round; stroke-linejoin:round;">
</g>
<g style="fill:#000000; fill-opacity:0.0; 
stroke:#000000; stroke-width:59.0551; stroke-opacity:1; 
stroke-linecap:round; stroke-linejoin:round;">
<rect x="3937.01" y="3937.01" width="109056" height="74806" rx="0" />
</g>
<g style="fill:#000000; fill-opacity:0.0; 
stroke:#000000; stroke-width:39.3701; stroke-opacity:1; 
stroke-linecap:round; stroke-linejoin:round;">
</g>
<g style="fill:#000000; fill-opacity:0.0; 
stroke:#000000; stroke-width:59.0551; stroke-opacity:1; 
stroke-linecap:round; stroke-linejoin:round;">
<rect x="4724.41" y="4724.41" width="107481" height="73231.2" rx="0" />
</g>
<g style="fill:#000000; fill-opacity:0.0; 
stroke:#000000; stroke-width:39.3701; stroke-opacity:1; 
stroke-linecap:round; stroke-linejoin:round;">
</g>
<g style="fill:#000000; fill-opacity:0.0; 
stroke:#000000; stroke-width:59.0551; stroke-opacity:1; 
stroke-linecap:round; stroke-linejoin:round;">
<path d="M23622 4724
L23622 3937
" />
</g>
<g style="fill:#000000; fill-opacity:0.0; 
stroke:#000000; stroke-width:39.3701; stroke-opacity:1; 
stroke-linecap:round; stroke-linejoin:round;">
</g>
<g style="fill:#000000; fill-opacity:0.0; 
stroke:#000000; stroke-width:59.0551; stroke-opacity:1; 
stroke-linecap:round; stroke-linejoin:round;">
<path d="M43307 4724
L43307 3937
" />
</g>
<g style="fill:#000000; fill-opacity:0.0; 
stroke:#000000; stroke-width:39.3701; stroke-opacity:1; 
stroke-linecap:round; stroke-linejoin:round;">
</g>
<g style="fill:#000000; fill-opacity:0.0; 
stroke:#000000; stroke-width:59.0551; stroke-opacity:1; 
stroke-linecap:round; stroke-linejoin:round;">
<path d="M62992 4724
L62992 3937
" />
</g>
<g style="fill:#000000; fill-opacity:0.0; 
stroke:#000000; stroke-width:39.3701; stroke-opacity:1; 
stroke-linecap:round; stroke-linejoin:round;">
</g>
<g style="fill:#000000; fill-opacity:0.0; 
stroke:#000000; stroke-width:59.0551; stroke-opacity:1; 
stroke-linecap:round; stroke-linejoin:round;">
<path d="M82677 4724
L82677 3937
" />
</g>
<g style="fill:#000000; fill-opacity:0.0; 
stroke:#000000; stroke-width:39.3701; stroke-opacity:1; 
stroke-linecap:round; stroke-linejoin:round;">
</g>
<g style="fill:#000000; fill-opacity:0.0; 
stroke:#000000; stroke-width:59.0551; stroke-opacity:1; 
stroke-linecap:round; stroke-linejoin:round;">
<path d="M102362 4724
L102362 3937
" />
</g>
<g style="fill:#000000; fill-opacity:0.0; 
stroke:#000000; stroke-width:39.3701; stroke-opacity:1; 
stroke-linecap:round; stroke-linejoin:round;">
</g>
<g style="fill:#000000; fill-opacity:0.0; 
stroke:#000000; stroke-width:59.0551; stroke-opacity:1; 
stroke-linecap:round; stroke-linejoin:round;">
<path d="M14169 4562
L13877 4562
" />
<path d="M14023 4562
L14023 4050
L13974 4123
L13925 4172
L13877 4196
" />
</g>
<g style="fill:#000000; fill-opacity:0.0; 
stroke:#000000; stroke-width:39.3701; stroke-opacity:1; 
stroke-linecap:round; stroke-linejoin:round;">
</g>
<g style="fill:#000000; fill-opacity:0.0; 
stroke:#000000; stroke-width:59.0551; stroke-opacity:1; 
stroke-linecap:round; stroke-linejoin:round;">
<path d="M33562 4099
L33586 4074
L33635 4050
L33757 4050
L33805 4074
L33830 4099
L33854 4147
L33854 4196
L33830 4269
L33537 4562
L33854 4562
" />
</g>
<g style="fill:#000000; fill-opacity:0.0; 
stroke:#000000; stroke-width:39.3701; stroke-opacity:1; 
stroke-linecap:round; stroke-linejoin:round;">
</g>
<g style="fill:#000000; fill-opacity:0.0; 
stroke:#000000; stroke-width:59.0551; stroke-opacity:1; 
stroke-linecap:round; stroke-linejoin:round;">
<path d="M53222 4050
L53539 4050
L53368 4245
L53442 4245
L53490 4269
L53515 4294
L53539 4342
L53539 4464
L53515 4513
L53490 4537
L53442 4562
L53295 4562
L53247 4537
L53222 4513
" />
</g>
<g style="fill:#000000; fill-opacity:0.0; 
stroke:#000000; stroke-width:39.3701; stroke-opacity:1; 
stroke-linecap:round; stroke-linejoin:round;">
</g>
<g style="fill:#000000; fill-opacity:0.0; 
stroke:#000000; stroke-width:59.0551; stroke-opacity:1; 
stroke-linecap:round; stroke-linejoin:round;">
<path d="M73175 4221
L73175 4562
" />
<path d="M73053 4026
L72932 4391
L73248 4391
" />
</g>
<g style="fill:#000000; fill-opacity:0.0; 
stroke:#000000; stroke-width:39.3701; stroke-opacity:1; 
stroke-linecap:round; stroke-linejoin:round;">
</g>
<g style="fill:#000000; fill-opacity:0.0; 
stroke:#000000; stroke-width:59.0551; stroke-opacity:1; 
stroke-linecap:round; stroke-linejoin:round;">
<path d="M92885 4050
L92641 4050
L92617 4294
L92641 4269
L92690 4245
L92812 4245
L92860 4269
L92885 4294
L92909 4342
L92909 4464
L92885 4513
L92860 4537
L92812 4562
L92690 4562
L92641 4537
L92617 4513
" />
</g>
<g style="fill:#000000; fill-opacity:0.0; 
stroke:#000000; stroke-width:39.3701; stroke-opacity:1; 
stroke-linecap:round; stroke-linejoin:round;">
</g>
<g style="fill:#000000; fill-opacity:0.0; 
stroke:#000000; stroke-width:59.0551; stroke-opacity:1; 
stroke-linecap:round; stroke-linejoin:round;">
<path d="M112545 4050
L112448 4050
L112399 4074
L112375 4099
L112326 4172
L112302 4269
L112302 4464
L112326 4513
L112350 4537
L112399 4562
L112497 4562
L112545 4537
L112570 4513
L112594 4464
L112594 4342
L112570 4294
L112545 4269
L112497 4245
L112399 4245
L112350 4269
L112326 4294
L112302 4342
" />
</g>
<g style="fill:#000000; fill-opacity:0.0; 
stroke:#000000; stroke-width:39.3701; stroke-opacity:1; 
stroke-linecap:round; stroke-linejoin:round;">
</g>
<g style="fill:#000000; fill-opacity:0.0; 
stroke:#000000; stroke-width:59.0551; stroke-opacity:1; 
stroke-linecap:round; stroke-linejoin:round;">
<path d="M23622 77955
L23622 78742
" />
</g>
<g style="fill:#000000; fill-opacity:0.0; 
stroke:#000000; stroke-width:39.3701; stroke-opacity:1; 
stroke-linecap:round; stroke-linejoin:round;">
</g>
<g style="fill:#000000; fill-opacity:0.0; 
stroke:#000000; stroke-width:59.0551; stroke-opacity:1; 
stroke-linecap:round; stroke-linejoin:round;">
<path d="M43307 77955
L43307 78742
" />
</g>
<g style="fill:#000000; fill-opacity:0.0; 
stroke:#000000; stroke-width:39.3701; stroke-opacity:1; 
stroke-linecap:round; stroke-linejoin:round;">
</g>
<g style="fill:#000000; fill-opacity:0.0; 
stroke:#000000; stroke-width:59.0551; stroke-opacity:1; 
stroke-linecap:round; stroke-linejoin:round;">
<path d="M62992 77955
L62992 78742
" />
</g>
<g style="fill:#000000; fill-opacity:0.0; 
stroke:#000000; stroke-width:39.3701; stroke-opacity:1; 
stroke-linecap:round; stroke-linejoin:round;">
</g>
<g style="fill:#000000; fill-opacity:0.0; 
stroke:#000000; stroke-width:59.0551; stroke-opacity:1; 
stroke-linecap:round; stroke-linejoin:round;">
<path d="M82677 77955
L82677 78742
" />
</g>
<g style="fill:#000000; fill-opacity:0.0; 
stroke:#000000; stroke-width:39.3701; stroke-opacity:1; 
stroke-linecap:round; stroke-linejoin:round;">
</g>
<g style="fill:#000000; fill-opacity:0.0; 
stroke:#000000; stroke-width:59.0551; stroke-opacity:1; 
stroke-linecap:round; stroke-linejoin:round;">
<path d="M102362 77955
L102362 78742
" />
</g>
<g style="fill:#000000; fill-opacity:0.0; 
stroke:#000000; stroke-width:39.3701; stroke-opacity:1; 
stroke-linecap:round; stroke-linejoin:round;">
</g>
<g style="fill:#000000; fill-opacity:0.0; 
stroke:#000000; stroke-width:59.0551; stroke-opacity:1; 
stroke-linecap:round; stroke-linejoin:round;">
<path d="M14169 78580
L13877 78580
" />
<path d="M14023 78580
L14023 78069
L13974 78142
L13925 78190
L13877 78215
" />
</g>
<g style="fill:#000000; fill-opacity:0.0; 
stroke:#000000; stroke-width:39.3701; stroke-opacity:1; 
stroke-linecap:round; stroke-linejoin:round;">
</g>
<g style="fill:#000000; fill-opacity:0.0; 
stroke:#000000; stroke-width:59.0551; stroke-opacity:1; 
stroke-linecap:round; stroke-linejoin:round;">
<path d="M33562 78117
L33586 78093
L33635 78069
L33757 78069
L33805 78093
L33830 78117
L33854 78166
L33854 78215
L33830 78288
L33537 78580
L33854 78580
" />
</g>
<g style="fill:#000000; fill-opacity:0.0; 
stroke:#000000; stroke-width:39.3701; stroke-opacity:1; 
stroke-linecap:round; stroke-linejoin:round;">
</g>
<g style="fill:#000000; fill-opacity:0.0; 
stroke:#000000; stroke-width:59.0551; stroke-opacity:1; 
stroke-linecap:round; stroke-linejoin:round;">
<path d="M53222 78069
L53539 78069
L53368 78263
L53442 78263
L53490 78288
L53515 78312
L53539 78361
L53539 78483
L53515 78532
L53490 78556
L53442 78580
L53295 78580
L53247 78556
L53222 78532
" />
</g>
<g style="fill:#000000; fill-opacity:0.0; 
stroke:#000000; stroke-width:39.3701; stroke-opacity:1; 
stroke-linecap:round; stroke-linejoin:round;">
</g>
<g style="fill:#000000; fill-opacity:0.0; 
stroke:#000000; stroke-width:59.0551; stroke-opacity:1; 
stroke-linecap:round; stroke-linejoin:round;">
<path d="M73175 78239
L73175 78580
" />
<path d="M73053 78044
L72932 78410
L73248 78410
" />
</g>
<g style="fill:#000000; fill-opacity:0.0; 
stroke:#000000; stroke-width:39.3701; stroke-opacity:1; 
stroke-linecap:round; stroke-linejoin:round;">
</g>
<g style="fill:#000000; fill-opacity:0.0; 
stroke:#000000; stroke-width:59.0551; stroke-opacity:1; 
stroke-linecap:round; stroke-linejoin:round;">
<path d="M92885 78069
L92641 78069
L92617 78312
L92641 78288
L92690 78263
L92812 78263
L92860 78288
L92885 78312
L92909 78361
L92909 78483
L92885 78532
L92860 78556
L92812 78580
L92690 78580
L92641 78556
L92617 78532
" />
</g>
<g style="fill:#000000; fill-opacity:0.0; 
stroke:#000000; stroke-width:39.3701; stroke-opacity:1; 
stroke-linecap:round; stroke-linejoin:round;">
</g>
<g style="fill:#000000; fill-opacity:0.0; 
stroke:#000000; stroke-width:59.0551; stroke-opacity:1; 
stroke-linecap:round; stroke-linejoin:round;">
<path d="M112545 78069
L112448 78069
L112399 78093
L112375 78117
L112326 78190
L112302 78288
L112302 78483
L112326 78532
L112350 78556
L112399 78580
L112497 78580
L112545 78556
L112570 78532
L112594 78483
L112594 78361
L112570 78312
L112545 78288
L112497 78263
L112399 78263
L112350 78288
L112326 78312
L112302 78361
" />
</g>
<g style="fill:#000000; fill-opacity:0.0; 
stroke:#000000; stroke-width:39.3701; stroke-opacity:1; 
stroke-linecap:round; stroke-linejoin:round;">
</g>
<g style="fill:#000000; fill-opacity:0.0; 
stroke:#000000; stroke-width:59.0551; stroke-opacity:1; 
stroke-linecap:round; stroke-linejoin:round;">
<path d="M3937 23622
L4724 23622
" />
</g>
<g style="fill:#000000; fill-opacity:0.0; 
stroke:#000000; stroke-width:39.3701; stroke-opacity:1; 
stroke-linecap:round; stroke-linejoin:round;">
</g>
<g style="fill:#000000; fill-opacity:0.0; 
stroke:#000000; stroke-width:59.0551; stroke-opacity:1; 
stroke-linecap:round; stroke-linejoin:round;">
<path d="M3937 43307
L4724 43307
" />
</g>
<g style="fill:#000000; fill-opacity:0.0; 
stroke:#000000; stroke-width:39.3701; stroke-opacity:1; 
stroke-linecap:round; stroke-linejoin:round;">
</g>
<g style="fill:#000000; fill-opacity:0.0; 
stroke:#000000; stroke-width:59.0551; stroke-opacity:1; 
stroke-linecap:round; stroke-linejoin:round;">
<path d="M3937 62992
L4724 62992
" />
</g>
<g style="fill:#000000; fill-opacity:0.0; 
stroke:#000000; stroke-width:39.3701; stroke-opacity:1; 
stroke-linecap:round; stroke-linejoin:round;">
</g>
<g style="fill:#000000; fill-opacity:0.0; 
stroke:#000000; stroke-width:59.0551; stroke-opacity:1; 
stroke-linecap:round; stroke-linejoin:round;">
<path d="M4208 13864
L4452 13864
" />
<path d="M4160 14011
L4330 13499
L4501 14011
" />
</g>
<g style="fill:#000000; fill-opacity:0.0; 
stroke:#000000; stroke-width:39.3701; stroke-opacity:1; 
stroke-linecap:round; stroke-linejoin:round;">
</g>
<g style="fill:#000000; fill-opacity:0.0; 
stroke:#000000; stroke-width:59.0551; stroke-opacity:1; 
stroke-linecap:round; stroke-linejoin:round;">
<path d="M4367 33428
L4440 33452
L4464 33476
L4489 33525
L4489 33598
L4464 33647
L4440 33671
L4391 33696
L4196 33696
L4196 33184
L4367 33184
L4416 33208
L4440 33233
L4464 33281
L4464 33330
L4440 33379
L4416 33403
L4367 33428
L4196 33428
" />
</g>
<g style="fill:#000000; fill-opacity:0.0; 
stroke:#000000; stroke-width:39.3701; stroke-opacity:1; 
stroke-linecap:round; stroke-linejoin:round;">
</g>
<g style="fill:#000000; fill-opacity:0.0; 
stroke:#000000; stroke-width:59.0551; stroke-opacity:1; 
stroke-linecap:round; stroke-linejoin:round;">
<path d="M4489 53332
L4464 53356
L4391 53381
L4342 53381
L4269 53356
L4221 53308
L4196 53259
L4172 53161
L4172 53088
L4196 52991
L4221 52942
L4269 52893
L4342 52869
L4391 52869
L4464 52893
L4489 52918
" />
</g>
<g style="fill:#000000; fill-opacity:0.0; 
stroke:#000000; stroke-width:39.3701; stroke-opacity:1; 
stroke-linecap:round; stroke-linejoin:round;">
</g>
<g style="fill:#000000; fill-opacity:0.0; 
stroke:#000000; stroke-width:59.0551; stroke-opacity:1; 
stroke-linecap:round; stroke-linejoin:round;">
<path d="M4196 73066
L4196 72554
L4318 72554
L4391 72578
L4440 72627
L4464 72676
L4489 72773
L4489 72846
L4464 72944
L4440 72993
L4391 73041
L4318 73066
L4196 73066
" />
</g>
<g style="fill:#000000; fill-opacity:0.0; 
stroke:#000000; stroke-width:39.3701; stroke-opacity:1; 
stroke-linecap:round; stroke-linejoin:round;">
</g>
<g style="fill:#000000; fill-opacity:0.0; 
stroke:#000000; stroke-width:59.0551; stroke-opacity:1; 
stroke-linecap:round; stroke-linejoin:round;">
<path d="M112992 23622
L112205 23622
" />
</g>
<g style="fill:#000000; fill-opacity:0.0; 
stroke:#000000; stroke-width:39.3701; stroke-opacity:1; 
stroke-linecap:round; stroke-linejoin:round;">
</g>
<g style="fill:#000000; fill-opacity:0.0; 
stroke:#000000; stroke-width:59.0551; stroke-opacity:1; 
stroke-linecap:round; stroke-linejoin:round;">
<path d="M112992 43307
L112205 43307
" />
</g>
<g style="fill:#000000; fill-opacity:0.0; 
stroke:#000000; stroke-width:39.3701; stroke-opacity:1; 
stroke-linecap:round; stroke-linejoin:round;">
</g>
<g style="fill:#000000; fill-opacity:0.0; 
stroke:#000000; stroke-width:59.0551; stroke-opacity:1; 
stroke-linecap:round; stroke-linejoin:round;">
<path d="M112992 62992
L112205 62992
" />
</g>
<g style="fill:#000000; fill-opacity:0.0; 
stroke:#000000; stroke-width:39.3701; stroke-opacity:1; 
stroke-linecap:round; stroke-linejoin:round;">
</g>
<g style="fill:#000000; fill-opacity:0.0; 
stroke:#000000; stroke-width:59.0551; stroke-opacity:1; 
stroke-linecap:round; stroke-linejoin:round;">
<path d="M112477 13864
L112721 13864
" />
<path d="M112428 14011
L112599 13499
L112769 14011
" />
</g>
<g style="fill:#000000; fill-opacity:0.0; 
stroke:#000000; stroke-width:39.3701; stroke-opacity:1; 
stroke-linecap:round; stroke-linejoin:round;">
</g>
<g style="fill:#000000; fill-opacity:0.0; 
stroke:#000000; stroke-width:59.0551; stroke-opacity:1; 
stroke-linecap:round; stroke-linejoin:round;">
<path d="M112635 33428
L112708 33452
L112733 33476
L112757 33525
L112757 33598
L112733 33647
L112708 33671
L112660 33696
L112465 33696
L112465 33184
L112635 33184
L112684 33208
L112708 33233
L112733 33281
L112733 33330
L112708 33379
L112684 33403
L112635 33428
L112465 33428
" />
</g>
<g style="fill:#000000; fill-opacity:0.0; 
stroke:#000000; stroke-width:39.3701; stroke-opacity:1; 
stroke-linecap:round; stroke-linejoin:round;">
</g>
<g style="fill:#000000; fill-opacity:0.0; 
stroke:#000000; stroke-width:59.0551; stroke-opacity:1; 
stroke-linecap:round; stroke-linejoin:round;">
<path d="M112757 53332
L112733 53356
L112660 53381
L112611 53381
L112538 53356
L112489 53308
L112465 53259
L112440 53161
L112440 53088
L112465 52991
L112489 52942
L112538 52893
L112611 52869
L112660 52869
L112733 52893
L112757 52918
" />
</g>
<g style="fill:#000000; fill-opacity:0.0; 
stroke:#000000; stroke-width:39.3701; stroke-opacity:1; 
stroke-linecap:round; stroke-linejoin:round;">
</g>
<g style="fill:#000000; fill-opacity:0.0; 
stroke:#000000; stroke-width:59.0551; stroke-opacity:1; 
stroke-linecap:round; stroke-linejoin:round;">
<path d="M112465 73066
L112465 72554
L112587 72554
L112660 72578
L112708 72627
L112733 72676
L112757 72773
L112757 72846
L112733 72944
L112708 72993
L112660 73041
L112587 73066
L112465 73066
" />
</g>
<g style="fill:#000000; fill-opacity:0.0; 
stroke:#000000; stroke-width:39.3701; stroke-opacity:1; 
stroke-linecap:round; stroke-linejoin:round;">
</g>
<g style="fill:#000000; fill-opacity:0.0; 
stroke:#000000; stroke-width:59.0551; stroke-opacity:1; 
stroke-linecap:round; stroke-linejoin:round;">
<path d="M78881 76293
L78881 75703
L79022 75703
L79106 75731
L79162 75787
L79190 75843
L79219 75956
L79219 76040
L79190 76153
L79162 76209
L79106 76265
L79022 76293
L78881 76293
" />
<path d="M79725 76293
L79725 75984
L79697 75928
L79640 75899
L79528 75899
L79472 75928
" />
<path d="M79725 76265
L79669 76293
L79528 76293
L79472 76265
L79444 76209
L79444 76153
L79472 76096
L79528 76068
L79669 76068
L79725 76040
" />
<path d="M79922 75899
L80147 75899
" />
<path d="M80006 75703
L80006 76209
L80034 76265
L80090 76293
L80147 76293
" />
<path d="M80568 76265
L80512 76293
L80400 76293
L80343 76265
L80315 76209
L80315 75984
L80343 75928
L80400 75899
L80512 75899
L80568 75928
L80597 75984
L80597 76040
L80315 76096
" />
<path d="M80850 76237
L80878 76265
L80850 76293
L80822 76265
L80850 76237
L80850 76293
" />
<path d="M80850 75928
L80878 75956
L80850 75984
L80822 75956
L80850 75928
L80850 75984
" />
</g>
<g style="fill:#000000; fill-opacity:0.0; 
stroke:#000000; stroke-width:39.3701; stroke-opacity:1; 
stroke-linecap:round; stroke-linejoin:round;">
</g>
<g style="fill:#000000; fill-opacity:0.0; 
stroke:#000000; stroke-width:59.0551; stroke-opacity:1; 
stroke-linecap:round; stroke-linejoin:round;">
<path d="M69685 76577
L112205 76577
" />
</g>
<g style="fill:#000000; fill-opacity:0.0; 
stroke:#000000; stroke-width:39.3701; stroke-opacity:1; 
stroke-linecap:round; stroke-linejoin:round;">
</g>
<g style="fill:#000000; fill-opacity:0.0; 
stroke:#000000; stroke-width:59.0551; stroke-opacity:1; 
stroke-linecap:round; stroke-linejoin:round;">
<path d="M70220 77395
L70220 76805
" />
<path d="M70557 77395
L70304 77058
" />
<path d="M70557 76805
L70220 77142
" />
<path d="M70810 77395
L70810 77002
" />
<path d="M70810 76805
L70782 76833
L70810 76861
L70838 76833
L70810 76805
L70810 76861
" />
<path d="M71429 77339
L71401 77367
L71316 77395
L71260 77395
L71176 77367
L71120 77311
L71091 77255
L71063 77142
L71063 77058
L71091 76946
L71120 76889
L71176 76833
L71260 76805
L71316 76805
L71401 76833
L71429 76861
" />
<path d="M71935 77395
L71935 77086
L71907 77030
L71851 77002
L71738 77002
L71682 77030
" />
<path d="M71935 77367
L71879 77395
L71738 77395
L71682 77367
L71654 77311
L71654 77255
L71682 77199
L71738 77171
L71879 77171
L71935 77142
" />
<path d="M72469 77395
L72469 76805
" />
<path d="M72469 77367
L72413 77395
L72301 77395
L72244 77367
L72216 77339
L72188 77283
L72188 77114
L72216 77058
L72244 77030
L72301 77002
L72413 77002
L72469 77030
" />
<path d="M73201 77086
L73397 77086
" />
<path d="M73482 77395
L73201 77395
L73201 76805
L73482 76805
" />
<path d="M73735 77339
L73763 77367
L73735 77395
L73707 77367
L73735 77339
L73735 77395
" />
<path d="M74016 77395
L74016 76805
L74157 76805
L74241 76833
L74297 76889
L74325 76946
L74354 77058
L74354 77142
L74325 77255
L74297 77311
L74241 77367
L74157 77395
L74016 77395
" />
<path d="M74607 77339
L74635 77367
L74607 77395
L74579 77367
L74607 77339
L74607 77395
" />
<path d="M74860 77227
L75141 77227
" />
<path d="M74804 77395
L75000 76805
L75197 77395
" />
<path d="M75394 77339
L75422 77367
L75394 77395
L75366 77367
L75394 77339
L75394 77395
" />
<path d="M76575 77395
L76575 76805
" />
<path d="M76631 77171
L76800 77395
" />
<path d="M76800 77002
L76575 77227
" />
<path d="M77053 77395
L77053 77002
" />
<path d="M77053 76805
L77025 76833
L77053 76861
L77081 76833
L77053 76805
L77053 76861
" />
<path d="M77588 77367
L77531 77395
L77419 77395
L77363 77367
L77334 77339
L77306 77283
L77306 77114
L77334 77058
L77363 77030
L77419 77002
L77531 77002
L77588 77030
" />
<path d="M78094 77395
L78094 77086
L78066 77030
L78009 77002
L77897 77002
L77841 77030
" />
<path d="M78094 77367
L78037 77395
L77897 77395
L77841 77367
L77813 77311
L77813 77255
L77841 77199
L77897 77171
L78037 77171
L78094 77142
" />
<path d="M78628 77395
L78628 76805
" />
<path d="M78628 77367
L78572 77395
L78459 77395
L78403 77367
L78375 77339
L78347 77283
L78347 77114
L78375 77058
L78403 77030
L78459 77002
L78572 77002
L78628 77030
" />
<path d="M79612 77002
L79612 77395
" />
<path d="M79472 76777
L79331 77199
L79697 77199
" />
<path d="M79922 77339
L79950 77367
L79922 77395
L79894 77367
L79922 77339
L79922 77395
" />
<path d="M80315 76805
L80372 76805
L80428 76833
L80456 76861
L80484 76917
L80512 77030
L80512 77171
L80484 77283
L80456 77339
L80428 77367
L80372 77395
L80315 77395
L80259 77367
L80231 77339
L80203 77283
L80175 77171
L80175 77030
L80203 76917
L80231 76861
L80259 76833
L80315 76805
" />
<path d="M80765 77339
L80793 77367
L80765 77395
L80737 77367
L80765 77339
L80765 77395
" />
<path d="M81018 76861
L81046 76833
L81103 76805
L81243 76805
L81300 76833
L81328 76861
L81356 76917
L81356 76974
L81328 77058
L80990 77395
L81356 77395
" />
<path d="M81609 77171
L82059 77171
" />
<path d="M81834 77395
L81834 76946
" />
<path d="M82565 77367
L82509 77395
L82396 77395
L82340 77367
L82312 77311
L82312 77086
L82340 77030
L82396 77002
L82509 77002
L82565 77030
L82593 77086
L82593 77142
L82312 77199
" />
<path d="M83099 77002
L83099 77395
" />
<path d="M82959 76777
L82818 77199
L83184 77199
" />
<path d="M83409 77171
L83859 77171
" />
<path d="M84393 76805
L84280 76805
L84224 76833
L84196 76861
L84140 76946
L84112 77058
L84112 77283
L84140 77339
L84168 77367
L84224 77395
L84337 77395
L84393 77367
L84421 77339
L84449 77283
L84449 77142
L84421 77086
L84393 77058
L84337 77030
L84224 77030
L84168 77058
L84140 77086
L84112 77142
" />
<path d="M84674 76861
L84702 76833
L84759 76805
L84899 76805
L84955 76833
L84983 76861
L85012 76917
L85012 76974
L84983 77058
L84646 77395
L85012 77395
" />
<path d="M85237 76861
L85265 76833
L85321 76805
L85462 76805
L85518 76833
L85546 76861
L85574 76917
L85574 76974
L85546 77058
L85208 77395
L85574 77395
" />
<path d="M86108 76805
L85827 76805
L85799 77086
L85827 77058
L85883 77030
L86024 77030
L86080 77058
L86108 77086
L86136 77142
L86136 77283
L86108 77339
L86080 77367
L86024 77395
L85883 77395
L85827 77367
L85799 77339
" />
<path d="M86333 76805
L86699 76805
L86502 77030
L86586 77030
L86643 77058
L86671 77086
L86699 77142
L86699 77283
L86671 77339
L86643 77367
L86586 77395
L86418 77395
L86361 77367
L86333 77339
" />
<path d="M87036 77058
L86980 77030
L86952 77002
L86924 76946
L86924 76917
L86952 76861
L86980 76833
L87036 76805
L87149 76805
L87205 76833
L87233 76861
L87261 76917
L87261 76946
L87233 77002
L87205 77030
L87149 77058
L87036 77058
L86980 77086
L86952 77114
L86924 77171
L86924 77283
L86952 77339
L86980 77367
L87036 77395
L87149 77395
L87205 77367
L87233 77339
L87261 77283
L87261 77171
L87233 77114
L87205 77086
L87149 77058
" />
<path d="M86249 76703
L87374 76703
" />
<path d="M87768 77002
L87768 77395
" />
<path d="M87514 77002
L87514 77311
L87543 77367
L87599 77395
L87683 77395
L87739 77367
L87768 77339
" />
<path d="M88049 77395
L88049 76805
" />
<path d="M88049 77030
L88105 77002
L88217 77002
L88274 77030
L88302 77058
L88330 77114
L88330 77283
L88302 77339
L88274 77367
L88217 77395
L88105 77395
L88049 77367
" />
<path d="M88836 77002
L88836 77395
" />
<path d="M88583 77002
L88583 77311
L88611 77367
L88667 77395
L88752 77395
L88808 77367
L88836 77339
" />
<path d="M89117 77002
L89117 77395
" />
<path d="M89117 77058
L89145 77030
L89202 77002
L89286 77002
L89342 77030
L89370 77086
L89370 77395
" />
<path d="M89567 77002
L89792 77002
" />
<path d="M89652 76805
L89652 77311
L89680 77367
L89736 77395
L89792 77395
" />
<path d="M90242 77002
L90242 77395
" />
<path d="M89989 77002
L89989 77311
L90017 77367
L90073 77395
L90158 77395
L90214 77367
L90242 77339
" />
<path d="M90833 77395
L90495 77395
" />
<path d="M90664 77395
L90664 76805
L90608 76889
L90552 76946
L90495 76974
" />
<path d="M91339 76805
L91226 76805
L91170 76833
L91142 76861
L91086 76946
L91058 77058
L91058 77283
L91086 77339
L91114 77367
L91170 77395
L91283 77395
L91339 77367
L91367 77339
L91395 77283
L91395 77142
L91367 77086
L91339 77058
L91283 77030
L91170 77030
L91114 77058
L91086 77086
L91058 77142
" />
<path d="M91648 77339
L91676 77367
L91648 77395
L91620 77367
L91648 77339
L91648 77395
" />
<path d="M92042 76805
L92098 76805
L92154 76833
L92183 76861
L92211 76917
L92239 77030
L92239 77171
L92211 77283
L92183 77339
L92154 77367
L92098 77395
L92042 77395
L91986 77367
L91958 77339
L91929 77283
L91901 77171
L91901 77030
L91929 76917
L91958 76861
L91986 76833
L92042 76805
" />
<path d="M92745 77002
L92745 77395
" />
<path d="M92604 76777
L92464 77199
L92829 77199
" />
<path d="M93054 77339
L93082 77367
L93054 77395
L93026 77367
L93054 77339
L93054 77395
" />
<path d="M93645 77395
L93307 77395
" />
<path d="M93476 77395
L93476 76805
L93420 76889
L93364 76946
L93307 76974
" />
<path d="M93898 77171
L94348 77171
" />
<path d="M94601 77367
L94657 77395
L94770 77395
L94826 77367
L94854 77311
L94854 77283
L94826 77227
L94770 77199
L94685 77199
L94629 77171
L94601 77114
L94601 77086
L94629 77030
L94685 77002
L94770 77002
L94826 77030
" />
<path d="M95023 77002
L95248 77002
" />
<path d="M95107 76805
L95107 77311
L95135 77367
L95192 77395
L95248 77395
" />
<path d="M95698 77395
L95698 77086
L95670 77030
L95613 77002
L95501 77002
L95445 77030
" />
<path d="M95698 77367
L95642 77395
L95501 77395
L95445 77367
L95417 77311
L95417 77255
L95445 77199
L95501 77171
L95642 77171
L95698 77142
" />
<path d="M95979 77395
L95979 76805
" />
<path d="M95979 77030
L96035 77002
L96148 77002
L96204 77030
L96232 77058
L96260 77114
L96260 77283
L96232 77339
L96204 77367
L96148 77395
L96035 77395
L95979 77367
" />
<path d="M96598 77395
L96541 77367
L96513 77311
L96513 76805
" />
<path d="M97048 77367
L96991 77395
L96879 77395
L96823 77367
L96795 77311
L96795 77086
L96823 77030
L96879 77002
L96991 77002
L97048 77030
L97076 77086
L97076 77142
L96795 77199
" />
</g>
<g style="fill:#000000; fill-opacity:0.0; 
stroke:#000000; stroke-width:39.3701; stroke-opacity:1; 
stroke-linecap:round; stroke-linejoin:round;">
</g>
<g style="fill:#000000; fill-opacity:0.0; 
stroke:#000000; stroke-width:59.0551; stroke-opacity:1; 
stroke-linecap:round; stroke-linejoin:round;">
<path d="M69685 75396
L112205 75396
" />
</g>
<g style="fill:#000000; fill-opacity:0.0; 
stroke:#000000; stroke-width:39.3701; stroke-opacity:1; 
stroke-linecap:round; stroke-linejoin:round;">
</g>
<g style="fill:#000000; fill-opacity:0.0; 
stroke:#000000; stroke-width:118.11; stroke-opacity:1; 
stroke-linecap:round; stroke-linejoin:round;">
<path d="M104022 76293
L103825 76012
" />
<path d="M103684 76293
L103684 75703
L103909 75703
L103965 75731
L103994 75759
L104022 75815
L104022 75899
L103994 75956
L103965 75984
L103909 76012
L103684 76012
" />
<path d="M104500 76265
L104444 76293
L104331 76293
L104275 76265
L104247 76209
L104247 75984
L104275 75928
L104331 75899
L104444 75899
L104500 75928
L104528 75984
L104528 76040
L104247 76096
" />
<path d="M104725 75899
L104865 76293
L105006 75899
" />
<path d="M105231 76237
L105259 76265
L105231 76293
L105203 76265
L105231 76237
L105231 76293
" />
<path d="M105231 75928
L105259 75956
L105231 75984
L105203 75956
L105231 75928
L105231 75984
" />
<path d="M105878 75703
L106075 76293
L106271 75703
" />
<path d="M106778 76293
L106440 76293
" />
<path d="M106609 76293
L106609 75703
L106553 75787
L106496 75843
L106440 75871
" />
</g>
<g style="fill:#000000; fill-opacity:0.0; 
stroke:#000000; stroke-width:39.3701; stroke-opacity:1; 
stroke-linecap:round; stroke-linejoin:round;">
</g>
<g style="fill:#000000; fill-opacity:0.0; 
stroke:#000000; stroke-width:59.0551; stroke-opacity:1; 
stroke-linecap:round; stroke-linejoin:round;">
<path d="M70192 76265
L70276 76293
L70417 76293
L70473 76265
L70501 76237
L70529 76181
L70529 76124
L70501 76068
L70473 76040
L70417 76012
L70304 75984
L70248 75956
L70220 75928
L70192 75871
L70192 75815
L70220 75759
L70248 75731
L70304 75703
L70445 75703
L70529 75731
" />
<path d="M70782 76293
L70782 75899
" />
<path d="M70782 75703
L70754 75731
L70782 75759
L70810 75731
L70782 75703
L70782 75759
" />
<path d="M71007 75899
L71316 75899
L71007 76293
L71316 76293
" />
<path d="M71766 76265
L71710 76293
L71598 76293
L71541 76265
L71513 76209
L71513 75984
L71541 75928
L71598 75899
L71710 75899
L71766 75928
L71795 75984
L71795 76040
L71513 76096
" />
<path d="M72048 76237
L72076 76265
L72048 76293
L72019 76265
L72048 76237
L72048 76293
" />
<path d="M72048 75928
L72076 75956
L72048 75984
L72019 75956
L72048 75928
L72048 75984
" />
<path d="M72751 76124
L73032 76124
" />
<path d="M72694 76293
L72891 75703
L73088 76293
" />
<path d="M73538 75899
L73538 76293
" />
<path d="M73397 75674
L73257 76096
L73622 76096
" />
</g>
<g style="fill:#000000; fill-opacity:0.0; 
stroke:#000000; stroke-width:39.3701; stroke-opacity:1; 
stroke-linecap:round; stroke-linejoin:round;">
</g>
<g style="fill:#000000; fill-opacity:0.0; 
stroke:#000000; stroke-width:59.0551; stroke-opacity:1; 
stroke-linecap:round; stroke-linejoin:round;">
<path d="M103684 77395
L103684 76805
" />
<path d="M104219 77395
L104219 76805
" />
<path d="M104219 77367
L104162 77395
L104050 77395
L103994 77367
L103965 77339
L103937 77283
L103937 77114
L103965 77058
L103994 77030
L104050 77002
L104162 77002
L104219 77030
" />
<path d="M104500 77339
L104528 77367
L104500 77395
L104472 77367
L104500 77339
L104500 77395
" />
<path d="M104500 77030
L104528 77058
L104500 77086
L104472 77058
L104500 77030
L104500 77086
" />
<path d="M105540 77395
L105203 77395
" />
<path d="M105372 77395
L105372 76805
L105315 76889
L105259 76946
L105203 76974
" />
<path d="M106215 76777
L105709 77536
" />
<path d="M106721 77395
L106384 77395
" />
<path d="M106553 77395
L106553 76805
L106496 76889
L106440 76946
L106384 76974
" />
</g>
<g style="fill:#000000; fill-opacity:0.0; 
stroke:#000000; stroke-width:39.3701; stroke-opacity:1; 
stroke-linecap:round; stroke-linejoin:round;">
</g>
<g style="fill:#000000; fill-opacity:0.0; 
stroke:#000000; stroke-width:59.0551; stroke-opacity:1; 
stroke-linecap:round; stroke-linejoin:round;">
<path d="M69685 73821
L112205 73821
" />
</g>
<g style="fill:#000000; fill-opacity:0.0; 
stroke:#000000; stroke-width:39.3701; stroke-opacity:1; 
stroke-linecap:round; stroke-linejoin:round;">
</g>
<g style="fill:#000000; fill-opacity:0.0; 
stroke:#000000; stroke-width:157.48; stroke-opacity:1; 
stroke-linecap:round; stroke-linejoin:round;">
<path d="M70257 74099
L70707 74099
" />
<path d="M70384 74886
L70482 74099
" />
<path d="M70871 74886
L70937 74361
" />
<path d="M70970 74099
L70927 74136
L70960 74174
L71002 74136
L70970 74099
L70960 74174
" />
<path d="M71199 74361
L71499 74361
" />
<path d="M71345 74099
L71260 74774
L71288 74849
L71359 74886
L71434 74886
" />
<path d="M71809 74886
L71738 74849
L71710 74774
L71795 74099
" />
<path d="M72413 74849
L72334 74886
L72184 74886
L72113 74849
L72085 74774
L72123 74474
L72169 74399
L72249 74361
L72399 74361
L72469 74399
L72498 74474
L72488 74549
L72104 74624
" />
<path d="M72793 74811
L72826 74849
L72783 74886
L72751 74849
L72793 74811
L72783 74886
" />
<path d="M72844 74399
L72877 74436
L72835 74474
L72802 74436
L72844 74399
L72835 74474
" />
<path d="M73810 74474
L74072 74474
" />
<path d="M74133 74886
L73758 74886
L73857 74099
L74232 74099
" />
<path d="M74930 74811
L74888 74849
L74771 74886
L74696 74886
L74588 74849
L74522 74774
L74494 74699
L74475 74549
L74489 74436
L74546 74286
L74593 74211
L74677 74136
L74794 74099
L74869 74099
L74977 74136
L75010 74174
" />
<path d="M75764 74136
L75694 74099
L75582 74099
L75464 74136
L75380 74211
L75333 74286
L75277 74436
L75263 74549
L75282 74699
L75310 74774
L75375 74849
L75483 74886
L75558 74886
L75675 74849
L75717 74811
L75750 74549
L75600 74549
" />
<path d="M77105 74811
L77063 74849
L76945 74886
L76870 74886
L76763 74849
L76697 74774
L76669 74699
L76650 74549
L76664 74436
L76720 74286
L76767 74211
L76852 74136
L76969 74099
L77044 74099
L77152 74136
L77184 74174
" />
<path d="M77433 74886
L77531 74099
" />
<path d="M77798 74661
L78173 74661
" />
<path d="M77695 74886
L78056 74099
L78220 74886
" />
<path d="M78473 74661
L78848 74661
" />
<path d="M78370 74886
L78731 74099
L78895 74886
" />
</g>
<g style="fill:#000000; fill-opacity:0.0; 
stroke:#000000; stroke-width:39.3701; stroke-opacity:1; 
stroke-linecap:round; stroke-linejoin:round;">
</g>
<g style="fill:#000000; fill-opacity:0.0; 
stroke:#000000; stroke-width:59.0551; stroke-opacity:1; 
stroke-linecap:round; stroke-linejoin:round;">
<path d="M70417 73070
L70220 73070
" />
<path d="M70220 73380
L70220 72789
L70501 72789
" />
<path d="M70726 73380
L70726 72986
" />
<path d="M70726 72789
L70698 72817
L70726 72845
L70754 72817
L70726 72789
L70726 72845
" />
<path d="M71091 73380
L71035 73352
L71007 73295
L71007 72789
" />
<path d="M71541 73352
L71485 73380
L71373 73380
L71316 73352
L71288 73295
L71288 73070
L71316 73014
L71373 72986
L71485 72986
L71541 73014
L71570 73070
L71570 73127
L71288 73183
" />
<path d="M71823 73323
L71851 73352
L71823 73380
L71795 73352
L71823 73323
L71823 73380
" />
<path d="M71823 73014
L71851 73042
L71823 73070
L71795 73042
L71823 73014
L71823 73070
" />
<path d="M72554 73070
L72751 73070
" />
<path d="M72835 73380
L72554 73380
L72554 72789
L72835 72789
" />
<path d="M73426 73323
L73397 73352
L73313 73380
L73257 73380
L73172 73352
L73116 73295
L73088 73239
L73060 73127
L73060 73042
L73088 72930
L73116 72874
L73172 72817
L73257 72789
L73313 72789
L73397 72817
L73426 72845
" />
<path d="M73988 72817
L73932 72789
L73847 72789
L73763 72817
L73707 72874
L73679 72930
L73651 73042
L73651 73127
L73679 73239
L73707 73295
L73763 73352
L73847 73380
L73904 73380
L73988 73352
L74016 73323
L74016 73127
L73904 73127
" />
<path d="M74129 73436
L74579 73436
" />
<path d="M75057 73323
L75028 73352
L74944 73380
L74888 73380
L74804 73352
L74747 73295
L74719 73239
L74691 73127
L74691 73042
L74719 72930
L74747 72874
L74804 72817
L74888 72789
L74944 72789
L75028 72817
L75057 72845
" />
<path d="M75310 73380
L75310 72789
" />
<path d="M75563 73211
L75844 73211
" />
<path d="M75507 73380
L75703 72789
L75900 73380
" />
<path d="M76069 73211
L76350 73211
" />
<path d="M76013 73380
L76210 72789
L76406 73380
" />
<path d="M76603 73323
L76631 73352
L76603 73380
L76575 73352
L76603 73323
L76603 73380
" />
<path d="M76885 73380
L76885 72789
" />
<path d="M76941 73155
L77109 73380
" />
<path d="M77109 72986
L76885 73211
" />
<path d="M77363 73380
L77363 72986
" />
<path d="M77363 72789
L77334 72817
L77363 72845
L77391 72817
L77363 72789
L77363 72845
" />
<path d="M77897 73352
L77841 73380
L77728 73380
L77672 73352
L77644 73323
L77616 73267
L77616 73099
L77644 73042
L77672 73014
L77728 72986
L77841 72986
L77897 73014
" />
<path d="M78403 73380
L78403 73070
L78375 73014
L78319 72986
L78206 72986
L78150 73014
" />
<path d="M78403 73352
L78347 73380
L78206 73380
L78150 73352
L78122 73295
L78122 73239
L78150 73183
L78206 73155
L78347 73155
L78403 73127
" />
<path d="M78937 73380
L78937 72789
" />
<path d="M78937 73352
L78881 73380
L78769 73380
L78712 73352
L78684 73323
L78656 73267
L78656 73099
L78684 73042
L78712 73014
L78769 72986
L78881 72986
L78937 73014
" />
<path d="M79078 73436
L79528 73436
" />
<path d="M79669 72986
L79669 73577
" />
<path d="M79669 73014
L79725 72986
L79837 72986
L79894 73014
L79922 73042
L79950 73099
L79950 73267
L79922 73323
L79894 73352
L79837 73380
L79725 73380
L79669 73352
" />
<path d="M80456 73352
L80400 73380
L80287 73380
L80231 73352
L80203 73323
L80175 73267
L80175 73099
L80203 73042
L80231 73014
L80287 72986
L80400 72986
L80456 73014
" />
<path d="M80709 73380
L80709 72789
" />
<path d="M80709 73014
L80765 72986
L80878 72986
L80934 73014
L80962 73042
L80990 73099
L80990 73267
L80962 73323
L80934 73352
L80878 73380
L80765 73380
L80709 73352
" />
</g>
<g style="fill:#000000; fill-opacity:0.0; 
stroke:#000000; stroke-width:39.3701; stroke-opacity:1; 
stroke-linecap:round; stroke-linejoin:round;">
</g>
<g style="fill:#000000; fill-opacity:0.0; 
stroke:#000000; stroke-width:59.0551; stroke-opacity:1; 
stroke-linecap:round; stroke-linejoin:round;">
<path d="M69685 71459
L112205 71459
" />
</g>
<g style="fill:#000000; fill-opacity:0.0; 
stroke:#000000; stroke-width:39.3701; stroke-opacity:1; 
stroke-linecap:round; stroke-linejoin:round;">
</g>
<g style="fill:#000000; fill-opacity:0.0; 
stroke:#000000; stroke-width:59.0551; stroke-opacity:1; 
stroke-linecap:round; stroke-linejoin:round;">
<path d="M70192 72289
L70276 72317
L70417 72317
L70473 72289
L70501 72260
L70529 72204
L70529 72148
L70501 72092
L70473 72064
L70417 72036
L70304 72007
L70248 71979
L70220 71951
L70192 71895
L70192 71839
L70220 71782
L70248 71754
L70304 71726
L70445 71726
L70529 71754
" />
<path d="M70782 72317
L70782 71726
" />
<path d="M71035 72317
L71035 72007
L71007 71951
L70951 71923
L70867 71923
L70810 71951
L70782 71979
" />
<path d="M71541 72289
L71485 72317
L71373 72317
L71316 72289
L71288 72232
L71288 72007
L71316 71951
L71373 71923
L71485 71923
L71541 71951
L71570 72007
L71570 72064
L71288 72120
" />
<path d="M72048 72289
L71991 72317
L71879 72317
L71823 72289
L71795 72232
L71795 72007
L71823 71951
L71879 71923
L71991 71923
L72048 71951
L72076 72007
L72076 72064
L71795 72120
" />
<path d="M72244 71923
L72469 71923
" />
<path d="M72329 71726
L72329 72232
L72357 72289
L72413 72317
L72469 72317
" />
<path d="M72666 72260
L72694 72289
L72666 72317
L72638 72289
L72666 72260
L72666 72317
" />
<path d="M72666 71951
L72694 71979
L72666 72007
L72638 71979
L72666 71951
L72666 72007
" />
</g>
<g style="fill:#000000; fill-opacity:0.0; 
stroke:#000000; stroke-width:39.3701; stroke-opacity:1; 
stroke-linecap:round; stroke-linejoin:round;">
</g>
<g style="fill:#000000; fill-opacity:0.0; 
stroke:#000000; stroke-width:59.0551; stroke-opacity:1; 
stroke-linecap:round; stroke-linejoin:round;">
<path d="M77559 75396
L77559 76577
" />
</g>
<g style="fill:#000000; fill-opacity:0.0; 
stroke:#000000; stroke-width:39.3701; stroke-opacity:1; 
stroke-linecap:round; stroke-linejoin:round;">
</g>
<g style="fill:#000000; fill-opacity:0.0; 
stroke:#000000; stroke-width:59.0551; stroke-opacity:1; 
stroke-linecap:round; stroke-linejoin:round;">
<path d="M102756 75396
L102756 77955
" />
</g>
<g style="fill:#C2C200; fill-opacity:0.0; 
stroke:#C2C200; stroke-width:59.0551; stroke-opacity:1; 
stroke-linecap:round; stroke-linejoin:round;">
<path d="M50200 18000
L71000 18000
" />
<path d="M50200 42000
L50200 18000
" />
<path d="M71000 42000
L50200 42000
" />
<path d="M71000 18000
L71000 42000
" />
</g>
<g style="fill:#840000; fill-opacity:0.0; 
stroke:#840000; stroke-width:59.0551; stroke-opacity:1; 
stroke-linecap:round; stroke-linejoin:round;">
</g>
<g style="fill:#840000; fill-opacity:0.0; 
stroke:#840000; stroke-width:0; stroke-opacity:1; 
stroke-linecap:round; stroke-linejoin:round;">
</g>
<g style="fill:#840000; fill-opacity:1.0; 
stroke:#840000; stroke-width:0; stroke-opacity:1; 
stroke-linecap:round; stroke-linejoin:round;">
<polyline style="fill-rule:evenodd;"
points="60178,30150
60178,30249
60021,30249
60021,30150
60178,30150
" /> 
<polyline style="fill-rule:evenodd;"
points="60178,29950
60178,30049
60021,30049
60021,29950
60178,29950
" /> 
<polyline style="fill-rule:evenodd;"
points="60178,29750
60178,29849
60021,29849
60021,29750
60178,29750
" /> 
<polyline style="fill-rule:evenodd;"
points="60178,29550
60178,29649
60021,29649
60021,29550
60178,29550
" /> 
<polyline style="fill-rule:evenodd;"
points="60178,29350
60178,29449
60021,29449
60021,29350
60178,29350
" /> 
<polyline style="fill-rule:evenodd;"
points="60350,29021
60449,29021
60449,29178
60350,29178
60350,29021
" /> 
<polyline style="fill-rule:evenodd;"
points="60550,29021
60649,29021
60649,29178
60550,29178
60550,29021
" /> 
<polyline style="fill-rule:evenodd;"
points="60750,29021
60849,29021
60849,29178
60750,29178
60750,29021
" /> 
<polyline style="fill-rule:evenodd;"
points="60950,29021
61049,29021
61049,29178
60950,29178
60950,29021
" /> 
<polyline style="fill-rule:evenodd;"
points="61150,29021
61249,29021
61249,29178
61150,29178
61150,29021
" /> 
<polyline style="fill-rule:evenodd;"
points="61578,29350
61578,29449
61421,29449
61421,29350
61578,29350
" /> 
<polyline style="fill-rule:evenodd;"
points="61578,29550
61578,29649
61421,29649
61421,29550
61578,29550
" /> 
<polyline style="fill-rule:evenodd;"
points="61578,29750
61578,29849
61421,29849
61421,29750
61578,29750
" /> 
<polyline style="fill-rule:evenodd;"
points="61578,29950
61578,30049
61421,30049
61421,29950
61578,29950
" /> 
<polyline style="fill-rule:evenodd;"
points="61578,30150
61578,30249
61421,30249
61421,30150
61578,30150
" /> 
<polyline style="fill-rule:evenodd;"
points="61150,30421
61249,30421
61249,30578
61150,30578
61150,30421
" /> 
<polyline style="fill-rule:evenodd;"
points="60950,30421
61049,30421
61049,30578
60950,30578
60950,30421
" /> 
<polyline style="fill-rule:evenodd;"
points="60750,30421
60849,30421
60849,30578
60750,30578
60750,30421
" /> 
<polyline style="fill-rule:evenodd;"
points="60550,30421
60649,30421
60649,30578
60550,30578
60550,30421
" /> 
<polyline style="fill-rule:evenodd;"
points="60350,30421
60449,30421
60449,30578
60350,30578
60350,30421
" /> 
<polyline style="fill-rule:evenodd;"
points="57646,28990
57153,28990
57153,28596
57646,28596
57646,28990
" /> 
<polyline style="fill-rule:evenodd;"
points="57646,28203
57153,28203
57153,27809
57646,27809
57646,28203
" /> 
<polyline style="fill-rule:evenodd;"
points="59546,26790
59053,26790
59053,26396
59546,26396
59546,26790
" /> 
<polyline style="fill-rule:evenodd;"
points="59546,26003
59053,26003
59053,25609
59546,25609
59546,26003
" /> 
<polyline style="fill-rule:evenodd;"
points="60809,24246
60809,23753
61203,23753
61203,24246
60809,24246
" /> 
<polyline style="fill-rule:evenodd;"
points="61596,24246
61596,23753
61990,23753
61990,24246
61596,24246
" /> 
<polyline style="fill-rule:evenodd;"
points="59846,33790
59353,33790
59353,33396
59846,33396
59846,33790
" /> 
<polyline style="fill-rule:evenodd;"
points="59846,33003
59353,33003
59353,32609
59846,32609
59846,33003
" /> 
<polyline style="fill-rule:evenodd;"
points="57553,25609
58046,25609
58046,26003
57553,26003
57553,25609
" /> 
<polyline style="fill-rule:evenodd;"
points="57553,26396
58046,26396
58046,26790
57553,26790
57553,26396
" /> 
<polyline style="fill-rule:evenodd;"
points="54809,37646
54809,37153
55203,37153
55203,37646
54809,37646
" /> 
<polyline style="fill-rule:evenodd;"
points="55596,37646
55596,37153
55990,37153
55990,37646
55596,37646
" /> 
<polyline style="fill-rule:evenodd;"
points="54809,40846
54809,40353
55203,40353
55203,40846
54809,40846
" /> 
<polyline style="fill-rule:evenodd;"
points="55596,40846
55596,40353
55990,40353
55990,40846
55596,40846
" /> 
<polyline style="fill-rule:evenodd;"
points="61551,20836
61551,20364
62023,20364
62023,20836
61551,20836
" /> 
<polyline style="fill-rule:evenodd;"
points="62377,20836
62377,20364
62849,20364
62849,20836
62377,20836
" /> 
<circle cx="70100" cy="18900" r="196.85" /> 
</g>
<g style="fill:#840000; fill-opacity:1.0; 
stroke:#840000; stroke-width:39.3701; stroke-opacity:1; 
stroke-linecap:round; stroke-linejoin:round;">
</g>
<g style="fill:#840000; fill-opacity:1.0; 
stroke:#840000; stroke-width:0; stroke-opacity:1; 
stroke-linecap:round; stroke-linejoin:round;">
<circle cx="51300" cy="41000" r="196.85" /> 
</g>
<g style="fill:#840000; fill-opacity:1.0; 
stroke:#840000; stroke-width:39.3701; stroke-opacity:1; 
stroke-linecap:round; stroke-linejoin:round;">
</g>
<g style="fill:#840000; fill-opacity:1.0; 
stroke:#840000; stroke-width:0; stroke-opacity:1; 
stroke-linecap:round; stroke-linejoin:round;">
<circle cx="51200" cy="19100" r="196.85" /> 
</g>
<g style="fill:#840000; fill-opacity:1.0; 
stroke:#840000; stroke-width:39.3701; stroke-opacity:1; 
stroke-linecap:round; stroke-linejoin:round;">
</g>
<g style="fill:#840000; fill-opacity:1.0; 
stroke:#840000; stroke-width:0; stroke-opacity:1; 
stroke-linecap:round; stroke-linejoin:round;">
<circle cx="69600" cy="41000" r="196.85" /> 
</g>
<g style="fill:#840000; fill-opacity:1.0; 
stroke:#840000; stroke-width:39.3701; stroke-opacity:1; 
stroke-linecap:round; stroke-linejoin:round;">
</g>
<g style="fill:#840000; fill-opacity:1.0; 
stroke:#840000; stroke-width:0; stroke-opacity:1; 
stroke-linecap:round; stroke-linejoin:round;">
<polyline style="fill-rule:evenodd;"
points="67893,39800
67106,39800
67106,39200
67893,39200
67893,39800
" /> 
</g>
<g style="fill:#840000; fill-opacity:1.0; 
stroke:#840000; stroke-width:600; stroke-opacity:1; 
stroke-linecap:round; stroke-linejoin:round;">
</g>
<g style="fill:#840000; fill-opacity:0.0; 
stroke:#840000; stroke-width:600; stroke-opacity:1; 
stroke-linecap:round; stroke-linejoin:round;">
<path d="M66406 39500
L66593 39500
" />
<path d="M67406 34500
L67593 34500
" />
<path d="M66406 38500
L66593 38500
" />
<path d="M67406 33500
L67593 33500
" />
<path d="M66406 37500
L66593 37500
" />
<path d="M67406 32500
L67593 32500
" />
<path d="M66406 36500
L66593 36500
" />
<path d="M67406 31500
L67593 31500
" />
<path d="M66406 35500
L66593 35500
" />
<path d="M67406 30500
L67593 30500
" />
<path d="M66406 34500
L66593 34500
" />
<path d="M67406 29500
L67593 29500
" />
<path d="M66406 33500
L66593 33500
" />
<path d="M67406 28500
L67593 28500
" />
<path d="M66406 32500
L66593 32500
" />
<path d="M67406 27500
L67593 27500
" />
<path d="M66406 31500
L66593 31500
" />
<path d="M67406 26500
L67593 26500
" />
<path d="M66406 30500
L66593 30500
" />
<path d="M67406 25500
L67593 25500
" />
<path d="M66406 29500
L66593 29500
" />
<path d="M67406 24500
L67593 24500
" />
<path d="M66406 28500
L66593 28500
" />
<path d="M66406 27500
L66593 27500
" />
<path d="M67406 23500
L67593 23500
" />
<path d="M66406 26500
L66593 26500
" />
<path d="M66406 24500
L66593 24500
" />
<path d="M66406 23500
L66593 23500
" />
<path d="M66406 22500
L66593 22500
" />
<path d="M66406 21500
L66593 21500
" />
<path d="M67406 22500
L67593 22500
" />
<path d="M67406 21500
L67593 21500
" />
<path d="M67406 38500
L67593 38500
" />
<path d="M67406 37500
L67593 37500
" />
<path d="M67406 36500
L67593 36500
" />
<path d="M67406 35500
L67593 35500
" />
<path d="M67406 20500
L67593 20500
" />
<path d="M66406 20500
L66593 20500
" />
<path d="M66406 25500
L66593 25500
" />
</g>
<g style="fill:#840000; fill-opacity:0.0; 
stroke:#840000; stroke-width:0; stroke-opacity:1; 
stroke-linecap:round; stroke-linejoin:round;">
</g>
<g style="fill:#840000; fill-opacity:1.0; 
stroke:#840000; stroke-width:0; stroke-opacity:1; 
stroke-linecap:round; stroke-linejoin:round;">
<polyline style="fill-rule:evenodd;"
points="54744,34888
55255,34888
55255,35163
54744,35163
54744,34888
" /> 
<polyline style="fill-rule:evenodd;"
points="54744,35636
55255,35636
55255,35911
54744,35911
54744,35636
" /> 
<polyline style="fill-rule:evenodd;"
points="55911,32944
55911,33455
55636,33455
55636,32944
55911,32944
" /> 
<polyline style="fill-rule:evenodd;"
points="55163,32944
55163,33455
54888,33455
54888,32944
55163,32944
" /> 
<polyline style="fill-rule:evenodd;"
points="55911,31144
55911,31655
55636,31655
55636,31144
55911,31144
" /> 
<polyline style="fill-rule:evenodd;"
points="55163,31144
55163,31655
54888,31655
54888,31144
55163,31144
" /> 
<polyline style="fill-rule:evenodd;"
points="55911,29544
55911,30055
55636,30055
55636,29544
55911,29544
" /> 
<polyline style="fill-rule:evenodd;"
points="55163,29544
55163,30055
54888,30055
54888,29544
55163,29544
" /> 
<polyline style="fill-rule:evenodd;"
points="57911,31144
57911,31655
57636,31655
57636,31144
57911,31144
" /> 
<polyline style="fill-rule:evenodd;"
points="57163,31144
57163,31655
56888,31655
56888,31144
57163,31144
" /> 
<polyline style="fill-rule:evenodd;"
points="57911,29544
57911,30055
57636,30055
57636,29544
57911,29544
" /> 
<polyline style="fill-rule:evenodd;"
points="57163,29544
57163,30055
56888,30055
56888,29544
57163,29544
" /> 
<polyline style="fill-rule:evenodd;"
points="55911,27944
55911,28455
55636,28455
55636,27944
55911,27944
" /> 
<polyline style="fill-rule:evenodd;"
points="55163,27944
55163,28455
54888,28455
54888,27944
55163,27944
" /> 
<polyline style="fill-rule:evenodd;"
points="58055,24711
57544,24711
57544,24436
58055,24436
58055,24711
" /> 
<polyline style="fill-rule:evenodd;"
points="58055,23963
57544,23963
57544,23688
58055,23688
58055,23963
" /> 
<polyline style="fill-rule:evenodd;"
points="59088,24255
59088,23744
59363,23744
59363,24255
59088,24255
" /> 
<polyline style="fill-rule:evenodd;"
points="59836,24255
59836,23744
60111,23744
60111,24255
59836,24255
" /> 
<polyline style="fill-rule:evenodd;"
points="60488,26055
60488,25544
60763,25544
60763,26055
60488,26055
" /> 
<polyline style="fill-rule:evenodd;"
points="61236,26055
61236,25544
61511,25544
61511,26055
61236,26055
" /> 
<polyline style="fill-rule:evenodd;"
points="62088,26055
62088,25544
62363,25544
62363,26055
62088,26055
" /> 
<polyline style="fill-rule:evenodd;"
points="62836,26055
62836,25544
63111,25544
63111,26055
62836,26055
" /> 
<polyline style="fill-rule:evenodd;"
points="59855,35511
59344,35511
59344,35236
59855,35236
59855,35511
" /> 
<polyline style="fill-rule:evenodd;"
points="59855,34763
59344,34763
59344,34488
59855,34488
59855,34763
" /> 
<polyline style="fill-rule:evenodd;"
points="61455,35511
60944,35511
60944,35236
61455,35236
61455,35511
" /> 
<polyline style="fill-rule:evenodd;"
points="61455,34763
60944,34763
60944,34488
61455,34488
61455,34763
" /> 
<polyline style="fill-rule:evenodd;"
points="56888,35255
56888,34744
57163,34744
57163,35255
56888,35255
" /> 
<polyline style="fill-rule:evenodd;"
points="57636,35255
57636,34744
57911,34744
57911,35255
57636,35255
" /> 
<polyline style="fill-rule:evenodd;"
points="59488,37655
59488,37144
59763,37144
59763,37655
59488,37655
" /> 
<polyline style="fill-rule:evenodd;"
points="60236,37655
60236,37144
60511,37144
60511,37655
60236,37655
" /> 
<polyline style="fill-rule:evenodd;"
points="54888,39255
54888,38744
55163,38744
55163,39255
54888,39255
" /> 
<polyline style="fill-rule:evenodd;"
points="55636,39255
55636,38744
55911,38744
55911,39255
55636,39255
" /> 
<polyline style="fill-rule:evenodd;"
points="61888,33455
61888,32944
62163,32944
62163,33455
61888,33455
" /> 
<polyline style="fill-rule:evenodd;"
points="62636,33455
62636,32944
62911,32944
62911,33455
62636,33455
" /> 
<polyline style="fill-rule:evenodd;"
points="62544,34488
63055,34488
63055,34763
62544,34763
62544,34488
" /> 
<polyline style="fill-rule:evenodd;"
points="62544,35236
63055,35236
63055,35511
62544,35511
62544,35236
" /> 
<polyline style="fill-rule:evenodd;"
points="61544,21488
62055,21488
62055,21763
61544,21763
61544,21488
" /> 
<polyline style="fill-rule:evenodd;"
points="61544,22236
62055,22236
62055,22511
61544,22511
61544,22236
" /> 
<polyline style="fill-rule:evenodd;"
points="51500,27500
52500,27500
52500,28500
51500,28500
51500,27500
" /> 
<circle cx="52000" cy="30000" r="500" /> 
</g>
<g style="fill:#840000; fill-opacity:1.0; 
stroke:#840000; stroke-width:39.3701; stroke-opacity:1; 
stroke-linecap:round; stroke-linejoin:round;">
</g>
<g style="fill:#840000; fill-opacity:1.0; 
stroke:#840000; stroke-width:0; stroke-opacity:1; 
stroke-linecap:round; stroke-linejoin:round;">
<circle cx="52000" cy="32000" r="500" /> 
</g>
<g style="fill:#840000; fill-opacity:1.0; 
stroke:#840000; stroke-width:39.3701; stroke-opacity:1; 
stroke-linecap:round; stroke-linejoin:round;">
</g>
<g style="fill:#C2C2C2; fill-opacity:1.0; 
stroke:#C2C2C2; stroke-width:39.3701; stroke-opacity:1; 
stroke-linecap:round; stroke-linejoin:round;">
</g>
<g style="fill:#C2C2C2; fill-opacity:1.0; 
stroke:#C2C2C2; stroke-width:0; stroke-opacity:1; 
stroke-linecap:round; stroke-linejoin:round;">
<circle cx="61800" cy="28600" r="118.11" /> 
</g>
<g style="fill:#C2C2C2; fill-opacity:1.0; 
stroke:#C2C2C2; stroke-width:39.3701; stroke-opacity:1; 
stroke-linecap:round; stroke-linejoin:round;">
</g>
<g style="fill:#C2C2C2; fill-opacity:1.0; 
stroke:#C2C2C2; stroke-width:0; stroke-opacity:1; 
stroke-linecap:round; stroke-linejoin:round;">
<circle cx="63700" cy="20600" r="118.11" /> 
</g>
<g style="fill:#C2C2C2; fill-opacity:1.0; 
stroke:#C2C2C2; stroke-width:39.3701; stroke-opacity:1; 
stroke-linecap:round; stroke-linejoin:round;">
</g>
<g style="fill:#C2C2C2; fill-opacity:1.0; 
stroke:#C2C2C2; stroke-width:0; stroke-opacity:1; 
stroke-linecap:round; stroke-linejoin:round;">
<circle cx="56700" cy="37400" r="118.11" /> 
</g>
<g style="fill:#C2C2C2; fill-opacity:1.0; 
stroke:#C2C2C2; stroke-width:39.3701; stroke-opacity:1; 
stroke-linecap:round; stroke-linejoin:round;">
</g>
<g style="fill:#C2C2C2; fill-opacity:1.0; 
stroke:#C2C2C2; stroke-width:0; stroke-opacity:1; 
stroke-linecap:round; stroke-linejoin:round;">
<circle cx="61200" cy="31100" r="118.11" /> 
</g>
<g style="fill:#C2C2C2; fill-opacity:1.0; 
stroke:#C2C2C2; stroke-width:39.3701; stroke-opacity:1; 
stroke-linecap:round; stroke-linejoin:round;">
</g>
<g style="fill:#C2C2C2; fill-opacity:1.0; 
stroke:#C2C2C2; stroke-width:0; stroke-opacity:1; 
stroke-linecap:round; stroke-linejoin:round;">
<circle cx="59200" cy="24700" r="118.11" /> 
</g>
<g style="fill:#C2C2C2; fill-opacity:1.0; 
stroke:#C2C2C2; stroke-width:39.3701; stroke-opacity:1; 
stroke-linecap:round; stroke-linejoin:round;">
</g>
<g style="fill:#C2C2C2; fill-opacity:1.0; 
stroke:#C2C2C2; stroke-width:0; stroke-opacity:1; 
stroke-linecap:round; stroke-linejoin:round;">
<circle cx="60600" cy="30000" r="118.11" /> 
</g>
<g style="fill:#C2C2C2; fill-opacity:1.0; 
stroke:#C2C2C2; stroke-width:39.3701; stroke-opacity:1; 
stroke-linecap:round; stroke-linejoin:round;">
</g>
<g style="fill:#840000; fill-opacity:1.0; 
stroke:#840000; stroke-width:39.3701; stroke-opacity:1; 
stroke-linecap:round; stroke-linejoin:round;">
</g>
<g style="fill:#840000; fill-opacity:1.0; 
stroke:#840000; stroke-width:98.4252; stroke-opacity:1; 
stroke-linecap:round; stroke-linejoin:round;">
</g>
<g style="fill:#840000; fill-opacity:0.0; 
stroke:#840000; stroke-width:98.4252; stroke-opacity:1; 
stroke-linecap:round; stroke-linejoin:round;">
<path d="M57400 28793
L57993 28793
" />
<path d="M58800 29600
L60100 29600
" />
<path d="M57993 28793
L58800 29600
" />
<path d="M57400 28006
L55967 28006
" />
<path d="M55967 28006
L55774 28200
" />
<path d="M57400 28006
L58206 28006
" />
<path d="M59600 29400
L60100 29400
" />
<path d="M58206 28006
L59600 29400
" />
<path d="M57800 24574
L57800 25000
" />
<path d="M58906 26200
L59300 26593
" />
<path d="M57300 26200
L58906 26200
" />
<path d="M57100 26000
L57300 26200
" />
<path d="M57100 25700
L57100 26000
" />
<path d="M57800 25000
L57100 25700
" />
<path d="M59300 26593
L59300 26900
" />
<path d="M60600 28200
L60600 29100
" />
<path d="M59300 26900
L60600 28200
" />
<path d="M60625 25800
L59612 25800
" />
<path d="M59612 25800
L59606 25806
" />
<path d="M60800 29100
L60800 27600
" />
<path d="M59606 25806
L59300 25806
" />
<path d="M59900 26100
L59606 25806
" />
<path d="M59900 26700
L59900 26100
" />
<path d="M60800 27600
L59900 26700
" />
<path d="M57800 25806
L59300 25806
" />
<path d="M59974 24000
L59974 23574
" />
<path d="M58425 23200
L57800 23825
" />
<path d="M59600 23200
L58425 23200
" />
<path d="M59974 23574
L59600 23200
" />
<path d="M61006 24000
L59974 24000
" />
<path d="M61200 29100
L61300 29100
" />
<path d="M61300 29100
L61800 28600
" />
<path d="M61793 24000
L61793 22380
" />
<path d="M61793 22380
L61800 22374
" />
<path d="M62974 25800
L62974 25374
" />
<path d="M62300 24506
L61793 24000
" />
<path d="M62300 24700
L62300 24506
" />
<path d="M62974 25374
L62300 24700
" />
<path d="M61200 29100
L61200 28400
" />
<path d="M62974 26625
L62974 25800
" />
<path d="M61200 28400
L62974 26625
" />
<path d="M59600 33593
L60206 33593
" />
<path d="M60400 33400
L60400 30500
" />
<path d="M60206 33593
L60400 33400
" />
<path d="M59600 33593
L59600 34625
" />
<path d="M59600 32806
L59600 30400
" />
<path d="M59800 30200
L60100 30200
" />
<path d="M59600 30400
L59800 30200
" />
<path d="M57800 26593
L52193 26593
" />
<path d="M56625 35400
L57025 35000
" />
<path d="M53300 35400
L56625 35400
" />
<path d="M50700 32800
L53300 35400
" />
<path d="M50700 27400
L50700 32800
" />
<path d="M51500 26600
L50700 27400
" />
<path d="M52187 26600
L51500 26600
" />
<path d="M52193 26593
L52187 26600
" />
<path d="M57800 26593
L57800 26600
" />
<path d="M57800 26600
L59400 28200
" />
<path d="M59400 28200
L60000 28200
" />
<path d="M60000 28200
L60400 28600
" />
<path d="M60400 28600
L60400 29100
" />
<path d="M55774 33200
L55774 34474
" />
<path d="M55774 34474
L56300 35000
" />
<path d="M56300 35000
L57025 35000
" />
<path d="M61500 30200
L61600 30200
" />
<path d="M62374 35374
L62800 35374
" />
<path d="M62200 35200
L62374 35374
" />
<path d="M62200 34300
L62200 35200
" />
<path d="M62400 34100
L62200 34300
" />
<path d="M62400 31000
L62400 34100
" />
<path d="M61600 30200
L62400 31000
" />
<path d="M61000 30500
L61000 30200
" />
<path d="M61000 30200
L61500 30200
" />
<path d="M55025 40580
L55006 40600
" />
<path d="M55000 37393
L55025 37419
" />
<path d="M55006 35780
L55000 35774
" />
<path d="M55006 38980
L55025 39000
" />
<path d="M55006 39019
L55025 39000
" />
<path d="M62613 20600
L63700 20600
" />
<path d="M55793 40600
L55793 39019
" />
<path d="M55793 39019
L55774 39000
" />
<path d="M55774 39000
L55774 37419
" />
<path d="M55774 37419
L55793 37400
" />
<path d="M55793 37400
L56700 37400
" />
<path d="M62025 33200
L61800 33200
" />
<path d="M61200 31100
L61200 30500
" />
<path d="M61200 32600
L61200 31100
" />
<path d="M61800 33200
L61200 32600
" />
<path d="M55774 40580
L55793 40600
" />
<path d="M55793 38980
L55774 39000
" />
<path d="M61787 20600
L61787 21612
" />
<path d="M61787 21612
L61800 21625
" />
<path d="M52000 28000
L53500 28000
" />
<path d="M53700 28200
L55025 28200
" />
<path d="M53500 28000
L53700 28200
" />
<path d="M55025 29800
L55025 29374
" />
<path d="M56325 29100
L57025 29800
" />
<path d="M55300 29100
L56325 29100
" />
<path d="M55025 29374
L55300 29100
" />
<path d="M52000 30000
L54200 30000
" />
<path d="M54400 29800
L55025 29800
" />
<path d="M54200 30000
L54400 29800
" />
<path d="M55025 31400
L55025 30974
" />
<path d="M56325 30700
L57025 31400
" />
<path d="M55300 30700
L56325 30700
" />
<path d="M55025 30974
L55300 30700
" />
<path d="M52000 32000
L54425 32000
" />
<path d="M54425 32000
L55025 31400
" />
<path d="M61500 29800
L62300 29800
" />
<path d="M68000 21500
L67500 21500
" />
<path d="M68300 21200
L68000 21500
" />
<path d="M68300 19900
L68300 21200
" />
<path d="M67900 19500
L68300 19900
" />
<path d="M66100 19500
L67900 19500
" />
<path d="M65500 20100
L66100 19500
" />
<path d="M65500 26600
L65500 20100
" />
<path d="M62300 29800
L65500 26600
" />
<path d="M61500 29600
L62100 29600
" />
<path d="M68600 21600
L67700 22500
" />
<path d="M68600 19600
L68600 21600
" />
<path d="M68100 19100
L68600 19600
" />
<path d="M65800 19100
L68100 19100
" />
<path d="M65100 19800
L65800 19100
" />
<path d="M65100 26600
L65100 19800
" />
<path d="M62100 29600
L65100 26600
" />
<path d="M67700 22500
L67500 22500
" />
<path d="M61500 29400
L61900 29400
" />
<path d="M68100 23500
L67500 23500
" />
<path d="M69000 22600
L68100 23500
" />
<path d="M69000 19300
L69000 22600
" />
<path d="M68400 18700
L69000 19300
" />
<path d="M65600 18700
L68400 18700
" />
<path d="M64700 19600
L65600 18700
" />
<path d="M64700 26600
L64700 19600
" />
<path d="M61900 29400
L64700 26600
" />
<path d="M55774 29800
L55774 30174
" />
<path d="M56800 32500
L55300 32500
" />
<path d="M57400 31900
L56800 32500
" />
<path d="M57400 30800
L57400 31900
" />
<path d="M57000 30400
L57400 30800
" />
<path d="M56000 30400
L57000 30400
" />
<path d="M55774 30174
L56000 30400
" />
<path d="M55025 33200
L55025 32774
" />
<path d="M55774 32025
L55774 31400
" />
<path d="M55025 32774
L55300 32500
" />
<path d="M55300 32500
L55774 32025
" />
<path d="M55025 33200
L55025 35000
" />
<path d="M55025 35000
L55000 35025
" />
<path d="M57774 31400
L57774 31125
" />
<path d="M58900 30000
L60100 30000
" />
<path d="M57774 31125
L58900 30000
" />
<path d="M60100 29800
L57774 29800
" />
<path d="M60600 30500
L60600 30000
" />
<path d="M59225 24674
L59225 24000
" />
<path d="M59200 24700
L59225 24674
" />
<path d="M60600 30500
L60600 33700
" />
<path d="M61200 34300
L61200 34625
" />
<path d="M60600 33700
L61200 34300
" />
<path d="M61000 29100
L61000 27600
" />
<path d="M61374 27225
L61374 25800
" />
<path d="M61000 27600
L61374 27225
" />
<path d="M62225 25800
L61374 25800
" />
<path d="M59600 35374
L61200 35374
" />
<path d="M57774 35000
L58000 35000
" />
<path d="M58374 35374
L59600 35374
" />
<path d="M58000 35000
L58374 35374
" />
<path d="M60800 30500
L60800 33200
" />
<path d="M60800 37400
L60374 37400
" />
<path d="M61900 36300
L60800 37400
" />
<path d="M61900 34300
L61900 36300
" />
<path d="M60800 33200
L61900 34300
" />
<path d="M62774 33200
L62774 30874
" />
<path d="M61900 30000
L61500 30000
" />
<path d="M62774 30874
L61900 30000
" />
<path d="M62800 34625
L62800 33225
" />
<path d="M62800 33225
L62774 33200
" />
</g>
<g style="fill:#840000; fill-opacity:1.0; 
stroke:#840000; stroke-width:100; stroke-opacity:1; 
stroke-linecap:round; stroke-linejoin:round;">
<polyline style="fill-rule:evenodd;"
points="69382,18419
69253,18730
69253,19067
69381,19379
69619,19617
69930,19746
70267,19746
70579,19618
70720,19477
70720,41720
70073,41720
70079,41718
70317,41480
70446,41169
70446,40832
70318,40520
70080,40282
69769,40153
69432,40153
69120,40281
68882,40519
68753,40830
68753,41167
68881,41479
69119,41717
69126,41720
51773,41720
51779,41718
52017,41480
52146,41169
52146,40832
52097,40712
54559,40712
54559,40895
54597,40987
54667,41058
54759,41096
54893,41096
54956,41033
54956,40650
54621,40650
54559,40712
52097,40712
52018,40520
51802,40304
54559,40304
54559,40487
54621,40550
54956,40550
54956,40166
54893,40103
54759,40103
54667,40141
54597,40212
54559,40304
51802,40304
51780,40282
51469,40153
51132,40153
50820,40281
50582,40519
50479,40767
50479,39112
54638,39112
54638,39305
54676,39397
54746,39467
54838,39505
54913,39505
54975,39443
54975,39050
54700,39050
54638,39112
50479,39112
50479,38694
54638,38694
54638,38887
54700,38950
54975,38950
54975,38556
54913,38494
54838,38494
54746,38532
54676,38602
54638,38694
50479,38694
50479,37512
54559,37512
54559,37695
54597,37787
54667,37858
54759,37896
54893,37896
54956,37833
54956,37450
54621,37450
54559,37512
50479,37512
50479,37104
54559,37104
54559,37287
54621,37350
54956,37350
54956,36966
55056,36966
55056,37350
55064,37350
55064,37450
55056,37450
55056,37833
55118,37896
55252,37896
55344,37858
55400,37802
55414,37823
55474,37865
55474,38550
55458,38561
55401,38644
55398,38658
55375,38602
55305,38532
55213,38494
55138,38494
55075,38556
55075,38950
55083,38950
55083,39050
55075,39050
55075,39443
55138,39505
55213,39505
55305,39467
55375,39397
55397,39343
55398,39348
55453,39433
55494,39461
55494,40122
55419,40171
55400,40198
55344,40141
55252,40103
55118,40103
55056,40166
55056,40550
55064,40550
55064,40650
55056,40650
55056,41033
55118,41096
55252,41096
55344,41058
55400,41002
55414,41023
55497,41080
55596,41100
55990,41100
56083,41083
56168,41028
56225,40945
56245,40846
56245,40353
56228,40261
56173,40176
56092,40121
56092,39433
56146,39355
56166,39255
56166,38744
56149,38651
56094,38566
56073,38551
56073,37885
56083,37883
56168,37828
56225,37745
56234,37699
56478,37699
56491,37711
56626,37768
56772,37768
56908,37712
57011,37608
57051,37512
59238,37512
59238,37705
59276,37797
59346,37867
59438,37905
59513,37905
59575,37843
59575,37450
59300,37450
59238,37512
57051,37512
57068,37473
57068,37327
57012,37191
56915,37094
59238,37094
59238,37287
59300,37350
59575,37350
59575,36956
59513,36894
59438,36894
59346,36932
59276,37002
59238,37094
56915,37094
56908,37088
56773,37031
56627,37031
56491,37087
56478,37100
56235,37100
56228,37061
56173,36976
56089,36919
55990,36899
55596,36899
55504,36916
55419,36971
55400,36998
55344,36941
55252,36903
55118,36903
55056,36966
54956,36966
54893,36903
54759,36903
54667,36941
54597,37012
54559,37104
50479,37104
50479,35886
54494,35886
54494,35961
54532,36053
54602,36123
54694,36161
54887,36161
54950,36099
54950,35824
55050,35824
55050,36099
55112,36161
55305,36161
55397,36123
55467,36053
55505,35961
55505,35886
55443,35824
55050,35824
54950,35824
54556,35824
54494,35886
50479,35886
50479,32998
50488,33011
53088,35611
53185,35676
53300,35699
54531,35699
54556,35724
54950,35724
54950,35716
55050,35716
55050,35724
55443,35724
55468,35699
56625,35699
56740,35676
56837,35611
56938,35510
57163,35510
57256,35493
57341,35438
57398,35355
57399,35349
57453,35433
57537,35490
57636,35510
57911,35510
58004,35493
58044,35467
58162,35585
58259,35650
58374,35673
59150,35673
59161,35689
59244,35746
59344,35766
59855,35766
59948,35749
60033,35694
60048,35673
60750,35673
60761,35689
60844,35746
60944,35766
61455,35766
61548,35749
61600,35715
61600,36176
60739,37036
60694,36966
60610,36909
60511,36889
60236,36889
60143,36906
60058,36961
60001,37044
59998,37058
59975,37002
59905,36932
59813,36894
59738,36894
59675,36956
59675,37350
59683,37350
59683,37450
59675,37450
59675,37843
59738,37905
59813,37905
59905,37867
59975,37797
59997,37743
59998,37748
60053,37833
60137,37890
60236,37910
60511,37910
60604,37893
60689,37838
60746,37755
60757,37699
60800,37699
60914,37676
61011,37611
62111,36511
62176,36414
62199,36300
62199,35486
62294,35486
62294,35561
62332,35653
62402,35723
62494,35761
62687,35761
62750,35699
62750,35424
62850,35424
62850,35699
62912,35761
63105,35761
63197,35723
63267,35653
63305,35561
63305,35486
63243,35424
62850,35424
62750,35424
62356,35424
62294,35486
62199,35486
62199,34300
62176,34185
62111,34088
61099,33076
61099,32922
61588,33411
61633,33441
61633,33455
61650,33548
61705,33633
61789,33690
61888,33710
62163,33710
62256,33693
62341,33638
62398,33555
62399,33549
62453,33633
62500,33665
62500,34241
62451,34250
62366,34305
62309,34389
62289,34488
62289,34763
62306,34856
62361,34941
62444,34998
62458,35001
62402,35024
62332,35094
62294,35186
62294,35261
62356,35324
62750,35324
62750,35316
62850,35316
62850,35324
63243,35324
63305,35261
63305,35186
63267,35094
63197,35024
63143,35002
63148,35001
63233,34946
63290,34862
63310,34763
63310,34488
63293,34395
63238,34310
63155,34253
63099,34242
63099,33624
63146,33555
63166,33455
63166,32944
63149,32851
63094,32766
63073,32751
63073,30874
63050,30759
62985,30662
62402,30078
62414,30076
62511,30011
65711,26811
65776,26714
65799,26600
65799,20223
66223,19799
67776,19799
68000,20023
68000,20119
67995,20111
67816,19991
67606,19950
67393,19950
67183,19991
67004,20111
67000,20118
66995,20111
66816,19991
66606,19950
66393,19950
66183,19991
66004,20111
65885,20289
65843,20500
65885,20710
66004,20888
66171,21000
66004,21111
65885,21289
65843,21500
65885,21710
66004,21888
66171,22000
66004,22111
65885,22289
65843,22500
65885,22710
66004,22888
66171,23000
66004,23111
65885,23289
65843,23500
65885,23710
66004,23888
66171,24000
66004,24111
65885,24289
65843,24500
65885,24710
66004,24888
66171,25000
66004,25111
65885,25289
65843,25500
65885,25710
66004,25888
66171,26000
66004,26111
65885,26289
65843,26500
65885,26710
66004,26888
66171,27000
66004,27111
65885,27289
65843,27500
65885,27710
66004,27888
66171,28000
66004,28111
65885,28289
65843,28500
65885,28710
66004,28888
66171,29000
66004,29111
65885,29289
65843,29500
65885,29710
66004,29888
66171,30000
66004,30111
65885,30289
65843,30500
65885,30710
66004,30888
66171,31000
66004,31111
65885,31289
65843,31500
65885,31710
66004,31888
66171,32000
66004,32111
65885,32289
65843,32500
65885,32710
66004,32888
66171,33000
66004,33111
65885,33289
65843,33500
65885,33710
66004,33888
66171,34000
66004,34111
65885,34289
65843,34500
65885,34710
66004,34888
66171,35000
66004,35111
65885,35289
65843,35500
65885,35710
66004,35888
66171,36000
66004,36111
65885,36289
65843,36500
65885,36710
66004,36888
66171,37000
66004,37111
65885,37289
65843,37500
65885,37710
66004,37888
66171,38000
66004,38111
65885,38289
65843,38500
65885,38710
66004,38888
66171,39000
66004,39111
65885,39289
65843,39500
65885,39710
66004,39888
66183,40008
66393,40050
66606,40050
66816,40008
66903,39950
66964,40011
67056,40050
67387,40050
67450,39987
67450,39550
67550,39550
67550,39987
67612,40050
67943,40050
68035,40011
68105,39941
68143,39849
68143,39612
68081,39550
67550,39550
67450,39550
67442,39550
67442,39450
67450,39450
67450,39442
67550,39442
67550,39450
68081,39450
68143,39387
68143,39150
68105,39058
68035,38988
67943,38950
67903,38950
67995,38888
68114,38710
68156,38500
68114,38289
67995,38111
67828,38000
67995,37888
68114,37710
68156,37500
68114,37289
67995,37111
67828,37000
67995,36888
68114,36710
68156,36500
68114,36289
67995,36111
67828,36000
67995,35888
68114,35710
68156,35500
68114,35289
67995,35111
67828,35000
67995,34888
68114,34710
68156,34500
68114,34289
67995,34111
67828,34000
67995,33888
68114,33710
68156,33500
68114,33289
67995,33111
67828,33000
67995,32888
68114,32710
68156,32500
68114,32289
67995,32111
67828,32000
67995,31888
68114,31710
68156,31500
68114,31289
67995,31111
67828,31000
67995,30888
68114,30710
68156,30500
68114,30289
67995,30111
67828,30000
67995,29888
68114,29710
68156,29500
68114,29289
67995,29111
67828,29000
67995,28888
68114,28710
68156,28500
68114,28289
67995,28111
67828,28000
67995,27888
68114,27710
68156,27500
68114,27289
67995,27111
67828,27000
67995,26888
68114,26710
68156,26500
68114,26289
67995,26111
67828,26000
67995,25888
68114,25710
68156,25500
68114,25289
67995,25111
67828,25000
67995,24888
68114,24710
68156,24500
68114,24289
67995,24111
67828,24000
67995,23888
68055,23799
68100,23799
68214,23776
68311,23711
69211,22811
69276,22714
69299,22600
69299,19300
69276,19185
69276,19185
69211,19088
68611,18488
68514,18423
68400,18400
65600,18400
65485,18423
65388,18488
64488,19388
64423,19485
64400,19600
64400,26476
62143,28733
62168,28673
62168,28527
62112,28391
62008,28288
61873,28231
61791,28231
63185,26837
63250,26740
63273,26625
63273,26249
63289,26238
63346,26155
63366,26055
63366,25544
63349,25451
63294,25366
63268,25348
63250,25259
63185,25162
62599,24576
62599,24506
62576,24391
62511,24294
62245,24028
62245,23753
62228,23661
62173,23576
62092,23521
62092,22759
62148,22749
62233,22694
62290,22610
62310,22511
62310,22236
62293,22143
62238,22058
62155,22001
62149,22000
62233,21946
62290,21862
62310,21763
62310,21488
62293,21395
62238,21310
62155,21253
62086,21239
62086,21079
62115,21073
62200,21018
62201,21018
62277,21070
62377,21090
62849,21090
62941,21073
63026,21018
63083,20935
63091,20899
63478,20899
63491,20911
63626,20968
63772,20968
63908,20912
64011,20808
64068,20673
64068,20527
64012,20391
63908,20288
63773,20231
63627,20231
63491,20287
63478,20300
63092,20300
63086,20271
63031,20186
62948,20129
62849,20109
62377,20109
62284,20126
62199,20181
62198,20181
62122,20129
62023,20109
61551,20109
61458,20126
61373,20181
61316,20264
61296,20364
61296,20836
61313,20928
61368,21013
61451,21070
61487,21078
61487,21243
61451,21250
61366,21305
61309,21389
61289,21488
61289,21763
61306,21856
61361,21941
61444,21998
61450,21999
61366,22053
61309,22137
61289,22236
61289,22511
61306,22604
61361,22689
61444,22746
61494,22756
61494,23522
61419,23571
61400,23598
61385,23576
61302,23519
61203,23499
60809,23499
60716,23516
60631,23571
60574,23654
60565,23700
60358,23700
60349,23651
60294,23566
60268,23548
60250,23459
60185,23362
59811,22988
59714,22923
59600,22900
58425,22900
58311,22923
58214,22988
57769,23433
57544,23433
57451,23450
57366,23505
57309,23589
57289,23688
57289,23963
57306,24056
57361,24141
57444,24198
57450,24199
57366,24253
57309,24337
57289,24436
57289,24711
57306,24804
57361,24889
57436,24940
56888,25488
56823,25585
56800,25700
56800,26000
56823,26114
56888,26211
56971,26294
52193,26294
52162,26300
51500,26300
51385,26323
51288,26388
50488,27188
50479,27201
50479,19573
50481,19579
50719,19817
51030,19946
51367,19946
51679,19818
51917,19580
52046,19269
52046,18932
51918,18620
51680,18382
51432,18279
69522,18279
69382,18419
" /> 
<polyline style="fill-rule:evenodd;"
points="62474,30997
62474,32750
62458,32761
62401,32844
62400,32850
62346,32766
62262,32709
62163,32689
61888,32689
61795,32706
61755,32732
61499,32476
61499,31321
61511,31308
61568,31173
61568,31027
61512,30891
61499,30878
61499,30602
61504,30578
61504,30499
61550,30499
61550,30447
61601,30499
61628,30499
61720,30461
61790,30390
61813,30336
62474,30997
" /> 
<polyline style="fill-rule:evenodd;"
points="61150,29433
61166,29433
61166,29449
61176,29501
61166,29550
61166,29649
61176,29701
61166,29750
61166,29849
61176,29901
61166,29950
61166,30049
61174,30092
61171,30101
61171,30112
61179,30121
61183,30141
61189,30149
61171,30149
61171,30166
61150,30166
61107,30174
61098,30171
61087,30171
61078,30179
61058,30183
60999,30221
60948,30186
60923,30181
60968,30073
60968,29927
60912,29791
60808,29688
60673,29631
60527,29631
60428,29672
60433,29649
60433,29550
60423,29498
60433,29449
60433,29433
60449,29433
60501,29423
60550,29433
60649,29433
60701,29423
60750,29433
60849,29433
60901,29423
60950,29433
61049,29433
61101,29423
61150,29433
" /> 
</g>
<g style="fill:#FFFFFF; fill-opacity:1.0; 
stroke:#FFFFFF; stroke-width:100; stroke-opacity:1; 
stroke-linecap:round; stroke-linejoin:round;">
</g>
<g style="fill:#FFFFFF; fill-opacity:1.0; 
stroke:#FFFFFF; stroke-width:0; stroke-opacity:1; 
stroke-linecap:round; stroke-linejoin:round;">
<circle cx="61800" cy="28600" r="78.7402" /> 
</g>
<g style="fill:#FFFFFF; fill-opacity:1.0; 
stroke:#FFFFFF; stroke-width:39.3701; stroke-opacity:1; 
stroke-linecap:round; stroke-linejoin:round;">
</g>
<g style="fill:#FFFFFF; fill-opacity:1.0; 
stroke:#FFFFFF; stroke-width:0; stroke-opacity:1; 
stroke-linecap:round; stroke-linejoin:round;">
<circle cx="63700" cy="20600" r="78.7402" /> 
</g>
<g style="fill:#FFFFFF; fill-opacity:1.0; 
stroke:#FFFFFF; stroke-width:39.3701; stroke-opacity:1; 
stroke-linecap:round; stroke-linejoin:round;">
</g>
<g style="fill:#FFFFFF; fill-opacity:1.0; 
stroke:#FFFFFF; stroke-width:0; stroke-opacity:1; 
stroke-linecap:round; stroke-linejoin:round;">
<circle cx="56700" cy="37400" r="78.7402" /> 
</g>
<g style="fill:#FFFFFF; fill-opacity:1.0; 
stroke:#FFFFFF; stroke-width:39.3701; stroke-opacity:1; 
stroke-linecap:round; stroke-linejoin:round;">
</g>
<g style="fill:#FFFFFF; fill-opacity:1.0; 
stroke:#FFFFFF; stroke-width:0; stroke-opacity:1; 
stroke-linecap:round; stroke-linejoin:round;">
<circle cx="61200" cy="31100" r="78.7402" /> 
</g>
<g style="fill:#FFFFFF; fill-opacity:1.0; 
stroke:#FFFFFF; stroke-width:39.3701; stroke-opacity:1; 
stroke-linecap:round; stroke-linejoin:round;">
</g>
<g style="fill:#FFFFFF; fill-opacity:1.0; 
stroke:#FFFFFF; stroke-width:0; stroke-opacity:1; 
stroke-linecap:round; stroke-linejoin:round;">
<circle cx="59200" cy="24700" r="78.7402" /> 
</g>
<g style="fill:#FFFFFF; fill-opacity:1.0; 
stroke:#FFFFFF; stroke-width:39.3701; stroke-opacity:1; 
stroke-linecap:round; stroke-linejoin:round;">
</g>
<g style="fill:#FFFFFF; fill-opacity:1.0; 
stroke:#FFFFFF; stroke-width:0; stroke-opacity:1; 
stroke-linecap:round; stroke-linejoin:round;">
<circle cx="60600" cy="30000" r="78.7402" /> 
</g>
<g style="fill:#FFFFFF; fill-opacity:1.0; 
stroke:#FFFFFF; stroke-width:39.3701; stroke-opacity:1; 
stroke-linecap:round; stroke-linejoin:round;">
</g>
<g style="fill:#FFFFFF; fill-opacity:1.0; 
stroke:#FFFFFF; stroke-width:0; stroke-opacity:1; 
stroke-linecap:round; stroke-linejoin:round;">
<circle cx="67500" cy="39500" r="200" /> 
</g>
<g style="fill:#FFFFFF; fill-opacity:1.0; 
stroke:#FFFFFF; stroke-width:39.3701; stroke-opacity:1; 
stroke-linecap:round; stroke-linejoin:round;">
</g>
<g style="fill:#FFFFFF; fill-opacity:1.0; 
stroke:#FFFFFF; stroke-width:0; stroke-opacity:1; 
stroke-linecap:round; stroke-linejoin:round;">
<circle cx="66500" cy="39500" r="200" /> 
</g>
<g style="fill:#FFFFFF; fill-opacity:1.0; 
stroke:#FFFFFF; stroke-width:39.3701; stroke-opacity:1; 
stroke-linecap:round; stroke-linejoin:round;">
</g>
<g style="fill:#FFFFFF; fill-opacity:1.0; 
stroke:#FFFFFF; stroke-width:0; stroke-opacity:1; 
stroke-linecap:round; stroke-linejoin:round;">
<circle cx="67500" cy="34500" r="200" /> 
</g>
<g style="fill:#FFFFFF; fill-opacity:1.0; 
stroke:#FFFFFF; stroke-width:39.3701; stroke-opacity:1; 
stroke-linecap:round; stroke-linejoin:round;">
</g>
<g style="fill:#FFFFFF; fill-opacity:1.0; 
stroke:#FFFFFF; stroke-width:0; stroke-opacity:1; 
stroke-linecap:round; stroke-linejoin:round;">
<circle cx="66500" cy="38500" r="200" /> 
</g>
<g style="fill:#FFFFFF; fill-opacity:1.0; 
stroke:#FFFFFF; stroke-width:39.3701; stroke-opacity:1; 
stroke-linecap:round; stroke-linejoin:round;">
</g>
<g style="fill:#FFFFFF; fill-opacity:1.0; 
stroke:#FFFFFF; stroke-width:0; stroke-opacity:1; 
stroke-linecap:round; stroke-linejoin:round;">
<circle cx="67500" cy="33500" r="200" /> 
</g>
<g style="fill:#FFFFFF; fill-opacity:1.0; 
stroke:#FFFFFF; stroke-width:39.3701; stroke-opacity:1; 
stroke-linecap:round; stroke-linejoin:round;">
</g>
<g style="fill:#FFFFFF; fill-opacity:1.0; 
stroke:#FFFFFF; stroke-width:0; stroke-opacity:1; 
stroke-linecap:round; stroke-linejoin:round;">
<circle cx="66500" cy="37500" r="200" /> 
</g>
<g style="fill:#FFFFFF; fill-opacity:1.0; 
stroke:#FFFFFF; stroke-width:39.3701; stroke-opacity:1; 
stroke-linecap:round; stroke-linejoin:round;">
</g>
<g style="fill:#FFFFFF; fill-opacity:1.0; 
stroke:#FFFFFF; stroke-width:0; stroke-opacity:1; 
stroke-linecap:round; stroke-linejoin:round;">
<circle cx="67500" cy="32500" r="200" /> 
</g>
<g style="fill:#FFFFFF; fill-opacity:1.0; 
stroke:#FFFFFF; stroke-width:39.3701; stroke-opacity:1; 
stroke-linecap:round; stroke-linejoin:round;">
</g>
<g style="fill:#FFFFFF; fill-opacity:1.0; 
stroke:#FFFFFF; stroke-width:0; stroke-opacity:1; 
stroke-linecap:round; stroke-linejoin:round;">
<circle cx="66500" cy="36500" r="200" /> 
</g>
<g style="fill:#FFFFFF; fill-opacity:1.0; 
stroke:#FFFFFF; stroke-width:39.3701; stroke-opacity:1; 
stroke-linecap:round; stroke-linejoin:round;">
</g>
<g style="fill:#FFFFFF; fill-opacity:1.0; 
stroke:#FFFFFF; stroke-width:0; stroke-opacity:1; 
stroke-linecap:round; stroke-linejoin:round;">
<circle cx="67500" cy="31500" r="200" /> 
</g>
<g style="fill:#FFFFFF; fill-opacity:1.0; 
stroke:#FFFFFF; stroke-width:39.3701; stroke-opacity:1; 
stroke-linecap:round; stroke-linejoin:round;">
</g>
<g style="fill:#FFFFFF; fill-opacity:1.0; 
stroke:#FFFFFF; stroke-width:0; stroke-opacity:1; 
stroke-linecap:round; stroke-linejoin:round;">
<circle cx="66500" cy="35500" r="200" /> 
</g>
<g style="fill:#FFFFFF; fill-opacity:1.0; 
stroke:#FFFFFF; stroke-width:39.3701; stroke-opacity:1; 
stroke-linecap:round; stroke-linejoin:round;">
</g>
<g style="fill:#FFFFFF; fill-opacity:1.0; 
stroke:#FFFFFF; stroke-width:0; stroke-opacity:1; 
stroke-linecap:round; stroke-linejoin:round;">
<circle cx="67500" cy="30500" r="200" /> 
</g>
<g style="fill:#FFFFFF; fill-opacity:1.0; 
stroke:#FFFFFF; stroke-width:39.3701; stroke-opacity:1; 
stroke-linecap:round; stroke-linejoin:round;">
</g>
<g style="fill:#FFFFFF; fill-opacity:1.0; 
stroke:#FFFFFF; stroke-width:0; stroke-opacity:1; 
stroke-linecap:round; stroke-linejoin:round;">
<circle cx="66500" cy="34500" r="200" /> 
</g>
<g style="fill:#FFFFFF; fill-opacity:1.0; 
stroke:#FFFFFF; stroke-width:39.3701; stroke-opacity:1; 
stroke-linecap:round; stroke-linejoin:round;">
</g>
<g style="fill:#FFFFFF; fill-opacity:1.0; 
stroke:#FFFFFF; stroke-width:0; stroke-opacity:1; 
stroke-linecap:round; stroke-linejoin:round;">
<circle cx="67500" cy="29500" r="200" /> 
</g>
<g style="fill:#FFFFFF; fill-opacity:1.0; 
stroke:#FFFFFF; stroke-width:39.3701; stroke-opacity:1; 
stroke-linecap:round; stroke-linejoin:round;">
</g>
<g style="fill:#FFFFFF; fill-opacity:1.0; 
stroke:#FFFFFF; stroke-width:0; stroke-opacity:1; 
stroke-linecap:round; stroke-linejoin:round;">
<circle cx="66500" cy="33500" r="200" /> 
</g>
<g style="fill:#FFFFFF; fill-opacity:1.0; 
stroke:#FFFFFF; stroke-width:39.3701; stroke-opacity:1; 
stroke-linecap:round; stroke-linejoin:round;">
</g>
<g style="fill:#FFFFFF; fill-opacity:1.0; 
stroke:#FFFFFF; stroke-width:0; stroke-opacity:1; 
stroke-linecap:round; stroke-linejoin:round;">
<circle cx="67500" cy="28500" r="200" /> 
</g>
<g style="fill:#FFFFFF; fill-opacity:1.0; 
stroke:#FFFFFF; stroke-width:39.3701; stroke-opacity:1; 
stroke-linecap:round; stroke-linejoin:round;">
</g>
<g style="fill:#FFFFFF; fill-opacity:1.0; 
stroke:#FFFFFF; stroke-width:0; stroke-opacity:1; 
stroke-linecap:round; stroke-linejoin:round;">
<circle cx="66500" cy="32500" r="200" /> 
</g>
<g style="fill:#FFFFFF; fill-opacity:1.0; 
stroke:#FFFFFF; stroke-width:39.3701; stroke-opacity:1; 
stroke-linecap:round; stroke-linejoin:round;">
</g>
<g style="fill:#FFFFFF; fill-opacity:1.0; 
stroke:#FFFFFF; stroke-width:0; stroke-opacity:1; 
stroke-linecap:round; stroke-linejoin:round;">
<circle cx="67500" cy="27500" r="200" /> 
</g>
<g style="fill:#FFFFFF; fill-opacity:1.0; 
stroke:#FFFFFF; stroke-width:39.3701; stroke-opacity:1; 
stroke-linecap:round; stroke-linejoin:round;">
</g>
<g style="fill:#FFFFFF; fill-opacity:1.0; 
stroke:#FFFFFF; stroke-width:0; stroke-opacity:1; 
stroke-linecap:round; stroke-linejoin:round;">
<circle cx="66500" cy="31500" r="200" /> 
</g>
<g style="fill:#FFFFFF; fill-opacity:1.0; 
stroke:#FFFFFF; stroke-width:39.3701; stroke-opacity:1; 
stroke-linecap:round; stroke-linejoin:round;">
</g>
<g style="fill:#FFFFFF; fill-opacity:1.0; 
stroke:#FFFFFF; stroke-width:0; stroke-opacity:1; 
stroke-linecap:round; stroke-linejoin:round;">
<circle cx="67500" cy="26500" r="200" /> 
</g>
<g style="fill:#FFFFFF; fill-opacity:1.0; 
stroke:#FFFFFF; stroke-width:39.3701; stroke-opacity:1; 
stroke-linecap:round; stroke-linejoin:round;">
</g>
<g style="fill:#FFFFFF; fill-opacity:1.0; 
stroke:#FFFFFF; stroke-width:0; stroke-opacity:1; 
stroke-linecap:round; stroke-linejoin:round;">
<circle cx="66500" cy="30500" r="200" /> 
</g>
<g style="fill:#FFFFFF; fill-opacity:1.0; 
stroke:#FFFFFF; stroke-width:39.3701; stroke-opacity:1; 
stroke-linecap:round; stroke-linejoin:round;">
</g>
<g style="fill:#FFFFFF; fill-opacity:1.0; 
stroke:#FFFFFF; stroke-width:0; stroke-opacity:1; 
stroke-linecap:round; stroke-linejoin:round;">
<circle cx="67500" cy="25500" r="200" /> 
</g>
<g style="fill:#FFFFFF; fill-opacity:1.0; 
stroke:#FFFFFF; stroke-width:39.3701; stroke-opacity:1; 
stroke-linecap:round; stroke-linejoin:round;">
</g>
<g style="fill:#FFFFFF; fill-opacity:1.0; 
stroke:#FFFFFF; stroke-width:0; stroke-opacity:1; 
stroke-linecap:round; stroke-linejoin:round;">
<circle cx="66500" cy="29500" r="200" /> 
</g>
<g style="fill:#FFFFFF; fill-opacity:1.0; 
stroke:#FFFFFF; stroke-width:39.3701; stroke-opacity:1; 
stroke-linecap:round; stroke-linejoin:round;">
</g>
<g style="fill:#FFFFFF; fill-opacity:1.0; 
stroke:#FFFFFF; stroke-width:0; stroke-opacity:1; 
stroke-linecap:round; stroke-linejoin:round;">
<circle cx="67500" cy="24500" r="200" /> 
</g>
<g style="fill:#FFFFFF; fill-opacity:1.0; 
stroke:#FFFFFF; stroke-width:39.3701; stroke-opacity:1; 
stroke-linecap:round; stroke-linejoin:round;">
</g>
<g style="fill:#FFFFFF; fill-opacity:1.0; 
stroke:#FFFFFF; stroke-width:0; stroke-opacity:1; 
stroke-linecap:round; stroke-linejoin:round;">
<circle cx="66500" cy="28500" r="200" /> 
</g>
<g style="fill:#FFFFFF; fill-opacity:1.0; 
stroke:#FFFFFF; stroke-width:39.3701; stroke-opacity:1; 
stroke-linecap:round; stroke-linejoin:round;">
</g>
<g style="fill:#FFFFFF; fill-opacity:1.0; 
stroke:#FFFFFF; stroke-width:0; stroke-opacity:1; 
stroke-linecap:round; stroke-linejoin:round;">
<circle cx="66500" cy="27500" r="200" /> 
</g>
<g style="fill:#FFFFFF; fill-opacity:1.0; 
stroke:#FFFFFF; stroke-width:39.3701; stroke-opacity:1; 
stroke-linecap:round; stroke-linejoin:round;">
</g>
<g style="fill:#FFFFFF; fill-opacity:1.0; 
stroke:#FFFFFF; stroke-width:0; stroke-opacity:1; 
stroke-linecap:round; stroke-linejoin:round;">
<circle cx="67500" cy="23500" r="200" /> 
</g>
<g style="fill:#FFFFFF; fill-opacity:1.0; 
stroke:#FFFFFF; stroke-width:39.3701; stroke-opacity:1; 
stroke-linecap:round; stroke-linejoin:round;">
</g>
<g style="fill:#FFFFFF; fill-opacity:1.0; 
stroke:#FFFFFF; stroke-width:0; stroke-opacity:1; 
stroke-linecap:round; stroke-linejoin:round;">
<circle cx="66500" cy="26500" r="200" /> 
</g>
<g style="fill:#FFFFFF; fill-opacity:1.0; 
stroke:#FFFFFF; stroke-width:39.3701; stroke-opacity:1; 
stroke-linecap:round; stroke-linejoin:round;">
</g>
<g style="fill:#FFFFFF; fill-opacity:1.0; 
stroke:#FFFFFF; stroke-width:0; stroke-opacity:1; 
stroke-linecap:round; stroke-linejoin:round;">
<circle cx="66500" cy="24500" r="200" /> 
</g>
<g style="fill:#FFFFFF; fill-opacity:1.0; 
stroke:#FFFFFF; stroke-width:39.3701; stroke-opacity:1; 
stroke-linecap:round; stroke-linejoin:round;">
</g>
<g style="fill:#FFFFFF; fill-opacity:1.0; 
stroke:#FFFFFF; stroke-width:0; stroke-opacity:1; 
stroke-linecap:round; stroke-linejoin:round;">
<circle cx="66500" cy="23500" r="200" /> 
</g>
<g style="fill:#FFFFFF; fill-opacity:1.0; 
stroke:#FFFFFF; stroke-width:39.3701; stroke-opacity:1; 
stroke-linecap:round; stroke-linejoin:round;">
</g>
<g style="fill:#FFFFFF; fill-opacity:1.0; 
stroke:#FFFFFF; stroke-width:0; stroke-opacity:1; 
stroke-linecap:round; stroke-linejoin:round;">
<circle cx="66500" cy="22500" r="200" /> 
</g>
<g style="fill:#FFFFFF; fill-opacity:1.0; 
stroke:#FFFFFF; stroke-width:39.3701; stroke-opacity:1; 
stroke-linecap:round; stroke-linejoin:round;">
</g>
<g style="fill:#FFFFFF; fill-opacity:1.0; 
stroke:#FFFFFF; stroke-width:0; stroke-opacity:1; 
stroke-linecap:round; stroke-linejoin:round;">
<circle cx="66500" cy="21500" r="200" /> 
</g>
<g style="fill:#FFFFFF; fill-opacity:1.0; 
stroke:#FFFFFF; stroke-width:39.3701; stroke-opacity:1; 
stroke-linecap:round; stroke-linejoin:round;">
</g>
<g style="fill:#FFFFFF; fill-opacity:1.0; 
stroke:#FFFFFF; stroke-width:0; stroke-opacity:1; 
stroke-linecap:round; stroke-linejoin:round;">
<circle cx="67500" cy="22500" r="200" /> 
</g>
<g style="fill:#FFFFFF; fill-opacity:1.0; 
stroke:#FFFFFF; stroke-width:39.3701; stroke-opacity:1; 
stroke-linecap:round; stroke-linejoin:round;">
</g>
<g style="fill:#FFFFFF; fill-opacity:1.0; 
stroke:#FFFFFF; stroke-width:0; stroke-opacity:1; 
stroke-linecap:round; stroke-linejoin:round;">
<circle cx="67500" cy="21500" r="200" /> 
</g>
<g style="fill:#FFFFFF; fill-opacity:1.0; 
stroke:#FFFFFF; stroke-width:39.3701; stroke-opacity:1; 
stroke-linecap:round; stroke-linejoin:round;">
</g>
<g style="fill:#FFFFFF; fill-opacity:1.0; 
stroke:#FFFFFF; stroke-width:0; stroke-opacity:1; 
stroke-linecap:round; stroke-linejoin:round;">
<circle cx="67500" cy="38500" r="200" /> 
</g>
<g style="fill:#FFFFFF; fill-opacity:1.0; 
stroke:#FFFFFF; stroke-width:39.3701; stroke-opacity:1; 
stroke-linecap:round; stroke-linejoin:round;">
</g>
<g style="fill:#FFFFFF; fill-opacity:1.0; 
stroke:#FFFFFF; stroke-width:0; stroke-opacity:1; 
stroke-linecap:round; stroke-linejoin:round;">
<circle cx="67500" cy="37500" r="200" /> 
</g>
<g style="fill:#FFFFFF; fill-opacity:1.0; 
stroke:#FFFFFF; stroke-width:39.3701; stroke-opacity:1; 
stroke-linecap:round; stroke-linejoin:round;">
</g>
<g style="fill:#FFFFFF; fill-opacity:1.0; 
stroke:#FFFFFF; stroke-width:0; stroke-opacity:1; 
stroke-linecap:round; stroke-linejoin:round;">
<circle cx="67500" cy="36500" r="200" /> 
</g>
<g style="fill:#FFFFFF; fill-opacity:1.0; 
stroke:#FFFFFF; stroke-width:39.3701; stroke-opacity:1; 
stroke-linecap:round; stroke-linejoin:round;">
</g>
<g style="fill:#FFFFFF; fill-opacity:1.0; 
stroke:#FFFFFF; stroke-width:0; stroke-opacity:1; 
stroke-linecap:round; stroke-linejoin:round;">
<circle cx="67500" cy="35500" r="200" /> 
</g>
<g style="fill:#FFFFFF; fill-opacity:1.0; 
stroke:#FFFFFF; stroke-width:39.3701; stroke-opacity:1; 
stroke-linecap:round; stroke-linejoin:round;">
</g>
<g style="fill:#FFFFFF; fill-opacity:1.0; 
stroke:#FFFFFF; stroke-width:0; stroke-opacity:1; 
stroke-linecap:round; stroke-linejoin:round;">
<circle cx="67500" cy="20500" r="200" /> 
</g>
<g style="fill:#FFFFFF; fill-opacity:1.0; 
stroke:#FFFFFF; stroke-width:39.3701; stroke-opacity:1; 
stroke-linecap:round; stroke-linejoin:round;">
</g>
<g style="fill:#FFFFFF; fill-opacity:1.0; 
stroke:#FFFFFF; stroke-width:0; stroke-opacity:1; 
stroke-linecap:round; stroke-linejoin:round;">
<circle cx="66500" cy="20500" r="200" /> 
</g>
<g style="fill:#FFFFFF; fill-opacity:1.0; 
stroke:#FFFFFF; stroke-width:39.3701; stroke-opacity:1; 
stroke-linecap:round; stroke-linejoin:round;">
</g>
<g style="fill:#FFFFFF; fill-opacity:1.0; 
stroke:#FFFFFF; stroke-width:0; stroke-opacity:1; 
stroke-linecap:round; stroke-linejoin:round;">
<circle cx="66500" cy="25500" r="200" /> 
</g>
<g style="fill:#FFFFFF; fill-opacity:1.0; 
stroke:#FFFFFF; stroke-width:39.3701; stroke-opacity:1; 
stroke-linecap:round; stroke-linejoin:round;">
</g>
<g style="fill:#FFFFFF; fill-opacity:1.0; 
stroke:#FFFFFF; stroke-width:0; stroke-opacity:1; 
stroke-linecap:round; stroke-linejoin:round;">
<circle cx="52000" cy="28000" r="300" /> 
</g>
<g style="fill:#FFFFFF; fill-opacity:1.0; 
stroke:#FFFFFF; stroke-width:39.3701; stroke-opacity:1; 
stroke-linecap:round; stroke-linejoin:round;">
</g>
<g style="fill:#FFFFFF; fill-opacity:1.0; 
stroke:#FFFFFF; stroke-width:0; stroke-opacity:1; 
stroke-linecap:round; stroke-linejoin:round;">
<circle cx="52000" cy="30000" r="300" /> 
</g>
<g style="fill:#FFFFFF; fill-opacity:1.0; 
stroke:#FFFFFF; stroke-width:39.3701; stroke-opacity:1; 
stroke-linecap:round; stroke-linejoin:round;">
</g>
<g style="fill:#FFFFFF; fill-opacity:1.0; 
stroke:#FFFFFF; stroke-width:0; stroke-opacity:1; 
stroke-linecap:round; stroke-linejoin:round;">
<circle cx="52000" cy="32000" r="300" /> 
</g>
<g style="fill:#FFFFFF; fill-opacity:1.0; 
stroke:#FFFFFF; stroke-width:39.3701; stroke-opacity:1; 
stroke-linecap:round; stroke-linejoin:round;">
</g>
<g style="fill:#000000; fill-opacity:1.0; 
stroke:#000000; stroke-width:39.3701; stroke-opacity:1; 
stroke-linecap:round; stroke-linejoin:round;">
</g> 
</svg>
