G04 #@! TF.FileFunction,Copper,L2,Bot,Signal*
%FSLAX46Y46*%
G04 Gerber Fmt 4.6, Leading zero omitted, Abs format (unit mm)*
G04 Created by KiCad (PCBNEW 4.0.2+dfsg1-2~bpo8+1-stable) date lun 17 oct 2016 17:04:15 ART*
%MOMM*%
G01*
G04 APERTURE LIST*
%ADD10C,0.100000*%
%ADD11C,0.300000*%
%ADD12C,0.150000*%
%ADD13R,2.000000X1.524000*%
%ADD14O,2.000000X1.524000*%
%ADD15C,1.524000*%
%ADD16C,1.397000*%
%ADD17C,2.082800*%
%ADD18C,3.810000*%
%ADD19R,1.600200X1.600200*%
%ADD20C,1.600200*%
%ADD21C,4.400000*%
%ADD22C,1.000000*%
%ADD23C,0.320000*%
%ADD24C,0.260000*%
%ADD25C,0.203200*%
%ADD26C,1.016000*%
%ADD27C,0.330000*%
%ADD28C,0.550000*%
%ADD29C,0.254000*%
G04 APERTURE END LIST*
D10*
D11*
X145397143Y-76302858D02*
X145468571Y-76517144D01*
X145468571Y-76874287D01*
X145397143Y-77017144D01*
X145325714Y-77088573D01*
X145182857Y-77160001D01*
X145040000Y-77160001D01*
X144897143Y-77088573D01*
X144825714Y-77017144D01*
X144754286Y-76874287D01*
X144682857Y-76588573D01*
X144611429Y-76445715D01*
X144540000Y-76374287D01*
X144397143Y-76302858D01*
X144254286Y-76302858D01*
X144111429Y-76374287D01*
X144040000Y-76445715D01*
X143968571Y-76588573D01*
X143968571Y-76945715D01*
X144040000Y-77160001D01*
X145397143Y-78374286D02*
X145468571Y-78231429D01*
X145468571Y-77945715D01*
X145397143Y-77802858D01*
X145254286Y-77731429D01*
X144682857Y-77731429D01*
X144540000Y-77802858D01*
X144468571Y-77945715D01*
X144468571Y-78231429D01*
X144540000Y-78374286D01*
X144682857Y-78445715D01*
X144825714Y-78445715D01*
X144968571Y-77731429D01*
X144468571Y-79088572D02*
X145968571Y-79088572D01*
X144540000Y-79088572D02*
X144468571Y-79231429D01*
X144468571Y-79517143D01*
X144540000Y-79660000D01*
X144611429Y-79731429D01*
X144754286Y-79802858D01*
X145182857Y-79802858D01*
X145325714Y-79731429D01*
X145397143Y-79660000D01*
X145468571Y-79517143D01*
X145468571Y-79231429D01*
X145397143Y-79088572D01*
X144468571Y-80231429D02*
X144468571Y-80802858D01*
X143968571Y-80445715D02*
X145254286Y-80445715D01*
X145397143Y-80517143D01*
X145468571Y-80660001D01*
X145468571Y-80802858D01*
X144111429Y-82374286D02*
X144040000Y-82445715D01*
X143968571Y-82588572D01*
X143968571Y-82945715D01*
X144040000Y-83088572D01*
X144111429Y-83160001D01*
X144254286Y-83231429D01*
X144397143Y-83231429D01*
X144611429Y-83160001D01*
X145468571Y-82302858D01*
X145468571Y-83231429D01*
X143968571Y-84160000D02*
X143968571Y-84302857D01*
X144040000Y-84445714D01*
X144111429Y-84517143D01*
X144254286Y-84588572D01*
X144540000Y-84660000D01*
X144897143Y-84660000D01*
X145182857Y-84588572D01*
X145325714Y-84517143D01*
X145397143Y-84445714D01*
X145468571Y-84302857D01*
X145468571Y-84160000D01*
X145397143Y-84017143D01*
X145325714Y-83945714D01*
X145182857Y-83874286D01*
X144897143Y-83802857D01*
X144540000Y-83802857D01*
X144254286Y-83874286D01*
X144111429Y-83945714D01*
X144040000Y-84017143D01*
X143968571Y-84160000D01*
X145468571Y-86088571D02*
X145468571Y-85231428D01*
X145468571Y-85660000D02*
X143968571Y-85660000D01*
X144182857Y-85517143D01*
X144325714Y-85374285D01*
X144397143Y-85231428D01*
X143968571Y-87374285D02*
X143968571Y-87088571D01*
X144040000Y-86945714D01*
X144111429Y-86874285D01*
X144325714Y-86731428D01*
X144611429Y-86659999D01*
X145182857Y-86659999D01*
X145325714Y-86731428D01*
X145397143Y-86802856D01*
X145468571Y-86945714D01*
X145468571Y-87231428D01*
X145397143Y-87374285D01*
X145325714Y-87445714D01*
X145182857Y-87517142D01*
X144825714Y-87517142D01*
X144682857Y-87445714D01*
X144611429Y-87374285D01*
X144540000Y-87231428D01*
X144540000Y-86945714D01*
X144611429Y-86802856D01*
X144682857Y-86731428D01*
X144825714Y-86659999D01*
X145468571Y-89517143D02*
X143968571Y-89517143D01*
X145468571Y-90231429D02*
X143968571Y-90231429D01*
X145468571Y-91088572D01*
X143968571Y-91088572D01*
X145468571Y-91802858D02*
X143968571Y-91802858D01*
X143968571Y-92160001D01*
X144040000Y-92374286D01*
X144182857Y-92517144D01*
X144325714Y-92588572D01*
X144611429Y-92660001D01*
X144825714Y-92660001D01*
X145111429Y-92588572D01*
X145254286Y-92517144D01*
X145397143Y-92374286D01*
X145468571Y-92160001D01*
X145468571Y-91802858D01*
X143968571Y-93302858D02*
X145182857Y-93302858D01*
X145325714Y-93374286D01*
X145397143Y-93445715D01*
X145468571Y-93588572D01*
X145468571Y-93874286D01*
X145397143Y-94017144D01*
X145325714Y-94088572D01*
X145182857Y-94160001D01*
X143968571Y-94160001D01*
X145397143Y-94802858D02*
X145468571Y-95017144D01*
X145468571Y-95374287D01*
X145397143Y-95517144D01*
X145325714Y-95588573D01*
X145182857Y-95660001D01*
X145040000Y-95660001D01*
X144897143Y-95588573D01*
X144825714Y-95517144D01*
X144754286Y-95374287D01*
X144682857Y-95088573D01*
X144611429Y-94945715D01*
X144540000Y-94874287D01*
X144397143Y-94802858D01*
X144254286Y-94802858D01*
X144111429Y-94874287D01*
X144040000Y-94945715D01*
X143968571Y-95088573D01*
X143968571Y-95445715D01*
X144040000Y-95660001D01*
X143968571Y-96088572D02*
X143968571Y-96945715D01*
X145468571Y-96517144D02*
X143968571Y-96517144D01*
X145468571Y-98302858D02*
X144754286Y-97802858D01*
X145468571Y-97445715D02*
X143968571Y-97445715D01*
X143968571Y-98017143D01*
X144040000Y-98160001D01*
X144111429Y-98231429D01*
X144254286Y-98302858D01*
X144468571Y-98302858D01*
X144611429Y-98231429D01*
X144682857Y-98160001D01*
X144754286Y-98017143D01*
X144754286Y-97445715D01*
X145468571Y-98945715D02*
X143968571Y-98945715D01*
X145040000Y-99588572D02*
X145040000Y-100302858D01*
X145468571Y-99445715D02*
X143968571Y-99945715D01*
X145468571Y-100445715D01*
X145040000Y-102017143D02*
X145040000Y-102731429D01*
X145468571Y-101874286D02*
X143968571Y-102374286D01*
X145468571Y-102874286D01*
X145468571Y-104231429D02*
X144754286Y-103731429D01*
X145468571Y-103374286D02*
X143968571Y-103374286D01*
X143968571Y-103945714D01*
X144040000Y-104088572D01*
X144111429Y-104160000D01*
X144254286Y-104231429D01*
X144468571Y-104231429D01*
X144611429Y-104160000D01*
X144682857Y-104088572D01*
X144754286Y-103945714D01*
X144754286Y-103374286D01*
X144040000Y-105660000D02*
X143968571Y-105517143D01*
X143968571Y-105302857D01*
X144040000Y-105088572D01*
X144182857Y-104945714D01*
X144325714Y-104874286D01*
X144611429Y-104802857D01*
X144825714Y-104802857D01*
X145111429Y-104874286D01*
X145254286Y-104945714D01*
X145397143Y-105088572D01*
X145468571Y-105302857D01*
X145468571Y-105445714D01*
X145397143Y-105660000D01*
X145325714Y-105731429D01*
X144825714Y-105731429D01*
X144825714Y-105445714D01*
X144682857Y-106374286D02*
X144682857Y-106874286D01*
X145468571Y-107088572D02*
X145468571Y-106374286D01*
X143968571Y-106374286D01*
X143968571Y-107088572D01*
X145468571Y-107731429D02*
X143968571Y-107731429D01*
X145468571Y-108588572D01*
X143968571Y-108588572D01*
X143968571Y-109088572D02*
X143968571Y-109945715D01*
X145468571Y-109517144D02*
X143968571Y-109517144D01*
X145468571Y-110445715D02*
X143968571Y-110445715D01*
X145468571Y-111160001D02*
X143968571Y-111160001D01*
X145468571Y-112017144D01*
X143968571Y-112017144D01*
X145040000Y-112660001D02*
X145040000Y-113374287D01*
X145468571Y-112517144D02*
X143968571Y-113017144D01*
X145468571Y-113517144D01*
D12*
X91195000Y-68750000D02*
X91195000Y-134155000D01*
X146440000Y-68750000D02*
X91195000Y-68750000D01*
X146440000Y-129710000D02*
X146440000Y-68750000D01*
X114690000Y-129710000D02*
X146440000Y-129710000D01*
X110245000Y-134155000D02*
X114690000Y-129710000D01*
X91195000Y-134155000D02*
X110245000Y-134155000D01*
D13*
X97545000Y-83990000D03*
D14*
X100085000Y-83990000D03*
X97545000Y-86530000D03*
X100085000Y-86530000D03*
X97545000Y-89070000D03*
X100085000Y-89070000D03*
X97545000Y-91610000D03*
X100085000Y-91610000D03*
X97545000Y-94150000D03*
X100085000Y-94150000D03*
X97545000Y-96690000D03*
X100085000Y-96690000D03*
X97545000Y-99230000D03*
X100085000Y-99230000D03*
X97545000Y-101770000D03*
X100085000Y-101770000D03*
X97545000Y-104310000D03*
X100085000Y-104310000D03*
X97545000Y-106850000D03*
X100085000Y-106850000D03*
X97545000Y-109390000D03*
X100085000Y-109390000D03*
X97545000Y-111930000D03*
X100085000Y-111930000D03*
X97545000Y-114470000D03*
X100085000Y-114470000D03*
X97545000Y-117010000D03*
X100085000Y-117010000D03*
X97545000Y-119550000D03*
X100085000Y-119550000D03*
X97545000Y-122090000D03*
X100085000Y-122090000D03*
X97545000Y-124630000D03*
X100085000Y-124630000D03*
X97545000Y-127170000D03*
X100085000Y-127170000D03*
X97545000Y-129710000D03*
X100085000Y-129710000D03*
X97545000Y-132250000D03*
X100085000Y-132250000D03*
D15*
X124460000Y-111379000D03*
D16*
X121920000Y-116205000D03*
X124460000Y-116205000D03*
X123190000Y-118745000D03*
X123190000Y-113665000D03*
D15*
X121920000Y-111379000D03*
D17*
X135382000Y-122047000D03*
D18*
X133350000Y-125095000D03*
D16*
X133350000Y-118745000D03*
D18*
X121920000Y-125095000D03*
D17*
X119888000Y-122047000D03*
D16*
X130810000Y-118745000D03*
X128270000Y-118745000D03*
X132080000Y-116205000D03*
X129540000Y-116205000D03*
D15*
X133096000Y-111379000D03*
X130556000Y-111379000D03*
D19*
X114935000Y-120269000D03*
D20*
X112395000Y-120269000D03*
X114935000Y-117729000D03*
X112395000Y-117729000D03*
X114935000Y-115189000D03*
X112395000Y-115189000D03*
X114935000Y-112649000D03*
X112395000Y-112649000D03*
D21*
X140790000Y-124410000D03*
X140790000Y-72410000D03*
D22*
X127390000Y-92118000D03*
X131200000Y-83355000D03*
X136407000Y-92118000D03*
X123707000Y-84498000D03*
X115706000Y-126662000D03*
X108594000Y-133266000D03*
X116722000Y-125646000D03*
X112150000Y-125646000D03*
X112150000Y-123614000D03*
X110118000Y-123614000D03*
X110118000Y-125646000D03*
X102498000Y-133266000D03*
X135518000Y-69766000D03*
X136915000Y-69766000D03*
X136915000Y-71163000D03*
X136915000Y-72687000D03*
X136915000Y-80053000D03*
X136915000Y-78529000D03*
X136915000Y-77132000D03*
X131200000Y-72687000D03*
X132724000Y-72687000D03*
X132724000Y-74084000D03*
X92465000Y-83990000D03*
X92465000Y-80688000D03*
X92465000Y-77767000D03*
X92465000Y-71290000D03*
X92465000Y-69893000D03*
X93862000Y-69893000D03*
X95132000Y-83990000D03*
X95132000Y-86530000D03*
X105800000Y-72306000D03*
X111490000Y-74410000D03*
X103006000Y-79672000D03*
X109190000Y-76710000D03*
X109390000Y-97910000D03*
X109390000Y-100510000D03*
X108990000Y-94710000D03*
X102490000Y-111210000D03*
X104890000Y-111210000D03*
X104890000Y-105310000D03*
X107590000Y-105210000D03*
X107590000Y-107310000D03*
X107590000Y-109610000D03*
X109390000Y-109610000D03*
X109390000Y-107310000D03*
X109390000Y-105210000D03*
X109390000Y-103310000D03*
X103006000Y-83482000D03*
X103006000Y-82212000D03*
X96656000Y-82212000D03*
X96656000Y-80942000D03*
X96656000Y-79672000D03*
X95386000Y-79672000D03*
X95386000Y-80942000D03*
X95386000Y-82212000D03*
X102498000Y-103294000D03*
X104911000Y-103294000D03*
X104911000Y-100500000D03*
X102498000Y-100500000D03*
X102498000Y-97960000D03*
X104911000Y-97960000D03*
X104911000Y-95293000D03*
X104911000Y-92880000D03*
X106181000Y-92880000D03*
X106181000Y-90340000D03*
X102752000Y-90340000D03*
X104911000Y-87800000D03*
X102752000Y-87800000D03*
X112680002Y-76624000D03*
X121294000Y-76497000D03*
X134730600Y-87469800D03*
X136508600Y-90619400D03*
X131428600Y-87012600D03*
X119008000Y-94150000D03*
X116722000Y-94150000D03*
X116722000Y-91864000D03*
X119008000Y-91864000D03*
X119008000Y-89578000D03*
X116722000Y-89578000D03*
X116722000Y-87292000D03*
X119008000Y-87292000D03*
X139582000Y-118026000D03*
X139582000Y-116248000D03*
X139582000Y-114470000D03*
X137804000Y-111422000D03*
X137804000Y-109644000D03*
X137804000Y-101262000D03*
X137804000Y-103040000D03*
X137804000Y-104818000D03*
X137804000Y-106596000D03*
X137804000Y-94150000D03*
X137804000Y-96182000D03*
X137804000Y-97960000D03*
X137804000Y-99738000D03*
X135264000Y-94150000D03*
X135264000Y-96182000D03*
X135264000Y-97960000D03*
X135264000Y-99738000D03*
X114182000Y-103040000D03*
X116214000Y-103040000D03*
X118246000Y-103040000D03*
X118246000Y-104818000D03*
X116214000Y-104818000D03*
X114182000Y-104818000D03*
X112404000Y-104818000D03*
X112404000Y-107358000D03*
X112404000Y-109898000D03*
X105546000Y-129710000D03*
X105546000Y-127170000D03*
X105546000Y-124630000D03*
X105546000Y-122090000D03*
X105546000Y-119550000D03*
X105546000Y-117010000D03*
X105546000Y-114470000D03*
X103006000Y-114470000D03*
X103006000Y-127170000D03*
X103006000Y-124630000D03*
X103006000Y-122090000D03*
X103006000Y-119550000D03*
X103006000Y-117010000D03*
X103006000Y-129710000D03*
X129295000Y-94277000D03*
X126120000Y-82085000D03*
X98434000Y-76497000D03*
X106562000Y-70020000D03*
X108594000Y-78021000D03*
X126501000Y-77335200D03*
X138185000Y-81196000D03*
X135645000Y-83990000D03*
X120190000Y-96310000D03*
X129904600Y-81754800D03*
X122945000Y-78275000D03*
X110245000Y-85260000D03*
X109356000Y-83609000D03*
X122818000Y-76497000D03*
X107705000Y-90340000D03*
X118728600Y-75506400D03*
X144408000Y-121074000D03*
X144408000Y-123106000D03*
X144408000Y-125646000D03*
X144408000Y-127932000D03*
X141614000Y-127932000D03*
X138566000Y-127932000D03*
X135518000Y-127932000D03*
X132470000Y-127932000D03*
X129676000Y-127932000D03*
X127136000Y-127932000D03*
X124850000Y-127932000D03*
X122564000Y-127932000D03*
X120532000Y-127932000D03*
X117990000Y-81210000D03*
X117990000Y-85910000D03*
D23*
X127390000Y-92118000D02*
X127390000Y-90213000D01*
X125993000Y-88816000D02*
X125993000Y-83101000D01*
X127390000Y-90213000D02*
X125993000Y-88816000D01*
D24*
X125993000Y-83101000D02*
X131073000Y-83101000D01*
X131073000Y-83101000D02*
X131200000Y-83228000D01*
X131200000Y-83228000D02*
X131200000Y-83355000D01*
D23*
X136407000Y-92118000D02*
X136407000Y-112057000D01*
X136407000Y-112057000D02*
X132259000Y-116205000D01*
X132259000Y-116205000D02*
X132080000Y-116205000D01*
D24*
X125993000Y-83101000D02*
X125104000Y-83101000D01*
X125104000Y-83101000D02*
X123707000Y-84498000D01*
D25*
X102498000Y-133266000D02*
X108594000Y-133266000D01*
X115706000Y-126662000D02*
X116722000Y-125646000D01*
X112150000Y-125646000D02*
X112150000Y-123614000D01*
X110118000Y-123614000D02*
X110118000Y-125646000D01*
X136915000Y-69766000D02*
X135518000Y-69766000D01*
X136915000Y-72687000D02*
X136915000Y-71163000D01*
X132724000Y-74084000D02*
X133867000Y-74084000D01*
X136915000Y-78529000D02*
X136915000Y-80053000D01*
X133867000Y-74084000D02*
X136915000Y-77132000D01*
X132724000Y-74084000D02*
X132724000Y-72687000D01*
X93862000Y-69893000D02*
X103387000Y-69893000D01*
X92465000Y-80688000D02*
X92465000Y-77767000D01*
X92465000Y-71290000D02*
X92465000Y-69893000D01*
X97545000Y-86530000D02*
X95132000Y-86530000D01*
X95132000Y-83990000D02*
X92465000Y-83990000D01*
X103387000Y-69893000D02*
X105800000Y-72306000D01*
X103006000Y-79672000D02*
X103528000Y-79672000D01*
X106490000Y-76710000D02*
X109190000Y-76710000D01*
X103528000Y-79672000D02*
X106490000Y-76710000D01*
D26*
X109390000Y-97910000D02*
X109390000Y-95110000D01*
X109390000Y-103310000D02*
X109390000Y-100510000D01*
X109390000Y-97910000D02*
X109390000Y-100510000D01*
X109390000Y-95110000D02*
X108990000Y-94710000D01*
X104890000Y-111210000D02*
X102490000Y-111210000D01*
X107490000Y-105310000D02*
X104890000Y-105310000D01*
X107590000Y-105210000D02*
X107490000Y-105310000D01*
X107590000Y-109610000D02*
X107590000Y-107310000D01*
X109390000Y-107310000D02*
X109390000Y-109610000D01*
X109390000Y-103310000D02*
X109390000Y-105210000D01*
D25*
X103006000Y-82212000D02*
X103006000Y-83482000D01*
X96656000Y-80942000D02*
X96656000Y-82212000D01*
X95386000Y-79672000D02*
X96656000Y-79672000D01*
X95386000Y-82212000D02*
X95386000Y-80942000D01*
D23*
X104911000Y-100500000D02*
X104911000Y-103294000D01*
X104911000Y-100500000D02*
X104911000Y-97960000D01*
X104911000Y-95293000D02*
X104911000Y-97960000D01*
X106181000Y-92880000D02*
X104911000Y-92880000D01*
X102752000Y-90340000D02*
X106181000Y-90340000D01*
X102752000Y-87800000D02*
X104911000Y-87800000D01*
D27*
X121294000Y-76497000D02*
X119389000Y-74592000D01*
X119389000Y-74592000D02*
X113547000Y-74592000D01*
X113547000Y-74592000D02*
X112680002Y-75458998D01*
X112680002Y-75458998D02*
X112680002Y-76624000D01*
X131428600Y-87012600D02*
X132571600Y-88155600D01*
X134044800Y-88155600D02*
X134730600Y-87469800D01*
X132571600Y-88155600D02*
X134044800Y-88155600D01*
X135035400Y-90619400D02*
X136508600Y-90619400D01*
X131428600Y-87012600D02*
X135035400Y-90619400D01*
D28*
X116722000Y-94150000D02*
X119008000Y-94150000D01*
X119008000Y-91864000D02*
X116722000Y-91864000D01*
X116722000Y-89578000D02*
X119008000Y-89578000D01*
X119008000Y-87292000D02*
X116722000Y-87292000D01*
X137804000Y-106596000D02*
X137804000Y-109644000D01*
X139582000Y-116248000D02*
X139582000Y-118026000D01*
X139582000Y-113200000D02*
X139582000Y-114470000D01*
X137804000Y-111422000D02*
X139582000Y-113200000D01*
X137804000Y-103040000D02*
X137804000Y-101262000D01*
X137804000Y-106596000D02*
X137804000Y-104818000D01*
D26*
X137804000Y-96182000D02*
X137804000Y-94150000D01*
X137804000Y-99738000D02*
X137804000Y-97960000D01*
X118246000Y-103040000D02*
X118246000Y-101516000D01*
X135264000Y-97960000D02*
X135264000Y-96182000D01*
X120024000Y-99738000D02*
X135264000Y-99738000D01*
X118246000Y-101516000D02*
X120024000Y-99738000D01*
X112404000Y-104818000D02*
X114182000Y-104818000D01*
X118246000Y-103040000D02*
X116214000Y-103040000D01*
X116214000Y-104818000D02*
X118246000Y-104818000D01*
X112404000Y-109898000D02*
X112404000Y-107358000D01*
X103006000Y-114470000D02*
X105546000Y-114470000D01*
X105546000Y-127170000D02*
X105546000Y-129710000D01*
X105546000Y-122090000D02*
X105546000Y-124630000D01*
X105546000Y-117010000D02*
X105546000Y-119550000D01*
X103006000Y-124630000D02*
X103006000Y-122090000D01*
X103006000Y-119550000D02*
X103006000Y-117010000D01*
X103006000Y-127170000D02*
X103006000Y-129710000D01*
X103006000Y-114470000D02*
X103006000Y-117010000D01*
D23*
X99450000Y-81196000D02*
X99450000Y-77513000D01*
X99450000Y-77513000D02*
X98434000Y-76497000D01*
X110626000Y-70020000D02*
X106562000Y-70020000D01*
D27*
X128025000Y-71290000D02*
X132920000Y-71290000D01*
X138185000Y-76555000D02*
X138185000Y-81196000D01*
X132920000Y-71290000D02*
X138185000Y-76555000D01*
X108594000Y-78148000D02*
X105546000Y-81196000D01*
X105546000Y-81196000D02*
X99450000Y-81196000D01*
X108594000Y-78021000D02*
X108594000Y-78148000D01*
X128025000Y-75735000D02*
X128025000Y-71290000D01*
D25*
X128025000Y-75811200D02*
X128025000Y-75735000D01*
D27*
X126501000Y-77335200D02*
X128025000Y-75811200D01*
X100085000Y-80561000D02*
X101482000Y-79164000D01*
X126755000Y-70020000D02*
X110626000Y-70020000D01*
X110626000Y-70020000D02*
X105263000Y-75383000D01*
X105263000Y-75383000D02*
X103831500Y-76814500D01*
X103831500Y-76814500D02*
X100085000Y-80561000D01*
D23*
X127199500Y-70464500D02*
X126755000Y-70020000D01*
D27*
X128025000Y-71290000D02*
X127199500Y-70464500D01*
X100085000Y-80561000D02*
X99450000Y-81196000D01*
X99450000Y-81196000D02*
X98942000Y-81704000D01*
X98942000Y-81704000D02*
X97545000Y-83101000D01*
X97545000Y-83101000D02*
X97545000Y-83990000D01*
X97545000Y-83101000D02*
X99704000Y-80942000D01*
X97545000Y-83990000D02*
X97545000Y-83101000D01*
X138185000Y-81450000D02*
X138185000Y-81196000D01*
X135645000Y-83990000D02*
X138185000Y-81450000D01*
X120190000Y-96310000D02*
X121675000Y-94825000D01*
X121675000Y-94825000D02*
X121675000Y-94785000D01*
X129904600Y-81754800D02*
X129701400Y-81958000D01*
X121675000Y-82720000D02*
X121675000Y-94785000D01*
X128533000Y-81958000D02*
X127390000Y-80815000D01*
X127390000Y-80815000D02*
X123580000Y-80815000D01*
X123580000Y-80815000D02*
X121675000Y-82720000D01*
X129701400Y-81958000D02*
X128533000Y-81958000D01*
X112395000Y-112649000D02*
X107789000Y-112649000D01*
X98815000Y-85260000D02*
X100085000Y-83990000D01*
X94370000Y-85260000D02*
X98815000Y-85260000D01*
X93100000Y-86530000D02*
X94370000Y-85260000D01*
X93100000Y-106215000D02*
X93100000Y-86530000D01*
X95005000Y-108120000D02*
X93100000Y-106215000D01*
X103260000Y-108120000D02*
X95005000Y-108120000D01*
X107789000Y-112649000D02*
X103260000Y-108120000D01*
X123897500Y-71607500D02*
X125485000Y-73195000D01*
X125485000Y-75735000D02*
X125485000Y-73195000D01*
X122945000Y-78275000D02*
X125485000Y-75735000D01*
X110245000Y-73830000D02*
X110245000Y-85260000D01*
X112467500Y-71607500D02*
X110245000Y-73830000D01*
X112467500Y-71607500D02*
X123897500Y-71607500D01*
X108975000Y-86784000D02*
X108975000Y-86784000D01*
X100085000Y-89070000D02*
X106689000Y-89070000D01*
X106689000Y-89070000D02*
X108975000Y-86784000D01*
X108975000Y-83990000D02*
X109356000Y-83609000D01*
X108975000Y-86784000D02*
X108975000Y-83990000D01*
X122818000Y-76497000D02*
X122818000Y-75100000D01*
X122818000Y-75100000D02*
X122818000Y-74719000D01*
X122818000Y-74719000D02*
X121929000Y-73830000D01*
X121929000Y-73830000D02*
X121040000Y-73830000D01*
X100085000Y-94150000D02*
X107705000Y-94150000D01*
X111642000Y-90213000D02*
X111642000Y-75608000D01*
X107705000Y-94150000D02*
X111642000Y-90213000D01*
X113420000Y-73830000D02*
X121040000Y-73830000D01*
X111642000Y-75608000D02*
X113420000Y-73830000D01*
X100085000Y-91610000D02*
X106435000Y-91610000D01*
X106435000Y-91610000D02*
X107705000Y-90340000D01*
X108340000Y-132250000D02*
X100085000Y-132250000D01*
X117230000Y-123360000D02*
X108340000Y-132250000D01*
X117230000Y-110660000D02*
X117230000Y-123360000D01*
X115325000Y-108755000D02*
X117230000Y-110660000D01*
X115325000Y-78910000D02*
X115325000Y-108755000D01*
X118728600Y-75506400D02*
X115325000Y-78910000D01*
D26*
X121920000Y-125095000D02*
X119888000Y-123063000D01*
X119888000Y-123063000D02*
X119888000Y-122047000D01*
X133350000Y-125095000D02*
X121920000Y-125095000D01*
X133350000Y-125095000D02*
X135382000Y-123063000D01*
X144408000Y-125646000D02*
X144408000Y-123106000D01*
X141614000Y-127932000D02*
X144408000Y-127932000D01*
X135518000Y-127932000D02*
X138566000Y-127932000D01*
X129676000Y-127932000D02*
X132470000Y-127932000D01*
X124850000Y-127932000D02*
X127136000Y-127932000D01*
X120532000Y-127932000D02*
X122564000Y-127932000D01*
X135382000Y-123063000D02*
X135382000Y-122047000D01*
D27*
X117990000Y-81210000D02*
X117990000Y-85910000D01*
D29*
G36*
X146034800Y-75536944D02*
X142959800Y-75536944D01*
X142959800Y-88283056D01*
X146034800Y-88283056D01*
X146034800Y-88679799D01*
X142959800Y-88679799D01*
X142959800Y-114140200D01*
X146034800Y-114140200D01*
X146034800Y-119423000D01*
X138312000Y-119423000D01*
X138045341Y-119481703D01*
X137842138Y-119630853D01*
X136443705Y-121169129D01*
X136159963Y-120884892D01*
X135656025Y-120675639D01*
X135110369Y-120675163D01*
X134606066Y-120883536D01*
X134219892Y-121269037D01*
X134010639Y-121772975D01*
X134010252Y-122217000D01*
X124122142Y-122217000D01*
X122533886Y-120401850D01*
X122303051Y-120235029D01*
X122056000Y-120185000D01*
X118754000Y-120185000D01*
X118523205Y-120228427D01*
X118311233Y-120364827D01*
X118169029Y-120572949D01*
X118119000Y-120820000D01*
X118119000Y-124874974D01*
X117034987Y-125958987D01*
X116899029Y-126160949D01*
X116849000Y-126408000D01*
X116849000Y-129304800D01*
X114690000Y-129304800D01*
X114534936Y-129335644D01*
X114488114Y-129366930D01*
X114403480Y-129423480D01*
X114403478Y-129423483D01*
X110077160Y-133749800D01*
X91600200Y-133749800D01*
X91600200Y-132593070D01*
X95952780Y-132593070D01*
X95969623Y-132685230D01*
X96237980Y-133163892D01*
X96669086Y-133503422D01*
X97197308Y-133652130D01*
X97418000Y-133493277D01*
X97418000Y-132377000D01*
X96075280Y-132377000D01*
X95952780Y-132593070D01*
X91600200Y-132593070D01*
X91600200Y-130053070D01*
X95952780Y-130053070D01*
X95969623Y-130145230D01*
X96237980Y-130623892D01*
X96669086Y-130963422D01*
X96727972Y-130980000D01*
X96669086Y-130996578D01*
X96237980Y-131336108D01*
X95969623Y-131814770D01*
X95952780Y-131906930D01*
X96075280Y-132123000D01*
X97418000Y-132123000D01*
X97418000Y-131006723D01*
X97380874Y-130980000D01*
X97418000Y-130953277D01*
X97418000Y-129837000D01*
X96075280Y-129837000D01*
X95952780Y-130053070D01*
X91600200Y-130053070D01*
X91600200Y-129366930D01*
X95952780Y-129366930D01*
X96075280Y-129583000D01*
X97418000Y-129583000D01*
X97418000Y-128466723D01*
X97672000Y-128466723D01*
X97672000Y-129583000D01*
X97692000Y-129583000D01*
X97692000Y-129837000D01*
X97672000Y-129837000D01*
X97672000Y-130953277D01*
X97709126Y-130980000D01*
X97672000Y-131006723D01*
X97672000Y-132123000D01*
X97692000Y-132123000D01*
X97692000Y-132377000D01*
X97672000Y-132377000D01*
X97672000Y-133493277D01*
X97892692Y-133652130D01*
X98420914Y-133503422D01*
X98852020Y-133163892D01*
X98984890Y-132926896D01*
X99048638Y-133022302D01*
X99402973Y-133259061D01*
X99820940Y-133342200D01*
X100349060Y-133342200D01*
X100767027Y-133259061D01*
X101121362Y-133022302D01*
X101306516Y-132745200D01*
X108340000Y-132745200D01*
X108529505Y-132707505D01*
X108690159Y-132600159D01*
X117580160Y-123710159D01*
X117670031Y-123575656D01*
X117687505Y-123549505D01*
X117725200Y-123360000D01*
X117725200Y-118948723D01*
X122161122Y-118948723D01*
X122317402Y-119326950D01*
X122606528Y-119616581D01*
X122984481Y-119773521D01*
X123393723Y-119773878D01*
X123771950Y-119617598D01*
X124061581Y-119328472D01*
X124218521Y-118950519D01*
X124218522Y-118948723D01*
X127241122Y-118948723D01*
X127397402Y-119326950D01*
X127686528Y-119616581D01*
X128064481Y-119773521D01*
X128473723Y-119773878D01*
X128851950Y-119617598D01*
X129141581Y-119328472D01*
X129298521Y-118950519D01*
X129298522Y-118948723D01*
X129781122Y-118948723D01*
X129937402Y-119326950D01*
X130226528Y-119616581D01*
X130604481Y-119773521D01*
X131013723Y-119773878D01*
X131391950Y-119617598D01*
X131681581Y-119328472D01*
X131838521Y-118950519D01*
X131838522Y-118948723D01*
X132321122Y-118948723D01*
X132477402Y-119326950D01*
X132766528Y-119616581D01*
X133144481Y-119773521D01*
X133553723Y-119773878D01*
X133931950Y-119617598D01*
X134221581Y-119328472D01*
X134378521Y-118950519D01*
X134378878Y-118541277D01*
X134222598Y-118163050D01*
X133933472Y-117873419D01*
X133555519Y-117716479D01*
X133146277Y-117716122D01*
X132768050Y-117872402D01*
X132478419Y-118161528D01*
X132321479Y-118539481D01*
X132321122Y-118948723D01*
X131838522Y-118948723D01*
X131838878Y-118541277D01*
X131682598Y-118163050D01*
X131393472Y-117873419D01*
X131015519Y-117716479D01*
X130606277Y-117716122D01*
X130228050Y-117872402D01*
X129938419Y-118161528D01*
X129781479Y-118539481D01*
X129781122Y-118948723D01*
X129298522Y-118948723D01*
X129298878Y-118541277D01*
X129142598Y-118163050D01*
X128853472Y-117873419D01*
X128475519Y-117716479D01*
X128066277Y-117716122D01*
X127688050Y-117872402D01*
X127398419Y-118161528D01*
X127241479Y-118539481D01*
X127241122Y-118948723D01*
X124218522Y-118948723D01*
X124218878Y-118541277D01*
X124062598Y-118163050D01*
X123773472Y-117873419D01*
X123395519Y-117716479D01*
X122986277Y-117716122D01*
X122608050Y-117872402D01*
X122318419Y-118161528D01*
X122161479Y-118539481D01*
X122161122Y-118948723D01*
X117725200Y-118948723D01*
X117725200Y-116408723D01*
X120891122Y-116408723D01*
X121047402Y-116786950D01*
X121336528Y-117076581D01*
X121714481Y-117233521D01*
X122123723Y-117233878D01*
X122501950Y-117077598D01*
X122791581Y-116788472D01*
X122948521Y-116410519D01*
X122948522Y-116408723D01*
X123431122Y-116408723D01*
X123587402Y-116786950D01*
X123876528Y-117076581D01*
X124254481Y-117233521D01*
X124663723Y-117233878D01*
X125041950Y-117077598D01*
X125331581Y-116788472D01*
X125488521Y-116410519D01*
X125488522Y-116408723D01*
X128511122Y-116408723D01*
X128667402Y-116786950D01*
X128956528Y-117076581D01*
X129334481Y-117233521D01*
X129743723Y-117233878D01*
X130121950Y-117077598D01*
X130411581Y-116788472D01*
X130568521Y-116410519D01*
X130568522Y-116408723D01*
X131051122Y-116408723D01*
X131207402Y-116786950D01*
X131496528Y-117076581D01*
X131874481Y-117233521D01*
X132283723Y-117233878D01*
X132661950Y-117077598D01*
X132951581Y-116788472D01*
X133108521Y-116410519D01*
X133108837Y-116048411D01*
X136753624Y-112403624D01*
X136859886Y-112244592D01*
X136897200Y-112057000D01*
X136897200Y-92801712D01*
X137110399Y-92588885D01*
X137237056Y-92283862D01*
X137237344Y-91953587D01*
X137111220Y-91648344D01*
X136877885Y-91414601D01*
X136572862Y-91287944D01*
X136242587Y-91287656D01*
X135937344Y-91413780D01*
X135703601Y-91647115D01*
X135576944Y-91952138D01*
X135576656Y-92282413D01*
X135702780Y-92587656D01*
X135916800Y-92802050D01*
X135916800Y-111853952D01*
X132503683Y-115267069D01*
X132285519Y-115176479D01*
X131876277Y-115176122D01*
X131498050Y-115332402D01*
X131208419Y-115621528D01*
X131051479Y-115999481D01*
X131051122Y-116408723D01*
X130568522Y-116408723D01*
X130568878Y-116001277D01*
X130412598Y-115623050D01*
X130123472Y-115333419D01*
X129745519Y-115176479D01*
X129336277Y-115176122D01*
X128958050Y-115332402D01*
X128668419Y-115621528D01*
X128511479Y-115999481D01*
X128511122Y-116408723D01*
X125488522Y-116408723D01*
X125488878Y-116001277D01*
X125332598Y-115623050D01*
X125043472Y-115333419D01*
X124665519Y-115176479D01*
X124256277Y-115176122D01*
X123878050Y-115332402D01*
X123588419Y-115621528D01*
X123431479Y-115999481D01*
X123431122Y-116408723D01*
X122948522Y-116408723D01*
X122948878Y-116001277D01*
X122792598Y-115623050D01*
X122503472Y-115333419D01*
X122125519Y-115176479D01*
X121716277Y-115176122D01*
X121338050Y-115332402D01*
X121048419Y-115621528D01*
X120891479Y-115999481D01*
X120891122Y-116408723D01*
X117725200Y-116408723D01*
X117725200Y-113868723D01*
X122161122Y-113868723D01*
X122317402Y-114246950D01*
X122606528Y-114536581D01*
X122984481Y-114693521D01*
X123393723Y-114693878D01*
X123771950Y-114537598D01*
X124061581Y-114248472D01*
X124218521Y-113870519D01*
X124218878Y-113461277D01*
X124062598Y-113083050D01*
X123773472Y-112793419D01*
X123395519Y-112636479D01*
X122986277Y-112636122D01*
X122608050Y-112792402D01*
X122318419Y-113081528D01*
X122161479Y-113459481D01*
X122161122Y-113868723D01*
X117725200Y-113868723D01*
X117725200Y-111595299D01*
X120827611Y-111595299D01*
X120993538Y-111996873D01*
X121300511Y-112304382D01*
X121701795Y-112471010D01*
X122136299Y-112471389D01*
X122537873Y-112305462D01*
X122845382Y-111998489D01*
X123012010Y-111597205D01*
X123012011Y-111595299D01*
X123367611Y-111595299D01*
X123533538Y-111996873D01*
X123840511Y-112304382D01*
X124241795Y-112471010D01*
X124676299Y-112471389D01*
X125077873Y-112305462D01*
X125385382Y-111998489D01*
X125552010Y-111597205D01*
X125552011Y-111595299D01*
X129463611Y-111595299D01*
X129629538Y-111996873D01*
X129936511Y-112304382D01*
X130337795Y-112471010D01*
X130772299Y-112471389D01*
X131173873Y-112305462D01*
X131481382Y-111998489D01*
X131648010Y-111597205D01*
X131648011Y-111595299D01*
X132003611Y-111595299D01*
X132169538Y-111996873D01*
X132476511Y-112304382D01*
X132877795Y-112471010D01*
X133312299Y-112471389D01*
X133713873Y-112305462D01*
X134021382Y-111998489D01*
X134188010Y-111597205D01*
X134188389Y-111162701D01*
X134022462Y-110761127D01*
X133715489Y-110453618D01*
X133314205Y-110286990D01*
X132879701Y-110286611D01*
X132478127Y-110452538D01*
X132170618Y-110759511D01*
X132003990Y-111160795D01*
X132003611Y-111595299D01*
X131648011Y-111595299D01*
X131648389Y-111162701D01*
X131482462Y-110761127D01*
X131175489Y-110453618D01*
X130774205Y-110286990D01*
X130339701Y-110286611D01*
X129938127Y-110452538D01*
X129630618Y-110759511D01*
X129463990Y-111160795D01*
X129463611Y-111595299D01*
X125552011Y-111595299D01*
X125552389Y-111162701D01*
X125386462Y-110761127D01*
X125079489Y-110453618D01*
X124678205Y-110286990D01*
X124243701Y-110286611D01*
X123842127Y-110452538D01*
X123534618Y-110759511D01*
X123367990Y-111160795D01*
X123367611Y-111595299D01*
X123012011Y-111595299D01*
X123012389Y-111162701D01*
X122846462Y-110761127D01*
X122539489Y-110453618D01*
X122138205Y-110286990D01*
X121703701Y-110286611D01*
X121302127Y-110452538D01*
X120994618Y-110759511D01*
X120827990Y-111160795D01*
X120827611Y-111595299D01*
X117725200Y-111595299D01*
X117725200Y-110660000D01*
X117687505Y-110470495D01*
X117580159Y-110309841D01*
X115820200Y-108549882D01*
X115820200Y-96474413D01*
X119359656Y-96474413D01*
X119485780Y-96779656D01*
X119719115Y-97013399D01*
X120024138Y-97140056D01*
X120354413Y-97140344D01*
X120659656Y-97014220D01*
X120893399Y-96780885D01*
X121020056Y-96475862D01*
X121020314Y-96180004D01*
X122025159Y-95175159D01*
X122132505Y-95014505D01*
X122170200Y-94825000D01*
X122170200Y-84662413D01*
X122876656Y-84662413D01*
X123002780Y-84967656D01*
X123236115Y-85201399D01*
X123541138Y-85328056D01*
X123871413Y-85328344D01*
X124176656Y-85202220D01*
X124410399Y-84968885D01*
X124537056Y-84663862D01*
X124537344Y-84333587D01*
X124532926Y-84322895D01*
X125294621Y-83561200D01*
X125502800Y-83561200D01*
X125502800Y-88816000D01*
X125540114Y-89003592D01*
X125646376Y-89162624D01*
X126899800Y-90416047D01*
X126899800Y-91434288D01*
X126686601Y-91647115D01*
X126559944Y-91952138D01*
X126559656Y-92282413D01*
X126685780Y-92587656D01*
X126919115Y-92821399D01*
X127224138Y-92948056D01*
X127554413Y-92948344D01*
X127859656Y-92822220D01*
X128093399Y-92588885D01*
X128220056Y-92283862D01*
X128220344Y-91953587D01*
X128094220Y-91648344D01*
X127880200Y-91433950D01*
X127880200Y-90213000D01*
X127842886Y-90025409D01*
X127736624Y-89866376D01*
X127736621Y-89866374D01*
X126483200Y-88612952D01*
X126483200Y-83561200D01*
X130386922Y-83561200D01*
X130495780Y-83824656D01*
X130729115Y-84058399D01*
X131034138Y-84185056D01*
X131364413Y-84185344D01*
X131669656Y-84059220D01*
X131903399Y-83825885D01*
X132030056Y-83520862D01*
X132030344Y-83190587D01*
X131904220Y-82885344D01*
X131670885Y-82651601D01*
X131365862Y-82524944D01*
X131035587Y-82524656D01*
X130754497Y-82640800D01*
X126143821Y-82640800D01*
X125993000Y-82610800D01*
X125842179Y-82640800D01*
X125104000Y-82640800D01*
X124927889Y-82675831D01*
X124778589Y-82775589D01*
X124778587Y-82775592D01*
X123882311Y-83671868D01*
X123872862Y-83667944D01*
X123542587Y-83667656D01*
X123237344Y-83793780D01*
X123003601Y-84027115D01*
X122876944Y-84332138D01*
X122876656Y-84662413D01*
X122170200Y-84662413D01*
X122170200Y-82925118D01*
X123785118Y-81310200D01*
X127184882Y-81310200D01*
X128182841Y-82308159D01*
X128343495Y-82415505D01*
X128533000Y-82453200D01*
X129428725Y-82453200D01*
X129433715Y-82458199D01*
X129738738Y-82584856D01*
X130069013Y-82585144D01*
X130374256Y-82459020D01*
X130607999Y-82225685D01*
X130734656Y-81920662D01*
X130734944Y-81590387D01*
X130608820Y-81285144D01*
X130375485Y-81051401D01*
X130070462Y-80924744D01*
X129740187Y-80924456D01*
X129434944Y-81050580D01*
X129201201Y-81283915D01*
X129126921Y-81462800D01*
X128738118Y-81462800D01*
X127740159Y-80464841D01*
X127579505Y-80357495D01*
X127390000Y-80319800D01*
X123580000Y-80319800D01*
X123390495Y-80357495D01*
X123229841Y-80464841D01*
X121324841Y-82369841D01*
X121217495Y-82530495D01*
X121179800Y-82720000D01*
X121179800Y-94619882D01*
X120319769Y-95479913D01*
X120025587Y-95479656D01*
X119720344Y-95605780D01*
X119486601Y-95839115D01*
X119359944Y-96144138D01*
X119359656Y-96474413D01*
X115820200Y-96474413D01*
X115820200Y-81374413D01*
X117159656Y-81374413D01*
X117285780Y-81679656D01*
X117494800Y-81889041D01*
X117494800Y-85231279D01*
X117286601Y-85439115D01*
X117159944Y-85744138D01*
X117159656Y-86074413D01*
X117285780Y-86379656D01*
X117519115Y-86613399D01*
X117824138Y-86740056D01*
X118154413Y-86740344D01*
X118459656Y-86614220D01*
X118693399Y-86380885D01*
X118820056Y-86075862D01*
X118820344Y-85745587D01*
X118694220Y-85440344D01*
X118485200Y-85230959D01*
X118485200Y-81888721D01*
X118693399Y-81680885D01*
X118820056Y-81375862D01*
X118820344Y-81045587D01*
X118694220Y-80740344D01*
X118460885Y-80506601D01*
X118155862Y-80379944D01*
X117825587Y-80379656D01*
X117520344Y-80505780D01*
X117286601Y-80739115D01*
X117159944Y-81044138D01*
X117159656Y-81374413D01*
X115820200Y-81374413D01*
X115820200Y-79115118D01*
X118598831Y-76336487D01*
X118893013Y-76336744D01*
X119198256Y-76210620D01*
X119431999Y-75977285D01*
X119558656Y-75672262D01*
X119558944Y-75341987D01*
X119432820Y-75036744D01*
X119199485Y-74803001D01*
X118894462Y-74676344D01*
X118564187Y-74676056D01*
X118258944Y-74802180D01*
X118025201Y-75035515D01*
X117898544Y-75340538D01*
X117898286Y-75636396D01*
X114974841Y-78559841D01*
X114867495Y-78720495D01*
X114829800Y-78910000D01*
X114829800Y-108755000D01*
X114867495Y-108944505D01*
X114974841Y-109105159D01*
X116734800Y-110865118D01*
X116734800Y-123154881D01*
X108134882Y-131754800D01*
X101306516Y-131754800D01*
X101121362Y-131477698D01*
X100767027Y-131240939D01*
X100349060Y-131157800D01*
X99820940Y-131157800D01*
X99402973Y-131240939D01*
X99048638Y-131477698D01*
X98984890Y-131573104D01*
X98852020Y-131336108D01*
X98420914Y-130996578D01*
X98362028Y-130980000D01*
X98420914Y-130963422D01*
X98852020Y-130623892D01*
X98984890Y-130386896D01*
X99048638Y-130482302D01*
X99402973Y-130719061D01*
X99820940Y-130802200D01*
X100349060Y-130802200D01*
X100767027Y-130719061D01*
X101121362Y-130482302D01*
X101358121Y-130127967D01*
X101441260Y-129710000D01*
X101358121Y-129292033D01*
X101121362Y-128937698D01*
X100767027Y-128700939D01*
X100349060Y-128617800D01*
X99820940Y-128617800D01*
X99402973Y-128700939D01*
X99048638Y-128937698D01*
X98984890Y-129033104D01*
X98852020Y-128796108D01*
X98420914Y-128456578D01*
X97892692Y-128307870D01*
X97672000Y-128466723D01*
X97418000Y-128466723D01*
X97197308Y-128307870D01*
X96669086Y-128456578D01*
X96237980Y-128796108D01*
X95969623Y-129274770D01*
X95952780Y-129366930D01*
X91600200Y-129366930D01*
X91600200Y-127170000D01*
X96188740Y-127170000D01*
X96271879Y-127587967D01*
X96508638Y-127942302D01*
X96862973Y-128179061D01*
X97280940Y-128262200D01*
X97809060Y-128262200D01*
X98227027Y-128179061D01*
X98581362Y-127942302D01*
X98815000Y-127592638D01*
X99048638Y-127942302D01*
X99402973Y-128179061D01*
X99820940Y-128262200D01*
X100349060Y-128262200D01*
X100767027Y-128179061D01*
X101121362Y-127942302D01*
X101358121Y-127587967D01*
X101441260Y-127170000D01*
X101358121Y-126752033D01*
X101121362Y-126397698D01*
X100767027Y-126160939D01*
X100349060Y-126077800D01*
X99820940Y-126077800D01*
X99402973Y-126160939D01*
X99048638Y-126397698D01*
X98815000Y-126747362D01*
X98581362Y-126397698D01*
X98227027Y-126160939D01*
X97809060Y-126077800D01*
X97280940Y-126077800D01*
X96862973Y-126160939D01*
X96508638Y-126397698D01*
X96271879Y-126752033D01*
X96188740Y-127170000D01*
X91600200Y-127170000D01*
X91600200Y-124630000D01*
X96188740Y-124630000D01*
X96271879Y-125047967D01*
X96508638Y-125402302D01*
X96862973Y-125639061D01*
X97280940Y-125722200D01*
X97809060Y-125722200D01*
X98227027Y-125639061D01*
X98581362Y-125402302D01*
X98815000Y-125052638D01*
X99048638Y-125402302D01*
X99402973Y-125639061D01*
X99820940Y-125722200D01*
X100349060Y-125722200D01*
X100767027Y-125639061D01*
X101121362Y-125402302D01*
X101358121Y-125047967D01*
X101441260Y-124630000D01*
X101358121Y-124212033D01*
X101121362Y-123857698D01*
X100767027Y-123620939D01*
X100349060Y-123537800D01*
X99820940Y-123537800D01*
X99402973Y-123620939D01*
X99048638Y-123857698D01*
X98815000Y-124207362D01*
X98581362Y-123857698D01*
X98227027Y-123620939D01*
X97809060Y-123537800D01*
X97280940Y-123537800D01*
X96862973Y-123620939D01*
X96508638Y-123857698D01*
X96271879Y-124212033D01*
X96188740Y-124630000D01*
X91600200Y-124630000D01*
X91600200Y-122090000D01*
X96188740Y-122090000D01*
X96271879Y-122507967D01*
X96508638Y-122862302D01*
X96862973Y-123099061D01*
X97280940Y-123182200D01*
X97809060Y-123182200D01*
X98227027Y-123099061D01*
X98581362Y-122862302D01*
X98815000Y-122512638D01*
X99048638Y-122862302D01*
X99402973Y-123099061D01*
X99820940Y-123182200D01*
X100349060Y-123182200D01*
X100767027Y-123099061D01*
X101121362Y-122862302D01*
X101358121Y-122507967D01*
X101441260Y-122090000D01*
X101358121Y-121672033D01*
X101121362Y-121317698D01*
X100767027Y-121080939D01*
X100349060Y-120997800D01*
X99820940Y-120997800D01*
X99402973Y-121080939D01*
X99048638Y-121317698D01*
X98815000Y-121667362D01*
X98581362Y-121317698D01*
X98227027Y-121080939D01*
X97809060Y-120997800D01*
X97280940Y-120997800D01*
X96862973Y-121080939D01*
X96508638Y-121317698D01*
X96271879Y-121672033D01*
X96188740Y-122090000D01*
X91600200Y-122090000D01*
X91600200Y-119550000D01*
X96188740Y-119550000D01*
X96271879Y-119967967D01*
X96508638Y-120322302D01*
X96862973Y-120559061D01*
X97280940Y-120642200D01*
X97809060Y-120642200D01*
X98227027Y-120559061D01*
X98581362Y-120322302D01*
X98815000Y-119972638D01*
X99048638Y-120322302D01*
X99402973Y-120559061D01*
X99820940Y-120642200D01*
X100349060Y-120642200D01*
X100767027Y-120559061D01*
X100866127Y-120492844D01*
X111264504Y-120492844D01*
X111436219Y-120908427D01*
X111753900Y-121226663D01*
X112169183Y-121399103D01*
X112618844Y-121399496D01*
X113034427Y-121227781D01*
X113352663Y-120910100D01*
X113525103Y-120494817D01*
X113525496Y-120045156D01*
X113353781Y-119629573D01*
X113193389Y-119468900D01*
X113798231Y-119468900D01*
X113798231Y-121069100D01*
X113821256Y-121191465D01*
X113893573Y-121303849D01*
X114003917Y-121379244D01*
X114134900Y-121405769D01*
X115735100Y-121405769D01*
X115857465Y-121382744D01*
X115969849Y-121310427D01*
X116045244Y-121200083D01*
X116071769Y-121069100D01*
X116071769Y-119468900D01*
X116048744Y-119346535D01*
X115976427Y-119234151D01*
X115866083Y-119158756D01*
X115735100Y-119132231D01*
X114134900Y-119132231D01*
X114012535Y-119155256D01*
X113900151Y-119227573D01*
X113824756Y-119337917D01*
X113798231Y-119468900D01*
X113193389Y-119468900D01*
X113036100Y-119311337D01*
X112620817Y-119138897D01*
X112171156Y-119138504D01*
X111755573Y-119310219D01*
X111437337Y-119627900D01*
X111264897Y-120043183D01*
X111264504Y-120492844D01*
X100866127Y-120492844D01*
X101121362Y-120322302D01*
X101358121Y-119967967D01*
X101441260Y-119550000D01*
X101358121Y-119132033D01*
X101121362Y-118777698D01*
X100767027Y-118540939D01*
X100349060Y-118457800D01*
X99820940Y-118457800D01*
X99402973Y-118540939D01*
X99048638Y-118777698D01*
X98815000Y-119127362D01*
X98581362Y-118777698D01*
X98227027Y-118540939D01*
X97809060Y-118457800D01*
X97280940Y-118457800D01*
X96862973Y-118540939D01*
X96508638Y-118777698D01*
X96271879Y-119132033D01*
X96188740Y-119550000D01*
X91600200Y-119550000D01*
X91600200Y-117353070D01*
X95952780Y-117353070D01*
X95969623Y-117445230D01*
X96237980Y-117923892D01*
X96669086Y-118263422D01*
X97197308Y-118412130D01*
X97418000Y-118253277D01*
X97418000Y-117137000D01*
X96075280Y-117137000D01*
X95952780Y-117353070D01*
X91600200Y-117353070D01*
X91600200Y-114813070D01*
X95952780Y-114813070D01*
X95969623Y-114905230D01*
X96237980Y-115383892D01*
X96669086Y-115723422D01*
X96727972Y-115740000D01*
X96669086Y-115756578D01*
X96237980Y-116096108D01*
X95969623Y-116574770D01*
X95952780Y-116666930D01*
X96075280Y-116883000D01*
X97418000Y-116883000D01*
X97418000Y-115766723D01*
X97380874Y-115740000D01*
X97418000Y-115713277D01*
X97418000Y-114597000D01*
X96075280Y-114597000D01*
X95952780Y-114813070D01*
X91600200Y-114813070D01*
X91600200Y-114126930D01*
X95952780Y-114126930D01*
X96075280Y-114343000D01*
X97418000Y-114343000D01*
X97418000Y-113226723D01*
X97672000Y-113226723D01*
X97672000Y-114343000D01*
X97692000Y-114343000D01*
X97692000Y-114597000D01*
X97672000Y-114597000D01*
X97672000Y-115713277D01*
X97709126Y-115740000D01*
X97672000Y-115766723D01*
X97672000Y-116883000D01*
X97692000Y-116883000D01*
X97692000Y-117137000D01*
X97672000Y-117137000D01*
X97672000Y-118253277D01*
X97892692Y-118412130D01*
X98420914Y-118263422D01*
X98852020Y-117923892D01*
X98984890Y-117686896D01*
X99048638Y-117782302D01*
X99402973Y-118019061D01*
X99820940Y-118102200D01*
X100349060Y-118102200D01*
X100767027Y-118019061D01*
X100866127Y-117952844D01*
X111264504Y-117952844D01*
X111436219Y-118368427D01*
X111753900Y-118686663D01*
X112169183Y-118859103D01*
X112618844Y-118859496D01*
X113034427Y-118687781D01*
X113352663Y-118370100D01*
X113525103Y-117954817D01*
X113525104Y-117952844D01*
X113804504Y-117952844D01*
X113976219Y-118368427D01*
X114293900Y-118686663D01*
X114709183Y-118859103D01*
X115158844Y-118859496D01*
X115574427Y-118687781D01*
X115892663Y-118370100D01*
X116065103Y-117954817D01*
X116065496Y-117505156D01*
X115893781Y-117089573D01*
X115576100Y-116771337D01*
X115195527Y-116613310D01*
X115288470Y-116608879D01*
X115689065Y-116442947D01*
X115763212Y-116196817D01*
X114935000Y-115368605D01*
X114106788Y-116196817D01*
X114180935Y-116442947D01*
X114665820Y-116617236D01*
X114295573Y-116770219D01*
X113977337Y-117087900D01*
X113804897Y-117503183D01*
X113804504Y-117952844D01*
X113525104Y-117952844D01*
X113525496Y-117505156D01*
X113353781Y-117089573D01*
X113036100Y-116771337D01*
X112620817Y-116598897D01*
X112171156Y-116598504D01*
X111755573Y-116770219D01*
X111437337Y-117087900D01*
X111264897Y-117503183D01*
X111264504Y-117952844D01*
X100866127Y-117952844D01*
X101121362Y-117782302D01*
X101358121Y-117427967D01*
X101441260Y-117010000D01*
X101358121Y-116592033D01*
X101121362Y-116237698D01*
X100767027Y-116000939D01*
X100349060Y-115917800D01*
X99820940Y-115917800D01*
X99402973Y-116000939D01*
X99048638Y-116237698D01*
X98984890Y-116333104D01*
X98852020Y-116096108D01*
X98420914Y-115756578D01*
X98362028Y-115740000D01*
X98420914Y-115723422D01*
X98852020Y-115383892D01*
X98984890Y-115146896D01*
X99048638Y-115242302D01*
X99402973Y-115479061D01*
X99820940Y-115562200D01*
X100349060Y-115562200D01*
X100767027Y-115479061D01*
X100866127Y-115412844D01*
X111264504Y-115412844D01*
X111436219Y-115828427D01*
X111753900Y-116146663D01*
X112169183Y-116319103D01*
X112618844Y-116319496D01*
X113034427Y-116147781D01*
X113352663Y-115830100D01*
X113510690Y-115449527D01*
X113515121Y-115542470D01*
X113681053Y-115943065D01*
X113927183Y-116017212D01*
X114755395Y-115189000D01*
X115114605Y-115189000D01*
X115942817Y-116017212D01*
X116188947Y-115943065D01*
X116382064Y-115405800D01*
X116354879Y-114835530D01*
X116188947Y-114434935D01*
X115942817Y-114360788D01*
X115114605Y-115189000D01*
X114755395Y-115189000D01*
X113927183Y-114360788D01*
X113681053Y-114434935D01*
X113506764Y-114919820D01*
X113353781Y-114549573D01*
X113036100Y-114231337D01*
X112620817Y-114058897D01*
X112171156Y-114058504D01*
X111755573Y-114230219D01*
X111437337Y-114547900D01*
X111264897Y-114963183D01*
X111264504Y-115412844D01*
X100866127Y-115412844D01*
X101121362Y-115242302D01*
X101358121Y-114887967D01*
X101441260Y-114470000D01*
X101358121Y-114052033D01*
X101121362Y-113697698D01*
X100767027Y-113460939D01*
X100349060Y-113377800D01*
X99820940Y-113377800D01*
X99402973Y-113460939D01*
X99048638Y-113697698D01*
X98984890Y-113793104D01*
X98852020Y-113556108D01*
X98420914Y-113216578D01*
X97892692Y-113067870D01*
X97672000Y-113226723D01*
X97418000Y-113226723D01*
X97197308Y-113067870D01*
X96669086Y-113216578D01*
X96237980Y-113556108D01*
X95969623Y-114034770D01*
X95952780Y-114126930D01*
X91600200Y-114126930D01*
X91600200Y-111930000D01*
X96188740Y-111930000D01*
X96271879Y-112347967D01*
X96508638Y-112702302D01*
X96862973Y-112939061D01*
X97280940Y-113022200D01*
X97809060Y-113022200D01*
X98227027Y-112939061D01*
X98581362Y-112702302D01*
X98815000Y-112352638D01*
X99048638Y-112702302D01*
X99402973Y-112939061D01*
X99820940Y-113022200D01*
X100349060Y-113022200D01*
X100767027Y-112939061D01*
X101121362Y-112702302D01*
X101358121Y-112347967D01*
X101441260Y-111930000D01*
X101358121Y-111512033D01*
X101121362Y-111157698D01*
X100767027Y-110920939D01*
X100349060Y-110837800D01*
X99820940Y-110837800D01*
X99402973Y-110920939D01*
X99048638Y-111157698D01*
X98815000Y-111507362D01*
X98581362Y-111157698D01*
X98227027Y-110920939D01*
X97809060Y-110837800D01*
X97280940Y-110837800D01*
X96862973Y-110920939D01*
X96508638Y-111157698D01*
X96271879Y-111512033D01*
X96188740Y-111930000D01*
X91600200Y-111930000D01*
X91600200Y-86530000D01*
X92604800Y-86530000D01*
X92604800Y-106215000D01*
X92642495Y-106404505D01*
X92749841Y-106565159D01*
X94654841Y-108470159D01*
X94815495Y-108577505D01*
X95005000Y-108615200D01*
X96512377Y-108615200D01*
X96508638Y-108617698D01*
X96271879Y-108972033D01*
X96188740Y-109390000D01*
X96271879Y-109807967D01*
X96508638Y-110162302D01*
X96862973Y-110399061D01*
X97280940Y-110482200D01*
X97809060Y-110482200D01*
X98227027Y-110399061D01*
X98581362Y-110162302D01*
X98815000Y-109812638D01*
X99048638Y-110162302D01*
X99402973Y-110399061D01*
X99820940Y-110482200D01*
X100349060Y-110482200D01*
X100767027Y-110399061D01*
X101121362Y-110162302D01*
X101358121Y-109807967D01*
X101441260Y-109390000D01*
X101358121Y-108972033D01*
X101121362Y-108617698D01*
X101117623Y-108615200D01*
X103054882Y-108615200D01*
X107438841Y-112999159D01*
X107599495Y-113106505D01*
X107789000Y-113144200D01*
X111376626Y-113144200D01*
X111436219Y-113288427D01*
X111753900Y-113606663D01*
X112169183Y-113779103D01*
X112618844Y-113779496D01*
X112915750Y-113656817D01*
X114106788Y-113656817D01*
X114180935Y-113902947D01*
X114222434Y-113917864D01*
X114180935Y-113935053D01*
X114106788Y-114181183D01*
X114935000Y-115009395D01*
X115763212Y-114181183D01*
X115689065Y-113935053D01*
X115647566Y-113920136D01*
X115689065Y-113902947D01*
X115763212Y-113656817D01*
X114935000Y-112828605D01*
X114106788Y-113656817D01*
X112915750Y-113656817D01*
X113034427Y-113607781D01*
X113352663Y-113290100D01*
X113510690Y-112909527D01*
X113515121Y-113002470D01*
X113681053Y-113403065D01*
X113927183Y-113477212D01*
X114755395Y-112649000D01*
X115114605Y-112649000D01*
X115942817Y-113477212D01*
X116188947Y-113403065D01*
X116382064Y-112865800D01*
X116354879Y-112295530D01*
X116188947Y-111894935D01*
X115942817Y-111820788D01*
X115114605Y-112649000D01*
X114755395Y-112649000D01*
X113927183Y-111820788D01*
X113681053Y-111894935D01*
X113506764Y-112379820D01*
X113353781Y-112009573D01*
X113036100Y-111691337D01*
X112915316Y-111641183D01*
X114106788Y-111641183D01*
X114935000Y-112469395D01*
X115763212Y-111641183D01*
X115689065Y-111395053D01*
X115151800Y-111201936D01*
X114581530Y-111229121D01*
X114180935Y-111395053D01*
X114106788Y-111641183D01*
X112915316Y-111641183D01*
X112620817Y-111518897D01*
X112171156Y-111518504D01*
X111755573Y-111690219D01*
X111437337Y-112007900D01*
X111376754Y-112153800D01*
X107994118Y-112153800D01*
X103610159Y-107769841D01*
X103449505Y-107662495D01*
X103260000Y-107624800D01*
X101117623Y-107624800D01*
X101121362Y-107622302D01*
X101358121Y-107267967D01*
X101441260Y-106850000D01*
X101358121Y-106432033D01*
X101121362Y-106077698D01*
X100767027Y-105840939D01*
X100349060Y-105757800D01*
X99820940Y-105757800D01*
X99402973Y-105840939D01*
X99048638Y-106077698D01*
X98984890Y-106173104D01*
X98852020Y-105936108D01*
X98420914Y-105596578D01*
X98362028Y-105580000D01*
X98420914Y-105563422D01*
X98852020Y-105223892D01*
X98984890Y-104986896D01*
X99048638Y-105082302D01*
X99402973Y-105319061D01*
X99820940Y-105402200D01*
X100349060Y-105402200D01*
X100767027Y-105319061D01*
X101121362Y-105082302D01*
X101358121Y-104727967D01*
X101441260Y-104310000D01*
X101358121Y-103892033D01*
X101121362Y-103537698D01*
X100767027Y-103300939D01*
X100349060Y-103217800D01*
X99820940Y-103217800D01*
X99402973Y-103300939D01*
X99048638Y-103537698D01*
X98984890Y-103633104D01*
X98852020Y-103396108D01*
X98420914Y-103056578D01*
X97892692Y-102907870D01*
X97672000Y-103066723D01*
X97672000Y-104183000D01*
X97692000Y-104183000D01*
X97692000Y-104437000D01*
X97672000Y-104437000D01*
X97672000Y-105553277D01*
X97709126Y-105580000D01*
X97672000Y-105606723D01*
X97672000Y-106723000D01*
X97692000Y-106723000D01*
X97692000Y-106977000D01*
X97672000Y-106977000D01*
X97672000Y-106997000D01*
X97418000Y-106997000D01*
X97418000Y-106977000D01*
X96075280Y-106977000D01*
X95952780Y-107193070D01*
X95969623Y-107285230D01*
X96159999Y-107624800D01*
X95210118Y-107624800D01*
X93595200Y-106009882D01*
X93595200Y-104653070D01*
X95952780Y-104653070D01*
X95969623Y-104745230D01*
X96237980Y-105223892D01*
X96669086Y-105563422D01*
X96727972Y-105580000D01*
X96669086Y-105596578D01*
X96237980Y-105936108D01*
X95969623Y-106414770D01*
X95952780Y-106506930D01*
X96075280Y-106723000D01*
X97418000Y-106723000D01*
X97418000Y-105606723D01*
X97380874Y-105580000D01*
X97418000Y-105553277D01*
X97418000Y-104437000D01*
X96075280Y-104437000D01*
X95952780Y-104653070D01*
X93595200Y-104653070D01*
X93595200Y-103966930D01*
X95952780Y-103966930D01*
X96075280Y-104183000D01*
X97418000Y-104183000D01*
X97418000Y-103066723D01*
X97197308Y-102907870D01*
X96669086Y-103056578D01*
X96237980Y-103396108D01*
X95969623Y-103874770D01*
X95952780Y-103966930D01*
X93595200Y-103966930D01*
X93595200Y-101770000D01*
X96188740Y-101770000D01*
X96271879Y-102187967D01*
X96508638Y-102542302D01*
X96862973Y-102779061D01*
X97280940Y-102862200D01*
X97809060Y-102862200D01*
X98227027Y-102779061D01*
X98581362Y-102542302D01*
X98815000Y-102192638D01*
X99048638Y-102542302D01*
X99402973Y-102779061D01*
X99820940Y-102862200D01*
X100349060Y-102862200D01*
X100767027Y-102779061D01*
X101121362Y-102542302D01*
X101358121Y-102187967D01*
X101441260Y-101770000D01*
X101358121Y-101352033D01*
X101121362Y-100997698D01*
X100767027Y-100760939D01*
X100349060Y-100677800D01*
X99820940Y-100677800D01*
X99402973Y-100760939D01*
X99048638Y-100997698D01*
X98815000Y-101347362D01*
X98581362Y-100997698D01*
X98227027Y-100760939D01*
X97809060Y-100677800D01*
X97280940Y-100677800D01*
X96862973Y-100760939D01*
X96508638Y-100997698D01*
X96271879Y-101352033D01*
X96188740Y-101770000D01*
X93595200Y-101770000D01*
X93595200Y-99573070D01*
X95952780Y-99573070D01*
X95969623Y-99665230D01*
X96237980Y-100143892D01*
X96669086Y-100483422D01*
X97197308Y-100632130D01*
X97418000Y-100473277D01*
X97418000Y-99357000D01*
X96075280Y-99357000D01*
X95952780Y-99573070D01*
X93595200Y-99573070D01*
X93595200Y-97033070D01*
X95952780Y-97033070D01*
X95969623Y-97125230D01*
X96237980Y-97603892D01*
X96669086Y-97943422D01*
X96727972Y-97960000D01*
X96669086Y-97976578D01*
X96237980Y-98316108D01*
X95969623Y-98794770D01*
X95952780Y-98886930D01*
X96075280Y-99103000D01*
X97418000Y-99103000D01*
X97418000Y-97986723D01*
X97380874Y-97960000D01*
X97418000Y-97933277D01*
X97418000Y-96817000D01*
X96075280Y-96817000D01*
X95952780Y-97033070D01*
X93595200Y-97033070D01*
X93595200Y-96346930D01*
X95952780Y-96346930D01*
X96075280Y-96563000D01*
X97418000Y-96563000D01*
X97418000Y-95446723D01*
X97672000Y-95446723D01*
X97672000Y-96563000D01*
X97692000Y-96563000D01*
X97692000Y-96817000D01*
X97672000Y-96817000D01*
X97672000Y-97933277D01*
X97709126Y-97960000D01*
X97672000Y-97986723D01*
X97672000Y-99103000D01*
X97692000Y-99103000D01*
X97692000Y-99357000D01*
X97672000Y-99357000D01*
X97672000Y-100473277D01*
X97892692Y-100632130D01*
X98420914Y-100483422D01*
X98852020Y-100143892D01*
X98984890Y-99906896D01*
X99048638Y-100002302D01*
X99402973Y-100239061D01*
X99820940Y-100322200D01*
X100349060Y-100322200D01*
X100767027Y-100239061D01*
X101121362Y-100002302D01*
X101358121Y-99647967D01*
X101441260Y-99230000D01*
X101358121Y-98812033D01*
X101121362Y-98457698D01*
X100767027Y-98220939D01*
X100349060Y-98137800D01*
X99820940Y-98137800D01*
X99402973Y-98220939D01*
X99048638Y-98457698D01*
X98984890Y-98553104D01*
X98852020Y-98316108D01*
X98420914Y-97976578D01*
X98362028Y-97960000D01*
X98420914Y-97943422D01*
X98852020Y-97603892D01*
X98984890Y-97366896D01*
X99048638Y-97462302D01*
X99402973Y-97699061D01*
X99820940Y-97782200D01*
X100349060Y-97782200D01*
X100767027Y-97699061D01*
X101121362Y-97462302D01*
X101358121Y-97107967D01*
X101441260Y-96690000D01*
X101358121Y-96272033D01*
X101121362Y-95917698D01*
X100767027Y-95680939D01*
X100349060Y-95597800D01*
X99820940Y-95597800D01*
X99402973Y-95680939D01*
X99048638Y-95917698D01*
X98984890Y-96013104D01*
X98852020Y-95776108D01*
X98420914Y-95436578D01*
X97892692Y-95287870D01*
X97672000Y-95446723D01*
X97418000Y-95446723D01*
X97197308Y-95287870D01*
X96669086Y-95436578D01*
X96237980Y-95776108D01*
X95969623Y-96254770D01*
X95952780Y-96346930D01*
X93595200Y-96346930D01*
X93595200Y-94150000D01*
X96188740Y-94150000D01*
X96271879Y-94567967D01*
X96508638Y-94922302D01*
X96862973Y-95159061D01*
X97280940Y-95242200D01*
X97809060Y-95242200D01*
X98227027Y-95159061D01*
X98581362Y-94922302D01*
X98815000Y-94572638D01*
X99048638Y-94922302D01*
X99402973Y-95159061D01*
X99820940Y-95242200D01*
X100349060Y-95242200D01*
X100767027Y-95159061D01*
X101121362Y-94922302D01*
X101306516Y-94645200D01*
X107705000Y-94645200D01*
X107894505Y-94607505D01*
X108055159Y-94500159D01*
X111992159Y-90563159D01*
X112031412Y-90504413D01*
X112099505Y-90402505D01*
X112137200Y-90213000D01*
X112137200Y-75813118D01*
X113625118Y-74325200D01*
X121723882Y-74325200D01*
X122322800Y-74924118D01*
X122322800Y-75818279D01*
X122114601Y-76026115D01*
X121987944Y-76331138D01*
X121987656Y-76661413D01*
X122113780Y-76966656D01*
X122347115Y-77200399D01*
X122652138Y-77327056D01*
X122982413Y-77327344D01*
X123287656Y-77201220D01*
X123521399Y-76967885D01*
X123648056Y-76662862D01*
X123648344Y-76332587D01*
X123522220Y-76027344D01*
X123313200Y-75817959D01*
X123313200Y-74719000D01*
X123275505Y-74529495D01*
X123168159Y-74368841D01*
X122279159Y-73479841D01*
X122118505Y-73372495D01*
X121929000Y-73334800D01*
X113420000Y-73334800D01*
X113230495Y-73372495D01*
X113069841Y-73479841D01*
X111291841Y-75257841D01*
X111184495Y-75418495D01*
X111146800Y-75608000D01*
X111146800Y-90007882D01*
X107499882Y-93654800D01*
X101306516Y-93654800D01*
X101121362Y-93377698D01*
X100767027Y-93140939D01*
X100349060Y-93057800D01*
X99820940Y-93057800D01*
X99402973Y-93140939D01*
X99048638Y-93377698D01*
X98815000Y-93727362D01*
X98581362Y-93377698D01*
X98227027Y-93140939D01*
X97809060Y-93057800D01*
X97280940Y-93057800D01*
X96862973Y-93140939D01*
X96508638Y-93377698D01*
X96271879Y-93732033D01*
X96188740Y-94150000D01*
X93595200Y-94150000D01*
X93595200Y-91953070D01*
X95952780Y-91953070D01*
X95969623Y-92045230D01*
X96237980Y-92523892D01*
X96669086Y-92863422D01*
X97197308Y-93012130D01*
X97418000Y-92853277D01*
X97418000Y-91737000D01*
X96075280Y-91737000D01*
X95952780Y-91953070D01*
X93595200Y-91953070D01*
X93595200Y-89413070D01*
X95952780Y-89413070D01*
X95969623Y-89505230D01*
X96237980Y-89983892D01*
X96669086Y-90323422D01*
X96727972Y-90340000D01*
X96669086Y-90356578D01*
X96237980Y-90696108D01*
X95969623Y-91174770D01*
X95952780Y-91266930D01*
X96075280Y-91483000D01*
X97418000Y-91483000D01*
X97418000Y-90366723D01*
X97380874Y-90340000D01*
X97418000Y-90313277D01*
X97418000Y-89197000D01*
X96075280Y-89197000D01*
X95952780Y-89413070D01*
X93595200Y-89413070D01*
X93595200Y-86873070D01*
X95952780Y-86873070D01*
X95969623Y-86965230D01*
X96237980Y-87443892D01*
X96669086Y-87783422D01*
X96727972Y-87800000D01*
X96669086Y-87816578D01*
X96237980Y-88156108D01*
X95969623Y-88634770D01*
X95952780Y-88726930D01*
X96075280Y-88943000D01*
X97418000Y-88943000D01*
X97418000Y-87826723D01*
X97380874Y-87800000D01*
X97418000Y-87773277D01*
X97418000Y-86657000D01*
X96075280Y-86657000D01*
X95952780Y-86873070D01*
X93595200Y-86873070D01*
X93595200Y-86735118D01*
X94575118Y-85755200D01*
X96159999Y-85755200D01*
X95969623Y-86094770D01*
X95952780Y-86186930D01*
X96075280Y-86403000D01*
X97418000Y-86403000D01*
X97418000Y-86383000D01*
X97672000Y-86383000D01*
X97672000Y-86403000D01*
X97692000Y-86403000D01*
X97692000Y-86657000D01*
X97672000Y-86657000D01*
X97672000Y-87773277D01*
X97709126Y-87800000D01*
X97672000Y-87826723D01*
X97672000Y-88943000D01*
X97692000Y-88943000D01*
X97692000Y-89197000D01*
X97672000Y-89197000D01*
X97672000Y-90313277D01*
X97709126Y-90340000D01*
X97672000Y-90366723D01*
X97672000Y-91483000D01*
X97692000Y-91483000D01*
X97692000Y-91737000D01*
X97672000Y-91737000D01*
X97672000Y-92853277D01*
X97892692Y-93012130D01*
X98420914Y-92863422D01*
X98852020Y-92523892D01*
X98984890Y-92286896D01*
X99048638Y-92382302D01*
X99402973Y-92619061D01*
X99820940Y-92702200D01*
X100349060Y-92702200D01*
X100767027Y-92619061D01*
X101121362Y-92382302D01*
X101306516Y-92105200D01*
X106435000Y-92105200D01*
X106624505Y-92067505D01*
X106785159Y-91960159D01*
X107575231Y-91170087D01*
X107869413Y-91170344D01*
X108174656Y-91044220D01*
X108408399Y-90810885D01*
X108535056Y-90505862D01*
X108535344Y-90175587D01*
X108409220Y-89870344D01*
X108175885Y-89636601D01*
X107870862Y-89509944D01*
X107540587Y-89509656D01*
X107235344Y-89635780D01*
X107001601Y-89869115D01*
X106874944Y-90174138D01*
X106874686Y-90469996D01*
X106229882Y-91114800D01*
X101306516Y-91114800D01*
X101121362Y-90837698D01*
X100767027Y-90600939D01*
X100349060Y-90517800D01*
X99820940Y-90517800D01*
X99402973Y-90600939D01*
X99048638Y-90837698D01*
X98984890Y-90933104D01*
X98852020Y-90696108D01*
X98420914Y-90356578D01*
X98362028Y-90340000D01*
X98420914Y-90323422D01*
X98852020Y-89983892D01*
X98984890Y-89746896D01*
X99048638Y-89842302D01*
X99402973Y-90079061D01*
X99820940Y-90162200D01*
X100349060Y-90162200D01*
X100767027Y-90079061D01*
X101121362Y-89842302D01*
X101306516Y-89565200D01*
X106689000Y-89565200D01*
X106878505Y-89527505D01*
X107039159Y-89420159D01*
X109325159Y-87134159D01*
X109432505Y-86973505D01*
X109437585Y-86947967D01*
X109470200Y-86784000D01*
X109470200Y-85558840D01*
X109540780Y-85729656D01*
X109774115Y-85963399D01*
X110079138Y-86090056D01*
X110409413Y-86090344D01*
X110714656Y-85964220D01*
X110948399Y-85730885D01*
X111075056Y-85425862D01*
X111075344Y-85095587D01*
X110949220Y-84790344D01*
X110740200Y-84580959D01*
X110740200Y-74035118D01*
X112672619Y-72102700D01*
X123692382Y-72102700D01*
X124989800Y-73400118D01*
X124989800Y-75529881D01*
X123074769Y-77444913D01*
X122780587Y-77444656D01*
X122475344Y-77570780D01*
X122241601Y-77804115D01*
X122114944Y-78109138D01*
X122114656Y-78439413D01*
X122240780Y-78744656D01*
X122474115Y-78978399D01*
X122779138Y-79105056D01*
X123109413Y-79105344D01*
X123414656Y-78979220D01*
X123648399Y-78745885D01*
X123775056Y-78440862D01*
X123775314Y-78145004D01*
X125835159Y-76085160D01*
X125942505Y-75924505D01*
X125980200Y-75735000D01*
X125980200Y-73195000D01*
X125942505Y-73005495D01*
X125835159Y-72844841D01*
X124247659Y-71257341D01*
X124087005Y-71149995D01*
X123897500Y-71112300D01*
X112467500Y-71112300D01*
X112277995Y-71149995D01*
X112213646Y-71192991D01*
X112117341Y-71257340D01*
X109894841Y-73479841D01*
X109787495Y-73640495D01*
X109749800Y-73830000D01*
X109749800Y-82873592D01*
X109521862Y-82778944D01*
X109191587Y-82778656D01*
X108886344Y-82904780D01*
X108652601Y-83138115D01*
X108525944Y-83443138D01*
X108525656Y-83773413D01*
X108529452Y-83782600D01*
X108517495Y-83800495D01*
X108479800Y-83990000D01*
X108479800Y-86578882D01*
X106483882Y-88574800D01*
X101306516Y-88574800D01*
X101121362Y-88297698D01*
X100767027Y-88060939D01*
X100349060Y-87977800D01*
X99820940Y-87977800D01*
X99402973Y-88060939D01*
X99048638Y-88297698D01*
X98984890Y-88393104D01*
X98852020Y-88156108D01*
X98420914Y-87816578D01*
X98362028Y-87800000D01*
X98420914Y-87783422D01*
X98852020Y-87443892D01*
X98984890Y-87206896D01*
X99048638Y-87302302D01*
X99402973Y-87539061D01*
X99820940Y-87622200D01*
X100349060Y-87622200D01*
X100767027Y-87539061D01*
X101121362Y-87302302D01*
X101358121Y-86947967D01*
X101441260Y-86530000D01*
X101358121Y-86112033D01*
X101121362Y-85757698D01*
X100767027Y-85520939D01*
X100349060Y-85437800D01*
X99820940Y-85437800D01*
X99402973Y-85520939D01*
X99048638Y-85757698D01*
X98984890Y-85853104D01*
X98918463Y-85734620D01*
X99004505Y-85717505D01*
X99165159Y-85610159D01*
X99714325Y-85060993D01*
X99820940Y-85082200D01*
X100349060Y-85082200D01*
X100767027Y-84999061D01*
X101121362Y-84762302D01*
X101358121Y-84407967D01*
X101441260Y-83990000D01*
X101358121Y-83572033D01*
X101121362Y-83217698D01*
X100767027Y-82980939D01*
X100349060Y-82897800D01*
X99820940Y-82897800D01*
X99402973Y-82980939D01*
X99048638Y-83217698D01*
X98881669Y-83467585D01*
X98881669Y-83228000D01*
X98858644Y-83105635D01*
X98786327Y-82993251D01*
X98675983Y-82917856D01*
X98545000Y-82891331D01*
X98454987Y-82891331D01*
X99292159Y-82054160D01*
X99292161Y-82054157D01*
X99546158Y-81800160D01*
X99655119Y-81691200D01*
X105546000Y-81691200D01*
X105735505Y-81653505D01*
X105896159Y-81546159D01*
X108591120Y-78851198D01*
X108758413Y-78851344D01*
X109063656Y-78725220D01*
X109297399Y-78491885D01*
X109424056Y-78186862D01*
X109424344Y-77856587D01*
X109298220Y-77551344D01*
X109064885Y-77317601D01*
X108759862Y-77190944D01*
X108429587Y-77190656D01*
X108124344Y-77316780D01*
X107890601Y-77550115D01*
X107763944Y-77855138D01*
X107763656Y-78185413D01*
X107790734Y-78250948D01*
X105340882Y-80700800D01*
X100645518Y-80700800D01*
X101832159Y-79514160D01*
X101832161Y-79514157D01*
X105613159Y-75733159D01*
X110831119Y-70515200D01*
X126556952Y-70515200D01*
X126835104Y-70793352D01*
X126849341Y-70814659D01*
X127529800Y-71495118D01*
X127529800Y-75606081D01*
X126630769Y-76505113D01*
X126336587Y-76504856D01*
X126031344Y-76630980D01*
X125797601Y-76864315D01*
X125670944Y-77169338D01*
X125670656Y-77499613D01*
X125796780Y-77804856D01*
X126030115Y-78038599D01*
X126335138Y-78165256D01*
X126665413Y-78165544D01*
X126970656Y-78039420D01*
X127204399Y-77806085D01*
X127331056Y-77501062D01*
X127331314Y-77205204D01*
X128375159Y-76161360D01*
X128482505Y-76000705D01*
X128520199Y-75811200D01*
X128512621Y-75773102D01*
X128520200Y-75735000D01*
X128520200Y-71785200D01*
X132714882Y-71785200D01*
X137689800Y-76760119D01*
X137689800Y-80517279D01*
X137481601Y-80725115D01*
X137354944Y-81030138D01*
X137354656Y-81360413D01*
X137418867Y-81515814D01*
X135774769Y-83159913D01*
X135480587Y-83159656D01*
X135175344Y-83285780D01*
X134941601Y-83519115D01*
X134814944Y-83824138D01*
X134814656Y-84154413D01*
X134940780Y-84459656D01*
X135174115Y-84693399D01*
X135479138Y-84820056D01*
X135809413Y-84820344D01*
X136114656Y-84694220D01*
X136348399Y-84460885D01*
X136475056Y-84155862D01*
X136475314Y-83860004D01*
X138309010Y-82026309D01*
X138349413Y-82026344D01*
X138654656Y-81900220D01*
X138888399Y-81666885D01*
X139015056Y-81361862D01*
X139015344Y-81031587D01*
X138889220Y-80726344D01*
X138680200Y-80516959D01*
X138680200Y-76555000D01*
X138642505Y-76365495D01*
X138623102Y-76336456D01*
X138535159Y-76204840D01*
X136759701Y-74429382D01*
X138950223Y-74429382D01*
X139195368Y-74820888D01*
X140239360Y-75247609D01*
X141367181Y-75242330D01*
X142384632Y-74820888D01*
X142629777Y-74429382D01*
X140790000Y-72589605D01*
X138950223Y-74429382D01*
X136759701Y-74429382D01*
X134189679Y-71859360D01*
X137952391Y-71859360D01*
X137957670Y-72987181D01*
X138379112Y-74004632D01*
X138770618Y-74249777D01*
X140610395Y-72410000D01*
X140969605Y-72410000D01*
X142809382Y-74249777D01*
X143200888Y-74004632D01*
X143627609Y-72960640D01*
X143622330Y-71832819D01*
X143200888Y-70815368D01*
X142809382Y-70570223D01*
X140969605Y-72410000D01*
X140610395Y-72410000D01*
X138770618Y-70570223D01*
X138379112Y-70815368D01*
X137952391Y-71859360D01*
X134189679Y-71859360D01*
X133270159Y-70939841D01*
X133109505Y-70832495D01*
X132920000Y-70794800D01*
X128230118Y-70794800D01*
X127825936Y-70390618D01*
X138950223Y-70390618D01*
X140790000Y-72230395D01*
X142629777Y-70390618D01*
X142384632Y-69999112D01*
X141340640Y-69572391D01*
X140212819Y-69577670D01*
X139195368Y-69999112D01*
X138950223Y-70390618D01*
X127825936Y-70390618D01*
X127549659Y-70114341D01*
X127528352Y-70100104D01*
X127119396Y-69691148D01*
X127105159Y-69669841D01*
X126944505Y-69562495D01*
X126755000Y-69524800D01*
X110626000Y-69524800D01*
X110600863Y-69529800D01*
X107245712Y-69529800D01*
X107032885Y-69316601D01*
X106727862Y-69189944D01*
X106397587Y-69189656D01*
X106092344Y-69315780D01*
X105858601Y-69549115D01*
X105731944Y-69854138D01*
X105731656Y-70184413D01*
X105857780Y-70489656D01*
X106091115Y-70723399D01*
X106396138Y-70850056D01*
X106726413Y-70850344D01*
X107031656Y-70724220D01*
X107246050Y-70510200D01*
X109435481Y-70510200D01*
X104912841Y-75032841D01*
X101131843Y-78813839D01*
X101131840Y-78813841D01*
X100431522Y-79514160D01*
X99940200Y-80005482D01*
X99940200Y-77513000D01*
X99902886Y-77325409D01*
X99902886Y-77325408D01*
X99796624Y-77166376D01*
X99264081Y-76633833D01*
X99264344Y-76332587D01*
X99138220Y-76027344D01*
X98904885Y-75793601D01*
X98599862Y-75666944D01*
X98269587Y-75666656D01*
X97964344Y-75792780D01*
X97730601Y-76026115D01*
X97603944Y-76331138D01*
X97603656Y-76661413D01*
X97729780Y-76966656D01*
X97963115Y-77200399D01*
X98268138Y-77327056D01*
X98571072Y-77327320D01*
X98959800Y-77716048D01*
X98959800Y-80985881D01*
X98845841Y-81099841D01*
X98591843Y-81353839D01*
X98591840Y-81353841D01*
X97891523Y-82054159D01*
X97194841Y-82750841D01*
X97100968Y-82891331D01*
X96545000Y-82891331D01*
X96422635Y-82914356D01*
X96310251Y-82986673D01*
X96234856Y-83097017D01*
X96208331Y-83228000D01*
X96208331Y-84752000D01*
X96210740Y-84764800D01*
X94370000Y-84764800D01*
X94180495Y-84802495D01*
X94019841Y-84909841D01*
X92749841Y-86179841D01*
X92642495Y-86340495D01*
X92604800Y-86530000D01*
X91600200Y-86530000D01*
X91600200Y-69155200D01*
X146034800Y-69155200D01*
X146034800Y-75536944D01*
X146034800Y-75536944D01*
G37*
X146034800Y-75536944D02*
X142959800Y-75536944D01*
X142959800Y-88283056D01*
X146034800Y-88283056D01*
X146034800Y-88679799D01*
X142959800Y-88679799D01*
X142959800Y-114140200D01*
X146034800Y-114140200D01*
X146034800Y-119423000D01*
X138312000Y-119423000D01*
X138045341Y-119481703D01*
X137842138Y-119630853D01*
X136443705Y-121169129D01*
X136159963Y-120884892D01*
X135656025Y-120675639D01*
X135110369Y-120675163D01*
X134606066Y-120883536D01*
X134219892Y-121269037D01*
X134010639Y-121772975D01*
X134010252Y-122217000D01*
X124122142Y-122217000D01*
X122533886Y-120401850D01*
X122303051Y-120235029D01*
X122056000Y-120185000D01*
X118754000Y-120185000D01*
X118523205Y-120228427D01*
X118311233Y-120364827D01*
X118169029Y-120572949D01*
X118119000Y-120820000D01*
X118119000Y-124874974D01*
X117034987Y-125958987D01*
X116899029Y-126160949D01*
X116849000Y-126408000D01*
X116849000Y-129304800D01*
X114690000Y-129304800D01*
X114534936Y-129335644D01*
X114488114Y-129366930D01*
X114403480Y-129423480D01*
X114403478Y-129423483D01*
X110077160Y-133749800D01*
X91600200Y-133749800D01*
X91600200Y-132593070D01*
X95952780Y-132593070D01*
X95969623Y-132685230D01*
X96237980Y-133163892D01*
X96669086Y-133503422D01*
X97197308Y-133652130D01*
X97418000Y-133493277D01*
X97418000Y-132377000D01*
X96075280Y-132377000D01*
X95952780Y-132593070D01*
X91600200Y-132593070D01*
X91600200Y-130053070D01*
X95952780Y-130053070D01*
X95969623Y-130145230D01*
X96237980Y-130623892D01*
X96669086Y-130963422D01*
X96727972Y-130980000D01*
X96669086Y-130996578D01*
X96237980Y-131336108D01*
X95969623Y-131814770D01*
X95952780Y-131906930D01*
X96075280Y-132123000D01*
X97418000Y-132123000D01*
X97418000Y-131006723D01*
X97380874Y-130980000D01*
X97418000Y-130953277D01*
X97418000Y-129837000D01*
X96075280Y-129837000D01*
X95952780Y-130053070D01*
X91600200Y-130053070D01*
X91600200Y-129366930D01*
X95952780Y-129366930D01*
X96075280Y-129583000D01*
X97418000Y-129583000D01*
X97418000Y-128466723D01*
X97672000Y-128466723D01*
X97672000Y-129583000D01*
X97692000Y-129583000D01*
X97692000Y-129837000D01*
X97672000Y-129837000D01*
X97672000Y-130953277D01*
X97709126Y-130980000D01*
X97672000Y-131006723D01*
X97672000Y-132123000D01*
X97692000Y-132123000D01*
X97692000Y-132377000D01*
X97672000Y-132377000D01*
X97672000Y-133493277D01*
X97892692Y-133652130D01*
X98420914Y-133503422D01*
X98852020Y-133163892D01*
X98984890Y-132926896D01*
X99048638Y-133022302D01*
X99402973Y-133259061D01*
X99820940Y-133342200D01*
X100349060Y-133342200D01*
X100767027Y-133259061D01*
X101121362Y-133022302D01*
X101306516Y-132745200D01*
X108340000Y-132745200D01*
X108529505Y-132707505D01*
X108690159Y-132600159D01*
X117580160Y-123710159D01*
X117670031Y-123575656D01*
X117687505Y-123549505D01*
X117725200Y-123360000D01*
X117725200Y-118948723D01*
X122161122Y-118948723D01*
X122317402Y-119326950D01*
X122606528Y-119616581D01*
X122984481Y-119773521D01*
X123393723Y-119773878D01*
X123771950Y-119617598D01*
X124061581Y-119328472D01*
X124218521Y-118950519D01*
X124218522Y-118948723D01*
X127241122Y-118948723D01*
X127397402Y-119326950D01*
X127686528Y-119616581D01*
X128064481Y-119773521D01*
X128473723Y-119773878D01*
X128851950Y-119617598D01*
X129141581Y-119328472D01*
X129298521Y-118950519D01*
X129298522Y-118948723D01*
X129781122Y-118948723D01*
X129937402Y-119326950D01*
X130226528Y-119616581D01*
X130604481Y-119773521D01*
X131013723Y-119773878D01*
X131391950Y-119617598D01*
X131681581Y-119328472D01*
X131838521Y-118950519D01*
X131838522Y-118948723D01*
X132321122Y-118948723D01*
X132477402Y-119326950D01*
X132766528Y-119616581D01*
X133144481Y-119773521D01*
X133553723Y-119773878D01*
X133931950Y-119617598D01*
X134221581Y-119328472D01*
X134378521Y-118950519D01*
X134378878Y-118541277D01*
X134222598Y-118163050D01*
X133933472Y-117873419D01*
X133555519Y-117716479D01*
X133146277Y-117716122D01*
X132768050Y-117872402D01*
X132478419Y-118161528D01*
X132321479Y-118539481D01*
X132321122Y-118948723D01*
X131838522Y-118948723D01*
X131838878Y-118541277D01*
X131682598Y-118163050D01*
X131393472Y-117873419D01*
X131015519Y-117716479D01*
X130606277Y-117716122D01*
X130228050Y-117872402D01*
X129938419Y-118161528D01*
X129781479Y-118539481D01*
X129781122Y-118948723D01*
X129298522Y-118948723D01*
X129298878Y-118541277D01*
X129142598Y-118163050D01*
X128853472Y-117873419D01*
X128475519Y-117716479D01*
X128066277Y-117716122D01*
X127688050Y-117872402D01*
X127398419Y-118161528D01*
X127241479Y-118539481D01*
X127241122Y-118948723D01*
X124218522Y-118948723D01*
X124218878Y-118541277D01*
X124062598Y-118163050D01*
X123773472Y-117873419D01*
X123395519Y-117716479D01*
X122986277Y-117716122D01*
X122608050Y-117872402D01*
X122318419Y-118161528D01*
X122161479Y-118539481D01*
X122161122Y-118948723D01*
X117725200Y-118948723D01*
X117725200Y-116408723D01*
X120891122Y-116408723D01*
X121047402Y-116786950D01*
X121336528Y-117076581D01*
X121714481Y-117233521D01*
X122123723Y-117233878D01*
X122501950Y-117077598D01*
X122791581Y-116788472D01*
X122948521Y-116410519D01*
X122948522Y-116408723D01*
X123431122Y-116408723D01*
X123587402Y-116786950D01*
X123876528Y-117076581D01*
X124254481Y-117233521D01*
X124663723Y-117233878D01*
X125041950Y-117077598D01*
X125331581Y-116788472D01*
X125488521Y-116410519D01*
X125488522Y-116408723D01*
X128511122Y-116408723D01*
X128667402Y-116786950D01*
X128956528Y-117076581D01*
X129334481Y-117233521D01*
X129743723Y-117233878D01*
X130121950Y-117077598D01*
X130411581Y-116788472D01*
X130568521Y-116410519D01*
X130568522Y-116408723D01*
X131051122Y-116408723D01*
X131207402Y-116786950D01*
X131496528Y-117076581D01*
X131874481Y-117233521D01*
X132283723Y-117233878D01*
X132661950Y-117077598D01*
X132951581Y-116788472D01*
X133108521Y-116410519D01*
X133108837Y-116048411D01*
X136753624Y-112403624D01*
X136859886Y-112244592D01*
X136897200Y-112057000D01*
X136897200Y-92801712D01*
X137110399Y-92588885D01*
X137237056Y-92283862D01*
X137237344Y-91953587D01*
X137111220Y-91648344D01*
X136877885Y-91414601D01*
X136572862Y-91287944D01*
X136242587Y-91287656D01*
X135937344Y-91413780D01*
X135703601Y-91647115D01*
X135576944Y-91952138D01*
X135576656Y-92282413D01*
X135702780Y-92587656D01*
X135916800Y-92802050D01*
X135916800Y-111853952D01*
X132503683Y-115267069D01*
X132285519Y-115176479D01*
X131876277Y-115176122D01*
X131498050Y-115332402D01*
X131208419Y-115621528D01*
X131051479Y-115999481D01*
X131051122Y-116408723D01*
X130568522Y-116408723D01*
X130568878Y-116001277D01*
X130412598Y-115623050D01*
X130123472Y-115333419D01*
X129745519Y-115176479D01*
X129336277Y-115176122D01*
X128958050Y-115332402D01*
X128668419Y-115621528D01*
X128511479Y-115999481D01*
X128511122Y-116408723D01*
X125488522Y-116408723D01*
X125488878Y-116001277D01*
X125332598Y-115623050D01*
X125043472Y-115333419D01*
X124665519Y-115176479D01*
X124256277Y-115176122D01*
X123878050Y-115332402D01*
X123588419Y-115621528D01*
X123431479Y-115999481D01*
X123431122Y-116408723D01*
X122948522Y-116408723D01*
X122948878Y-116001277D01*
X122792598Y-115623050D01*
X122503472Y-115333419D01*
X122125519Y-115176479D01*
X121716277Y-115176122D01*
X121338050Y-115332402D01*
X121048419Y-115621528D01*
X120891479Y-115999481D01*
X120891122Y-116408723D01*
X117725200Y-116408723D01*
X117725200Y-113868723D01*
X122161122Y-113868723D01*
X122317402Y-114246950D01*
X122606528Y-114536581D01*
X122984481Y-114693521D01*
X123393723Y-114693878D01*
X123771950Y-114537598D01*
X124061581Y-114248472D01*
X124218521Y-113870519D01*
X124218878Y-113461277D01*
X124062598Y-113083050D01*
X123773472Y-112793419D01*
X123395519Y-112636479D01*
X122986277Y-112636122D01*
X122608050Y-112792402D01*
X122318419Y-113081528D01*
X122161479Y-113459481D01*
X122161122Y-113868723D01*
X117725200Y-113868723D01*
X117725200Y-111595299D01*
X120827611Y-111595299D01*
X120993538Y-111996873D01*
X121300511Y-112304382D01*
X121701795Y-112471010D01*
X122136299Y-112471389D01*
X122537873Y-112305462D01*
X122845382Y-111998489D01*
X123012010Y-111597205D01*
X123012011Y-111595299D01*
X123367611Y-111595299D01*
X123533538Y-111996873D01*
X123840511Y-112304382D01*
X124241795Y-112471010D01*
X124676299Y-112471389D01*
X125077873Y-112305462D01*
X125385382Y-111998489D01*
X125552010Y-111597205D01*
X125552011Y-111595299D01*
X129463611Y-111595299D01*
X129629538Y-111996873D01*
X129936511Y-112304382D01*
X130337795Y-112471010D01*
X130772299Y-112471389D01*
X131173873Y-112305462D01*
X131481382Y-111998489D01*
X131648010Y-111597205D01*
X131648011Y-111595299D01*
X132003611Y-111595299D01*
X132169538Y-111996873D01*
X132476511Y-112304382D01*
X132877795Y-112471010D01*
X133312299Y-112471389D01*
X133713873Y-112305462D01*
X134021382Y-111998489D01*
X134188010Y-111597205D01*
X134188389Y-111162701D01*
X134022462Y-110761127D01*
X133715489Y-110453618D01*
X133314205Y-110286990D01*
X132879701Y-110286611D01*
X132478127Y-110452538D01*
X132170618Y-110759511D01*
X132003990Y-111160795D01*
X132003611Y-111595299D01*
X131648011Y-111595299D01*
X131648389Y-111162701D01*
X131482462Y-110761127D01*
X131175489Y-110453618D01*
X130774205Y-110286990D01*
X130339701Y-110286611D01*
X129938127Y-110452538D01*
X129630618Y-110759511D01*
X129463990Y-111160795D01*
X129463611Y-111595299D01*
X125552011Y-111595299D01*
X125552389Y-111162701D01*
X125386462Y-110761127D01*
X125079489Y-110453618D01*
X124678205Y-110286990D01*
X124243701Y-110286611D01*
X123842127Y-110452538D01*
X123534618Y-110759511D01*
X123367990Y-111160795D01*
X123367611Y-111595299D01*
X123012011Y-111595299D01*
X123012389Y-111162701D01*
X122846462Y-110761127D01*
X122539489Y-110453618D01*
X122138205Y-110286990D01*
X121703701Y-110286611D01*
X121302127Y-110452538D01*
X120994618Y-110759511D01*
X120827990Y-111160795D01*
X120827611Y-111595299D01*
X117725200Y-111595299D01*
X117725200Y-110660000D01*
X117687505Y-110470495D01*
X117580159Y-110309841D01*
X115820200Y-108549882D01*
X115820200Y-96474413D01*
X119359656Y-96474413D01*
X119485780Y-96779656D01*
X119719115Y-97013399D01*
X120024138Y-97140056D01*
X120354413Y-97140344D01*
X120659656Y-97014220D01*
X120893399Y-96780885D01*
X121020056Y-96475862D01*
X121020314Y-96180004D01*
X122025159Y-95175159D01*
X122132505Y-95014505D01*
X122170200Y-94825000D01*
X122170200Y-84662413D01*
X122876656Y-84662413D01*
X123002780Y-84967656D01*
X123236115Y-85201399D01*
X123541138Y-85328056D01*
X123871413Y-85328344D01*
X124176656Y-85202220D01*
X124410399Y-84968885D01*
X124537056Y-84663862D01*
X124537344Y-84333587D01*
X124532926Y-84322895D01*
X125294621Y-83561200D01*
X125502800Y-83561200D01*
X125502800Y-88816000D01*
X125540114Y-89003592D01*
X125646376Y-89162624D01*
X126899800Y-90416047D01*
X126899800Y-91434288D01*
X126686601Y-91647115D01*
X126559944Y-91952138D01*
X126559656Y-92282413D01*
X126685780Y-92587656D01*
X126919115Y-92821399D01*
X127224138Y-92948056D01*
X127554413Y-92948344D01*
X127859656Y-92822220D01*
X128093399Y-92588885D01*
X128220056Y-92283862D01*
X128220344Y-91953587D01*
X128094220Y-91648344D01*
X127880200Y-91433950D01*
X127880200Y-90213000D01*
X127842886Y-90025409D01*
X127736624Y-89866376D01*
X127736621Y-89866374D01*
X126483200Y-88612952D01*
X126483200Y-83561200D01*
X130386922Y-83561200D01*
X130495780Y-83824656D01*
X130729115Y-84058399D01*
X131034138Y-84185056D01*
X131364413Y-84185344D01*
X131669656Y-84059220D01*
X131903399Y-83825885D01*
X132030056Y-83520862D01*
X132030344Y-83190587D01*
X131904220Y-82885344D01*
X131670885Y-82651601D01*
X131365862Y-82524944D01*
X131035587Y-82524656D01*
X130754497Y-82640800D01*
X126143821Y-82640800D01*
X125993000Y-82610800D01*
X125842179Y-82640800D01*
X125104000Y-82640800D01*
X124927889Y-82675831D01*
X124778589Y-82775589D01*
X124778587Y-82775592D01*
X123882311Y-83671868D01*
X123872862Y-83667944D01*
X123542587Y-83667656D01*
X123237344Y-83793780D01*
X123003601Y-84027115D01*
X122876944Y-84332138D01*
X122876656Y-84662413D01*
X122170200Y-84662413D01*
X122170200Y-82925118D01*
X123785118Y-81310200D01*
X127184882Y-81310200D01*
X128182841Y-82308159D01*
X128343495Y-82415505D01*
X128533000Y-82453200D01*
X129428725Y-82453200D01*
X129433715Y-82458199D01*
X129738738Y-82584856D01*
X130069013Y-82585144D01*
X130374256Y-82459020D01*
X130607999Y-82225685D01*
X130734656Y-81920662D01*
X130734944Y-81590387D01*
X130608820Y-81285144D01*
X130375485Y-81051401D01*
X130070462Y-80924744D01*
X129740187Y-80924456D01*
X129434944Y-81050580D01*
X129201201Y-81283915D01*
X129126921Y-81462800D01*
X128738118Y-81462800D01*
X127740159Y-80464841D01*
X127579505Y-80357495D01*
X127390000Y-80319800D01*
X123580000Y-80319800D01*
X123390495Y-80357495D01*
X123229841Y-80464841D01*
X121324841Y-82369841D01*
X121217495Y-82530495D01*
X121179800Y-82720000D01*
X121179800Y-94619882D01*
X120319769Y-95479913D01*
X120025587Y-95479656D01*
X119720344Y-95605780D01*
X119486601Y-95839115D01*
X119359944Y-96144138D01*
X119359656Y-96474413D01*
X115820200Y-96474413D01*
X115820200Y-81374413D01*
X117159656Y-81374413D01*
X117285780Y-81679656D01*
X117494800Y-81889041D01*
X117494800Y-85231279D01*
X117286601Y-85439115D01*
X117159944Y-85744138D01*
X117159656Y-86074413D01*
X117285780Y-86379656D01*
X117519115Y-86613399D01*
X117824138Y-86740056D01*
X118154413Y-86740344D01*
X118459656Y-86614220D01*
X118693399Y-86380885D01*
X118820056Y-86075862D01*
X118820344Y-85745587D01*
X118694220Y-85440344D01*
X118485200Y-85230959D01*
X118485200Y-81888721D01*
X118693399Y-81680885D01*
X118820056Y-81375862D01*
X118820344Y-81045587D01*
X118694220Y-80740344D01*
X118460885Y-80506601D01*
X118155862Y-80379944D01*
X117825587Y-80379656D01*
X117520344Y-80505780D01*
X117286601Y-80739115D01*
X117159944Y-81044138D01*
X117159656Y-81374413D01*
X115820200Y-81374413D01*
X115820200Y-79115118D01*
X118598831Y-76336487D01*
X118893013Y-76336744D01*
X119198256Y-76210620D01*
X119431999Y-75977285D01*
X119558656Y-75672262D01*
X119558944Y-75341987D01*
X119432820Y-75036744D01*
X119199485Y-74803001D01*
X118894462Y-74676344D01*
X118564187Y-74676056D01*
X118258944Y-74802180D01*
X118025201Y-75035515D01*
X117898544Y-75340538D01*
X117898286Y-75636396D01*
X114974841Y-78559841D01*
X114867495Y-78720495D01*
X114829800Y-78910000D01*
X114829800Y-108755000D01*
X114867495Y-108944505D01*
X114974841Y-109105159D01*
X116734800Y-110865118D01*
X116734800Y-123154881D01*
X108134882Y-131754800D01*
X101306516Y-131754800D01*
X101121362Y-131477698D01*
X100767027Y-131240939D01*
X100349060Y-131157800D01*
X99820940Y-131157800D01*
X99402973Y-131240939D01*
X99048638Y-131477698D01*
X98984890Y-131573104D01*
X98852020Y-131336108D01*
X98420914Y-130996578D01*
X98362028Y-130980000D01*
X98420914Y-130963422D01*
X98852020Y-130623892D01*
X98984890Y-130386896D01*
X99048638Y-130482302D01*
X99402973Y-130719061D01*
X99820940Y-130802200D01*
X100349060Y-130802200D01*
X100767027Y-130719061D01*
X101121362Y-130482302D01*
X101358121Y-130127967D01*
X101441260Y-129710000D01*
X101358121Y-129292033D01*
X101121362Y-128937698D01*
X100767027Y-128700939D01*
X100349060Y-128617800D01*
X99820940Y-128617800D01*
X99402973Y-128700939D01*
X99048638Y-128937698D01*
X98984890Y-129033104D01*
X98852020Y-128796108D01*
X98420914Y-128456578D01*
X97892692Y-128307870D01*
X97672000Y-128466723D01*
X97418000Y-128466723D01*
X97197308Y-128307870D01*
X96669086Y-128456578D01*
X96237980Y-128796108D01*
X95969623Y-129274770D01*
X95952780Y-129366930D01*
X91600200Y-129366930D01*
X91600200Y-127170000D01*
X96188740Y-127170000D01*
X96271879Y-127587967D01*
X96508638Y-127942302D01*
X96862973Y-128179061D01*
X97280940Y-128262200D01*
X97809060Y-128262200D01*
X98227027Y-128179061D01*
X98581362Y-127942302D01*
X98815000Y-127592638D01*
X99048638Y-127942302D01*
X99402973Y-128179061D01*
X99820940Y-128262200D01*
X100349060Y-128262200D01*
X100767027Y-128179061D01*
X101121362Y-127942302D01*
X101358121Y-127587967D01*
X101441260Y-127170000D01*
X101358121Y-126752033D01*
X101121362Y-126397698D01*
X100767027Y-126160939D01*
X100349060Y-126077800D01*
X99820940Y-126077800D01*
X99402973Y-126160939D01*
X99048638Y-126397698D01*
X98815000Y-126747362D01*
X98581362Y-126397698D01*
X98227027Y-126160939D01*
X97809060Y-126077800D01*
X97280940Y-126077800D01*
X96862973Y-126160939D01*
X96508638Y-126397698D01*
X96271879Y-126752033D01*
X96188740Y-127170000D01*
X91600200Y-127170000D01*
X91600200Y-124630000D01*
X96188740Y-124630000D01*
X96271879Y-125047967D01*
X96508638Y-125402302D01*
X96862973Y-125639061D01*
X97280940Y-125722200D01*
X97809060Y-125722200D01*
X98227027Y-125639061D01*
X98581362Y-125402302D01*
X98815000Y-125052638D01*
X99048638Y-125402302D01*
X99402973Y-125639061D01*
X99820940Y-125722200D01*
X100349060Y-125722200D01*
X100767027Y-125639061D01*
X101121362Y-125402302D01*
X101358121Y-125047967D01*
X101441260Y-124630000D01*
X101358121Y-124212033D01*
X101121362Y-123857698D01*
X100767027Y-123620939D01*
X100349060Y-123537800D01*
X99820940Y-123537800D01*
X99402973Y-123620939D01*
X99048638Y-123857698D01*
X98815000Y-124207362D01*
X98581362Y-123857698D01*
X98227027Y-123620939D01*
X97809060Y-123537800D01*
X97280940Y-123537800D01*
X96862973Y-123620939D01*
X96508638Y-123857698D01*
X96271879Y-124212033D01*
X96188740Y-124630000D01*
X91600200Y-124630000D01*
X91600200Y-122090000D01*
X96188740Y-122090000D01*
X96271879Y-122507967D01*
X96508638Y-122862302D01*
X96862973Y-123099061D01*
X97280940Y-123182200D01*
X97809060Y-123182200D01*
X98227027Y-123099061D01*
X98581362Y-122862302D01*
X98815000Y-122512638D01*
X99048638Y-122862302D01*
X99402973Y-123099061D01*
X99820940Y-123182200D01*
X100349060Y-123182200D01*
X100767027Y-123099061D01*
X101121362Y-122862302D01*
X101358121Y-122507967D01*
X101441260Y-122090000D01*
X101358121Y-121672033D01*
X101121362Y-121317698D01*
X100767027Y-121080939D01*
X100349060Y-120997800D01*
X99820940Y-120997800D01*
X99402973Y-121080939D01*
X99048638Y-121317698D01*
X98815000Y-121667362D01*
X98581362Y-121317698D01*
X98227027Y-121080939D01*
X97809060Y-120997800D01*
X97280940Y-120997800D01*
X96862973Y-121080939D01*
X96508638Y-121317698D01*
X96271879Y-121672033D01*
X96188740Y-122090000D01*
X91600200Y-122090000D01*
X91600200Y-119550000D01*
X96188740Y-119550000D01*
X96271879Y-119967967D01*
X96508638Y-120322302D01*
X96862973Y-120559061D01*
X97280940Y-120642200D01*
X97809060Y-120642200D01*
X98227027Y-120559061D01*
X98581362Y-120322302D01*
X98815000Y-119972638D01*
X99048638Y-120322302D01*
X99402973Y-120559061D01*
X99820940Y-120642200D01*
X100349060Y-120642200D01*
X100767027Y-120559061D01*
X100866127Y-120492844D01*
X111264504Y-120492844D01*
X111436219Y-120908427D01*
X111753900Y-121226663D01*
X112169183Y-121399103D01*
X112618844Y-121399496D01*
X113034427Y-121227781D01*
X113352663Y-120910100D01*
X113525103Y-120494817D01*
X113525496Y-120045156D01*
X113353781Y-119629573D01*
X113193389Y-119468900D01*
X113798231Y-119468900D01*
X113798231Y-121069100D01*
X113821256Y-121191465D01*
X113893573Y-121303849D01*
X114003917Y-121379244D01*
X114134900Y-121405769D01*
X115735100Y-121405769D01*
X115857465Y-121382744D01*
X115969849Y-121310427D01*
X116045244Y-121200083D01*
X116071769Y-121069100D01*
X116071769Y-119468900D01*
X116048744Y-119346535D01*
X115976427Y-119234151D01*
X115866083Y-119158756D01*
X115735100Y-119132231D01*
X114134900Y-119132231D01*
X114012535Y-119155256D01*
X113900151Y-119227573D01*
X113824756Y-119337917D01*
X113798231Y-119468900D01*
X113193389Y-119468900D01*
X113036100Y-119311337D01*
X112620817Y-119138897D01*
X112171156Y-119138504D01*
X111755573Y-119310219D01*
X111437337Y-119627900D01*
X111264897Y-120043183D01*
X111264504Y-120492844D01*
X100866127Y-120492844D01*
X101121362Y-120322302D01*
X101358121Y-119967967D01*
X101441260Y-119550000D01*
X101358121Y-119132033D01*
X101121362Y-118777698D01*
X100767027Y-118540939D01*
X100349060Y-118457800D01*
X99820940Y-118457800D01*
X99402973Y-118540939D01*
X99048638Y-118777698D01*
X98815000Y-119127362D01*
X98581362Y-118777698D01*
X98227027Y-118540939D01*
X97809060Y-118457800D01*
X97280940Y-118457800D01*
X96862973Y-118540939D01*
X96508638Y-118777698D01*
X96271879Y-119132033D01*
X96188740Y-119550000D01*
X91600200Y-119550000D01*
X91600200Y-117353070D01*
X95952780Y-117353070D01*
X95969623Y-117445230D01*
X96237980Y-117923892D01*
X96669086Y-118263422D01*
X97197308Y-118412130D01*
X97418000Y-118253277D01*
X97418000Y-117137000D01*
X96075280Y-117137000D01*
X95952780Y-117353070D01*
X91600200Y-117353070D01*
X91600200Y-114813070D01*
X95952780Y-114813070D01*
X95969623Y-114905230D01*
X96237980Y-115383892D01*
X96669086Y-115723422D01*
X96727972Y-115740000D01*
X96669086Y-115756578D01*
X96237980Y-116096108D01*
X95969623Y-116574770D01*
X95952780Y-116666930D01*
X96075280Y-116883000D01*
X97418000Y-116883000D01*
X97418000Y-115766723D01*
X97380874Y-115740000D01*
X97418000Y-115713277D01*
X97418000Y-114597000D01*
X96075280Y-114597000D01*
X95952780Y-114813070D01*
X91600200Y-114813070D01*
X91600200Y-114126930D01*
X95952780Y-114126930D01*
X96075280Y-114343000D01*
X97418000Y-114343000D01*
X97418000Y-113226723D01*
X97672000Y-113226723D01*
X97672000Y-114343000D01*
X97692000Y-114343000D01*
X97692000Y-114597000D01*
X97672000Y-114597000D01*
X97672000Y-115713277D01*
X97709126Y-115740000D01*
X97672000Y-115766723D01*
X97672000Y-116883000D01*
X97692000Y-116883000D01*
X97692000Y-117137000D01*
X97672000Y-117137000D01*
X97672000Y-118253277D01*
X97892692Y-118412130D01*
X98420914Y-118263422D01*
X98852020Y-117923892D01*
X98984890Y-117686896D01*
X99048638Y-117782302D01*
X99402973Y-118019061D01*
X99820940Y-118102200D01*
X100349060Y-118102200D01*
X100767027Y-118019061D01*
X100866127Y-117952844D01*
X111264504Y-117952844D01*
X111436219Y-118368427D01*
X111753900Y-118686663D01*
X112169183Y-118859103D01*
X112618844Y-118859496D01*
X113034427Y-118687781D01*
X113352663Y-118370100D01*
X113525103Y-117954817D01*
X113525104Y-117952844D01*
X113804504Y-117952844D01*
X113976219Y-118368427D01*
X114293900Y-118686663D01*
X114709183Y-118859103D01*
X115158844Y-118859496D01*
X115574427Y-118687781D01*
X115892663Y-118370100D01*
X116065103Y-117954817D01*
X116065496Y-117505156D01*
X115893781Y-117089573D01*
X115576100Y-116771337D01*
X115195527Y-116613310D01*
X115288470Y-116608879D01*
X115689065Y-116442947D01*
X115763212Y-116196817D01*
X114935000Y-115368605D01*
X114106788Y-116196817D01*
X114180935Y-116442947D01*
X114665820Y-116617236D01*
X114295573Y-116770219D01*
X113977337Y-117087900D01*
X113804897Y-117503183D01*
X113804504Y-117952844D01*
X113525104Y-117952844D01*
X113525496Y-117505156D01*
X113353781Y-117089573D01*
X113036100Y-116771337D01*
X112620817Y-116598897D01*
X112171156Y-116598504D01*
X111755573Y-116770219D01*
X111437337Y-117087900D01*
X111264897Y-117503183D01*
X111264504Y-117952844D01*
X100866127Y-117952844D01*
X101121362Y-117782302D01*
X101358121Y-117427967D01*
X101441260Y-117010000D01*
X101358121Y-116592033D01*
X101121362Y-116237698D01*
X100767027Y-116000939D01*
X100349060Y-115917800D01*
X99820940Y-115917800D01*
X99402973Y-116000939D01*
X99048638Y-116237698D01*
X98984890Y-116333104D01*
X98852020Y-116096108D01*
X98420914Y-115756578D01*
X98362028Y-115740000D01*
X98420914Y-115723422D01*
X98852020Y-115383892D01*
X98984890Y-115146896D01*
X99048638Y-115242302D01*
X99402973Y-115479061D01*
X99820940Y-115562200D01*
X100349060Y-115562200D01*
X100767027Y-115479061D01*
X100866127Y-115412844D01*
X111264504Y-115412844D01*
X111436219Y-115828427D01*
X111753900Y-116146663D01*
X112169183Y-116319103D01*
X112618844Y-116319496D01*
X113034427Y-116147781D01*
X113352663Y-115830100D01*
X113510690Y-115449527D01*
X113515121Y-115542470D01*
X113681053Y-115943065D01*
X113927183Y-116017212D01*
X114755395Y-115189000D01*
X115114605Y-115189000D01*
X115942817Y-116017212D01*
X116188947Y-115943065D01*
X116382064Y-115405800D01*
X116354879Y-114835530D01*
X116188947Y-114434935D01*
X115942817Y-114360788D01*
X115114605Y-115189000D01*
X114755395Y-115189000D01*
X113927183Y-114360788D01*
X113681053Y-114434935D01*
X113506764Y-114919820D01*
X113353781Y-114549573D01*
X113036100Y-114231337D01*
X112620817Y-114058897D01*
X112171156Y-114058504D01*
X111755573Y-114230219D01*
X111437337Y-114547900D01*
X111264897Y-114963183D01*
X111264504Y-115412844D01*
X100866127Y-115412844D01*
X101121362Y-115242302D01*
X101358121Y-114887967D01*
X101441260Y-114470000D01*
X101358121Y-114052033D01*
X101121362Y-113697698D01*
X100767027Y-113460939D01*
X100349060Y-113377800D01*
X99820940Y-113377800D01*
X99402973Y-113460939D01*
X99048638Y-113697698D01*
X98984890Y-113793104D01*
X98852020Y-113556108D01*
X98420914Y-113216578D01*
X97892692Y-113067870D01*
X97672000Y-113226723D01*
X97418000Y-113226723D01*
X97197308Y-113067870D01*
X96669086Y-113216578D01*
X96237980Y-113556108D01*
X95969623Y-114034770D01*
X95952780Y-114126930D01*
X91600200Y-114126930D01*
X91600200Y-111930000D01*
X96188740Y-111930000D01*
X96271879Y-112347967D01*
X96508638Y-112702302D01*
X96862973Y-112939061D01*
X97280940Y-113022200D01*
X97809060Y-113022200D01*
X98227027Y-112939061D01*
X98581362Y-112702302D01*
X98815000Y-112352638D01*
X99048638Y-112702302D01*
X99402973Y-112939061D01*
X99820940Y-113022200D01*
X100349060Y-113022200D01*
X100767027Y-112939061D01*
X101121362Y-112702302D01*
X101358121Y-112347967D01*
X101441260Y-111930000D01*
X101358121Y-111512033D01*
X101121362Y-111157698D01*
X100767027Y-110920939D01*
X100349060Y-110837800D01*
X99820940Y-110837800D01*
X99402973Y-110920939D01*
X99048638Y-111157698D01*
X98815000Y-111507362D01*
X98581362Y-111157698D01*
X98227027Y-110920939D01*
X97809060Y-110837800D01*
X97280940Y-110837800D01*
X96862973Y-110920939D01*
X96508638Y-111157698D01*
X96271879Y-111512033D01*
X96188740Y-111930000D01*
X91600200Y-111930000D01*
X91600200Y-86530000D01*
X92604800Y-86530000D01*
X92604800Y-106215000D01*
X92642495Y-106404505D01*
X92749841Y-106565159D01*
X94654841Y-108470159D01*
X94815495Y-108577505D01*
X95005000Y-108615200D01*
X96512377Y-108615200D01*
X96508638Y-108617698D01*
X96271879Y-108972033D01*
X96188740Y-109390000D01*
X96271879Y-109807967D01*
X96508638Y-110162302D01*
X96862973Y-110399061D01*
X97280940Y-110482200D01*
X97809060Y-110482200D01*
X98227027Y-110399061D01*
X98581362Y-110162302D01*
X98815000Y-109812638D01*
X99048638Y-110162302D01*
X99402973Y-110399061D01*
X99820940Y-110482200D01*
X100349060Y-110482200D01*
X100767027Y-110399061D01*
X101121362Y-110162302D01*
X101358121Y-109807967D01*
X101441260Y-109390000D01*
X101358121Y-108972033D01*
X101121362Y-108617698D01*
X101117623Y-108615200D01*
X103054882Y-108615200D01*
X107438841Y-112999159D01*
X107599495Y-113106505D01*
X107789000Y-113144200D01*
X111376626Y-113144200D01*
X111436219Y-113288427D01*
X111753900Y-113606663D01*
X112169183Y-113779103D01*
X112618844Y-113779496D01*
X112915750Y-113656817D01*
X114106788Y-113656817D01*
X114180935Y-113902947D01*
X114222434Y-113917864D01*
X114180935Y-113935053D01*
X114106788Y-114181183D01*
X114935000Y-115009395D01*
X115763212Y-114181183D01*
X115689065Y-113935053D01*
X115647566Y-113920136D01*
X115689065Y-113902947D01*
X115763212Y-113656817D01*
X114935000Y-112828605D01*
X114106788Y-113656817D01*
X112915750Y-113656817D01*
X113034427Y-113607781D01*
X113352663Y-113290100D01*
X113510690Y-112909527D01*
X113515121Y-113002470D01*
X113681053Y-113403065D01*
X113927183Y-113477212D01*
X114755395Y-112649000D01*
X115114605Y-112649000D01*
X115942817Y-113477212D01*
X116188947Y-113403065D01*
X116382064Y-112865800D01*
X116354879Y-112295530D01*
X116188947Y-111894935D01*
X115942817Y-111820788D01*
X115114605Y-112649000D01*
X114755395Y-112649000D01*
X113927183Y-111820788D01*
X113681053Y-111894935D01*
X113506764Y-112379820D01*
X113353781Y-112009573D01*
X113036100Y-111691337D01*
X112915316Y-111641183D01*
X114106788Y-111641183D01*
X114935000Y-112469395D01*
X115763212Y-111641183D01*
X115689065Y-111395053D01*
X115151800Y-111201936D01*
X114581530Y-111229121D01*
X114180935Y-111395053D01*
X114106788Y-111641183D01*
X112915316Y-111641183D01*
X112620817Y-111518897D01*
X112171156Y-111518504D01*
X111755573Y-111690219D01*
X111437337Y-112007900D01*
X111376754Y-112153800D01*
X107994118Y-112153800D01*
X103610159Y-107769841D01*
X103449505Y-107662495D01*
X103260000Y-107624800D01*
X101117623Y-107624800D01*
X101121362Y-107622302D01*
X101358121Y-107267967D01*
X101441260Y-106850000D01*
X101358121Y-106432033D01*
X101121362Y-106077698D01*
X100767027Y-105840939D01*
X100349060Y-105757800D01*
X99820940Y-105757800D01*
X99402973Y-105840939D01*
X99048638Y-106077698D01*
X98984890Y-106173104D01*
X98852020Y-105936108D01*
X98420914Y-105596578D01*
X98362028Y-105580000D01*
X98420914Y-105563422D01*
X98852020Y-105223892D01*
X98984890Y-104986896D01*
X99048638Y-105082302D01*
X99402973Y-105319061D01*
X99820940Y-105402200D01*
X100349060Y-105402200D01*
X100767027Y-105319061D01*
X101121362Y-105082302D01*
X101358121Y-104727967D01*
X101441260Y-104310000D01*
X101358121Y-103892033D01*
X101121362Y-103537698D01*
X100767027Y-103300939D01*
X100349060Y-103217800D01*
X99820940Y-103217800D01*
X99402973Y-103300939D01*
X99048638Y-103537698D01*
X98984890Y-103633104D01*
X98852020Y-103396108D01*
X98420914Y-103056578D01*
X97892692Y-102907870D01*
X97672000Y-103066723D01*
X97672000Y-104183000D01*
X97692000Y-104183000D01*
X97692000Y-104437000D01*
X97672000Y-104437000D01*
X97672000Y-105553277D01*
X97709126Y-105580000D01*
X97672000Y-105606723D01*
X97672000Y-106723000D01*
X97692000Y-106723000D01*
X97692000Y-106977000D01*
X97672000Y-106977000D01*
X97672000Y-106997000D01*
X97418000Y-106997000D01*
X97418000Y-106977000D01*
X96075280Y-106977000D01*
X95952780Y-107193070D01*
X95969623Y-107285230D01*
X96159999Y-107624800D01*
X95210118Y-107624800D01*
X93595200Y-106009882D01*
X93595200Y-104653070D01*
X95952780Y-104653070D01*
X95969623Y-104745230D01*
X96237980Y-105223892D01*
X96669086Y-105563422D01*
X96727972Y-105580000D01*
X96669086Y-105596578D01*
X96237980Y-105936108D01*
X95969623Y-106414770D01*
X95952780Y-106506930D01*
X96075280Y-106723000D01*
X97418000Y-106723000D01*
X97418000Y-105606723D01*
X97380874Y-105580000D01*
X97418000Y-105553277D01*
X97418000Y-104437000D01*
X96075280Y-104437000D01*
X95952780Y-104653070D01*
X93595200Y-104653070D01*
X93595200Y-103966930D01*
X95952780Y-103966930D01*
X96075280Y-104183000D01*
X97418000Y-104183000D01*
X97418000Y-103066723D01*
X97197308Y-102907870D01*
X96669086Y-103056578D01*
X96237980Y-103396108D01*
X95969623Y-103874770D01*
X95952780Y-103966930D01*
X93595200Y-103966930D01*
X93595200Y-101770000D01*
X96188740Y-101770000D01*
X96271879Y-102187967D01*
X96508638Y-102542302D01*
X96862973Y-102779061D01*
X97280940Y-102862200D01*
X97809060Y-102862200D01*
X98227027Y-102779061D01*
X98581362Y-102542302D01*
X98815000Y-102192638D01*
X99048638Y-102542302D01*
X99402973Y-102779061D01*
X99820940Y-102862200D01*
X100349060Y-102862200D01*
X100767027Y-102779061D01*
X101121362Y-102542302D01*
X101358121Y-102187967D01*
X101441260Y-101770000D01*
X101358121Y-101352033D01*
X101121362Y-100997698D01*
X100767027Y-100760939D01*
X100349060Y-100677800D01*
X99820940Y-100677800D01*
X99402973Y-100760939D01*
X99048638Y-100997698D01*
X98815000Y-101347362D01*
X98581362Y-100997698D01*
X98227027Y-100760939D01*
X97809060Y-100677800D01*
X97280940Y-100677800D01*
X96862973Y-100760939D01*
X96508638Y-100997698D01*
X96271879Y-101352033D01*
X96188740Y-101770000D01*
X93595200Y-101770000D01*
X93595200Y-99573070D01*
X95952780Y-99573070D01*
X95969623Y-99665230D01*
X96237980Y-100143892D01*
X96669086Y-100483422D01*
X97197308Y-100632130D01*
X97418000Y-100473277D01*
X97418000Y-99357000D01*
X96075280Y-99357000D01*
X95952780Y-99573070D01*
X93595200Y-99573070D01*
X93595200Y-97033070D01*
X95952780Y-97033070D01*
X95969623Y-97125230D01*
X96237980Y-97603892D01*
X96669086Y-97943422D01*
X96727972Y-97960000D01*
X96669086Y-97976578D01*
X96237980Y-98316108D01*
X95969623Y-98794770D01*
X95952780Y-98886930D01*
X96075280Y-99103000D01*
X97418000Y-99103000D01*
X97418000Y-97986723D01*
X97380874Y-97960000D01*
X97418000Y-97933277D01*
X97418000Y-96817000D01*
X96075280Y-96817000D01*
X95952780Y-97033070D01*
X93595200Y-97033070D01*
X93595200Y-96346930D01*
X95952780Y-96346930D01*
X96075280Y-96563000D01*
X97418000Y-96563000D01*
X97418000Y-95446723D01*
X97672000Y-95446723D01*
X97672000Y-96563000D01*
X97692000Y-96563000D01*
X97692000Y-96817000D01*
X97672000Y-96817000D01*
X97672000Y-97933277D01*
X97709126Y-97960000D01*
X97672000Y-97986723D01*
X97672000Y-99103000D01*
X97692000Y-99103000D01*
X97692000Y-99357000D01*
X97672000Y-99357000D01*
X97672000Y-100473277D01*
X97892692Y-100632130D01*
X98420914Y-100483422D01*
X98852020Y-100143892D01*
X98984890Y-99906896D01*
X99048638Y-100002302D01*
X99402973Y-100239061D01*
X99820940Y-100322200D01*
X100349060Y-100322200D01*
X100767027Y-100239061D01*
X101121362Y-100002302D01*
X101358121Y-99647967D01*
X101441260Y-99230000D01*
X101358121Y-98812033D01*
X101121362Y-98457698D01*
X100767027Y-98220939D01*
X100349060Y-98137800D01*
X99820940Y-98137800D01*
X99402973Y-98220939D01*
X99048638Y-98457698D01*
X98984890Y-98553104D01*
X98852020Y-98316108D01*
X98420914Y-97976578D01*
X98362028Y-97960000D01*
X98420914Y-97943422D01*
X98852020Y-97603892D01*
X98984890Y-97366896D01*
X99048638Y-97462302D01*
X99402973Y-97699061D01*
X99820940Y-97782200D01*
X100349060Y-97782200D01*
X100767027Y-97699061D01*
X101121362Y-97462302D01*
X101358121Y-97107967D01*
X101441260Y-96690000D01*
X101358121Y-96272033D01*
X101121362Y-95917698D01*
X100767027Y-95680939D01*
X100349060Y-95597800D01*
X99820940Y-95597800D01*
X99402973Y-95680939D01*
X99048638Y-95917698D01*
X98984890Y-96013104D01*
X98852020Y-95776108D01*
X98420914Y-95436578D01*
X97892692Y-95287870D01*
X97672000Y-95446723D01*
X97418000Y-95446723D01*
X97197308Y-95287870D01*
X96669086Y-95436578D01*
X96237980Y-95776108D01*
X95969623Y-96254770D01*
X95952780Y-96346930D01*
X93595200Y-96346930D01*
X93595200Y-94150000D01*
X96188740Y-94150000D01*
X96271879Y-94567967D01*
X96508638Y-94922302D01*
X96862973Y-95159061D01*
X97280940Y-95242200D01*
X97809060Y-95242200D01*
X98227027Y-95159061D01*
X98581362Y-94922302D01*
X98815000Y-94572638D01*
X99048638Y-94922302D01*
X99402973Y-95159061D01*
X99820940Y-95242200D01*
X100349060Y-95242200D01*
X100767027Y-95159061D01*
X101121362Y-94922302D01*
X101306516Y-94645200D01*
X107705000Y-94645200D01*
X107894505Y-94607505D01*
X108055159Y-94500159D01*
X111992159Y-90563159D01*
X112031412Y-90504413D01*
X112099505Y-90402505D01*
X112137200Y-90213000D01*
X112137200Y-75813118D01*
X113625118Y-74325200D01*
X121723882Y-74325200D01*
X122322800Y-74924118D01*
X122322800Y-75818279D01*
X122114601Y-76026115D01*
X121987944Y-76331138D01*
X121987656Y-76661413D01*
X122113780Y-76966656D01*
X122347115Y-77200399D01*
X122652138Y-77327056D01*
X122982413Y-77327344D01*
X123287656Y-77201220D01*
X123521399Y-76967885D01*
X123648056Y-76662862D01*
X123648344Y-76332587D01*
X123522220Y-76027344D01*
X123313200Y-75817959D01*
X123313200Y-74719000D01*
X123275505Y-74529495D01*
X123168159Y-74368841D01*
X122279159Y-73479841D01*
X122118505Y-73372495D01*
X121929000Y-73334800D01*
X113420000Y-73334800D01*
X113230495Y-73372495D01*
X113069841Y-73479841D01*
X111291841Y-75257841D01*
X111184495Y-75418495D01*
X111146800Y-75608000D01*
X111146800Y-90007882D01*
X107499882Y-93654800D01*
X101306516Y-93654800D01*
X101121362Y-93377698D01*
X100767027Y-93140939D01*
X100349060Y-93057800D01*
X99820940Y-93057800D01*
X99402973Y-93140939D01*
X99048638Y-93377698D01*
X98815000Y-93727362D01*
X98581362Y-93377698D01*
X98227027Y-93140939D01*
X97809060Y-93057800D01*
X97280940Y-93057800D01*
X96862973Y-93140939D01*
X96508638Y-93377698D01*
X96271879Y-93732033D01*
X96188740Y-94150000D01*
X93595200Y-94150000D01*
X93595200Y-91953070D01*
X95952780Y-91953070D01*
X95969623Y-92045230D01*
X96237980Y-92523892D01*
X96669086Y-92863422D01*
X97197308Y-93012130D01*
X97418000Y-92853277D01*
X97418000Y-91737000D01*
X96075280Y-91737000D01*
X95952780Y-91953070D01*
X93595200Y-91953070D01*
X93595200Y-89413070D01*
X95952780Y-89413070D01*
X95969623Y-89505230D01*
X96237980Y-89983892D01*
X96669086Y-90323422D01*
X96727972Y-90340000D01*
X96669086Y-90356578D01*
X96237980Y-90696108D01*
X95969623Y-91174770D01*
X95952780Y-91266930D01*
X96075280Y-91483000D01*
X97418000Y-91483000D01*
X97418000Y-90366723D01*
X97380874Y-90340000D01*
X97418000Y-90313277D01*
X97418000Y-89197000D01*
X96075280Y-89197000D01*
X95952780Y-89413070D01*
X93595200Y-89413070D01*
X93595200Y-86873070D01*
X95952780Y-86873070D01*
X95969623Y-86965230D01*
X96237980Y-87443892D01*
X96669086Y-87783422D01*
X96727972Y-87800000D01*
X96669086Y-87816578D01*
X96237980Y-88156108D01*
X95969623Y-88634770D01*
X95952780Y-88726930D01*
X96075280Y-88943000D01*
X97418000Y-88943000D01*
X97418000Y-87826723D01*
X97380874Y-87800000D01*
X97418000Y-87773277D01*
X97418000Y-86657000D01*
X96075280Y-86657000D01*
X95952780Y-86873070D01*
X93595200Y-86873070D01*
X93595200Y-86735118D01*
X94575118Y-85755200D01*
X96159999Y-85755200D01*
X95969623Y-86094770D01*
X95952780Y-86186930D01*
X96075280Y-86403000D01*
X97418000Y-86403000D01*
X97418000Y-86383000D01*
X97672000Y-86383000D01*
X97672000Y-86403000D01*
X97692000Y-86403000D01*
X97692000Y-86657000D01*
X97672000Y-86657000D01*
X97672000Y-87773277D01*
X97709126Y-87800000D01*
X97672000Y-87826723D01*
X97672000Y-88943000D01*
X97692000Y-88943000D01*
X97692000Y-89197000D01*
X97672000Y-89197000D01*
X97672000Y-90313277D01*
X97709126Y-90340000D01*
X97672000Y-90366723D01*
X97672000Y-91483000D01*
X97692000Y-91483000D01*
X97692000Y-91737000D01*
X97672000Y-91737000D01*
X97672000Y-92853277D01*
X97892692Y-93012130D01*
X98420914Y-92863422D01*
X98852020Y-92523892D01*
X98984890Y-92286896D01*
X99048638Y-92382302D01*
X99402973Y-92619061D01*
X99820940Y-92702200D01*
X100349060Y-92702200D01*
X100767027Y-92619061D01*
X101121362Y-92382302D01*
X101306516Y-92105200D01*
X106435000Y-92105200D01*
X106624505Y-92067505D01*
X106785159Y-91960159D01*
X107575231Y-91170087D01*
X107869413Y-91170344D01*
X108174656Y-91044220D01*
X108408399Y-90810885D01*
X108535056Y-90505862D01*
X108535344Y-90175587D01*
X108409220Y-89870344D01*
X108175885Y-89636601D01*
X107870862Y-89509944D01*
X107540587Y-89509656D01*
X107235344Y-89635780D01*
X107001601Y-89869115D01*
X106874944Y-90174138D01*
X106874686Y-90469996D01*
X106229882Y-91114800D01*
X101306516Y-91114800D01*
X101121362Y-90837698D01*
X100767027Y-90600939D01*
X100349060Y-90517800D01*
X99820940Y-90517800D01*
X99402973Y-90600939D01*
X99048638Y-90837698D01*
X98984890Y-90933104D01*
X98852020Y-90696108D01*
X98420914Y-90356578D01*
X98362028Y-90340000D01*
X98420914Y-90323422D01*
X98852020Y-89983892D01*
X98984890Y-89746896D01*
X99048638Y-89842302D01*
X99402973Y-90079061D01*
X99820940Y-90162200D01*
X100349060Y-90162200D01*
X100767027Y-90079061D01*
X101121362Y-89842302D01*
X101306516Y-89565200D01*
X106689000Y-89565200D01*
X106878505Y-89527505D01*
X107039159Y-89420159D01*
X109325159Y-87134159D01*
X109432505Y-86973505D01*
X109437585Y-86947967D01*
X109470200Y-86784000D01*
X109470200Y-85558840D01*
X109540780Y-85729656D01*
X109774115Y-85963399D01*
X110079138Y-86090056D01*
X110409413Y-86090344D01*
X110714656Y-85964220D01*
X110948399Y-85730885D01*
X111075056Y-85425862D01*
X111075344Y-85095587D01*
X110949220Y-84790344D01*
X110740200Y-84580959D01*
X110740200Y-74035118D01*
X112672619Y-72102700D01*
X123692382Y-72102700D01*
X124989800Y-73400118D01*
X124989800Y-75529881D01*
X123074769Y-77444913D01*
X122780587Y-77444656D01*
X122475344Y-77570780D01*
X122241601Y-77804115D01*
X122114944Y-78109138D01*
X122114656Y-78439413D01*
X122240780Y-78744656D01*
X122474115Y-78978399D01*
X122779138Y-79105056D01*
X123109413Y-79105344D01*
X123414656Y-78979220D01*
X123648399Y-78745885D01*
X123775056Y-78440862D01*
X123775314Y-78145004D01*
X125835159Y-76085160D01*
X125942505Y-75924505D01*
X125980200Y-75735000D01*
X125980200Y-73195000D01*
X125942505Y-73005495D01*
X125835159Y-72844841D01*
X124247659Y-71257341D01*
X124087005Y-71149995D01*
X123897500Y-71112300D01*
X112467500Y-71112300D01*
X112277995Y-71149995D01*
X112213646Y-71192991D01*
X112117341Y-71257340D01*
X109894841Y-73479841D01*
X109787495Y-73640495D01*
X109749800Y-73830000D01*
X109749800Y-82873592D01*
X109521862Y-82778944D01*
X109191587Y-82778656D01*
X108886344Y-82904780D01*
X108652601Y-83138115D01*
X108525944Y-83443138D01*
X108525656Y-83773413D01*
X108529452Y-83782600D01*
X108517495Y-83800495D01*
X108479800Y-83990000D01*
X108479800Y-86578882D01*
X106483882Y-88574800D01*
X101306516Y-88574800D01*
X101121362Y-88297698D01*
X100767027Y-88060939D01*
X100349060Y-87977800D01*
X99820940Y-87977800D01*
X99402973Y-88060939D01*
X99048638Y-88297698D01*
X98984890Y-88393104D01*
X98852020Y-88156108D01*
X98420914Y-87816578D01*
X98362028Y-87800000D01*
X98420914Y-87783422D01*
X98852020Y-87443892D01*
X98984890Y-87206896D01*
X99048638Y-87302302D01*
X99402973Y-87539061D01*
X99820940Y-87622200D01*
X100349060Y-87622200D01*
X100767027Y-87539061D01*
X101121362Y-87302302D01*
X101358121Y-86947967D01*
X101441260Y-86530000D01*
X101358121Y-86112033D01*
X101121362Y-85757698D01*
X100767027Y-85520939D01*
X100349060Y-85437800D01*
X99820940Y-85437800D01*
X99402973Y-85520939D01*
X99048638Y-85757698D01*
X98984890Y-85853104D01*
X98918463Y-85734620D01*
X99004505Y-85717505D01*
X99165159Y-85610159D01*
X99714325Y-85060993D01*
X99820940Y-85082200D01*
X100349060Y-85082200D01*
X100767027Y-84999061D01*
X101121362Y-84762302D01*
X101358121Y-84407967D01*
X101441260Y-83990000D01*
X101358121Y-83572033D01*
X101121362Y-83217698D01*
X100767027Y-82980939D01*
X100349060Y-82897800D01*
X99820940Y-82897800D01*
X99402973Y-82980939D01*
X99048638Y-83217698D01*
X98881669Y-83467585D01*
X98881669Y-83228000D01*
X98858644Y-83105635D01*
X98786327Y-82993251D01*
X98675983Y-82917856D01*
X98545000Y-82891331D01*
X98454987Y-82891331D01*
X99292159Y-82054160D01*
X99292161Y-82054157D01*
X99546158Y-81800160D01*
X99655119Y-81691200D01*
X105546000Y-81691200D01*
X105735505Y-81653505D01*
X105896159Y-81546159D01*
X108591120Y-78851198D01*
X108758413Y-78851344D01*
X109063656Y-78725220D01*
X109297399Y-78491885D01*
X109424056Y-78186862D01*
X109424344Y-77856587D01*
X109298220Y-77551344D01*
X109064885Y-77317601D01*
X108759862Y-77190944D01*
X108429587Y-77190656D01*
X108124344Y-77316780D01*
X107890601Y-77550115D01*
X107763944Y-77855138D01*
X107763656Y-78185413D01*
X107790734Y-78250948D01*
X105340882Y-80700800D01*
X100645518Y-80700800D01*
X101832159Y-79514160D01*
X101832161Y-79514157D01*
X105613159Y-75733159D01*
X110831119Y-70515200D01*
X126556952Y-70515200D01*
X126835104Y-70793352D01*
X126849341Y-70814659D01*
X127529800Y-71495118D01*
X127529800Y-75606081D01*
X126630769Y-76505113D01*
X126336587Y-76504856D01*
X126031344Y-76630980D01*
X125797601Y-76864315D01*
X125670944Y-77169338D01*
X125670656Y-77499613D01*
X125796780Y-77804856D01*
X126030115Y-78038599D01*
X126335138Y-78165256D01*
X126665413Y-78165544D01*
X126970656Y-78039420D01*
X127204399Y-77806085D01*
X127331056Y-77501062D01*
X127331314Y-77205204D01*
X128375159Y-76161360D01*
X128482505Y-76000705D01*
X128520199Y-75811200D01*
X128512621Y-75773102D01*
X128520200Y-75735000D01*
X128520200Y-71785200D01*
X132714882Y-71785200D01*
X137689800Y-76760119D01*
X137689800Y-80517279D01*
X137481601Y-80725115D01*
X137354944Y-81030138D01*
X137354656Y-81360413D01*
X137418867Y-81515814D01*
X135774769Y-83159913D01*
X135480587Y-83159656D01*
X135175344Y-83285780D01*
X134941601Y-83519115D01*
X134814944Y-83824138D01*
X134814656Y-84154413D01*
X134940780Y-84459656D01*
X135174115Y-84693399D01*
X135479138Y-84820056D01*
X135809413Y-84820344D01*
X136114656Y-84694220D01*
X136348399Y-84460885D01*
X136475056Y-84155862D01*
X136475314Y-83860004D01*
X138309010Y-82026309D01*
X138349413Y-82026344D01*
X138654656Y-81900220D01*
X138888399Y-81666885D01*
X139015056Y-81361862D01*
X139015344Y-81031587D01*
X138889220Y-80726344D01*
X138680200Y-80516959D01*
X138680200Y-76555000D01*
X138642505Y-76365495D01*
X138623102Y-76336456D01*
X138535159Y-76204840D01*
X136759701Y-74429382D01*
X138950223Y-74429382D01*
X139195368Y-74820888D01*
X140239360Y-75247609D01*
X141367181Y-75242330D01*
X142384632Y-74820888D01*
X142629777Y-74429382D01*
X140790000Y-72589605D01*
X138950223Y-74429382D01*
X136759701Y-74429382D01*
X134189679Y-71859360D01*
X137952391Y-71859360D01*
X137957670Y-72987181D01*
X138379112Y-74004632D01*
X138770618Y-74249777D01*
X140610395Y-72410000D01*
X140969605Y-72410000D01*
X142809382Y-74249777D01*
X143200888Y-74004632D01*
X143627609Y-72960640D01*
X143622330Y-71832819D01*
X143200888Y-70815368D01*
X142809382Y-70570223D01*
X140969605Y-72410000D01*
X140610395Y-72410000D01*
X138770618Y-70570223D01*
X138379112Y-70815368D01*
X137952391Y-71859360D01*
X134189679Y-71859360D01*
X133270159Y-70939841D01*
X133109505Y-70832495D01*
X132920000Y-70794800D01*
X128230118Y-70794800D01*
X127825936Y-70390618D01*
X138950223Y-70390618D01*
X140790000Y-72230395D01*
X142629777Y-70390618D01*
X142384632Y-69999112D01*
X141340640Y-69572391D01*
X140212819Y-69577670D01*
X139195368Y-69999112D01*
X138950223Y-70390618D01*
X127825936Y-70390618D01*
X127549659Y-70114341D01*
X127528352Y-70100104D01*
X127119396Y-69691148D01*
X127105159Y-69669841D01*
X126944505Y-69562495D01*
X126755000Y-69524800D01*
X110626000Y-69524800D01*
X110600863Y-69529800D01*
X107245712Y-69529800D01*
X107032885Y-69316601D01*
X106727862Y-69189944D01*
X106397587Y-69189656D01*
X106092344Y-69315780D01*
X105858601Y-69549115D01*
X105731944Y-69854138D01*
X105731656Y-70184413D01*
X105857780Y-70489656D01*
X106091115Y-70723399D01*
X106396138Y-70850056D01*
X106726413Y-70850344D01*
X107031656Y-70724220D01*
X107246050Y-70510200D01*
X109435481Y-70510200D01*
X104912841Y-75032841D01*
X101131843Y-78813839D01*
X101131840Y-78813841D01*
X100431522Y-79514160D01*
X99940200Y-80005482D01*
X99940200Y-77513000D01*
X99902886Y-77325409D01*
X99902886Y-77325408D01*
X99796624Y-77166376D01*
X99264081Y-76633833D01*
X99264344Y-76332587D01*
X99138220Y-76027344D01*
X98904885Y-75793601D01*
X98599862Y-75666944D01*
X98269587Y-75666656D01*
X97964344Y-75792780D01*
X97730601Y-76026115D01*
X97603944Y-76331138D01*
X97603656Y-76661413D01*
X97729780Y-76966656D01*
X97963115Y-77200399D01*
X98268138Y-77327056D01*
X98571072Y-77327320D01*
X98959800Y-77716048D01*
X98959800Y-80985881D01*
X98845841Y-81099841D01*
X98591843Y-81353839D01*
X98591840Y-81353841D01*
X97891523Y-82054159D01*
X97194841Y-82750841D01*
X97100968Y-82891331D01*
X96545000Y-82891331D01*
X96422635Y-82914356D01*
X96310251Y-82986673D01*
X96234856Y-83097017D01*
X96208331Y-83228000D01*
X96208331Y-84752000D01*
X96210740Y-84764800D01*
X94370000Y-84764800D01*
X94180495Y-84802495D01*
X94019841Y-84909841D01*
X92749841Y-86179841D01*
X92642495Y-86340495D01*
X92604800Y-86530000D01*
X91600200Y-86530000D01*
X91600200Y-69155200D01*
X146034800Y-69155200D01*
X146034800Y-75536944D01*
G36*
X145730000Y-129000000D02*
X117611000Y-129000000D01*
X117611000Y-126788084D01*
X120406521Y-126788084D01*
X120627171Y-127090492D01*
X121489223Y-127433338D01*
X122416858Y-127420194D01*
X123212829Y-127090492D01*
X123433479Y-126788084D01*
X131836521Y-126788084D01*
X132057171Y-127090492D01*
X132919223Y-127433338D01*
X133846858Y-127420194D01*
X134642829Y-127090492D01*
X134863479Y-126788084D01*
X133350000Y-125274605D01*
X131836521Y-126788084D01*
X123433479Y-126788084D01*
X121920000Y-125274605D01*
X120406521Y-126788084D01*
X117611000Y-126788084D01*
X117611000Y-126460606D01*
X118843803Y-125227803D01*
X118871666Y-125185789D01*
X118881000Y-125138000D01*
X118881000Y-123153796D01*
X118920906Y-123193702D01*
X118998739Y-123115869D01*
X119113903Y-123328518D01*
X119663243Y-123527202D01*
X120151048Y-123504914D01*
X120150677Y-123505285D01*
X120226914Y-123581522D01*
X119924508Y-123802171D01*
X119581662Y-124664223D01*
X119594806Y-125591858D01*
X119924508Y-126387829D01*
X120226916Y-126608479D01*
X121740395Y-125095000D01*
X122099605Y-125095000D01*
X123613084Y-126608479D01*
X123915492Y-126387829D01*
X124258338Y-125525777D01*
X124246131Y-124664223D01*
X131011662Y-124664223D01*
X131024806Y-125591858D01*
X131354508Y-126387829D01*
X131656916Y-126608479D01*
X133170395Y-125095000D01*
X131656916Y-123581521D01*
X131354508Y-123802171D01*
X131011662Y-124664223D01*
X124246131Y-124664223D01*
X124245194Y-124598142D01*
X123915492Y-123802171D01*
X123613084Y-123581521D01*
X122099605Y-125095000D01*
X121740395Y-125095000D01*
X121726253Y-125080858D01*
X121905858Y-124901253D01*
X121920000Y-124915395D01*
X123433479Y-123401916D01*
X123212829Y-123099508D01*
X122350777Y-122756662D01*
X121423142Y-122769806D01*
X120975736Y-122955128D01*
X120956869Y-122936261D01*
X121169518Y-122821097D01*
X121368202Y-122271757D01*
X121341539Y-121688199D01*
X121169518Y-121272903D01*
X120956867Y-121157738D01*
X120067605Y-122047000D01*
X120081748Y-122061143D01*
X119902143Y-122240748D01*
X119888000Y-122226605D01*
X119873858Y-122240748D01*
X119694253Y-122061143D01*
X119708395Y-122047000D01*
X119694253Y-122032858D01*
X119873858Y-121853253D01*
X119888000Y-121867395D01*
X120777262Y-120978133D01*
X120760401Y-120947000D01*
X121998372Y-120947000D01*
X123738423Y-122935630D01*
X123778490Y-122966226D01*
X123834000Y-122979000D01*
X132348103Y-122979000D01*
X132057171Y-123099508D01*
X131836521Y-123401916D01*
X133350000Y-124915395D01*
X133364143Y-124901253D01*
X133543748Y-125080858D01*
X133529605Y-125095000D01*
X135043084Y-126608479D01*
X135345492Y-126387829D01*
X135374034Y-126316061D01*
X139063544Y-126316061D01*
X139320153Y-126649136D01*
X140288918Y-127041178D01*
X141333969Y-127032646D01*
X142259847Y-126649136D01*
X142516456Y-126316061D01*
X140790000Y-124589605D01*
X139063544Y-126316061D01*
X135374034Y-126316061D01*
X135688338Y-125525777D01*
X135675194Y-124598142D01*
X135389709Y-123908918D01*
X138158822Y-123908918D01*
X138167354Y-124953969D01*
X138550864Y-125879847D01*
X138883939Y-126136456D01*
X140610395Y-124410000D01*
X140969605Y-124410000D01*
X142696061Y-126136456D01*
X143029136Y-125879847D01*
X143421178Y-124911082D01*
X143412646Y-123866031D01*
X143029136Y-122940153D01*
X142696061Y-122683544D01*
X140969605Y-124410000D01*
X140610395Y-124410000D01*
X138883939Y-122683544D01*
X138550864Y-122940153D01*
X138158822Y-123908918D01*
X135389709Y-123908918D01*
X135345492Y-123802171D01*
X135043086Y-123581522D01*
X135113299Y-123511309D01*
X135157243Y-123527202D01*
X135740801Y-123500539D01*
X136156097Y-123328518D01*
X136271262Y-123115867D01*
X135973997Y-122818602D01*
X136145049Y-122630444D01*
X136450867Y-122936262D01*
X136663518Y-122821097D01*
X136778226Y-122503939D01*
X139063544Y-122503939D01*
X140790000Y-124230395D01*
X142516456Y-122503939D01*
X142259847Y-122170864D01*
X141291082Y-121778822D01*
X140246031Y-121787354D01*
X139320153Y-122170864D01*
X139063544Y-122503939D01*
X136778226Y-122503939D01*
X136862202Y-122271757D01*
X136843487Y-121862162D01*
X138368180Y-120185000D01*
X145730000Y-120185000D01*
X145730000Y-129000000D01*
X145730000Y-129000000D01*
G37*
X145730000Y-129000000D02*
X117611000Y-129000000D01*
X117611000Y-126788084D01*
X120406521Y-126788084D01*
X120627171Y-127090492D01*
X121489223Y-127433338D01*
X122416858Y-127420194D01*
X123212829Y-127090492D01*
X123433479Y-126788084D01*
X131836521Y-126788084D01*
X132057171Y-127090492D01*
X132919223Y-127433338D01*
X133846858Y-127420194D01*
X134642829Y-127090492D01*
X134863479Y-126788084D01*
X133350000Y-125274605D01*
X131836521Y-126788084D01*
X123433479Y-126788084D01*
X121920000Y-125274605D01*
X120406521Y-126788084D01*
X117611000Y-126788084D01*
X117611000Y-126460606D01*
X118843803Y-125227803D01*
X118871666Y-125185789D01*
X118881000Y-125138000D01*
X118881000Y-123153796D01*
X118920906Y-123193702D01*
X118998739Y-123115869D01*
X119113903Y-123328518D01*
X119663243Y-123527202D01*
X120151048Y-123504914D01*
X120150677Y-123505285D01*
X120226914Y-123581522D01*
X119924508Y-123802171D01*
X119581662Y-124664223D01*
X119594806Y-125591858D01*
X119924508Y-126387829D01*
X120226916Y-126608479D01*
X121740395Y-125095000D01*
X122099605Y-125095000D01*
X123613084Y-126608479D01*
X123915492Y-126387829D01*
X124258338Y-125525777D01*
X124246131Y-124664223D01*
X131011662Y-124664223D01*
X131024806Y-125591858D01*
X131354508Y-126387829D01*
X131656916Y-126608479D01*
X133170395Y-125095000D01*
X131656916Y-123581521D01*
X131354508Y-123802171D01*
X131011662Y-124664223D01*
X124246131Y-124664223D01*
X124245194Y-124598142D01*
X123915492Y-123802171D01*
X123613084Y-123581521D01*
X122099605Y-125095000D01*
X121740395Y-125095000D01*
X121726253Y-125080858D01*
X121905858Y-124901253D01*
X121920000Y-124915395D01*
X123433479Y-123401916D01*
X123212829Y-123099508D01*
X122350777Y-122756662D01*
X121423142Y-122769806D01*
X120975736Y-122955128D01*
X120956869Y-122936261D01*
X121169518Y-122821097D01*
X121368202Y-122271757D01*
X121341539Y-121688199D01*
X121169518Y-121272903D01*
X120956867Y-121157738D01*
X120067605Y-122047000D01*
X120081748Y-122061143D01*
X119902143Y-122240748D01*
X119888000Y-122226605D01*
X119873858Y-122240748D01*
X119694253Y-122061143D01*
X119708395Y-122047000D01*
X119694253Y-122032858D01*
X119873858Y-121853253D01*
X119888000Y-121867395D01*
X120777262Y-120978133D01*
X120760401Y-120947000D01*
X121998372Y-120947000D01*
X123738423Y-122935630D01*
X123778490Y-122966226D01*
X123834000Y-122979000D01*
X132348103Y-122979000D01*
X132057171Y-123099508D01*
X131836521Y-123401916D01*
X133350000Y-124915395D01*
X133364143Y-124901253D01*
X133543748Y-125080858D01*
X133529605Y-125095000D01*
X135043084Y-126608479D01*
X135345492Y-126387829D01*
X135374034Y-126316061D01*
X139063544Y-126316061D01*
X139320153Y-126649136D01*
X140288918Y-127041178D01*
X141333969Y-127032646D01*
X142259847Y-126649136D01*
X142516456Y-126316061D01*
X140790000Y-124589605D01*
X139063544Y-126316061D01*
X135374034Y-126316061D01*
X135688338Y-125525777D01*
X135675194Y-124598142D01*
X135389709Y-123908918D01*
X138158822Y-123908918D01*
X138167354Y-124953969D01*
X138550864Y-125879847D01*
X138883939Y-126136456D01*
X140610395Y-124410000D01*
X140969605Y-124410000D01*
X142696061Y-126136456D01*
X143029136Y-125879847D01*
X143421178Y-124911082D01*
X143412646Y-123866031D01*
X143029136Y-122940153D01*
X142696061Y-122683544D01*
X140969605Y-124410000D01*
X140610395Y-124410000D01*
X138883939Y-122683544D01*
X138550864Y-122940153D01*
X138158822Y-123908918D01*
X135389709Y-123908918D01*
X135345492Y-123802171D01*
X135043086Y-123581522D01*
X135113299Y-123511309D01*
X135157243Y-123527202D01*
X135740801Y-123500539D01*
X136156097Y-123328518D01*
X136271262Y-123115867D01*
X135973997Y-122818602D01*
X136145049Y-122630444D01*
X136450867Y-122936262D01*
X136663518Y-122821097D01*
X136778226Y-122503939D01*
X139063544Y-122503939D01*
X140790000Y-124230395D01*
X142516456Y-122503939D01*
X142259847Y-122170864D01*
X141291082Y-121778822D01*
X140246031Y-121787354D01*
X139320153Y-122170864D01*
X139063544Y-122503939D01*
X136778226Y-122503939D01*
X136862202Y-122271757D01*
X136843487Y-121862162D01*
X138368180Y-120185000D01*
X145730000Y-120185000D01*
X145730000Y-129000000D01*
M02*
