M48
;DRILL file {KiCad 4.0.2+dfsg1-2~bpo8+1-stable} date lun 17 oct 2016 17:04:08 ART
;FORMAT={-:-/ absolute / inch / decimal}
FMAT,2
INCH,TZ
T1C0.020
T2C0.035
T3C0.040
T4C0.062
T5C0.087
T6C0.128
%
G90
G05
M72
T1
X3.6404Y-2.7517
X3.6404Y-2.8067
X3.6404Y-3.0617
X3.6404Y-3.1767
X3.6404Y-3.3067
X3.6954Y-2.7517
X3.7454Y-3.3067
X3.7454Y-3.4067
X3.7554Y-3.1367
X3.7554Y-3.1867
X3.7554Y-3.2367
X3.8054Y-3.1367
X3.8054Y-3.1867
X3.8054Y-3.2367
X3.8754Y-3.0117
X4.035Y-4.3783
X4.0354Y-3.8567
X4.0354Y-3.9567
X4.0354Y-4.0667
X4.0354Y-5.2467
X4.0454Y-3.4567
X4.0454Y-3.5567
X4.0554Y-3.1367
X4.0554Y-3.2367
X4.0554Y-3.2867
X4.0554Y-4.5067
X4.0554Y-4.6067
X4.0554Y-4.7067
X4.0554Y-4.8067
X4.0554Y-4.9067
X4.0554Y-5.0067
X4.0554Y-5.1067
X4.1295Y-4.1461
X4.1295Y-4.3783
X4.1304Y-3.4567
X4.1304Y-3.6567
X4.1304Y-3.7517
X4.1304Y-3.8567
X4.1304Y-3.9567
X4.1304Y-4.0667
X4.1554Y-4.5067
X4.1554Y-4.6067
X4.1554Y-4.7067
X4.1554Y-4.8067
X4.1554Y-4.9067
X4.1554Y-5.0067
X4.1554Y-5.1067
X4.1654Y-2.8467
X4.1804Y-3.5567
X4.1804Y-3.6567
X4.1954Y-2.7567
X4.2358Y-4.1421
X4.2358Y-4.2248
X4.2358Y-4.3154
X4.2404Y-3.5567
X4.2754Y-3.0717
X4.2754Y-5.2467
X4.2909Y-3.7287
X4.2988Y-3.0201
X4.3054Y-3.2917
X4.3067Y-3.8547
X4.3067Y-3.9571
X4.3067Y-4.0673
X4.3067Y-4.1421
X4.3067Y-4.2248
X4.3067Y-4.3154
X4.3354Y-4.8667
X4.3354Y-4.9467
X4.3404Y-3.3567
X4.3894Y-2.9295
X4.4154Y-4.8667
X4.4154Y-4.9467
X4.4254Y-4.1267
X4.4254Y-4.2267
X4.4254Y-4.3267
X4.4362Y-3.0167
X4.4954Y-4.0567
X4.4954Y-4.1267
X4.5554Y-4.9867
X4.5754Y-4.0567
X4.5754Y-4.1267
X4.5954Y-3.4367
X4.5954Y-3.5267
X4.5954Y-3.6167
X4.5954Y-3.7067
X4.5954Y-4.9467
X4.6453Y-3.1972
X4.6453Y-3.3823
X4.6554Y-4.0567
X4.6554Y-4.1267
X4.6744Y-2.9727
X4.6854Y-3.4367
X4.6854Y-3.5267
X4.6854Y-3.6167
X4.6854Y-3.7067
X4.7319Y-3.7917
X4.7454Y-5.0367
X4.7754Y-3.0117
X4.8254Y-5.0367
X4.8354Y-3.0117
X4.8404Y-3.0817
X4.8704Y-3.3267
X4.9154Y-5.0367
X4.9654Y-3.2317
X4.9804Y-3.0447
X5.0054Y-5.0367
X5.0154Y-3.6267
X5.0904Y-3.7117
X5.1054Y-5.0367
X5.1144Y-3.2187
X5.1654Y-2.8617
X5.1654Y-3.2817
X5.1744Y-3.4257
X5.2154Y-5.0367
X5.2254Y-2.8617
X5.2254Y-2.9167
X5.3044Y-3.4437
X5.3254Y-3.7067
X5.3254Y-3.7867
X5.3254Y-3.8567
X5.3254Y-3.9267
X5.3354Y-2.7467
X5.3354Y-5.0367
X5.3404Y-3.3067
X5.3704Y-3.6267
X5.3744Y-3.5677
X5.3904Y-2.7467
X5.3904Y-2.8017
X5.3904Y-2.8617
X5.3904Y-3.0367
X5.3904Y-3.0917
X5.3904Y-3.1517
X5.4254Y-3.7067
X5.4254Y-3.7867
X5.4254Y-3.8567
X5.4254Y-3.9267
X5.4254Y-3.9867
X5.4254Y-4.0567
X5.4254Y-4.1267
X5.4254Y-4.1967
X5.4254Y-4.3167
X5.4254Y-4.3867
X5.4404Y-3.1967
X5.4554Y-5.0367
X5.4954Y-4.5067
X5.4954Y-4.5767
X5.4954Y-4.6467
X5.5754Y-5.0367
X5.6854Y-4.7667
X5.6854Y-4.8467
X5.6854Y-4.9467
X5.6854Y-5.0367
T2
X4.8Y-4.575
X4.85Y-4.475
X4.85Y-4.675
X4.9Y-4.575
X5.05Y-4.675
X5.1Y-4.575
X5.15Y-4.675
X5.2Y-4.575
X5.25Y-4.675
T3
X3.8404Y-3.3067
X3.8404Y-3.4067
X3.8404Y-3.5067
X3.8404Y-3.6067
X3.8404Y-3.7067
X3.8404Y-3.8067
X3.8404Y-3.9067
X3.8404Y-4.0067
X3.8404Y-4.1067
X3.8404Y-4.2067
X3.8404Y-4.3067
X3.8404Y-4.4067
X3.8404Y-4.5067
X3.8404Y-4.6067
X3.8404Y-4.7067
X3.8404Y-4.8067
X3.8404Y-4.9067
X3.8404Y-5.0067
X3.8404Y-5.1067
X3.8404Y-5.2067
X3.9404Y-3.3067
X3.9404Y-3.4067
X3.9404Y-3.5067
X3.9404Y-3.6067
X3.9404Y-3.7067
X3.9404Y-3.8067
X3.9404Y-3.9067
X3.9404Y-4.0067
X3.9404Y-4.1067
X3.9404Y-4.2067
X3.9404Y-4.3067
X3.9404Y-4.4067
X3.9404Y-4.5067
X3.9404Y-4.6067
X3.9404Y-4.7067
X3.9404Y-4.8067
X3.9404Y-4.9067
X3.9404Y-5.0067
X3.9404Y-5.1067
X3.9404Y-5.2067
X4.425Y-4.435
X4.425Y-4.535
X4.425Y-4.635
X4.425Y-4.735
X4.525Y-4.435
X4.525Y-4.535
X4.525Y-4.635
X4.525Y-4.735
X4.8Y-4.385
X4.9Y-4.385
X5.14Y-4.385
X5.24Y-4.385
T4
X4.72Y-4.805
X5.33Y-4.805
T5
X5.5429Y-2.8508
X5.5429Y-4.898
T6
X4.8Y-4.925
X5.25Y-4.925
T0
M30
