G04 #@! TF.FileFunction,Paste,Top*
%FSLAX46Y46*%
G04 Gerber Fmt 4.6, Leading zero omitted, Abs format (unit mm)*
G04 Created by KiCad (PCBNEW 4.0.2+dfsg1-2~bpo8+1-stable) date lun 17 oct 2016 17:04:15 ART*
%MOMM*%
G01*
G04 APERTURE LIST*
%ADD10C,0.100000*%
%ADD11C,0.150000*%
%ADD12R,0.635000X1.143000*%
%ADD13R,1.143000X0.635000*%
%ADD14R,2.499360X2.499360*%
%ADD15O,0.800100X0.248920*%
%ADD16O,0.248920X0.800100*%
%ADD17R,1.998980X1.998980*%
%ADD18R,2.000000X2.200000*%
%ADD19R,0.899160X1.000760*%
%ADD20R,1.000760X0.899160*%
%ADD21R,1.803400X1.600200*%
%ADD22R,1.600200X1.803400*%
G04 APERTURE END LIST*
D10*
D11*
X91195000Y-68750000D02*
X91195000Y-134155000D01*
X146440000Y-68750000D02*
X91195000Y-68750000D01*
X146440000Y-129710000D02*
X146440000Y-68750000D01*
X114690000Y-129710000D02*
X146440000Y-129710000D01*
X110245000Y-134155000D02*
X114690000Y-129710000D01*
X91195000Y-134155000D02*
X110245000Y-134155000D01*
D12*
X134248000Y-84244000D03*
X132724000Y-84244000D03*
D13*
X121412000Y-78232000D03*
X121412000Y-79756000D03*
X117230000Y-78021000D03*
X117230000Y-76497000D03*
X126628000Y-91356000D03*
X126628000Y-89832000D03*
X123072000Y-91356000D03*
X123072000Y-89832000D03*
X133232000Y-90340000D03*
X133232000Y-88816000D03*
X128152000Y-91356000D03*
X128152000Y-89832000D03*
D12*
X106689000Y-99230000D03*
X108213000Y-99230000D03*
X106689000Y-101643000D03*
X108213000Y-101643000D03*
X110880000Y-82212000D03*
X112404000Y-82212000D03*
D13*
X127644000Y-74465000D03*
X127644000Y-75989000D03*
X129485500Y-74465000D03*
X129485500Y-75989000D03*
X124342000Y-76624000D03*
X124342000Y-78148000D03*
D12*
X106689000Y-96690000D03*
X108213000Y-96690000D03*
X110880000Y-79799000D03*
X112404000Y-79799000D03*
D13*
X119380000Y-78232000D03*
X119380000Y-79756000D03*
D12*
X132724000Y-81704000D03*
X131200000Y-81704000D03*
D13*
X120786000Y-104818000D03*
X120786000Y-106342000D03*
X141233000Y-106469000D03*
X141233000Y-104945000D03*
D12*
X129549000Y-85514000D03*
X131073000Y-85514000D03*
X97528000Y-78160000D03*
X99052000Y-78160000D03*
X103768000Y-70274000D03*
X105292000Y-70274000D03*
D13*
X119897000Y-74846000D03*
X119897000Y-76370000D03*
X93354000Y-73449000D03*
X93354000Y-74973000D03*
D12*
X117992000Y-128694000D03*
X116468000Y-128694000D03*
D14*
X126000000Y-82000000D03*
D15*
X127998980Y-83249680D03*
X127998980Y-82749300D03*
X127998980Y-82248920D03*
X127998980Y-81751080D03*
X127998980Y-81250700D03*
X127998980Y-80750320D03*
D16*
X127249680Y-80001020D03*
X126749300Y-80001020D03*
X126248920Y-80001020D03*
X125751080Y-80001020D03*
X125250700Y-80001020D03*
X124750320Y-80001020D03*
D15*
X124001020Y-80750320D03*
X124001020Y-81250700D03*
X124001020Y-81751080D03*
X124001020Y-82248920D03*
X124001020Y-82749300D03*
X124001020Y-83249680D03*
D16*
X124750320Y-83998980D03*
X125250700Y-83998980D03*
X125751080Y-83998980D03*
X126248920Y-83998980D03*
X126749300Y-83998980D03*
X127249680Y-83998980D03*
D17*
X108290000Y-122220000D03*
X108290000Y-118410000D03*
X108290000Y-114600000D03*
D13*
X115290000Y-78248000D03*
X115290000Y-79772000D03*
D18*
X101040000Y-71560000D03*
X96040000Y-71560000D03*
X96040000Y-75760000D03*
X101040000Y-75760000D03*
D19*
X132734160Y-86022000D03*
X134237840Y-86022000D03*
D20*
X120786000Y-88932840D03*
X120786000Y-87429160D03*
D19*
X115568840Y-76878000D03*
X114065160Y-76878000D03*
D20*
X126120000Y-76105840D03*
X126120000Y-74602160D03*
D19*
X131248160Y-78000000D03*
X132751840Y-78000000D03*
X131248160Y-76000000D03*
X132751840Y-76000000D03*
D20*
X126628000Y-92890160D03*
X126628000Y-94393840D03*
X128152000Y-92890160D03*
X128152000Y-94393840D03*
X128152000Y-106458840D03*
X128152000Y-104955160D03*
X123580000Y-106331840D03*
X123580000Y-104828160D03*
D19*
X133496160Y-108628000D03*
X134999840Y-108628000D03*
D20*
X129676000Y-106458840D03*
X129676000Y-104955160D03*
X103641000Y-74327840D03*
X103641000Y-72824160D03*
D21*
X136534000Y-88689000D03*
X136534000Y-85895000D03*
D22*
X121675000Y-74846000D03*
X124469000Y-74846000D03*
X114309000Y-74719000D03*
X117103000Y-74719000D03*
M02*
