G04 #@! TF.FileFunction,Soldermask,Bot*
%FSLAX46Y46*%
G04 Gerber Fmt 4.6, Leading zero omitted, Abs format (unit mm)*
G04 Created by KiCad (PCBNEW 4.0.2+dfsg1-2~bpo8+1-stable) date lun 17 oct 2016 17:04:15 ART*
%MOMM*%
G01*
G04 APERTURE LIST*
%ADD10C,0.100000*%
%ADD11C,0.150000*%
%ADD12R,2.400000X1.924000*%
%ADD13O,2.400000X1.924000*%
%ADD14C,1.924000*%
%ADD15C,1.797000*%
%ADD16C,2.482800*%
%ADD17C,4.210000*%
%ADD18R,2.000200X2.000200*%
%ADD19C,2.000200*%
%ADD20C,4.800000*%
%ADD21C,0.254000*%
G04 APERTURE END LIST*
D10*
D11*
X91195000Y-68750000D02*
X91195000Y-134155000D01*
X146440000Y-68750000D02*
X91195000Y-68750000D01*
X146440000Y-129710000D02*
X146440000Y-68750000D01*
X114690000Y-129710000D02*
X146440000Y-129710000D01*
X110245000Y-134155000D02*
X114690000Y-129710000D01*
X91195000Y-134155000D02*
X110245000Y-134155000D01*
D12*
X97545000Y-83990000D03*
D13*
X100085000Y-83990000D03*
X97545000Y-86530000D03*
X100085000Y-86530000D03*
X97545000Y-89070000D03*
X100085000Y-89070000D03*
X97545000Y-91610000D03*
X100085000Y-91610000D03*
X97545000Y-94150000D03*
X100085000Y-94150000D03*
X97545000Y-96690000D03*
X100085000Y-96690000D03*
X97545000Y-99230000D03*
X100085000Y-99230000D03*
X97545000Y-101770000D03*
X100085000Y-101770000D03*
X97545000Y-104310000D03*
X100085000Y-104310000D03*
X97545000Y-106850000D03*
X100085000Y-106850000D03*
X97545000Y-109390000D03*
X100085000Y-109390000D03*
X97545000Y-111930000D03*
X100085000Y-111930000D03*
X97545000Y-114470000D03*
X100085000Y-114470000D03*
X97545000Y-117010000D03*
X100085000Y-117010000D03*
X97545000Y-119550000D03*
X100085000Y-119550000D03*
X97545000Y-122090000D03*
X100085000Y-122090000D03*
X97545000Y-124630000D03*
X100085000Y-124630000D03*
X97545000Y-127170000D03*
X100085000Y-127170000D03*
X97545000Y-129710000D03*
X100085000Y-129710000D03*
X97545000Y-132250000D03*
X100085000Y-132250000D03*
D14*
X124460000Y-111379000D03*
D15*
X121920000Y-116205000D03*
X124460000Y-116205000D03*
X123190000Y-118745000D03*
X123190000Y-113665000D03*
D14*
X121920000Y-111379000D03*
D16*
X135382000Y-122047000D03*
D17*
X133350000Y-125095000D03*
D15*
X133350000Y-118745000D03*
D17*
X121920000Y-125095000D03*
D16*
X119888000Y-122047000D03*
D15*
X130810000Y-118745000D03*
X128270000Y-118745000D03*
X132080000Y-116205000D03*
X129540000Y-116205000D03*
D14*
X133096000Y-111379000D03*
X130556000Y-111379000D03*
D18*
X114935000Y-120269000D03*
D19*
X112395000Y-120269000D03*
X114935000Y-117729000D03*
X112395000Y-117729000D03*
X114935000Y-115189000D03*
X112395000Y-115189000D03*
X114935000Y-112649000D03*
X112395000Y-112649000D03*
D20*
X140790000Y-124410000D03*
X140790000Y-72410000D03*
D21*
G36*
X145913000Y-113783000D02*
X143417000Y-113783000D01*
X143417000Y-89037000D01*
X145913000Y-89037000D01*
X145913000Y-113783000D01*
X145913000Y-113783000D01*
G37*
X145913000Y-113783000D02*
X143417000Y-113783000D01*
X143417000Y-89037000D01*
X145913000Y-89037000D01*
X145913000Y-113783000D01*
M02*
