G04 #@! TF.FileFunction,Soldermask,Top*
%FSLAX46Y46*%
G04 Gerber Fmt 4.6, Leading zero omitted, Abs format (unit mm)*
G04 Created by KiCad (PCBNEW 4.0.2+dfsg1-2~bpo8+1-stable) date lun 17 oct 2016 17:04:15 ART*
%MOMM*%
G01*
G04 APERTURE LIST*
%ADD10C,0.100000*%
%ADD11C,0.150000*%
%ADD12R,2.400000X1.924000*%
%ADD13O,2.400000X1.924000*%
%ADD14C,1.924000*%
%ADD15C,1.797000*%
%ADD16C,2.482800*%
%ADD17C,4.210000*%
%ADD18R,1.035000X1.543000*%
%ADD19R,2.000200X2.000200*%
%ADD20C,2.000200*%
%ADD21R,1.543000X1.035000*%
%ADD22R,2.699360X2.699360*%
%ADD23O,1.000100X0.448920*%
%ADD24O,0.448920X1.000100*%
%ADD25R,2.398980X2.398980*%
%ADD26C,2.540000*%
%ADD27C,4.800000*%
%ADD28R,2.101600X2.301600*%
%ADD29R,1.299160X1.400760*%
%ADD30R,1.400760X1.299160*%
%ADD31R,2.203400X2.000200*%
%ADD32R,2.000200X2.203400*%
G04 APERTURE END LIST*
D10*
D11*
X91195000Y-68750000D02*
X91195000Y-134155000D01*
X146440000Y-68750000D02*
X91195000Y-68750000D01*
X146440000Y-129710000D02*
X146440000Y-68750000D01*
X114690000Y-129710000D02*
X146440000Y-129710000D01*
X110245000Y-134155000D02*
X114690000Y-129710000D01*
X91195000Y-134155000D02*
X110245000Y-134155000D01*
D12*
X97545000Y-83990000D03*
D13*
X100085000Y-83990000D03*
X97545000Y-86530000D03*
X100085000Y-86530000D03*
X97545000Y-89070000D03*
X100085000Y-89070000D03*
X97545000Y-91610000D03*
X100085000Y-91610000D03*
X97545000Y-94150000D03*
X100085000Y-94150000D03*
X97545000Y-96690000D03*
X100085000Y-96690000D03*
X97545000Y-99230000D03*
X100085000Y-99230000D03*
X97545000Y-101770000D03*
X100085000Y-101770000D03*
X97545000Y-104310000D03*
X100085000Y-104310000D03*
X97545000Y-106850000D03*
X100085000Y-106850000D03*
X97545000Y-109390000D03*
X100085000Y-109390000D03*
X97545000Y-111930000D03*
X100085000Y-111930000D03*
X97545000Y-114470000D03*
X100085000Y-114470000D03*
X97545000Y-117010000D03*
X100085000Y-117010000D03*
X97545000Y-119550000D03*
X100085000Y-119550000D03*
X97545000Y-122090000D03*
X100085000Y-122090000D03*
X97545000Y-124630000D03*
X100085000Y-124630000D03*
X97545000Y-127170000D03*
X100085000Y-127170000D03*
X97545000Y-129710000D03*
X100085000Y-129710000D03*
X97545000Y-132250000D03*
X100085000Y-132250000D03*
D14*
X124460000Y-111379000D03*
D15*
X121920000Y-116205000D03*
X124460000Y-116205000D03*
X123190000Y-118745000D03*
X123190000Y-113665000D03*
D14*
X121920000Y-111379000D03*
D16*
X135382000Y-122047000D03*
D17*
X133350000Y-125095000D03*
D15*
X133350000Y-118745000D03*
D17*
X121920000Y-125095000D03*
D16*
X119888000Y-122047000D03*
D15*
X130810000Y-118745000D03*
X128270000Y-118745000D03*
X132080000Y-116205000D03*
X129540000Y-116205000D03*
D14*
X133096000Y-111379000D03*
X130556000Y-111379000D03*
D18*
X134248000Y-84244000D03*
X132724000Y-84244000D03*
D19*
X114935000Y-120269000D03*
D20*
X112395000Y-120269000D03*
X114935000Y-117729000D03*
X112395000Y-117729000D03*
X114935000Y-115189000D03*
X112395000Y-115189000D03*
X114935000Y-112649000D03*
X112395000Y-112649000D03*
D21*
X121412000Y-78232000D03*
X121412000Y-79756000D03*
X117230000Y-78021000D03*
X117230000Y-76497000D03*
X126628000Y-91356000D03*
X126628000Y-89832000D03*
X123072000Y-91356000D03*
X123072000Y-89832000D03*
X133232000Y-90340000D03*
X133232000Y-88816000D03*
X128152000Y-91356000D03*
X128152000Y-89832000D03*
D18*
X106689000Y-99230000D03*
X108213000Y-99230000D03*
X106689000Y-101643000D03*
X108213000Y-101643000D03*
X110880000Y-82212000D03*
X112404000Y-82212000D03*
D21*
X127644000Y-74465000D03*
X127644000Y-75989000D03*
X129485500Y-74465000D03*
X129485500Y-75989000D03*
X124342000Y-76624000D03*
X124342000Y-78148000D03*
D18*
X106689000Y-96690000D03*
X108213000Y-96690000D03*
X110880000Y-79799000D03*
X112404000Y-79799000D03*
D21*
X119380000Y-78232000D03*
X119380000Y-79756000D03*
D18*
X132724000Y-81704000D03*
X131200000Y-81704000D03*
D21*
X120786000Y-104818000D03*
X120786000Y-106342000D03*
X141233000Y-106469000D03*
X141233000Y-104945000D03*
D18*
X129549000Y-85514000D03*
X131073000Y-85514000D03*
X97528000Y-78160000D03*
X99052000Y-78160000D03*
X103768000Y-70274000D03*
X105292000Y-70274000D03*
D21*
X119897000Y-74846000D03*
X119897000Y-76370000D03*
X93354000Y-73449000D03*
X93354000Y-74973000D03*
D18*
X117992000Y-128694000D03*
X116468000Y-128694000D03*
D22*
X126000000Y-82000000D03*
D23*
X127998980Y-83249680D03*
X127998980Y-82749300D03*
X127998980Y-82248920D03*
X127998980Y-81751080D03*
X127998980Y-81250700D03*
X127998980Y-80750320D03*
D24*
X127249680Y-80001020D03*
X126749300Y-80001020D03*
X126248920Y-80001020D03*
X125751080Y-80001020D03*
X125250700Y-80001020D03*
X124750320Y-80001020D03*
D23*
X124001020Y-80750320D03*
X124001020Y-81250700D03*
X124001020Y-81751080D03*
X124001020Y-82248920D03*
X124001020Y-82749300D03*
X124001020Y-83249680D03*
D24*
X124750320Y-83998980D03*
X125250700Y-83998980D03*
X125751080Y-83998980D03*
X126248920Y-83998980D03*
X126749300Y-83998980D03*
X127249680Y-83998980D03*
D25*
X108290000Y-122220000D03*
X108290000Y-118410000D03*
X108290000Y-114600000D03*
D21*
X115290000Y-78248000D03*
X115290000Y-79772000D03*
D26*
X142790000Y-117410000D03*
X142790000Y-76410000D03*
X100790000Y-79910000D03*
D27*
X140790000Y-124410000D03*
X140790000Y-72410000D03*
D28*
X101040000Y-71560000D03*
X96040000Y-71560000D03*
X96040000Y-75760000D03*
X101040000Y-75760000D03*
D29*
X132734160Y-86022000D03*
X134237840Y-86022000D03*
D30*
X120786000Y-88932840D03*
X120786000Y-87429160D03*
D29*
X115568840Y-76878000D03*
X114065160Y-76878000D03*
D30*
X126120000Y-76105840D03*
X126120000Y-74602160D03*
D29*
X131248160Y-78000000D03*
X132751840Y-78000000D03*
X131248160Y-76000000D03*
X132751840Y-76000000D03*
D30*
X126628000Y-92890160D03*
X126628000Y-94393840D03*
X128152000Y-92890160D03*
X128152000Y-94393840D03*
X128152000Y-106458840D03*
X128152000Y-104955160D03*
X123580000Y-106331840D03*
X123580000Y-104828160D03*
D29*
X133496160Y-108628000D03*
X134999840Y-108628000D03*
D30*
X129676000Y-106458840D03*
X129676000Y-104955160D03*
X103641000Y-74327840D03*
X103641000Y-72824160D03*
D31*
X136534000Y-88689000D03*
X136534000Y-85895000D03*
D32*
X121675000Y-74846000D03*
X124469000Y-74846000D03*
X114309000Y-74719000D03*
X117103000Y-74719000D03*
M02*
