G04 #@! TF.FileFunction,Legend,Top*
%FSLAX46Y46*%
G04 Gerber Fmt 4.6, Leading zero omitted, Abs format (unit mm)*
G04 Created by KiCad (PCBNEW 4.0.2+dfsg1-2~bpo8+1-stable) date lun 17 oct 2016 17:04:15 ART*
%MOMM*%
G01*
G04 APERTURE LIST*
%ADD10C,0.100000*%
%ADD11C,0.200000*%
%ADD12C,0.250000*%
%ADD13C,0.300000*%
%ADD14C,0.150000*%
%ADD15C,0.203200*%
%ADD16C,0.127000*%
%ADD17C,0.000120*%
%ADD18C,0.149860*%
%ADD19C,0.200660*%
%ADD20C,0.002540*%
%ADD21C,0.254000*%
%ADD22C,0.120000*%
%ADD23C,0.170000*%
%ADD24C,0.175000*%
%ADD25C,0.114300*%
%ADD26C,0.119380*%
G04 APERTURE END LIST*
D10*
D11*
X111290000Y-122910000D02*
X112290000Y-122910000D01*
X114944000Y-93769000D02*
X114944000Y-86530000D01*
X108975000Y-93769000D02*
X114944000Y-93769000D01*
X108975000Y-86403000D02*
X108975000Y-93769000D01*
X114944000Y-86403000D02*
X108975000Y-86403000D01*
X110753000Y-102405000D02*
X125739000Y-102405000D01*
X110753000Y-96563000D02*
X110753000Y-102405000D01*
D12*
X109434096Y-86798619D02*
X109434096Y-87689095D01*
X109486477Y-87793857D01*
X109538858Y-87846238D01*
X109643620Y-87898619D01*
X109853143Y-87898619D01*
X109957905Y-87846238D01*
X110010286Y-87793857D01*
X110062667Y-87689095D01*
X110062667Y-86798619D01*
X110586477Y-87898619D02*
X110586477Y-86798619D01*
X111215048Y-87898619D01*
X111215048Y-86798619D01*
X112262667Y-87898619D02*
X111738858Y-87898619D01*
X111738858Y-86798619D01*
X113100762Y-87898619D02*
X113100762Y-87322429D01*
X113048381Y-87217667D01*
X112943619Y-87165286D01*
X112734096Y-87165286D01*
X112629334Y-87217667D01*
X113100762Y-87846238D02*
X112996000Y-87898619D01*
X112734096Y-87898619D01*
X112629334Y-87846238D01*
X112576953Y-87741476D01*
X112576953Y-87636714D01*
X112629334Y-87531952D01*
X112734096Y-87479571D01*
X112996000Y-87479571D01*
X113100762Y-87427190D01*
X113624572Y-87898619D02*
X113624572Y-86798619D01*
X113991238Y-87584333D01*
X114357905Y-86798619D01*
X114357905Y-87898619D01*
X110010286Y-88693381D02*
X110062667Y-88641000D01*
X110167429Y-88588619D01*
X110429333Y-88588619D01*
X110534095Y-88641000D01*
X110586476Y-88693381D01*
X110638857Y-88798143D01*
X110638857Y-88902905D01*
X110586476Y-89060048D01*
X109957905Y-89688619D01*
X110638857Y-89688619D01*
X111319810Y-88588619D02*
X111424571Y-88588619D01*
X111529333Y-88641000D01*
X111581714Y-88693381D01*
X111634095Y-88798143D01*
X111686476Y-89007667D01*
X111686476Y-89269571D01*
X111634095Y-89479095D01*
X111581714Y-89583857D01*
X111529333Y-89636238D01*
X111424571Y-89688619D01*
X111319810Y-89688619D01*
X111215048Y-89636238D01*
X111162667Y-89583857D01*
X111110286Y-89479095D01*
X111057905Y-89269571D01*
X111057905Y-89007667D01*
X111110286Y-88798143D01*
X111162667Y-88693381D01*
X111215048Y-88641000D01*
X111319810Y-88588619D01*
X112734095Y-89688619D02*
X112105524Y-89688619D01*
X112419810Y-89688619D02*
X112419810Y-88588619D01*
X112315048Y-88745762D01*
X112210286Y-88850524D01*
X112105524Y-88902905D01*
X113676952Y-88588619D02*
X113467429Y-88588619D01*
X113362667Y-88641000D01*
X113310286Y-88693381D01*
X113205524Y-88850524D01*
X113153143Y-89060048D01*
X113153143Y-89479095D01*
X113205524Y-89583857D01*
X113257905Y-89636238D01*
X113362667Y-89688619D01*
X113572190Y-89688619D01*
X113676952Y-89636238D01*
X113729333Y-89583857D01*
X113781714Y-89479095D01*
X113781714Y-89217190D01*
X113729333Y-89112429D01*
X113676952Y-89060048D01*
X113572190Y-89007667D01*
X113362667Y-89007667D01*
X113257905Y-89060048D01*
X113205524Y-89112429D01*
X113153143Y-89217190D01*
X110455524Y-91478619D02*
X109931715Y-91478619D01*
X109931715Y-90378619D01*
X110769810Y-91164333D02*
X111293619Y-91164333D01*
X110665048Y-91478619D02*
X111031715Y-90378619D01*
X111398381Y-91478619D01*
X112393619Y-91373857D02*
X112341238Y-91426238D01*
X112184095Y-91478619D01*
X112079333Y-91478619D01*
X111922191Y-91426238D01*
X111817429Y-91321476D01*
X111765048Y-91216714D01*
X111712667Y-91007190D01*
X111712667Y-90850048D01*
X111765048Y-90640524D01*
X111817429Y-90535762D01*
X111922191Y-90431000D01*
X112079333Y-90378619D01*
X112184095Y-90378619D01*
X112341238Y-90431000D01*
X112393619Y-90483381D01*
X112865048Y-91478619D02*
X112865048Y-90378619D01*
X113388858Y-90902429D02*
X113755524Y-90902429D01*
X113912667Y-91478619D02*
X113388858Y-91478619D01*
X113388858Y-90378619D01*
X113912667Y-90378619D01*
X110534095Y-92221000D02*
X110429333Y-92168619D01*
X110272190Y-92168619D01*
X110115048Y-92221000D01*
X110010286Y-92325762D01*
X109957905Y-92430524D01*
X109905524Y-92640048D01*
X109905524Y-92797190D01*
X109957905Y-93006714D01*
X110010286Y-93111476D01*
X110115048Y-93216238D01*
X110272190Y-93268619D01*
X110376952Y-93268619D01*
X110534095Y-93216238D01*
X110586476Y-93163857D01*
X110586476Y-92797190D01*
X110376952Y-92797190D01*
X111057905Y-93268619D02*
X111057905Y-92168619D01*
X111476952Y-92168619D01*
X111581714Y-92221000D01*
X111634095Y-92273381D01*
X111686476Y-92378143D01*
X111686476Y-92535286D01*
X111634095Y-92640048D01*
X111581714Y-92692429D01*
X111476952Y-92744810D01*
X111057905Y-92744810D01*
X112786476Y-93163857D02*
X112734095Y-93216238D01*
X112576952Y-93268619D01*
X112472190Y-93268619D01*
X112315048Y-93216238D01*
X112210286Y-93111476D01*
X112157905Y-93006714D01*
X112105524Y-92797190D01*
X112105524Y-92640048D01*
X112157905Y-92430524D01*
X112210286Y-92325762D01*
X112315048Y-92221000D01*
X112472190Y-92168619D01*
X112576952Y-92168619D01*
X112734095Y-92221000D01*
X112786476Y-92273381D01*
X113624571Y-92692429D02*
X113781714Y-92744810D01*
X113834095Y-92797190D01*
X113886476Y-92901952D01*
X113886476Y-93059095D01*
X113834095Y-93163857D01*
X113781714Y-93216238D01*
X113676952Y-93268619D01*
X113257905Y-93268619D01*
X113257905Y-92168619D01*
X113624571Y-92168619D01*
X113729333Y-92221000D01*
X113781714Y-92273381D01*
X113834095Y-92378143D01*
X113834095Y-92482905D01*
X113781714Y-92587667D01*
X113729333Y-92640048D01*
X113624571Y-92692429D01*
X113257905Y-92692429D01*
D13*
X111292714Y-97919857D02*
X111292714Y-96719857D01*
X111749857Y-96719857D01*
X111864143Y-96777000D01*
X111921286Y-96834143D01*
X111978429Y-96948429D01*
X111978429Y-97119857D01*
X111921286Y-97234143D01*
X111864143Y-97291286D01*
X111749857Y-97348429D01*
X111292714Y-97348429D01*
X112721286Y-96719857D02*
X112949857Y-96719857D01*
X113064143Y-96777000D01*
X113178429Y-96891286D01*
X113235571Y-97119857D01*
X113235571Y-97519857D01*
X113178429Y-97748429D01*
X113064143Y-97862714D01*
X112949857Y-97919857D01*
X112721286Y-97919857D01*
X112607000Y-97862714D01*
X112492714Y-97748429D01*
X112435571Y-97519857D01*
X112435571Y-97119857D01*
X112492714Y-96891286D01*
X112607000Y-96777000D01*
X112721286Y-96719857D01*
X113749857Y-97919857D02*
X113749857Y-96719857D01*
X114435572Y-97919857D01*
X114435572Y-96719857D01*
X115692715Y-97805571D02*
X115635572Y-97862714D01*
X115464143Y-97919857D01*
X115349857Y-97919857D01*
X115178429Y-97862714D01*
X115064143Y-97748429D01*
X115007000Y-97634143D01*
X114949857Y-97405571D01*
X114949857Y-97234143D01*
X115007000Y-97005571D01*
X115064143Y-96891286D01*
X115178429Y-96777000D01*
X115349857Y-96719857D01*
X115464143Y-96719857D01*
X115635572Y-96777000D01*
X115692715Y-96834143D01*
X116207000Y-97919857D02*
X116207000Y-96719857D01*
X116207000Y-97291286D02*
X116892715Y-97291286D01*
X116892715Y-97919857D02*
X116892715Y-96719857D01*
X117692715Y-96719857D02*
X117921286Y-96719857D01*
X118035572Y-96777000D01*
X118149858Y-96891286D01*
X118207000Y-97119857D01*
X118207000Y-97519857D01*
X118149858Y-97748429D01*
X118035572Y-97862714D01*
X117921286Y-97919857D01*
X117692715Y-97919857D01*
X117578429Y-97862714D01*
X117464143Y-97748429D01*
X117407000Y-97519857D01*
X117407000Y-97119857D01*
X117464143Y-96891286D01*
X117578429Y-96777000D01*
X117692715Y-96719857D01*
X111292714Y-99271286D02*
X111692714Y-99271286D01*
X111864143Y-99899857D02*
X111292714Y-99899857D01*
X111292714Y-98699857D01*
X111864143Y-98699857D01*
X112207000Y-98699857D02*
X112892714Y-98699857D01*
X112549857Y-99899857D02*
X112549857Y-98699857D01*
X113292714Y-99899857D02*
X113292714Y-98699857D01*
X113292714Y-99271286D02*
X113978429Y-99271286D01*
X113978429Y-99899857D02*
X113978429Y-98699857D01*
X114549857Y-99271286D02*
X114949857Y-99271286D01*
X115121286Y-99899857D02*
X114549857Y-99899857D01*
X114549857Y-98699857D01*
X115121286Y-98699857D01*
X116321286Y-99899857D02*
X115921286Y-99328429D01*
X115635571Y-99899857D02*
X115635571Y-98699857D01*
X116092714Y-98699857D01*
X116207000Y-98757000D01*
X116264143Y-98814143D01*
X116321286Y-98928429D01*
X116321286Y-99099857D01*
X116264143Y-99214143D01*
X116207000Y-99271286D01*
X116092714Y-99328429D01*
X115635571Y-99328429D01*
X116835571Y-99899857D02*
X116835571Y-98699857D01*
X117521286Y-99899857D01*
X117521286Y-98699857D01*
X118092714Y-99271286D02*
X118492714Y-99271286D01*
X118664143Y-99899857D02*
X118092714Y-99899857D01*
X118092714Y-98699857D01*
X118664143Y-98699857D01*
X119007000Y-98699857D02*
X119692714Y-98699857D01*
X119349857Y-99899857D02*
X119349857Y-98699857D01*
X120892715Y-99099857D02*
X121178429Y-99899857D01*
X121464143Y-99099857D01*
X122149858Y-98699857D02*
X122264143Y-98699857D01*
X122378429Y-98757000D01*
X122435572Y-98814143D01*
X122492715Y-98928429D01*
X122549858Y-99157000D01*
X122549858Y-99442714D01*
X122492715Y-99671286D01*
X122435572Y-99785571D01*
X122378429Y-99842714D01*
X122264143Y-99899857D01*
X122149858Y-99899857D01*
X122035572Y-99842714D01*
X121978429Y-99785571D01*
X121921286Y-99671286D01*
X121864143Y-99442714D01*
X121864143Y-99157000D01*
X121921286Y-98928429D01*
X121978429Y-98814143D01*
X122035572Y-98757000D01*
X122149858Y-98699857D01*
X123064143Y-99785571D02*
X123121286Y-99842714D01*
X123064143Y-99899857D01*
X123007000Y-99842714D01*
X123064143Y-99785571D01*
X123064143Y-99899857D01*
X124264144Y-99899857D02*
X123578429Y-99899857D01*
X123921287Y-99899857D02*
X123921287Y-98699857D01*
X123807001Y-98871286D01*
X123692715Y-98985571D01*
X123578429Y-99042714D01*
X111292714Y-101879857D02*
X111292714Y-100679857D01*
X111749857Y-100679857D01*
X111864143Y-100737000D01*
X111921286Y-100794143D01*
X111978429Y-100908429D01*
X111978429Y-101079857D01*
X111921286Y-101194143D01*
X111864143Y-101251286D01*
X111749857Y-101308429D01*
X111292714Y-101308429D01*
X113178429Y-101879857D02*
X112778429Y-101308429D01*
X112492714Y-101879857D02*
X112492714Y-100679857D01*
X112949857Y-100679857D01*
X113064143Y-100737000D01*
X113121286Y-100794143D01*
X113178429Y-100908429D01*
X113178429Y-101079857D01*
X113121286Y-101194143D01*
X113064143Y-101251286D01*
X112949857Y-101308429D01*
X112492714Y-101308429D01*
X113921286Y-100679857D02*
X114149857Y-100679857D01*
X114264143Y-100737000D01*
X114378429Y-100851286D01*
X114435571Y-101079857D01*
X114435571Y-101479857D01*
X114378429Y-101708429D01*
X114264143Y-101822714D01*
X114149857Y-101879857D01*
X113921286Y-101879857D01*
X113807000Y-101822714D01*
X113692714Y-101708429D01*
X113635571Y-101479857D01*
X113635571Y-101079857D01*
X113692714Y-100851286D01*
X113807000Y-100737000D01*
X113921286Y-100679857D01*
X115178429Y-101308429D02*
X115178429Y-101879857D01*
X114778429Y-100679857D02*
X115178429Y-101308429D01*
X115578429Y-100679857D01*
X115978428Y-101251286D02*
X116378428Y-101251286D01*
X116549857Y-101879857D02*
X115978428Y-101879857D01*
X115978428Y-100679857D01*
X116549857Y-100679857D01*
X117749857Y-101765571D02*
X117692714Y-101822714D01*
X117521285Y-101879857D01*
X117406999Y-101879857D01*
X117235571Y-101822714D01*
X117121285Y-101708429D01*
X117064142Y-101594143D01*
X117006999Y-101365571D01*
X117006999Y-101194143D01*
X117064142Y-100965571D01*
X117121285Y-100851286D01*
X117235571Y-100737000D01*
X117406999Y-100679857D01*
X117521285Y-100679857D01*
X117692714Y-100737000D01*
X117749857Y-100794143D01*
X118092714Y-100679857D02*
X118778428Y-100679857D01*
X118435571Y-101879857D02*
X118435571Y-100679857D01*
X119407000Y-100679857D02*
X119635571Y-100679857D01*
X119749857Y-100737000D01*
X119864143Y-100851286D01*
X119921285Y-101079857D01*
X119921285Y-101479857D01*
X119864143Y-101708429D01*
X119749857Y-101822714D01*
X119635571Y-101879857D01*
X119407000Y-101879857D01*
X119292714Y-101822714D01*
X119178428Y-101708429D01*
X119121285Y-101479857D01*
X119121285Y-101079857D01*
X119178428Y-100851286D01*
X119292714Y-100737000D01*
X119407000Y-100679857D01*
X122035572Y-101765571D02*
X121978429Y-101822714D01*
X121807000Y-101879857D01*
X121692714Y-101879857D01*
X121521286Y-101822714D01*
X121407000Y-101708429D01*
X121349857Y-101594143D01*
X121292714Y-101365571D01*
X121292714Y-101194143D01*
X121349857Y-100965571D01*
X121407000Y-100851286D01*
X121521286Y-100737000D01*
X121692714Y-100679857D01*
X121807000Y-100679857D01*
X121978429Y-100737000D01*
X122035572Y-100794143D01*
X122549857Y-101879857D02*
X122549857Y-100679857D01*
X123064143Y-101537000D02*
X123635572Y-101537000D01*
X122949858Y-101879857D02*
X123349858Y-100679857D01*
X123749858Y-101879857D01*
X124092714Y-101537000D02*
X124664143Y-101537000D01*
X123978429Y-101879857D02*
X124378429Y-100679857D01*
X124778429Y-101879857D01*
D11*
X110290000Y-122910000D02*
X111490000Y-122910000D01*
X109590000Y-122210000D02*
X110290000Y-122910000D01*
X108490000Y-112610000D02*
X108490000Y-113110000D01*
X109190000Y-111910000D02*
X108490000Y-112610000D01*
D14*
X110842381Y-117162381D02*
X110366190Y-117495715D01*
X110842381Y-117733810D02*
X109842381Y-117733810D01*
X109842381Y-117352857D01*
X109890000Y-117257619D01*
X109937619Y-117210000D01*
X110032857Y-117162381D01*
X110175714Y-117162381D01*
X110270952Y-117210000D01*
X110318571Y-117257619D01*
X110366190Y-117352857D01*
X110366190Y-117733810D01*
X110318571Y-116733810D02*
X110318571Y-116400476D01*
X110842381Y-116257619D02*
X110842381Y-116733810D01*
X109842381Y-116733810D01*
X109842381Y-116257619D01*
X110794762Y-115876667D02*
X110842381Y-115733810D01*
X110842381Y-115495714D01*
X110794762Y-115400476D01*
X110747143Y-115352857D01*
X110651905Y-115305238D01*
X110556667Y-115305238D01*
X110461429Y-115352857D01*
X110413810Y-115400476D01*
X110366190Y-115495714D01*
X110318571Y-115686191D01*
X110270952Y-115781429D01*
X110223333Y-115829048D01*
X110128095Y-115876667D01*
X110032857Y-115876667D01*
X109937619Y-115829048D01*
X109890000Y-115781429D01*
X109842381Y-115686191D01*
X109842381Y-115448095D01*
X109890000Y-115305238D01*
X110318571Y-114876667D02*
X110318571Y-114543333D01*
X110842381Y-114400476D02*
X110842381Y-114876667D01*
X109842381Y-114876667D01*
X109842381Y-114400476D01*
X109842381Y-114114762D02*
X109842381Y-113543333D01*
X110842381Y-113829048D02*
X109842381Y-113829048D01*
D12*
X113340715Y-122352000D02*
X113245477Y-122304381D01*
X113102620Y-122304381D01*
X112959762Y-122352000D01*
X112864524Y-122447238D01*
X112816905Y-122542476D01*
X112769286Y-122732952D01*
X112769286Y-122875810D01*
X112816905Y-123066286D01*
X112864524Y-123161524D01*
X112959762Y-123256762D01*
X113102620Y-123304381D01*
X113197858Y-123304381D01*
X113340715Y-123256762D01*
X113388334Y-123209143D01*
X113388334Y-122875810D01*
X113197858Y-122875810D01*
X113816905Y-123304381D02*
X113816905Y-122304381D01*
X114197858Y-122304381D01*
X114293096Y-122352000D01*
X114340715Y-122399619D01*
X114388334Y-122494857D01*
X114388334Y-122637714D01*
X114340715Y-122732952D01*
X114293096Y-122780571D01*
X114197858Y-122828190D01*
X113816905Y-122828190D01*
X114721667Y-122304381D02*
X115388334Y-122304381D01*
X114959762Y-123304381D01*
X108675715Y-110510000D02*
X108580477Y-110462381D01*
X108437620Y-110462381D01*
X108294762Y-110510000D01*
X108199524Y-110605238D01*
X108151905Y-110700476D01*
X108104286Y-110890952D01*
X108104286Y-111033810D01*
X108151905Y-111224286D01*
X108199524Y-111319524D01*
X108294762Y-111414762D01*
X108437620Y-111462381D01*
X108532858Y-111462381D01*
X108675715Y-111414762D01*
X108723334Y-111367143D01*
X108723334Y-111033810D01*
X108532858Y-111033810D01*
X109151905Y-111462381D02*
X109151905Y-110462381D01*
X109532858Y-110462381D01*
X109628096Y-110510000D01*
X109675715Y-110557619D01*
X109723334Y-110652857D01*
X109723334Y-110795714D01*
X109675715Y-110890952D01*
X109628096Y-110938571D01*
X109532858Y-110986190D01*
X109151905Y-110986190D01*
X110342381Y-110462381D02*
X110437620Y-110462381D01*
X110532858Y-110510000D01*
X110580477Y-110557619D01*
X110628096Y-110652857D01*
X110675715Y-110843333D01*
X110675715Y-111081429D01*
X110628096Y-111271905D01*
X110580477Y-111367143D01*
X110532858Y-111414762D01*
X110437620Y-111462381D01*
X110342381Y-111462381D01*
X110247143Y-111414762D01*
X110199524Y-111367143D01*
X110151905Y-111271905D01*
X110104286Y-111081429D01*
X110104286Y-110843333D01*
X110151905Y-110652857D01*
X110199524Y-110557619D01*
X110247143Y-110510000D01*
X110342381Y-110462381D01*
D14*
X91195000Y-68750000D02*
X91195000Y-134155000D01*
X146440000Y-68750000D02*
X91195000Y-68750000D01*
X146440000Y-129710000D02*
X146440000Y-68750000D01*
X114690000Y-129710000D02*
X146440000Y-129710000D01*
X110245000Y-134155000D02*
X114690000Y-129710000D01*
X91195000Y-134155000D02*
X110245000Y-134155000D01*
X96275000Y-83990000D02*
X96275000Y-82720000D01*
X96275000Y-82720000D02*
X101355000Y-82720000D01*
X101355000Y-82720000D02*
X101355000Y-133520000D01*
X101355000Y-133520000D02*
X96275000Y-133520000D01*
X96275000Y-133520000D02*
X96275000Y-83990000D01*
D15*
X136525000Y-110490000D02*
X118745000Y-110490000D01*
X136525000Y-135890000D02*
X136525000Y-110490000D01*
X118745000Y-135890000D02*
X118745000Y-110490000D01*
X136525000Y-135890000D02*
X118745000Y-135890000D01*
D16*
X134629000Y-84879000D02*
X132343000Y-84879000D01*
X132343000Y-84879000D02*
X132343000Y-83609000D01*
X132343000Y-83609000D02*
X134629000Y-83609000D01*
X134629000Y-83609000D02*
X134629000Y-84879000D01*
D17*
X116205000Y-121539000D02*
X116205000Y-111379000D01*
X116205000Y-111379000D02*
X111125000Y-111379000D01*
X111125000Y-111379000D02*
X111125000Y-121539000D01*
X111125000Y-121539000D02*
X116205000Y-121539000D01*
D16*
X122110500Y-78493620D02*
X122110500Y-77787500D01*
X122110500Y-77787500D02*
X120713500Y-77787500D01*
X120713500Y-77787500D02*
X120713500Y-78493620D01*
X122110500Y-80200500D02*
X122110500Y-79494380D01*
X122110500Y-80200500D02*
X120713500Y-80200500D01*
X120713500Y-80200500D02*
X120713500Y-79494380D01*
X116531500Y-77759380D02*
X116531500Y-78465500D01*
X116531500Y-78465500D02*
X117928500Y-78465500D01*
X117928500Y-78465500D02*
X117928500Y-77759380D01*
X116531500Y-76052500D02*
X116531500Y-76758620D01*
X116531500Y-76052500D02*
X117928500Y-76052500D01*
X117928500Y-76052500D02*
X117928500Y-76758620D01*
X125929500Y-91094380D02*
X125929500Y-91800500D01*
X125929500Y-91800500D02*
X127326500Y-91800500D01*
X127326500Y-91800500D02*
X127326500Y-91094380D01*
X125929500Y-89387500D02*
X125929500Y-90093620D01*
X125929500Y-89387500D02*
X127326500Y-89387500D01*
X127326500Y-89387500D02*
X127326500Y-90093620D01*
X122373500Y-91094380D02*
X122373500Y-91800500D01*
X122373500Y-91800500D02*
X123770500Y-91800500D01*
X123770500Y-91800500D02*
X123770500Y-91094380D01*
X122373500Y-89387500D02*
X122373500Y-90093620D01*
X122373500Y-89387500D02*
X123770500Y-89387500D01*
X123770500Y-89387500D02*
X123770500Y-90093620D01*
X132533500Y-90078380D02*
X132533500Y-90784500D01*
X132533500Y-90784500D02*
X133930500Y-90784500D01*
X133930500Y-90784500D02*
X133930500Y-90078380D01*
X132533500Y-88371500D02*
X132533500Y-89077620D01*
X132533500Y-88371500D02*
X133930500Y-88371500D01*
X133930500Y-88371500D02*
X133930500Y-89077620D01*
X127453500Y-91094380D02*
X127453500Y-91800500D01*
X127453500Y-91800500D02*
X128850500Y-91800500D01*
X128850500Y-91800500D02*
X128850500Y-91094380D01*
X127453500Y-89387500D02*
X127453500Y-90093620D01*
X127453500Y-89387500D02*
X128850500Y-89387500D01*
X128850500Y-89387500D02*
X128850500Y-90093620D01*
X106950620Y-98531500D02*
X106244500Y-98531500D01*
X106244500Y-98531500D02*
X106244500Y-99928500D01*
X106244500Y-99928500D02*
X106950620Y-99928500D01*
X108657500Y-98531500D02*
X107951380Y-98531500D01*
X108657500Y-98531500D02*
X108657500Y-99928500D01*
X108657500Y-99928500D02*
X107951380Y-99928500D01*
X106950620Y-100944500D02*
X106244500Y-100944500D01*
X106244500Y-100944500D02*
X106244500Y-102341500D01*
X106244500Y-102341500D02*
X106950620Y-102341500D01*
X108657500Y-100944500D02*
X107951380Y-100944500D01*
X108657500Y-100944500D02*
X108657500Y-102341500D01*
X108657500Y-102341500D02*
X107951380Y-102341500D01*
X111141620Y-81513500D02*
X110435500Y-81513500D01*
X110435500Y-81513500D02*
X110435500Y-82910500D01*
X110435500Y-82910500D02*
X111141620Y-82910500D01*
X112848500Y-81513500D02*
X112142380Y-81513500D01*
X112848500Y-81513500D02*
X112848500Y-82910500D01*
X112848500Y-82910500D02*
X112142380Y-82910500D01*
X128342500Y-74726620D02*
X128342500Y-74020500D01*
X128342500Y-74020500D02*
X126945500Y-74020500D01*
X126945500Y-74020500D02*
X126945500Y-74726620D01*
X128342500Y-76433500D02*
X128342500Y-75727380D01*
X128342500Y-76433500D02*
X126945500Y-76433500D01*
X126945500Y-76433500D02*
X126945500Y-75727380D01*
X130184000Y-74726620D02*
X130184000Y-74020500D01*
X130184000Y-74020500D02*
X128787000Y-74020500D01*
X128787000Y-74020500D02*
X128787000Y-74726620D01*
X130184000Y-76433500D02*
X130184000Y-75727380D01*
X130184000Y-76433500D02*
X128787000Y-76433500D01*
X128787000Y-76433500D02*
X128787000Y-75727380D01*
X125040500Y-76885620D02*
X125040500Y-76179500D01*
X125040500Y-76179500D02*
X123643500Y-76179500D01*
X123643500Y-76179500D02*
X123643500Y-76885620D01*
X125040500Y-78592500D02*
X125040500Y-77886380D01*
X125040500Y-78592500D02*
X123643500Y-78592500D01*
X123643500Y-78592500D02*
X123643500Y-77886380D01*
X106950620Y-95991500D02*
X106244500Y-95991500D01*
X106244500Y-95991500D02*
X106244500Y-97388500D01*
X106244500Y-97388500D02*
X106950620Y-97388500D01*
X108657500Y-95991500D02*
X107951380Y-95991500D01*
X108657500Y-95991500D02*
X108657500Y-97388500D01*
X108657500Y-97388500D02*
X107951380Y-97388500D01*
X111141620Y-79100500D02*
X110435500Y-79100500D01*
X110435500Y-79100500D02*
X110435500Y-80497500D01*
X110435500Y-80497500D02*
X111141620Y-80497500D01*
X112848500Y-79100500D02*
X112142380Y-79100500D01*
X112848500Y-79100500D02*
X112848500Y-80497500D01*
X112848500Y-80497500D02*
X112142380Y-80497500D01*
X120078500Y-78493620D02*
X120078500Y-77787500D01*
X120078500Y-77787500D02*
X118681500Y-77787500D01*
X118681500Y-77787500D02*
X118681500Y-78493620D01*
X120078500Y-80200500D02*
X120078500Y-79494380D01*
X120078500Y-80200500D02*
X118681500Y-80200500D01*
X118681500Y-80200500D02*
X118681500Y-79494380D01*
X132462380Y-82402500D02*
X133168500Y-82402500D01*
X133168500Y-82402500D02*
X133168500Y-81005500D01*
X133168500Y-81005500D02*
X132462380Y-81005500D01*
X130755500Y-82402500D02*
X131461620Y-82402500D01*
X130755500Y-82402500D02*
X130755500Y-81005500D01*
X130755500Y-81005500D02*
X131461620Y-81005500D01*
X121484500Y-105079620D02*
X121484500Y-104373500D01*
X121484500Y-104373500D02*
X120087500Y-104373500D01*
X120087500Y-104373500D02*
X120087500Y-105079620D01*
X121484500Y-106786500D02*
X121484500Y-106080380D01*
X121484500Y-106786500D02*
X120087500Y-106786500D01*
X120087500Y-106786500D02*
X120087500Y-106080380D01*
X140534500Y-106207380D02*
X140534500Y-106913500D01*
X140534500Y-106913500D02*
X141931500Y-106913500D01*
X141931500Y-106913500D02*
X141931500Y-106207380D01*
X140534500Y-104500500D02*
X140534500Y-105206620D01*
X140534500Y-104500500D02*
X141931500Y-104500500D01*
X141931500Y-104500500D02*
X141931500Y-105206620D01*
X129810620Y-84815500D02*
X129104500Y-84815500D01*
X129104500Y-84815500D02*
X129104500Y-86212500D01*
X129104500Y-86212500D02*
X129810620Y-86212500D01*
X131517500Y-84815500D02*
X130811380Y-84815500D01*
X131517500Y-84815500D02*
X131517500Y-86212500D01*
X131517500Y-86212500D02*
X130811380Y-86212500D01*
X97789620Y-77461500D02*
X97083500Y-77461500D01*
X97083500Y-77461500D02*
X97083500Y-78858500D01*
X97083500Y-78858500D02*
X97789620Y-78858500D01*
X99496500Y-77461500D02*
X98790380Y-77461500D01*
X99496500Y-77461500D02*
X99496500Y-78858500D01*
X99496500Y-78858500D02*
X98790380Y-78858500D01*
X104029620Y-69575500D02*
X103323500Y-69575500D01*
X103323500Y-69575500D02*
X103323500Y-70972500D01*
X103323500Y-70972500D02*
X104029620Y-70972500D01*
X105736500Y-69575500D02*
X105030380Y-69575500D01*
X105736500Y-69575500D02*
X105736500Y-70972500D01*
X105736500Y-70972500D02*
X105030380Y-70972500D01*
X120595500Y-75107620D02*
X120595500Y-74401500D01*
X120595500Y-74401500D02*
X119198500Y-74401500D01*
X119198500Y-74401500D02*
X119198500Y-75107620D01*
X120595500Y-76814500D02*
X120595500Y-76108380D01*
X120595500Y-76814500D02*
X119198500Y-76814500D01*
X119198500Y-76814500D02*
X119198500Y-76108380D01*
X94052500Y-73710620D02*
X94052500Y-73004500D01*
X94052500Y-73004500D02*
X92655500Y-73004500D01*
X92655500Y-73004500D02*
X92655500Y-73710620D01*
X94052500Y-75417500D02*
X94052500Y-74711380D01*
X94052500Y-75417500D02*
X92655500Y-75417500D01*
X92655500Y-75417500D02*
X92655500Y-74711380D01*
X117730380Y-129392500D02*
X118436500Y-129392500D01*
X118436500Y-129392500D02*
X118436500Y-127995500D01*
X118436500Y-127995500D02*
X117730380Y-127995500D01*
X116023500Y-129392500D02*
X116729620Y-129392500D01*
X116023500Y-129392500D02*
X116023500Y-127995500D01*
X116023500Y-127995500D02*
X116729620Y-127995500D01*
D18*
X127991360Y-84489200D02*
X123510800Y-84489200D01*
X128489200Y-83991360D02*
X128489200Y-79510800D01*
X128489200Y-83991360D02*
X127991360Y-84489200D01*
D19*
X127991360Y-83742440D02*
X127991360Y-83991360D01*
X127991360Y-83991360D02*
X127742440Y-83991360D01*
X127742440Y-80008640D02*
X127991360Y-80008640D01*
X127991360Y-80008640D02*
X127991360Y-80257560D01*
X124008640Y-80257560D02*
X124008640Y-80008640D01*
X124008640Y-80008640D02*
X124257560Y-80008640D01*
X124257560Y-83991360D02*
X124008640Y-83991360D01*
X124008640Y-83991360D02*
X124008640Y-83742440D01*
D18*
X123510800Y-79510800D02*
X128489200Y-79510800D01*
X123510800Y-84489200D02*
X123510800Y-79510800D01*
D20*
G36*
X139366840Y-96001560D02*
X139407480Y-95981240D01*
X139501460Y-95922820D01*
X139636080Y-95833920D01*
X139793560Y-95729780D01*
X139951040Y-95620560D01*
X140080580Y-95534200D01*
X140172020Y-95475780D01*
X140210120Y-95455460D01*
X140230440Y-95460540D01*
X140306640Y-95498640D01*
X140415860Y-95554520D01*
X140479360Y-95587540D01*
X140578420Y-95630720D01*
X140629220Y-95640880D01*
X140636840Y-95625640D01*
X140674940Y-95549440D01*
X140730820Y-95417360D01*
X140807020Y-95244640D01*
X140893380Y-95041440D01*
X140987360Y-94823000D01*
X141078800Y-94599480D01*
X141167700Y-94386120D01*
X141246440Y-94195620D01*
X141309940Y-94040680D01*
X141350580Y-93931460D01*
X141365820Y-93885740D01*
X141360740Y-93875580D01*
X141309940Y-93827320D01*
X141223580Y-93761280D01*
X141033080Y-93606340D01*
X140847660Y-93372660D01*
X140733360Y-93108500D01*
X140695260Y-92813860D01*
X140728280Y-92542080D01*
X140834960Y-92280460D01*
X141017840Y-92044240D01*
X141238820Y-91868980D01*
X141497900Y-91757220D01*
X141790000Y-91721660D01*
X142069400Y-91752140D01*
X142336100Y-91858820D01*
X142572320Y-92039160D01*
X142671380Y-92153460D01*
X142808540Y-92392220D01*
X142887280Y-92648760D01*
X142894900Y-92712260D01*
X142884740Y-92994200D01*
X142800920Y-93263440D01*
X142653600Y-93504740D01*
X142447860Y-93700320D01*
X142419920Y-93720640D01*
X142325940Y-93791760D01*
X142262440Y-93840020D01*
X142211640Y-93880660D01*
X142569780Y-94741720D01*
X142625660Y-94878880D01*
X142724720Y-95115100D01*
X142811080Y-95318300D01*
X142879660Y-95478320D01*
X142927920Y-95587540D01*
X142948240Y-95630720D01*
X142950780Y-95633260D01*
X142981260Y-95638340D01*
X143047300Y-95612940D01*
X143166680Y-95554520D01*
X143247960Y-95513880D01*
X143339400Y-95470700D01*
X143380040Y-95455460D01*
X143415600Y-95473240D01*
X143501960Y-95531660D01*
X143631500Y-95615480D01*
X143783900Y-95719620D01*
X143931220Y-95821220D01*
X144065840Y-95910120D01*
X144164900Y-95971080D01*
X144213160Y-95999020D01*
X144220780Y-95999020D01*
X144261420Y-95973620D01*
X144340160Y-95910120D01*
X144457000Y-95798360D01*
X144622100Y-95635800D01*
X144647500Y-95610400D01*
X144784660Y-95470700D01*
X144896420Y-95353860D01*
X144970080Y-95272580D01*
X144995480Y-95234480D01*
X144995480Y-95234480D01*
X144972620Y-95186220D01*
X144909120Y-95089700D01*
X144820220Y-94952540D01*
X144711000Y-94792520D01*
X144426520Y-94378500D01*
X144584000Y-93987340D01*
X144632260Y-93867960D01*
X144693220Y-93723180D01*
X144736400Y-93619040D01*
X144761800Y-93573320D01*
X144802440Y-93558080D01*
X144911660Y-93532680D01*
X145066600Y-93499660D01*
X145249480Y-93466640D01*
X145427280Y-93433620D01*
X145587300Y-93403140D01*
X145701600Y-93380280D01*
X145752400Y-93370120D01*
X145765100Y-93362500D01*
X145775260Y-93337100D01*
X145782880Y-93283760D01*
X145785420Y-93187240D01*
X145787960Y-93034840D01*
X145787960Y-92813860D01*
X145787960Y-92791000D01*
X145785420Y-92580180D01*
X145782880Y-92412540D01*
X145777800Y-92303320D01*
X145770180Y-92260140D01*
X145770180Y-92260140D01*
X145719380Y-92247440D01*
X145607620Y-92224580D01*
X145447600Y-92191560D01*
X145257100Y-92156000D01*
X145246940Y-92153460D01*
X145056440Y-92117900D01*
X144898960Y-92084880D01*
X144787200Y-92059480D01*
X144741480Y-92044240D01*
X144731320Y-92031540D01*
X144693220Y-91957880D01*
X144637340Y-91841040D01*
X144576380Y-91696260D01*
X144512880Y-91548940D01*
X144459540Y-91414320D01*
X144423980Y-91315260D01*
X144413820Y-91269540D01*
X144413820Y-91269540D01*
X144441760Y-91223820D01*
X144507800Y-91124760D01*
X144599240Y-90990140D01*
X144711000Y-90827580D01*
X144718620Y-90814880D01*
X144827840Y-90654860D01*
X144916740Y-90520240D01*
X144975160Y-90423720D01*
X144995480Y-90380540D01*
X144995480Y-90378000D01*
X144959920Y-90329740D01*
X144878640Y-90240840D01*
X144761800Y-90118920D01*
X144622100Y-89976680D01*
X144576380Y-89933500D01*
X144421440Y-89781100D01*
X144314760Y-89682040D01*
X144246180Y-89628700D01*
X144213160Y-89616000D01*
X144213160Y-89618540D01*
X144164900Y-89646480D01*
X144063300Y-89712520D01*
X143926140Y-89806500D01*
X143763580Y-89915720D01*
X143753420Y-89923340D01*
X143593400Y-90032560D01*
X143461320Y-90121460D01*
X143364800Y-90184960D01*
X143324160Y-90210360D01*
X143316540Y-90210360D01*
X143253040Y-90190040D01*
X143138740Y-90151940D01*
X142999040Y-90096060D01*
X142851720Y-90037640D01*
X142717100Y-89981760D01*
X142615500Y-89933500D01*
X142567240Y-89908100D01*
X142567240Y-89905560D01*
X142549460Y-89847140D01*
X142521520Y-89727760D01*
X142488500Y-89562660D01*
X142450400Y-89367080D01*
X142445320Y-89336600D01*
X142409760Y-89146100D01*
X142379280Y-88988620D01*
X142356420Y-88879400D01*
X142343720Y-88833680D01*
X142318320Y-88828600D01*
X142224340Y-88820980D01*
X142082100Y-88818440D01*
X141909380Y-88815900D01*
X141729040Y-88818440D01*
X141553780Y-88820980D01*
X141401380Y-88826060D01*
X141294700Y-88833680D01*
X141248980Y-88843840D01*
X141246440Y-88846380D01*
X141231200Y-88904800D01*
X141205800Y-89024180D01*
X141170240Y-89189280D01*
X141132140Y-89387400D01*
X141127060Y-89420420D01*
X141091500Y-89610920D01*
X141058480Y-89765860D01*
X141035620Y-89875080D01*
X141022920Y-89915720D01*
X141007680Y-89925880D01*
X140928940Y-89958900D01*
X140801940Y-90012240D01*
X140641920Y-90075740D01*
X140276160Y-90225600D01*
X139829120Y-89915720D01*
X139785940Y-89887780D01*
X139625920Y-89778560D01*
X139491300Y-89689660D01*
X139399860Y-89631240D01*
X139361760Y-89608380D01*
X139359220Y-89610920D01*
X139313500Y-89649020D01*
X139224600Y-89732840D01*
X139102680Y-89852220D01*
X138962980Y-89991920D01*
X138858840Y-90096060D01*
X138734380Y-90223060D01*
X138655640Y-90306880D01*
X138612460Y-90362760D01*
X138597220Y-90395780D01*
X138602300Y-90416100D01*
X138630240Y-90461820D01*
X138696280Y-90560880D01*
X138787720Y-90698040D01*
X138896940Y-90855520D01*
X138988380Y-90990140D01*
X139084900Y-91140000D01*
X139148400Y-91246680D01*
X139171260Y-91300020D01*
X139166180Y-91322880D01*
X139133160Y-91409240D01*
X139079820Y-91543860D01*
X139013780Y-91701340D01*
X138856300Y-92056940D01*
X138622620Y-92100120D01*
X138482920Y-92128060D01*
X138284800Y-92166160D01*
X138096840Y-92201720D01*
X137802200Y-92260140D01*
X137792040Y-93342180D01*
X137837760Y-93362500D01*
X137880940Y-93375200D01*
X137990160Y-93398060D01*
X138145100Y-93428540D01*
X138330520Y-93464100D01*
X138485460Y-93494580D01*
X138645480Y-93522520D01*
X138757240Y-93545380D01*
X138808040Y-93555540D01*
X138820740Y-93573320D01*
X138861380Y-93649520D01*
X138917260Y-93771440D01*
X138978220Y-93918760D01*
X139041720Y-94068620D01*
X139097600Y-94208320D01*
X139138240Y-94315000D01*
X139150940Y-94370880D01*
X139130620Y-94414060D01*
X139069660Y-94505500D01*
X138983300Y-94637580D01*
X138876620Y-94795060D01*
X138767400Y-94952540D01*
X138678500Y-95087160D01*
X138615000Y-95183680D01*
X138589600Y-95226860D01*
X138602300Y-95257340D01*
X138663260Y-95333540D01*
X138782640Y-95455460D01*
X138957900Y-95630720D01*
X138988380Y-95658660D01*
X139128080Y-95793280D01*
X139247460Y-95902500D01*
X139328740Y-95976160D01*
X139366840Y-96001560D01*
X139366840Y-96001560D01*
G37*
X139366840Y-96001560D02*
X139407480Y-95981240D01*
X139501460Y-95922820D01*
X139636080Y-95833920D01*
X139793560Y-95729780D01*
X139951040Y-95620560D01*
X140080580Y-95534200D01*
X140172020Y-95475780D01*
X140210120Y-95455460D01*
X140230440Y-95460540D01*
X140306640Y-95498640D01*
X140415860Y-95554520D01*
X140479360Y-95587540D01*
X140578420Y-95630720D01*
X140629220Y-95640880D01*
X140636840Y-95625640D01*
X140674940Y-95549440D01*
X140730820Y-95417360D01*
X140807020Y-95244640D01*
X140893380Y-95041440D01*
X140987360Y-94823000D01*
X141078800Y-94599480D01*
X141167700Y-94386120D01*
X141246440Y-94195620D01*
X141309940Y-94040680D01*
X141350580Y-93931460D01*
X141365820Y-93885740D01*
X141360740Y-93875580D01*
X141309940Y-93827320D01*
X141223580Y-93761280D01*
X141033080Y-93606340D01*
X140847660Y-93372660D01*
X140733360Y-93108500D01*
X140695260Y-92813860D01*
X140728280Y-92542080D01*
X140834960Y-92280460D01*
X141017840Y-92044240D01*
X141238820Y-91868980D01*
X141497900Y-91757220D01*
X141790000Y-91721660D01*
X142069400Y-91752140D01*
X142336100Y-91858820D01*
X142572320Y-92039160D01*
X142671380Y-92153460D01*
X142808540Y-92392220D01*
X142887280Y-92648760D01*
X142894900Y-92712260D01*
X142884740Y-92994200D01*
X142800920Y-93263440D01*
X142653600Y-93504740D01*
X142447860Y-93700320D01*
X142419920Y-93720640D01*
X142325940Y-93791760D01*
X142262440Y-93840020D01*
X142211640Y-93880660D01*
X142569780Y-94741720D01*
X142625660Y-94878880D01*
X142724720Y-95115100D01*
X142811080Y-95318300D01*
X142879660Y-95478320D01*
X142927920Y-95587540D01*
X142948240Y-95630720D01*
X142950780Y-95633260D01*
X142981260Y-95638340D01*
X143047300Y-95612940D01*
X143166680Y-95554520D01*
X143247960Y-95513880D01*
X143339400Y-95470700D01*
X143380040Y-95455460D01*
X143415600Y-95473240D01*
X143501960Y-95531660D01*
X143631500Y-95615480D01*
X143783900Y-95719620D01*
X143931220Y-95821220D01*
X144065840Y-95910120D01*
X144164900Y-95971080D01*
X144213160Y-95999020D01*
X144220780Y-95999020D01*
X144261420Y-95973620D01*
X144340160Y-95910120D01*
X144457000Y-95798360D01*
X144622100Y-95635800D01*
X144647500Y-95610400D01*
X144784660Y-95470700D01*
X144896420Y-95353860D01*
X144970080Y-95272580D01*
X144995480Y-95234480D01*
X144995480Y-95234480D01*
X144972620Y-95186220D01*
X144909120Y-95089700D01*
X144820220Y-94952540D01*
X144711000Y-94792520D01*
X144426520Y-94378500D01*
X144584000Y-93987340D01*
X144632260Y-93867960D01*
X144693220Y-93723180D01*
X144736400Y-93619040D01*
X144761800Y-93573320D01*
X144802440Y-93558080D01*
X144911660Y-93532680D01*
X145066600Y-93499660D01*
X145249480Y-93466640D01*
X145427280Y-93433620D01*
X145587300Y-93403140D01*
X145701600Y-93380280D01*
X145752400Y-93370120D01*
X145765100Y-93362500D01*
X145775260Y-93337100D01*
X145782880Y-93283760D01*
X145785420Y-93187240D01*
X145787960Y-93034840D01*
X145787960Y-92813860D01*
X145787960Y-92791000D01*
X145785420Y-92580180D01*
X145782880Y-92412540D01*
X145777800Y-92303320D01*
X145770180Y-92260140D01*
X145770180Y-92260140D01*
X145719380Y-92247440D01*
X145607620Y-92224580D01*
X145447600Y-92191560D01*
X145257100Y-92156000D01*
X145246940Y-92153460D01*
X145056440Y-92117900D01*
X144898960Y-92084880D01*
X144787200Y-92059480D01*
X144741480Y-92044240D01*
X144731320Y-92031540D01*
X144693220Y-91957880D01*
X144637340Y-91841040D01*
X144576380Y-91696260D01*
X144512880Y-91548940D01*
X144459540Y-91414320D01*
X144423980Y-91315260D01*
X144413820Y-91269540D01*
X144413820Y-91269540D01*
X144441760Y-91223820D01*
X144507800Y-91124760D01*
X144599240Y-90990140D01*
X144711000Y-90827580D01*
X144718620Y-90814880D01*
X144827840Y-90654860D01*
X144916740Y-90520240D01*
X144975160Y-90423720D01*
X144995480Y-90380540D01*
X144995480Y-90378000D01*
X144959920Y-90329740D01*
X144878640Y-90240840D01*
X144761800Y-90118920D01*
X144622100Y-89976680D01*
X144576380Y-89933500D01*
X144421440Y-89781100D01*
X144314760Y-89682040D01*
X144246180Y-89628700D01*
X144213160Y-89616000D01*
X144213160Y-89618540D01*
X144164900Y-89646480D01*
X144063300Y-89712520D01*
X143926140Y-89806500D01*
X143763580Y-89915720D01*
X143753420Y-89923340D01*
X143593400Y-90032560D01*
X143461320Y-90121460D01*
X143364800Y-90184960D01*
X143324160Y-90210360D01*
X143316540Y-90210360D01*
X143253040Y-90190040D01*
X143138740Y-90151940D01*
X142999040Y-90096060D01*
X142851720Y-90037640D01*
X142717100Y-89981760D01*
X142615500Y-89933500D01*
X142567240Y-89908100D01*
X142567240Y-89905560D01*
X142549460Y-89847140D01*
X142521520Y-89727760D01*
X142488500Y-89562660D01*
X142450400Y-89367080D01*
X142445320Y-89336600D01*
X142409760Y-89146100D01*
X142379280Y-88988620D01*
X142356420Y-88879400D01*
X142343720Y-88833680D01*
X142318320Y-88828600D01*
X142224340Y-88820980D01*
X142082100Y-88818440D01*
X141909380Y-88815900D01*
X141729040Y-88818440D01*
X141553780Y-88820980D01*
X141401380Y-88826060D01*
X141294700Y-88833680D01*
X141248980Y-88843840D01*
X141246440Y-88846380D01*
X141231200Y-88904800D01*
X141205800Y-89024180D01*
X141170240Y-89189280D01*
X141132140Y-89387400D01*
X141127060Y-89420420D01*
X141091500Y-89610920D01*
X141058480Y-89765860D01*
X141035620Y-89875080D01*
X141022920Y-89915720D01*
X141007680Y-89925880D01*
X140928940Y-89958900D01*
X140801940Y-90012240D01*
X140641920Y-90075740D01*
X140276160Y-90225600D01*
X139829120Y-89915720D01*
X139785940Y-89887780D01*
X139625920Y-89778560D01*
X139491300Y-89689660D01*
X139399860Y-89631240D01*
X139361760Y-89608380D01*
X139359220Y-89610920D01*
X139313500Y-89649020D01*
X139224600Y-89732840D01*
X139102680Y-89852220D01*
X138962980Y-89991920D01*
X138858840Y-90096060D01*
X138734380Y-90223060D01*
X138655640Y-90306880D01*
X138612460Y-90362760D01*
X138597220Y-90395780D01*
X138602300Y-90416100D01*
X138630240Y-90461820D01*
X138696280Y-90560880D01*
X138787720Y-90698040D01*
X138896940Y-90855520D01*
X138988380Y-90990140D01*
X139084900Y-91140000D01*
X139148400Y-91246680D01*
X139171260Y-91300020D01*
X139166180Y-91322880D01*
X139133160Y-91409240D01*
X139079820Y-91543860D01*
X139013780Y-91701340D01*
X138856300Y-92056940D01*
X138622620Y-92100120D01*
X138482920Y-92128060D01*
X138284800Y-92166160D01*
X138096840Y-92201720D01*
X137802200Y-92260140D01*
X137792040Y-93342180D01*
X137837760Y-93362500D01*
X137880940Y-93375200D01*
X137990160Y-93398060D01*
X138145100Y-93428540D01*
X138330520Y-93464100D01*
X138485460Y-93494580D01*
X138645480Y-93522520D01*
X138757240Y-93545380D01*
X138808040Y-93555540D01*
X138820740Y-93573320D01*
X138861380Y-93649520D01*
X138917260Y-93771440D01*
X138978220Y-93918760D01*
X139041720Y-94068620D01*
X139097600Y-94208320D01*
X139138240Y-94315000D01*
X139150940Y-94370880D01*
X139130620Y-94414060D01*
X139069660Y-94505500D01*
X138983300Y-94637580D01*
X138876620Y-94795060D01*
X138767400Y-94952540D01*
X138678500Y-95087160D01*
X138615000Y-95183680D01*
X138589600Y-95226860D01*
X138602300Y-95257340D01*
X138663260Y-95333540D01*
X138782640Y-95455460D01*
X138957900Y-95630720D01*
X138988380Y-95658660D01*
X139128080Y-95793280D01*
X139247460Y-95902500D01*
X139328740Y-95976160D01*
X139366840Y-96001560D01*
D10*
G36*
X146325714Y-82782979D02*
X146288746Y-82989891D01*
X146195012Y-83274800D01*
X146070272Y-83572897D01*
X145940281Y-83819374D01*
X145913376Y-83857413D01*
X145913376Y-83286299D01*
X145848326Y-82973062D01*
X145659112Y-82765622D01*
X145354639Y-82672329D01*
X145253636Y-82667792D01*
X144919516Y-82728777D01*
X144698248Y-82906165D01*
X144598734Y-83191608D01*
X144593896Y-83286299D01*
X144658946Y-83599536D01*
X144848159Y-83806975D01*
X145152633Y-83900269D01*
X145253636Y-83904805D01*
X145587606Y-83846492D01*
X145748441Y-83739870D01*
X145882315Y-83502030D01*
X145913376Y-83286299D01*
X145913376Y-83857413D01*
X145879856Y-83904805D01*
X145803749Y-84031925D01*
X145685220Y-84271365D01*
X145543792Y-84582585D01*
X145462876Y-84770714D01*
X145211635Y-85339272D01*
X144939718Y-85906808D01*
X144659494Y-86451693D01*
X144383334Y-86952296D01*
X144346493Y-87013955D01*
X144346493Y-83286299D01*
X144342598Y-82970064D01*
X144324834Y-82784516D01*
X144284089Y-82695476D01*
X144211247Y-82668762D01*
X144181558Y-82667792D01*
X144060831Y-82706671D01*
X144018325Y-82851331D01*
X144016623Y-82915195D01*
X143996189Y-83090430D01*
X143899798Y-83155018D01*
X143769220Y-83162598D01*
X143593985Y-83142163D01*
X143529397Y-83045773D01*
X143521818Y-82915195D01*
X143495898Y-82734104D01*
X143399459Y-82670345D01*
X143356883Y-82667792D01*
X143272553Y-82682401D01*
X143223074Y-82749012D01*
X143199330Y-82901807D01*
X143192206Y-83174964D01*
X143191948Y-83286299D01*
X143195843Y-83602533D01*
X143213606Y-83788081D01*
X143254351Y-83877122D01*
X143327193Y-83903835D01*
X143356883Y-83904805D01*
X143470559Y-83872518D01*
X143516426Y-83746472D01*
X143521818Y-83616169D01*
X143535609Y-83422245D01*
X143605564Y-83342706D01*
X143769220Y-83327533D01*
X143935441Y-83343623D01*
X144003617Y-83425237D01*
X144016623Y-83616169D01*
X144035073Y-83815103D01*
X144107099Y-83895370D01*
X144181558Y-83904805D01*
X144265887Y-83890197D01*
X144315367Y-83823586D01*
X144339111Y-83670791D01*
X144346234Y-83397634D01*
X144346493Y-83286299D01*
X144346493Y-87013955D01*
X144123610Y-87386986D01*
X143892692Y-87734132D01*
X143702952Y-87972103D01*
X143571691Y-88077512D01*
X143450102Y-88064002D01*
X143228445Y-87990892D01*
X142953465Y-87873746D01*
X142944545Y-87869546D01*
X142944545Y-83771490D01*
X142900706Y-83678405D01*
X142746623Y-83676159D01*
X142728776Y-83679422D01*
X142507011Y-83653945D01*
X142313128Y-83525310D01*
X142207755Y-83338790D01*
X142202337Y-83286299D01*
X142274303Y-83091398D01*
X142448393Y-82937991D01*
X142661896Y-82873309D01*
X142739632Y-82881645D01*
X142895982Y-82894616D01*
X142944279Y-82812533D01*
X142944545Y-82800434D01*
X142904247Y-82714720D01*
X142760303Y-82674936D01*
X142573441Y-82667792D01*
X142219195Y-82722653D01*
X141988088Y-82886882D01*
X141880717Y-83159956D01*
X141872467Y-83286299D01*
X141934642Y-83598869D01*
X142120769Y-83802787D01*
X142430252Y-83897526D01*
X142573441Y-83904805D01*
X142812962Y-83890515D01*
X142924243Y-83839291D01*
X142944545Y-83771490D01*
X142944545Y-87869546D01*
X142938315Y-87866614D01*
X142382041Y-87666938D01*
X141851238Y-87617886D01*
X141625065Y-87659843D01*
X141625065Y-83286299D01*
X141621169Y-82970064D01*
X141603406Y-82784516D01*
X141562661Y-82695476D01*
X141489819Y-82668762D01*
X141460129Y-82667792D01*
X141354651Y-82693769D01*
X141306125Y-82800106D01*
X141294414Y-83018279D01*
X141293634Y-83368766D01*
X141083571Y-83018279D01*
X140915995Y-82784431D01*
X140760269Y-82680267D01*
X140672014Y-82667792D01*
X140569505Y-82676063D01*
X140509414Y-82724024D01*
X140480429Y-82846397D01*
X140471238Y-83077906D01*
X140470519Y-83286299D01*
X140474415Y-83602533D01*
X140492178Y-83788081D01*
X140532923Y-83877122D01*
X140605765Y-83903835D01*
X140635454Y-83904805D01*
X140740932Y-83878829D01*
X140789459Y-83772492D01*
X140801169Y-83554318D01*
X140801950Y-83203831D01*
X141012012Y-83554318D01*
X141179588Y-83788167D01*
X141335315Y-83892330D01*
X141423570Y-83904805D01*
X141526078Y-83896535D01*
X141586169Y-83848574D01*
X141615154Y-83726200D01*
X141624345Y-83494692D01*
X141625065Y-83286299D01*
X141625065Y-87659843D01*
X141307590Y-87718738D01*
X141006558Y-87830415D01*
X140730534Y-87945832D01*
X140504037Y-88036797D01*
X140388052Y-88079513D01*
X140271124Y-88035399D01*
X140223116Y-87994033D01*
X140223116Y-83286299D01*
X140158066Y-82973062D01*
X139968853Y-82765622D01*
X139664380Y-82672329D01*
X139563376Y-82667792D01*
X139229257Y-82728777D01*
X139007988Y-82906165D01*
X138908475Y-83191608D01*
X138903636Y-83286299D01*
X138968686Y-83599536D01*
X139157900Y-83806975D01*
X139462373Y-83900269D01*
X139563376Y-83904805D01*
X139897347Y-83846492D01*
X140058181Y-83739870D01*
X140192055Y-83502030D01*
X140223116Y-83286299D01*
X140223116Y-87994033D01*
X140072824Y-87864536D01*
X139804180Y-87576799D01*
X139728311Y-87488924D01*
X139420139Y-87117270D01*
X139157799Y-86773429D01*
X138919659Y-86423116D01*
X138821168Y-86259614D01*
X138821168Y-83080130D01*
X138782515Y-82864020D01*
X138649854Y-82734720D01*
X138398131Y-82675961D01*
X138186168Y-82667792D01*
X137749090Y-82667792D01*
X137749090Y-83286299D01*
X137752986Y-83602533D01*
X137770749Y-83788081D01*
X137811494Y-83877122D01*
X137884336Y-83903835D01*
X137914026Y-83904805D01*
X138043361Y-83856485D01*
X138078961Y-83698637D01*
X138102327Y-83556227D01*
X138205269Y-83500232D01*
X138351103Y-83492468D01*
X138629350Y-83444793D01*
X138781932Y-83295235D01*
X138821168Y-83080130D01*
X138821168Y-86259614D01*
X138684084Y-86032046D01*
X138429442Y-85565935D01*
X138134100Y-84990499D01*
X138065195Y-84853182D01*
X137862554Y-84450996D01*
X137682532Y-84098910D01*
X137539373Y-83824385D01*
X137447322Y-83654880D01*
X137423488Y-83616169D01*
X137310287Y-83348262D01*
X137319598Y-83041701D01*
X137397920Y-82847928D01*
X137578246Y-82615761D01*
X137819229Y-82382825D01*
X138060117Y-82204418D01*
X138161428Y-82152986D01*
X138274414Y-82081742D01*
X138479280Y-81928489D01*
X138742796Y-81718692D01*
X138928847Y-81564858D01*
X139311606Y-81258273D01*
X139696040Y-80975849D01*
X140054115Y-80735844D01*
X140357798Y-80556518D01*
X140579055Y-80456129D01*
X140654077Y-80441169D01*
X140797245Y-80498013D01*
X140921204Y-80602915D01*
X140991177Y-80691911D01*
X141021535Y-80788628D01*
X141010852Y-80933694D01*
X140957698Y-81167739D01*
X140892752Y-81412589D01*
X140787923Y-81795459D01*
X140726300Y-82067087D01*
X140727106Y-82246449D01*
X140809564Y-82352520D01*
X140992895Y-82404274D01*
X141296322Y-82420686D01*
X141739068Y-82420733D01*
X141913701Y-82420390D01*
X142406616Y-82416848D01*
X142753601Y-82405121D01*
X142973529Y-82383554D01*
X143085275Y-82350495D01*
X143109480Y-82315648D01*
X143088521Y-82189660D01*
X143033133Y-81952674D01*
X142954548Y-81652181D01*
X142940407Y-81600787D01*
X142833088Y-81154153D01*
X142798894Y-80840369D01*
X142838676Y-80644028D01*
X142953285Y-80549721D01*
X142998992Y-80539488D01*
X143210553Y-80570090D01*
X143529874Y-80698811D01*
X143939801Y-80916071D01*
X144423175Y-81212287D01*
X144962841Y-81577878D01*
X145315487Y-81833187D01*
X145719546Y-82137697D01*
X146004754Y-82366510D01*
X146188878Y-82536333D01*
X146289689Y-82663872D01*
X146324955Y-82765833D01*
X146325714Y-82782979D01*
X146325714Y-82782979D01*
X146325714Y-82782979D01*
G37*
X146325714Y-82782979D02*
X146288746Y-82989891D01*
X146195012Y-83274800D01*
X146070272Y-83572897D01*
X145940281Y-83819374D01*
X145913376Y-83857413D01*
X145913376Y-83286299D01*
X145848326Y-82973062D01*
X145659112Y-82765622D01*
X145354639Y-82672329D01*
X145253636Y-82667792D01*
X144919516Y-82728777D01*
X144698248Y-82906165D01*
X144598734Y-83191608D01*
X144593896Y-83286299D01*
X144658946Y-83599536D01*
X144848159Y-83806975D01*
X145152633Y-83900269D01*
X145253636Y-83904805D01*
X145587606Y-83846492D01*
X145748441Y-83739870D01*
X145882315Y-83502030D01*
X145913376Y-83286299D01*
X145913376Y-83857413D01*
X145879856Y-83904805D01*
X145803749Y-84031925D01*
X145685220Y-84271365D01*
X145543792Y-84582585D01*
X145462876Y-84770714D01*
X145211635Y-85339272D01*
X144939718Y-85906808D01*
X144659494Y-86451693D01*
X144383334Y-86952296D01*
X144346493Y-87013955D01*
X144346493Y-83286299D01*
X144342598Y-82970064D01*
X144324834Y-82784516D01*
X144284089Y-82695476D01*
X144211247Y-82668762D01*
X144181558Y-82667792D01*
X144060831Y-82706671D01*
X144018325Y-82851331D01*
X144016623Y-82915195D01*
X143996189Y-83090430D01*
X143899798Y-83155018D01*
X143769220Y-83162598D01*
X143593985Y-83142163D01*
X143529397Y-83045773D01*
X143521818Y-82915195D01*
X143495898Y-82734104D01*
X143399459Y-82670345D01*
X143356883Y-82667792D01*
X143272553Y-82682401D01*
X143223074Y-82749012D01*
X143199330Y-82901807D01*
X143192206Y-83174964D01*
X143191948Y-83286299D01*
X143195843Y-83602533D01*
X143213606Y-83788081D01*
X143254351Y-83877122D01*
X143327193Y-83903835D01*
X143356883Y-83904805D01*
X143470559Y-83872518D01*
X143516426Y-83746472D01*
X143521818Y-83616169D01*
X143535609Y-83422245D01*
X143605564Y-83342706D01*
X143769220Y-83327533D01*
X143935441Y-83343623D01*
X144003617Y-83425237D01*
X144016623Y-83616169D01*
X144035073Y-83815103D01*
X144107099Y-83895370D01*
X144181558Y-83904805D01*
X144265887Y-83890197D01*
X144315367Y-83823586D01*
X144339111Y-83670791D01*
X144346234Y-83397634D01*
X144346493Y-83286299D01*
X144346493Y-87013955D01*
X144123610Y-87386986D01*
X143892692Y-87734132D01*
X143702952Y-87972103D01*
X143571691Y-88077512D01*
X143450102Y-88064002D01*
X143228445Y-87990892D01*
X142953465Y-87873746D01*
X142944545Y-87869546D01*
X142944545Y-83771490D01*
X142900706Y-83678405D01*
X142746623Y-83676159D01*
X142728776Y-83679422D01*
X142507011Y-83653945D01*
X142313128Y-83525310D01*
X142207755Y-83338790D01*
X142202337Y-83286299D01*
X142274303Y-83091398D01*
X142448393Y-82937991D01*
X142661896Y-82873309D01*
X142739632Y-82881645D01*
X142895982Y-82894616D01*
X142944279Y-82812533D01*
X142944545Y-82800434D01*
X142904247Y-82714720D01*
X142760303Y-82674936D01*
X142573441Y-82667792D01*
X142219195Y-82722653D01*
X141988088Y-82886882D01*
X141880717Y-83159956D01*
X141872467Y-83286299D01*
X141934642Y-83598869D01*
X142120769Y-83802787D01*
X142430252Y-83897526D01*
X142573441Y-83904805D01*
X142812962Y-83890515D01*
X142924243Y-83839291D01*
X142944545Y-83771490D01*
X142944545Y-87869546D01*
X142938315Y-87866614D01*
X142382041Y-87666938D01*
X141851238Y-87617886D01*
X141625065Y-87659843D01*
X141625065Y-83286299D01*
X141621169Y-82970064D01*
X141603406Y-82784516D01*
X141562661Y-82695476D01*
X141489819Y-82668762D01*
X141460129Y-82667792D01*
X141354651Y-82693769D01*
X141306125Y-82800106D01*
X141294414Y-83018279D01*
X141293634Y-83368766D01*
X141083571Y-83018279D01*
X140915995Y-82784431D01*
X140760269Y-82680267D01*
X140672014Y-82667792D01*
X140569505Y-82676063D01*
X140509414Y-82724024D01*
X140480429Y-82846397D01*
X140471238Y-83077906D01*
X140470519Y-83286299D01*
X140474415Y-83602533D01*
X140492178Y-83788081D01*
X140532923Y-83877122D01*
X140605765Y-83903835D01*
X140635454Y-83904805D01*
X140740932Y-83878829D01*
X140789459Y-83772492D01*
X140801169Y-83554318D01*
X140801950Y-83203831D01*
X141012012Y-83554318D01*
X141179588Y-83788167D01*
X141335315Y-83892330D01*
X141423570Y-83904805D01*
X141526078Y-83896535D01*
X141586169Y-83848574D01*
X141615154Y-83726200D01*
X141624345Y-83494692D01*
X141625065Y-83286299D01*
X141625065Y-87659843D01*
X141307590Y-87718738D01*
X141006558Y-87830415D01*
X140730534Y-87945832D01*
X140504037Y-88036797D01*
X140388052Y-88079513D01*
X140271124Y-88035399D01*
X140223116Y-87994033D01*
X140223116Y-83286299D01*
X140158066Y-82973062D01*
X139968853Y-82765622D01*
X139664380Y-82672329D01*
X139563376Y-82667792D01*
X139229257Y-82728777D01*
X139007988Y-82906165D01*
X138908475Y-83191608D01*
X138903636Y-83286299D01*
X138968686Y-83599536D01*
X139157900Y-83806975D01*
X139462373Y-83900269D01*
X139563376Y-83904805D01*
X139897347Y-83846492D01*
X140058181Y-83739870D01*
X140192055Y-83502030D01*
X140223116Y-83286299D01*
X140223116Y-87994033D01*
X140072824Y-87864536D01*
X139804180Y-87576799D01*
X139728311Y-87488924D01*
X139420139Y-87117270D01*
X139157799Y-86773429D01*
X138919659Y-86423116D01*
X138821168Y-86259614D01*
X138821168Y-83080130D01*
X138782515Y-82864020D01*
X138649854Y-82734720D01*
X138398131Y-82675961D01*
X138186168Y-82667792D01*
X137749090Y-82667792D01*
X137749090Y-83286299D01*
X137752986Y-83602533D01*
X137770749Y-83788081D01*
X137811494Y-83877122D01*
X137884336Y-83903835D01*
X137914026Y-83904805D01*
X138043361Y-83856485D01*
X138078961Y-83698637D01*
X138102327Y-83556227D01*
X138205269Y-83500232D01*
X138351103Y-83492468D01*
X138629350Y-83444793D01*
X138781932Y-83295235D01*
X138821168Y-83080130D01*
X138821168Y-86259614D01*
X138684084Y-86032046D01*
X138429442Y-85565935D01*
X138134100Y-84990499D01*
X138065195Y-84853182D01*
X137862554Y-84450996D01*
X137682532Y-84098910D01*
X137539373Y-83824385D01*
X137447322Y-83654880D01*
X137423488Y-83616169D01*
X137310287Y-83348262D01*
X137319598Y-83041701D01*
X137397920Y-82847928D01*
X137578246Y-82615761D01*
X137819229Y-82382825D01*
X138060117Y-82204418D01*
X138161428Y-82152986D01*
X138274414Y-82081742D01*
X138479280Y-81928489D01*
X138742796Y-81718692D01*
X138928847Y-81564858D01*
X139311606Y-81258273D01*
X139696040Y-80975849D01*
X140054115Y-80735844D01*
X140357798Y-80556518D01*
X140579055Y-80456129D01*
X140654077Y-80441169D01*
X140797245Y-80498013D01*
X140921204Y-80602915D01*
X140991177Y-80691911D01*
X141021535Y-80788628D01*
X141010852Y-80933694D01*
X140957698Y-81167739D01*
X140892752Y-81412589D01*
X140787923Y-81795459D01*
X140726300Y-82067087D01*
X140727106Y-82246449D01*
X140809564Y-82352520D01*
X140992895Y-82404274D01*
X141296322Y-82420686D01*
X141739068Y-82420733D01*
X141913701Y-82420390D01*
X142406616Y-82416848D01*
X142753601Y-82405121D01*
X142973529Y-82383554D01*
X143085275Y-82350495D01*
X143109480Y-82315648D01*
X143088521Y-82189660D01*
X143033133Y-81952674D01*
X142954548Y-81652181D01*
X142940407Y-81600787D01*
X142833088Y-81154153D01*
X142798894Y-80840369D01*
X142838676Y-80644028D01*
X142953285Y-80549721D01*
X142998992Y-80539488D01*
X143210553Y-80570090D01*
X143529874Y-80698811D01*
X143939801Y-80916071D01*
X144423175Y-81212287D01*
X144962841Y-81577878D01*
X145315487Y-81833187D01*
X145719546Y-82137697D01*
X146004754Y-82366510D01*
X146188878Y-82536333D01*
X146289689Y-82663872D01*
X146324955Y-82765833D01*
X146325714Y-82782979D01*
X146325714Y-82782979D01*
G36*
X142813542Y-79673681D02*
X142685402Y-80020555D01*
X142469417Y-80297770D01*
X142353302Y-80427644D01*
X142298034Y-80540302D01*
X142296066Y-80689019D01*
X142339854Y-80927070D01*
X142364294Y-81039978D01*
X142448312Y-81436812D01*
X142486110Y-81700578D01*
X142465383Y-81859618D01*
X142373822Y-81942277D01*
X142199122Y-81976896D01*
X141951440Y-81990813D01*
X141666450Y-81994805D01*
X141450118Y-81981737D01*
X141353550Y-81956451D01*
X141299692Y-81791732D01*
X141323559Y-81486316D01*
X141424776Y-81044778D01*
X141429985Y-81025942D01*
X141564775Y-80541128D01*
X141301192Y-80305596D01*
X141075647Y-80007415D01*
X140981576Y-79663176D01*
X141014480Y-79313477D01*
X141169862Y-78998915D01*
X141443223Y-78760085D01*
X141474290Y-78743262D01*
X141823719Y-78646095D01*
X142170075Y-78694270D01*
X142477140Y-78871559D01*
X142708691Y-79161735D01*
X142779692Y-79328105D01*
X142813542Y-79673681D01*
X142813542Y-79673681D01*
X142813542Y-79673681D01*
G37*
X142813542Y-79673681D02*
X142685402Y-80020555D01*
X142469417Y-80297770D01*
X142353302Y-80427644D01*
X142298034Y-80540302D01*
X142296066Y-80689019D01*
X142339854Y-80927070D01*
X142364294Y-81039978D01*
X142448312Y-81436812D01*
X142486110Y-81700578D01*
X142465383Y-81859618D01*
X142373822Y-81942277D01*
X142199122Y-81976896D01*
X141951440Y-81990813D01*
X141666450Y-81994805D01*
X141450118Y-81981737D01*
X141353550Y-81956451D01*
X141299692Y-81791732D01*
X141323559Y-81486316D01*
X141424776Y-81044778D01*
X141429985Y-81025942D01*
X141564775Y-80541128D01*
X141301192Y-80305596D01*
X141075647Y-80007415D01*
X140981576Y-79663176D01*
X141014480Y-79313477D01*
X141169862Y-78998915D01*
X141443223Y-78760085D01*
X141474290Y-78743262D01*
X141823719Y-78646095D01*
X142170075Y-78694270D01*
X142477140Y-78871559D01*
X142708691Y-79161735D01*
X142779692Y-79328105D01*
X142813542Y-79673681D01*
X142813542Y-79673681D01*
G36*
X138469921Y-83088422D02*
X138408831Y-83203831D01*
X138252394Y-83322559D01*
X138133056Y-83287350D01*
X138079586Y-83108993D01*
X138078961Y-83080130D01*
X138123119Y-82886179D01*
X138236417Y-82834150D01*
X138390085Y-82934830D01*
X138408831Y-82956429D01*
X138469921Y-83088422D01*
X138469921Y-83088422D01*
X138469921Y-83088422D01*
G37*
X138469921Y-83088422D02*
X138408831Y-83203831D01*
X138252394Y-83322559D01*
X138133056Y-83287350D01*
X138079586Y-83108993D01*
X138078961Y-83080130D01*
X138123119Y-82886179D01*
X138236417Y-82834150D01*
X138390085Y-82934830D01*
X138408831Y-82956429D01*
X138469921Y-83088422D01*
X138469921Y-83088422D01*
G36*
X139878176Y-83263300D02*
X139854806Y-83403268D01*
X139783355Y-83524199D01*
X139661495Y-83675484D01*
X139564528Y-83739848D01*
X139563376Y-83739870D01*
X139467357Y-83677542D01*
X139345448Y-83527317D01*
X139343397Y-83524199D01*
X139252594Y-83353160D01*
X139263440Y-83212983D01*
X139324042Y-83091244D01*
X139446518Y-82936105D01*
X139563376Y-82873961D01*
X139683963Y-82939490D01*
X139802711Y-83091244D01*
X139878176Y-83263300D01*
X139878176Y-83263300D01*
X139878176Y-83263300D01*
G37*
X139878176Y-83263300D02*
X139854806Y-83403268D01*
X139783355Y-83524199D01*
X139661495Y-83675484D01*
X139564528Y-83739848D01*
X139563376Y-83739870D01*
X139467357Y-83677542D01*
X139345448Y-83527317D01*
X139343397Y-83524199D01*
X139252594Y-83353160D01*
X139263440Y-83212983D01*
X139324042Y-83091244D01*
X139446518Y-82936105D01*
X139563376Y-82873961D01*
X139683963Y-82939490D01*
X139802711Y-83091244D01*
X139878176Y-83263300D01*
X139878176Y-83263300D01*
G36*
X145568435Y-83263300D02*
X145545065Y-83403268D01*
X145473615Y-83524199D01*
X145351755Y-83675484D01*
X145254788Y-83739848D01*
X145253636Y-83739870D01*
X145157616Y-83677542D01*
X145035708Y-83527317D01*
X145033657Y-83524199D01*
X144942854Y-83353160D01*
X144953699Y-83212983D01*
X145014301Y-83091244D01*
X145136778Y-82936105D01*
X145253636Y-82873961D01*
X145374223Y-82939490D01*
X145492971Y-83091244D01*
X145568435Y-83263300D01*
X145568435Y-83263300D01*
X145568435Y-83263300D01*
G37*
X145568435Y-83263300D02*
X145545065Y-83403268D01*
X145473615Y-83524199D01*
X145351755Y-83675484D01*
X145254788Y-83739848D01*
X145253636Y-83739870D01*
X145157616Y-83677542D01*
X145035708Y-83527317D01*
X145033657Y-83524199D01*
X144942854Y-83353160D01*
X144953699Y-83212983D01*
X145014301Y-83091244D01*
X145136778Y-82936105D01*
X145253636Y-82873961D01*
X145374223Y-82939490D01*
X145492971Y-83091244D01*
X145568435Y-83263300D01*
X145568435Y-83263300D01*
D16*
X115988500Y-78509620D02*
X115988500Y-77803500D01*
X115988500Y-77803500D02*
X114591500Y-77803500D01*
X114591500Y-77803500D02*
X114591500Y-78509620D01*
X115988500Y-80216500D02*
X115988500Y-79510380D01*
X115988500Y-80216500D02*
X114591500Y-80216500D01*
X114591500Y-80216500D02*
X114591500Y-79510380D01*
D21*
X101940000Y-73860000D02*
X101940000Y-73460000D01*
X102140000Y-74060000D02*
X102140000Y-73260000D01*
X103540000Y-71660000D02*
G75*
G03X103540000Y-71660000I-400000J0D01*
G01*
X99310000Y-73410000D02*
X97770000Y-73410000D01*
X97770000Y-73410000D02*
X97770000Y-73910000D01*
X97770000Y-73910000D02*
X99310000Y-73910000D01*
X99310000Y-73910000D02*
X99310000Y-73410000D01*
X99310000Y-73030000D02*
X98540000Y-73030000D01*
X98540000Y-73030000D02*
X97770000Y-73030000D01*
X98540000Y-73030000D02*
X98540000Y-72660000D01*
X99310000Y-74310000D02*
X98540000Y-74310000D01*
X98540000Y-74310000D02*
X97770000Y-74310000D01*
X98540000Y-74310000D02*
X98540000Y-74660000D01*
X99740000Y-70960000D02*
X97340000Y-70960000D01*
X94740000Y-71160000D02*
X94740000Y-76160000D01*
X97340000Y-76360000D02*
X99740000Y-76360000D01*
X102340000Y-76160000D02*
X102340000Y-74110000D01*
X102340000Y-74160000D02*
X102340000Y-73160000D01*
X102340000Y-73160000D02*
X102340000Y-71160000D01*
X102340000Y-73144760D02*
G75*
G03X102340000Y-74160000I0J-507620D01*
G01*
D14*
X132597000Y-86657000D02*
X132089000Y-86657000D01*
X132089000Y-86657000D02*
X132089000Y-85387000D01*
X132089000Y-85387000D02*
X132597000Y-85387000D01*
X134375000Y-86657000D02*
X134883000Y-86657000D01*
X134883000Y-86657000D02*
X134883000Y-85387000D01*
X134883000Y-85387000D02*
X134375000Y-85387000D01*
X121421000Y-89070000D02*
X121421000Y-89578000D01*
X121421000Y-89578000D02*
X120151000Y-89578000D01*
X120151000Y-89578000D02*
X120151000Y-89070000D01*
X121421000Y-87292000D02*
X121421000Y-86784000D01*
X121421000Y-86784000D02*
X120151000Y-86784000D01*
X120151000Y-86784000D02*
X120151000Y-87292000D01*
X115706000Y-76243000D02*
X116214000Y-76243000D01*
X116214000Y-76243000D02*
X116214000Y-77513000D01*
X116214000Y-77513000D02*
X115706000Y-77513000D01*
X113928000Y-76243000D02*
X113420000Y-76243000D01*
X113420000Y-76243000D02*
X113420000Y-77513000D01*
X113420000Y-77513000D02*
X113928000Y-77513000D01*
X126755000Y-76243000D02*
X126755000Y-76751000D01*
X126755000Y-76751000D02*
X125485000Y-76751000D01*
X125485000Y-76751000D02*
X125485000Y-76243000D01*
X126755000Y-74465000D02*
X126755000Y-73957000D01*
X126755000Y-73957000D02*
X125485000Y-73957000D01*
X125485000Y-73957000D02*
X125485000Y-74465000D01*
X131111000Y-78635000D02*
X130603000Y-78635000D01*
X130603000Y-78635000D02*
X130603000Y-77365000D01*
X130603000Y-77365000D02*
X131111000Y-77365000D01*
X132889000Y-78635000D02*
X133397000Y-78635000D01*
X133397000Y-78635000D02*
X133397000Y-77365000D01*
X133397000Y-77365000D02*
X132889000Y-77365000D01*
X131111000Y-76635000D02*
X130603000Y-76635000D01*
X130603000Y-76635000D02*
X130603000Y-75365000D01*
X130603000Y-75365000D02*
X131111000Y-75365000D01*
X132889000Y-76635000D02*
X133397000Y-76635000D01*
X133397000Y-76635000D02*
X133397000Y-75365000D01*
X133397000Y-75365000D02*
X132889000Y-75365000D01*
X125993000Y-92753000D02*
X125993000Y-92245000D01*
X125993000Y-92245000D02*
X127263000Y-92245000D01*
X127263000Y-92245000D02*
X127263000Y-92753000D01*
X125993000Y-94531000D02*
X125993000Y-95039000D01*
X125993000Y-95039000D02*
X127263000Y-95039000D01*
X127263000Y-95039000D02*
X127263000Y-94531000D01*
X127517000Y-92753000D02*
X127517000Y-92245000D01*
X127517000Y-92245000D02*
X128787000Y-92245000D01*
X128787000Y-92245000D02*
X128787000Y-92753000D01*
X127517000Y-94531000D02*
X127517000Y-95039000D01*
X127517000Y-95039000D02*
X128787000Y-95039000D01*
X128787000Y-95039000D02*
X128787000Y-94531000D01*
X128787000Y-106596000D02*
X128787000Y-107104000D01*
X128787000Y-107104000D02*
X127517000Y-107104000D01*
X127517000Y-107104000D02*
X127517000Y-106596000D01*
X128787000Y-104818000D02*
X128787000Y-104310000D01*
X128787000Y-104310000D02*
X127517000Y-104310000D01*
X127517000Y-104310000D02*
X127517000Y-104818000D01*
X124215000Y-106469000D02*
X124215000Y-106977000D01*
X124215000Y-106977000D02*
X122945000Y-106977000D01*
X122945000Y-106977000D02*
X122945000Y-106469000D01*
X124215000Y-104691000D02*
X124215000Y-104183000D01*
X124215000Y-104183000D02*
X122945000Y-104183000D01*
X122945000Y-104183000D02*
X122945000Y-104691000D01*
X133359000Y-109263000D02*
X132851000Y-109263000D01*
X132851000Y-109263000D02*
X132851000Y-107993000D01*
X132851000Y-107993000D02*
X133359000Y-107993000D01*
X135137000Y-109263000D02*
X135645000Y-109263000D01*
X135645000Y-109263000D02*
X135645000Y-107993000D01*
X135645000Y-107993000D02*
X135137000Y-107993000D01*
X130311000Y-106596000D02*
X130311000Y-107104000D01*
X130311000Y-107104000D02*
X129041000Y-107104000D01*
X129041000Y-107104000D02*
X129041000Y-106596000D01*
X130311000Y-104818000D02*
X130311000Y-104310000D01*
X130311000Y-104310000D02*
X129041000Y-104310000D01*
X129041000Y-104310000D02*
X129041000Y-104818000D01*
X104276000Y-74465000D02*
X104276000Y-74973000D01*
X104276000Y-74973000D02*
X103006000Y-74973000D01*
X103006000Y-74973000D02*
X103006000Y-74465000D01*
X104276000Y-72687000D02*
X104276000Y-72179000D01*
X104276000Y-72179000D02*
X103006000Y-72179000D01*
X103006000Y-72179000D02*
X103006000Y-72687000D01*
X137550000Y-84879000D02*
X137550000Y-84752000D01*
X137550000Y-84752000D02*
X137550000Y-84625000D01*
X137550000Y-84625000D02*
X135518000Y-84625000D01*
X135518000Y-84625000D02*
X135518000Y-84879000D01*
X137550000Y-86657000D02*
X137550000Y-84879000D01*
X137550000Y-84879000D02*
X135518000Y-84879000D01*
X135518000Y-84879000D02*
X135518000Y-86657000D01*
X135518000Y-86657000D02*
X135518000Y-89705000D01*
X135518000Y-89705000D02*
X137550000Y-89705000D01*
X137550000Y-89705000D02*
X137550000Y-86657000D01*
X125485000Y-75862000D02*
X125612000Y-75862000D01*
X125612000Y-75862000D02*
X125739000Y-75862000D01*
X125739000Y-75862000D02*
X125739000Y-73830000D01*
X125739000Y-73830000D02*
X125485000Y-73830000D01*
X123707000Y-75862000D02*
X125485000Y-75862000D01*
X125485000Y-75862000D02*
X125485000Y-73830000D01*
X125485000Y-73830000D02*
X123707000Y-73830000D01*
X123707000Y-73830000D02*
X120659000Y-73830000D01*
X120659000Y-73830000D02*
X120659000Y-75862000D01*
X120659000Y-75862000D02*
X123707000Y-75862000D01*
X118119000Y-75735000D02*
X118246000Y-75735000D01*
X118246000Y-75735000D02*
X118373000Y-75735000D01*
X118373000Y-75735000D02*
X118373000Y-73703000D01*
X118373000Y-73703000D02*
X118119000Y-73703000D01*
X116341000Y-75735000D02*
X118119000Y-75735000D01*
X118119000Y-75735000D02*
X118119000Y-73703000D01*
X118119000Y-73703000D02*
X116341000Y-73703000D01*
X116341000Y-73703000D02*
X113293000Y-73703000D01*
X113293000Y-73703000D02*
X113293000Y-75735000D01*
X113293000Y-75735000D02*
X116341000Y-75735000D01*
D22*
X97299524Y-80371905D02*
X97832857Y-81171905D01*
X97832857Y-80371905D02*
X97299524Y-81171905D01*
X98099524Y-80943333D02*
X98480476Y-80943333D01*
X98023333Y-81171905D02*
X98290000Y-80371905D01*
X98556667Y-81171905D01*
X99242381Y-81171905D02*
X98785238Y-81171905D01*
X99013809Y-81171905D02*
X99013809Y-80371905D01*
X98937619Y-80486190D01*
X98861428Y-80562381D01*
X98785238Y-80600476D01*
D11*
X102672810Y-131750000D02*
X102577572Y-131702381D01*
X102434715Y-131702381D01*
X102291857Y-131750000D01*
X102196619Y-131845238D01*
X102149000Y-131940476D01*
X102101381Y-132130952D01*
X102101381Y-132273810D01*
X102149000Y-132464286D01*
X102196619Y-132559524D01*
X102291857Y-132654762D01*
X102434715Y-132702381D01*
X102529953Y-132702381D01*
X102672810Y-132654762D01*
X102720429Y-132607143D01*
X102720429Y-132273810D01*
X102529953Y-132273810D01*
X103149000Y-132702381D02*
X103149000Y-131702381D01*
X103529953Y-131702381D01*
X103625191Y-131750000D01*
X103672810Y-131797619D01*
X103720429Y-131892857D01*
X103720429Y-132035714D01*
X103672810Y-132130952D01*
X103625191Y-132178571D01*
X103529953Y-132226190D01*
X103149000Y-132226190D01*
X104149000Y-132702381D02*
X104149000Y-131702381D01*
X104815666Y-131702381D02*
X105006143Y-131702381D01*
X105101381Y-131750000D01*
X105196619Y-131845238D01*
X105244238Y-132035714D01*
X105244238Y-132369048D01*
X105196619Y-132559524D01*
X105101381Y-132654762D01*
X105006143Y-132702381D01*
X104815666Y-132702381D01*
X104720428Y-132654762D01*
X104625190Y-132559524D01*
X104577571Y-132369048D01*
X104577571Y-132035714D01*
X104625190Y-131845238D01*
X104720428Y-131750000D01*
X104815666Y-131702381D01*
X105815666Y-132130952D02*
X105720428Y-132083333D01*
X105672809Y-132035714D01*
X105625190Y-131940476D01*
X105625190Y-131892857D01*
X105672809Y-131797619D01*
X105720428Y-131750000D01*
X105815666Y-131702381D01*
X106006143Y-131702381D01*
X106101381Y-131750000D01*
X106149000Y-131797619D01*
X106196619Y-131892857D01*
X106196619Y-131940476D01*
X106149000Y-132035714D01*
X106101381Y-132083333D01*
X106006143Y-132130952D01*
X105815666Y-132130952D01*
X105720428Y-132178571D01*
X105672809Y-132226190D01*
X105625190Y-132321429D01*
X105625190Y-132511905D01*
X105672809Y-132607143D01*
X105720428Y-132654762D01*
X105815666Y-132702381D01*
X106006143Y-132702381D01*
X106101381Y-132654762D01*
X106149000Y-132607143D01*
X106196619Y-132511905D01*
X106196619Y-132321429D01*
X106149000Y-132226190D01*
X106101381Y-132178571D01*
X106006143Y-132130952D01*
X102672810Y-129210000D02*
X102577572Y-129162381D01*
X102434715Y-129162381D01*
X102291857Y-129210000D01*
X102196619Y-129305238D01*
X102149000Y-129400476D01*
X102101381Y-129590952D01*
X102101381Y-129733810D01*
X102149000Y-129924286D01*
X102196619Y-130019524D01*
X102291857Y-130114762D01*
X102434715Y-130162381D01*
X102529953Y-130162381D01*
X102672810Y-130114762D01*
X102720429Y-130067143D01*
X102720429Y-129733810D01*
X102529953Y-129733810D01*
X103149000Y-130162381D02*
X103149000Y-129162381D01*
X103529953Y-129162381D01*
X103625191Y-129210000D01*
X103672810Y-129257619D01*
X103720429Y-129352857D01*
X103720429Y-129495714D01*
X103672810Y-129590952D01*
X103625191Y-129638571D01*
X103529953Y-129686190D01*
X103149000Y-129686190D01*
X104149000Y-130162381D02*
X104149000Y-129162381D01*
X104815666Y-129162381D02*
X105006143Y-129162381D01*
X105101381Y-129210000D01*
X105196619Y-129305238D01*
X105244238Y-129495714D01*
X105244238Y-129829048D01*
X105196619Y-130019524D01*
X105101381Y-130114762D01*
X105006143Y-130162381D01*
X104815666Y-130162381D01*
X104720428Y-130114762D01*
X104625190Y-130019524D01*
X104577571Y-129829048D01*
X104577571Y-129495714D01*
X104625190Y-129305238D01*
X104720428Y-129210000D01*
X104815666Y-129162381D01*
X105577571Y-129162381D02*
X106244238Y-129162381D01*
X105815666Y-130162381D01*
X102672810Y-126670000D02*
X102577572Y-126622381D01*
X102434715Y-126622381D01*
X102291857Y-126670000D01*
X102196619Y-126765238D01*
X102149000Y-126860476D01*
X102101381Y-127050952D01*
X102101381Y-127193810D01*
X102149000Y-127384286D01*
X102196619Y-127479524D01*
X102291857Y-127574762D01*
X102434715Y-127622381D01*
X102529953Y-127622381D01*
X102672810Y-127574762D01*
X102720429Y-127527143D01*
X102720429Y-127193810D01*
X102529953Y-127193810D01*
X103149000Y-127622381D02*
X103149000Y-126622381D01*
X103529953Y-126622381D01*
X103625191Y-126670000D01*
X103672810Y-126717619D01*
X103720429Y-126812857D01*
X103720429Y-126955714D01*
X103672810Y-127050952D01*
X103625191Y-127098571D01*
X103529953Y-127146190D01*
X103149000Y-127146190D01*
X104149000Y-127622381D02*
X104149000Y-126622381D01*
X104815666Y-126622381D02*
X105006143Y-126622381D01*
X105101381Y-126670000D01*
X105196619Y-126765238D01*
X105244238Y-126955714D01*
X105244238Y-127289048D01*
X105196619Y-127479524D01*
X105101381Y-127574762D01*
X105006143Y-127622381D01*
X104815666Y-127622381D01*
X104720428Y-127574762D01*
X104625190Y-127479524D01*
X104577571Y-127289048D01*
X104577571Y-126955714D01*
X104625190Y-126765238D01*
X104720428Y-126670000D01*
X104815666Y-126622381D01*
X106149000Y-126622381D02*
X105672809Y-126622381D01*
X105625190Y-127098571D01*
X105672809Y-127050952D01*
X105768047Y-127003333D01*
X106006143Y-127003333D01*
X106101381Y-127050952D01*
X106149000Y-127098571D01*
X106196619Y-127193810D01*
X106196619Y-127431905D01*
X106149000Y-127527143D01*
X106101381Y-127574762D01*
X106006143Y-127622381D01*
X105768047Y-127622381D01*
X105672809Y-127574762D01*
X105625190Y-127527143D01*
X102672810Y-124130000D02*
X102577572Y-124082381D01*
X102434715Y-124082381D01*
X102291857Y-124130000D01*
X102196619Y-124225238D01*
X102149000Y-124320476D01*
X102101381Y-124510952D01*
X102101381Y-124653810D01*
X102149000Y-124844286D01*
X102196619Y-124939524D01*
X102291857Y-125034762D01*
X102434715Y-125082381D01*
X102529953Y-125082381D01*
X102672810Y-125034762D01*
X102720429Y-124987143D01*
X102720429Y-124653810D01*
X102529953Y-124653810D01*
X103149000Y-125082381D02*
X103149000Y-124082381D01*
X103529953Y-124082381D01*
X103625191Y-124130000D01*
X103672810Y-124177619D01*
X103720429Y-124272857D01*
X103720429Y-124415714D01*
X103672810Y-124510952D01*
X103625191Y-124558571D01*
X103529953Y-124606190D01*
X103149000Y-124606190D01*
X104149000Y-125082381D02*
X104149000Y-124082381D01*
X104815666Y-124082381D02*
X105006143Y-124082381D01*
X105101381Y-124130000D01*
X105196619Y-124225238D01*
X105244238Y-124415714D01*
X105244238Y-124749048D01*
X105196619Y-124939524D01*
X105101381Y-125034762D01*
X105006143Y-125082381D01*
X104815666Y-125082381D01*
X104720428Y-125034762D01*
X104625190Y-124939524D01*
X104577571Y-124749048D01*
X104577571Y-124415714D01*
X104625190Y-124225238D01*
X104720428Y-124130000D01*
X104815666Y-124082381D01*
X105577571Y-124082381D02*
X106196619Y-124082381D01*
X105863285Y-124463333D01*
X106006143Y-124463333D01*
X106101381Y-124510952D01*
X106149000Y-124558571D01*
X106196619Y-124653810D01*
X106196619Y-124891905D01*
X106149000Y-124987143D01*
X106101381Y-125034762D01*
X106006143Y-125082381D01*
X105720428Y-125082381D01*
X105625190Y-125034762D01*
X105577571Y-124987143D01*
X102672810Y-121590000D02*
X102577572Y-121542381D01*
X102434715Y-121542381D01*
X102291857Y-121590000D01*
X102196619Y-121685238D01*
X102149000Y-121780476D01*
X102101381Y-121970952D01*
X102101381Y-122113810D01*
X102149000Y-122304286D01*
X102196619Y-122399524D01*
X102291857Y-122494762D01*
X102434715Y-122542381D01*
X102529953Y-122542381D01*
X102672810Y-122494762D01*
X102720429Y-122447143D01*
X102720429Y-122113810D01*
X102529953Y-122113810D01*
X103149000Y-122542381D02*
X103149000Y-121542381D01*
X103529953Y-121542381D01*
X103625191Y-121590000D01*
X103672810Y-121637619D01*
X103720429Y-121732857D01*
X103720429Y-121875714D01*
X103672810Y-121970952D01*
X103625191Y-122018571D01*
X103529953Y-122066190D01*
X103149000Y-122066190D01*
X104149000Y-122542381D02*
X104149000Y-121542381D01*
X104815666Y-121542381D02*
X105006143Y-121542381D01*
X105101381Y-121590000D01*
X105196619Y-121685238D01*
X105244238Y-121875714D01*
X105244238Y-122209048D01*
X105196619Y-122399524D01*
X105101381Y-122494762D01*
X105006143Y-122542381D01*
X104815666Y-122542381D01*
X104720428Y-122494762D01*
X104625190Y-122399524D01*
X104577571Y-122209048D01*
X104577571Y-121875714D01*
X104625190Y-121685238D01*
X104720428Y-121590000D01*
X104815666Y-121542381D01*
X106196619Y-122542381D02*
X105625190Y-122542381D01*
X105910904Y-122542381D02*
X105910904Y-121542381D01*
X105815666Y-121685238D01*
X105720428Y-121780476D01*
X105625190Y-121828095D01*
X102474334Y-120002381D02*
X101998143Y-120002381D01*
X101998143Y-119002381D01*
X103379096Y-119907143D02*
X103331477Y-119954762D01*
X103188620Y-120002381D01*
X103093382Y-120002381D01*
X102950524Y-119954762D01*
X102855286Y-119859524D01*
X102807667Y-119764286D01*
X102760048Y-119573810D01*
X102760048Y-119430952D01*
X102807667Y-119240476D01*
X102855286Y-119145238D01*
X102950524Y-119050000D01*
X103093382Y-119002381D01*
X103188620Y-119002381D01*
X103331477Y-119050000D01*
X103379096Y-119097619D01*
X103807667Y-120002381D02*
X103807667Y-119002381D01*
X104045762Y-119002381D01*
X104188620Y-119050000D01*
X104283858Y-119145238D01*
X104331477Y-119240476D01*
X104379096Y-119430952D01*
X104379096Y-119573810D01*
X104331477Y-119764286D01*
X104283858Y-119859524D01*
X104188620Y-119954762D01*
X104045762Y-120002381D01*
X103807667Y-120002381D01*
X105331477Y-120002381D02*
X104760048Y-120002381D01*
X105045762Y-120002381D02*
X105045762Y-119002381D01*
X104950524Y-119145238D01*
X104855286Y-119240476D01*
X104760048Y-119288095D01*
X102474334Y-117462381D02*
X101998143Y-117462381D01*
X101998143Y-116462381D01*
X103379096Y-117367143D02*
X103331477Y-117414762D01*
X103188620Y-117462381D01*
X103093382Y-117462381D01*
X102950524Y-117414762D01*
X102855286Y-117319524D01*
X102807667Y-117224286D01*
X102760048Y-117033810D01*
X102760048Y-116890952D01*
X102807667Y-116700476D01*
X102855286Y-116605238D01*
X102950524Y-116510000D01*
X103093382Y-116462381D01*
X103188620Y-116462381D01*
X103331477Y-116510000D01*
X103379096Y-116557619D01*
X103807667Y-117462381D02*
X103807667Y-116462381D01*
X104045762Y-116462381D01*
X104188620Y-116510000D01*
X104283858Y-116605238D01*
X104331477Y-116700476D01*
X104379096Y-116890952D01*
X104379096Y-117033810D01*
X104331477Y-117224286D01*
X104283858Y-117319524D01*
X104188620Y-117414762D01*
X104045762Y-117462381D01*
X103807667Y-117462381D01*
X104760048Y-116557619D02*
X104807667Y-116510000D01*
X104902905Y-116462381D01*
X105141001Y-116462381D01*
X105236239Y-116510000D01*
X105283858Y-116557619D01*
X105331477Y-116652857D01*
X105331477Y-116748095D01*
X105283858Y-116890952D01*
X104712429Y-117462381D01*
X105331477Y-117462381D01*
X102474334Y-114922381D02*
X101998143Y-114922381D01*
X101998143Y-113922381D01*
X103379096Y-114827143D02*
X103331477Y-114874762D01*
X103188620Y-114922381D01*
X103093382Y-114922381D01*
X102950524Y-114874762D01*
X102855286Y-114779524D01*
X102807667Y-114684286D01*
X102760048Y-114493810D01*
X102760048Y-114350952D01*
X102807667Y-114160476D01*
X102855286Y-114065238D01*
X102950524Y-113970000D01*
X103093382Y-113922381D01*
X103188620Y-113922381D01*
X103331477Y-113970000D01*
X103379096Y-114017619D01*
X103807667Y-114922381D02*
X103807667Y-113922381D01*
X104045762Y-113922381D01*
X104188620Y-113970000D01*
X104283858Y-114065238D01*
X104331477Y-114160476D01*
X104379096Y-114350952D01*
X104379096Y-114493810D01*
X104331477Y-114684286D01*
X104283858Y-114779524D01*
X104188620Y-114874762D01*
X104045762Y-114922381D01*
X103807667Y-114922381D01*
X104712429Y-113922381D02*
X105331477Y-113922381D01*
X104998143Y-114303333D01*
X105141001Y-114303333D01*
X105236239Y-114350952D01*
X105283858Y-114398571D01*
X105331477Y-114493810D01*
X105331477Y-114731905D01*
X105283858Y-114827143D01*
X105236239Y-114874762D01*
X105141001Y-114922381D01*
X104855286Y-114922381D01*
X104760048Y-114874762D01*
X104712429Y-114827143D01*
X102609381Y-112382381D02*
X102133190Y-112382381D01*
X102133190Y-111382381D01*
X103514143Y-112287143D02*
X103466524Y-112334762D01*
X103323667Y-112382381D01*
X103228429Y-112382381D01*
X103085571Y-112334762D01*
X102990333Y-112239524D01*
X102942714Y-112144286D01*
X102895095Y-111953810D01*
X102895095Y-111810952D01*
X102942714Y-111620476D01*
X102990333Y-111525238D01*
X103085571Y-111430000D01*
X103228429Y-111382381D01*
X103323667Y-111382381D01*
X103466524Y-111430000D01*
X103514143Y-111477619D01*
X103942714Y-112382381D02*
X103942714Y-111382381D01*
X104180809Y-111382381D01*
X104323667Y-111430000D01*
X104418905Y-111525238D01*
X104466524Y-111620476D01*
X104514143Y-111810952D01*
X104514143Y-111953810D01*
X104466524Y-112144286D01*
X104418905Y-112239524D01*
X104323667Y-112334762D01*
X104180809Y-112382381D01*
X103942714Y-112382381D01*
X104704619Y-112477619D02*
X105466524Y-112477619D01*
X106276048Y-112382381D02*
X105942714Y-111906190D01*
X105704619Y-112382381D02*
X105704619Y-111382381D01*
X106085572Y-111382381D01*
X106180810Y-111430000D01*
X106228429Y-111477619D01*
X106276048Y-111572857D01*
X106276048Y-111715714D01*
X106228429Y-111810952D01*
X106180810Y-111858571D01*
X106085572Y-111906190D01*
X105704619Y-111906190D01*
X106657000Y-112334762D02*
X106799857Y-112382381D01*
X107037953Y-112382381D01*
X107133191Y-112334762D01*
X107180810Y-112287143D01*
X107228429Y-112191905D01*
X107228429Y-112096667D01*
X107180810Y-112001429D01*
X107133191Y-111953810D01*
X107037953Y-111906190D01*
X106847476Y-111858571D01*
X106752238Y-111810952D01*
X106704619Y-111763333D01*
X106657000Y-111668095D01*
X106657000Y-111572857D01*
X106704619Y-111477619D01*
X106752238Y-111430000D01*
X106847476Y-111382381D01*
X107085572Y-111382381D01*
X107228429Y-111430000D01*
X102474334Y-109842381D02*
X101998143Y-109842381D01*
X101998143Y-108842381D01*
X103379096Y-109747143D02*
X103331477Y-109794762D01*
X103188620Y-109842381D01*
X103093382Y-109842381D01*
X102950524Y-109794762D01*
X102855286Y-109699524D01*
X102807667Y-109604286D01*
X102760048Y-109413810D01*
X102760048Y-109270952D01*
X102807667Y-109080476D01*
X102855286Y-108985238D01*
X102950524Y-108890000D01*
X103093382Y-108842381D01*
X103188620Y-108842381D01*
X103331477Y-108890000D01*
X103379096Y-108937619D01*
X103807667Y-109842381D02*
X103807667Y-108842381D01*
X104045762Y-108842381D01*
X104188620Y-108890000D01*
X104283858Y-108985238D01*
X104331477Y-109080476D01*
X104379096Y-109270952D01*
X104379096Y-109413810D01*
X104331477Y-109604286D01*
X104283858Y-109699524D01*
X104188620Y-109794762D01*
X104045762Y-109842381D01*
X103807667Y-109842381D01*
X105236239Y-109175714D02*
X105236239Y-109842381D01*
X104998143Y-108794762D02*
X104760048Y-109509048D01*
X105379096Y-109509048D01*
X102030048Y-107254762D02*
X102172905Y-107302381D01*
X102411001Y-107302381D01*
X102506239Y-107254762D01*
X102553858Y-107207143D01*
X102601477Y-107111905D01*
X102601477Y-107016667D01*
X102553858Y-106921429D01*
X102506239Y-106873810D01*
X102411001Y-106826190D01*
X102220524Y-106778571D01*
X102125286Y-106730952D01*
X102077667Y-106683333D01*
X102030048Y-106588095D01*
X102030048Y-106492857D01*
X102077667Y-106397619D01*
X102125286Y-106350000D01*
X102220524Y-106302381D01*
X102458620Y-106302381D01*
X102601477Y-106350000D01*
X103030048Y-107302381D02*
X103030048Y-106302381D01*
X103411001Y-106302381D01*
X103506239Y-106350000D01*
X103553858Y-106397619D01*
X103601477Y-106492857D01*
X103601477Y-106635714D01*
X103553858Y-106730952D01*
X103506239Y-106778571D01*
X103411001Y-106826190D01*
X103030048Y-106826190D01*
X104030048Y-107302381D02*
X104030048Y-106302381D01*
X104268143Y-107397619D02*
X105030048Y-107397619D01*
X105220524Y-107254762D02*
X105363381Y-107302381D01*
X105601477Y-107302381D01*
X105696715Y-107254762D01*
X105744334Y-107207143D01*
X105791953Y-107111905D01*
X105791953Y-107016667D01*
X105744334Y-106921429D01*
X105696715Y-106873810D01*
X105601477Y-106826190D01*
X105411000Y-106778571D01*
X105315762Y-106730952D01*
X105268143Y-106683333D01*
X105220524Y-106588095D01*
X105220524Y-106492857D01*
X105268143Y-106397619D01*
X105315762Y-106350000D01*
X105411000Y-106302381D01*
X105649096Y-106302381D01*
X105791953Y-106350000D01*
X106791953Y-107207143D02*
X106744334Y-107254762D01*
X106601477Y-107302381D01*
X106506239Y-107302381D01*
X106363381Y-107254762D01*
X106268143Y-107159524D01*
X106220524Y-107064286D01*
X106172905Y-106873810D01*
X106172905Y-106730952D01*
X106220524Y-106540476D01*
X106268143Y-106445238D01*
X106363381Y-106350000D01*
X106506239Y-106302381D01*
X106601477Y-106302381D01*
X106744334Y-106350000D01*
X106791953Y-106397619D01*
X107220524Y-107302381D02*
X107220524Y-106302381D01*
X107791953Y-107302381D02*
X107363381Y-106730952D01*
X107791953Y-106302381D02*
X107220524Y-106873810D01*
X101950715Y-104714762D02*
X102093572Y-104762381D01*
X102331668Y-104762381D01*
X102426906Y-104714762D01*
X102474525Y-104667143D01*
X102522144Y-104571905D01*
X102522144Y-104476667D01*
X102474525Y-104381429D01*
X102426906Y-104333810D01*
X102331668Y-104286190D01*
X102141191Y-104238571D01*
X102045953Y-104190952D01*
X101998334Y-104143333D01*
X101950715Y-104048095D01*
X101950715Y-103952857D01*
X101998334Y-103857619D01*
X102045953Y-103810000D01*
X102141191Y-103762381D01*
X102379287Y-103762381D01*
X102522144Y-103810000D01*
X102950715Y-104762381D02*
X102950715Y-103762381D01*
X103331668Y-103762381D01*
X103426906Y-103810000D01*
X103474525Y-103857619D01*
X103522144Y-103952857D01*
X103522144Y-104095714D01*
X103474525Y-104190952D01*
X103426906Y-104238571D01*
X103331668Y-104286190D01*
X102950715Y-104286190D01*
X103950715Y-104762381D02*
X103950715Y-103762381D01*
X104188810Y-104857619D02*
X104950715Y-104857619D01*
X105188810Y-104762381D02*
X105188810Y-103762381D01*
X105522144Y-104476667D01*
X105855477Y-103762381D01*
X105855477Y-104762381D01*
X106331667Y-104762381D02*
X106331667Y-103762381D01*
X106760238Y-104714762D02*
X106903095Y-104762381D01*
X107141191Y-104762381D01*
X107236429Y-104714762D01*
X107284048Y-104667143D01*
X107331667Y-104571905D01*
X107331667Y-104476667D01*
X107284048Y-104381429D01*
X107236429Y-104333810D01*
X107141191Y-104286190D01*
X106950714Y-104238571D01*
X106855476Y-104190952D01*
X106807857Y-104143333D01*
X106760238Y-104048095D01*
X106760238Y-103952857D01*
X106807857Y-103857619D01*
X106855476Y-103810000D01*
X106950714Y-103762381D01*
X107188810Y-103762381D01*
X107331667Y-103810000D01*
X107950714Y-103762381D02*
X108141191Y-103762381D01*
X108236429Y-103810000D01*
X108331667Y-103905238D01*
X108379286Y-104095714D01*
X108379286Y-104429048D01*
X108331667Y-104619524D01*
X108236429Y-104714762D01*
X108141191Y-104762381D01*
X107950714Y-104762381D01*
X107855476Y-104714762D01*
X107760238Y-104619524D01*
X107712619Y-104429048D01*
X107712619Y-104095714D01*
X107760238Y-103905238D01*
X107855476Y-103810000D01*
X107950714Y-103762381D01*
X101902905Y-101222381D02*
X102474334Y-101222381D01*
X102188619Y-102222381D02*
X102188619Y-101222381D01*
X102712429Y-101222381D02*
X103379096Y-102222381D01*
X103379096Y-101222381D02*
X102712429Y-102222381D01*
X103760048Y-102222381D02*
X103760048Y-101222381D01*
X103998143Y-101222381D01*
X104141001Y-101270000D01*
X104236239Y-101365238D01*
X104283858Y-101460476D01*
X104331477Y-101650952D01*
X104331477Y-101793810D01*
X104283858Y-101984286D01*
X104236239Y-102079524D01*
X104141001Y-102174762D01*
X103998143Y-102222381D01*
X103760048Y-102222381D01*
X105283858Y-102222381D02*
X104712429Y-102222381D01*
X104998143Y-102222381D02*
X104998143Y-101222381D01*
X104902905Y-101365238D01*
X104807667Y-101460476D01*
X104712429Y-101508095D01*
X101902905Y-98682381D02*
X102474334Y-98682381D01*
X102188619Y-99682381D02*
X102188619Y-98682381D01*
X102712429Y-98682381D02*
X103379096Y-99682381D01*
X103379096Y-98682381D02*
X102712429Y-99682381D01*
X103760048Y-99682381D02*
X103760048Y-98682381D01*
X103998143Y-98682381D01*
X104141001Y-98730000D01*
X104236239Y-98825238D01*
X104283858Y-98920476D01*
X104331477Y-99110952D01*
X104331477Y-99253810D01*
X104283858Y-99444286D01*
X104236239Y-99539524D01*
X104141001Y-99634762D01*
X103998143Y-99682381D01*
X103760048Y-99682381D01*
X104950524Y-98682381D02*
X105045763Y-98682381D01*
X105141001Y-98730000D01*
X105188620Y-98777619D01*
X105236239Y-98872857D01*
X105283858Y-99063333D01*
X105283858Y-99301429D01*
X105236239Y-99491905D01*
X105188620Y-99587143D01*
X105141001Y-99634762D01*
X105045763Y-99682381D01*
X104950524Y-99682381D01*
X104855286Y-99634762D01*
X104807667Y-99587143D01*
X104760048Y-99491905D01*
X104712429Y-99301429D01*
X104712429Y-99063333D01*
X104760048Y-98872857D01*
X104807667Y-98777619D01*
X104855286Y-98730000D01*
X104950524Y-98682381D01*
X102045762Y-97142381D02*
X102045762Y-96142381D01*
X102379096Y-96856667D01*
X102712429Y-96142381D01*
X102712429Y-97142381D01*
X103188619Y-97142381D02*
X103188619Y-96142381D01*
X103426714Y-96142381D01*
X103569572Y-96190000D01*
X103664810Y-96285238D01*
X103712429Y-96380476D01*
X103760048Y-96570952D01*
X103760048Y-96713810D01*
X103712429Y-96904286D01*
X103664810Y-96999524D01*
X103569572Y-97094762D01*
X103426714Y-97142381D01*
X103188619Y-97142381D01*
X104188619Y-97142381D02*
X104188619Y-96142381D01*
X104855285Y-96142381D02*
X105045762Y-96142381D01*
X105141000Y-96190000D01*
X105236238Y-96285238D01*
X105283857Y-96475714D01*
X105283857Y-96809048D01*
X105236238Y-96999524D01*
X105141000Y-97094762D01*
X105045762Y-97142381D01*
X104855285Y-97142381D01*
X104760047Y-97094762D01*
X104664809Y-96999524D01*
X104617190Y-96809048D01*
X104617190Y-96475714D01*
X104664809Y-96285238D01*
X104760047Y-96190000D01*
X104855285Y-96142381D01*
X102680810Y-94507143D02*
X102633191Y-94554762D01*
X102490334Y-94602381D01*
X102395096Y-94602381D01*
X102252238Y-94554762D01*
X102157000Y-94459524D01*
X102109381Y-94364286D01*
X102061762Y-94173810D01*
X102061762Y-94030952D01*
X102109381Y-93840476D01*
X102157000Y-93745238D01*
X102252238Y-93650000D01*
X102395096Y-93602381D01*
X102490334Y-93602381D01*
X102633191Y-93650000D01*
X102680810Y-93697619D01*
X103680810Y-94602381D02*
X103347476Y-94126190D01*
X103109381Y-94602381D02*
X103109381Y-93602381D01*
X103490334Y-93602381D01*
X103585572Y-93650000D01*
X103633191Y-93697619D01*
X103680810Y-93792857D01*
X103680810Y-93935714D01*
X103633191Y-94030952D01*
X103585572Y-94078571D01*
X103490334Y-94126190D01*
X103109381Y-94126190D01*
X104061762Y-94554762D02*
X104204619Y-94602381D01*
X104442715Y-94602381D01*
X104537953Y-94554762D01*
X104585572Y-94507143D01*
X104633191Y-94411905D01*
X104633191Y-94316667D01*
X104585572Y-94221429D01*
X104537953Y-94173810D01*
X104442715Y-94126190D01*
X104252238Y-94078571D01*
X104157000Y-94030952D01*
X104109381Y-93983333D01*
X104061762Y-93888095D01*
X104061762Y-93792857D01*
X104109381Y-93697619D01*
X104157000Y-93650000D01*
X104252238Y-93602381D01*
X104490334Y-93602381D01*
X104633191Y-93650000D01*
X104823667Y-94697619D02*
X105585572Y-94697619D01*
X105823667Y-94602381D02*
X105823667Y-93602381D01*
X106061762Y-93602381D01*
X106204620Y-93650000D01*
X106299858Y-93745238D01*
X106347477Y-93840476D01*
X106395096Y-94030952D01*
X106395096Y-94173810D01*
X106347477Y-94364286D01*
X106299858Y-94459524D01*
X106204620Y-94554762D01*
X106061762Y-94602381D01*
X105823667Y-94602381D01*
X106680810Y-93602381D02*
X107014143Y-94602381D01*
X107347477Y-93602381D01*
X102053667Y-92062381D02*
X102053667Y-91062381D01*
X102387001Y-91776667D01*
X102720334Y-91062381D01*
X102720334Y-92062381D01*
X103196524Y-92062381D02*
X103196524Y-91062381D01*
X103434619Y-91062381D01*
X103577477Y-91110000D01*
X103672715Y-91205238D01*
X103720334Y-91300476D01*
X103767953Y-91490952D01*
X103767953Y-91633810D01*
X103720334Y-91824286D01*
X103672715Y-91919524D01*
X103577477Y-92014762D01*
X103434619Y-92062381D01*
X103196524Y-92062381D01*
X104767953Y-91967143D02*
X104720334Y-92014762D01*
X104577477Y-92062381D01*
X104482239Y-92062381D01*
X104339381Y-92014762D01*
X104244143Y-91919524D01*
X104196524Y-91824286D01*
X104148905Y-91633810D01*
X104148905Y-91490952D01*
X104196524Y-91300476D01*
X104244143Y-91205238D01*
X104339381Y-91110000D01*
X104482239Y-91062381D01*
X104577477Y-91062381D01*
X104720334Y-91110000D01*
X104767953Y-91157619D01*
X101775952Y-88522381D02*
X102347381Y-88522381D01*
X102061666Y-89522381D02*
X102061666Y-88522381D01*
X102585476Y-88522381D02*
X103252143Y-89522381D01*
X103252143Y-88522381D02*
X102585476Y-89522381D01*
X103395000Y-89617619D02*
X104156905Y-89617619D01*
X104395000Y-88998571D02*
X104728334Y-88998571D01*
X104871191Y-89522381D02*
X104395000Y-89522381D01*
X104395000Y-88522381D01*
X104871191Y-88522381D01*
X105299762Y-89522381D02*
X105299762Y-88522381D01*
X105871191Y-89522381D01*
X105871191Y-88522381D01*
X102498143Y-86982381D02*
X102164809Y-86506190D01*
X101926714Y-86982381D02*
X101926714Y-85982381D01*
X102307667Y-85982381D01*
X102402905Y-86030000D01*
X102450524Y-86077619D01*
X102498143Y-86172857D01*
X102498143Y-86315714D01*
X102450524Y-86410952D01*
X102402905Y-86458571D01*
X102307667Y-86506190D01*
X101926714Y-86506190D01*
X102831476Y-85982381D02*
X103498143Y-86982381D01*
X103498143Y-85982381D02*
X102831476Y-86982381D01*
X103879095Y-86982381D02*
X103879095Y-85982381D01*
X104117190Y-85982381D01*
X104260048Y-86030000D01*
X104355286Y-86125238D01*
X104402905Y-86220476D01*
X104450524Y-86410952D01*
X104450524Y-86553810D01*
X104402905Y-86744286D01*
X104355286Y-86839524D01*
X104260048Y-86934762D01*
X104117190Y-86982381D01*
X103879095Y-86982381D01*
X105402905Y-86982381D02*
X104831476Y-86982381D01*
X105117190Y-86982381D02*
X105117190Y-85982381D01*
X105021952Y-86125238D01*
X104926714Y-86220476D01*
X104831476Y-86268095D01*
X101847286Y-84061429D02*
X102609191Y-84061429D01*
X102228239Y-84442381D02*
X102228239Y-83680476D01*
X103561572Y-83442381D02*
X103085381Y-83442381D01*
X103037762Y-83918571D01*
X103085381Y-83870952D01*
X103180619Y-83823333D01*
X103418715Y-83823333D01*
X103513953Y-83870952D01*
X103561572Y-83918571D01*
X103609191Y-84013810D01*
X103609191Y-84251905D01*
X103561572Y-84347143D01*
X103513953Y-84394762D01*
X103418715Y-84442381D01*
X103180619Y-84442381D01*
X103085381Y-84394762D01*
X103037762Y-84347143D01*
X103894905Y-83442381D02*
X104228238Y-84442381D01*
X104561572Y-83442381D01*
X93735096Y-131496000D02*
X93639858Y-131448381D01*
X93497001Y-131448381D01*
X93354143Y-131496000D01*
X93258905Y-131591238D01*
X93211286Y-131686476D01*
X93163667Y-131876952D01*
X93163667Y-132019810D01*
X93211286Y-132210286D01*
X93258905Y-132305524D01*
X93354143Y-132400762D01*
X93497001Y-132448381D01*
X93592239Y-132448381D01*
X93735096Y-132400762D01*
X93782715Y-132353143D01*
X93782715Y-132019810D01*
X93592239Y-132019810D01*
X94211286Y-132448381D02*
X94211286Y-131448381D01*
X94782715Y-132448381D01*
X94782715Y-131448381D01*
X95258905Y-132448381D02*
X95258905Y-131448381D01*
X95497000Y-131448381D01*
X95639858Y-131496000D01*
X95735096Y-131591238D01*
X95782715Y-131686476D01*
X95830334Y-131876952D01*
X95830334Y-132019810D01*
X95782715Y-132210286D01*
X95735096Y-132305524D01*
X95639858Y-132400762D01*
X95497000Y-132448381D01*
X95258905Y-132448381D01*
X93735096Y-129210000D02*
X93639858Y-129162381D01*
X93497001Y-129162381D01*
X93354143Y-129210000D01*
X93258905Y-129305238D01*
X93211286Y-129400476D01*
X93163667Y-129590952D01*
X93163667Y-129733810D01*
X93211286Y-129924286D01*
X93258905Y-130019524D01*
X93354143Y-130114762D01*
X93497001Y-130162381D01*
X93592239Y-130162381D01*
X93735096Y-130114762D01*
X93782715Y-130067143D01*
X93782715Y-129733810D01*
X93592239Y-129733810D01*
X94211286Y-130162381D02*
X94211286Y-129162381D01*
X94782715Y-130162381D01*
X94782715Y-129162381D01*
X95258905Y-130162381D02*
X95258905Y-129162381D01*
X95497000Y-129162381D01*
X95639858Y-129210000D01*
X95735096Y-129305238D01*
X95782715Y-129400476D01*
X95830334Y-129590952D01*
X95830334Y-129733810D01*
X95782715Y-129924286D01*
X95735096Y-130019524D01*
X95639858Y-130114762D01*
X95497000Y-130162381D01*
X95258905Y-130162381D01*
X92406429Y-126670000D02*
X92320715Y-126622381D01*
X92192144Y-126622381D01*
X92063572Y-126670000D01*
X91977858Y-126765238D01*
X91935001Y-126860476D01*
X91892144Y-127050952D01*
X91892144Y-127193810D01*
X91935001Y-127384286D01*
X91977858Y-127479524D01*
X92063572Y-127574762D01*
X92192144Y-127622381D01*
X92277858Y-127622381D01*
X92406429Y-127574762D01*
X92449286Y-127527143D01*
X92449286Y-127193810D01*
X92277858Y-127193810D01*
X92835001Y-127622381D02*
X92835001Y-126622381D01*
X93177858Y-126622381D01*
X93263572Y-126670000D01*
X93306429Y-126717619D01*
X93349286Y-126812857D01*
X93349286Y-126955714D01*
X93306429Y-127050952D01*
X93263572Y-127098571D01*
X93177858Y-127146190D01*
X92835001Y-127146190D01*
X93735001Y-127622381D02*
X93735001Y-126622381D01*
X94335000Y-126622381D02*
X94506429Y-126622381D01*
X94592143Y-126670000D01*
X94677857Y-126765238D01*
X94720715Y-126955714D01*
X94720715Y-127289048D01*
X94677857Y-127479524D01*
X94592143Y-127574762D01*
X94506429Y-127622381D01*
X94335000Y-127622381D01*
X94249286Y-127574762D01*
X94163572Y-127479524D01*
X94120715Y-127289048D01*
X94120715Y-126955714D01*
X94163572Y-126765238D01*
X94249286Y-126670000D01*
X94335000Y-126622381D01*
X95492143Y-126622381D02*
X95320714Y-126622381D01*
X95235000Y-126670000D01*
X95192143Y-126717619D01*
X95106429Y-126860476D01*
X95063572Y-127050952D01*
X95063572Y-127431905D01*
X95106429Y-127527143D01*
X95149286Y-127574762D01*
X95235000Y-127622381D01*
X95406429Y-127622381D01*
X95492143Y-127574762D01*
X95535000Y-127527143D01*
X95577857Y-127431905D01*
X95577857Y-127193810D01*
X95535000Y-127098571D01*
X95492143Y-127050952D01*
X95406429Y-127003333D01*
X95235000Y-127003333D01*
X95149286Y-127050952D01*
X95106429Y-127098571D01*
X95063572Y-127193810D01*
X92406429Y-124130000D02*
X92320715Y-124082381D01*
X92192144Y-124082381D01*
X92063572Y-124130000D01*
X91977858Y-124225238D01*
X91935001Y-124320476D01*
X91892144Y-124510952D01*
X91892144Y-124653810D01*
X91935001Y-124844286D01*
X91977858Y-124939524D01*
X92063572Y-125034762D01*
X92192144Y-125082381D01*
X92277858Y-125082381D01*
X92406429Y-125034762D01*
X92449286Y-124987143D01*
X92449286Y-124653810D01*
X92277858Y-124653810D01*
X92835001Y-125082381D02*
X92835001Y-124082381D01*
X93177858Y-124082381D01*
X93263572Y-124130000D01*
X93306429Y-124177619D01*
X93349286Y-124272857D01*
X93349286Y-124415714D01*
X93306429Y-124510952D01*
X93263572Y-124558571D01*
X93177858Y-124606190D01*
X92835001Y-124606190D01*
X93735001Y-125082381D02*
X93735001Y-124082381D01*
X94335000Y-124082381D02*
X94506429Y-124082381D01*
X94592143Y-124130000D01*
X94677857Y-124225238D01*
X94720715Y-124415714D01*
X94720715Y-124749048D01*
X94677857Y-124939524D01*
X94592143Y-125034762D01*
X94506429Y-125082381D01*
X94335000Y-125082381D01*
X94249286Y-125034762D01*
X94163572Y-124939524D01*
X94120715Y-124749048D01*
X94120715Y-124415714D01*
X94163572Y-124225238D01*
X94249286Y-124130000D01*
X94335000Y-124082381D01*
X95492143Y-124415714D02*
X95492143Y-125082381D01*
X95277857Y-124034762D02*
X95063572Y-124749048D01*
X95620714Y-124749048D01*
X92406429Y-121590000D02*
X92320715Y-121542381D01*
X92192144Y-121542381D01*
X92063572Y-121590000D01*
X91977858Y-121685238D01*
X91935001Y-121780476D01*
X91892144Y-121970952D01*
X91892144Y-122113810D01*
X91935001Y-122304286D01*
X91977858Y-122399524D01*
X92063572Y-122494762D01*
X92192144Y-122542381D01*
X92277858Y-122542381D01*
X92406429Y-122494762D01*
X92449286Y-122447143D01*
X92449286Y-122113810D01*
X92277858Y-122113810D01*
X92835001Y-122542381D02*
X92835001Y-121542381D01*
X93177858Y-121542381D01*
X93263572Y-121590000D01*
X93306429Y-121637619D01*
X93349286Y-121732857D01*
X93349286Y-121875714D01*
X93306429Y-121970952D01*
X93263572Y-122018571D01*
X93177858Y-122066190D01*
X92835001Y-122066190D01*
X93735001Y-122542381D02*
X93735001Y-121542381D01*
X94335000Y-121542381D02*
X94506429Y-121542381D01*
X94592143Y-121590000D01*
X94677857Y-121685238D01*
X94720715Y-121875714D01*
X94720715Y-122209048D01*
X94677857Y-122399524D01*
X94592143Y-122494762D01*
X94506429Y-122542381D01*
X94335000Y-122542381D01*
X94249286Y-122494762D01*
X94163572Y-122399524D01*
X94120715Y-122209048D01*
X94120715Y-121875714D01*
X94163572Y-121685238D01*
X94249286Y-121590000D01*
X94335000Y-121542381D01*
X95063572Y-121637619D02*
X95106429Y-121590000D01*
X95192143Y-121542381D01*
X95406429Y-121542381D01*
X95492143Y-121590000D01*
X95535000Y-121637619D01*
X95577857Y-121732857D01*
X95577857Y-121828095D01*
X95535000Y-121970952D01*
X95020714Y-122542381D01*
X95577857Y-122542381D01*
X92406429Y-119050000D02*
X92320715Y-119002381D01*
X92192144Y-119002381D01*
X92063572Y-119050000D01*
X91977858Y-119145238D01*
X91935001Y-119240476D01*
X91892144Y-119430952D01*
X91892144Y-119573810D01*
X91935001Y-119764286D01*
X91977858Y-119859524D01*
X92063572Y-119954762D01*
X92192144Y-120002381D01*
X92277858Y-120002381D01*
X92406429Y-119954762D01*
X92449286Y-119907143D01*
X92449286Y-119573810D01*
X92277858Y-119573810D01*
X92835001Y-120002381D02*
X92835001Y-119002381D01*
X93177858Y-119002381D01*
X93263572Y-119050000D01*
X93306429Y-119097619D01*
X93349286Y-119192857D01*
X93349286Y-119335714D01*
X93306429Y-119430952D01*
X93263572Y-119478571D01*
X93177858Y-119526190D01*
X92835001Y-119526190D01*
X93735001Y-120002381D02*
X93735001Y-119002381D01*
X94335000Y-119002381D02*
X94506429Y-119002381D01*
X94592143Y-119050000D01*
X94677857Y-119145238D01*
X94720715Y-119335714D01*
X94720715Y-119669048D01*
X94677857Y-119859524D01*
X94592143Y-119954762D01*
X94506429Y-120002381D01*
X94335000Y-120002381D01*
X94249286Y-119954762D01*
X94163572Y-119859524D01*
X94120715Y-119669048D01*
X94120715Y-119335714D01*
X94163572Y-119145238D01*
X94249286Y-119050000D01*
X94335000Y-119002381D01*
X95277857Y-119002381D02*
X95363572Y-119002381D01*
X95449286Y-119050000D01*
X95492143Y-119097619D01*
X95535000Y-119192857D01*
X95577857Y-119383333D01*
X95577857Y-119621429D01*
X95535000Y-119811905D01*
X95492143Y-119907143D01*
X95449286Y-119954762D01*
X95363572Y-120002381D01*
X95277857Y-120002381D01*
X95192143Y-119954762D01*
X95149286Y-119907143D01*
X95106429Y-119811905D01*
X95063572Y-119621429D01*
X95063572Y-119383333D01*
X95106429Y-119192857D01*
X95149286Y-119097619D01*
X95192143Y-119050000D01*
X95277857Y-119002381D01*
X93735096Y-116510000D02*
X93639858Y-116462381D01*
X93497001Y-116462381D01*
X93354143Y-116510000D01*
X93258905Y-116605238D01*
X93211286Y-116700476D01*
X93163667Y-116890952D01*
X93163667Y-117033810D01*
X93211286Y-117224286D01*
X93258905Y-117319524D01*
X93354143Y-117414762D01*
X93497001Y-117462381D01*
X93592239Y-117462381D01*
X93735096Y-117414762D01*
X93782715Y-117367143D01*
X93782715Y-117033810D01*
X93592239Y-117033810D01*
X94211286Y-117462381D02*
X94211286Y-116462381D01*
X94782715Y-117462381D01*
X94782715Y-116462381D01*
X95258905Y-117462381D02*
X95258905Y-116462381D01*
X95497000Y-116462381D01*
X95639858Y-116510000D01*
X95735096Y-116605238D01*
X95782715Y-116700476D01*
X95830334Y-116890952D01*
X95830334Y-117033810D01*
X95782715Y-117224286D01*
X95735096Y-117319524D01*
X95639858Y-117414762D01*
X95497000Y-117462381D01*
X95258905Y-117462381D01*
X93735096Y-113970000D02*
X93639858Y-113922381D01*
X93497001Y-113922381D01*
X93354143Y-113970000D01*
X93258905Y-114065238D01*
X93211286Y-114160476D01*
X93163667Y-114350952D01*
X93163667Y-114493810D01*
X93211286Y-114684286D01*
X93258905Y-114779524D01*
X93354143Y-114874762D01*
X93497001Y-114922381D01*
X93592239Y-114922381D01*
X93735096Y-114874762D01*
X93782715Y-114827143D01*
X93782715Y-114493810D01*
X93592239Y-114493810D01*
X94211286Y-114922381D02*
X94211286Y-113922381D01*
X94782715Y-114922381D01*
X94782715Y-113922381D01*
X95258905Y-114922381D02*
X95258905Y-113922381D01*
X95497000Y-113922381D01*
X95639858Y-113970000D01*
X95735096Y-114065238D01*
X95782715Y-114160476D01*
X95830334Y-114350952D01*
X95830334Y-114493810D01*
X95782715Y-114684286D01*
X95735096Y-114779524D01*
X95639858Y-114874762D01*
X95497000Y-114922381D01*
X95258905Y-114922381D01*
D23*
X92555667Y-112128381D02*
X92222334Y-112128381D01*
X92222334Y-111128381D01*
X93189001Y-112033143D02*
X93155667Y-112080762D01*
X93055667Y-112128381D01*
X92989001Y-112128381D01*
X92889001Y-112080762D01*
X92822334Y-111985524D01*
X92789001Y-111890286D01*
X92755667Y-111699810D01*
X92755667Y-111556952D01*
X92789001Y-111366476D01*
X92822334Y-111271238D01*
X92889001Y-111176000D01*
X92989001Y-111128381D01*
X93055667Y-111128381D01*
X93155667Y-111176000D01*
X93189001Y-111223619D01*
X93489001Y-112128381D02*
X93489001Y-111128381D01*
X93655667Y-111128381D01*
X93755667Y-111176000D01*
X93822334Y-111271238D01*
X93855667Y-111366476D01*
X93889001Y-111556952D01*
X93889001Y-111699810D01*
X93855667Y-111890286D01*
X93822334Y-111985524D01*
X93755667Y-112080762D01*
X93655667Y-112128381D01*
X93489001Y-112128381D01*
X94022334Y-112223619D02*
X94555667Y-112223619D01*
X94722334Y-111604571D02*
X94955667Y-111604571D01*
X95055667Y-112128381D02*
X94722334Y-112128381D01*
X94722334Y-111128381D01*
X95055667Y-111128381D01*
X95355667Y-112128381D02*
X95355667Y-111128381D01*
X95755667Y-112128381D01*
X95755667Y-111128381D01*
X91485000Y-109540762D02*
X91585000Y-109588381D01*
X91751667Y-109588381D01*
X91818334Y-109540762D01*
X91851667Y-109493143D01*
X91885000Y-109397905D01*
X91885000Y-109302667D01*
X91851667Y-109207429D01*
X91818334Y-109159810D01*
X91751667Y-109112190D01*
X91618334Y-109064571D01*
X91551667Y-109016952D01*
X91518334Y-108969333D01*
X91485000Y-108874095D01*
X91485000Y-108778857D01*
X91518334Y-108683619D01*
X91551667Y-108636000D01*
X91618334Y-108588381D01*
X91785000Y-108588381D01*
X91885000Y-108636000D01*
X92185001Y-109588381D02*
X92185001Y-108588381D01*
X92451667Y-108588381D01*
X92518334Y-108636000D01*
X92551667Y-108683619D01*
X92585001Y-108778857D01*
X92585001Y-108921714D01*
X92551667Y-109016952D01*
X92518334Y-109064571D01*
X92451667Y-109112190D01*
X92185001Y-109112190D01*
X92885001Y-109588381D02*
X92885001Y-108588381D01*
X93051667Y-109683619D02*
X93585000Y-109683619D01*
X93751667Y-109588381D02*
X93751667Y-108588381D01*
X93985000Y-109302667D01*
X94218333Y-108588381D01*
X94218333Y-109588381D01*
X94685000Y-108588381D02*
X94818333Y-108588381D01*
X94885000Y-108636000D01*
X94951667Y-108731238D01*
X94985000Y-108921714D01*
X94985000Y-109255048D01*
X94951667Y-109445524D01*
X94885000Y-109540762D01*
X94818333Y-109588381D01*
X94685000Y-109588381D01*
X94618333Y-109540762D01*
X94551667Y-109445524D01*
X94518333Y-109255048D01*
X94518333Y-108921714D01*
X94551667Y-108731238D01*
X94618333Y-108636000D01*
X94685000Y-108588381D01*
X95251666Y-109540762D02*
X95351666Y-109588381D01*
X95518333Y-109588381D01*
X95585000Y-109540762D01*
X95618333Y-109493143D01*
X95651666Y-109397905D01*
X95651666Y-109302667D01*
X95618333Y-109207429D01*
X95585000Y-109159810D01*
X95518333Y-109112190D01*
X95385000Y-109064571D01*
X95318333Y-109016952D01*
X95285000Y-108969333D01*
X95251666Y-108874095D01*
X95251666Y-108778857D01*
X95285000Y-108683619D01*
X95318333Y-108636000D01*
X95385000Y-108588381D01*
X95551666Y-108588381D01*
X95651666Y-108636000D01*
X95951667Y-109588381D02*
X95951667Y-108588381D01*
D11*
X93735096Y-106350000D02*
X93639858Y-106302381D01*
X93497001Y-106302381D01*
X93354143Y-106350000D01*
X93258905Y-106445238D01*
X93211286Y-106540476D01*
X93163667Y-106730952D01*
X93163667Y-106873810D01*
X93211286Y-107064286D01*
X93258905Y-107159524D01*
X93354143Y-107254762D01*
X93497001Y-107302381D01*
X93592239Y-107302381D01*
X93735096Y-107254762D01*
X93782715Y-107207143D01*
X93782715Y-106873810D01*
X93592239Y-106873810D01*
X94211286Y-107302381D02*
X94211286Y-106302381D01*
X94782715Y-107302381D01*
X94782715Y-106302381D01*
X95258905Y-107302381D02*
X95258905Y-106302381D01*
X95497000Y-106302381D01*
X95639858Y-106350000D01*
X95735096Y-106445238D01*
X95782715Y-106540476D01*
X95830334Y-106730952D01*
X95830334Y-106873810D01*
X95782715Y-107064286D01*
X95735096Y-107159524D01*
X95639858Y-107254762D01*
X95497000Y-107302381D01*
X95258905Y-107302381D01*
X93735096Y-103810000D02*
X93639858Y-103762381D01*
X93497001Y-103762381D01*
X93354143Y-103810000D01*
X93258905Y-103905238D01*
X93211286Y-104000476D01*
X93163667Y-104190952D01*
X93163667Y-104333810D01*
X93211286Y-104524286D01*
X93258905Y-104619524D01*
X93354143Y-104714762D01*
X93497001Y-104762381D01*
X93592239Y-104762381D01*
X93735096Y-104714762D01*
X93782715Y-104667143D01*
X93782715Y-104333810D01*
X93592239Y-104333810D01*
X94211286Y-104762381D02*
X94211286Y-103762381D01*
X94782715Y-104762381D01*
X94782715Y-103762381D01*
X95258905Y-104762381D02*
X95258905Y-103762381D01*
X95497000Y-103762381D01*
X95639858Y-103810000D01*
X95735096Y-103905238D01*
X95782715Y-104000476D01*
X95830334Y-104190952D01*
X95830334Y-104333810D01*
X95782715Y-104524286D01*
X95735096Y-104619524D01*
X95639858Y-104714762D01*
X95497000Y-104762381D01*
X95258905Y-104762381D01*
D24*
X92085001Y-102177143D02*
X91851667Y-101748571D01*
X91685001Y-102177143D02*
X91685001Y-101277143D01*
X91951667Y-101277143D01*
X92018334Y-101320000D01*
X92051667Y-101362857D01*
X92085001Y-101448571D01*
X92085001Y-101577143D01*
X92051667Y-101662857D01*
X92018334Y-101705714D01*
X91951667Y-101748571D01*
X91685001Y-101748571D01*
X92385001Y-101705714D02*
X92618334Y-101705714D01*
X92718334Y-102177143D02*
X92385001Y-102177143D01*
X92385001Y-101277143D01*
X92718334Y-101277143D01*
X93251667Y-101705714D02*
X93018334Y-101705714D01*
X93018334Y-102177143D02*
X93018334Y-101277143D01*
X93351667Y-101277143D01*
X93451667Y-102262857D02*
X93985000Y-102262857D01*
X94551667Y-102091429D02*
X94518333Y-102134286D01*
X94418333Y-102177143D01*
X94351667Y-102177143D01*
X94251667Y-102134286D01*
X94185000Y-102048571D01*
X94151667Y-101962857D01*
X94118333Y-101791429D01*
X94118333Y-101662857D01*
X94151667Y-101491429D01*
X94185000Y-101405714D01*
X94251667Y-101320000D01*
X94351667Y-101277143D01*
X94418333Y-101277143D01*
X94518333Y-101320000D01*
X94551667Y-101362857D01*
X95185000Y-102177143D02*
X94851667Y-102177143D01*
X94851667Y-101277143D01*
X95418334Y-102177143D02*
X95418334Y-101277143D01*
X95818334Y-102177143D02*
X95518334Y-101662857D01*
X95818334Y-101277143D02*
X95418334Y-101791429D01*
D11*
X93735096Y-98730000D02*
X93639858Y-98682381D01*
X93497001Y-98682381D01*
X93354143Y-98730000D01*
X93258905Y-98825238D01*
X93211286Y-98920476D01*
X93163667Y-99110952D01*
X93163667Y-99253810D01*
X93211286Y-99444286D01*
X93258905Y-99539524D01*
X93354143Y-99634762D01*
X93497001Y-99682381D01*
X93592239Y-99682381D01*
X93735096Y-99634762D01*
X93782715Y-99587143D01*
X93782715Y-99253810D01*
X93592239Y-99253810D01*
X94211286Y-99682381D02*
X94211286Y-98682381D01*
X94782715Y-99682381D01*
X94782715Y-98682381D01*
X95258905Y-99682381D02*
X95258905Y-98682381D01*
X95497000Y-98682381D01*
X95639858Y-98730000D01*
X95735096Y-98825238D01*
X95782715Y-98920476D01*
X95830334Y-99110952D01*
X95830334Y-99253810D01*
X95782715Y-99444286D01*
X95735096Y-99539524D01*
X95639858Y-99634762D01*
X95497000Y-99682381D01*
X95258905Y-99682381D01*
X93735096Y-96190000D02*
X93639858Y-96142381D01*
X93497001Y-96142381D01*
X93354143Y-96190000D01*
X93258905Y-96285238D01*
X93211286Y-96380476D01*
X93163667Y-96570952D01*
X93163667Y-96713810D01*
X93211286Y-96904286D01*
X93258905Y-96999524D01*
X93354143Y-97094762D01*
X93497001Y-97142381D01*
X93592239Y-97142381D01*
X93735096Y-97094762D01*
X93782715Y-97047143D01*
X93782715Y-96713810D01*
X93592239Y-96713810D01*
X94211286Y-97142381D02*
X94211286Y-96142381D01*
X94782715Y-97142381D01*
X94782715Y-96142381D01*
X95258905Y-97142381D02*
X95258905Y-96142381D01*
X95497000Y-96142381D01*
X95639858Y-96190000D01*
X95735096Y-96285238D01*
X95782715Y-96380476D01*
X95830334Y-96570952D01*
X95830334Y-96713810D01*
X95782715Y-96904286D01*
X95735096Y-96999524D01*
X95639858Y-97094762D01*
X95497000Y-97142381D01*
X95258905Y-97142381D01*
X93735096Y-91110000D02*
X93639858Y-91062381D01*
X93497001Y-91062381D01*
X93354143Y-91110000D01*
X93258905Y-91205238D01*
X93211286Y-91300476D01*
X93163667Y-91490952D01*
X93163667Y-91633810D01*
X93211286Y-91824286D01*
X93258905Y-91919524D01*
X93354143Y-92014762D01*
X93497001Y-92062381D01*
X93592239Y-92062381D01*
X93735096Y-92014762D01*
X93782715Y-91967143D01*
X93782715Y-91633810D01*
X93592239Y-91633810D01*
X94211286Y-92062381D02*
X94211286Y-91062381D01*
X94782715Y-92062381D01*
X94782715Y-91062381D01*
X95258905Y-92062381D02*
X95258905Y-91062381D01*
X95497000Y-91062381D01*
X95639858Y-91110000D01*
X95735096Y-91205238D01*
X95782715Y-91300476D01*
X95830334Y-91490952D01*
X95830334Y-91633810D01*
X95782715Y-91824286D01*
X95735096Y-91919524D01*
X95639858Y-92014762D01*
X95497000Y-92062381D01*
X95258905Y-92062381D01*
X92846143Y-94602381D02*
X92512809Y-94126190D01*
X92274714Y-94602381D02*
X92274714Y-93602381D01*
X92655667Y-93602381D01*
X92750905Y-93650000D01*
X92798524Y-93697619D01*
X92846143Y-93792857D01*
X92846143Y-93935714D01*
X92798524Y-94030952D01*
X92750905Y-94078571D01*
X92655667Y-94126190D01*
X92274714Y-94126190D01*
X93179476Y-93602381D02*
X93846143Y-94602381D01*
X93846143Y-93602381D02*
X93179476Y-94602381D01*
X94227095Y-94602381D02*
X94227095Y-93602381D01*
X94465190Y-93602381D01*
X94608048Y-93650000D01*
X94703286Y-93745238D01*
X94750905Y-93840476D01*
X94798524Y-94030952D01*
X94798524Y-94173810D01*
X94750905Y-94364286D01*
X94703286Y-94459524D01*
X94608048Y-94554762D01*
X94465190Y-94602381D01*
X94227095Y-94602381D01*
X95417571Y-93602381D02*
X95512810Y-93602381D01*
X95608048Y-93650000D01*
X95655667Y-93697619D01*
X95703286Y-93792857D01*
X95750905Y-93983333D01*
X95750905Y-94221429D01*
X95703286Y-94411905D01*
X95655667Y-94507143D01*
X95608048Y-94554762D01*
X95512810Y-94602381D01*
X95417571Y-94602381D01*
X95322333Y-94554762D01*
X95274714Y-94507143D01*
X95227095Y-94411905D01*
X95179476Y-94221429D01*
X95179476Y-93983333D01*
X95227095Y-93792857D01*
X95274714Y-93697619D01*
X95322333Y-93650000D01*
X95417571Y-93602381D01*
X93735096Y-88570000D02*
X93639858Y-88522381D01*
X93497001Y-88522381D01*
X93354143Y-88570000D01*
X93258905Y-88665238D01*
X93211286Y-88760476D01*
X93163667Y-88950952D01*
X93163667Y-89093810D01*
X93211286Y-89284286D01*
X93258905Y-89379524D01*
X93354143Y-89474762D01*
X93497001Y-89522381D01*
X93592239Y-89522381D01*
X93735096Y-89474762D01*
X93782715Y-89427143D01*
X93782715Y-89093810D01*
X93592239Y-89093810D01*
X94211286Y-89522381D02*
X94211286Y-88522381D01*
X94782715Y-89522381D01*
X94782715Y-88522381D01*
X95258905Y-89522381D02*
X95258905Y-88522381D01*
X95497000Y-88522381D01*
X95639858Y-88570000D01*
X95735096Y-88665238D01*
X95782715Y-88760476D01*
X95830334Y-88950952D01*
X95830334Y-89093810D01*
X95782715Y-89284286D01*
X95735096Y-89379524D01*
X95639858Y-89474762D01*
X95497000Y-89522381D01*
X95258905Y-89522381D01*
X93735096Y-86030000D02*
X93639858Y-85982381D01*
X93497001Y-85982381D01*
X93354143Y-86030000D01*
X93258905Y-86125238D01*
X93211286Y-86220476D01*
X93163667Y-86410952D01*
X93163667Y-86553810D01*
X93211286Y-86744286D01*
X93258905Y-86839524D01*
X93354143Y-86934762D01*
X93497001Y-86982381D01*
X93592239Y-86982381D01*
X93735096Y-86934762D01*
X93782715Y-86887143D01*
X93782715Y-86553810D01*
X93592239Y-86553810D01*
X94211286Y-86982381D02*
X94211286Y-85982381D01*
X94782715Y-86982381D01*
X94782715Y-85982381D01*
X95258905Y-86982381D02*
X95258905Y-85982381D01*
X95497000Y-85982381D01*
X95639858Y-86030000D01*
X95735096Y-86125238D01*
X95782715Y-86220476D01*
X95830334Y-86410952D01*
X95830334Y-86553810D01*
X95782715Y-86744286D01*
X95735096Y-86839524D01*
X95639858Y-86934762D01*
X95497000Y-86982381D01*
X95258905Y-86982381D01*
X91735000Y-84061429D02*
X92496905Y-84061429D01*
X92115953Y-84442381D02*
X92115953Y-83680476D01*
X92877857Y-83442381D02*
X93496905Y-83442381D01*
X93163571Y-83823333D01*
X93306429Y-83823333D01*
X93401667Y-83870952D01*
X93449286Y-83918571D01*
X93496905Y-84013810D01*
X93496905Y-84251905D01*
X93449286Y-84347143D01*
X93401667Y-84394762D01*
X93306429Y-84442381D01*
X93020714Y-84442381D01*
X92925476Y-84394762D01*
X92877857Y-84347143D01*
X93925476Y-84347143D02*
X93973095Y-84394762D01*
X93925476Y-84442381D01*
X93877857Y-84394762D01*
X93925476Y-84347143D01*
X93925476Y-84442381D01*
X94306428Y-83442381D02*
X94925476Y-83442381D01*
X94592142Y-83823333D01*
X94735000Y-83823333D01*
X94830238Y-83870952D01*
X94877857Y-83918571D01*
X94925476Y-84013810D01*
X94925476Y-84251905D01*
X94877857Y-84347143D01*
X94830238Y-84394762D01*
X94735000Y-84442381D01*
X94449285Y-84442381D01*
X94354047Y-84394762D01*
X94306428Y-84347143D01*
X95211190Y-83442381D02*
X95544523Y-84442381D01*
X95877857Y-83442381D01*
D22*
X97885239Y-82295714D02*
X97847144Y-82333810D01*
X97732858Y-82371905D01*
X97656668Y-82371905D01*
X97542382Y-82333810D01*
X97466191Y-82257619D01*
X97428096Y-82181429D01*
X97390001Y-82029048D01*
X97390001Y-81914762D01*
X97428096Y-81762381D01*
X97466191Y-81686190D01*
X97542382Y-81610000D01*
X97656668Y-81571905D01*
X97732858Y-81571905D01*
X97847144Y-81610000D01*
X97885239Y-81648095D01*
X98228096Y-82371905D02*
X98228096Y-81571905D01*
X98570953Y-82143333D02*
X98951905Y-82143333D01*
X98494762Y-82371905D02*
X98761429Y-81571905D01*
X99028096Y-82371905D01*
X99256667Y-82143333D02*
X99637619Y-82143333D01*
X99180476Y-82371905D02*
X99447143Y-81571905D01*
X99713810Y-82371905D01*
X99980476Y-82067143D02*
X100590000Y-82067143D01*
X100970952Y-82371905D02*
X100970952Y-81571905D01*
X101275714Y-81571905D01*
X101351905Y-81610000D01*
X101390000Y-81648095D01*
X101428095Y-81724286D01*
X101428095Y-81838571D01*
X101390000Y-81914762D01*
X101351905Y-81952857D01*
X101275714Y-81990952D01*
X100970952Y-81990952D01*
X101732857Y-81648095D02*
X101770952Y-81610000D01*
X101847143Y-81571905D01*
X102037619Y-81571905D01*
X102113809Y-81610000D01*
X102151905Y-81648095D01*
X102190000Y-81724286D01*
X102190000Y-81800476D01*
X102151905Y-81914762D01*
X101694762Y-82371905D01*
X102190000Y-82371905D01*
D15*
X126917077Y-109313195D02*
X126917077Y-108500395D01*
X127226715Y-108500395D01*
X127304124Y-108539100D01*
X127342829Y-108577805D01*
X127381534Y-108655214D01*
X127381534Y-108771329D01*
X127342829Y-108848738D01*
X127304124Y-108887443D01*
X127226715Y-108926148D01*
X126917077Y-108926148D01*
X128155629Y-109313195D02*
X127691172Y-109313195D01*
X127923401Y-109313195D02*
X127923401Y-108500395D01*
X127845991Y-108616510D01*
X127768582Y-108693919D01*
X127691172Y-108732624D01*
D25*
X133409800Y-83203810D02*
X133192086Y-83203810D01*
X133192086Y-82695810D01*
X133801686Y-83203810D02*
X133540429Y-83203810D01*
X133671057Y-83203810D02*
X133671057Y-82695810D01*
X133627514Y-82768381D01*
X133583972Y-82816762D01*
X133540429Y-82840952D01*
D15*
X113546358Y-110899429D02*
X113546358Y-109375429D01*
X113981786Y-109375429D01*
X114090644Y-109448000D01*
X114145072Y-109520571D01*
X114199501Y-109665714D01*
X114199501Y-109883429D01*
X114145072Y-110028571D01*
X114090644Y-110101143D01*
X113981786Y-110173714D01*
X113546358Y-110173714D01*
X114580501Y-109375429D02*
X115288072Y-109375429D01*
X114907072Y-109956000D01*
X115070358Y-109956000D01*
X115179215Y-110028571D01*
X115233644Y-110101143D01*
X115288072Y-110246286D01*
X115288072Y-110609143D01*
X115233644Y-110754286D01*
X115179215Y-110826857D01*
X115070358Y-110899429D01*
X114743786Y-110899429D01*
X114634929Y-110826857D01*
X114580501Y-110754286D01*
D25*
X121471800Y-81041362D02*
X121319400Y-80803086D01*
X121210543Y-81041362D02*
X121210543Y-80540982D01*
X121384715Y-80540982D01*
X121428257Y-80564810D01*
X121450029Y-80588638D01*
X121471800Y-80636293D01*
X121471800Y-80707776D01*
X121450029Y-80755431D01*
X121428257Y-80779259D01*
X121384715Y-80803086D01*
X121210543Y-80803086D01*
X121907229Y-81041362D02*
X121645972Y-81041362D01*
X121776600Y-81041362D02*
X121776600Y-80540982D01*
X121733057Y-80612465D01*
X121689515Y-80660120D01*
X121645972Y-80683948D01*
X117280800Y-79263362D02*
X117128400Y-79025086D01*
X117019543Y-79263362D02*
X117019543Y-78762982D01*
X117193715Y-78762982D01*
X117237257Y-78786810D01*
X117259029Y-78810638D01*
X117280800Y-78858293D01*
X117280800Y-78929776D01*
X117259029Y-78977431D01*
X117237257Y-79001259D01*
X117193715Y-79025086D01*
X117019543Y-79025086D01*
X117454972Y-78810638D02*
X117476743Y-78786810D01*
X117520286Y-78762982D01*
X117629143Y-78762982D01*
X117672686Y-78786810D01*
X117694457Y-78810638D01*
X117716229Y-78858293D01*
X117716229Y-78905948D01*
X117694457Y-78977431D01*
X117433200Y-79263362D01*
X117716229Y-79263362D01*
X126424800Y-88915362D02*
X126272400Y-88677086D01*
X126163543Y-88915362D02*
X126163543Y-88414982D01*
X126337715Y-88414982D01*
X126381257Y-88438810D01*
X126403029Y-88462638D01*
X126424800Y-88510293D01*
X126424800Y-88581776D01*
X126403029Y-88629431D01*
X126381257Y-88653259D01*
X126337715Y-88677086D01*
X126163543Y-88677086D01*
X126577200Y-88414982D02*
X126860229Y-88414982D01*
X126707829Y-88605603D01*
X126773143Y-88605603D01*
X126816686Y-88629431D01*
X126838457Y-88653259D01*
X126860229Y-88700914D01*
X126860229Y-88820052D01*
X126838457Y-88867707D01*
X126816686Y-88891535D01*
X126773143Y-88915362D01*
X126642515Y-88915362D01*
X126598972Y-88891535D01*
X126577200Y-88867707D01*
X122995800Y-89042362D02*
X122843400Y-88804086D01*
X122734543Y-89042362D02*
X122734543Y-88541982D01*
X122908715Y-88541982D01*
X122952257Y-88565810D01*
X122974029Y-88589638D01*
X122995800Y-88637293D01*
X122995800Y-88708776D01*
X122974029Y-88756431D01*
X122952257Y-88780259D01*
X122908715Y-88804086D01*
X122734543Y-88804086D01*
X123387686Y-88708776D02*
X123387686Y-89042362D01*
X123278829Y-88518155D02*
X123169972Y-88875569D01*
X123453000Y-88875569D01*
X133282800Y-91582362D02*
X133130400Y-91344086D01*
X133021543Y-91582362D02*
X133021543Y-91081982D01*
X133195715Y-91081982D01*
X133239257Y-91105810D01*
X133261029Y-91129638D01*
X133282800Y-91177293D01*
X133282800Y-91248776D01*
X133261029Y-91296431D01*
X133239257Y-91320259D01*
X133195715Y-91344086D01*
X133021543Y-91344086D01*
X133696457Y-91081982D02*
X133478743Y-91081982D01*
X133456972Y-91320259D01*
X133478743Y-91296431D01*
X133522286Y-91272603D01*
X133631143Y-91272603D01*
X133674686Y-91296431D01*
X133696457Y-91320259D01*
X133718229Y-91367914D01*
X133718229Y-91487052D01*
X133696457Y-91534707D01*
X133674686Y-91558535D01*
X133631143Y-91582362D01*
X133522286Y-91582362D01*
X133478743Y-91558535D01*
X133456972Y-91534707D01*
X128202800Y-88915362D02*
X128050400Y-88677086D01*
X127941543Y-88915362D02*
X127941543Y-88414982D01*
X128115715Y-88414982D01*
X128159257Y-88438810D01*
X128181029Y-88462638D01*
X128202800Y-88510293D01*
X128202800Y-88581776D01*
X128181029Y-88629431D01*
X128159257Y-88653259D01*
X128115715Y-88677086D01*
X127941543Y-88677086D01*
X128594686Y-88414982D02*
X128507600Y-88414982D01*
X128464057Y-88438810D01*
X128442286Y-88462638D01*
X128398743Y-88534120D01*
X128376972Y-88629431D01*
X128376972Y-88820052D01*
X128398743Y-88867707D01*
X128420515Y-88891535D01*
X128464057Y-88915362D01*
X128551143Y-88915362D01*
X128594686Y-88891535D01*
X128616457Y-88867707D01*
X128638229Y-88820052D01*
X128638229Y-88700914D01*
X128616457Y-88653259D01*
X128594686Y-88629431D01*
X128551143Y-88605603D01*
X128464057Y-88605603D01*
X128420515Y-88629431D01*
X128398743Y-88653259D01*
X128376972Y-88700914D01*
X109533800Y-99519862D02*
X109381400Y-99281586D01*
X109272543Y-99519862D02*
X109272543Y-99019482D01*
X109446715Y-99019482D01*
X109490257Y-99043310D01*
X109512029Y-99067138D01*
X109533800Y-99114793D01*
X109533800Y-99186276D01*
X109512029Y-99233931D01*
X109490257Y-99257759D01*
X109446715Y-99281586D01*
X109272543Y-99281586D01*
X109686200Y-99019482D02*
X109991000Y-99019482D01*
X109795057Y-99519862D01*
X109533800Y-101932862D02*
X109381400Y-101694586D01*
X109272543Y-101932862D02*
X109272543Y-101432482D01*
X109446715Y-101432482D01*
X109490257Y-101456310D01*
X109512029Y-101480138D01*
X109533800Y-101527793D01*
X109533800Y-101599276D01*
X109512029Y-101646931D01*
X109490257Y-101670759D01*
X109446715Y-101694586D01*
X109272543Y-101694586D01*
X109795057Y-101646931D02*
X109751515Y-101623103D01*
X109729743Y-101599276D01*
X109707972Y-101551620D01*
X109707972Y-101527793D01*
X109729743Y-101480138D01*
X109751515Y-101456310D01*
X109795057Y-101432482D01*
X109882143Y-101432482D01*
X109925686Y-101456310D01*
X109947457Y-101480138D01*
X109969229Y-101527793D01*
X109969229Y-101551620D01*
X109947457Y-101599276D01*
X109925686Y-101623103D01*
X109882143Y-101646931D01*
X109795057Y-101646931D01*
X109751515Y-101670759D01*
X109729743Y-101694586D01*
X109707972Y-101742241D01*
X109707972Y-101837552D01*
X109729743Y-101885207D01*
X109751515Y-101909035D01*
X109795057Y-101932862D01*
X109882143Y-101932862D01*
X109925686Y-101909035D01*
X109947457Y-101885207D01*
X109969229Y-101837552D01*
X109969229Y-101742241D01*
X109947457Y-101694586D01*
X109925686Y-101670759D01*
X109882143Y-101646931D01*
X111565800Y-83708362D02*
X111413400Y-83470086D01*
X111304543Y-83708362D02*
X111304543Y-83207982D01*
X111478715Y-83207982D01*
X111522257Y-83231810D01*
X111544029Y-83255638D01*
X111565800Y-83303293D01*
X111565800Y-83374776D01*
X111544029Y-83422431D01*
X111522257Y-83446259D01*
X111478715Y-83470086D01*
X111304543Y-83470086D01*
X111783515Y-83708362D02*
X111870600Y-83708362D01*
X111914143Y-83684535D01*
X111935915Y-83660707D01*
X111979457Y-83589224D01*
X112001229Y-83493914D01*
X112001229Y-83303293D01*
X111979457Y-83255638D01*
X111957686Y-83231810D01*
X111914143Y-83207982D01*
X111827057Y-83207982D01*
X111783515Y-83231810D01*
X111761743Y-83255638D01*
X111739972Y-83303293D01*
X111739972Y-83422431D01*
X111761743Y-83470086D01*
X111783515Y-83493914D01*
X111827057Y-83517741D01*
X111914143Y-83517741D01*
X111957686Y-83493914D01*
X111979457Y-83470086D01*
X112001229Y-83422431D01*
X127350085Y-73675362D02*
X127197685Y-73437086D01*
X127088828Y-73675362D02*
X127088828Y-73174982D01*
X127263000Y-73174982D01*
X127306542Y-73198810D01*
X127328314Y-73222638D01*
X127350085Y-73270293D01*
X127350085Y-73341776D01*
X127328314Y-73389431D01*
X127306542Y-73413259D01*
X127263000Y-73437086D01*
X127088828Y-73437086D01*
X127785514Y-73675362D02*
X127524257Y-73675362D01*
X127654885Y-73675362D02*
X127654885Y-73174982D01*
X127611342Y-73246465D01*
X127567800Y-73294120D01*
X127524257Y-73317948D01*
X128068543Y-73174982D02*
X128112086Y-73174982D01*
X128155629Y-73198810D01*
X128177400Y-73222638D01*
X128199171Y-73270293D01*
X128220943Y-73365603D01*
X128220943Y-73484741D01*
X128199171Y-73580052D01*
X128177400Y-73627707D01*
X128155629Y-73651535D01*
X128112086Y-73675362D01*
X128068543Y-73675362D01*
X128025000Y-73651535D01*
X128003229Y-73627707D01*
X127981457Y-73580052D01*
X127959686Y-73484741D01*
X127959686Y-73365603D01*
X127981457Y-73270293D01*
X128003229Y-73222638D01*
X128025000Y-73198810D01*
X128068543Y-73174982D01*
X129128085Y-73675362D02*
X128975685Y-73437086D01*
X128866828Y-73675362D02*
X128866828Y-73174982D01*
X129041000Y-73174982D01*
X129084542Y-73198810D01*
X129106314Y-73222638D01*
X129128085Y-73270293D01*
X129128085Y-73341776D01*
X129106314Y-73389431D01*
X129084542Y-73413259D01*
X129041000Y-73437086D01*
X128866828Y-73437086D01*
X129563514Y-73675362D02*
X129302257Y-73675362D01*
X129432885Y-73675362D02*
X129432885Y-73174982D01*
X129389342Y-73246465D01*
X129345800Y-73294120D01*
X129302257Y-73317948D01*
X129998943Y-73675362D02*
X129737686Y-73675362D01*
X129868314Y-73675362D02*
X129868314Y-73174982D01*
X129824771Y-73246465D01*
X129781229Y-73294120D01*
X129737686Y-73317948D01*
X125572085Y-78628362D02*
X125419685Y-78390086D01*
X125310828Y-78628362D02*
X125310828Y-78127982D01*
X125485000Y-78127982D01*
X125528542Y-78151810D01*
X125550314Y-78175638D01*
X125572085Y-78223293D01*
X125572085Y-78294776D01*
X125550314Y-78342431D01*
X125528542Y-78366259D01*
X125485000Y-78390086D01*
X125310828Y-78390086D01*
X126007514Y-78628362D02*
X125746257Y-78628362D01*
X125876885Y-78628362D02*
X125876885Y-78127982D01*
X125833342Y-78199465D01*
X125789800Y-78247120D01*
X125746257Y-78270948D01*
X126181686Y-78175638D02*
X126203457Y-78151810D01*
X126247000Y-78127982D01*
X126355857Y-78127982D01*
X126399400Y-78151810D01*
X126421171Y-78175638D01*
X126442943Y-78223293D01*
X126442943Y-78270948D01*
X126421171Y-78342431D01*
X126159914Y-78628362D01*
X126442943Y-78628362D01*
X109443085Y-96979862D02*
X109290685Y-96741586D01*
X109181828Y-96979862D02*
X109181828Y-96479482D01*
X109356000Y-96479482D01*
X109399542Y-96503310D01*
X109421314Y-96527138D01*
X109443085Y-96574793D01*
X109443085Y-96646276D01*
X109421314Y-96693931D01*
X109399542Y-96717759D01*
X109356000Y-96741586D01*
X109181828Y-96741586D01*
X109878514Y-96979862D02*
X109617257Y-96979862D01*
X109747885Y-96979862D02*
X109747885Y-96479482D01*
X109704342Y-96550965D01*
X109660800Y-96598620D01*
X109617257Y-96622448D01*
X110030914Y-96479482D02*
X110313943Y-96479482D01*
X110161543Y-96670103D01*
X110226857Y-96670103D01*
X110270400Y-96693931D01*
X110292171Y-96717759D01*
X110313943Y-96765414D01*
X110313943Y-96884552D01*
X110292171Y-96932207D01*
X110270400Y-96956035D01*
X110226857Y-96979862D01*
X110096229Y-96979862D01*
X110052686Y-96956035D01*
X110030914Y-96932207D01*
X111284585Y-78691862D02*
X111132185Y-78453586D01*
X111023328Y-78691862D02*
X111023328Y-78191482D01*
X111197500Y-78191482D01*
X111241042Y-78215310D01*
X111262814Y-78239138D01*
X111284585Y-78286793D01*
X111284585Y-78358276D01*
X111262814Y-78405931D01*
X111241042Y-78429759D01*
X111197500Y-78453586D01*
X111023328Y-78453586D01*
X111720014Y-78691862D02*
X111458757Y-78691862D01*
X111589385Y-78691862D02*
X111589385Y-78191482D01*
X111545842Y-78262965D01*
X111502300Y-78310620D01*
X111458757Y-78334448D01*
X112111900Y-78358276D02*
X112111900Y-78691862D01*
X112003043Y-78167655D02*
X111894186Y-78525069D01*
X112177214Y-78525069D01*
X119158585Y-81104862D02*
X119006185Y-80866586D01*
X118897328Y-81104862D02*
X118897328Y-80604482D01*
X119071500Y-80604482D01*
X119115042Y-80628310D01*
X119136814Y-80652138D01*
X119158585Y-80699793D01*
X119158585Y-80771276D01*
X119136814Y-80818931D01*
X119115042Y-80842759D01*
X119071500Y-80866586D01*
X118897328Y-80866586D01*
X119594014Y-81104862D02*
X119332757Y-81104862D01*
X119463385Y-81104862D02*
X119463385Y-80604482D01*
X119419842Y-80675965D01*
X119376300Y-80723620D01*
X119332757Y-80747448D01*
X120007671Y-80604482D02*
X119789957Y-80604482D01*
X119768186Y-80842759D01*
X119789957Y-80818931D01*
X119833500Y-80795103D01*
X119942357Y-80795103D01*
X119985900Y-80818931D01*
X120007671Y-80842759D01*
X120029443Y-80890414D01*
X120029443Y-81009552D01*
X120007671Y-81057207D01*
X119985900Y-81081035D01*
X119942357Y-81104862D01*
X119833500Y-81104862D01*
X119789957Y-81081035D01*
X119768186Y-81057207D01*
X131795085Y-80533362D02*
X131642685Y-80295086D01*
X131533828Y-80533362D02*
X131533828Y-80032982D01*
X131708000Y-80032982D01*
X131751542Y-80056810D01*
X131773314Y-80080638D01*
X131795085Y-80128293D01*
X131795085Y-80199776D01*
X131773314Y-80247431D01*
X131751542Y-80271259D01*
X131708000Y-80295086D01*
X131533828Y-80295086D01*
X132230514Y-80533362D02*
X131969257Y-80533362D01*
X132099885Y-80533362D02*
X132099885Y-80032982D01*
X132056342Y-80104465D01*
X132012800Y-80152120D01*
X131969257Y-80175948D01*
X132622400Y-80032982D02*
X132535314Y-80032982D01*
X132491771Y-80056810D01*
X132470000Y-80080638D01*
X132426457Y-80152120D01*
X132404686Y-80247431D01*
X132404686Y-80438052D01*
X132426457Y-80485707D01*
X132448229Y-80509535D01*
X132491771Y-80533362D01*
X132578857Y-80533362D01*
X132622400Y-80509535D01*
X132644171Y-80485707D01*
X132665943Y-80438052D01*
X132665943Y-80318914D01*
X132644171Y-80271259D01*
X132622400Y-80247431D01*
X132578857Y-80223603D01*
X132491771Y-80223603D01*
X132448229Y-80247431D01*
X132426457Y-80271259D01*
X132404686Y-80318914D01*
X120365085Y-103837862D02*
X120212685Y-103599586D01*
X120103828Y-103837862D02*
X120103828Y-103337482D01*
X120278000Y-103337482D01*
X120321542Y-103361310D01*
X120343314Y-103385138D01*
X120365085Y-103432793D01*
X120365085Y-103504276D01*
X120343314Y-103551931D01*
X120321542Y-103575759D01*
X120278000Y-103599586D01*
X120103828Y-103599586D01*
X120800514Y-103837862D02*
X120539257Y-103837862D01*
X120669885Y-103837862D02*
X120669885Y-103337482D01*
X120626342Y-103408965D01*
X120582800Y-103456620D01*
X120539257Y-103480448D01*
X120952914Y-103337482D02*
X121257714Y-103337482D01*
X121061771Y-103837862D01*
X140913685Y-104104562D02*
X140761285Y-103866286D01*
X140652428Y-104104562D02*
X140652428Y-103604182D01*
X140826600Y-103604182D01*
X140870142Y-103628010D01*
X140891914Y-103651838D01*
X140913685Y-103699493D01*
X140913685Y-103770976D01*
X140891914Y-103818631D01*
X140870142Y-103842459D01*
X140826600Y-103866286D01*
X140652428Y-103866286D01*
X141349114Y-104104562D02*
X141087857Y-104104562D01*
X141218485Y-104104562D02*
X141218485Y-103604182D01*
X141174942Y-103675665D01*
X141131400Y-103723320D01*
X141087857Y-103747148D01*
X141610371Y-103818631D02*
X141566829Y-103794803D01*
X141545057Y-103770976D01*
X141523286Y-103723320D01*
X141523286Y-103699493D01*
X141545057Y-103651838D01*
X141566829Y-103628010D01*
X141610371Y-103604182D01*
X141697457Y-103604182D01*
X141741000Y-103628010D01*
X141762771Y-103651838D01*
X141784543Y-103699493D01*
X141784543Y-103723320D01*
X141762771Y-103770976D01*
X141741000Y-103794803D01*
X141697457Y-103818631D01*
X141610371Y-103818631D01*
X141566829Y-103842459D01*
X141545057Y-103866286D01*
X141523286Y-103913941D01*
X141523286Y-104009252D01*
X141545057Y-104056907D01*
X141566829Y-104080735D01*
X141610371Y-104104562D01*
X141697457Y-104104562D01*
X141741000Y-104080735D01*
X141762771Y-104056907D01*
X141784543Y-104009252D01*
X141784543Y-103913941D01*
X141762771Y-103866286D01*
X141741000Y-103842459D01*
X141697457Y-103818631D01*
X130017085Y-84470362D02*
X129864685Y-84232086D01*
X129755828Y-84470362D02*
X129755828Y-83969982D01*
X129930000Y-83969982D01*
X129973542Y-83993810D01*
X129995314Y-84017638D01*
X130017085Y-84065293D01*
X130017085Y-84136776D01*
X129995314Y-84184431D01*
X129973542Y-84208259D01*
X129930000Y-84232086D01*
X129755828Y-84232086D01*
X130452514Y-84470362D02*
X130191257Y-84470362D01*
X130321885Y-84470362D02*
X130321885Y-83969982D01*
X130278342Y-84041465D01*
X130234800Y-84089120D01*
X130191257Y-84112948D01*
X130670229Y-84470362D02*
X130757314Y-84470362D01*
X130800857Y-84446535D01*
X130822629Y-84422707D01*
X130866171Y-84351224D01*
X130887943Y-84255914D01*
X130887943Y-84065293D01*
X130866171Y-84017638D01*
X130844400Y-83993810D01*
X130800857Y-83969982D01*
X130713771Y-83969982D01*
X130670229Y-83993810D01*
X130648457Y-84017638D01*
X130626686Y-84065293D01*
X130626686Y-84184431D01*
X130648457Y-84232086D01*
X130670229Y-84255914D01*
X130713771Y-84279741D01*
X130800857Y-84279741D01*
X130844400Y-84255914D01*
X130866171Y-84232086D01*
X130887943Y-84184431D01*
X95854085Y-77866362D02*
X95701685Y-77628086D01*
X95592828Y-77866362D02*
X95592828Y-77365982D01*
X95767000Y-77365982D01*
X95810542Y-77389810D01*
X95832314Y-77413638D01*
X95854085Y-77461293D01*
X95854085Y-77532776D01*
X95832314Y-77580431D01*
X95810542Y-77604259D01*
X95767000Y-77628086D01*
X95592828Y-77628086D01*
X96028257Y-77413638D02*
X96050028Y-77389810D01*
X96093571Y-77365982D01*
X96202428Y-77365982D01*
X96245971Y-77389810D01*
X96267742Y-77413638D01*
X96289514Y-77461293D01*
X96289514Y-77508948D01*
X96267742Y-77580431D01*
X96006485Y-77866362D01*
X96289514Y-77866362D01*
X96572543Y-77365982D02*
X96616086Y-77365982D01*
X96659629Y-77389810D01*
X96681400Y-77413638D01*
X96703171Y-77461293D01*
X96724943Y-77556603D01*
X96724943Y-77675741D01*
X96703171Y-77771052D01*
X96681400Y-77818707D01*
X96659629Y-77842535D01*
X96616086Y-77866362D01*
X96572543Y-77866362D01*
X96529000Y-77842535D01*
X96507229Y-77818707D01*
X96485457Y-77771052D01*
X96463686Y-77675741D01*
X96463686Y-77556603D01*
X96485457Y-77461293D01*
X96507229Y-77413638D01*
X96529000Y-77389810D01*
X96572543Y-77365982D01*
X106496085Y-71236362D02*
X106343685Y-70998086D01*
X106234828Y-71236362D02*
X106234828Y-70735982D01*
X106409000Y-70735982D01*
X106452542Y-70759810D01*
X106474314Y-70783638D01*
X106496085Y-70831293D01*
X106496085Y-70902776D01*
X106474314Y-70950431D01*
X106452542Y-70974259D01*
X106409000Y-70998086D01*
X106234828Y-70998086D01*
X106670257Y-70783638D02*
X106692028Y-70759810D01*
X106735571Y-70735982D01*
X106844428Y-70735982D01*
X106887971Y-70759810D01*
X106909742Y-70783638D01*
X106931514Y-70831293D01*
X106931514Y-70878948D01*
X106909742Y-70950431D01*
X106648485Y-71236362D01*
X106931514Y-71236362D01*
X107366943Y-71236362D02*
X107105686Y-71236362D01*
X107236314Y-71236362D02*
X107236314Y-70735982D01*
X107192771Y-70807465D01*
X107149229Y-70855120D01*
X107105686Y-70878948D01*
X119476085Y-74056362D02*
X119323685Y-73818086D01*
X119214828Y-74056362D02*
X119214828Y-73555982D01*
X119389000Y-73555982D01*
X119432542Y-73579810D01*
X119454314Y-73603638D01*
X119476085Y-73651293D01*
X119476085Y-73722776D01*
X119454314Y-73770431D01*
X119432542Y-73794259D01*
X119389000Y-73818086D01*
X119214828Y-73818086D01*
X119650257Y-73603638D02*
X119672028Y-73579810D01*
X119715571Y-73555982D01*
X119824428Y-73555982D01*
X119867971Y-73579810D01*
X119889742Y-73603638D01*
X119911514Y-73651293D01*
X119911514Y-73698948D01*
X119889742Y-73770431D01*
X119628485Y-74056362D01*
X119911514Y-74056362D01*
X120085686Y-73603638D02*
X120107457Y-73579810D01*
X120151000Y-73555982D01*
X120259857Y-73555982D01*
X120303400Y-73579810D01*
X120325171Y-73603638D01*
X120346943Y-73651293D01*
X120346943Y-73698948D01*
X120325171Y-73770431D01*
X120063914Y-74056362D01*
X120346943Y-74056362D01*
X92933085Y-72659362D02*
X92780685Y-72421086D01*
X92671828Y-72659362D02*
X92671828Y-72158982D01*
X92846000Y-72158982D01*
X92889542Y-72182810D01*
X92911314Y-72206638D01*
X92933085Y-72254293D01*
X92933085Y-72325776D01*
X92911314Y-72373431D01*
X92889542Y-72397259D01*
X92846000Y-72421086D01*
X92671828Y-72421086D01*
X93107257Y-72206638D02*
X93129028Y-72182810D01*
X93172571Y-72158982D01*
X93281428Y-72158982D01*
X93324971Y-72182810D01*
X93346742Y-72206638D01*
X93368514Y-72254293D01*
X93368514Y-72301948D01*
X93346742Y-72373431D01*
X93085485Y-72659362D01*
X93368514Y-72659362D01*
X93520914Y-72158982D02*
X93803943Y-72158982D01*
X93651543Y-72349603D01*
X93716857Y-72349603D01*
X93760400Y-72373431D01*
X93782171Y-72397259D01*
X93803943Y-72444914D01*
X93803943Y-72564052D01*
X93782171Y-72611707D01*
X93760400Y-72635535D01*
X93716857Y-72659362D01*
X93586229Y-72659362D01*
X93542686Y-72635535D01*
X93520914Y-72611707D01*
X116836685Y-127541562D02*
X116684285Y-127303286D01*
X116575428Y-127541562D02*
X116575428Y-127041182D01*
X116749600Y-127041182D01*
X116793142Y-127065010D01*
X116814914Y-127088838D01*
X116836685Y-127136493D01*
X116836685Y-127207976D01*
X116814914Y-127255631D01*
X116793142Y-127279459D01*
X116749600Y-127303286D01*
X116575428Y-127303286D01*
X117010857Y-127088838D02*
X117032628Y-127065010D01*
X117076171Y-127041182D01*
X117185028Y-127041182D01*
X117228571Y-127065010D01*
X117250342Y-127088838D01*
X117272114Y-127136493D01*
X117272114Y-127184148D01*
X117250342Y-127255631D01*
X116989085Y-127541562D01*
X117272114Y-127541562D01*
X117664000Y-127207976D02*
X117664000Y-127541562D01*
X117555143Y-127017355D02*
X117446286Y-127374769D01*
X117729314Y-127374769D01*
X121856429Y-83826714D02*
X121856429Y-84443571D01*
X121892714Y-84516143D01*
X121929000Y-84552429D01*
X122001571Y-84588714D01*
X122146714Y-84588714D01*
X122219286Y-84552429D01*
X122255571Y-84516143D01*
X122291857Y-84443571D01*
X122291857Y-83826714D01*
X123053857Y-84588714D02*
X122618429Y-84588714D01*
X122836143Y-84588714D02*
X122836143Y-83826714D01*
X122763572Y-83935571D01*
X122691000Y-84008143D01*
X122618429Y-84044429D01*
D14*
X109742381Y-121043333D02*
X110456667Y-121043333D01*
X110599524Y-121090953D01*
X110694762Y-121186191D01*
X110742381Y-121329048D01*
X110742381Y-121424286D01*
X110742381Y-120567143D02*
X109742381Y-120567143D01*
X109742381Y-120186190D01*
X109790000Y-120090952D01*
X109837619Y-120043333D01*
X109932857Y-119995714D01*
X110075714Y-119995714D01*
X110170952Y-120043333D01*
X110218571Y-120090952D01*
X110266190Y-120186190D01*
X110266190Y-120567143D01*
X110742381Y-119043333D02*
X110742381Y-119614762D01*
X110742381Y-119329048D02*
X109742381Y-119329048D01*
X109885238Y-119424286D01*
X109980476Y-119519524D01*
X110028095Y-119614762D01*
D25*
X114096085Y-80936362D02*
X113943685Y-80698086D01*
X113834828Y-80936362D02*
X113834828Y-80435982D01*
X114009000Y-80435982D01*
X114052542Y-80459810D01*
X114074314Y-80483638D01*
X114096085Y-80531293D01*
X114096085Y-80602776D01*
X114074314Y-80650431D01*
X114052542Y-80674259D01*
X114009000Y-80698086D01*
X113834828Y-80698086D01*
X114270257Y-80483638D02*
X114292028Y-80459810D01*
X114335571Y-80435982D01*
X114444428Y-80435982D01*
X114487971Y-80459810D01*
X114509742Y-80483638D01*
X114531514Y-80531293D01*
X114531514Y-80578948D01*
X114509742Y-80650431D01*
X114248485Y-80936362D01*
X114531514Y-80936362D01*
X114945171Y-80435982D02*
X114727457Y-80435982D01*
X114705686Y-80674259D01*
X114727457Y-80650431D01*
X114771000Y-80626603D01*
X114879857Y-80626603D01*
X114923400Y-80650431D01*
X114945171Y-80674259D01*
X114966943Y-80721914D01*
X114966943Y-80841052D01*
X114945171Y-80888707D01*
X114923400Y-80912535D01*
X114879857Y-80936362D01*
X114771000Y-80936362D01*
X114727457Y-80912535D01*
X114705686Y-80888707D01*
D21*
X102927381Y-75801524D02*
X102927381Y-76829619D01*
X102987857Y-76950571D01*
X103048333Y-77011048D01*
X103169286Y-77071524D01*
X103411190Y-77071524D01*
X103532143Y-77011048D01*
X103592619Y-76950571D01*
X103653095Y-76829619D01*
X103653095Y-75801524D01*
X104197381Y-75922476D02*
X104257857Y-75862000D01*
X104378809Y-75801524D01*
X104681190Y-75801524D01*
X104802143Y-75862000D01*
X104862619Y-75922476D01*
X104923095Y-76043429D01*
X104923095Y-76164381D01*
X104862619Y-76345810D01*
X104136905Y-77071524D01*
X104923095Y-77071524D01*
D16*
X133305333Y-87491429D02*
X133281143Y-87515619D01*
X133208571Y-87539810D01*
X133160190Y-87539810D01*
X133087619Y-87515619D01*
X133039238Y-87467238D01*
X133015047Y-87418857D01*
X132990857Y-87322095D01*
X132990857Y-87249524D01*
X133015047Y-87152762D01*
X133039238Y-87104381D01*
X133087619Y-87056000D01*
X133160190Y-87031810D01*
X133208571Y-87031810D01*
X133281143Y-87056000D01*
X133305333Y-87080190D01*
X133498857Y-87080190D02*
X133523047Y-87056000D01*
X133571428Y-87031810D01*
X133692381Y-87031810D01*
X133740762Y-87056000D01*
X133764952Y-87080190D01*
X133789143Y-87128571D01*
X133789143Y-87176952D01*
X133764952Y-87249524D01*
X133474666Y-87539810D01*
X133789143Y-87539810D01*
D14*
D16*
X120701333Y-86457429D02*
X120677143Y-86481619D01*
X120604571Y-86505810D01*
X120556190Y-86505810D01*
X120483619Y-86481619D01*
X120435238Y-86433238D01*
X120411047Y-86384857D01*
X120386857Y-86288095D01*
X120386857Y-86215524D01*
X120411047Y-86118762D01*
X120435238Y-86070381D01*
X120483619Y-86022000D01*
X120556190Y-85997810D01*
X120604571Y-85997810D01*
X120677143Y-86022000D01*
X120701333Y-86046190D01*
X120870666Y-85997810D02*
X121185143Y-85997810D01*
X121015809Y-86191333D01*
X121088381Y-86191333D01*
X121136762Y-86215524D01*
X121160952Y-86239714D01*
X121185143Y-86288095D01*
X121185143Y-86409048D01*
X121160952Y-86457429D01*
X121136762Y-86481619D01*
X121088381Y-86505810D01*
X120943238Y-86505810D01*
X120894857Y-86481619D01*
X120870666Y-86457429D01*
D14*
D16*
X112805333Y-78091429D02*
X112781143Y-78115619D01*
X112708571Y-78139810D01*
X112660190Y-78139810D01*
X112587619Y-78115619D01*
X112539238Y-78067238D01*
X112515047Y-78018857D01*
X112490857Y-77922095D01*
X112490857Y-77849524D01*
X112515047Y-77752762D01*
X112539238Y-77704381D01*
X112587619Y-77656000D01*
X112660190Y-77631810D01*
X112708571Y-77631810D01*
X112781143Y-77656000D01*
X112805333Y-77680190D01*
X113240762Y-77801143D02*
X113240762Y-78139810D01*
X113119809Y-77607619D02*
X112998857Y-77970476D01*
X113313333Y-77970476D01*
D14*
D16*
X126035333Y-73630429D02*
X126011143Y-73654619D01*
X125938571Y-73678810D01*
X125890190Y-73678810D01*
X125817619Y-73654619D01*
X125769238Y-73606238D01*
X125745047Y-73557857D01*
X125720857Y-73461095D01*
X125720857Y-73388524D01*
X125745047Y-73291762D01*
X125769238Y-73243381D01*
X125817619Y-73195000D01*
X125890190Y-73170810D01*
X125938571Y-73170810D01*
X126011143Y-73195000D01*
X126035333Y-73219190D01*
X126470762Y-73170810D02*
X126374000Y-73170810D01*
X126325619Y-73195000D01*
X126301428Y-73219190D01*
X126253047Y-73291762D01*
X126228857Y-73388524D01*
X126228857Y-73582048D01*
X126253047Y-73630429D01*
X126277238Y-73654619D01*
X126325619Y-73678810D01*
X126422381Y-73678810D01*
X126470762Y-73654619D01*
X126494952Y-73630429D01*
X126519143Y-73582048D01*
X126519143Y-73461095D01*
X126494952Y-73412714D01*
X126470762Y-73388524D01*
X126422381Y-73364333D01*
X126325619Y-73364333D01*
X126277238Y-73388524D01*
X126253047Y-73412714D01*
X126228857Y-73461095D01*
D14*
D16*
X134086429Y-78084667D02*
X134110619Y-78108857D01*
X134134810Y-78181429D01*
X134134810Y-78229810D01*
X134110619Y-78302381D01*
X134062238Y-78350762D01*
X134013857Y-78374953D01*
X133917095Y-78399143D01*
X133844524Y-78399143D01*
X133747762Y-78374953D01*
X133699381Y-78350762D01*
X133651000Y-78302381D01*
X133626810Y-78229810D01*
X133626810Y-78181429D01*
X133651000Y-78108857D01*
X133675190Y-78084667D01*
X133626810Y-77915334D02*
X133626810Y-77576667D01*
X134134810Y-77794381D01*
D14*
D16*
X134086429Y-76084667D02*
X134110619Y-76108857D01*
X134134810Y-76181429D01*
X134134810Y-76229810D01*
X134110619Y-76302381D01*
X134062238Y-76350762D01*
X134013857Y-76374953D01*
X133917095Y-76399143D01*
X133844524Y-76399143D01*
X133747762Y-76374953D01*
X133699381Y-76350762D01*
X133651000Y-76302381D01*
X133626810Y-76229810D01*
X133626810Y-76181429D01*
X133651000Y-76108857D01*
X133675190Y-76084667D01*
X133844524Y-75794381D02*
X133820333Y-75842762D01*
X133796143Y-75866953D01*
X133747762Y-75891143D01*
X133723571Y-75891143D01*
X133675190Y-75866953D01*
X133651000Y-75842762D01*
X133626810Y-75794381D01*
X133626810Y-75697619D01*
X133651000Y-75649238D01*
X133675190Y-75625048D01*
X133723571Y-75600857D01*
X133747762Y-75600857D01*
X133796143Y-75625048D01*
X133820333Y-75649238D01*
X133844524Y-75697619D01*
X133844524Y-75794381D01*
X133868714Y-75842762D01*
X133892905Y-75866953D01*
X133941286Y-75891143D01*
X134038048Y-75891143D01*
X134086429Y-75866953D01*
X134110619Y-75842762D01*
X134134810Y-75794381D01*
X134134810Y-75697619D01*
X134110619Y-75649238D01*
X134086429Y-75625048D01*
X134038048Y-75600857D01*
X133941286Y-75600857D01*
X133892905Y-75625048D01*
X133868714Y-75649238D01*
X133844524Y-75697619D01*
D14*
D16*
X126543333Y-95728429D02*
X126519143Y-95752619D01*
X126446571Y-95776810D01*
X126398190Y-95776810D01*
X126325619Y-95752619D01*
X126277238Y-95704238D01*
X126253047Y-95655857D01*
X126228857Y-95559095D01*
X126228857Y-95486524D01*
X126253047Y-95389762D01*
X126277238Y-95341381D01*
X126325619Y-95293000D01*
X126398190Y-95268810D01*
X126446571Y-95268810D01*
X126519143Y-95293000D01*
X126543333Y-95317190D01*
X126785238Y-95776810D02*
X126882000Y-95776810D01*
X126930381Y-95752619D01*
X126954571Y-95728429D01*
X127002952Y-95655857D01*
X127027143Y-95559095D01*
X127027143Y-95365571D01*
X127002952Y-95317190D01*
X126978762Y-95293000D01*
X126930381Y-95268810D01*
X126833619Y-95268810D01*
X126785238Y-95293000D01*
X126761047Y-95317190D01*
X126736857Y-95365571D01*
X126736857Y-95486524D01*
X126761047Y-95534905D01*
X126785238Y-95559095D01*
X126833619Y-95583286D01*
X126930381Y-95583286D01*
X126978762Y-95559095D01*
X127002952Y-95534905D01*
X127027143Y-95486524D01*
D14*
D16*
X127825428Y-95728429D02*
X127801238Y-95752619D01*
X127728666Y-95776810D01*
X127680285Y-95776810D01*
X127607714Y-95752619D01*
X127559333Y-95704238D01*
X127535142Y-95655857D01*
X127510952Y-95559095D01*
X127510952Y-95486524D01*
X127535142Y-95389762D01*
X127559333Y-95341381D01*
X127607714Y-95293000D01*
X127680285Y-95268810D01*
X127728666Y-95268810D01*
X127801238Y-95293000D01*
X127825428Y-95317190D01*
X128309238Y-95776810D02*
X128018952Y-95776810D01*
X128164095Y-95776810D02*
X128164095Y-95268810D01*
X128115714Y-95341381D01*
X128067333Y-95389762D01*
X128018952Y-95413952D01*
X128623714Y-95268810D02*
X128672095Y-95268810D01*
X128720476Y-95293000D01*
X128744667Y-95317190D01*
X128768857Y-95365571D01*
X128793048Y-95462333D01*
X128793048Y-95583286D01*
X128768857Y-95680048D01*
X128744667Y-95728429D01*
X128720476Y-95752619D01*
X128672095Y-95776810D01*
X128623714Y-95776810D01*
X128575333Y-95752619D01*
X128551143Y-95728429D01*
X128526952Y-95680048D01*
X128502762Y-95583286D01*
X128502762Y-95462333D01*
X128526952Y-95365571D01*
X128551143Y-95317190D01*
X128575333Y-95293000D01*
X128623714Y-95268810D01*
D14*
D16*
X127825428Y-103983429D02*
X127801238Y-104007619D01*
X127728666Y-104031810D01*
X127680285Y-104031810D01*
X127607714Y-104007619D01*
X127559333Y-103959238D01*
X127535142Y-103910857D01*
X127510952Y-103814095D01*
X127510952Y-103741524D01*
X127535142Y-103644762D01*
X127559333Y-103596381D01*
X127607714Y-103548000D01*
X127680285Y-103523810D01*
X127728666Y-103523810D01*
X127801238Y-103548000D01*
X127825428Y-103572190D01*
X128309238Y-104031810D02*
X128018952Y-104031810D01*
X128164095Y-104031810D02*
X128164095Y-103523810D01*
X128115714Y-103596381D01*
X128067333Y-103644762D01*
X128018952Y-103668952D01*
X128793048Y-104031810D02*
X128502762Y-104031810D01*
X128647905Y-104031810D02*
X128647905Y-103523810D01*
X128599524Y-103596381D01*
X128551143Y-103644762D01*
X128502762Y-103668952D01*
D14*
D16*
X123253428Y-103856429D02*
X123229238Y-103880619D01*
X123156666Y-103904810D01*
X123108285Y-103904810D01*
X123035714Y-103880619D01*
X122987333Y-103832238D01*
X122963142Y-103783857D01*
X122938952Y-103687095D01*
X122938952Y-103614524D01*
X122963142Y-103517762D01*
X122987333Y-103469381D01*
X123035714Y-103421000D01*
X123108285Y-103396810D01*
X123156666Y-103396810D01*
X123229238Y-103421000D01*
X123253428Y-103445190D01*
X123737238Y-103904810D02*
X123446952Y-103904810D01*
X123592095Y-103904810D02*
X123592095Y-103396810D01*
X123543714Y-103469381D01*
X123495333Y-103517762D01*
X123446952Y-103541952D01*
X123930762Y-103445190D02*
X123954952Y-103421000D01*
X124003333Y-103396810D01*
X124124286Y-103396810D01*
X124172667Y-103421000D01*
X124196857Y-103445190D01*
X124221048Y-103493571D01*
X124221048Y-103541952D01*
X124196857Y-103614524D01*
X123906571Y-103904810D01*
X124221048Y-103904810D01*
D14*
D16*
X136334429Y-108954572D02*
X136358619Y-108978762D01*
X136382810Y-109051334D01*
X136382810Y-109099715D01*
X136358619Y-109172286D01*
X136310238Y-109220667D01*
X136261857Y-109244858D01*
X136165095Y-109269048D01*
X136092524Y-109269048D01*
X135995762Y-109244858D01*
X135947381Y-109220667D01*
X135899000Y-109172286D01*
X135874810Y-109099715D01*
X135874810Y-109051334D01*
X135899000Y-108978762D01*
X135923190Y-108954572D01*
X136382810Y-108470762D02*
X136382810Y-108761048D01*
X136382810Y-108615905D02*
X135874810Y-108615905D01*
X135947381Y-108664286D01*
X135995762Y-108712667D01*
X136019952Y-108761048D01*
X135874810Y-108301429D02*
X135874810Y-107986952D01*
X136068333Y-108156286D01*
X136068333Y-108083714D01*
X136092524Y-108035333D01*
X136116714Y-108011143D01*
X136165095Y-107986952D01*
X136286048Y-107986952D01*
X136334429Y-108011143D01*
X136358619Y-108035333D01*
X136382810Y-108083714D01*
X136382810Y-108228857D01*
X136358619Y-108277238D01*
X136334429Y-108301429D01*
D14*
D16*
X129349428Y-103983429D02*
X129325238Y-104007619D01*
X129252666Y-104031810D01*
X129204285Y-104031810D01*
X129131714Y-104007619D01*
X129083333Y-103959238D01*
X129059142Y-103910857D01*
X129034952Y-103814095D01*
X129034952Y-103741524D01*
X129059142Y-103644762D01*
X129083333Y-103596381D01*
X129131714Y-103548000D01*
X129204285Y-103523810D01*
X129252666Y-103523810D01*
X129325238Y-103548000D01*
X129349428Y-103572190D01*
X129833238Y-104031810D02*
X129542952Y-104031810D01*
X129688095Y-104031810D02*
X129688095Y-103523810D01*
X129639714Y-103596381D01*
X129591333Y-103644762D01*
X129542952Y-103668952D01*
X130268667Y-103693143D02*
X130268667Y-104031810D01*
X130147714Y-103499619D02*
X130026762Y-103862476D01*
X130341238Y-103862476D01*
D14*
D16*
X104863428Y-73691429D02*
X104839238Y-73715619D01*
X104766666Y-73739810D01*
X104718285Y-73739810D01*
X104645714Y-73715619D01*
X104597333Y-73667238D01*
X104573142Y-73618857D01*
X104548952Y-73522095D01*
X104548952Y-73449524D01*
X104573142Y-73352762D01*
X104597333Y-73304381D01*
X104645714Y-73256000D01*
X104718285Y-73231810D01*
X104766666Y-73231810D01*
X104839238Y-73256000D01*
X104863428Y-73280190D01*
X105347238Y-73739810D02*
X105056952Y-73739810D01*
X105202095Y-73739810D02*
X105202095Y-73231810D01*
X105153714Y-73304381D01*
X105105333Y-73352762D01*
X105056952Y-73376952D01*
X105806857Y-73231810D02*
X105564952Y-73231810D01*
X105540762Y-73473714D01*
X105564952Y-73449524D01*
X105613333Y-73425333D01*
X105734286Y-73425333D01*
X105782667Y-73449524D01*
X105806857Y-73473714D01*
X105831048Y-73522095D01*
X105831048Y-73643048D01*
X105806857Y-73691429D01*
X105782667Y-73715619D01*
X105734286Y-73739810D01*
X105613333Y-73739810D01*
X105564952Y-73715619D01*
X105540762Y-73691429D01*
D14*
D26*
X138206604Y-87588707D02*
X138182776Y-87612535D01*
X138111293Y-87636362D01*
X138063638Y-87636362D01*
X137992155Y-87612535D01*
X137944500Y-87564880D01*
X137920672Y-87517224D01*
X137896844Y-87421914D01*
X137896844Y-87350431D01*
X137920672Y-87255120D01*
X137944500Y-87207465D01*
X137992155Y-87159810D01*
X138063638Y-87135982D01*
X138111293Y-87135982D01*
X138182776Y-87159810D01*
X138206604Y-87183638D01*
X138683156Y-87636362D02*
X138397224Y-87636362D01*
X138540190Y-87636362D02*
X138540190Y-87135982D01*
X138492535Y-87207465D01*
X138444880Y-87255120D01*
X138397224Y-87278948D01*
X122988604Y-73373707D02*
X122964776Y-73397535D01*
X122893293Y-73421362D01*
X122845638Y-73421362D01*
X122774155Y-73397535D01*
X122726500Y-73349880D01*
X122702672Y-73302224D01*
X122678844Y-73206914D01*
X122678844Y-73135431D01*
X122702672Y-73040120D01*
X122726500Y-72992465D01*
X122774155Y-72944810D01*
X122845638Y-72920982D01*
X122893293Y-72920982D01*
X122964776Y-72944810D01*
X122988604Y-72968638D01*
X123441328Y-72920982D02*
X123203052Y-72920982D01*
X123179224Y-73159259D01*
X123203052Y-73135431D01*
X123250707Y-73111603D01*
X123369845Y-73111603D01*
X123417501Y-73135431D01*
X123441328Y-73159259D01*
X123465156Y-73206914D01*
X123465156Y-73326052D01*
X123441328Y-73373707D01*
X123417501Y-73397535D01*
X123369845Y-73421362D01*
X123250707Y-73421362D01*
X123203052Y-73397535D01*
X123179224Y-73373707D01*
X115384328Y-73246707D02*
X115360500Y-73270535D01*
X115289017Y-73294362D01*
X115241362Y-73294362D01*
X115169879Y-73270535D01*
X115122224Y-73222880D01*
X115098396Y-73175224D01*
X115074568Y-73079914D01*
X115074568Y-73008431D01*
X115098396Y-72913120D01*
X115122224Y-72865465D01*
X115169879Y-72817810D01*
X115241362Y-72793982D01*
X115289017Y-72793982D01*
X115360500Y-72817810D01*
X115384328Y-72841638D01*
X115860880Y-73294362D02*
X115574948Y-73294362D01*
X115717914Y-73294362D02*
X115717914Y-72793982D01*
X115670259Y-72865465D01*
X115622604Y-72913120D01*
X115574948Y-72936948D01*
X116289777Y-72793982D02*
X116194466Y-72793982D01*
X116146811Y-72817810D01*
X116122983Y-72841638D01*
X116075328Y-72913120D01*
X116051500Y-73008431D01*
X116051500Y-73199052D01*
X116075328Y-73246707D01*
X116099156Y-73270535D01*
X116146811Y-73294362D01*
X116242121Y-73294362D01*
X116289777Y-73270535D01*
X116313604Y-73246707D01*
X116337432Y-73199052D01*
X116337432Y-73079914D01*
X116313604Y-73032259D01*
X116289777Y-73008431D01*
X116242121Y-72984603D01*
X116146811Y-72984603D01*
X116099156Y-73008431D01*
X116075328Y-73032259D01*
X116051500Y-73079914D01*
M02*
